%TF.GenerationSoftware,KiCad,Pcbnew,10.0.0*%
%TF.CreationDate,2026-04-21T21:24:03+03:00*%
%TF.ProjectId,s3 dezvolt,73332064-657a-4766-9f6c-742e6b696361,rev?*%
%TF.SameCoordinates,Original*%
%TF.FileFunction,Legend,Top*%
%TF.FilePolarity,Positive*%
%FSLAX46Y46*%
G04 Gerber Fmt 4.6, Leading zero omitted, Abs format (unit mm)*
G04 Created by KiCad (PCBNEW 10.0.0) date 2026-04-21 21:24:03*
%MOMM*%
%LPD*%
G01*
G04 APERTURE LIST*
%ADD10C,0.200000*%
%ADD11C,0.150000*%
%ADD12C,0.120000*%
G04 APERTURE END LIST*
D10*
X99107768Y-65197219D02*
X99774435Y-65197219D01*
X100060149Y-66244838D02*
X99107768Y-66244838D01*
X99107768Y-66244838D02*
X99107768Y-64244838D01*
X99107768Y-64244838D02*
X100060149Y-64244838D01*
X100822054Y-66149600D02*
X101107768Y-66244838D01*
X101107768Y-66244838D02*
X101583959Y-66244838D01*
X101583959Y-66244838D02*
X101774435Y-66149600D01*
X101774435Y-66149600D02*
X101869673Y-66054361D01*
X101869673Y-66054361D02*
X101964911Y-65863885D01*
X101964911Y-65863885D02*
X101964911Y-65673409D01*
X101964911Y-65673409D02*
X101869673Y-65482933D01*
X101869673Y-65482933D02*
X101774435Y-65387695D01*
X101774435Y-65387695D02*
X101583959Y-65292457D01*
X101583959Y-65292457D02*
X101203006Y-65197219D01*
X101203006Y-65197219D02*
X101012530Y-65101980D01*
X101012530Y-65101980D02*
X100917292Y-65006742D01*
X100917292Y-65006742D02*
X100822054Y-64816266D01*
X100822054Y-64816266D02*
X100822054Y-64625790D01*
X100822054Y-64625790D02*
X100917292Y-64435314D01*
X100917292Y-64435314D02*
X101012530Y-64340076D01*
X101012530Y-64340076D02*
X101203006Y-64244838D01*
X101203006Y-64244838D02*
X101679197Y-64244838D01*
X101679197Y-64244838D02*
X101964911Y-64340076D01*
X102822054Y-66244838D02*
X102822054Y-64244838D01*
X102822054Y-64244838D02*
X103583959Y-64244838D01*
X103583959Y-64244838D02*
X103774435Y-64340076D01*
X103774435Y-64340076D02*
X103869673Y-64435314D01*
X103869673Y-64435314D02*
X103964911Y-64625790D01*
X103964911Y-64625790D02*
X103964911Y-64911504D01*
X103964911Y-64911504D02*
X103869673Y-65101980D01*
X103869673Y-65101980D02*
X103774435Y-65197219D01*
X103774435Y-65197219D02*
X103583959Y-65292457D01*
X103583959Y-65292457D02*
X102822054Y-65292457D01*
X104631578Y-64244838D02*
X105869673Y-64244838D01*
X105869673Y-64244838D02*
X105203006Y-65006742D01*
X105203006Y-65006742D02*
X105488721Y-65006742D01*
X105488721Y-65006742D02*
X105679197Y-65101980D01*
X105679197Y-65101980D02*
X105774435Y-65197219D01*
X105774435Y-65197219D02*
X105869673Y-65387695D01*
X105869673Y-65387695D02*
X105869673Y-65863885D01*
X105869673Y-65863885D02*
X105774435Y-66054361D01*
X105774435Y-66054361D02*
X105679197Y-66149600D01*
X105679197Y-66149600D02*
X105488721Y-66244838D01*
X105488721Y-66244838D02*
X104917292Y-66244838D01*
X104917292Y-66244838D02*
X104726816Y-66149600D01*
X104726816Y-66149600D02*
X104631578Y-66054361D01*
X106631578Y-64435314D02*
X106726816Y-64340076D01*
X106726816Y-64340076D02*
X106917292Y-64244838D01*
X106917292Y-64244838D02*
X107393483Y-64244838D01*
X107393483Y-64244838D02*
X107583959Y-64340076D01*
X107583959Y-64340076D02*
X107679197Y-64435314D01*
X107679197Y-64435314D02*
X107774435Y-64625790D01*
X107774435Y-64625790D02*
X107774435Y-64816266D01*
X107774435Y-64816266D02*
X107679197Y-65101980D01*
X107679197Y-65101980D02*
X106536340Y-66244838D01*
X106536340Y-66244838D02*
X107774435Y-66244838D01*
X108631578Y-65482933D02*
X110155388Y-65482933D01*
X111012530Y-66149600D02*
X111298244Y-66244838D01*
X111298244Y-66244838D02*
X111774435Y-66244838D01*
X111774435Y-66244838D02*
X111964911Y-66149600D01*
X111964911Y-66149600D02*
X112060149Y-66054361D01*
X112060149Y-66054361D02*
X112155387Y-65863885D01*
X112155387Y-65863885D02*
X112155387Y-65673409D01*
X112155387Y-65673409D02*
X112060149Y-65482933D01*
X112060149Y-65482933D02*
X111964911Y-65387695D01*
X111964911Y-65387695D02*
X111774435Y-65292457D01*
X111774435Y-65292457D02*
X111393482Y-65197219D01*
X111393482Y-65197219D02*
X111203006Y-65101980D01*
X111203006Y-65101980D02*
X111107768Y-65006742D01*
X111107768Y-65006742D02*
X111012530Y-64816266D01*
X111012530Y-64816266D02*
X111012530Y-64625790D01*
X111012530Y-64625790D02*
X111107768Y-64435314D01*
X111107768Y-64435314D02*
X111203006Y-64340076D01*
X111203006Y-64340076D02*
X111393482Y-64244838D01*
X111393482Y-64244838D02*
X111869673Y-64244838D01*
X111869673Y-64244838D02*
X112155387Y-64340076D01*
X112822054Y-64244838D02*
X114060149Y-64244838D01*
X114060149Y-64244838D02*
X113393482Y-65006742D01*
X113393482Y-65006742D02*
X113679197Y-65006742D01*
X113679197Y-65006742D02*
X113869673Y-65101980D01*
X113869673Y-65101980D02*
X113964911Y-65197219D01*
X113964911Y-65197219D02*
X114060149Y-65387695D01*
X114060149Y-65387695D02*
X114060149Y-65863885D01*
X114060149Y-65863885D02*
X113964911Y-66054361D01*
X113964911Y-66054361D02*
X113869673Y-66149600D01*
X113869673Y-66149600D02*
X113679197Y-66244838D01*
X113679197Y-66244838D02*
X113107768Y-66244838D01*
X113107768Y-66244838D02*
X112917292Y-66149600D01*
X112917292Y-66149600D02*
X112822054Y-66054361D01*
X116441102Y-66244838D02*
X116441102Y-64244838D01*
X116441102Y-64244838D02*
X117107769Y-65673409D01*
X117107769Y-65673409D02*
X117774435Y-64244838D01*
X117774435Y-64244838D02*
X117774435Y-66244838D01*
X118631578Y-65673409D02*
X119583959Y-65673409D01*
X118441102Y-66244838D02*
X119107768Y-64244838D01*
X119107768Y-64244838D02*
X119774435Y-66244838D01*
X120345864Y-66149600D02*
X120631578Y-66244838D01*
X120631578Y-66244838D02*
X121107769Y-66244838D01*
X121107769Y-66244838D02*
X121298245Y-66149600D01*
X121298245Y-66149600D02*
X121393483Y-66054361D01*
X121393483Y-66054361D02*
X121488721Y-65863885D01*
X121488721Y-65863885D02*
X121488721Y-65673409D01*
X121488721Y-65673409D02*
X121393483Y-65482933D01*
X121393483Y-65482933D02*
X121298245Y-65387695D01*
X121298245Y-65387695D02*
X121107769Y-65292457D01*
X121107769Y-65292457D02*
X120726816Y-65197219D01*
X120726816Y-65197219D02*
X120536340Y-65101980D01*
X120536340Y-65101980D02*
X120441102Y-65006742D01*
X120441102Y-65006742D02*
X120345864Y-64816266D01*
X120345864Y-64816266D02*
X120345864Y-64625790D01*
X120345864Y-64625790D02*
X120441102Y-64435314D01*
X120441102Y-64435314D02*
X120536340Y-64340076D01*
X120536340Y-64340076D02*
X120726816Y-64244838D01*
X120726816Y-64244838D02*
X121203007Y-64244838D01*
X121203007Y-64244838D02*
X121488721Y-64340076D01*
X122060150Y-64244838D02*
X123203007Y-64244838D01*
X122631578Y-66244838D02*
X122631578Y-64244838D01*
X123869674Y-65197219D02*
X124536341Y-65197219D01*
X124822055Y-66244838D02*
X123869674Y-66244838D01*
X123869674Y-66244838D02*
X123869674Y-64244838D01*
X123869674Y-64244838D02*
X124822055Y-64244838D01*
X126822055Y-66244838D02*
X126155388Y-65292457D01*
X125679198Y-66244838D02*
X125679198Y-64244838D01*
X125679198Y-64244838D02*
X126441103Y-64244838D01*
X126441103Y-64244838D02*
X126631579Y-64340076D01*
X126631579Y-64340076D02*
X126726817Y-64435314D01*
X126726817Y-64435314D02*
X126822055Y-64625790D01*
X126822055Y-64625790D02*
X126822055Y-64911504D01*
X126822055Y-64911504D02*
X126726817Y-65101980D01*
X126726817Y-65101980D02*
X126631579Y-65197219D01*
X126631579Y-65197219D02*
X126441103Y-65292457D01*
X126441103Y-65292457D02*
X125679198Y-65292457D01*
G36*
X99084717Y-67409267D02*
G01*
X99084717Y-68136133D01*
X99491870Y-68136133D01*
X99576406Y-68131797D01*
X99635973Y-68120624D01*
X99686589Y-68100027D01*
X99722679Y-68072142D01*
X99749041Y-68035442D01*
X99766399Y-67989099D01*
X99782885Y-67870397D01*
X99833443Y-67870397D01*
X99833443Y-68511290D01*
X99782885Y-68511290D01*
X99763712Y-68401015D01*
X99744661Y-68339344D01*
X99713154Y-68296723D01*
X99664061Y-68264849D01*
X99591643Y-68244577D01*
X99491870Y-68237739D01*
X99084717Y-68237739D01*
X99084717Y-68850177D01*
X99088462Y-68960760D01*
X99095708Y-69000875D01*
X99109263Y-69024200D01*
X99133199Y-69042641D01*
X99174232Y-69054364D01*
X99237735Y-69058394D01*
X99551953Y-69058394D01*
X99686531Y-69053754D01*
X99780809Y-69037512D01*
X99851884Y-69005027D01*
X99916730Y-68951660D01*
X100002826Y-68847613D01*
X100090265Y-68698869D01*
X100144975Y-68698869D01*
X99985118Y-69160000D01*
X98557397Y-69160000D01*
X98557397Y-69113105D01*
X98622976Y-69113105D01*
X98677564Y-69107609D01*
X98731542Y-69089780D01*
X98777337Y-69059005D01*
X98806036Y-69015652D01*
X98817101Y-68961444D01*
X98822400Y-68836011D01*
X98822400Y-67627498D01*
X98816658Y-67507882D01*
X98803326Y-67441681D01*
X98786863Y-67409389D01*
X98750163Y-67380719D01*
X98697425Y-67361743D01*
X98622976Y-67354556D01*
X98557397Y-67354556D01*
X98557397Y-67307662D01*
X99985118Y-67307662D01*
X99985118Y-67714082D01*
X99952267Y-67714082D01*
X99922226Y-67592449D01*
X99888032Y-67513192D01*
X99844312Y-67463244D01*
X99785572Y-67429783D01*
X99719420Y-67415546D01*
X99592986Y-67409267D01*
X99084717Y-67409267D01*
G37*
G36*
X100661915Y-68135645D02*
G01*
X100783874Y-68007553D01*
X100892372Y-67927187D01*
X100990363Y-67883887D01*
X101081402Y-67870397D01*
X101149053Y-67876367D01*
X101209752Y-67893722D01*
X101264071Y-67924327D01*
X101312212Y-67971758D01*
X101349848Y-68032787D01*
X101380478Y-68117083D01*
X101398359Y-68213258D01*
X101405146Y-68343129D01*
X101405146Y-68878754D01*
X101413939Y-69006249D01*
X101426856Y-69048885D01*
X101444713Y-69076835D01*
X101469796Y-69096068D01*
X101503454Y-69106999D01*
X101596388Y-69113105D01*
X101596388Y-69160000D01*
X100977477Y-69160000D01*
X100977477Y-69113105D01*
X101003489Y-69113105D01*
X101099720Y-69102236D01*
X101130795Y-69087012D01*
X101152355Y-69064623D01*
X101166401Y-69035000D01*
X101174947Y-68992937D01*
X101179710Y-68879609D01*
X101179710Y-68367431D01*
X101173533Y-68253148D01*
X101157660Y-68173349D01*
X101135258Y-68119525D01*
X101099790Y-68077334D01*
X101051406Y-68051646D01*
X100985659Y-68042344D01*
X100909661Y-68051873D01*
X100831627Y-68081567D01*
X100749569Y-68134682D01*
X100661915Y-68216367D01*
X100661915Y-68878632D01*
X100666925Y-68992121D01*
X100676936Y-69036290D01*
X100698063Y-69072072D01*
X100729570Y-69096008D01*
X100781472Y-69109075D01*
X100865491Y-69113105D01*
X100865491Y-69160000D01*
X100246580Y-69160000D01*
X100246580Y-69113105D01*
X100273935Y-69113105D01*
X100354413Y-69102114D01*
X100382680Y-69086981D01*
X100404361Y-69063646D01*
X100419389Y-69033333D01*
X100429640Y-68991594D01*
X100436479Y-68878265D01*
X100436479Y-68411395D01*
X100432720Y-68208262D01*
X100425488Y-68135279D01*
X100411779Y-68091081D01*
X100394713Y-68067990D01*
X100370901Y-68054912D01*
X100338049Y-68050160D01*
X100298484Y-68054760D01*
X100246580Y-68070676D01*
X100226064Y-68018897D01*
X100603175Y-67870397D01*
X100661915Y-67870397D01*
X100661915Y-68135645D01*
G37*
G36*
X102352255Y-67881770D02*
G01*
X102459787Y-67912773D01*
X102520979Y-67947847D01*
X102569286Y-67995972D01*
X102606088Y-68058953D01*
X102622806Y-68134129D01*
X102630635Y-68299532D01*
X102630635Y-68724515D01*
X102632711Y-68869473D01*
X102637473Y-68944577D01*
X102647525Y-68979985D01*
X102659944Y-68997822D01*
X102696214Y-69011500D01*
X102722226Y-69007470D01*
X102750924Y-68990983D01*
X102789148Y-68957522D01*
X102845202Y-68902079D01*
X102845202Y-68980237D01*
X102758558Y-69079539D01*
X102682556Y-69140878D01*
X102614886Y-69173419D01*
X102552721Y-69183447D01*
X102492851Y-69171751D01*
X102446109Y-69137407D01*
X102417117Y-69081240D01*
X102405198Y-68980237D01*
X102228035Y-69110769D01*
X102163398Y-69149863D01*
X102088487Y-69174931D01*
X102006350Y-69183447D01*
X101943924Y-69177565D01*
X101887404Y-69160366D01*
X101836396Y-69132453D01*
X101793126Y-69095275D01*
X101758140Y-69049479D01*
X101730966Y-68994159D01*
X101714294Y-68932889D01*
X101708496Y-68863122D01*
X101712176Y-68811463D01*
X101714821Y-68799986D01*
X101937962Y-68799986D01*
X101941965Y-68847641D01*
X101953593Y-68890478D01*
X101995969Y-68962529D01*
X102025001Y-68989792D01*
X102058129Y-69010157D01*
X102094489Y-69022915D01*
X102132013Y-69027131D01*
X102198041Y-69015861D01*
X102286427Y-68975777D01*
X102405198Y-68894263D01*
X102405198Y-68417501D01*
X102235083Y-68486256D01*
X102138852Y-68531929D01*
X102041779Y-68597690D01*
X101984368Y-68657836D01*
X101949490Y-68725901D01*
X101937962Y-68799986D01*
X101714821Y-68799986D01*
X101722784Y-68765425D01*
X101765893Y-68680551D01*
X101838921Y-68603859D01*
X101943457Y-68531929D01*
X102108540Y-68449017D01*
X102405198Y-68331528D01*
X102405198Y-68282435D01*
X102400859Y-68192251D01*
X102389445Y-68125509D01*
X102369465Y-68067082D01*
X102344382Y-68025247D01*
X102311359Y-67993140D01*
X102271353Y-67972124D01*
X102225891Y-67960472D01*
X102172923Y-67956371D01*
X102094399Y-67969193D01*
X102034926Y-68003021D01*
X101997435Y-68051625D01*
X101984490Y-68107801D01*
X101987177Y-68186203D01*
X101978532Y-68243076D01*
X101955059Y-68282191D01*
X101918588Y-68307230D01*
X101871039Y-68315896D01*
X101824790Y-68306913D01*
X101788363Y-68280481D01*
X101764802Y-68240150D01*
X101756245Y-68183761D01*
X101763709Y-68127594D01*
X101786898Y-68070676D01*
X101823706Y-68018466D01*
X101875680Y-67969926D01*
X101938828Y-67930228D01*
X102019173Y-67897630D01*
X102108164Y-67877552D01*
X102213956Y-67870397D01*
X102352255Y-67881770D01*
G37*
G36*
X104001814Y-68686657D02*
G01*
X103968569Y-68805690D01*
X103923900Y-68906109D01*
X103866585Y-68995268D01*
X103802267Y-69066943D01*
X103728642Y-69124644D01*
X103649249Y-69165617D01*
X103564475Y-69190735D01*
X103477180Y-69199078D01*
X103374448Y-69187475D01*
X103276290Y-69152550D01*
X103186919Y-69096595D01*
X103107519Y-69019804D01*
X103042832Y-68926356D01*
X102990771Y-68811221D01*
X102958435Y-68683872D01*
X102947051Y-68535471D01*
X102959340Y-68391989D01*
X102994801Y-68265216D01*
X103051770Y-68150221D01*
X103123883Y-68055167D01*
X103212078Y-67977306D01*
X103313782Y-67919002D01*
X103425407Y-67882612D01*
X103544103Y-67870397D01*
X103633259Y-67877395D01*
X103712875Y-67897630D01*
X103785934Y-67929466D01*
X103845987Y-67968217D01*
X103896793Y-68014881D01*
X103934159Y-68064692D01*
X103958608Y-68118453D01*
X103966277Y-68169228D01*
X103957813Y-68216511D01*
X103933426Y-68252759D01*
X103895344Y-68276032D01*
X103839270Y-68284633D01*
X103781140Y-68277916D01*
X103734734Y-68253736D01*
X103702616Y-68205254D01*
X103686252Y-68125753D01*
X103668473Y-68054062D01*
X103632274Y-68005341D01*
X103578162Y-67975353D01*
X103499040Y-67964187D01*
X103422136Y-67973528D01*
X103356891Y-68000457D01*
X103300572Y-68042902D01*
X103253087Y-68099009D01*
X103216586Y-68165279D01*
X103189584Y-68244089D01*
X103173850Y-68328535D01*
X103168457Y-68419944D01*
X103175508Y-68528043D01*
X103196423Y-68631458D01*
X103231140Y-68728956D01*
X103277023Y-68812808D01*
X103335793Y-68884856D01*
X103404762Y-68940181D01*
X103484243Y-68975872D01*
X103575488Y-68988053D01*
X103684787Y-68973764D01*
X103735032Y-68954351D01*
X103784438Y-68923695D01*
X103829946Y-68882942D01*
X103876639Y-68825753D01*
X103918483Y-68758303D01*
X103962124Y-68667606D01*
X104001814Y-68686657D01*
G37*
G36*
X104549040Y-67213872D02*
G01*
X104549040Y-68130394D01*
X104635746Y-68041856D01*
X104727948Y-67957470D01*
X104779289Y-67922829D01*
X104835170Y-67894944D01*
X104895942Y-67876778D01*
X104967184Y-67870397D01*
X105060420Y-67881959D01*
X105129727Y-67913628D01*
X105185446Y-67963587D01*
X105228035Y-68028667D01*
X105257484Y-68104095D01*
X105276517Y-68192431D01*
X105289584Y-68381475D01*
X105289584Y-68878754D01*
X105291660Y-68985000D01*
X105297848Y-69025407D01*
X105310711Y-69054853D01*
X105332128Y-69077727D01*
X105365422Y-69095275D01*
X105407519Y-69105865D01*
X105475453Y-69113105D01*
X105475453Y-69160000D01*
X104860572Y-69160000D01*
X104860572Y-69113105D01*
X104889270Y-69113105D01*
X104947237Y-69109955D01*
X104984891Y-69102114D01*
X105015335Y-69086913D01*
X105036793Y-69064378D01*
X105050671Y-69034613D01*
X105058653Y-68992327D01*
X105062805Y-68878510D01*
X105062805Y-68380376D01*
X105060729Y-68260209D01*
X105054571Y-68200927D01*
X105040945Y-68149078D01*
X105017199Y-68103433D01*
X104981472Y-68066769D01*
X104933817Y-68043440D01*
X104861915Y-68034528D01*
X104793649Y-68042100D01*
X104721842Y-68069455D01*
X104641974Y-68124288D01*
X104549040Y-68213925D01*
X104549040Y-68878387D01*
X104551727Y-68983412D01*
X104561985Y-69041786D01*
X104582501Y-69071950D01*
X104615963Y-69092466D01*
X104669207Y-69108342D01*
X104751273Y-69113105D01*
X104751273Y-69160000D01*
X104131018Y-69160000D01*
X104131018Y-69113105D01*
X104219068Y-69106999D01*
X104252499Y-69096314D01*
X104278541Y-69077568D01*
X104297655Y-69050025D01*
X104312002Y-69006981D01*
X104322260Y-68878876D01*
X104322260Y-67743025D01*
X104318535Y-67550092D01*
X104311270Y-67478632D01*
X104297566Y-67434541D01*
X104280495Y-67411465D01*
X104256682Y-67398387D01*
X104223831Y-67393635D01*
X104189273Y-67398112D01*
X104131018Y-67415495D01*
X104111845Y-67370188D01*
X104486147Y-67213872D01*
X104549040Y-67213872D01*
G37*
G36*
X106275846Y-67879627D02*
G01*
X106366817Y-67906545D01*
X106449259Y-67950436D01*
X106519225Y-68009371D01*
X106575962Y-68081948D01*
X106619609Y-68169351D01*
X106646481Y-68266382D01*
X106655879Y-68378422D01*
X105791015Y-68378422D01*
X105800656Y-68514838D01*
X105827896Y-68631092D01*
X105872255Y-68736315D01*
X105927547Y-68820868D01*
X105996122Y-68890101D01*
X106073115Y-68939570D01*
X106158083Y-68970085D01*
X106247383Y-68980237D01*
X106327143Y-68972517D01*
X106397792Y-68950123D01*
X106461217Y-68913192D01*
X106514585Y-68862521D01*
X106565505Y-68787974D01*
X106613503Y-68683237D01*
X106655879Y-68710226D01*
X106634230Y-68799389D01*
X106598482Y-68888524D01*
X106550001Y-68971678D01*
X106489794Y-69045083D01*
X106418340Y-69107228D01*
X106335432Y-69156580D01*
X106244131Y-69188294D01*
X106143457Y-69199078D01*
X106034375Y-69187557D01*
X105932431Y-69153283D01*
X105839830Y-69098157D01*
X105758897Y-69023468D01*
X105693008Y-68932038D01*
X105640683Y-68819769D01*
X105608325Y-68695384D01*
X105596964Y-68551102D01*
X105608599Y-68393951D01*
X105631820Y-68300265D01*
X105791015Y-68300265D01*
X106370237Y-68300265D01*
X106358779Y-68188254D01*
X106341538Y-68129417D01*
X106298706Y-68060278D01*
X106239689Y-68008272D01*
X106169812Y-67974964D01*
X106098394Y-67964187D01*
X106043449Y-67969850D01*
X105990439Y-67986901D01*
X105941316Y-68014527D01*
X105896161Y-68053091D01*
X105857960Y-68100352D01*
X105825819Y-68158482D01*
X105803499Y-68223417D01*
X105791015Y-68300265D01*
X105631820Y-68300265D01*
X105641294Y-68262041D01*
X105695133Y-68143606D01*
X105763660Y-68048206D01*
X105848771Y-67971121D01*
X105947452Y-67915582D01*
X106056508Y-67881845D01*
X106174965Y-67870397D01*
X106275846Y-67879627D01*
G37*
G36*
X107632117Y-67870397D02*
G01*
X107632117Y-68292449D01*
X107587055Y-68292449D01*
X107557986Y-68196740D01*
X107528192Y-68125997D01*
X107492037Y-68064990D01*
X107453820Y-68020607D01*
X107409400Y-67986744D01*
X107360886Y-67964919D01*
X107307912Y-67952809D01*
X107246824Y-67948555D01*
X107200524Y-67952283D01*
X107160118Y-67962965D01*
X107093073Y-67999846D01*
X107049354Y-68051870D01*
X107033722Y-68111343D01*
X107044591Y-68182540D01*
X107060482Y-68214243D01*
X107090387Y-68250195D01*
X107190160Y-68324689D01*
X107364305Y-68417745D01*
X107460636Y-68468736D01*
X107534420Y-68515321D01*
X107598861Y-68565021D01*
X107646406Y-68611430D01*
X107683977Y-68661331D01*
X107707955Y-68710959D01*
X107721778Y-68763218D01*
X107726395Y-68817327D01*
X107717142Y-68900683D01*
X107690125Y-68974619D01*
X107648136Y-69040260D01*
X107595237Y-69094787D01*
X107532724Y-69138459D01*
X107461270Y-69171601D01*
X107385238Y-69192255D01*
X107308374Y-69199078D01*
X107185397Y-69189797D01*
X107046057Y-69159267D01*
X107005024Y-69149375D01*
X106972295Y-69146078D01*
X106945505Y-69153149D01*
X106923080Y-69175631D01*
X106878018Y-69175631D01*
X106878018Y-68737948D01*
X106923080Y-68737948D01*
X106947646Y-68829041D01*
X106980478Y-68905010D01*
X107022792Y-68972003D01*
X107069870Y-69024567D01*
X107124193Y-69066501D01*
X107183321Y-69096496D01*
X107246477Y-69114841D01*
X107311060Y-69120921D01*
X107356152Y-69117037D01*
X107396423Y-69105778D01*
X107464078Y-69064989D01*
X107489549Y-69037062D01*
X107508408Y-69004783D01*
X107520169Y-68969075D01*
X107524162Y-68930045D01*
X107510484Y-68845048D01*
X107491774Y-68808628D01*
X107459926Y-68771043D01*
X107358810Y-68695694D01*
X107193579Y-68605080D01*
X107030303Y-68513733D01*
X106972879Y-68469644D01*
X106932606Y-68428614D01*
X106902463Y-68383852D01*
X106884734Y-68338611D01*
X106872522Y-68231632D01*
X106879619Y-68157334D01*
X106900488Y-68089239D01*
X106934324Y-68027316D01*
X106979134Y-67974689D01*
X107033945Y-67931752D01*
X107099302Y-67898363D01*
X107171455Y-67877567D01*
X107252320Y-67870397D01*
X107319242Y-67878335D01*
X107401919Y-67895554D01*
X107477756Y-67912773D01*
X107524162Y-67920711D01*
X107558356Y-67911430D01*
X107587055Y-67870397D01*
X107632117Y-67870397D01*
G37*
G36*
X108974598Y-68686657D02*
G01*
X108941354Y-68805690D01*
X108896685Y-68906109D01*
X108839369Y-68995268D01*
X108775052Y-69066943D01*
X108701426Y-69124644D01*
X108622034Y-69165617D01*
X108537259Y-69190735D01*
X108449965Y-69199078D01*
X108347232Y-69187475D01*
X108249075Y-69152550D01*
X108159703Y-69096595D01*
X108080303Y-69019804D01*
X108015616Y-68926356D01*
X107963555Y-68811221D01*
X107931220Y-68683872D01*
X107919836Y-68535471D01*
X107932124Y-68391989D01*
X107967585Y-68265216D01*
X108024555Y-68150221D01*
X108096667Y-68055167D01*
X108184862Y-67977306D01*
X108286566Y-67919002D01*
X108398191Y-67882612D01*
X108516887Y-67870397D01*
X108606043Y-67877395D01*
X108685659Y-67897630D01*
X108758719Y-67929466D01*
X108818771Y-67968217D01*
X108869577Y-68014881D01*
X108906943Y-68064692D01*
X108931392Y-68118453D01*
X108939061Y-68169228D01*
X108930597Y-68216511D01*
X108906210Y-68252759D01*
X108868128Y-68276032D01*
X108812055Y-68284633D01*
X108753925Y-68277916D01*
X108707519Y-68253736D01*
X108675401Y-68205254D01*
X108659036Y-68125753D01*
X108641257Y-68054062D01*
X108605059Y-68005341D01*
X108550946Y-67975353D01*
X108471824Y-67964187D01*
X108394921Y-67973528D01*
X108329675Y-68000457D01*
X108273356Y-68042902D01*
X108225872Y-68099009D01*
X108189370Y-68165279D01*
X108162369Y-68244089D01*
X108146634Y-68328535D01*
X108141242Y-68419944D01*
X108148293Y-68528043D01*
X108169207Y-68631458D01*
X108203925Y-68728956D01*
X108249808Y-68812808D01*
X108308577Y-68884856D01*
X108377547Y-68940181D01*
X108457027Y-68975872D01*
X108548272Y-68988053D01*
X108657571Y-68973764D01*
X108707817Y-68954351D01*
X108757222Y-68923695D01*
X108802730Y-68882942D01*
X108849424Y-68825753D01*
X108891267Y-68758303D01*
X108934909Y-68667606D01*
X108974598Y-68686657D01*
G37*
G36*
X110251500Y-67909476D02*
G01*
X110251500Y-68667117D01*
X110254818Y-68866187D01*
X110261025Y-68933342D01*
X110276027Y-68976171D01*
X110294487Y-69000265D01*
X110318887Y-69014533D01*
X110347121Y-69019316D01*
X110389121Y-69014041D01*
X110442620Y-68995990D01*
X110461793Y-69042763D01*
X110087491Y-69199078D01*
X110026064Y-69199078D01*
X110026064Y-68933342D01*
X109869194Y-69088613D01*
X109780111Y-69153893D01*
X109692774Y-69187833D01*
X109601081Y-69199078D01*
X109533043Y-69192223D01*
X109473043Y-69172340D01*
X109419364Y-69139483D01*
X109354600Y-69070773D01*
X109311409Y-68981214D01*
X109290059Y-68876305D01*
X109281367Y-68709982D01*
X109281367Y-68149567D01*
X109271109Y-68049549D01*
X109257080Y-68014731D01*
X109237648Y-67990687D01*
X109211640Y-67973862D01*
X109176831Y-67963210D01*
X109085973Y-67956371D01*
X109069609Y-67956371D01*
X109069609Y-67909476D01*
X109508269Y-67909476D01*
X109508269Y-68743932D01*
X109513046Y-68829435D01*
X109525366Y-68889623D01*
X109546349Y-68940983D01*
X109571161Y-68976085D01*
X109602375Y-69001834D01*
X109637351Y-69016995D01*
X109715875Y-69027131D01*
X109778035Y-69019071D01*
X109849110Y-68990983D01*
X109930443Y-68937250D01*
X110026064Y-68852742D01*
X110026064Y-68141385D01*
X110017882Y-68052969D01*
X110005814Y-68020949D01*
X109987107Y-67996793D01*
X109961416Y-67979119D01*
X109925558Y-67966629D01*
X109825174Y-67956371D01*
X109825174Y-67909476D01*
X110251500Y-67909476D01*
G37*
G36*
X112085197Y-67313762D02*
G01*
X112225906Y-67329532D01*
X112322679Y-67351625D01*
X112390082Y-67377269D01*
X112453105Y-67413297D01*
X112510242Y-67458306D01*
X112559717Y-67510750D01*
X112600583Y-67570230D01*
X112632135Y-67637023D01*
X112652004Y-67708836D01*
X112658757Y-67786500D01*
X112651782Y-67870862D01*
X112631402Y-67947822D01*
X112596985Y-68018892D01*
X112547383Y-68084354D01*
X112484691Y-68140934D01*
X112404623Y-68191332D01*
X112313637Y-68230886D01*
X112202390Y-68262651D01*
X112584996Y-68793635D01*
X112679031Y-68914451D01*
X112752864Y-68991721D01*
X112810432Y-69036657D01*
X112915118Y-69084355D01*
X113056385Y-69113105D01*
X113056385Y-69160000D01*
X112561793Y-69160000D01*
X111934699Y-68297578D01*
X111871074Y-68299654D01*
X111821249Y-68300265D01*
X111783025Y-68299654D01*
X111740648Y-68297578D01*
X111740648Y-68835767D01*
X111746790Y-68954674D01*
X111761079Y-69020649D01*
X111778872Y-69053021D01*
X111817467Y-69085320D01*
X111868140Y-69105686D01*
X111934699Y-69113105D01*
X112007117Y-69113105D01*
X112007117Y-69160000D01*
X111213328Y-69160000D01*
X111213328Y-69113105D01*
X111282937Y-69113105D01*
X111356358Y-69103697D01*
X111410764Y-69077886D01*
X111450976Y-69036290D01*
X111470230Y-68978861D01*
X111479675Y-68834668D01*
X111479675Y-67632993D01*
X111473530Y-67513568D01*
X111459237Y-67447345D01*
X111452693Y-67435401D01*
X111740648Y-67435401D01*
X111740648Y-68212948D01*
X111785711Y-68213681D01*
X111817219Y-68214291D01*
X111945174Y-68206065D01*
X112050104Y-68183272D01*
X112144147Y-68145191D01*
X112217411Y-68097177D01*
X112276396Y-68036565D01*
X112317916Y-67966873D01*
X112342866Y-67889182D01*
X112351378Y-67803475D01*
X112344008Y-67719204D01*
X112322679Y-67644351D01*
X112287760Y-67576577D01*
X112241346Y-67519542D01*
X112184124Y-67473306D01*
X112115683Y-67438210D01*
X112040108Y-67416694D01*
X111955216Y-67409267D01*
X111862159Y-67415495D01*
X111740648Y-67435401D01*
X111452693Y-67435401D01*
X111441451Y-67414884D01*
X111402068Y-67382464D01*
X111350500Y-67362007D01*
X111282937Y-67354556D01*
X111213328Y-67354556D01*
X111213328Y-67307662D01*
X111888171Y-67307662D01*
X112085197Y-67313762D01*
G37*
G36*
X113775004Y-67881770D02*
G01*
X113882536Y-67912773D01*
X113943729Y-67947847D01*
X113992036Y-67995972D01*
X114028838Y-68058953D01*
X114045555Y-68134129D01*
X114053384Y-68299532D01*
X114053384Y-68724515D01*
X114055460Y-68869473D01*
X114060223Y-68944577D01*
X114070275Y-68979985D01*
X114082693Y-68997822D01*
X114118963Y-69011500D01*
X114144975Y-69007470D01*
X114173674Y-68990983D01*
X114211898Y-68957522D01*
X114267951Y-68902079D01*
X114267951Y-68980237D01*
X114181307Y-69079539D01*
X114105305Y-69140878D01*
X114037636Y-69173419D01*
X113975471Y-69183447D01*
X113915600Y-69171751D01*
X113868859Y-69137407D01*
X113839867Y-69081240D01*
X113827948Y-68980237D01*
X113650784Y-69110769D01*
X113586147Y-69149863D01*
X113511237Y-69174931D01*
X113429099Y-69183447D01*
X113366674Y-69177565D01*
X113310153Y-69160366D01*
X113259145Y-69132453D01*
X113215875Y-69095275D01*
X113180890Y-69049479D01*
X113153715Y-68994159D01*
X113137043Y-68932889D01*
X113131245Y-68863122D01*
X113134926Y-68811463D01*
X113137570Y-68799986D01*
X113360711Y-68799986D01*
X113364714Y-68847641D01*
X113376343Y-68890478D01*
X113418719Y-68962529D01*
X113447750Y-68989792D01*
X113480879Y-69010157D01*
X113517239Y-69022915D01*
X113554762Y-69027131D01*
X113620790Y-69015861D01*
X113709177Y-68975777D01*
X113827948Y-68894263D01*
X113827948Y-68417501D01*
X113657833Y-68486256D01*
X113561601Y-68531929D01*
X113464528Y-68597690D01*
X113407117Y-68657836D01*
X113372239Y-68725901D01*
X113360711Y-68799986D01*
X113137570Y-68799986D01*
X113145533Y-68765425D01*
X113188642Y-68680551D01*
X113261671Y-68603859D01*
X113366207Y-68531929D01*
X113531289Y-68449017D01*
X113827948Y-68331528D01*
X113827948Y-68282435D01*
X113823609Y-68192251D01*
X113812194Y-68125509D01*
X113792215Y-68067082D01*
X113767131Y-68025247D01*
X113734108Y-67993140D01*
X113694103Y-67972124D01*
X113648640Y-67960472D01*
X113595673Y-67956371D01*
X113517149Y-67969193D01*
X113457676Y-68003021D01*
X113420184Y-68051625D01*
X113407240Y-68107801D01*
X113409926Y-68186203D01*
X113401281Y-68243076D01*
X113377808Y-68282191D01*
X113341337Y-68307230D01*
X113293789Y-68315896D01*
X113247539Y-68306913D01*
X113211113Y-68280481D01*
X113187552Y-68240150D01*
X113178995Y-68183761D01*
X113186458Y-68127594D01*
X113209647Y-68070676D01*
X113246456Y-68018466D01*
X113298429Y-67969926D01*
X113361578Y-67930228D01*
X113441922Y-67897630D01*
X113530914Y-67877552D01*
X113636706Y-67870397D01*
X113775004Y-67881770D01*
G37*
G36*
X115470969Y-68663454D02*
G01*
X115474295Y-68865465D01*
X115480495Y-68933098D01*
X115495503Y-68976033D01*
X115513956Y-69000143D01*
X115538365Y-69014506D01*
X115566591Y-69019316D01*
X115604902Y-69014418D01*
X115665020Y-68995990D01*
X115680041Y-69042763D01*
X115308426Y-69199078D01*
X115245533Y-69199078D01*
X115245533Y-69021880D01*
X115151481Y-69105969D01*
X115067236Y-69157801D01*
X114977341Y-69188595D01*
X114878070Y-69199078D01*
X114778231Y-69187643D01*
X114683408Y-69153283D01*
X114597079Y-69098945D01*
X114520743Y-69026154D01*
X114458307Y-68938389D01*
X114408757Y-68832714D01*
X114377818Y-68716859D01*
X114367114Y-68586639D01*
X114375656Y-68480272D01*
X114617096Y-68480272D01*
X114625920Y-68613849D01*
X114650558Y-68725125D01*
X114690468Y-68825581D01*
X114738607Y-68904277D01*
X114798131Y-68968795D01*
X114862927Y-69013698D01*
X114934079Y-69041552D01*
X115005076Y-69050579D01*
X115083082Y-69038071D01*
X115162293Y-68998641D01*
X115245533Y-68926137D01*
X115245533Y-68280481D01*
X115233023Y-68205586D01*
X115210607Y-68142362D01*
X115178981Y-68085939D01*
X115142341Y-68040512D01*
X115099489Y-68003549D01*
X115053558Y-67977620D01*
X115004458Y-67961589D01*
X114955861Y-67956371D01*
X114886146Y-67965787D01*
X114822016Y-67993984D01*
X114765435Y-68038544D01*
X114714794Y-68100718D01*
X114674801Y-68174622D01*
X114642986Y-68266193D01*
X114623844Y-68365644D01*
X114617096Y-68480272D01*
X114375656Y-68480272D01*
X114377685Y-68454999D01*
X114409051Y-68330183D01*
X114461521Y-68210505D01*
X114536496Y-68094612D01*
X114630254Y-67994372D01*
X114732595Y-67925544D01*
X114845505Y-67884452D01*
X114972348Y-67870397D01*
X115077265Y-67882654D01*
X115167168Y-67918042D01*
X115245533Y-67976887D01*
X115245533Y-67564239D01*
X115247609Y-67509895D01*
X115242847Y-67454207D01*
X115232574Y-67430279D01*
X115215491Y-67410854D01*
X115190934Y-67398598D01*
X115148569Y-67393635D01*
X115109726Y-67398385D01*
X115054291Y-67415495D01*
X115036584Y-67370188D01*
X115409542Y-67213872D01*
X115470969Y-67213872D01*
X115470969Y-68663454D01*
G37*
G36*
X116857780Y-67909476D02*
G01*
X116857780Y-68667117D01*
X116861099Y-68866187D01*
X116867306Y-68933342D01*
X116882308Y-68976171D01*
X116900767Y-69000265D01*
X116925167Y-69014533D01*
X116953401Y-69019316D01*
X116995401Y-69014041D01*
X117048900Y-68995990D01*
X117068073Y-69042763D01*
X116693771Y-69199078D01*
X116632344Y-69199078D01*
X116632344Y-68933342D01*
X116475474Y-69088613D01*
X116386392Y-69153893D01*
X116299054Y-69187833D01*
X116207362Y-69199078D01*
X116139323Y-69192223D01*
X116079324Y-69172340D01*
X116025645Y-69139483D01*
X115960880Y-69070773D01*
X115917690Y-68981214D01*
X115896340Y-68876305D01*
X115887648Y-68709982D01*
X115887648Y-68149567D01*
X115877390Y-68049549D01*
X115863361Y-68014731D01*
X115843928Y-67990687D01*
X115817921Y-67973862D01*
X115783112Y-67963210D01*
X115692254Y-67956371D01*
X115675889Y-67956371D01*
X115675889Y-67909476D01*
X116114549Y-67909476D01*
X116114549Y-68743932D01*
X116119327Y-68829435D01*
X116131646Y-68889623D01*
X116152630Y-68940983D01*
X116177442Y-68976085D01*
X116208656Y-69001834D01*
X116243632Y-69016995D01*
X116322156Y-69027131D01*
X116384316Y-69019071D01*
X116455390Y-68990983D01*
X116536723Y-68937250D01*
X116632344Y-68852742D01*
X116632344Y-68141385D01*
X116624162Y-68052969D01*
X116612095Y-68020949D01*
X116593387Y-67996793D01*
X116567696Y-67979119D01*
X116531838Y-67966629D01*
X116431454Y-67956371D01*
X116431454Y-67909476D01*
X116857780Y-67909476D01*
G37*
D11*
X51461904Y-110362295D02*
X51461904Y-109562295D01*
X51995237Y-109562295D02*
X52147618Y-109562295D01*
X52147618Y-109562295D02*
X52223808Y-109600390D01*
X52223808Y-109600390D02*
X52299999Y-109676580D01*
X52299999Y-109676580D02*
X52338094Y-109828961D01*
X52338094Y-109828961D02*
X52338094Y-110095628D01*
X52338094Y-110095628D02*
X52299999Y-110248009D01*
X52299999Y-110248009D02*
X52223808Y-110324200D01*
X52223808Y-110324200D02*
X52147618Y-110362295D01*
X52147618Y-110362295D02*
X51995237Y-110362295D01*
X51995237Y-110362295D02*
X51919046Y-110324200D01*
X51919046Y-110324200D02*
X51842856Y-110248009D01*
X51842856Y-110248009D02*
X51804760Y-110095628D01*
X51804760Y-110095628D02*
X51804760Y-109828961D01*
X51804760Y-109828961D02*
X51842856Y-109676580D01*
X51842856Y-109676580D02*
X51919046Y-109600390D01*
X51919046Y-109600390D02*
X51995237Y-109562295D01*
X52604760Y-109562295D02*
X53099998Y-109562295D01*
X53099998Y-109562295D02*
X52833332Y-109867057D01*
X52833332Y-109867057D02*
X52947617Y-109867057D01*
X52947617Y-109867057D02*
X53023808Y-109905152D01*
X53023808Y-109905152D02*
X53061903Y-109943247D01*
X53061903Y-109943247D02*
X53099998Y-110019438D01*
X53099998Y-110019438D02*
X53099998Y-110209914D01*
X53099998Y-110209914D02*
X53061903Y-110286104D01*
X53061903Y-110286104D02*
X53023808Y-110324200D01*
X53023808Y-110324200D02*
X52947617Y-110362295D01*
X52947617Y-110362295D02*
X52719046Y-110362295D01*
X52719046Y-110362295D02*
X52642855Y-110324200D01*
X52642855Y-110324200D02*
X52604760Y-110286104D01*
X53404760Y-109638485D02*
X53442856Y-109600390D01*
X53442856Y-109600390D02*
X53519046Y-109562295D01*
X53519046Y-109562295D02*
X53709522Y-109562295D01*
X53709522Y-109562295D02*
X53785713Y-109600390D01*
X53785713Y-109600390D02*
X53823808Y-109638485D01*
X53823808Y-109638485D02*
X53861903Y-109714676D01*
X53861903Y-109714676D02*
X53861903Y-109790866D01*
X53861903Y-109790866D02*
X53823808Y-109905152D01*
X53823808Y-109905152D02*
X53366665Y-110362295D01*
X53366665Y-110362295D02*
X53861903Y-110362295D01*
X54204761Y-110057533D02*
X54814285Y-110057533D01*
X55080951Y-109562295D02*
X55538094Y-109562295D01*
X55309522Y-110362295D02*
X55309522Y-109562295D01*
X55728570Y-109562295D02*
X56261904Y-110362295D01*
X56261904Y-109562295D02*
X55728570Y-110362295D01*
X56985713Y-110362295D02*
X56528570Y-110362295D01*
X56757142Y-110362295D02*
X56757142Y-109562295D01*
X56757142Y-109562295D02*
X56680951Y-109676580D01*
X56680951Y-109676580D02*
X56604761Y-109752771D01*
X56604761Y-109752771D02*
X56528570Y-109790866D01*
X57328571Y-109943247D02*
X57938095Y-109943247D01*
X57938095Y-110171819D02*
X57328571Y-110171819D01*
X58319047Y-109828961D02*
X58928571Y-110057533D01*
X58928571Y-110057533D02*
X58319047Y-110286104D01*
X59423808Y-109905152D02*
X59347618Y-109867057D01*
X59347618Y-109867057D02*
X59309523Y-109828961D01*
X59309523Y-109828961D02*
X59271427Y-109752771D01*
X59271427Y-109752771D02*
X59271427Y-109714676D01*
X59271427Y-109714676D02*
X59309523Y-109638485D01*
X59309523Y-109638485D02*
X59347618Y-109600390D01*
X59347618Y-109600390D02*
X59423808Y-109562295D01*
X59423808Y-109562295D02*
X59576189Y-109562295D01*
X59576189Y-109562295D02*
X59652380Y-109600390D01*
X59652380Y-109600390D02*
X59690475Y-109638485D01*
X59690475Y-109638485D02*
X59728570Y-109714676D01*
X59728570Y-109714676D02*
X59728570Y-109752771D01*
X59728570Y-109752771D02*
X59690475Y-109828961D01*
X59690475Y-109828961D02*
X59652380Y-109867057D01*
X59652380Y-109867057D02*
X59576189Y-109905152D01*
X59576189Y-109905152D02*
X59423808Y-109905152D01*
X59423808Y-109905152D02*
X59347618Y-109943247D01*
X59347618Y-109943247D02*
X59309523Y-109981342D01*
X59309523Y-109981342D02*
X59271427Y-110057533D01*
X59271427Y-110057533D02*
X59271427Y-110209914D01*
X59271427Y-110209914D02*
X59309523Y-110286104D01*
X59309523Y-110286104D02*
X59347618Y-110324200D01*
X59347618Y-110324200D02*
X59423808Y-110362295D01*
X59423808Y-110362295D02*
X59576189Y-110362295D01*
X59576189Y-110362295D02*
X59652380Y-110324200D01*
X59652380Y-110324200D02*
X59690475Y-110286104D01*
X59690475Y-110286104D02*
X59728570Y-110209914D01*
X59728570Y-110209914D02*
X59728570Y-110057533D01*
X59728570Y-110057533D02*
X59690475Y-109981342D01*
X59690475Y-109981342D02*
X59652380Y-109943247D01*
X59652380Y-109943247D02*
X59576189Y-109905152D01*
X60033332Y-109638485D02*
X60071428Y-109600390D01*
X60071428Y-109600390D02*
X60147618Y-109562295D01*
X60147618Y-109562295D02*
X60338094Y-109562295D01*
X60338094Y-109562295D02*
X60414285Y-109600390D01*
X60414285Y-109600390D02*
X60452380Y-109638485D01*
X60452380Y-109638485D02*
X60490475Y-109714676D01*
X60490475Y-109714676D02*
X60490475Y-109790866D01*
X60490475Y-109790866D02*
X60452380Y-109905152D01*
X60452380Y-109905152D02*
X59995237Y-110362295D01*
X59995237Y-110362295D02*
X60490475Y-110362295D01*
X61176190Y-109562295D02*
X61023809Y-109562295D01*
X61023809Y-109562295D02*
X60947618Y-109600390D01*
X60947618Y-109600390D02*
X60909523Y-109638485D01*
X60909523Y-109638485D02*
X60833333Y-109752771D01*
X60833333Y-109752771D02*
X60795237Y-109905152D01*
X60795237Y-109905152D02*
X60795237Y-110209914D01*
X60795237Y-110209914D02*
X60833333Y-110286104D01*
X60833333Y-110286104D02*
X60871428Y-110324200D01*
X60871428Y-110324200D02*
X60947618Y-110362295D01*
X60947618Y-110362295D02*
X61099999Y-110362295D01*
X61099999Y-110362295D02*
X61176190Y-110324200D01*
X61176190Y-110324200D02*
X61214285Y-110286104D01*
X61214285Y-110286104D02*
X61252380Y-110209914D01*
X61252380Y-110209914D02*
X61252380Y-110019438D01*
X61252380Y-110019438D02*
X61214285Y-109943247D01*
X61214285Y-109943247D02*
X61176190Y-109905152D01*
X61176190Y-109905152D02*
X61099999Y-109867057D01*
X61099999Y-109867057D02*
X60947618Y-109867057D01*
X60947618Y-109867057D02*
X60871428Y-109905152D01*
X60871428Y-109905152D02*
X60833333Y-109943247D01*
X60833333Y-109943247D02*
X60795237Y-110019438D01*
X61938095Y-109562295D02*
X61785714Y-109562295D01*
X61785714Y-109562295D02*
X61709523Y-109600390D01*
X61709523Y-109600390D02*
X61671428Y-109638485D01*
X61671428Y-109638485D02*
X61595238Y-109752771D01*
X61595238Y-109752771D02*
X61557142Y-109905152D01*
X61557142Y-109905152D02*
X61557142Y-110209914D01*
X61557142Y-110209914D02*
X61595238Y-110286104D01*
X61595238Y-110286104D02*
X61633333Y-110324200D01*
X61633333Y-110324200D02*
X61709523Y-110362295D01*
X61709523Y-110362295D02*
X61861904Y-110362295D01*
X61861904Y-110362295D02*
X61938095Y-110324200D01*
X61938095Y-110324200D02*
X61976190Y-110286104D01*
X61976190Y-110286104D02*
X62014285Y-110209914D01*
X62014285Y-110209914D02*
X62014285Y-110019438D01*
X62014285Y-110019438D02*
X61976190Y-109943247D01*
X61976190Y-109943247D02*
X61938095Y-109905152D01*
X61938095Y-109905152D02*
X61861904Y-109867057D01*
X61861904Y-109867057D02*
X61709523Y-109867057D01*
X61709523Y-109867057D02*
X61633333Y-109905152D01*
X61633333Y-109905152D02*
X61595238Y-109943247D01*
X61595238Y-109943247D02*
X61557142Y-110019438D01*
X62357143Y-110362295D02*
X62357143Y-109562295D01*
X62357143Y-109562295D02*
X62547619Y-109562295D01*
X62547619Y-109562295D02*
X62661905Y-109600390D01*
X62661905Y-109600390D02*
X62738095Y-109676580D01*
X62738095Y-109676580D02*
X62776190Y-109752771D01*
X62776190Y-109752771D02*
X62814286Y-109905152D01*
X62814286Y-109905152D02*
X62814286Y-110019438D01*
X62814286Y-110019438D02*
X62776190Y-110171819D01*
X62776190Y-110171819D02*
X62738095Y-110248009D01*
X62738095Y-110248009D02*
X62661905Y-110324200D01*
X62661905Y-110324200D02*
X62547619Y-110362295D01*
X62547619Y-110362295D02*
X62357143Y-110362295D01*
X63576190Y-110362295D02*
X63119047Y-110362295D01*
X63347619Y-110362295D02*
X63347619Y-109562295D01*
X63347619Y-109562295D02*
X63271428Y-109676580D01*
X63271428Y-109676580D02*
X63195238Y-109752771D01*
X63195238Y-109752771D02*
X63119047Y-109790866D01*
X55738095Y-148204819D02*
X55738095Y-147204819D01*
X55738095Y-147681009D02*
X56309523Y-147681009D01*
X56309523Y-148204819D02*
X56309523Y-147204819D01*
X56690476Y-147204819D02*
X57309523Y-147204819D01*
X57309523Y-147204819D02*
X56976190Y-147585771D01*
X56976190Y-147585771D02*
X57119047Y-147585771D01*
X57119047Y-147585771D02*
X57214285Y-147633390D01*
X57214285Y-147633390D02*
X57261904Y-147681009D01*
X57261904Y-147681009D02*
X57309523Y-147776247D01*
X57309523Y-147776247D02*
X57309523Y-148014342D01*
X57309523Y-148014342D02*
X57261904Y-148109580D01*
X57261904Y-148109580D02*
X57214285Y-148157200D01*
X57214285Y-148157200D02*
X57119047Y-148204819D01*
X57119047Y-148204819D02*
X56833333Y-148204819D01*
X56833333Y-148204819D02*
X56738095Y-148157200D01*
X56738095Y-148157200D02*
X56690476Y-148109580D01*
X55738095Y-61704819D02*
X55738095Y-60704819D01*
X55738095Y-61181009D02*
X56309523Y-61181009D01*
X56309523Y-61704819D02*
X56309523Y-60704819D01*
X57309523Y-61704819D02*
X56738095Y-61704819D01*
X57023809Y-61704819D02*
X57023809Y-60704819D01*
X57023809Y-60704819D02*
X56928571Y-60847676D01*
X56928571Y-60847676D02*
X56833333Y-60942914D01*
X56833333Y-60942914D02*
X56738095Y-60990533D01*
X56666666Y-90844819D02*
X56666666Y-91559104D01*
X56666666Y-91559104D02*
X56619047Y-91701961D01*
X56619047Y-91701961D02*
X56523809Y-91797200D01*
X56523809Y-91797200D02*
X56380952Y-91844819D01*
X56380952Y-91844819D02*
X56285714Y-91844819D01*
X57571428Y-90844819D02*
X57380952Y-90844819D01*
X57380952Y-90844819D02*
X57285714Y-90892438D01*
X57285714Y-90892438D02*
X57238095Y-90940057D01*
X57238095Y-90940057D02*
X57142857Y-91082914D01*
X57142857Y-91082914D02*
X57095238Y-91273390D01*
X57095238Y-91273390D02*
X57095238Y-91654342D01*
X57095238Y-91654342D02*
X57142857Y-91749580D01*
X57142857Y-91749580D02*
X57190476Y-91797200D01*
X57190476Y-91797200D02*
X57285714Y-91844819D01*
X57285714Y-91844819D02*
X57476190Y-91844819D01*
X57476190Y-91844819D02*
X57571428Y-91797200D01*
X57571428Y-91797200D02*
X57619047Y-91749580D01*
X57619047Y-91749580D02*
X57666666Y-91654342D01*
X57666666Y-91654342D02*
X57666666Y-91416247D01*
X57666666Y-91416247D02*
X57619047Y-91321009D01*
X57619047Y-91321009D02*
X57571428Y-91273390D01*
X57571428Y-91273390D02*
X57476190Y-91225771D01*
X57476190Y-91225771D02*
X57285714Y-91225771D01*
X57285714Y-91225771D02*
X57190476Y-91273390D01*
X57190476Y-91273390D02*
X57142857Y-91321009D01*
X57142857Y-91321009D02*
X57095238Y-91416247D01*
X54309524Y-78684819D02*
X54309524Y-77684819D01*
X54309524Y-77684819D02*
X54880952Y-78684819D01*
X54880952Y-78684819D02*
X54880952Y-77684819D01*
X55357143Y-78161009D02*
X55690476Y-78161009D01*
X55833333Y-78684819D02*
X55357143Y-78684819D01*
X55357143Y-78684819D02*
X55357143Y-77684819D01*
X55357143Y-77684819D02*
X55833333Y-77684819D01*
X56452381Y-77684819D02*
X56642857Y-77684819D01*
X56642857Y-77684819D02*
X56738095Y-77732438D01*
X56738095Y-77732438D02*
X56833333Y-77827676D01*
X56833333Y-77827676D02*
X56880952Y-78018152D01*
X56880952Y-78018152D02*
X56880952Y-78351485D01*
X56880952Y-78351485D02*
X56833333Y-78541961D01*
X56833333Y-78541961D02*
X56738095Y-78637200D01*
X56738095Y-78637200D02*
X56642857Y-78684819D01*
X56642857Y-78684819D02*
X56452381Y-78684819D01*
X56452381Y-78684819D02*
X56357143Y-78637200D01*
X56357143Y-78637200D02*
X56261905Y-78541961D01*
X56261905Y-78541961D02*
X56214286Y-78351485D01*
X56214286Y-78351485D02*
X56214286Y-78018152D01*
X56214286Y-78018152D02*
X56261905Y-77827676D01*
X56261905Y-77827676D02*
X56357143Y-77732438D01*
X56357143Y-77732438D02*
X56452381Y-77684819D01*
X58500000Y-77684819D02*
X58309524Y-77684819D01*
X58309524Y-77684819D02*
X58214286Y-77732438D01*
X58214286Y-77732438D02*
X58166667Y-77780057D01*
X58166667Y-77780057D02*
X58071429Y-77922914D01*
X58071429Y-77922914D02*
X58023810Y-78113390D01*
X58023810Y-78113390D02*
X58023810Y-78494342D01*
X58023810Y-78494342D02*
X58071429Y-78589580D01*
X58071429Y-78589580D02*
X58119048Y-78637200D01*
X58119048Y-78637200D02*
X58214286Y-78684819D01*
X58214286Y-78684819D02*
X58404762Y-78684819D01*
X58404762Y-78684819D02*
X58500000Y-78637200D01*
X58500000Y-78637200D02*
X58547619Y-78589580D01*
X58547619Y-78589580D02*
X58595238Y-78494342D01*
X58595238Y-78494342D02*
X58595238Y-78256247D01*
X58595238Y-78256247D02*
X58547619Y-78161009D01*
X58547619Y-78161009D02*
X58500000Y-78113390D01*
X58500000Y-78113390D02*
X58404762Y-78065771D01*
X58404762Y-78065771D02*
X58214286Y-78065771D01*
X58214286Y-78065771D02*
X58119048Y-78113390D01*
X58119048Y-78113390D02*
X58071429Y-78161009D01*
X58071429Y-78161009D02*
X58023810Y-78256247D01*
X59023810Y-78684819D02*
X59023810Y-77684819D01*
X59023810Y-77684819D02*
X59357143Y-78399104D01*
X59357143Y-78399104D02*
X59690476Y-77684819D01*
X59690476Y-77684819D02*
X59690476Y-78684819D01*
X134738095Y-61704819D02*
X134738095Y-60704819D01*
X134738095Y-61181009D02*
X135309523Y-61181009D01*
X135309523Y-61704819D02*
X135309523Y-60704819D01*
X135738095Y-60800057D02*
X135785714Y-60752438D01*
X135785714Y-60752438D02*
X135880952Y-60704819D01*
X135880952Y-60704819D02*
X136119047Y-60704819D01*
X136119047Y-60704819D02*
X136214285Y-60752438D01*
X136214285Y-60752438D02*
X136261904Y-60800057D01*
X136261904Y-60800057D02*
X136309523Y-60895295D01*
X136309523Y-60895295D02*
X136309523Y-60990533D01*
X136309523Y-60990533D02*
X136261904Y-61133390D01*
X136261904Y-61133390D02*
X135690476Y-61704819D01*
X135690476Y-61704819D02*
X136309523Y-61704819D01*
X134738095Y-148204819D02*
X134738095Y-147204819D01*
X134738095Y-147681009D02*
X135309523Y-147681009D01*
X135309523Y-148204819D02*
X135309523Y-147204819D01*
X136214285Y-147538152D02*
X136214285Y-148204819D01*
X135976190Y-147157200D02*
X135738095Y-147871485D01*
X135738095Y-147871485D02*
X136357142Y-147871485D01*
X124636666Y-153454819D02*
X124636666Y-154169104D01*
X124636666Y-154169104D02*
X124589047Y-154311961D01*
X124589047Y-154311961D02*
X124493809Y-154407200D01*
X124493809Y-154407200D02*
X124350952Y-154454819D01*
X124350952Y-154454819D02*
X124255714Y-154454819D01*
X125541428Y-153788152D02*
X125541428Y-154454819D01*
X125303333Y-153407200D02*
X125065238Y-154121485D01*
X125065238Y-154121485D02*
X125684285Y-154121485D01*
X111404762Y-151407200D02*
X111547619Y-151454819D01*
X111547619Y-151454819D02*
X111785714Y-151454819D01*
X111785714Y-151454819D02*
X111880952Y-151407200D01*
X111880952Y-151407200D02*
X111928571Y-151359580D01*
X111928571Y-151359580D02*
X111976190Y-151264342D01*
X111976190Y-151264342D02*
X111976190Y-151169104D01*
X111976190Y-151169104D02*
X111928571Y-151073866D01*
X111928571Y-151073866D02*
X111880952Y-151026247D01*
X111880952Y-151026247D02*
X111785714Y-150978628D01*
X111785714Y-150978628D02*
X111595238Y-150931009D01*
X111595238Y-150931009D02*
X111500000Y-150883390D01*
X111500000Y-150883390D02*
X111452381Y-150835771D01*
X111452381Y-150835771D02*
X111404762Y-150740533D01*
X111404762Y-150740533D02*
X111404762Y-150645295D01*
X111404762Y-150645295D02*
X111452381Y-150550057D01*
X111452381Y-150550057D02*
X111500000Y-150502438D01*
X111500000Y-150502438D02*
X111595238Y-150454819D01*
X111595238Y-150454819D02*
X111833333Y-150454819D01*
X111833333Y-150454819D02*
X111976190Y-150502438D01*
X112404762Y-151454819D02*
X112404762Y-150454819D01*
X112404762Y-150454819D02*
X112642857Y-150454819D01*
X112642857Y-150454819D02*
X112785714Y-150502438D01*
X112785714Y-150502438D02*
X112880952Y-150597676D01*
X112880952Y-150597676D02*
X112928571Y-150692914D01*
X112928571Y-150692914D02*
X112976190Y-150883390D01*
X112976190Y-150883390D02*
X112976190Y-151026247D01*
X112976190Y-151026247D02*
X112928571Y-151216723D01*
X112928571Y-151216723D02*
X112880952Y-151311961D01*
X112880952Y-151311961D02*
X112785714Y-151407200D01*
X112785714Y-151407200D02*
X112642857Y-151454819D01*
X112642857Y-151454819D02*
X112404762Y-151454819D01*
X114738095Y-151359580D02*
X114690476Y-151407200D01*
X114690476Y-151407200D02*
X114547619Y-151454819D01*
X114547619Y-151454819D02*
X114452381Y-151454819D01*
X114452381Y-151454819D02*
X114309524Y-151407200D01*
X114309524Y-151407200D02*
X114214286Y-151311961D01*
X114214286Y-151311961D02*
X114166667Y-151216723D01*
X114166667Y-151216723D02*
X114119048Y-151026247D01*
X114119048Y-151026247D02*
X114119048Y-150883390D01*
X114119048Y-150883390D02*
X114166667Y-150692914D01*
X114166667Y-150692914D02*
X114214286Y-150597676D01*
X114214286Y-150597676D02*
X114309524Y-150502438D01*
X114309524Y-150502438D02*
X114452381Y-150454819D01*
X114452381Y-150454819D02*
X114547619Y-150454819D01*
X114547619Y-150454819D02*
X114690476Y-150502438D01*
X114690476Y-150502438D02*
X114738095Y-150550057D01*
X115119048Y-151169104D02*
X115595238Y-151169104D01*
X115023810Y-151454819D02*
X115357143Y-150454819D01*
X115357143Y-150454819D02*
X115690476Y-151454819D01*
X116595238Y-151454819D02*
X116261905Y-150978628D01*
X116023810Y-151454819D02*
X116023810Y-150454819D01*
X116023810Y-150454819D02*
X116404762Y-150454819D01*
X116404762Y-150454819D02*
X116500000Y-150502438D01*
X116500000Y-150502438D02*
X116547619Y-150550057D01*
X116547619Y-150550057D02*
X116595238Y-150645295D01*
X116595238Y-150645295D02*
X116595238Y-150788152D01*
X116595238Y-150788152D02*
X116547619Y-150883390D01*
X116547619Y-150883390D02*
X116500000Y-150931009D01*
X116500000Y-150931009D02*
X116404762Y-150978628D01*
X116404762Y-150978628D02*
X116023810Y-150978628D01*
X117023810Y-151454819D02*
X117023810Y-150454819D01*
X117023810Y-150454819D02*
X117261905Y-150454819D01*
X117261905Y-150454819D02*
X117404762Y-150502438D01*
X117404762Y-150502438D02*
X117500000Y-150597676D01*
X117500000Y-150597676D02*
X117547619Y-150692914D01*
X117547619Y-150692914D02*
X117595238Y-150883390D01*
X117595238Y-150883390D02*
X117595238Y-151026247D01*
X117595238Y-151026247D02*
X117547619Y-151216723D01*
X117547619Y-151216723D02*
X117500000Y-151311961D01*
X117500000Y-151311961D02*
X117404762Y-151407200D01*
X117404762Y-151407200D02*
X117261905Y-151454819D01*
X117261905Y-151454819D02*
X117023810Y-151454819D01*
X75166666Y-96684819D02*
X75166666Y-97399104D01*
X75166666Y-97399104D02*
X75119047Y-97541961D01*
X75119047Y-97541961D02*
X75023809Y-97637200D01*
X75023809Y-97637200D02*
X74880952Y-97684819D01*
X74880952Y-97684819D02*
X74785714Y-97684819D01*
X76166666Y-97684819D02*
X75595238Y-97684819D01*
X75880952Y-97684819D02*
X75880952Y-96684819D01*
X75880952Y-96684819D02*
X75785714Y-96827676D01*
X75785714Y-96827676D02*
X75690476Y-96922914D01*
X75690476Y-96922914D02*
X75595238Y-96970533D01*
X106761904Y-96732438D02*
X106666666Y-96684819D01*
X106666666Y-96684819D02*
X106523809Y-96684819D01*
X106523809Y-96684819D02*
X106380952Y-96732438D01*
X106380952Y-96732438D02*
X106285714Y-96827676D01*
X106285714Y-96827676D02*
X106238095Y-96922914D01*
X106238095Y-96922914D02*
X106190476Y-97113390D01*
X106190476Y-97113390D02*
X106190476Y-97256247D01*
X106190476Y-97256247D02*
X106238095Y-97446723D01*
X106238095Y-97446723D02*
X106285714Y-97541961D01*
X106285714Y-97541961D02*
X106380952Y-97637200D01*
X106380952Y-97637200D02*
X106523809Y-97684819D01*
X106523809Y-97684819D02*
X106619047Y-97684819D01*
X106619047Y-97684819D02*
X106761904Y-97637200D01*
X106761904Y-97637200D02*
X106809523Y-97589580D01*
X106809523Y-97589580D02*
X106809523Y-97256247D01*
X106809523Y-97256247D02*
X106619047Y-97256247D01*
X107238095Y-97684819D02*
X107238095Y-96684819D01*
X107238095Y-96684819D02*
X107809523Y-97684819D01*
X107809523Y-97684819D02*
X107809523Y-96684819D01*
X108285714Y-97684819D02*
X108285714Y-96684819D01*
X108285714Y-96684819D02*
X108523809Y-96684819D01*
X108523809Y-96684819D02*
X108666666Y-96732438D01*
X108666666Y-96732438D02*
X108761904Y-96827676D01*
X108761904Y-96827676D02*
X108809523Y-96922914D01*
X108809523Y-96922914D02*
X108857142Y-97113390D01*
X108857142Y-97113390D02*
X108857142Y-97256247D01*
X108857142Y-97256247D02*
X108809523Y-97446723D01*
X108809523Y-97446723D02*
X108761904Y-97541961D01*
X108761904Y-97541961D02*
X108666666Y-97637200D01*
X108666666Y-97637200D02*
X108523809Y-97684819D01*
X108523809Y-97684819D02*
X108285714Y-97684819D01*
X109809523Y-97684819D02*
X109238095Y-97684819D01*
X109523809Y-97684819D02*
X109523809Y-96684819D01*
X109523809Y-96684819D02*
X109428571Y-96827676D01*
X109428571Y-96827676D02*
X109333333Y-96922914D01*
X109333333Y-96922914D02*
X109238095Y-96970533D01*
X65190476Y-96684819D02*
X65523809Y-97684819D01*
X65523809Y-97684819D02*
X65857142Y-96684819D01*
X66761904Y-97589580D02*
X66714285Y-97637200D01*
X66714285Y-97637200D02*
X66571428Y-97684819D01*
X66571428Y-97684819D02*
X66476190Y-97684819D01*
X66476190Y-97684819D02*
X66333333Y-97637200D01*
X66333333Y-97637200D02*
X66238095Y-97541961D01*
X66238095Y-97541961D02*
X66190476Y-97446723D01*
X66190476Y-97446723D02*
X66142857Y-97256247D01*
X66142857Y-97256247D02*
X66142857Y-97113390D01*
X66142857Y-97113390D02*
X66190476Y-96922914D01*
X66190476Y-96922914D02*
X66238095Y-96827676D01*
X66238095Y-96827676D02*
X66333333Y-96732438D01*
X66333333Y-96732438D02*
X66476190Y-96684819D01*
X66476190Y-96684819D02*
X66571428Y-96684819D01*
X66571428Y-96684819D02*
X66714285Y-96732438D01*
X66714285Y-96732438D02*
X66761904Y-96780057D01*
X67761904Y-97589580D02*
X67714285Y-97637200D01*
X67714285Y-97637200D02*
X67571428Y-97684819D01*
X67571428Y-97684819D02*
X67476190Y-97684819D01*
X67476190Y-97684819D02*
X67333333Y-97637200D01*
X67333333Y-97637200D02*
X67238095Y-97541961D01*
X67238095Y-97541961D02*
X67190476Y-97446723D01*
X67190476Y-97446723D02*
X67142857Y-97256247D01*
X67142857Y-97256247D02*
X67142857Y-97113390D01*
X67142857Y-97113390D02*
X67190476Y-96922914D01*
X67190476Y-96922914D02*
X67238095Y-96827676D01*
X67238095Y-96827676D02*
X67333333Y-96732438D01*
X67333333Y-96732438D02*
X67476190Y-96684819D01*
X67476190Y-96684819D02*
X67571428Y-96684819D01*
X67571428Y-96684819D02*
X67714285Y-96732438D01*
X67714285Y-96732438D02*
X67761904Y-96780057D01*
X68714285Y-97684819D02*
X68142857Y-97684819D01*
X68428571Y-97684819D02*
X68428571Y-96684819D01*
X68428571Y-96684819D02*
X68333333Y-96827676D01*
X68333333Y-96827676D02*
X68238095Y-96922914D01*
X68238095Y-96922914D02*
X68142857Y-96970533D01*
X51538095Y-125362295D02*
X51538095Y-124562295D01*
X52071428Y-124562295D02*
X52223809Y-124562295D01*
X52223809Y-124562295D02*
X52299999Y-124600390D01*
X52299999Y-124600390D02*
X52376190Y-124676580D01*
X52376190Y-124676580D02*
X52414285Y-124828961D01*
X52414285Y-124828961D02*
X52414285Y-125095628D01*
X52414285Y-125095628D02*
X52376190Y-125248009D01*
X52376190Y-125248009D02*
X52299999Y-125324200D01*
X52299999Y-125324200D02*
X52223809Y-125362295D01*
X52223809Y-125362295D02*
X52071428Y-125362295D01*
X52071428Y-125362295D02*
X51995237Y-125324200D01*
X51995237Y-125324200D02*
X51919047Y-125248009D01*
X51919047Y-125248009D02*
X51880951Y-125095628D01*
X51880951Y-125095628D02*
X51880951Y-124828961D01*
X51880951Y-124828961D02*
X51919047Y-124676580D01*
X51919047Y-124676580D02*
X51995237Y-124600390D01*
X51995237Y-124600390D02*
X52071428Y-124562295D01*
X52680951Y-124562295D02*
X53176189Y-124562295D01*
X53176189Y-124562295D02*
X52909523Y-124867057D01*
X52909523Y-124867057D02*
X53023808Y-124867057D01*
X53023808Y-124867057D02*
X53099999Y-124905152D01*
X53099999Y-124905152D02*
X53138094Y-124943247D01*
X53138094Y-124943247D02*
X53176189Y-125019438D01*
X53176189Y-125019438D02*
X53176189Y-125209914D01*
X53176189Y-125209914D02*
X53138094Y-125286104D01*
X53138094Y-125286104D02*
X53099999Y-125324200D01*
X53099999Y-125324200D02*
X53023808Y-125362295D01*
X53023808Y-125362295D02*
X52795237Y-125362295D01*
X52795237Y-125362295D02*
X52719046Y-125324200D01*
X52719046Y-125324200D02*
X52680951Y-125286104D01*
X53899999Y-124562295D02*
X53519047Y-124562295D01*
X53519047Y-124562295D02*
X53480951Y-124943247D01*
X53480951Y-124943247D02*
X53519047Y-124905152D01*
X53519047Y-124905152D02*
X53595237Y-124867057D01*
X53595237Y-124867057D02*
X53785713Y-124867057D01*
X53785713Y-124867057D02*
X53861904Y-124905152D01*
X53861904Y-124905152D02*
X53899999Y-124943247D01*
X53899999Y-124943247D02*
X53938094Y-125019438D01*
X53938094Y-125019438D02*
X53938094Y-125209914D01*
X53938094Y-125209914D02*
X53899999Y-125286104D01*
X53899999Y-125286104D02*
X53861904Y-125324200D01*
X53861904Y-125324200D02*
X53785713Y-125362295D01*
X53785713Y-125362295D02*
X53595237Y-125362295D01*
X53595237Y-125362295D02*
X53519047Y-125324200D01*
X53519047Y-125324200D02*
X53480951Y-125286104D01*
X54280952Y-125057533D02*
X54890476Y-125057533D01*
X55728571Y-125362295D02*
X55461904Y-124981342D01*
X55271428Y-125362295D02*
X55271428Y-124562295D01*
X55271428Y-124562295D02*
X55576190Y-124562295D01*
X55576190Y-124562295D02*
X55652380Y-124600390D01*
X55652380Y-124600390D02*
X55690475Y-124638485D01*
X55690475Y-124638485D02*
X55728571Y-124714676D01*
X55728571Y-124714676D02*
X55728571Y-124828961D01*
X55728571Y-124828961D02*
X55690475Y-124905152D01*
X55690475Y-124905152D02*
X55652380Y-124943247D01*
X55652380Y-124943247D02*
X55576190Y-124981342D01*
X55576190Y-124981342D02*
X55271428Y-124981342D01*
X55995237Y-124562295D02*
X56528571Y-125362295D01*
X56528571Y-124562295D02*
X55995237Y-125362295D01*
X56795237Y-124638485D02*
X56833333Y-124600390D01*
X56833333Y-124600390D02*
X56909523Y-124562295D01*
X56909523Y-124562295D02*
X57099999Y-124562295D01*
X57099999Y-124562295D02*
X57176190Y-124600390D01*
X57176190Y-124600390D02*
X57214285Y-124638485D01*
X57214285Y-124638485D02*
X57252380Y-124714676D01*
X57252380Y-124714676D02*
X57252380Y-124790866D01*
X57252380Y-124790866D02*
X57214285Y-124905152D01*
X57214285Y-124905152D02*
X56757142Y-125362295D01*
X56757142Y-125362295D02*
X57252380Y-125362295D01*
X57595238Y-124943247D02*
X58204762Y-124943247D01*
X58204762Y-125171819D02*
X57595238Y-125171819D01*
X58547618Y-125324200D02*
X58661904Y-125362295D01*
X58661904Y-125362295D02*
X58852380Y-125362295D01*
X58852380Y-125362295D02*
X58928571Y-125324200D01*
X58928571Y-125324200D02*
X58966666Y-125286104D01*
X58966666Y-125286104D02*
X59004761Y-125209914D01*
X59004761Y-125209914D02*
X59004761Y-125133723D01*
X59004761Y-125133723D02*
X58966666Y-125057533D01*
X58966666Y-125057533D02*
X58928571Y-125019438D01*
X58928571Y-125019438D02*
X58852380Y-124981342D01*
X58852380Y-124981342D02*
X58699999Y-124943247D01*
X58699999Y-124943247D02*
X58623809Y-124905152D01*
X58623809Y-124905152D02*
X58585714Y-124867057D01*
X58585714Y-124867057D02*
X58547618Y-124790866D01*
X58547618Y-124790866D02*
X58547618Y-124714676D01*
X58547618Y-124714676D02*
X58585714Y-124638485D01*
X58585714Y-124638485D02*
X58623809Y-124600390D01*
X58623809Y-124600390D02*
X58699999Y-124562295D01*
X58699999Y-124562295D02*
X58890476Y-124562295D01*
X58890476Y-124562295D02*
X59004761Y-124600390D01*
X59271428Y-124562295D02*
X59766666Y-124562295D01*
X59766666Y-124562295D02*
X59500000Y-124867057D01*
X59500000Y-124867057D02*
X59614285Y-124867057D01*
X59614285Y-124867057D02*
X59690476Y-124905152D01*
X59690476Y-124905152D02*
X59728571Y-124943247D01*
X59728571Y-124943247D02*
X59766666Y-125019438D01*
X59766666Y-125019438D02*
X59766666Y-125209914D01*
X59766666Y-125209914D02*
X59728571Y-125286104D01*
X59728571Y-125286104D02*
X59690476Y-125324200D01*
X59690476Y-125324200D02*
X59614285Y-125362295D01*
X59614285Y-125362295D02*
X59385714Y-125362295D01*
X59385714Y-125362295D02*
X59309523Y-125324200D01*
X59309523Y-125324200D02*
X59271428Y-125286104D01*
X60109524Y-125057533D02*
X60719048Y-125057533D01*
X61100000Y-125362295D02*
X61100000Y-124562295D01*
X61633333Y-124562295D02*
X61785714Y-124562295D01*
X61785714Y-124562295D02*
X61861904Y-124600390D01*
X61861904Y-124600390D02*
X61938095Y-124676580D01*
X61938095Y-124676580D02*
X61976190Y-124828961D01*
X61976190Y-124828961D02*
X61976190Y-125095628D01*
X61976190Y-125095628D02*
X61938095Y-125248009D01*
X61938095Y-125248009D02*
X61861904Y-125324200D01*
X61861904Y-125324200D02*
X61785714Y-125362295D01*
X61785714Y-125362295D02*
X61633333Y-125362295D01*
X61633333Y-125362295D02*
X61557142Y-125324200D01*
X61557142Y-125324200D02*
X61480952Y-125248009D01*
X61480952Y-125248009D02*
X61442856Y-125095628D01*
X61442856Y-125095628D02*
X61442856Y-124828961D01*
X61442856Y-124828961D02*
X61480952Y-124676580D01*
X61480952Y-124676580D02*
X61557142Y-124600390D01*
X61557142Y-124600390D02*
X61633333Y-124562295D01*
X62738094Y-125362295D02*
X62280951Y-125362295D01*
X62509523Y-125362295D02*
X62509523Y-124562295D01*
X62509523Y-124562295D02*
X62433332Y-124676580D01*
X62433332Y-124676580D02*
X62357142Y-124752771D01*
X62357142Y-124752771D02*
X62280951Y-124790866D01*
X63004761Y-124562295D02*
X63538095Y-124562295D01*
X63538095Y-124562295D02*
X63195237Y-125362295D01*
X76166666Y-64954819D02*
X76166666Y-65669104D01*
X76166666Y-65669104D02*
X76119047Y-65811961D01*
X76119047Y-65811961D02*
X76023809Y-65907200D01*
X76023809Y-65907200D02*
X75880952Y-65954819D01*
X75880952Y-65954819D02*
X75785714Y-65954819D01*
X76547619Y-64954819D02*
X77166666Y-64954819D01*
X77166666Y-64954819D02*
X76833333Y-65335771D01*
X76833333Y-65335771D02*
X76976190Y-65335771D01*
X76976190Y-65335771D02*
X77071428Y-65383390D01*
X77071428Y-65383390D02*
X77119047Y-65431009D01*
X77119047Y-65431009D02*
X77166666Y-65526247D01*
X77166666Y-65526247D02*
X77166666Y-65764342D01*
X77166666Y-65764342D02*
X77119047Y-65859580D01*
X77119047Y-65859580D02*
X77071428Y-65907200D01*
X77071428Y-65907200D02*
X76976190Y-65954819D01*
X76976190Y-65954819D02*
X76690476Y-65954819D01*
X76690476Y-65954819D02*
X76595238Y-65907200D01*
X76595238Y-65907200D02*
X76547619Y-65859580D01*
X78761904Y-65431009D02*
X79095237Y-65431009D01*
X79238094Y-65954819D02*
X78761904Y-65954819D01*
X78761904Y-65954819D02*
X78761904Y-64954819D01*
X78761904Y-64954819D02*
X79238094Y-64954819D01*
X80238094Y-65859580D02*
X80190475Y-65907200D01*
X80190475Y-65907200D02*
X80047618Y-65954819D01*
X80047618Y-65954819D02*
X79952380Y-65954819D01*
X79952380Y-65954819D02*
X79809523Y-65907200D01*
X79809523Y-65907200D02*
X79714285Y-65811961D01*
X79714285Y-65811961D02*
X79666666Y-65716723D01*
X79666666Y-65716723D02*
X79619047Y-65526247D01*
X79619047Y-65526247D02*
X79619047Y-65383390D01*
X79619047Y-65383390D02*
X79666666Y-65192914D01*
X79666666Y-65192914D02*
X79714285Y-65097676D01*
X79714285Y-65097676D02*
X79809523Y-65002438D01*
X79809523Y-65002438D02*
X79952380Y-64954819D01*
X79952380Y-64954819D02*
X80047618Y-64954819D01*
X80047618Y-64954819D02*
X80190475Y-65002438D01*
X80190475Y-65002438D02*
X80238094Y-65050057D01*
X81238094Y-65954819D02*
X80904761Y-65478628D01*
X80666666Y-65954819D02*
X80666666Y-64954819D01*
X80666666Y-64954819D02*
X81047618Y-64954819D01*
X81047618Y-64954819D02*
X81142856Y-65002438D01*
X81142856Y-65002438D02*
X81190475Y-65050057D01*
X81190475Y-65050057D02*
X81238094Y-65145295D01*
X81238094Y-65145295D02*
X81238094Y-65288152D01*
X81238094Y-65288152D02*
X81190475Y-65383390D01*
X81190475Y-65383390D02*
X81142856Y-65431009D01*
X81142856Y-65431009D02*
X81047618Y-65478628D01*
X81047618Y-65478628D02*
X80666666Y-65478628D01*
X81619047Y-65669104D02*
X82095237Y-65669104D01*
X81523809Y-65954819D02*
X81857142Y-64954819D01*
X81857142Y-64954819D02*
X82190475Y-65954819D01*
X82523809Y-65954819D02*
X82523809Y-64954819D01*
X82523809Y-64954819D02*
X83095237Y-65954819D01*
X83095237Y-65954819D02*
X83095237Y-64954819D01*
X84190476Y-64954819D02*
X84761904Y-64954819D01*
X84476190Y-65954819D02*
X84476190Y-64954819D01*
X85428571Y-65431009D02*
X85095238Y-65431009D01*
X85095238Y-65954819D02*
X85095238Y-64954819D01*
X85095238Y-64954819D02*
X85571428Y-64954819D01*
X85809524Y-64954819D02*
X86380952Y-64954819D01*
X86095238Y-65954819D02*
X86095238Y-64954819D01*
X126666666Y-104954819D02*
X126666666Y-105669104D01*
X126666666Y-105669104D02*
X126619047Y-105811961D01*
X126619047Y-105811961D02*
X126523809Y-105907200D01*
X126523809Y-105907200D02*
X126380952Y-105954819D01*
X126380952Y-105954819D02*
X126285714Y-105954819D01*
X127619047Y-104954819D02*
X127142857Y-104954819D01*
X127142857Y-104954819D02*
X127095238Y-105431009D01*
X127095238Y-105431009D02*
X127142857Y-105383390D01*
X127142857Y-105383390D02*
X127238095Y-105335771D01*
X127238095Y-105335771D02*
X127476190Y-105335771D01*
X127476190Y-105335771D02*
X127571428Y-105383390D01*
X127571428Y-105383390D02*
X127619047Y-105431009D01*
X127619047Y-105431009D02*
X127666666Y-105526247D01*
X127666666Y-105526247D02*
X127666666Y-105764342D01*
X127666666Y-105764342D02*
X127619047Y-105859580D01*
X127619047Y-105859580D02*
X127571428Y-105907200D01*
X127571428Y-105907200D02*
X127476190Y-105954819D01*
X127476190Y-105954819D02*
X127238095Y-105954819D01*
X127238095Y-105954819D02*
X127142857Y-105907200D01*
X127142857Y-105907200D02*
X127095238Y-105859580D01*
X123595238Y-86454819D02*
X123595238Y-87169104D01*
X123595238Y-87169104D02*
X123547619Y-87311961D01*
X123547619Y-87311961D02*
X123452381Y-87407200D01*
X123452381Y-87407200D02*
X123309524Y-87454819D01*
X123309524Y-87454819D02*
X123214286Y-87454819D01*
X124261905Y-86454819D02*
X124452381Y-86454819D01*
X124452381Y-86454819D02*
X124547619Y-86502438D01*
X124547619Y-86502438D02*
X124642857Y-86597676D01*
X124642857Y-86597676D02*
X124690476Y-86788152D01*
X124690476Y-86788152D02*
X124690476Y-87121485D01*
X124690476Y-87121485D02*
X124642857Y-87311961D01*
X124642857Y-87311961D02*
X124547619Y-87407200D01*
X124547619Y-87407200D02*
X124452381Y-87454819D01*
X124452381Y-87454819D02*
X124261905Y-87454819D01*
X124261905Y-87454819D02*
X124166667Y-87407200D01*
X124166667Y-87407200D02*
X124071429Y-87311961D01*
X124071429Y-87311961D02*
X124023810Y-87121485D01*
X124023810Y-87121485D02*
X124023810Y-86788152D01*
X124023810Y-86788152D02*
X124071429Y-86597676D01*
X124071429Y-86597676D02*
X124166667Y-86502438D01*
X124166667Y-86502438D02*
X124261905Y-86454819D01*
X125309524Y-86978628D02*
X125309524Y-87454819D01*
X124976191Y-86454819D02*
X125309524Y-86978628D01*
X125309524Y-86978628D02*
X125642857Y-86454819D01*
X125928572Y-87407200D02*
X126071429Y-87454819D01*
X126071429Y-87454819D02*
X126309524Y-87454819D01*
X126309524Y-87454819D02*
X126404762Y-87407200D01*
X126404762Y-87407200D02*
X126452381Y-87359580D01*
X126452381Y-87359580D02*
X126500000Y-87264342D01*
X126500000Y-87264342D02*
X126500000Y-87169104D01*
X126500000Y-87169104D02*
X126452381Y-87073866D01*
X126452381Y-87073866D02*
X126404762Y-87026247D01*
X126404762Y-87026247D02*
X126309524Y-86978628D01*
X126309524Y-86978628D02*
X126119048Y-86931009D01*
X126119048Y-86931009D02*
X126023810Y-86883390D01*
X126023810Y-86883390D02*
X125976191Y-86835771D01*
X125976191Y-86835771D02*
X125928572Y-86740533D01*
X125928572Y-86740533D02*
X125928572Y-86645295D01*
X125928572Y-86645295D02*
X125976191Y-86550057D01*
X125976191Y-86550057D02*
X126023810Y-86502438D01*
X126023810Y-86502438D02*
X126119048Y-86454819D01*
X126119048Y-86454819D02*
X126357143Y-86454819D01*
X126357143Y-86454819D02*
X126500000Y-86502438D01*
X126785715Y-86454819D02*
X127357143Y-86454819D01*
X127071429Y-87454819D02*
X127071429Y-86454819D01*
X127690477Y-87454819D02*
X127690477Y-86454819D01*
X128738095Y-87359580D02*
X128690476Y-87407200D01*
X128690476Y-87407200D02*
X128547619Y-87454819D01*
X128547619Y-87454819D02*
X128452381Y-87454819D01*
X128452381Y-87454819D02*
X128309524Y-87407200D01*
X128309524Y-87407200D02*
X128214286Y-87311961D01*
X128214286Y-87311961D02*
X128166667Y-87216723D01*
X128166667Y-87216723D02*
X128119048Y-87026247D01*
X128119048Y-87026247D02*
X128119048Y-86883390D01*
X128119048Y-86883390D02*
X128166667Y-86692914D01*
X128166667Y-86692914D02*
X128214286Y-86597676D01*
X128214286Y-86597676D02*
X128309524Y-86502438D01*
X128309524Y-86502438D02*
X128452381Y-86454819D01*
X128452381Y-86454819D02*
X128547619Y-86454819D01*
X128547619Y-86454819D02*
X128690476Y-86502438D01*
X128690476Y-86502438D02*
X128738095Y-86550057D01*
X129166667Y-87454819D02*
X129166667Y-86454819D01*
X129738095Y-87454819D02*
X129309524Y-86883390D01*
X129738095Y-86454819D02*
X129166667Y-87026247D01*
X50866666Y-132092295D02*
X50866666Y-131292295D01*
X51399999Y-131292295D02*
X51552380Y-131292295D01*
X51552380Y-131292295D02*
X51628570Y-131330390D01*
X51628570Y-131330390D02*
X51704761Y-131406580D01*
X51704761Y-131406580D02*
X51742856Y-131558961D01*
X51742856Y-131558961D02*
X51742856Y-131825628D01*
X51742856Y-131825628D02*
X51704761Y-131978009D01*
X51704761Y-131978009D02*
X51628570Y-132054200D01*
X51628570Y-132054200D02*
X51552380Y-132092295D01*
X51552380Y-132092295D02*
X51399999Y-132092295D01*
X51399999Y-132092295D02*
X51323808Y-132054200D01*
X51323808Y-132054200D02*
X51247618Y-131978009D01*
X51247618Y-131978009D02*
X51209522Y-131825628D01*
X51209522Y-131825628D02*
X51209522Y-131558961D01*
X51209522Y-131558961D02*
X51247618Y-131406580D01*
X51247618Y-131406580D02*
X51323808Y-131330390D01*
X51323808Y-131330390D02*
X51399999Y-131292295D01*
X52009522Y-131292295D02*
X52504760Y-131292295D01*
X52504760Y-131292295D02*
X52238094Y-131597057D01*
X52238094Y-131597057D02*
X52352379Y-131597057D01*
X52352379Y-131597057D02*
X52428570Y-131635152D01*
X52428570Y-131635152D02*
X52466665Y-131673247D01*
X52466665Y-131673247D02*
X52504760Y-131749438D01*
X52504760Y-131749438D02*
X52504760Y-131939914D01*
X52504760Y-131939914D02*
X52466665Y-132016104D01*
X52466665Y-132016104D02*
X52428570Y-132054200D01*
X52428570Y-132054200D02*
X52352379Y-132092295D01*
X52352379Y-132092295D02*
X52123808Y-132092295D01*
X52123808Y-132092295D02*
X52047617Y-132054200D01*
X52047617Y-132054200D02*
X52009522Y-132016104D01*
X53228570Y-131292295D02*
X52847618Y-131292295D01*
X52847618Y-131292295D02*
X52809522Y-131673247D01*
X52809522Y-131673247D02*
X52847618Y-131635152D01*
X52847618Y-131635152D02*
X52923808Y-131597057D01*
X52923808Y-131597057D02*
X53114284Y-131597057D01*
X53114284Y-131597057D02*
X53190475Y-131635152D01*
X53190475Y-131635152D02*
X53228570Y-131673247D01*
X53228570Y-131673247D02*
X53266665Y-131749438D01*
X53266665Y-131749438D02*
X53266665Y-131939914D01*
X53266665Y-131939914D02*
X53228570Y-132016104D01*
X53228570Y-132016104D02*
X53190475Y-132054200D01*
X53190475Y-132054200D02*
X53114284Y-132092295D01*
X53114284Y-132092295D02*
X52923808Y-132092295D01*
X52923808Y-132092295D02*
X52847618Y-132054200D01*
X52847618Y-132054200D02*
X52809522Y-132016104D01*
X53609523Y-131787533D02*
X54219047Y-131787533D01*
X55057142Y-132092295D02*
X54790475Y-131711342D01*
X54599999Y-132092295D02*
X54599999Y-131292295D01*
X54599999Y-131292295D02*
X54904761Y-131292295D01*
X54904761Y-131292295D02*
X54980951Y-131330390D01*
X54980951Y-131330390D02*
X55019046Y-131368485D01*
X55019046Y-131368485D02*
X55057142Y-131444676D01*
X55057142Y-131444676D02*
X55057142Y-131558961D01*
X55057142Y-131558961D02*
X55019046Y-131635152D01*
X55019046Y-131635152D02*
X54980951Y-131673247D01*
X54980951Y-131673247D02*
X54904761Y-131711342D01*
X54904761Y-131711342D02*
X54599999Y-131711342D01*
X55323808Y-131292295D02*
X55857142Y-132092295D01*
X55857142Y-131292295D02*
X55323808Y-132092295D01*
X56580951Y-132092295D02*
X56123808Y-132092295D01*
X56352380Y-132092295D02*
X56352380Y-131292295D01*
X56352380Y-131292295D02*
X56276189Y-131406580D01*
X56276189Y-131406580D02*
X56199999Y-131482771D01*
X56199999Y-131482771D02*
X56123808Y-131520866D01*
X56923809Y-131673247D02*
X57533333Y-131673247D01*
X57533333Y-131901819D02*
X56923809Y-131901819D01*
X57914285Y-131558961D02*
X58523809Y-131787533D01*
X58523809Y-131787533D02*
X57914285Y-132016104D01*
X59019046Y-131635152D02*
X58942856Y-131597057D01*
X58942856Y-131597057D02*
X58904761Y-131558961D01*
X58904761Y-131558961D02*
X58866665Y-131482771D01*
X58866665Y-131482771D02*
X58866665Y-131444676D01*
X58866665Y-131444676D02*
X58904761Y-131368485D01*
X58904761Y-131368485D02*
X58942856Y-131330390D01*
X58942856Y-131330390D02*
X59019046Y-131292295D01*
X59019046Y-131292295D02*
X59171427Y-131292295D01*
X59171427Y-131292295D02*
X59247618Y-131330390D01*
X59247618Y-131330390D02*
X59285713Y-131368485D01*
X59285713Y-131368485D02*
X59323808Y-131444676D01*
X59323808Y-131444676D02*
X59323808Y-131482771D01*
X59323808Y-131482771D02*
X59285713Y-131558961D01*
X59285713Y-131558961D02*
X59247618Y-131597057D01*
X59247618Y-131597057D02*
X59171427Y-131635152D01*
X59171427Y-131635152D02*
X59019046Y-131635152D01*
X59019046Y-131635152D02*
X58942856Y-131673247D01*
X58942856Y-131673247D02*
X58904761Y-131711342D01*
X58904761Y-131711342D02*
X58866665Y-131787533D01*
X58866665Y-131787533D02*
X58866665Y-131939914D01*
X58866665Y-131939914D02*
X58904761Y-132016104D01*
X58904761Y-132016104D02*
X58942856Y-132054200D01*
X58942856Y-132054200D02*
X59019046Y-132092295D01*
X59019046Y-132092295D02*
X59171427Y-132092295D01*
X59171427Y-132092295D02*
X59247618Y-132054200D01*
X59247618Y-132054200D02*
X59285713Y-132016104D01*
X59285713Y-132016104D02*
X59323808Y-131939914D01*
X59323808Y-131939914D02*
X59323808Y-131787533D01*
X59323808Y-131787533D02*
X59285713Y-131711342D01*
X59285713Y-131711342D02*
X59247618Y-131673247D01*
X59247618Y-131673247D02*
X59171427Y-131635152D01*
X59628570Y-131368485D02*
X59666666Y-131330390D01*
X59666666Y-131330390D02*
X59742856Y-131292295D01*
X59742856Y-131292295D02*
X59933332Y-131292295D01*
X59933332Y-131292295D02*
X60009523Y-131330390D01*
X60009523Y-131330390D02*
X60047618Y-131368485D01*
X60047618Y-131368485D02*
X60085713Y-131444676D01*
X60085713Y-131444676D02*
X60085713Y-131520866D01*
X60085713Y-131520866D02*
X60047618Y-131635152D01*
X60047618Y-131635152D02*
X59590475Y-132092295D01*
X59590475Y-132092295D02*
X60085713Y-132092295D01*
X60771428Y-131292295D02*
X60619047Y-131292295D01*
X60619047Y-131292295D02*
X60542856Y-131330390D01*
X60542856Y-131330390D02*
X60504761Y-131368485D01*
X60504761Y-131368485D02*
X60428571Y-131482771D01*
X60428571Y-131482771D02*
X60390475Y-131635152D01*
X60390475Y-131635152D02*
X60390475Y-131939914D01*
X60390475Y-131939914D02*
X60428571Y-132016104D01*
X60428571Y-132016104D02*
X60466666Y-132054200D01*
X60466666Y-132054200D02*
X60542856Y-132092295D01*
X60542856Y-132092295D02*
X60695237Y-132092295D01*
X60695237Y-132092295D02*
X60771428Y-132054200D01*
X60771428Y-132054200D02*
X60809523Y-132016104D01*
X60809523Y-132016104D02*
X60847618Y-131939914D01*
X60847618Y-131939914D02*
X60847618Y-131749438D01*
X60847618Y-131749438D02*
X60809523Y-131673247D01*
X60809523Y-131673247D02*
X60771428Y-131635152D01*
X60771428Y-131635152D02*
X60695237Y-131597057D01*
X60695237Y-131597057D02*
X60542856Y-131597057D01*
X60542856Y-131597057D02*
X60466666Y-131635152D01*
X60466666Y-131635152D02*
X60428571Y-131673247D01*
X60428571Y-131673247D02*
X60390475Y-131749438D01*
X61533333Y-131292295D02*
X61380952Y-131292295D01*
X61380952Y-131292295D02*
X61304761Y-131330390D01*
X61304761Y-131330390D02*
X61266666Y-131368485D01*
X61266666Y-131368485D02*
X61190476Y-131482771D01*
X61190476Y-131482771D02*
X61152380Y-131635152D01*
X61152380Y-131635152D02*
X61152380Y-131939914D01*
X61152380Y-131939914D02*
X61190476Y-132016104D01*
X61190476Y-132016104D02*
X61228571Y-132054200D01*
X61228571Y-132054200D02*
X61304761Y-132092295D01*
X61304761Y-132092295D02*
X61457142Y-132092295D01*
X61457142Y-132092295D02*
X61533333Y-132054200D01*
X61533333Y-132054200D02*
X61571428Y-132016104D01*
X61571428Y-132016104D02*
X61609523Y-131939914D01*
X61609523Y-131939914D02*
X61609523Y-131749438D01*
X61609523Y-131749438D02*
X61571428Y-131673247D01*
X61571428Y-131673247D02*
X61533333Y-131635152D01*
X61533333Y-131635152D02*
X61457142Y-131597057D01*
X61457142Y-131597057D02*
X61304761Y-131597057D01*
X61304761Y-131597057D02*
X61228571Y-131635152D01*
X61228571Y-131635152D02*
X61190476Y-131673247D01*
X61190476Y-131673247D02*
X61152380Y-131749438D01*
X61952381Y-132092295D02*
X61952381Y-131292295D01*
X61952381Y-131292295D02*
X62142857Y-131292295D01*
X62142857Y-131292295D02*
X62257143Y-131330390D01*
X62257143Y-131330390D02*
X62333333Y-131406580D01*
X62333333Y-131406580D02*
X62371428Y-131482771D01*
X62371428Y-131482771D02*
X62409524Y-131635152D01*
X62409524Y-131635152D02*
X62409524Y-131749438D01*
X62409524Y-131749438D02*
X62371428Y-131901819D01*
X62371428Y-131901819D02*
X62333333Y-131978009D01*
X62333333Y-131978009D02*
X62257143Y-132054200D01*
X62257143Y-132054200D02*
X62142857Y-132092295D01*
X62142857Y-132092295D02*
X61952381Y-132092295D01*
X62714285Y-131368485D02*
X62752381Y-131330390D01*
X62752381Y-131330390D02*
X62828571Y-131292295D01*
X62828571Y-131292295D02*
X63019047Y-131292295D01*
X63019047Y-131292295D02*
X63095238Y-131330390D01*
X63095238Y-131330390D02*
X63133333Y-131368485D01*
X63133333Y-131368485D02*
X63171428Y-131444676D01*
X63171428Y-131444676D02*
X63171428Y-131520866D01*
X63171428Y-131520866D02*
X63133333Y-131635152D01*
X63133333Y-131635152D02*
X62676190Y-132092295D01*
X62676190Y-132092295D02*
X63171428Y-132092295D01*
X51138095Y-117862295D02*
X51138095Y-117062295D01*
X51671428Y-117062295D02*
X51823809Y-117062295D01*
X51823809Y-117062295D02*
X51899999Y-117100390D01*
X51899999Y-117100390D02*
X51976190Y-117176580D01*
X51976190Y-117176580D02*
X52014285Y-117328961D01*
X52014285Y-117328961D02*
X52014285Y-117595628D01*
X52014285Y-117595628D02*
X51976190Y-117748009D01*
X51976190Y-117748009D02*
X51899999Y-117824200D01*
X51899999Y-117824200D02*
X51823809Y-117862295D01*
X51823809Y-117862295D02*
X51671428Y-117862295D01*
X51671428Y-117862295D02*
X51595237Y-117824200D01*
X51595237Y-117824200D02*
X51519047Y-117748009D01*
X51519047Y-117748009D02*
X51480951Y-117595628D01*
X51480951Y-117595628D02*
X51480951Y-117328961D01*
X51480951Y-117328961D02*
X51519047Y-117176580D01*
X51519047Y-117176580D02*
X51595237Y-117100390D01*
X51595237Y-117100390D02*
X51671428Y-117062295D01*
X52280951Y-117062295D02*
X52776189Y-117062295D01*
X52776189Y-117062295D02*
X52509523Y-117367057D01*
X52509523Y-117367057D02*
X52623808Y-117367057D01*
X52623808Y-117367057D02*
X52699999Y-117405152D01*
X52699999Y-117405152D02*
X52738094Y-117443247D01*
X52738094Y-117443247D02*
X52776189Y-117519438D01*
X52776189Y-117519438D02*
X52776189Y-117709914D01*
X52776189Y-117709914D02*
X52738094Y-117786104D01*
X52738094Y-117786104D02*
X52699999Y-117824200D01*
X52699999Y-117824200D02*
X52623808Y-117862295D01*
X52623808Y-117862295D02*
X52395237Y-117862295D01*
X52395237Y-117862295D02*
X52319046Y-117824200D01*
X52319046Y-117824200D02*
X52280951Y-117786104D01*
X53080951Y-117138485D02*
X53119047Y-117100390D01*
X53119047Y-117100390D02*
X53195237Y-117062295D01*
X53195237Y-117062295D02*
X53385713Y-117062295D01*
X53385713Y-117062295D02*
X53461904Y-117100390D01*
X53461904Y-117100390D02*
X53499999Y-117138485D01*
X53499999Y-117138485D02*
X53538094Y-117214676D01*
X53538094Y-117214676D02*
X53538094Y-117290866D01*
X53538094Y-117290866D02*
X53499999Y-117405152D01*
X53499999Y-117405152D02*
X53042856Y-117862295D01*
X53042856Y-117862295D02*
X53538094Y-117862295D01*
X53880952Y-117557533D02*
X54490476Y-117557533D01*
X54757142Y-117062295D02*
X55214285Y-117062295D01*
X54985713Y-117862295D02*
X54985713Y-117062295D01*
X55404761Y-117062295D02*
X55938095Y-117862295D01*
X55938095Y-117062295D02*
X55404761Y-117862295D01*
X56204761Y-117138485D02*
X56242857Y-117100390D01*
X56242857Y-117100390D02*
X56319047Y-117062295D01*
X56319047Y-117062295D02*
X56509523Y-117062295D01*
X56509523Y-117062295D02*
X56585714Y-117100390D01*
X56585714Y-117100390D02*
X56623809Y-117138485D01*
X56623809Y-117138485D02*
X56661904Y-117214676D01*
X56661904Y-117214676D02*
X56661904Y-117290866D01*
X56661904Y-117290866D02*
X56623809Y-117405152D01*
X56623809Y-117405152D02*
X56166666Y-117862295D01*
X56166666Y-117862295D02*
X56661904Y-117862295D01*
X57004762Y-117443247D02*
X57614286Y-117443247D01*
X57614286Y-117671819D02*
X57004762Y-117671819D01*
X57995238Y-117328961D02*
X58604762Y-117557533D01*
X58604762Y-117557533D02*
X57995238Y-117786104D01*
X58947618Y-117824200D02*
X59061904Y-117862295D01*
X59061904Y-117862295D02*
X59252380Y-117862295D01*
X59252380Y-117862295D02*
X59328571Y-117824200D01*
X59328571Y-117824200D02*
X59366666Y-117786104D01*
X59366666Y-117786104D02*
X59404761Y-117709914D01*
X59404761Y-117709914D02*
X59404761Y-117633723D01*
X59404761Y-117633723D02*
X59366666Y-117557533D01*
X59366666Y-117557533D02*
X59328571Y-117519438D01*
X59328571Y-117519438D02*
X59252380Y-117481342D01*
X59252380Y-117481342D02*
X59099999Y-117443247D01*
X59099999Y-117443247D02*
X59023809Y-117405152D01*
X59023809Y-117405152D02*
X58985714Y-117367057D01*
X58985714Y-117367057D02*
X58947618Y-117290866D01*
X58947618Y-117290866D02*
X58947618Y-117214676D01*
X58947618Y-117214676D02*
X58985714Y-117138485D01*
X58985714Y-117138485D02*
X59023809Y-117100390D01*
X59023809Y-117100390D02*
X59099999Y-117062295D01*
X59099999Y-117062295D02*
X59290476Y-117062295D01*
X59290476Y-117062295D02*
X59404761Y-117100390D01*
X59671428Y-117062295D02*
X60166666Y-117062295D01*
X60166666Y-117062295D02*
X59900000Y-117367057D01*
X59900000Y-117367057D02*
X60014285Y-117367057D01*
X60014285Y-117367057D02*
X60090476Y-117405152D01*
X60090476Y-117405152D02*
X60128571Y-117443247D01*
X60128571Y-117443247D02*
X60166666Y-117519438D01*
X60166666Y-117519438D02*
X60166666Y-117709914D01*
X60166666Y-117709914D02*
X60128571Y-117786104D01*
X60128571Y-117786104D02*
X60090476Y-117824200D01*
X60090476Y-117824200D02*
X60014285Y-117862295D01*
X60014285Y-117862295D02*
X59785714Y-117862295D01*
X59785714Y-117862295D02*
X59709523Y-117824200D01*
X59709523Y-117824200D02*
X59671428Y-117786104D01*
X60509524Y-117557533D02*
X61119048Y-117557533D01*
X61500000Y-117862295D02*
X61500000Y-117062295D01*
X62033333Y-117062295D02*
X62185714Y-117062295D01*
X62185714Y-117062295D02*
X62261904Y-117100390D01*
X62261904Y-117100390D02*
X62338095Y-117176580D01*
X62338095Y-117176580D02*
X62376190Y-117328961D01*
X62376190Y-117328961D02*
X62376190Y-117595628D01*
X62376190Y-117595628D02*
X62338095Y-117748009D01*
X62338095Y-117748009D02*
X62261904Y-117824200D01*
X62261904Y-117824200D02*
X62185714Y-117862295D01*
X62185714Y-117862295D02*
X62033333Y-117862295D01*
X62033333Y-117862295D02*
X61957142Y-117824200D01*
X61957142Y-117824200D02*
X61880952Y-117748009D01*
X61880952Y-117748009D02*
X61842856Y-117595628D01*
X61842856Y-117595628D02*
X61842856Y-117328961D01*
X61842856Y-117328961D02*
X61880952Y-117176580D01*
X61880952Y-117176580D02*
X61957142Y-117100390D01*
X61957142Y-117100390D02*
X62033333Y-117062295D01*
X63138094Y-117862295D02*
X62680951Y-117862295D01*
X62909523Y-117862295D02*
X62909523Y-117062295D01*
X62909523Y-117062295D02*
X62833332Y-117176580D01*
X62833332Y-117176580D02*
X62757142Y-117252771D01*
X62757142Y-117252771D02*
X62680951Y-117290866D01*
X63823809Y-117062295D02*
X63671428Y-117062295D01*
X63671428Y-117062295D02*
X63595237Y-117100390D01*
X63595237Y-117100390D02*
X63557142Y-117138485D01*
X63557142Y-117138485D02*
X63480952Y-117252771D01*
X63480952Y-117252771D02*
X63442856Y-117405152D01*
X63442856Y-117405152D02*
X63442856Y-117709914D01*
X63442856Y-117709914D02*
X63480952Y-117786104D01*
X63480952Y-117786104D02*
X63519047Y-117824200D01*
X63519047Y-117824200D02*
X63595237Y-117862295D01*
X63595237Y-117862295D02*
X63747618Y-117862295D01*
X63747618Y-117862295D02*
X63823809Y-117824200D01*
X63823809Y-117824200D02*
X63861904Y-117786104D01*
X63861904Y-117786104D02*
X63899999Y-117709914D01*
X63899999Y-117709914D02*
X63899999Y-117519438D01*
X63899999Y-117519438D02*
X63861904Y-117443247D01*
X63861904Y-117443247D02*
X63823809Y-117405152D01*
X63823809Y-117405152D02*
X63747618Y-117367057D01*
X63747618Y-117367057D02*
X63595237Y-117367057D01*
X63595237Y-117367057D02*
X63519047Y-117405152D01*
X63519047Y-117405152D02*
X63480952Y-117443247D01*
X63480952Y-117443247D02*
X63442856Y-117519438D01*
X100966666Y-96684819D02*
X100966666Y-97399104D01*
X100966666Y-97399104D02*
X100919047Y-97541961D01*
X100919047Y-97541961D02*
X100823809Y-97637200D01*
X100823809Y-97637200D02*
X100680952Y-97684819D01*
X100680952Y-97684819D02*
X100585714Y-97684819D01*
X101395238Y-96780057D02*
X101442857Y-96732438D01*
X101442857Y-96732438D02*
X101538095Y-96684819D01*
X101538095Y-96684819D02*
X101776190Y-96684819D01*
X101776190Y-96684819D02*
X101871428Y-96732438D01*
X101871428Y-96732438D02*
X101919047Y-96780057D01*
X101919047Y-96780057D02*
X101966666Y-96875295D01*
X101966666Y-96875295D02*
X101966666Y-96970533D01*
X101966666Y-96970533D02*
X101919047Y-97113390D01*
X101919047Y-97113390D02*
X101347619Y-97684819D01*
X101347619Y-97684819D02*
X101966666Y-97684819D01*
X97871428Y-156564819D02*
X97871428Y-155898152D01*
X97871428Y-156088628D02*
X97919047Y-155993390D01*
X97919047Y-155993390D02*
X97966666Y-155945771D01*
X97966666Y-155945771D02*
X98061904Y-155898152D01*
X98061904Y-155898152D02*
X98157142Y-155898152D01*
X98490476Y-156564819D02*
X98490476Y-155898152D01*
X98490476Y-155564819D02*
X98442857Y-155612438D01*
X98442857Y-155612438D02*
X98490476Y-155660057D01*
X98490476Y-155660057D02*
X98538095Y-155612438D01*
X98538095Y-155612438D02*
X98490476Y-155564819D01*
X98490476Y-155564819D02*
X98490476Y-155660057D01*
X99395237Y-155898152D02*
X99395237Y-156707676D01*
X99395237Y-156707676D02*
X99347618Y-156802914D01*
X99347618Y-156802914D02*
X99299999Y-156850533D01*
X99299999Y-156850533D02*
X99204761Y-156898152D01*
X99204761Y-156898152D02*
X99061904Y-156898152D01*
X99061904Y-156898152D02*
X98966666Y-156850533D01*
X99395237Y-156517200D02*
X99299999Y-156564819D01*
X99299999Y-156564819D02*
X99109523Y-156564819D01*
X99109523Y-156564819D02*
X99014285Y-156517200D01*
X99014285Y-156517200D02*
X98966666Y-156469580D01*
X98966666Y-156469580D02*
X98919047Y-156374342D01*
X98919047Y-156374342D02*
X98919047Y-156088628D01*
X98919047Y-156088628D02*
X98966666Y-155993390D01*
X98966666Y-155993390D02*
X99014285Y-155945771D01*
X99014285Y-155945771D02*
X99109523Y-155898152D01*
X99109523Y-155898152D02*
X99299999Y-155898152D01*
X99299999Y-155898152D02*
X99395237Y-155945771D01*
X99871428Y-156564819D02*
X99871428Y-155564819D01*
X100299999Y-156564819D02*
X100299999Y-156041009D01*
X100299999Y-156041009D02*
X100252380Y-155945771D01*
X100252380Y-155945771D02*
X100157142Y-155898152D01*
X100157142Y-155898152D02*
X100014285Y-155898152D01*
X100014285Y-155898152D02*
X99919047Y-155945771D01*
X99919047Y-155945771D02*
X99871428Y-155993390D01*
X100633333Y-155898152D02*
X101014285Y-155898152D01*
X100776190Y-155564819D02*
X100776190Y-156421961D01*
X100776190Y-156421961D02*
X100823809Y-156517200D01*
X100823809Y-156517200D02*
X100919047Y-156564819D01*
X100919047Y-156564819D02*
X101014285Y-156564819D01*
X102109524Y-155898152D02*
X102109524Y-156898152D01*
X102109524Y-155945771D02*
X102204762Y-155898152D01*
X102204762Y-155898152D02*
X102395238Y-155898152D01*
X102395238Y-155898152D02*
X102490476Y-155945771D01*
X102490476Y-155945771D02*
X102538095Y-155993390D01*
X102538095Y-155993390D02*
X102585714Y-156088628D01*
X102585714Y-156088628D02*
X102585714Y-156374342D01*
X102585714Y-156374342D02*
X102538095Y-156469580D01*
X102538095Y-156469580D02*
X102490476Y-156517200D01*
X102490476Y-156517200D02*
X102395238Y-156564819D01*
X102395238Y-156564819D02*
X102204762Y-156564819D01*
X102204762Y-156564819D02*
X102109524Y-156517200D01*
X103014286Y-156564819D02*
X103014286Y-155898152D01*
X103014286Y-155564819D02*
X102966667Y-155612438D01*
X102966667Y-155612438D02*
X103014286Y-155660057D01*
X103014286Y-155660057D02*
X103061905Y-155612438D01*
X103061905Y-155612438D02*
X103014286Y-155564819D01*
X103014286Y-155564819D02*
X103014286Y-155660057D01*
X103490476Y-155898152D02*
X103490476Y-156564819D01*
X103490476Y-155993390D02*
X103538095Y-155945771D01*
X103538095Y-155945771D02*
X103633333Y-155898152D01*
X103633333Y-155898152D02*
X103776190Y-155898152D01*
X103776190Y-155898152D02*
X103871428Y-155945771D01*
X103871428Y-155945771D02*
X103919047Y-156041009D01*
X103919047Y-156041009D02*
X103919047Y-156564819D01*
X104347619Y-156517200D02*
X104442857Y-156564819D01*
X104442857Y-156564819D02*
X104633333Y-156564819D01*
X104633333Y-156564819D02*
X104728571Y-156517200D01*
X104728571Y-156517200D02*
X104776190Y-156421961D01*
X104776190Y-156421961D02*
X104776190Y-156374342D01*
X104776190Y-156374342D02*
X104728571Y-156279104D01*
X104728571Y-156279104D02*
X104633333Y-156231485D01*
X104633333Y-156231485D02*
X104490476Y-156231485D01*
X104490476Y-156231485D02*
X104395238Y-156183866D01*
X104395238Y-156183866D02*
X104347619Y-156088628D01*
X104347619Y-156088628D02*
X104347619Y-156041009D01*
X104347619Y-156041009D02*
X104395238Y-155945771D01*
X104395238Y-155945771D02*
X104490476Y-155898152D01*
X104490476Y-155898152D02*
X104633333Y-155898152D01*
X104633333Y-155898152D02*
X104728571Y-155945771D01*
%TO.C,IO32-TX1=>8266D1*%
D12*
X55670000Y-113710000D02*
X55670000Y-113830000D01*
X55670000Y-113830000D02*
X58330000Y-113830000D01*
X57000000Y-111170000D02*
X58330000Y-111170000D01*
X58330000Y-111170000D02*
X58330000Y-112500000D01*
X58330000Y-113710000D02*
X58330000Y-113830000D01*
%TO.C,J6*%
X55670000Y-87350000D02*
X55670000Y-79670000D01*
X55670000Y-89950000D02*
X55670000Y-88620000D01*
X57000000Y-89950000D02*
X55670000Y-89950000D01*
X58330000Y-79670000D02*
X55670000Y-79670000D01*
X58330000Y-87350000D02*
X55670000Y-87350000D01*
X58330000Y-87350000D02*
X58330000Y-79670000D01*
%TO.C,J4*%
X108170000Y-152670000D02*
X108170000Y-155330000D01*
X120930000Y-152670000D02*
X108170000Y-152670000D01*
X120930000Y-152670000D02*
X120930000Y-155330000D01*
X120930000Y-155330000D02*
X108170000Y-155330000D01*
X123530000Y-154000000D02*
X123530000Y-155330000D01*
X123530000Y-155330000D02*
X122200000Y-155330000D01*
%TO.C,J1*%
X74170000Y-101270000D02*
X74170000Y-154670000D01*
X74170000Y-101270000D02*
X76830000Y-101270000D01*
X74170000Y-154670000D02*
X76830000Y-154670000D01*
X75500000Y-98670000D02*
X76830000Y-98670000D01*
X76830000Y-98670000D02*
X76830000Y-100000000D01*
X76830000Y-101270000D02*
X76830000Y-154670000D01*
%TO.C,GND1*%
X106670000Y-101210000D02*
X106670000Y-101330000D01*
X106670000Y-101330000D02*
X109330000Y-101330000D01*
X108000000Y-98670000D02*
X109330000Y-98670000D01*
X109330000Y-98670000D02*
X109330000Y-100000000D01*
X109330000Y-101210000D02*
X109330000Y-101330000D01*
%TO.C,VCC1*%
X65670000Y-101210000D02*
X65670000Y-101330000D01*
X65670000Y-101330000D02*
X68330000Y-101330000D01*
X67000000Y-98670000D02*
X68330000Y-98670000D01*
X68330000Y-98670000D02*
X68330000Y-100000000D01*
X68330000Y-101210000D02*
X68330000Y-101330000D01*
%TO.C,IO35-RX2=S3-IO17*%
X55670000Y-128710000D02*
X55670000Y-128830000D01*
X55670000Y-128830000D02*
X58330000Y-128830000D01*
X57000000Y-126170000D02*
X58330000Y-126170000D01*
X58330000Y-126170000D02*
X58330000Y-127500000D01*
X58330000Y-128710000D02*
X58330000Y-128830000D01*
%TO.C,J3*%
X73890000Y-61670000D02*
X73890000Y-64330000D01*
X91730000Y-61670000D02*
X73890000Y-61670000D01*
X91730000Y-61670000D02*
X91730000Y-64330000D01*
X91730000Y-64330000D02*
X73890000Y-64330000D01*
X94330000Y-63000000D02*
X94330000Y-64330000D01*
X94330000Y-64330000D02*
X93000000Y-64330000D01*
%TO.C,J5*%
X125170000Y-91270000D02*
X125170000Y-104030000D01*
X125170000Y-91270000D02*
X127830000Y-91270000D01*
X125170000Y-104030000D02*
X127830000Y-104030000D01*
X126500000Y-88670000D02*
X127830000Y-88670000D01*
X127830000Y-88670000D02*
X127830000Y-90000000D01*
X127830000Y-91270000D02*
X127830000Y-104030000D01*
%TO.C,IO35-RX1=>8266D2*%
X55670000Y-135710000D02*
X55670000Y-135830000D01*
X55670000Y-135830000D02*
X58330000Y-135830000D01*
X57000000Y-133170000D02*
X58330000Y-133170000D01*
X58330000Y-133170000D02*
X58330000Y-134500000D01*
X58330000Y-135710000D02*
X58330000Y-135830000D01*
%TO.C,IO32-TX2=>S3-IO16*%
X55670000Y-121210000D02*
X55670000Y-121330000D01*
X55670000Y-121330000D02*
X58330000Y-121330000D01*
X57000000Y-118670000D02*
X58330000Y-118670000D01*
X58330000Y-118670000D02*
X58330000Y-120000000D01*
X58330000Y-121210000D02*
X58330000Y-121330000D01*
%TO.C,J2*%
X99970000Y-101270000D02*
X99970000Y-154670000D01*
X99970000Y-101270000D02*
X102630000Y-101270000D01*
X99970000Y-154670000D02*
X102630000Y-154670000D01*
X101300000Y-98670000D02*
X102630000Y-98670000D01*
X102630000Y-98670000D02*
X102630000Y-100000000D01*
X102630000Y-101270000D02*
X102630000Y-154670000D01*
%TD*%
M02*
