%TF.GenerationSoftware,KiCad,Pcbnew,10.0.0*%
%TF.CreationDate,2026-04-21T21:24:02+03:00*%
%TF.ProjectId,s3 dezvolt,73332064-657a-4766-9f6c-742e6b696361,rev?*%
%TF.SameCoordinates,Original*%
%TF.FileFunction,Copper,L1,Top*%
%TF.FilePolarity,Positive*%
%FSLAX46Y46*%
G04 Gerber Fmt 4.6, Leading zero omitted, Abs format (unit mm)*
G04 Created by KiCad (PCBNEW 10.0.0) date 2026-04-21 21:24:02*
%MOMM*%
%LPD*%
G01*
G04 APERTURE LIST*
%TA.AperFunction,ComponentPad*%
%ADD10R,1.700000X1.700000*%
%TD*%
%TA.AperFunction,ComponentPad*%
%ADD11C,1.700000*%
%TD*%
%TA.AperFunction,ViaPad*%
%ADD12C,0.600000*%
%TD*%
%TA.AperFunction,Conductor*%
%ADD13C,0.200000*%
%TD*%
G04 APERTURE END LIST*
D10*
%TO.P,IO32-TX1=>8266D1,1,1_1*%
%TO.N,Net-(J1-Pin_7)*%
X57000000Y-112500000D03*
%TD*%
%TO.P,J6,1,Pin_1_1*%
%TO.N,/3V3*%
X57000000Y-88620000D03*
D11*
%TO.P,J6,2,Pin_2_2*%
%TO.N,/GND*%
X57000000Y-86080000D03*
%TO.P,J6,3,Pin_3_3*%
%TO.N,Net-(J1-Pin_11)*%
X57000000Y-83540000D03*
%TO.P,J6,4,Pin_4_4*%
%TO.N,unconnected-(J6-Pin_4-Pad4)*%
X57000000Y-81000000D03*
%TD*%
D10*
%TO.P,J4,1,Pin_1_1*%
%TO.N,Net-(J2-Pin_7)*%
X122200000Y-154000000D03*
D11*
%TO.P,J4,2,Pin_2_2*%
%TO.N,Net-(J2-Pin_10)*%
X119660000Y-154000000D03*
%TO.P,J4,3,Pin_3_3*%
%TO.N,Net-(J2-Pin_9)*%
X117120000Y-154000000D03*
%TO.P,J4,4,Pin_4_4*%
%TO.N,Net-(J2-Pin_8)*%
X114580000Y-154000000D03*
%TO.P,J4,5,Pin_5_5*%
%TO.N,/3V3*%
X112040000Y-154000000D03*
%TO.P,J4,6,Pin_6_6*%
%TO.N,/GND*%
X109500000Y-154000000D03*
%TD*%
D10*
%TO.P,J1,1,Pin_1_1*%
%TO.N,/3V3*%
X75500000Y-100000000D03*
D11*
%TO.P,J1,2,Pin_2_2*%
%TO.N,unconnected-(J1-Pin_2-Pad2)*%
X75500000Y-102540000D03*
%TO.P,J1,3,Pin_3_3*%
%TO.N,unconnected-(J1-Pin_3-Pad3)*%
X75500000Y-105080000D03*
%TO.P,J1,4,Pin_4_4*%
%TO.N,Net-(J1-Pin_4)*%
X75500000Y-107620000D03*
%TO.P,J1,5,Pin_5_5*%
%TO.N,Net-(J1-Pin_5)*%
X75500000Y-110160000D03*
%TO.P,J1,6,Pin_6_6*%
%TO.N,Net-(J1-Pin_6)*%
X75500000Y-112700000D03*
%TO.P,J1,7,Pin_7_7*%
%TO.N,Net-(J1-Pin_7)*%
X75500000Y-115240000D03*
%TO.P,J1,8,Pin_8_8*%
%TO.N,Net-(J1-Pin_8)*%
X75500000Y-117780000D03*
%TO.P,J1,9,Pin_9_9*%
%TO.N,Net-(J1-Pin_9)*%
X75500000Y-120320000D03*
%TO.P,J1,10,Pin_10_10*%
%TO.N,Net-(J1-Pin_10)*%
X75500000Y-122860000D03*
%TO.P,J1,11,Pin_11_11*%
%TO.N,Net-(J1-Pin_11)*%
X75500000Y-125400000D03*
%TO.P,J1,12,Pin_12_12*%
%TO.N,Net-(J1-Pin_12)*%
X75500000Y-127940000D03*
%TO.P,J1,13,Pin_13_13*%
%TO.N,unconnected-(J1-Pin_13-Pad13)*%
X75500000Y-130480000D03*
%TO.P,J1,14,Pin_14_14*%
%TO.N,unconnected-(J1-Pin_14-Pad14)*%
X75500000Y-133020000D03*
%TO.P,J1,15,Pin_15_15*%
%TO.N,unconnected-(J1-Pin_15-Pad15)*%
X75500000Y-135560000D03*
%TO.P,J1,16,Pin_16_16*%
%TO.N,Net-(J1-Pin_16)*%
X75500000Y-138100000D03*
%TO.P,J1,17,Pin_17_17*%
%TO.N,Net-(J1-Pin_17)*%
X75500000Y-140640000D03*
%TO.P,J1,18,Pin_18_18*%
%TO.N,Net-(J1-Pin_18)*%
X75500000Y-143180000D03*
%TO.P,J1,19,Pin_19_19*%
%TO.N,unconnected-(J1-Pin_19-Pad19)*%
X75500000Y-145720000D03*
%TO.P,J1,20,Pin_20_20*%
%TO.N,Net-(J1-Pin_20)*%
X75500000Y-148260000D03*
%TO.P,J1,21,Pin_21_21*%
%TO.N,unconnected-(J1-Pin_21-Pad21)*%
X75500000Y-150800000D03*
%TO.P,J1,22,Pin_22_22*%
%TO.N,unconnected-(J1-Pin_22-Pad22)*%
X75500000Y-153340000D03*
%TD*%
D10*
%TO.P,GND1,1,1_1*%
%TO.N,/GND*%
X108000000Y-100000000D03*
%TD*%
%TO.P,VCC1,1,1_1*%
%TO.N,/3V3*%
X67000000Y-100000000D03*
%TD*%
%TO.P,IO35-RX2=S3-IO17,1,1_1*%
%TO.N,Net-(J1-Pin_10)*%
X57000000Y-127500000D03*
%TD*%
%TO.P,J3,1,Pin_1_1*%
%TO.N,Net-(J1-Pin_8)*%
X93000000Y-63000000D03*
D11*
%TO.P,J3,2,Pin_2_2*%
%TO.N,Net-(J1-Pin_18)*%
X90460000Y-63000000D03*
%TO.P,J3,3,Pin_3_3*%
%TO.N,Net-(J1-Pin_17)*%
X87920000Y-63000000D03*
%TO.P,J3,4,Pin_4_4*%
%TO.N,Net-(J1-Pin_20)*%
X85380000Y-63000000D03*
%TO.P,J3,5,Pin_5_5*%
%TO.N,Net-(J2-Pin_18)*%
X82840000Y-63000000D03*
%TO.P,J3,6,Pin_6_6*%
%TO.N,Net-(J1-Pin_16)*%
X80300000Y-63000000D03*
%TO.P,J3,7,Pin_7_7*%
%TO.N,/GND*%
X77760000Y-63000000D03*
%TO.P,J3,8,Pin_8_8*%
%TO.N,/3V3*%
X75220000Y-63000000D03*
%TD*%
D10*
%TO.P,J5,1,Pin_1_1*%
%TO.N,/GND*%
X126500000Y-90000000D03*
D11*
%TO.P,J5,2,Pin_2_2*%
%TO.N,Net-(J2-Pin_4)*%
X126500000Y-92540000D03*
%TO.P,J5,3,Pin_3_3*%
%TO.N,Net-(J2-Pin_5)*%
X126500000Y-95080000D03*
%TO.P,J5,4,Pin_4_4*%
%TO.N,Net-(J1-Pin_4)*%
X126500000Y-97620000D03*
%TO.P,J5,5,Pin_5_5*%
%TO.N,Net-(J1-Pin_5)*%
X126500000Y-100160000D03*
%TO.P,J5,6,Pin_6_6*%
%TO.N,Net-(J1-Pin_6)*%
X126500000Y-102700000D03*
%TD*%
D10*
%TO.P,IO35-RX1=>8266D2,1,1_1*%
%TO.N,Net-(J1-Pin_12)*%
X57000000Y-134500000D03*
%TD*%
%TO.P,IO32-TX2=>S3-IO16,1,1_1*%
%TO.N,Net-(J1-Pin_9)*%
X57000000Y-120000000D03*
%TD*%
%TO.P,J2,1,Pin_1_1*%
%TO.N,/GND*%
X101300000Y-100000000D03*
D11*
%TO.P,J2,2,Pin_2_2*%
%TO.N,unconnected-(J2-Pin_2-Pad2)*%
X101300000Y-102540000D03*
%TO.P,J2,3,Pin_3_3*%
%TO.N,unconnected-(J2-Pin_3-Pad3)*%
X101300000Y-105080000D03*
%TO.P,J2,4,Pin_4_4*%
%TO.N,Net-(J2-Pin_4)*%
X101300000Y-107620000D03*
%TO.P,J2,5,Pin_5_5*%
%TO.N,Net-(J2-Pin_5)*%
X101300000Y-110160000D03*
%TO.P,J2,6,Pin_6_6*%
%TO.N,unconnected-(J2-Pin_6-Pad6)*%
X101300000Y-112700000D03*
%TO.P,J2,7,Pin_7_7*%
%TO.N,Net-(J2-Pin_7)*%
X101300000Y-115240000D03*
%TO.P,J2,8,Pin_8_8*%
%TO.N,Net-(J2-Pin_8)*%
X101300000Y-117780000D03*
%TO.P,J2,9,Pin_9_9*%
%TO.N,Net-(J2-Pin_9)*%
X101300000Y-120320000D03*
%TO.P,J2,10,Pin_10_10*%
%TO.N,Net-(J2-Pin_10)*%
X101300000Y-122860000D03*
%TO.P,J2,11,Pin_11_11*%
%TO.N,unconnected-(J2-Pin_11-Pad11)*%
X101300000Y-125400000D03*
%TO.P,J2,12,Pin_12_12*%
%TO.N,unconnected-(J2-Pin_12-Pad12)*%
X101300000Y-127940000D03*
%TO.P,J2,13,Pin_13_13*%
%TO.N,unconnected-(J2-Pin_13-Pad13)*%
X101300000Y-130480000D03*
%TO.P,J2,14,Pin_14_14*%
%TO.N,unconnected-(J2-Pin_14-Pad14)*%
X101300000Y-133020000D03*
%TO.P,J2,15,Pin_15_15*%
%TO.N,unconnected-(J2-Pin_15-Pad15)*%
X101300000Y-135560000D03*
%TO.P,J2,16,Pin_16_16*%
%TO.N,unconnected-(J2-Pin_16-Pad16)*%
X101300000Y-138100000D03*
%TO.P,J2,17,Pin_17_17*%
%TO.N,unconnected-(J2-Pin_17-Pad17)*%
X101300000Y-140640000D03*
%TO.P,J2,18,Pin_18_18*%
%TO.N,Net-(J2-Pin_18)*%
X101300000Y-143180000D03*
%TO.P,J2,19,Pin_19_19*%
%TO.N,unconnected-(J2-Pin_19-Pad19)*%
X101300000Y-145720000D03*
%TO.P,J2,20,Pin_20_20*%
%TO.N,unconnected-(J2-Pin_20-Pad20)*%
X101300000Y-148260000D03*
%TO.P,J2,21,Pin_21_21*%
%TO.N,unconnected-(J2-Pin_21-Pad21)*%
X101300000Y-150800000D03*
%TO.P,J2,22,Pin_22_22*%
%TO.N,unconnected-(J2-Pin_22-Pad22)*%
X101300000Y-153340000D03*
%TD*%
D12*
%TO.N,/3V3*%
X108000000Y-158500000D03*
X54500000Y-88000000D03*
X55500000Y-76000000D03*
X55500000Y-144500000D03*
X52000000Y-102500000D03*
X73500000Y-73000000D03*
%TO.N,/GND*%
X53500000Y-85000000D03*
X62000000Y-86500000D03*
X114000000Y-90000000D03*
X112000000Y-98500000D03*
X63000000Y-92500000D03*
X77000000Y-70500000D03*
X57000000Y-72500000D03*
X110500000Y-100000000D03*
%TO.N,Net-(J1-Pin_11)*%
X60500000Y-84000000D03*
X62500000Y-121500000D03*
X66000000Y-124000000D03*
X67000000Y-125000000D03*
%TO.N,Net-(J2-Pin_7)*%
X119500000Y-116500000D03*
%TO.N,Net-(J2-Pin_10)*%
X119000000Y-127000000D03*
%TO.N,Net-(J2-Pin_9)*%
X117120000Y-123620000D03*
%TO.N,Net-(J2-Pin_8)*%
X112000000Y-118500000D03*
%TO.N,Net-(J1-Pin_4)*%
X83500000Y-90000000D03*
X81500000Y-107000000D03*
X119000000Y-97000000D03*
X112500000Y-88500000D03*
%TO.N,Net-(J1-Pin_5)*%
X85500000Y-107000000D03*
X87000000Y-87500000D03*
X117000000Y-87500000D03*
X121500000Y-99500000D03*
%TO.N,Net-(J1-Pin_6)*%
X82000000Y-87000000D03*
X117500000Y-85500000D03*
X78750000Y-112250000D03*
X123500000Y-101500000D03*
%TO.N,Net-(J1-Pin_8)*%
X96500000Y-112000000D03*
%TO.N,Net-(J1-Pin_16)*%
X86500000Y-71000000D03*
X86500000Y-135000000D03*
X81000000Y-70500000D03*
%TO.N,Net-(J1-Pin_17)*%
X86500000Y-140000000D03*
%TO.N,Net-(J1-Pin_18)*%
X68500000Y-81500000D03*
X68000000Y-139500000D03*
X93000000Y-72500000D03*
%TO.N,Net-(J1-Pin_20)*%
X70500000Y-83000000D03*
X71500000Y-147000000D03*
X85000000Y-81000000D03*
%TO.N,Net-(J2-Pin_18)*%
X83500000Y-83000000D03*
X94500000Y-84000000D03*
X95750000Y-141250000D03*
%TO.N,Net-(J2-Pin_4)*%
X111000000Y-107000000D03*
X115500000Y-93000000D03*
%TO.N,Net-(J2-Pin_5)*%
X111000000Y-109500000D03*
X116000000Y-96000000D03*
%TD*%
%TO.N,Net-(J1-Pin_7)*%
D13*
X68760000Y-115240000D02*
X75500000Y-115240000D01*
X66020000Y-112500000D02*
X68760000Y-115240000D01*
X57000000Y-112500000D02*
X66020000Y-112500000D01*
%TO.N,/3V3*%
X55120000Y-88620000D02*
X54500000Y-88000000D01*
X54500000Y-100000000D02*
X52000000Y-102500000D01*
X55500000Y-76000000D02*
X70500000Y-76000000D01*
X55500000Y-144500000D02*
X69500000Y-158500000D01*
X57000000Y-88620000D02*
X55120000Y-88620000D01*
X57000000Y-88620000D02*
X57000000Y-90000000D01*
X67000000Y-100000000D02*
X75500000Y-100000000D01*
X69500000Y-158500000D02*
X108000000Y-158500000D01*
X57000000Y-90000000D02*
X67000000Y-100000000D01*
X67000000Y-100000000D02*
X54500000Y-100000000D01*
X70500000Y-76000000D02*
X73500000Y-73000000D01*
%TO.N,/GND*%
X108000000Y-100000000D02*
X110500000Y-100000000D01*
X57000000Y-72500000D02*
X62000000Y-72500000D01*
X63000000Y-92500000D02*
X68000000Y-97500000D01*
X110500000Y-100000000D02*
X112000000Y-98500000D01*
X114000000Y-90000000D02*
X126500000Y-90000000D01*
X70000000Y-70500000D02*
X77000000Y-70500000D01*
X54500000Y-86000000D02*
X55500000Y-86000000D01*
X57420000Y-86080000D02*
X57500000Y-86000000D01*
X55580000Y-86080000D02*
X57000000Y-86080000D01*
X57000000Y-86080000D02*
X57420000Y-86080000D01*
X69500000Y-71000000D02*
X70000000Y-70500000D01*
X68000000Y-97500000D02*
X96500000Y-97500000D01*
X62000000Y-72500000D02*
X63500000Y-71000000D01*
X101300000Y-100000000D02*
X108000000Y-100000000D01*
X63500000Y-71000000D02*
X69500000Y-71000000D01*
X61500000Y-86000000D02*
X62000000Y-86500000D01*
X99000000Y-100000000D02*
X101300000Y-100000000D01*
X55500000Y-86000000D02*
X55580000Y-86080000D01*
X53500000Y-85000000D02*
X54500000Y-86000000D01*
X57500000Y-86000000D02*
X61500000Y-86000000D01*
X96500000Y-97500000D02*
X99000000Y-100000000D01*
%TO.N,Net-(J1-Pin_11)*%
X67400000Y-125400000D02*
X67000000Y-125000000D01*
X63500000Y-121500000D02*
X62500000Y-121500000D01*
X60040000Y-83540000D02*
X60500000Y-84000000D01*
X57000000Y-83540000D02*
X60040000Y-83540000D01*
X66000000Y-124000000D02*
X63500000Y-121500000D01*
X75500000Y-125400000D02*
X67400000Y-125400000D01*
%TO.N,Net-(J2-Pin_7)*%
X101300000Y-115240000D02*
X118240000Y-115240000D01*
X118240000Y-115240000D02*
X119500000Y-116500000D01*
%TO.N,Net-(J2-Pin_10)*%
X119000000Y-127000000D02*
X114860000Y-122860000D01*
X114860000Y-122860000D02*
X101300000Y-122860000D01*
%TO.N,Net-(J2-Pin_9)*%
X117120000Y-122620000D02*
X117120000Y-123620000D01*
X101300000Y-120320000D02*
X114820000Y-120320000D01*
X114820000Y-120320000D02*
X117120000Y-122620000D01*
%TO.N,Net-(J2-Pin_8)*%
X101300000Y-117780000D02*
X111280000Y-117780000D01*
X111280000Y-117780000D02*
X112000000Y-118500000D01*
%TO.N,Net-(J1-Pin_4)*%
X126500000Y-97620000D02*
X119620000Y-97620000D01*
X85000000Y-88500000D02*
X83500000Y-90000000D01*
X112500000Y-88500000D02*
X85000000Y-88500000D01*
X81500000Y-107000000D02*
X80880000Y-107620000D01*
X119620000Y-97620000D02*
X119000000Y-97000000D01*
X80880000Y-107620000D02*
X75500000Y-107620000D01*
%TO.N,Net-(J1-Pin_5)*%
X117000000Y-87500000D02*
X116500000Y-87000000D01*
X85500000Y-107000000D02*
X82340000Y-110160000D01*
X87500000Y-87000000D02*
X87000000Y-87500000D01*
X122160000Y-100160000D02*
X121500000Y-99500000D01*
X126500000Y-100160000D02*
X122160000Y-100160000D01*
X82340000Y-110160000D02*
X75500000Y-110160000D01*
X116500000Y-87000000D02*
X87500000Y-87000000D01*
%TO.N,Net-(J1-Pin_6)*%
X117500000Y-85500000D02*
X83500000Y-85500000D01*
X126500000Y-102700000D02*
X124700000Y-102700000D01*
X83500000Y-85500000D02*
X82000000Y-87000000D01*
X78300000Y-112700000D02*
X75500000Y-112700000D01*
X78750000Y-112250000D02*
X78300000Y-112700000D01*
X124700000Y-102700000D02*
X123500000Y-101500000D01*
%TO.N,Net-(J1-Pin_8)*%
X78000000Y-117500000D02*
X77720000Y-117780000D01*
X91000000Y-117500000D02*
X78000000Y-117500000D01*
X77720000Y-117780000D02*
X75500000Y-117780000D01*
X96500000Y-112000000D02*
X91000000Y-117500000D01*
%TO.N,Net-(J1-Pin_9)*%
X57000000Y-120000000D02*
X62500000Y-120000000D01*
X62820000Y-120320000D02*
X75500000Y-120320000D01*
X62500000Y-120000000D02*
X62820000Y-120320000D01*
%TO.N,Net-(J1-Pin_10)*%
X63500000Y-127500000D02*
X67500000Y-123500000D01*
X57000000Y-127500000D02*
X63500000Y-127500000D01*
X67500000Y-123500000D02*
X71000000Y-123500000D01*
X71000000Y-123500000D02*
X71640000Y-122860000D01*
X71640000Y-122860000D02*
X75500000Y-122860000D01*
%TO.N,Net-(J1-Pin_12)*%
X63500000Y-134500000D02*
X70060000Y-127940000D01*
X75440000Y-128000000D02*
X75500000Y-127940000D01*
X70060000Y-127940000D02*
X75500000Y-127940000D01*
X57000000Y-134500000D02*
X63500000Y-134500000D01*
%TO.N,Net-(J1-Pin_16)*%
X81000000Y-70500000D02*
X86000000Y-70500000D01*
X86500000Y-135000000D02*
X83400000Y-138100000D01*
X86000000Y-70500000D02*
X86500000Y-71000000D01*
X83400000Y-138100000D02*
X75500000Y-138100000D01*
%TO.N,Net-(J1-Pin_17)*%
X85860000Y-140640000D02*
X75500000Y-140640000D01*
X86500000Y-140000000D02*
X85860000Y-140640000D01*
%TO.N,Net-(J1-Pin_18)*%
X71500000Y-78500000D02*
X68500000Y-81500000D01*
X72000000Y-141500000D02*
X73680000Y-143180000D01*
X70000000Y-141500000D02*
X72000000Y-141500000D01*
X73680000Y-143180000D02*
X75500000Y-143180000D01*
X68000000Y-139500000D02*
X70000000Y-141500000D01*
X93000000Y-72500000D02*
X93000000Y-73000000D01*
X87500000Y-78500000D02*
X71500000Y-78500000D01*
X93000000Y-73000000D02*
X87500000Y-78500000D01*
%TO.N,Net-(J1-Pin_20)*%
X72000000Y-147520000D02*
X72000000Y-147500000D01*
X72000000Y-147500000D02*
X71500000Y-147000000D01*
X72740000Y-148260000D02*
X75500000Y-148260000D01*
X72500000Y-81000000D02*
X70500000Y-83000000D01*
X85000000Y-81000000D02*
X72500000Y-81000000D01*
X72000000Y-147520000D02*
X72740000Y-148260000D01*
%TO.N,Net-(J2-Pin_18)*%
X97680000Y-143180000D02*
X101300000Y-143180000D01*
X93500000Y-83000000D02*
X94500000Y-84000000D01*
X95750000Y-141250000D02*
X97680000Y-143180000D01*
X83500000Y-83000000D02*
X93500000Y-83000000D01*
%TO.N,Net-(J2-Pin_4)*%
X116000000Y-92500000D02*
X115500000Y-93000000D01*
X116040000Y-92540000D02*
X116000000Y-92500000D01*
X126500000Y-92540000D02*
X116040000Y-92540000D01*
X110380000Y-107620000D02*
X101300000Y-107620000D01*
X111000000Y-107000000D02*
X110380000Y-107620000D01*
%TO.N,Net-(J2-Pin_5)*%
X117080000Y-95080000D02*
X117000000Y-95000000D01*
X111000000Y-109500000D02*
X110340000Y-110160000D01*
X117000000Y-95000000D02*
X116000000Y-96000000D01*
X126500000Y-95080000D02*
X117080000Y-95080000D01*
X110340000Y-110160000D02*
X101300000Y-110160000D01*
%TD*%
%TA.AperFunction,Conductor*%
%TO.N,/GND*%
G36*
X141942539Y-60520185D02*
G01*
X141988294Y-60572989D01*
X141999500Y-60624500D01*
X141999500Y-158875500D01*
X141979815Y-158942539D01*
X141927011Y-158988294D01*
X141875500Y-158999500D01*
X108845134Y-158999500D01*
X108778095Y-158979815D01*
X108732340Y-158927011D01*
X108722396Y-158857853D01*
X108730573Y-158828047D01*
X108747236Y-158787819D01*
X108769737Y-158733497D01*
X108800500Y-158578842D01*
X108800500Y-158421158D01*
X108800500Y-158421155D01*
X108800499Y-158421153D01*
X108769738Y-158266510D01*
X108769737Y-158266503D01*
X108769735Y-158266498D01*
X108709397Y-158120827D01*
X108709390Y-158120814D01*
X108621789Y-157989711D01*
X108621786Y-157989707D01*
X108510292Y-157878213D01*
X108510288Y-157878210D01*
X108379185Y-157790609D01*
X108379172Y-157790602D01*
X108233501Y-157730264D01*
X108233489Y-157730261D01*
X108078845Y-157699500D01*
X108078842Y-157699500D01*
X107921158Y-157699500D01*
X107921155Y-157699500D01*
X107766510Y-157730261D01*
X107766498Y-157730264D01*
X107620827Y-157790602D01*
X107620814Y-157790609D01*
X107489125Y-157878602D01*
X107422447Y-157899480D01*
X107420234Y-157899500D01*
X69800097Y-157899500D01*
X69733058Y-157879815D01*
X69712416Y-157863181D01*
X56334574Y-144485339D01*
X56301089Y-144424016D01*
X56300638Y-144421849D01*
X56269738Y-144266510D01*
X56269737Y-144266503D01*
X56246376Y-144210104D01*
X56209397Y-144120827D01*
X56209390Y-144120814D01*
X56121789Y-143989711D01*
X56121786Y-143989707D01*
X56010292Y-143878213D01*
X56010288Y-143878210D01*
X55879185Y-143790609D01*
X55879172Y-143790602D01*
X55733501Y-143730264D01*
X55733489Y-143730261D01*
X55578845Y-143699500D01*
X55578842Y-143699500D01*
X55421158Y-143699500D01*
X55421155Y-143699500D01*
X55266510Y-143730261D01*
X55266498Y-143730264D01*
X55120827Y-143790602D01*
X55120814Y-143790609D01*
X54989711Y-143878210D01*
X54989707Y-143878213D01*
X54878213Y-143989707D01*
X54878210Y-143989711D01*
X54790609Y-144120814D01*
X54790602Y-144120827D01*
X54730264Y-144266498D01*
X54730261Y-144266510D01*
X54699500Y-144421153D01*
X54699500Y-144578846D01*
X54730261Y-144733489D01*
X54730264Y-144733501D01*
X54790602Y-144879172D01*
X54790609Y-144879185D01*
X54878210Y-145010288D01*
X54878213Y-145010292D01*
X54989707Y-145121786D01*
X54989711Y-145121789D01*
X55120814Y-145209390D01*
X55120827Y-145209397D01*
X55266498Y-145269735D01*
X55266503Y-145269737D01*
X55331147Y-145282595D01*
X55421849Y-145300638D01*
X55483760Y-145333023D01*
X55485339Y-145334574D01*
X68938584Y-158787819D01*
X68972069Y-158849142D01*
X68967085Y-158918834D01*
X68925213Y-158974767D01*
X68859749Y-158999184D01*
X68850903Y-158999500D01*
X51121369Y-158999500D01*
X51054330Y-158979815D01*
X51008575Y-158927011D01*
X50997371Y-158876123D01*
X50993576Y-158120821D01*
X50967166Y-152865186D01*
X54099500Y-152865186D01*
X54099500Y-153134813D01*
X54129686Y-153402719D01*
X54129688Y-153402731D01*
X54189684Y-153665594D01*
X54189687Y-153665602D01*
X54278734Y-153920082D01*
X54395714Y-154162994D01*
X54395716Y-154162997D01*
X54539162Y-154391289D01*
X54625856Y-154500000D01*
X54698868Y-154591555D01*
X54707266Y-154602085D01*
X54897915Y-154792734D01*
X55108711Y-154960838D01*
X55337003Y-155104284D01*
X55579921Y-155221267D01*
X55771049Y-155288145D01*
X55834397Y-155310312D01*
X55834405Y-155310315D01*
X55834408Y-155310315D01*
X55834409Y-155310316D01*
X56097268Y-155370312D01*
X56365187Y-155400499D01*
X56365188Y-155400500D01*
X56365191Y-155400500D01*
X56634812Y-155400500D01*
X56634812Y-155400499D01*
X56902732Y-155370312D01*
X57165591Y-155310316D01*
X57420079Y-155221267D01*
X57662997Y-155104284D01*
X57891289Y-154960838D01*
X58102085Y-154792734D01*
X58292734Y-154602085D01*
X58460838Y-154391289D01*
X58604284Y-154162997D01*
X58721267Y-153920079D01*
X58810316Y-153665591D01*
X58870312Y-153402732D01*
X58900500Y-153134809D01*
X58900500Y-152865191D01*
X58870312Y-152597268D01*
X58810316Y-152334409D01*
X58801736Y-152309890D01*
X58788145Y-152271049D01*
X58721267Y-152079921D01*
X58604284Y-151837003D01*
X58460838Y-151608711D01*
X58292734Y-151397915D01*
X58102085Y-151207266D01*
X57891289Y-151039162D01*
X57662997Y-150895716D01*
X57662994Y-150895714D01*
X57420082Y-150778734D01*
X57165602Y-150689687D01*
X57165594Y-150689684D01*
X56968446Y-150644687D01*
X56902732Y-150629688D01*
X56902728Y-150629687D01*
X56902719Y-150629686D01*
X56634813Y-150599500D01*
X56634809Y-150599500D01*
X56365191Y-150599500D01*
X56365186Y-150599500D01*
X56097280Y-150629686D01*
X56097268Y-150629688D01*
X55834405Y-150689684D01*
X55834397Y-150689687D01*
X55579917Y-150778734D01*
X55337005Y-150895714D01*
X55108712Y-151039161D01*
X54897915Y-151207265D01*
X54707265Y-151397915D01*
X54539161Y-151608712D01*
X54395714Y-151837005D01*
X54278734Y-152079917D01*
X54189687Y-152334397D01*
X54189684Y-152334405D01*
X54129688Y-152597268D01*
X54129686Y-152597280D01*
X54099500Y-152865186D01*
X50967166Y-152865186D01*
X50938352Y-147131282D01*
X50714082Y-102501416D01*
X51161203Y-102501416D01*
X51190681Y-102539007D01*
X51198903Y-102572782D01*
X51199500Y-102578846D01*
X51230261Y-102733489D01*
X51230264Y-102733501D01*
X51290602Y-102879172D01*
X51290609Y-102879185D01*
X51378210Y-103010288D01*
X51378213Y-103010292D01*
X51489707Y-103121786D01*
X51489711Y-103121789D01*
X51620814Y-103209390D01*
X51620827Y-103209397D01*
X51713590Y-103247820D01*
X51766503Y-103269737D01*
X51921153Y-103300499D01*
X51921156Y-103300500D01*
X51921158Y-103300500D01*
X52078844Y-103300500D01*
X52078845Y-103300499D01*
X52233497Y-103269737D01*
X52357403Y-103218414D01*
X52379172Y-103209397D01*
X52379172Y-103209396D01*
X52379179Y-103209394D01*
X52510289Y-103121789D01*
X52621789Y-103010289D01*
X52709394Y-102879179D01*
X52769737Y-102733497D01*
X52797542Y-102593713D01*
X52800638Y-102578150D01*
X52833023Y-102516239D01*
X52834518Y-102514716D01*
X54712416Y-100636819D01*
X54773739Y-100603334D01*
X54800097Y-100600500D01*
X65525501Y-100600500D01*
X65592540Y-100620185D01*
X65638295Y-100672989D01*
X65649501Y-100724500D01*
X65649501Y-100897876D01*
X65655908Y-100957483D01*
X65706202Y-101092328D01*
X65706206Y-101092335D01*
X65792452Y-101207544D01*
X65792455Y-101207547D01*
X65907664Y-101293793D01*
X65907671Y-101293797D01*
X66042517Y-101344091D01*
X66042516Y-101344091D01*
X66049444Y-101344835D01*
X66102127Y-101350500D01*
X67897872Y-101350499D01*
X67957483Y-101344091D01*
X68092331Y-101293796D01*
X68207546Y-101207546D01*
X68293796Y-101092331D01*
X68344091Y-100957483D01*
X68350500Y-100897873D01*
X68350500Y-100724500D01*
X68370185Y-100657461D01*
X68422989Y-100611706D01*
X68474500Y-100600500D01*
X74025501Y-100600500D01*
X74092540Y-100620185D01*
X74138295Y-100672989D01*
X74149501Y-100724500D01*
X74149501Y-100897876D01*
X74155908Y-100957483D01*
X74206202Y-101092328D01*
X74206206Y-101092335D01*
X74292452Y-101207544D01*
X74292455Y-101207547D01*
X74407664Y-101293793D01*
X74407671Y-101293797D01*
X74539082Y-101342810D01*
X74595016Y-101384681D01*
X74619433Y-101450145D01*
X74604582Y-101518418D01*
X74583431Y-101546673D01*
X74469889Y-101660215D01*
X74344951Y-101832179D01*
X74248444Y-102021585D01*
X74182753Y-102223760D01*
X74149500Y-102433713D01*
X74149500Y-102646286D01*
X74174841Y-102806287D01*
X74182754Y-102856243D01*
X74234741Y-103016243D01*
X74248444Y-103058414D01*
X74344951Y-103247820D01*
X74469890Y-103419786D01*
X74620213Y-103570109D01*
X74792182Y-103695050D01*
X74800946Y-103699516D01*
X74851742Y-103747491D01*
X74868536Y-103815312D01*
X74845998Y-103881447D01*
X74800946Y-103920484D01*
X74792182Y-103924949D01*
X74620213Y-104049890D01*
X74469890Y-104200213D01*
X74344951Y-104372179D01*
X74248444Y-104561585D01*
X74182753Y-104763760D01*
X74149500Y-104973713D01*
X74149500Y-105186286D01*
X74182753Y-105396239D01*
X74248444Y-105598414D01*
X74344951Y-105787820D01*
X74469890Y-105959786D01*
X74620213Y-106110109D01*
X74792182Y-106235050D01*
X74800946Y-106239516D01*
X74851742Y-106287491D01*
X74868536Y-106355312D01*
X74845998Y-106421447D01*
X74800946Y-106460484D01*
X74792182Y-106464949D01*
X74620213Y-106589890D01*
X74469890Y-106740213D01*
X74344951Y-106912179D01*
X74248444Y-107101585D01*
X74182753Y-107303760D01*
X74170809Y-107379172D01*
X74149500Y-107513713D01*
X74149500Y-107726287D01*
X74182754Y-107936243D01*
X74196487Y-107978510D01*
X74248444Y-108138414D01*
X74344951Y-108327820D01*
X74469890Y-108499786D01*
X74620213Y-108650109D01*
X74792182Y-108775050D01*
X74800946Y-108779516D01*
X74851742Y-108827491D01*
X74868536Y-108895312D01*
X74845998Y-108961447D01*
X74800946Y-109000484D01*
X74792182Y-109004949D01*
X74620213Y-109129890D01*
X74469890Y-109280213D01*
X74344951Y-109452179D01*
X74248444Y-109641585D01*
X74182753Y-109843760D01*
X74156378Y-110010288D01*
X74149500Y-110053713D01*
X74149500Y-110266287D01*
X74182754Y-110476243D01*
X74196486Y-110518507D01*
X74248444Y-110678414D01*
X74344951Y-110867820D01*
X74469890Y-111039786D01*
X74620213Y-111190109D01*
X74792182Y-111315050D01*
X74800946Y-111319516D01*
X74851742Y-111367491D01*
X74868536Y-111435312D01*
X74845998Y-111501447D01*
X74800946Y-111540484D01*
X74792182Y-111544949D01*
X74620213Y-111669890D01*
X74469890Y-111820213D01*
X74344951Y-111992179D01*
X74248444Y-112181585D01*
X74182753Y-112383760D01*
X74149500Y-112593713D01*
X74149500Y-112806287D01*
X74182754Y-113016243D01*
X74204956Y-113084574D01*
X74248444Y-113218414D01*
X74344951Y-113407820D01*
X74469890Y-113579786D01*
X74620213Y-113730109D01*
X74792182Y-113855050D01*
X74800946Y-113859516D01*
X74851742Y-113907491D01*
X74868536Y-113975312D01*
X74845998Y-114041447D01*
X74800946Y-114080484D01*
X74792182Y-114084949D01*
X74620213Y-114209890D01*
X74469890Y-114360213D01*
X74344948Y-114532184D01*
X74344947Y-114532185D01*
X74324765Y-114571795D01*
X74276791Y-114622591D01*
X74214281Y-114639500D01*
X69060097Y-114639500D01*
X68993058Y-114619815D01*
X68972416Y-114603181D01*
X66507590Y-112138355D01*
X66507588Y-112138352D01*
X66388717Y-112019481D01*
X66388716Y-112019480D01*
X66301904Y-111969360D01*
X66301904Y-111969359D01*
X66301900Y-111969358D01*
X66251785Y-111940423D01*
X66099057Y-111899499D01*
X65940943Y-111899499D01*
X65933347Y-111899499D01*
X65933331Y-111899500D01*
X58474499Y-111899500D01*
X58407460Y-111879815D01*
X58361705Y-111827011D01*
X58350499Y-111775500D01*
X58350499Y-111602129D01*
X58350498Y-111602123D01*
X58350497Y-111602116D01*
X58344353Y-111544951D01*
X58344091Y-111542516D01*
X58293797Y-111407671D01*
X58293793Y-111407664D01*
X58207547Y-111292455D01*
X58207544Y-111292452D01*
X58092335Y-111206206D01*
X58092328Y-111206202D01*
X57957482Y-111155908D01*
X57957483Y-111155908D01*
X57897883Y-111149501D01*
X57897881Y-111149500D01*
X57897873Y-111149500D01*
X57897864Y-111149500D01*
X56102129Y-111149500D01*
X56102123Y-111149501D01*
X56042516Y-111155908D01*
X55907671Y-111206202D01*
X55907664Y-111206206D01*
X55792455Y-111292452D01*
X55792452Y-111292455D01*
X55706206Y-111407664D01*
X55706202Y-111407671D01*
X55655908Y-111542517D01*
X55649501Y-111602116D01*
X55649501Y-111602123D01*
X55649500Y-111602135D01*
X55649500Y-113397870D01*
X55649501Y-113397876D01*
X55655908Y-113457483D01*
X55706202Y-113592328D01*
X55706206Y-113592335D01*
X55792452Y-113707544D01*
X55792455Y-113707547D01*
X55907664Y-113793793D01*
X55907671Y-113793797D01*
X56042517Y-113844091D01*
X56042516Y-113844091D01*
X56049444Y-113844835D01*
X56102127Y-113850500D01*
X57897872Y-113850499D01*
X57957483Y-113844091D01*
X58092331Y-113793796D01*
X58207546Y-113707546D01*
X58293796Y-113592331D01*
X58344091Y-113457483D01*
X58350500Y-113397873D01*
X58350500Y-113224500D01*
X58370185Y-113157461D01*
X58422989Y-113111706D01*
X58474500Y-113100500D01*
X65719903Y-113100500D01*
X65786942Y-113120185D01*
X65807584Y-113136819D01*
X68275139Y-115604374D01*
X68275149Y-115604385D01*
X68279479Y-115608715D01*
X68279480Y-115608716D01*
X68391284Y-115720520D01*
X68408162Y-115730264D01*
X68478095Y-115770639D01*
X68478097Y-115770641D01*
X68516151Y-115792611D01*
X68528215Y-115799577D01*
X68680943Y-115840500D01*
X68839057Y-115840500D01*
X74214281Y-115840500D01*
X74281320Y-115860185D01*
X74324765Y-115908205D01*
X74344947Y-115947814D01*
X74344948Y-115947815D01*
X74469890Y-116119786D01*
X74620213Y-116270109D01*
X74792182Y-116395050D01*
X74800946Y-116399516D01*
X74851742Y-116447491D01*
X74868536Y-116515312D01*
X74845998Y-116581447D01*
X74800946Y-116620484D01*
X74792182Y-116624949D01*
X74620213Y-116749890D01*
X74469890Y-116900213D01*
X74344951Y-117072179D01*
X74248444Y-117261585D01*
X74182753Y-117463760D01*
X74149500Y-117673713D01*
X74149500Y-117886286D01*
X74176946Y-118059577D01*
X74182754Y-118096243D01*
X74238077Y-118266510D01*
X74248444Y-118298414D01*
X74344951Y-118487820D01*
X74469890Y-118659786D01*
X74620213Y-118810109D01*
X74792182Y-118935050D01*
X74800946Y-118939516D01*
X74851742Y-118987491D01*
X74868536Y-119055312D01*
X74845998Y-119121447D01*
X74800946Y-119160484D01*
X74792182Y-119164949D01*
X74620213Y-119289890D01*
X74469890Y-119440213D01*
X74344948Y-119612184D01*
X74344947Y-119612185D01*
X74324765Y-119651795D01*
X74276791Y-119702591D01*
X74214281Y-119719500D01*
X63120097Y-119719500D01*
X63053058Y-119699815D01*
X63032416Y-119683181D01*
X62987590Y-119638355D01*
X62987588Y-119638352D01*
X62868717Y-119519481D01*
X62868716Y-119519480D01*
X62781904Y-119469360D01*
X62781904Y-119469359D01*
X62781900Y-119469358D01*
X62731785Y-119440423D01*
X62579057Y-119399499D01*
X62420943Y-119399499D01*
X62413347Y-119399499D01*
X62413331Y-119399500D01*
X58474499Y-119399500D01*
X58407460Y-119379815D01*
X58361705Y-119327011D01*
X58350499Y-119275500D01*
X58350499Y-119102129D01*
X58350498Y-119102123D01*
X58350497Y-119102116D01*
X58344091Y-119042517D01*
X58340003Y-119031557D01*
X58293797Y-118907671D01*
X58293793Y-118907664D01*
X58207547Y-118792455D01*
X58207544Y-118792452D01*
X58092335Y-118706206D01*
X58092328Y-118706202D01*
X57957482Y-118655908D01*
X57957483Y-118655908D01*
X57897883Y-118649501D01*
X57897881Y-118649500D01*
X57897873Y-118649500D01*
X57897864Y-118649500D01*
X56102129Y-118649500D01*
X56102123Y-118649501D01*
X56042516Y-118655908D01*
X55907671Y-118706202D01*
X55907664Y-118706206D01*
X55792455Y-118792452D01*
X55792452Y-118792455D01*
X55706206Y-118907664D01*
X55706202Y-118907671D01*
X55655908Y-119042517D01*
X55649501Y-119102116D01*
X55649501Y-119102123D01*
X55649500Y-119102135D01*
X55649500Y-120897870D01*
X55649501Y-120897876D01*
X55655908Y-120957483D01*
X55706202Y-121092328D01*
X55706206Y-121092335D01*
X55792452Y-121207544D01*
X55792455Y-121207547D01*
X55907664Y-121293793D01*
X55907671Y-121293797D01*
X56042517Y-121344091D01*
X56042516Y-121344091D01*
X56049444Y-121344835D01*
X56102127Y-121350500D01*
X57897872Y-121350499D01*
X57957483Y-121344091D01*
X58092331Y-121293796D01*
X58207546Y-121207546D01*
X58293796Y-121092331D01*
X58344091Y-120957483D01*
X58350500Y-120897873D01*
X58350500Y-120724500D01*
X58370185Y-120657461D01*
X58422989Y-120611706D01*
X58474500Y-120600500D01*
X61996561Y-120600500D01*
X62063600Y-120620185D01*
X62109355Y-120672989D01*
X62119299Y-120742147D01*
X62090274Y-120805703D01*
X62065452Y-120827602D01*
X61989711Y-120878210D01*
X61989707Y-120878213D01*
X61878213Y-120989707D01*
X61878210Y-120989711D01*
X61790609Y-121120814D01*
X61790602Y-121120827D01*
X61730264Y-121266498D01*
X61730261Y-121266510D01*
X61699500Y-121421153D01*
X61699500Y-121578846D01*
X61730261Y-121733489D01*
X61730264Y-121733501D01*
X61790602Y-121879172D01*
X61790609Y-121879185D01*
X61878210Y-122010288D01*
X61878213Y-122010292D01*
X61989707Y-122121786D01*
X61989711Y-122121789D01*
X62120814Y-122209390D01*
X62120827Y-122209397D01*
X62266498Y-122269735D01*
X62266503Y-122269737D01*
X62420771Y-122300423D01*
X62421153Y-122300499D01*
X62421156Y-122300500D01*
X62421158Y-122300500D01*
X62578844Y-122300500D01*
X62578845Y-122300499D01*
X62733497Y-122269737D01*
X62879179Y-122209394D01*
X62905518Y-122191795D01*
X63010875Y-122121398D01*
X63077553Y-122100520D01*
X63079766Y-122100500D01*
X63199903Y-122100500D01*
X63266942Y-122120185D01*
X63287584Y-122136819D01*
X65165425Y-124014660D01*
X65198910Y-124075983D01*
X65199361Y-124078149D01*
X65230261Y-124233491D01*
X65230264Y-124233501D01*
X65290602Y-124379172D01*
X65290609Y-124379185D01*
X65378210Y-124510288D01*
X65378213Y-124510292D01*
X65421661Y-124553740D01*
X65455146Y-124615063D01*
X65450162Y-124684755D01*
X65421661Y-124729102D01*
X63287584Y-126863181D01*
X63226261Y-126896666D01*
X63199903Y-126899500D01*
X58474499Y-126899500D01*
X58407460Y-126879815D01*
X58361705Y-126827011D01*
X58350499Y-126775500D01*
X58350499Y-126602129D01*
X58350498Y-126602123D01*
X58350497Y-126602116D01*
X58344091Y-126542517D01*
X58293796Y-126407669D01*
X58293795Y-126407668D01*
X58293793Y-126407664D01*
X58207547Y-126292455D01*
X58207544Y-126292452D01*
X58092335Y-126206206D01*
X58092328Y-126206202D01*
X57957482Y-126155908D01*
X57957483Y-126155908D01*
X57897883Y-126149501D01*
X57897881Y-126149500D01*
X57897873Y-126149500D01*
X57897864Y-126149500D01*
X56102129Y-126149500D01*
X56102123Y-126149501D01*
X56042516Y-126155908D01*
X55907671Y-126206202D01*
X55907664Y-126206206D01*
X55792455Y-126292452D01*
X55792452Y-126292455D01*
X55706206Y-126407664D01*
X55706202Y-126407671D01*
X55655908Y-126542517D01*
X55654081Y-126559516D01*
X55649501Y-126602123D01*
X55649500Y-126602135D01*
X55649500Y-128397870D01*
X55649501Y-128397876D01*
X55655908Y-128457483D01*
X55706202Y-128592328D01*
X55706206Y-128592335D01*
X55792452Y-128707544D01*
X55792455Y-128707547D01*
X55907664Y-128793793D01*
X55907671Y-128793797D01*
X56042517Y-128844091D01*
X56042516Y-128844091D01*
X56049444Y-128844835D01*
X56102127Y-128850500D01*
X57897872Y-128850499D01*
X57957483Y-128844091D01*
X58092331Y-128793796D01*
X58207546Y-128707546D01*
X58293796Y-128592331D01*
X58344091Y-128457483D01*
X58350500Y-128397873D01*
X58350500Y-128224500D01*
X58370185Y-128157461D01*
X58422989Y-128111706D01*
X58474500Y-128100500D01*
X63413331Y-128100500D01*
X63413347Y-128100501D01*
X63420943Y-128100501D01*
X63579054Y-128100501D01*
X63579057Y-128100501D01*
X63731785Y-128059577D01*
X63801967Y-128019057D01*
X63868716Y-127980520D01*
X63980520Y-127868716D01*
X63980520Y-127868714D01*
X63990724Y-127858511D01*
X63990728Y-127858506D01*
X66270898Y-125578335D01*
X66332219Y-125544852D01*
X66401911Y-125549836D01*
X66446258Y-125578337D01*
X66489707Y-125621786D01*
X66489711Y-125621789D01*
X66620814Y-125709390D01*
X66620827Y-125709397D01*
X66766498Y-125769735D01*
X66766503Y-125769737D01*
X66921158Y-125800500D01*
X66921847Y-125800637D01*
X66983758Y-125833022D01*
X66985337Y-125834573D01*
X67031284Y-125880520D01*
X67031286Y-125880521D01*
X67031290Y-125880524D01*
X67168209Y-125959573D01*
X67168216Y-125959577D01*
X67280019Y-125989534D01*
X67320942Y-126000500D01*
X67320943Y-126000500D01*
X74214281Y-126000500D01*
X74281320Y-126020185D01*
X74324765Y-126068205D01*
X74344947Y-126107814D01*
X74344948Y-126107815D01*
X74469890Y-126279786D01*
X74620213Y-126430109D01*
X74792182Y-126555050D01*
X74800946Y-126559516D01*
X74851742Y-126607491D01*
X74868536Y-126675312D01*
X74845998Y-126741447D01*
X74800946Y-126780484D01*
X74792182Y-126784949D01*
X74620213Y-126909890D01*
X74469890Y-127060213D01*
X74344948Y-127232184D01*
X74344947Y-127232185D01*
X74324765Y-127271795D01*
X74276791Y-127322591D01*
X74214281Y-127339500D01*
X70146669Y-127339500D01*
X70146653Y-127339499D01*
X70139057Y-127339499D01*
X69980943Y-127339499D01*
X69866397Y-127370192D01*
X69828214Y-127380423D01*
X69791780Y-127401459D01*
X69791779Y-127401459D01*
X69691287Y-127459477D01*
X69691282Y-127459481D01*
X69579478Y-127571286D01*
X63287584Y-133863181D01*
X63226261Y-133896666D01*
X63199903Y-133899500D01*
X58474499Y-133899500D01*
X58407460Y-133879815D01*
X58361705Y-133827011D01*
X58350499Y-133775500D01*
X58350499Y-133602129D01*
X58350498Y-133602123D01*
X58350497Y-133602116D01*
X58344091Y-133542517D01*
X58293796Y-133407669D01*
X58293795Y-133407668D01*
X58293793Y-133407664D01*
X58207547Y-133292455D01*
X58207544Y-133292452D01*
X58092335Y-133206206D01*
X58092328Y-133206202D01*
X57957482Y-133155908D01*
X57957483Y-133155908D01*
X57897883Y-133149501D01*
X57897881Y-133149500D01*
X57897873Y-133149500D01*
X57897864Y-133149500D01*
X56102129Y-133149500D01*
X56102123Y-133149501D01*
X56042516Y-133155908D01*
X55907671Y-133206202D01*
X55907664Y-133206206D01*
X55792455Y-133292452D01*
X55792452Y-133292455D01*
X55706206Y-133407664D01*
X55706202Y-133407671D01*
X55655908Y-133542517D01*
X55649501Y-133602116D01*
X55649501Y-133602123D01*
X55649500Y-133602135D01*
X55649500Y-135397870D01*
X55649501Y-135397876D01*
X55655908Y-135457483D01*
X55706202Y-135592328D01*
X55706206Y-135592335D01*
X55792452Y-135707544D01*
X55792455Y-135707547D01*
X55907664Y-135793793D01*
X55907671Y-135793797D01*
X56042517Y-135844091D01*
X56042516Y-135844091D01*
X56049444Y-135844835D01*
X56102127Y-135850500D01*
X57897872Y-135850499D01*
X57957483Y-135844091D01*
X58092331Y-135793796D01*
X58207546Y-135707546D01*
X58293796Y-135592331D01*
X58344091Y-135457483D01*
X58350500Y-135397873D01*
X58350500Y-135224500D01*
X58370185Y-135157461D01*
X58422989Y-135111706D01*
X58474500Y-135100500D01*
X63413331Y-135100500D01*
X63413347Y-135100501D01*
X63420943Y-135100501D01*
X63579054Y-135100501D01*
X63579057Y-135100501D01*
X63731785Y-135059577D01*
X63781904Y-135030639D01*
X63868716Y-134980520D01*
X63980520Y-134868716D01*
X63980520Y-134868714D01*
X63990728Y-134858507D01*
X63990729Y-134858504D01*
X70272416Y-128576819D01*
X70333739Y-128543334D01*
X70360097Y-128540500D01*
X74214281Y-128540500D01*
X74281320Y-128560185D01*
X74324765Y-128608205D01*
X74344947Y-128647814D01*
X74344948Y-128647815D01*
X74469890Y-128819786D01*
X74620213Y-128970109D01*
X74792182Y-129095050D01*
X74800946Y-129099516D01*
X74851742Y-129147491D01*
X74868536Y-129215312D01*
X74845998Y-129281447D01*
X74800946Y-129320484D01*
X74792182Y-129324949D01*
X74620213Y-129449890D01*
X74469890Y-129600213D01*
X74344951Y-129772179D01*
X74248444Y-129961585D01*
X74182753Y-130163760D01*
X74149500Y-130373713D01*
X74149500Y-130586286D01*
X74182753Y-130796239D01*
X74248444Y-130998414D01*
X74344951Y-131187820D01*
X74469890Y-131359786D01*
X74620213Y-131510109D01*
X74792182Y-131635050D01*
X74800946Y-131639516D01*
X74851742Y-131687491D01*
X74868536Y-131755312D01*
X74845998Y-131821447D01*
X74800946Y-131860484D01*
X74792182Y-131864949D01*
X74620213Y-131989890D01*
X74469890Y-132140213D01*
X74344951Y-132312179D01*
X74248444Y-132501585D01*
X74182753Y-132703760D01*
X74149500Y-132913713D01*
X74149500Y-133126286D01*
X74175818Y-133292455D01*
X74182754Y-133336243D01*
X74205962Y-133407671D01*
X74248444Y-133538414D01*
X74344951Y-133727820D01*
X74469890Y-133899786D01*
X74620213Y-134050109D01*
X74792182Y-134175050D01*
X74800946Y-134179516D01*
X74851742Y-134227491D01*
X74868536Y-134295312D01*
X74845998Y-134361447D01*
X74800946Y-134400484D01*
X74792182Y-134404949D01*
X74620213Y-134529890D01*
X74469890Y-134680213D01*
X74344951Y-134852179D01*
X74248444Y-135041585D01*
X74182753Y-135243760D01*
X74149500Y-135453713D01*
X74149500Y-135666286D01*
X74182753Y-135876239D01*
X74248444Y-136078414D01*
X74344951Y-136267820D01*
X74469890Y-136439786D01*
X74620213Y-136590109D01*
X74792182Y-136715050D01*
X74800946Y-136719516D01*
X74851742Y-136767491D01*
X74868536Y-136835312D01*
X74845998Y-136901447D01*
X74800946Y-136940484D01*
X74792182Y-136944949D01*
X74620213Y-137069890D01*
X74469890Y-137220213D01*
X74344951Y-137392179D01*
X74248444Y-137581585D01*
X74182753Y-137783760D01*
X74149500Y-137993713D01*
X74149500Y-138206287D01*
X74182754Y-138416243D01*
X74196486Y-138458507D01*
X74248444Y-138618414D01*
X74344951Y-138807820D01*
X74469890Y-138979786D01*
X74620213Y-139130109D01*
X74792182Y-139255050D01*
X74800946Y-139259516D01*
X74851742Y-139307491D01*
X74868536Y-139375312D01*
X74845998Y-139441447D01*
X74800946Y-139480484D01*
X74792182Y-139484949D01*
X74620213Y-139609890D01*
X74469890Y-139760213D01*
X74344951Y-139932179D01*
X74248444Y-140121585D01*
X74182753Y-140323760D01*
X74149500Y-140533713D01*
X74149500Y-140746286D01*
X74173766Y-140899499D01*
X74182754Y-140956243D01*
X74239629Y-141131286D01*
X74248444Y-141158414D01*
X74344951Y-141347820D01*
X74469890Y-141519786D01*
X74620213Y-141670109D01*
X74792182Y-141795050D01*
X74800946Y-141799516D01*
X74851742Y-141847491D01*
X74868536Y-141915312D01*
X74845998Y-141981447D01*
X74800946Y-142020484D01*
X74792182Y-142024949D01*
X74620213Y-142149890D01*
X74469890Y-142300213D01*
X74344948Y-142472184D01*
X74344947Y-142472185D01*
X74324765Y-142511795D01*
X74276791Y-142562591D01*
X74214281Y-142579500D01*
X73980098Y-142579500D01*
X73913059Y-142559815D01*
X73892417Y-142543181D01*
X72487590Y-141138355D01*
X72487588Y-141138352D01*
X72368717Y-141019481D01*
X72368716Y-141019480D01*
X72281904Y-140969360D01*
X72281904Y-140969359D01*
X72281900Y-140969358D01*
X72231785Y-140940423D01*
X72079057Y-140899499D01*
X71920943Y-140899499D01*
X71913347Y-140899499D01*
X71913331Y-140899500D01*
X70300097Y-140899500D01*
X70233058Y-140879815D01*
X70212416Y-140863181D01*
X68834574Y-139485339D01*
X68801089Y-139424016D01*
X68800638Y-139421849D01*
X68774531Y-139290606D01*
X68769737Y-139266503D01*
X68766842Y-139259514D01*
X68709397Y-139120827D01*
X68709390Y-139120814D01*
X68621789Y-138989711D01*
X68621786Y-138989707D01*
X68510292Y-138878213D01*
X68510288Y-138878210D01*
X68379185Y-138790609D01*
X68379172Y-138790602D01*
X68233501Y-138730264D01*
X68233489Y-138730261D01*
X68078845Y-138699500D01*
X68078842Y-138699500D01*
X67921158Y-138699500D01*
X67921155Y-138699500D01*
X67766510Y-138730261D01*
X67766498Y-138730264D01*
X67620827Y-138790602D01*
X67620814Y-138790609D01*
X67489711Y-138878210D01*
X67489707Y-138878213D01*
X67378213Y-138989707D01*
X67378210Y-138989711D01*
X67290609Y-139120814D01*
X67290602Y-139120827D01*
X67230264Y-139266498D01*
X67230261Y-139266510D01*
X67199500Y-139421153D01*
X67199500Y-139578846D01*
X67230261Y-139733489D01*
X67230264Y-139733501D01*
X67290602Y-139879172D01*
X67290609Y-139879185D01*
X67378210Y-140010288D01*
X67378213Y-140010292D01*
X67489707Y-140121786D01*
X67489711Y-140121789D01*
X67620814Y-140209390D01*
X67620827Y-140209397D01*
X67766498Y-140269735D01*
X67766503Y-140269737D01*
X67831147Y-140282595D01*
X67921849Y-140300638D01*
X67983760Y-140333023D01*
X67985339Y-140334574D01*
X69515139Y-141864374D01*
X69515149Y-141864385D01*
X69519479Y-141868715D01*
X69519480Y-141868716D01*
X69631284Y-141980520D01*
X69708238Y-142024949D01*
X69768215Y-142059577D01*
X69920943Y-142100500D01*
X70079057Y-142100500D01*
X71699903Y-142100500D01*
X71766942Y-142120185D01*
X71787583Y-142136818D01*
X73311284Y-143660520D01*
X73448215Y-143739577D01*
X73600943Y-143780501D01*
X73600946Y-143780501D01*
X73766654Y-143780501D01*
X73766670Y-143780500D01*
X74214281Y-143780500D01*
X74281320Y-143800185D01*
X74324765Y-143848205D01*
X74344947Y-143887814D01*
X74344948Y-143887815D01*
X74469890Y-144059786D01*
X74620213Y-144210109D01*
X74792182Y-144335050D01*
X74800946Y-144339516D01*
X74851742Y-144387491D01*
X74868536Y-144455312D01*
X74845998Y-144521447D01*
X74800946Y-144560484D01*
X74792182Y-144564949D01*
X74620213Y-144689890D01*
X74469890Y-144840213D01*
X74344951Y-145012179D01*
X74248444Y-145201585D01*
X74182753Y-145403760D01*
X74149500Y-145613713D01*
X74149500Y-145826287D01*
X74182754Y-146036243D01*
X74245795Y-146230263D01*
X74248444Y-146238414D01*
X74344951Y-146427820D01*
X74469890Y-146599786D01*
X74620213Y-146750109D01*
X74792182Y-146875050D01*
X74800946Y-146879516D01*
X74851742Y-146927491D01*
X74868536Y-146995312D01*
X74845998Y-147061447D01*
X74800946Y-147100484D01*
X74792182Y-147104949D01*
X74620213Y-147229890D01*
X74469890Y-147380213D01*
X74344948Y-147552184D01*
X74344947Y-147552185D01*
X74324765Y-147591795D01*
X74276791Y-147642591D01*
X74214281Y-147659500D01*
X73040097Y-147659500D01*
X72973058Y-147639815D01*
X72952416Y-147623181D01*
X72519386Y-147190151D01*
X72499679Y-147164469D01*
X72480520Y-147131284D01*
X72334573Y-146985337D01*
X72301088Y-146924014D01*
X72300637Y-146921847D01*
X72269738Y-146766510D01*
X72269737Y-146766503D01*
X72269735Y-146766498D01*
X72209397Y-146620827D01*
X72209390Y-146620814D01*
X72121789Y-146489711D01*
X72121786Y-146489707D01*
X72010292Y-146378213D01*
X72010288Y-146378210D01*
X71879185Y-146290609D01*
X71879172Y-146290602D01*
X71733501Y-146230264D01*
X71733489Y-146230261D01*
X71578845Y-146199500D01*
X71578842Y-146199500D01*
X71421158Y-146199500D01*
X71421155Y-146199500D01*
X71266510Y-146230261D01*
X71266498Y-146230264D01*
X71120827Y-146290602D01*
X71120814Y-146290609D01*
X70989711Y-146378210D01*
X70989707Y-146378213D01*
X70878213Y-146489707D01*
X70878210Y-146489711D01*
X70790609Y-146620814D01*
X70790602Y-146620827D01*
X70730264Y-146766498D01*
X70730261Y-146766510D01*
X70699500Y-146921153D01*
X70699500Y-147078846D01*
X70730261Y-147233489D01*
X70730264Y-147233501D01*
X70790602Y-147379172D01*
X70790609Y-147379185D01*
X70878210Y-147510288D01*
X70878213Y-147510292D01*
X70989707Y-147621786D01*
X70989711Y-147621789D01*
X71120814Y-147709390D01*
X71120827Y-147709397D01*
X71266498Y-147769735D01*
X71266503Y-147769737D01*
X71333906Y-147783144D01*
X71419592Y-147800189D01*
X71481503Y-147832574D01*
X71487793Y-147839103D01*
X71496363Y-147848678D01*
X71519480Y-147888716D01*
X71631284Y-148000520D01*
X71631286Y-148000521D01*
X71640787Y-148010022D01*
X72255139Y-148624374D01*
X72255149Y-148624385D01*
X72259479Y-148628715D01*
X72259480Y-148628716D01*
X72371284Y-148740520D01*
X72436917Y-148778412D01*
X72458095Y-148790639D01*
X72458097Y-148790641D01*
X72496151Y-148812611D01*
X72508215Y-148819577D01*
X72660943Y-148860501D01*
X72660946Y-148860501D01*
X72826653Y-148860501D01*
X72826669Y-148860500D01*
X74214281Y-148860500D01*
X74281320Y-148880185D01*
X74324765Y-148928205D01*
X74344947Y-148967814D01*
X74344948Y-148967815D01*
X74469890Y-149139786D01*
X74620213Y-149290109D01*
X74792182Y-149415050D01*
X74800946Y-149419516D01*
X74851742Y-149467491D01*
X74868536Y-149535312D01*
X74845998Y-149601447D01*
X74800946Y-149640484D01*
X74792182Y-149644949D01*
X74620213Y-149769890D01*
X74469890Y-149920213D01*
X74344951Y-150092179D01*
X74248444Y-150281585D01*
X74182753Y-150483760D01*
X74150138Y-150689684D01*
X74149500Y-150693713D01*
X74149500Y-150906287D01*
X74182754Y-151116243D01*
X74212329Y-151207266D01*
X74248444Y-151318414D01*
X74344951Y-151507820D01*
X74469890Y-151679786D01*
X74620213Y-151830109D01*
X74792182Y-151955050D01*
X74800946Y-151959516D01*
X74851742Y-152007491D01*
X74868536Y-152075312D01*
X74845998Y-152141447D01*
X74800946Y-152180484D01*
X74792182Y-152184949D01*
X74620213Y-152309890D01*
X74469890Y-152460213D01*
X74344951Y-152632179D01*
X74248444Y-152821585D01*
X74182753Y-153023760D01*
X74165164Y-153134813D01*
X74149500Y-153233713D01*
X74149500Y-153446287D01*
X74182754Y-153656243D01*
X74231740Y-153807007D01*
X74248444Y-153858414D01*
X74344951Y-154047820D01*
X74469890Y-154219786D01*
X74620213Y-154370109D01*
X74792179Y-154495048D01*
X74792181Y-154495049D01*
X74792184Y-154495051D01*
X74981588Y-154591557D01*
X75183757Y-154657246D01*
X75393713Y-154690500D01*
X75393714Y-154690500D01*
X75606286Y-154690500D01*
X75606287Y-154690500D01*
X75816243Y-154657246D01*
X76018412Y-154591557D01*
X76207816Y-154495051D01*
X76253789Y-154461650D01*
X76379786Y-154370109D01*
X76379788Y-154370106D01*
X76379792Y-154370104D01*
X76530104Y-154219792D01*
X76530106Y-154219788D01*
X76530109Y-154219786D01*
X76655048Y-154047820D01*
X76655047Y-154047820D01*
X76655051Y-154047816D01*
X76751557Y-153858412D01*
X76817246Y-153656243D01*
X76850500Y-153446287D01*
X76850500Y-153233713D01*
X76817246Y-153023757D01*
X76751557Y-152821588D01*
X76655051Y-152632184D01*
X76655049Y-152632181D01*
X76655048Y-152632179D01*
X76530109Y-152460213D01*
X76379786Y-152309890D01*
X76207820Y-152184951D01*
X76207115Y-152184591D01*
X76199054Y-152180485D01*
X76148259Y-152132512D01*
X76131463Y-152064692D01*
X76153999Y-151998556D01*
X76199054Y-151959515D01*
X76207816Y-151955051D01*
X76370294Y-151837005D01*
X76379786Y-151830109D01*
X76379788Y-151830106D01*
X76379792Y-151830104D01*
X76530104Y-151679792D01*
X76530106Y-151679788D01*
X76530109Y-151679786D01*
X76655048Y-151507820D01*
X76655047Y-151507820D01*
X76655051Y-151507816D01*
X76751557Y-151318412D01*
X76817246Y-151116243D01*
X76850500Y-150906287D01*
X76850500Y-150693713D01*
X76817246Y-150483757D01*
X76751557Y-150281588D01*
X76655051Y-150092184D01*
X76655049Y-150092181D01*
X76655048Y-150092179D01*
X76530109Y-149920213D01*
X76379786Y-149769890D01*
X76207820Y-149644951D01*
X76207115Y-149644591D01*
X76199054Y-149640485D01*
X76148259Y-149592512D01*
X76131463Y-149524692D01*
X76153999Y-149458556D01*
X76199054Y-149419515D01*
X76207816Y-149415051D01*
X76229789Y-149399086D01*
X76379786Y-149290109D01*
X76379788Y-149290106D01*
X76379792Y-149290104D01*
X76530104Y-149139792D01*
X76530106Y-149139788D01*
X76530109Y-149139786D01*
X76655048Y-148967820D01*
X76655047Y-148967820D01*
X76655051Y-148967816D01*
X76751557Y-148778412D01*
X76817246Y-148576243D01*
X76850500Y-148366287D01*
X76850500Y-148153713D01*
X76817246Y-147943757D01*
X76751557Y-147741588D01*
X76655051Y-147552184D01*
X76655049Y-147552181D01*
X76655048Y-147552179D01*
X76530109Y-147380213D01*
X76379786Y-147229890D01*
X76207820Y-147104951D01*
X76207115Y-147104591D01*
X76199054Y-147100485D01*
X76148259Y-147052512D01*
X76131463Y-146984692D01*
X76153999Y-146918556D01*
X76199054Y-146879515D01*
X76207816Y-146875051D01*
X76229789Y-146859086D01*
X76379786Y-146750109D01*
X76379788Y-146750106D01*
X76379792Y-146750104D01*
X76530104Y-146599792D01*
X76530106Y-146599788D01*
X76530109Y-146599786D01*
X76655048Y-146427820D01*
X76655047Y-146427820D01*
X76655051Y-146427816D01*
X76751557Y-146238412D01*
X76817246Y-146036243D01*
X76850500Y-145826287D01*
X76850500Y-145613713D01*
X76817246Y-145403757D01*
X76751557Y-145201588D01*
X76655051Y-145012184D01*
X76655049Y-145012181D01*
X76655048Y-145012179D01*
X76530109Y-144840213D01*
X76379786Y-144689890D01*
X76207820Y-144564951D01*
X76207115Y-144564591D01*
X76199054Y-144560485D01*
X76148259Y-144512512D01*
X76131463Y-144444692D01*
X76153999Y-144378556D01*
X76199054Y-144339515D01*
X76207816Y-144335051D01*
X76229789Y-144319086D01*
X76379786Y-144210109D01*
X76379788Y-144210106D01*
X76379792Y-144210104D01*
X76530104Y-144059792D01*
X76530106Y-144059788D01*
X76530109Y-144059786D01*
X76655048Y-143887820D01*
X76655047Y-143887820D01*
X76655051Y-143887816D01*
X76751557Y-143698412D01*
X76817246Y-143496243D01*
X76850500Y-143286287D01*
X76850500Y-143073713D01*
X76817246Y-142863757D01*
X76751557Y-142661588D01*
X76655051Y-142472184D01*
X76655049Y-142472181D01*
X76655048Y-142472179D01*
X76530109Y-142300213D01*
X76379786Y-142149890D01*
X76207820Y-142024951D01*
X76207115Y-142024591D01*
X76199054Y-142020485D01*
X76148259Y-141972512D01*
X76131463Y-141904692D01*
X76153999Y-141838556D01*
X76199054Y-141799515D01*
X76207816Y-141795051D01*
X76255664Y-141760288D01*
X76379786Y-141670109D01*
X76379788Y-141670106D01*
X76379792Y-141670104D01*
X76530104Y-141519792D01*
X76530106Y-141519788D01*
X76530109Y-141519786D01*
X76588661Y-141439193D01*
X76655051Y-141347816D01*
X76664719Y-141328842D01*
X76675235Y-141308205D01*
X76723209Y-141257409D01*
X76785719Y-141240500D01*
X85773331Y-141240500D01*
X85773347Y-141240501D01*
X85780943Y-141240501D01*
X85939054Y-141240501D01*
X85939057Y-141240501D01*
X86091785Y-141199577D01*
X86141014Y-141171153D01*
X94949500Y-141171153D01*
X94949500Y-141328846D01*
X94980261Y-141483489D01*
X94980264Y-141483501D01*
X95040602Y-141629172D01*
X95040609Y-141629185D01*
X95128210Y-141760288D01*
X95128213Y-141760292D01*
X95239707Y-141871786D01*
X95239711Y-141871789D01*
X95370814Y-141959390D01*
X95370827Y-141959397D01*
X95516498Y-142019735D01*
X95516503Y-142019737D01*
X95581147Y-142032595D01*
X95671849Y-142050638D01*
X95733760Y-142083023D01*
X95735339Y-142084574D01*
X97195139Y-143544374D01*
X97195149Y-143544385D01*
X97199479Y-143548715D01*
X97199480Y-143548716D01*
X97311284Y-143660520D01*
X97378800Y-143699500D01*
X97448215Y-143739577D01*
X97600943Y-143780500D01*
X97759057Y-143780500D01*
X100014281Y-143780500D01*
X100081320Y-143800185D01*
X100124765Y-143848205D01*
X100144947Y-143887814D01*
X100144948Y-143887815D01*
X100269890Y-144059786D01*
X100420213Y-144210109D01*
X100592182Y-144335050D01*
X100600946Y-144339516D01*
X100651742Y-144387491D01*
X100668536Y-144455312D01*
X100645998Y-144521447D01*
X100600946Y-144560484D01*
X100592182Y-144564949D01*
X100420213Y-144689890D01*
X100269890Y-144840213D01*
X100144951Y-145012179D01*
X100048444Y-145201585D01*
X99982753Y-145403760D01*
X99949500Y-145613713D01*
X99949500Y-145826287D01*
X99982754Y-146036243D01*
X100045795Y-146230263D01*
X100048444Y-146238414D01*
X100144951Y-146427820D01*
X100269890Y-146599786D01*
X100420213Y-146750109D01*
X100592182Y-146875050D01*
X100600946Y-146879516D01*
X100651742Y-146927491D01*
X100668536Y-146995312D01*
X100645998Y-147061447D01*
X100600946Y-147100484D01*
X100592182Y-147104949D01*
X100420213Y-147229890D01*
X100269890Y-147380213D01*
X100144951Y-147552179D01*
X100048444Y-147741585D01*
X99982753Y-147943760D01*
X99949500Y-148153713D01*
X99949500Y-148366287D01*
X99982754Y-148576243D01*
X99998396Y-148624385D01*
X100048444Y-148778414D01*
X100144951Y-148967820D01*
X100269890Y-149139786D01*
X100420213Y-149290109D01*
X100592182Y-149415050D01*
X100600946Y-149419516D01*
X100651742Y-149467491D01*
X100668536Y-149535312D01*
X100645998Y-149601447D01*
X100600946Y-149640484D01*
X100592182Y-149644949D01*
X100420213Y-149769890D01*
X100269890Y-149920213D01*
X100144951Y-150092179D01*
X100048444Y-150281585D01*
X99982753Y-150483760D01*
X99950138Y-150689684D01*
X99949500Y-150693713D01*
X99949500Y-150906287D01*
X99982754Y-151116243D01*
X100012329Y-151207266D01*
X100048444Y-151318414D01*
X100144951Y-151507820D01*
X100269890Y-151679786D01*
X100420213Y-151830109D01*
X100592182Y-151955050D01*
X100600946Y-151959516D01*
X100651742Y-152007491D01*
X100668536Y-152075312D01*
X100645998Y-152141447D01*
X100600946Y-152180484D01*
X100592182Y-152184949D01*
X100420213Y-152309890D01*
X100269890Y-152460213D01*
X100144951Y-152632179D01*
X100048444Y-152821585D01*
X99982753Y-153023760D01*
X99965164Y-153134813D01*
X99949500Y-153233713D01*
X99949500Y-153446287D01*
X99982754Y-153656243D01*
X100031740Y-153807007D01*
X100048444Y-153858414D01*
X100144951Y-154047820D01*
X100269890Y-154219786D01*
X100420213Y-154370109D01*
X100592179Y-154495048D01*
X100592181Y-154495049D01*
X100592184Y-154495051D01*
X100781588Y-154591557D01*
X100983757Y-154657246D01*
X101193713Y-154690500D01*
X101193714Y-154690500D01*
X101406286Y-154690500D01*
X101406287Y-154690500D01*
X101616243Y-154657246D01*
X101818412Y-154591557D01*
X102007816Y-154495051D01*
X102053789Y-154461650D01*
X102179786Y-154370109D01*
X102179788Y-154370106D01*
X102179792Y-154370104D01*
X102330104Y-154219792D01*
X102330106Y-154219788D01*
X102330109Y-154219786D01*
X102455048Y-154047820D01*
X102455047Y-154047820D01*
X102455051Y-154047816D01*
X102533550Y-153893753D01*
X108150000Y-153893753D01*
X108150000Y-154106246D01*
X108183242Y-154316127D01*
X108183242Y-154316130D01*
X108248904Y-154518217D01*
X108345375Y-154707550D01*
X108384728Y-154761716D01*
X109017037Y-154129408D01*
X109034075Y-154192993D01*
X109099901Y-154307007D01*
X109192993Y-154400099D01*
X109307007Y-154465925D01*
X109370590Y-154482962D01*
X108738282Y-155115269D01*
X108738282Y-155115270D01*
X108792449Y-155154624D01*
X108981782Y-155251095D01*
X109183870Y-155316757D01*
X109393754Y-155350000D01*
X109606246Y-155350000D01*
X109816127Y-155316757D01*
X109816130Y-155316757D01*
X110018217Y-155251095D01*
X110207554Y-155154622D01*
X110261716Y-155115270D01*
X110261717Y-155115270D01*
X109629408Y-154482962D01*
X109692993Y-154465925D01*
X109807007Y-154400099D01*
X109900099Y-154307007D01*
X109965925Y-154192993D01*
X109982962Y-154129408D01*
X110615270Y-154761717D01*
X110615270Y-154761716D01*
X110654622Y-154707555D01*
X110659232Y-154698507D01*
X110707205Y-154647709D01*
X110775025Y-154630912D01*
X110841161Y-154653447D01*
X110880204Y-154698504D01*
X110884949Y-154707817D01*
X111009890Y-154879786D01*
X111160213Y-155030109D01*
X111332179Y-155155048D01*
X111332181Y-155155049D01*
X111332184Y-155155051D01*
X111521588Y-155251557D01*
X111723757Y-155317246D01*
X111933713Y-155350500D01*
X111933714Y-155350500D01*
X112146286Y-155350500D01*
X112146287Y-155350500D01*
X112356243Y-155317246D01*
X112558412Y-155251557D01*
X112747816Y-155155051D01*
X112817690Y-155104285D01*
X112919786Y-155030109D01*
X112919788Y-155030106D01*
X112919792Y-155030104D01*
X113070104Y-154879792D01*
X113070106Y-154879788D01*
X113070109Y-154879786D01*
X113195048Y-154707820D01*
X113195050Y-154707817D01*
X113195051Y-154707816D01*
X113199514Y-154699054D01*
X113247488Y-154648259D01*
X113315308Y-154631463D01*
X113381444Y-154653999D01*
X113420486Y-154699056D01*
X113424951Y-154707820D01*
X113549890Y-154879786D01*
X113700213Y-155030109D01*
X113872179Y-155155048D01*
X113872181Y-155155049D01*
X113872184Y-155155051D01*
X114061588Y-155251557D01*
X114263757Y-155317246D01*
X114473713Y-155350500D01*
X114473714Y-155350500D01*
X114686286Y-155350500D01*
X114686287Y-155350500D01*
X114896243Y-155317246D01*
X115098412Y-155251557D01*
X115287816Y-155155051D01*
X115357690Y-155104285D01*
X115459786Y-155030109D01*
X115459788Y-155030106D01*
X115459792Y-155030104D01*
X115610104Y-154879792D01*
X115610106Y-154879788D01*
X115610109Y-154879786D01*
X115735048Y-154707820D01*
X115735050Y-154707817D01*
X115735051Y-154707816D01*
X115739514Y-154699054D01*
X115787488Y-154648259D01*
X115855308Y-154631463D01*
X115921444Y-154653999D01*
X115960486Y-154699056D01*
X115964951Y-154707820D01*
X116089890Y-154879786D01*
X116240213Y-155030109D01*
X116412179Y-155155048D01*
X116412181Y-155155049D01*
X116412184Y-155155051D01*
X116601588Y-155251557D01*
X116803757Y-155317246D01*
X117013713Y-155350500D01*
X117013714Y-155350500D01*
X117226286Y-155350500D01*
X117226287Y-155350500D01*
X117436243Y-155317246D01*
X117638412Y-155251557D01*
X117827816Y-155155051D01*
X117897690Y-155104285D01*
X117999786Y-155030109D01*
X117999788Y-155030106D01*
X117999792Y-155030104D01*
X118150104Y-154879792D01*
X118150106Y-154879788D01*
X118150109Y-154879786D01*
X118275048Y-154707820D01*
X118275050Y-154707817D01*
X118275051Y-154707816D01*
X118279514Y-154699054D01*
X118327488Y-154648259D01*
X118395308Y-154631463D01*
X118461444Y-154653999D01*
X118500486Y-154699056D01*
X118504951Y-154707820D01*
X118629890Y-154879786D01*
X118780213Y-155030109D01*
X118952179Y-155155048D01*
X118952181Y-155155049D01*
X118952184Y-155155051D01*
X119141588Y-155251557D01*
X119343757Y-155317246D01*
X119553713Y-155350500D01*
X119553714Y-155350500D01*
X119766286Y-155350500D01*
X119766287Y-155350500D01*
X119976243Y-155317246D01*
X120178412Y-155251557D01*
X120367816Y-155155051D01*
X120539792Y-155030104D01*
X120653329Y-154916566D01*
X120714648Y-154883084D01*
X120784340Y-154888068D01*
X120840274Y-154929939D01*
X120857189Y-154960917D01*
X120906202Y-155092328D01*
X120906206Y-155092335D01*
X120992452Y-155207544D01*
X120992455Y-155207547D01*
X121107664Y-155293793D01*
X121107671Y-155293797D01*
X121242517Y-155344091D01*
X121242516Y-155344091D01*
X121249444Y-155344835D01*
X121302127Y-155350500D01*
X123097872Y-155350499D01*
X123157483Y-155344091D01*
X123292331Y-155293796D01*
X123407546Y-155207546D01*
X123493796Y-155092331D01*
X123544091Y-154957483D01*
X123550500Y-154897873D01*
X123550499Y-153102128D01*
X123544091Y-153042517D01*
X123544091Y-153042516D01*
X123493798Y-152907673D01*
X123493793Y-152907664D01*
X123461994Y-152865186D01*
X133099500Y-152865186D01*
X133099500Y-153134813D01*
X133129686Y-153402719D01*
X133129688Y-153402731D01*
X133189684Y-153665594D01*
X133189687Y-153665602D01*
X133278734Y-153920082D01*
X133395714Y-154162994D01*
X133395716Y-154162997D01*
X133539162Y-154391289D01*
X133625856Y-154500000D01*
X133698868Y-154591555D01*
X133707266Y-154602085D01*
X133897915Y-154792734D01*
X134108711Y-154960838D01*
X134337003Y-155104284D01*
X134579921Y-155221267D01*
X134771049Y-155288145D01*
X134834397Y-155310312D01*
X134834405Y-155310315D01*
X134834408Y-155310315D01*
X134834409Y-155310316D01*
X135097268Y-155370312D01*
X135365187Y-155400499D01*
X135365188Y-155400500D01*
X135365191Y-155400500D01*
X135634812Y-155400500D01*
X135634812Y-155400499D01*
X135902732Y-155370312D01*
X136165591Y-155310316D01*
X136420079Y-155221267D01*
X136662997Y-155104284D01*
X136891289Y-154960838D01*
X137102085Y-154792734D01*
X137292734Y-154602085D01*
X137460838Y-154391289D01*
X137604284Y-154162997D01*
X137721267Y-153920079D01*
X137810316Y-153665591D01*
X137870312Y-153402732D01*
X137900500Y-153134809D01*
X137900500Y-152865191D01*
X137870312Y-152597268D01*
X137810316Y-152334409D01*
X137801736Y-152309890D01*
X137788145Y-152271049D01*
X137721267Y-152079921D01*
X137604284Y-151837003D01*
X137460838Y-151608711D01*
X137292734Y-151397915D01*
X137102085Y-151207266D01*
X136891289Y-151039162D01*
X136662997Y-150895716D01*
X136662994Y-150895714D01*
X136420082Y-150778734D01*
X136165602Y-150689687D01*
X136165594Y-150689684D01*
X135968446Y-150644687D01*
X135902732Y-150629688D01*
X135902728Y-150629687D01*
X135902719Y-150629686D01*
X135634813Y-150599500D01*
X135634809Y-150599500D01*
X135365191Y-150599500D01*
X135365186Y-150599500D01*
X135097280Y-150629686D01*
X135097268Y-150629688D01*
X134834405Y-150689684D01*
X134834397Y-150689687D01*
X134579917Y-150778734D01*
X134337005Y-150895714D01*
X134108712Y-151039161D01*
X133897915Y-151207265D01*
X133707265Y-151397915D01*
X133539161Y-151608712D01*
X133395714Y-151837005D01*
X133278734Y-152079917D01*
X133189687Y-152334397D01*
X133189684Y-152334405D01*
X133129688Y-152597268D01*
X133129686Y-152597280D01*
X133099500Y-152865186D01*
X123461994Y-152865186D01*
X123407547Y-152792455D01*
X123407544Y-152792452D01*
X123292335Y-152706206D01*
X123292328Y-152706202D01*
X123157482Y-152655908D01*
X123157483Y-152655908D01*
X123097883Y-152649501D01*
X123097881Y-152649500D01*
X123097873Y-152649500D01*
X123097864Y-152649500D01*
X121302129Y-152649500D01*
X121302123Y-152649501D01*
X121242516Y-152655908D01*
X121107671Y-152706202D01*
X121107664Y-152706206D01*
X120992455Y-152792452D01*
X120992452Y-152792455D01*
X120906206Y-152907664D01*
X120906203Y-152907669D01*
X120857189Y-153039083D01*
X120815317Y-153095016D01*
X120749853Y-153119433D01*
X120681580Y-153104581D01*
X120653326Y-153083430D01*
X120539786Y-152969890D01*
X120367820Y-152844951D01*
X120178414Y-152748444D01*
X120178413Y-152748443D01*
X120178412Y-152748443D01*
X119976243Y-152682754D01*
X119976241Y-152682753D01*
X119976240Y-152682753D01*
X119814957Y-152657208D01*
X119766287Y-152649500D01*
X119553713Y-152649500D01*
X119505042Y-152657208D01*
X119343760Y-152682753D01*
X119141585Y-152748444D01*
X118952179Y-152844951D01*
X118780213Y-152969890D01*
X118629890Y-153120213D01*
X118504949Y-153292182D01*
X118500484Y-153300946D01*
X118452509Y-153351742D01*
X118384688Y-153368536D01*
X118318553Y-153345998D01*
X118279516Y-153300946D01*
X118275050Y-153292182D01*
X118150109Y-153120213D01*
X117999786Y-152969890D01*
X117827820Y-152844951D01*
X117638414Y-152748444D01*
X117638413Y-152748443D01*
X117638412Y-152748443D01*
X117436243Y-152682754D01*
X117436241Y-152682753D01*
X117436240Y-152682753D01*
X117274957Y-152657208D01*
X117226287Y-152649500D01*
X117013713Y-152649500D01*
X116965042Y-152657208D01*
X116803760Y-152682753D01*
X116601585Y-152748444D01*
X116412179Y-152844951D01*
X116240213Y-152969890D01*
X116089890Y-153120213D01*
X115964949Y-153292182D01*
X115960484Y-153300946D01*
X115912509Y-153351742D01*
X115844688Y-153368536D01*
X115778553Y-153345998D01*
X115739516Y-153300946D01*
X115735050Y-153292182D01*
X115610109Y-153120213D01*
X115459786Y-152969890D01*
X115287820Y-152844951D01*
X115098414Y-152748444D01*
X115098413Y-152748443D01*
X115098412Y-152748443D01*
X114896243Y-152682754D01*
X114896241Y-152682753D01*
X114896240Y-152682753D01*
X114734957Y-152657208D01*
X114686287Y-152649500D01*
X114473713Y-152649500D01*
X114425042Y-152657208D01*
X114263760Y-152682753D01*
X114061585Y-152748444D01*
X113872179Y-152844951D01*
X113700213Y-152969890D01*
X113549890Y-153120213D01*
X113424949Y-153292182D01*
X113420484Y-153300946D01*
X113372509Y-153351742D01*
X113304688Y-153368536D01*
X113238553Y-153345998D01*
X113199516Y-153300946D01*
X113195050Y-153292182D01*
X113070109Y-153120213D01*
X112919786Y-152969890D01*
X112747820Y-152844951D01*
X112558414Y-152748444D01*
X112558413Y-152748443D01*
X112558412Y-152748443D01*
X112356243Y-152682754D01*
X112356241Y-152682753D01*
X112356240Y-152682753D01*
X112194957Y-152657208D01*
X112146287Y-152649500D01*
X111933713Y-152649500D01*
X111885042Y-152657208D01*
X111723760Y-152682753D01*
X111521585Y-152748444D01*
X111332179Y-152844951D01*
X111160213Y-152969890D01*
X111009890Y-153120213D01*
X110884949Y-153292182D01*
X110880202Y-153301499D01*
X110832227Y-153352293D01*
X110764405Y-153369087D01*
X110698271Y-153346548D01*
X110659234Y-153301495D01*
X110654626Y-153292452D01*
X110615270Y-153238282D01*
X110615269Y-153238282D01*
X109982962Y-153870590D01*
X109965925Y-153807007D01*
X109900099Y-153692993D01*
X109807007Y-153599901D01*
X109692993Y-153534075D01*
X109629409Y-153517037D01*
X110261716Y-152884728D01*
X110207550Y-152845375D01*
X110018217Y-152748904D01*
X109816129Y-152683242D01*
X109606246Y-152650000D01*
X109393754Y-152650000D01*
X109183872Y-152683242D01*
X109183869Y-152683242D01*
X108981782Y-152748904D01*
X108792439Y-152845380D01*
X108738282Y-152884727D01*
X108738282Y-152884728D01*
X109370591Y-153517037D01*
X109307007Y-153534075D01*
X109192993Y-153599901D01*
X109099901Y-153692993D01*
X109034075Y-153807007D01*
X109017037Y-153870591D01*
X108384728Y-153238282D01*
X108384727Y-153238282D01*
X108345380Y-153292439D01*
X108248904Y-153481782D01*
X108183242Y-153683869D01*
X108183242Y-153683872D01*
X108150000Y-153893753D01*
X102533550Y-153893753D01*
X102551557Y-153858412D01*
X102617246Y-153656243D01*
X102650500Y-153446287D01*
X102650500Y-153233713D01*
X102617246Y-153023757D01*
X102551557Y-152821588D01*
X102455051Y-152632184D01*
X102455049Y-152632181D01*
X102455048Y-152632179D01*
X102330109Y-152460213D01*
X102179786Y-152309890D01*
X102007820Y-152184951D01*
X102007115Y-152184591D01*
X101999054Y-152180485D01*
X101948259Y-152132512D01*
X101931463Y-152064692D01*
X101953999Y-151998556D01*
X101999054Y-151959515D01*
X102007816Y-151955051D01*
X102170294Y-151837005D01*
X102179786Y-151830109D01*
X102179788Y-151830106D01*
X102179792Y-151830104D01*
X102330104Y-151679792D01*
X102330106Y-151679788D01*
X102330109Y-151679786D01*
X102455048Y-151507820D01*
X102455047Y-151507820D01*
X102455051Y-151507816D01*
X102551557Y-151318412D01*
X102617246Y-151116243D01*
X102650500Y-150906287D01*
X102650500Y-150693713D01*
X102617246Y-150483757D01*
X102551557Y-150281588D01*
X102455051Y-150092184D01*
X102455049Y-150092181D01*
X102455048Y-150092179D01*
X102330109Y-149920213D01*
X102179786Y-149769890D01*
X102007820Y-149644951D01*
X102007115Y-149644591D01*
X101999054Y-149640485D01*
X101948259Y-149592512D01*
X101931463Y-149524692D01*
X101953999Y-149458556D01*
X101999054Y-149419515D01*
X102007816Y-149415051D01*
X102029789Y-149399086D01*
X102179786Y-149290109D01*
X102179788Y-149290106D01*
X102179792Y-149290104D01*
X102330104Y-149139792D01*
X102330106Y-149139788D01*
X102330109Y-149139786D01*
X102455048Y-148967820D01*
X102455047Y-148967820D01*
X102455051Y-148967816D01*
X102551557Y-148778412D01*
X102617246Y-148576243D01*
X102650500Y-148366287D01*
X102650500Y-148153713D01*
X102617246Y-147943757D01*
X102551557Y-147741588D01*
X102455051Y-147552184D01*
X102455049Y-147552181D01*
X102455048Y-147552179D01*
X102330109Y-147380213D01*
X102179786Y-147229890D01*
X102007820Y-147104951D01*
X102007115Y-147104591D01*
X101999054Y-147100485D01*
X101948259Y-147052512D01*
X101931463Y-146984692D01*
X101953999Y-146918556D01*
X101999054Y-146879515D01*
X102007816Y-146875051D01*
X102029789Y-146859086D01*
X102179786Y-146750109D01*
X102179788Y-146750106D01*
X102179792Y-146750104D01*
X102330104Y-146599792D01*
X102330106Y-146599788D01*
X102330109Y-146599786D01*
X102455048Y-146427820D01*
X102455047Y-146427820D01*
X102455051Y-146427816D01*
X102551557Y-146238412D01*
X102617246Y-146036243D01*
X102650500Y-145826287D01*
X102650500Y-145613713D01*
X102617246Y-145403757D01*
X102551557Y-145201588D01*
X102455051Y-145012184D01*
X102455049Y-145012181D01*
X102455048Y-145012179D01*
X102330109Y-144840213D01*
X102179786Y-144689890D01*
X102007820Y-144564951D01*
X102007115Y-144564591D01*
X101999054Y-144560485D01*
X101948259Y-144512512D01*
X101931463Y-144444692D01*
X101953999Y-144378556D01*
X101999054Y-144339515D01*
X102007816Y-144335051D01*
X102029789Y-144319086D01*
X102179786Y-144210109D01*
X102179788Y-144210106D01*
X102179792Y-144210104D01*
X102330104Y-144059792D01*
X102330106Y-144059788D01*
X102330109Y-144059786D01*
X102455048Y-143887820D01*
X102455047Y-143887820D01*
X102455051Y-143887816D01*
X102551557Y-143698412D01*
X102617246Y-143496243D01*
X102650500Y-143286287D01*
X102650500Y-143073713D01*
X102617246Y-142863757D01*
X102551557Y-142661588D01*
X102455051Y-142472184D01*
X102455049Y-142472181D01*
X102455048Y-142472179D01*
X102330109Y-142300213D01*
X102179786Y-142149890D01*
X102007820Y-142024951D01*
X102007115Y-142024591D01*
X101999054Y-142020485D01*
X101948259Y-141972512D01*
X101931463Y-141904692D01*
X101953999Y-141838556D01*
X101999054Y-141799515D01*
X102007816Y-141795051D01*
X102055664Y-141760288D01*
X102179786Y-141670109D01*
X102179788Y-141670106D01*
X102179792Y-141670104D01*
X102330104Y-141519792D01*
X102330106Y-141519788D01*
X102330109Y-141519786D01*
X102455048Y-141347820D01*
X102455047Y-141347820D01*
X102455051Y-141347816D01*
X102551557Y-141158412D01*
X102617246Y-140956243D01*
X102650500Y-140746287D01*
X102650500Y-140533713D01*
X102617246Y-140323757D01*
X102551557Y-140121588D01*
X102455051Y-139932184D01*
X102455049Y-139932181D01*
X102455048Y-139932179D01*
X102330109Y-139760213D01*
X102179786Y-139609890D01*
X102007820Y-139484951D01*
X102007115Y-139484591D01*
X101999054Y-139480485D01*
X101948259Y-139432512D01*
X101931463Y-139364692D01*
X101953999Y-139298556D01*
X101999054Y-139259515D01*
X102007816Y-139255051D01*
X102084276Y-139199500D01*
X102179786Y-139130109D01*
X102179788Y-139130106D01*
X102179792Y-139130104D01*
X102330104Y-138979792D01*
X102330106Y-138979788D01*
X102330109Y-138979786D01*
X102455048Y-138807820D01*
X102455047Y-138807820D01*
X102455051Y-138807816D01*
X102551557Y-138618412D01*
X102617246Y-138416243D01*
X102650500Y-138206287D01*
X102650500Y-137993713D01*
X102617246Y-137783757D01*
X102551557Y-137581588D01*
X102455051Y-137392184D01*
X102455049Y-137392181D01*
X102455048Y-137392179D01*
X102330109Y-137220213D01*
X102179786Y-137069890D01*
X102007820Y-136944951D01*
X102007115Y-136944591D01*
X101999054Y-136940485D01*
X101948259Y-136892512D01*
X101931463Y-136824692D01*
X101953999Y-136758556D01*
X101999054Y-136719515D01*
X102007816Y-136715051D01*
X102029789Y-136699086D01*
X102179786Y-136590109D01*
X102179788Y-136590106D01*
X102179792Y-136590104D01*
X102330104Y-136439792D01*
X102330106Y-136439788D01*
X102330109Y-136439786D01*
X102455048Y-136267820D01*
X102455047Y-136267820D01*
X102455051Y-136267816D01*
X102551557Y-136078412D01*
X102617246Y-135876243D01*
X102650500Y-135666287D01*
X102650500Y-135453713D01*
X102617246Y-135243757D01*
X102551557Y-135041588D01*
X102455051Y-134852184D01*
X102455049Y-134852181D01*
X102455048Y-134852179D01*
X102330109Y-134680213D01*
X102179786Y-134529890D01*
X102007820Y-134404951D01*
X102007115Y-134404591D01*
X101999054Y-134400485D01*
X101948259Y-134352512D01*
X101931463Y-134284692D01*
X101953999Y-134218556D01*
X101999054Y-134179515D01*
X102007816Y-134175051D01*
X102029789Y-134159086D01*
X102179786Y-134050109D01*
X102179788Y-134050106D01*
X102179792Y-134050104D01*
X102330104Y-133899792D01*
X102330106Y-133899788D01*
X102330109Y-133899786D01*
X102455048Y-133727820D01*
X102455047Y-133727820D01*
X102455051Y-133727816D01*
X102551557Y-133538412D01*
X102617246Y-133336243D01*
X102650500Y-133126287D01*
X102650500Y-132913713D01*
X102617246Y-132703757D01*
X102551557Y-132501588D01*
X102455051Y-132312184D01*
X102455049Y-132312181D01*
X102455048Y-132312179D01*
X102330109Y-132140213D01*
X102179786Y-131989890D01*
X102007820Y-131864951D01*
X102007115Y-131864591D01*
X101999054Y-131860485D01*
X101948259Y-131812512D01*
X101931463Y-131744692D01*
X101953999Y-131678556D01*
X101999054Y-131639515D01*
X102007816Y-131635051D01*
X102029789Y-131619086D01*
X102179786Y-131510109D01*
X102179788Y-131510106D01*
X102179792Y-131510104D01*
X102330104Y-131359792D01*
X102330106Y-131359788D01*
X102330109Y-131359786D01*
X102455048Y-131187820D01*
X102455047Y-131187820D01*
X102455051Y-131187816D01*
X102551557Y-130998412D01*
X102617246Y-130796243D01*
X102650500Y-130586287D01*
X102650500Y-130373713D01*
X102617246Y-130163757D01*
X102551557Y-129961588D01*
X102455051Y-129772184D01*
X102455049Y-129772181D01*
X102455048Y-129772179D01*
X102330109Y-129600213D01*
X102179786Y-129449890D01*
X102007820Y-129324951D01*
X102007115Y-129324591D01*
X101999054Y-129320485D01*
X101948259Y-129272512D01*
X101931463Y-129204692D01*
X101953999Y-129138556D01*
X101999054Y-129099515D01*
X102007816Y-129095051D01*
X102029789Y-129079086D01*
X102179786Y-128970109D01*
X102179788Y-128970106D01*
X102179792Y-128970104D01*
X102330104Y-128819792D01*
X102330106Y-128819788D01*
X102330109Y-128819786D01*
X102455048Y-128647820D01*
X102455047Y-128647820D01*
X102455051Y-128647816D01*
X102551557Y-128458412D01*
X102617246Y-128256243D01*
X102650500Y-128046287D01*
X102650500Y-127833713D01*
X102617246Y-127623757D01*
X102551557Y-127421588D01*
X102455051Y-127232184D01*
X102455049Y-127232181D01*
X102455048Y-127232179D01*
X102330109Y-127060213D01*
X102179786Y-126909890D01*
X102007820Y-126784951D01*
X102007115Y-126784591D01*
X101999054Y-126780485D01*
X101948259Y-126732512D01*
X101931463Y-126664692D01*
X101953999Y-126598556D01*
X101999054Y-126559515D01*
X102007816Y-126555051D01*
X102029789Y-126539086D01*
X102179786Y-126430109D01*
X102179788Y-126430106D01*
X102179792Y-126430104D01*
X102330104Y-126279792D01*
X102330106Y-126279788D01*
X102330109Y-126279786D01*
X102455048Y-126107820D01*
X102455047Y-126107820D01*
X102455051Y-126107816D01*
X102551557Y-125918412D01*
X102617246Y-125716243D01*
X102650500Y-125506287D01*
X102650500Y-125293713D01*
X102617246Y-125083757D01*
X102551557Y-124881588D01*
X102455051Y-124692184D01*
X102455049Y-124692181D01*
X102455048Y-124692179D01*
X102330109Y-124520213D01*
X102179786Y-124369890D01*
X102007820Y-124244951D01*
X102001608Y-124241786D01*
X101999054Y-124240485D01*
X101948259Y-124192512D01*
X101931463Y-124124692D01*
X101953999Y-124058556D01*
X101999054Y-124019515D01*
X102007816Y-124015051D01*
X102055346Y-123980519D01*
X102179786Y-123890109D01*
X102179788Y-123890106D01*
X102179792Y-123890104D01*
X102330104Y-123739792D01*
X102330106Y-123739788D01*
X102330109Y-123739786D01*
X102388661Y-123659193D01*
X102455051Y-123567816D01*
X102455349Y-123567230D01*
X102475235Y-123528205D01*
X102523209Y-123477409D01*
X102585719Y-123460500D01*
X114559903Y-123460500D01*
X114626942Y-123480185D01*
X114647584Y-123496819D01*
X118165425Y-127014660D01*
X118198910Y-127075983D01*
X118199361Y-127078149D01*
X118230261Y-127233491D01*
X118230264Y-127233501D01*
X118290602Y-127379172D01*
X118290609Y-127379185D01*
X118378210Y-127510288D01*
X118378213Y-127510292D01*
X118489707Y-127621786D01*
X118489711Y-127621789D01*
X118620814Y-127709390D01*
X118620827Y-127709397D01*
X118766498Y-127769735D01*
X118766503Y-127769737D01*
X118921153Y-127800499D01*
X118921156Y-127800500D01*
X118921158Y-127800500D01*
X119078844Y-127800500D01*
X119078845Y-127800499D01*
X119233497Y-127769737D01*
X119379179Y-127709394D01*
X119510289Y-127621789D01*
X119621789Y-127510289D01*
X119709394Y-127379179D01*
X119769737Y-127233497D01*
X119800500Y-127078842D01*
X119800500Y-126921158D01*
X119800500Y-126921155D01*
X119800499Y-126921153D01*
X119792276Y-126879815D01*
X119769737Y-126766503D01*
X119731965Y-126675312D01*
X119709397Y-126620827D01*
X119709390Y-126620814D01*
X119621789Y-126489711D01*
X119621786Y-126489707D01*
X119510292Y-126378213D01*
X119510288Y-126378210D01*
X119379185Y-126290609D01*
X119379172Y-126290602D01*
X119233501Y-126230264D01*
X119233491Y-126230261D01*
X119078149Y-126199361D01*
X119016238Y-126166976D01*
X119014660Y-126165425D01*
X117403740Y-124554505D01*
X117370255Y-124493182D01*
X117375239Y-124423490D01*
X117417111Y-124367557D01*
X117443969Y-124352263D01*
X117499172Y-124329397D01*
X117499172Y-124329396D01*
X117499179Y-124329394D01*
X117630289Y-124241789D01*
X117741789Y-124130289D01*
X117829394Y-123999179D01*
X117889737Y-123853497D01*
X117920500Y-123698842D01*
X117920500Y-123541158D01*
X117920500Y-123541155D01*
X117920499Y-123541153D01*
X117908738Y-123482026D01*
X117889737Y-123386503D01*
X117889735Y-123386498D01*
X117829397Y-123240827D01*
X117829390Y-123240814D01*
X117741398Y-123109125D01*
X117720520Y-123042447D01*
X117720500Y-123040234D01*
X117720500Y-122540945D01*
X117720500Y-122540943D01*
X117679577Y-122388216D01*
X117679577Y-122388215D01*
X117679577Y-122388214D01*
X117650639Y-122338095D01*
X117650637Y-122338092D01*
X117628934Y-122300500D01*
X117600520Y-122251284D01*
X117488716Y-122139480D01*
X117488715Y-122139479D01*
X117484385Y-122135149D01*
X117484374Y-122135139D01*
X115307590Y-119958355D01*
X115307588Y-119958352D01*
X115188717Y-119839481D01*
X115188716Y-119839480D01*
X115101904Y-119789360D01*
X115101904Y-119789359D01*
X115101900Y-119789358D01*
X115051785Y-119760423D01*
X114899057Y-119719499D01*
X114740943Y-119719499D01*
X114733347Y-119719499D01*
X114733331Y-119719500D01*
X102585719Y-119719500D01*
X102518680Y-119699815D01*
X102475235Y-119651795D01*
X102455052Y-119612185D01*
X102455051Y-119612184D01*
X102330109Y-119440213D01*
X102179786Y-119289890D01*
X102007820Y-119164951D01*
X102007115Y-119164591D01*
X101999054Y-119160485D01*
X101948259Y-119112512D01*
X101931463Y-119044692D01*
X101953999Y-118978556D01*
X101999054Y-118939515D01*
X102007816Y-118935051D01*
X102045511Y-118907664D01*
X102179786Y-118810109D01*
X102179788Y-118810106D01*
X102179792Y-118810104D01*
X102330104Y-118659792D01*
X102330106Y-118659788D01*
X102330109Y-118659786D01*
X102410791Y-118548735D01*
X102455051Y-118487816D01*
X102455349Y-118487230D01*
X102475235Y-118448205D01*
X102523209Y-118397409D01*
X102585719Y-118380500D01*
X110979903Y-118380500D01*
X111046942Y-118400185D01*
X111067584Y-118416819D01*
X111165425Y-118514660D01*
X111198910Y-118575983D01*
X111199361Y-118578149D01*
X111230261Y-118733491D01*
X111230264Y-118733501D01*
X111290602Y-118879172D01*
X111290609Y-118879185D01*
X111378210Y-119010288D01*
X111378213Y-119010292D01*
X111489707Y-119121786D01*
X111489711Y-119121789D01*
X111620814Y-119209390D01*
X111620827Y-119209397D01*
X111766498Y-119269735D01*
X111766503Y-119269737D01*
X111921153Y-119300499D01*
X111921156Y-119300500D01*
X111921158Y-119300500D01*
X112078844Y-119300500D01*
X112078845Y-119300499D01*
X112233497Y-119269737D01*
X112379179Y-119209394D01*
X112510289Y-119121789D01*
X112621789Y-119010289D01*
X112709394Y-118879179D01*
X112769737Y-118733497D01*
X112800500Y-118578842D01*
X112800500Y-118421158D01*
X112800500Y-118421155D01*
X112800499Y-118421153D01*
X112792413Y-118380501D01*
X112769737Y-118266503D01*
X112767258Y-118260518D01*
X112709397Y-118120827D01*
X112709390Y-118120814D01*
X112621789Y-117989711D01*
X112621786Y-117989707D01*
X112510292Y-117878213D01*
X112510288Y-117878210D01*
X112379185Y-117790609D01*
X112379172Y-117790602D01*
X112233501Y-117730264D01*
X112233491Y-117730261D01*
X112078149Y-117699361D01*
X112016238Y-117666976D01*
X112014660Y-117665425D01*
X111767590Y-117418355D01*
X111767588Y-117418352D01*
X111648717Y-117299481D01*
X111648716Y-117299480D01*
X111561904Y-117249360D01*
X111561904Y-117249359D01*
X111561900Y-117249358D01*
X111511785Y-117220423D01*
X111359057Y-117179499D01*
X111200943Y-117179499D01*
X111193347Y-117179499D01*
X111193331Y-117179500D01*
X102585719Y-117179500D01*
X102518680Y-117159815D01*
X102475235Y-117111795D01*
X102455052Y-117072185D01*
X102455051Y-117072184D01*
X102330109Y-116900213D01*
X102179786Y-116749890D01*
X102007820Y-116624951D01*
X102007115Y-116624591D01*
X101999054Y-116620485D01*
X101948259Y-116572512D01*
X101931463Y-116504692D01*
X101953999Y-116438556D01*
X101999054Y-116399515D01*
X102007816Y-116395051D01*
X102029789Y-116379086D01*
X102179786Y-116270109D01*
X102179788Y-116270106D01*
X102179792Y-116270104D01*
X102330104Y-116119792D01*
X102330106Y-116119788D01*
X102330109Y-116119786D01*
X102388661Y-116039193D01*
X102455051Y-115947816D01*
X102455349Y-115947230D01*
X102475235Y-115908205D01*
X102523209Y-115857409D01*
X102585719Y-115840500D01*
X117939903Y-115840500D01*
X118006942Y-115860185D01*
X118027584Y-115876819D01*
X118665425Y-116514660D01*
X118698910Y-116575983D01*
X118699361Y-116578149D01*
X118730261Y-116733491D01*
X118730264Y-116733501D01*
X118790602Y-116879172D01*
X118790609Y-116879185D01*
X118878210Y-117010288D01*
X118878213Y-117010292D01*
X118989707Y-117121786D01*
X118989711Y-117121789D01*
X119120814Y-117209390D01*
X119120827Y-117209397D01*
X119217308Y-117249360D01*
X119266503Y-117269737D01*
X119416025Y-117299479D01*
X119421153Y-117300499D01*
X119421156Y-117300500D01*
X119421158Y-117300500D01*
X119578844Y-117300500D01*
X119578845Y-117300499D01*
X119733497Y-117269737D01*
X119879179Y-117209394D01*
X120010289Y-117121789D01*
X120121789Y-117010289D01*
X120209394Y-116879179D01*
X120269737Y-116733497D01*
X120300500Y-116578842D01*
X120300500Y-116421158D01*
X120300500Y-116421155D01*
X120300499Y-116421153D01*
X120269738Y-116266510D01*
X120269737Y-116266503D01*
X120269735Y-116266498D01*
X120209397Y-116120827D01*
X120209390Y-116120814D01*
X120121789Y-115989711D01*
X120121786Y-115989707D01*
X120010292Y-115878213D01*
X120010288Y-115878210D01*
X119879185Y-115790609D01*
X119879172Y-115790602D01*
X119733501Y-115730264D01*
X119733491Y-115730261D01*
X119578149Y-115699361D01*
X119516238Y-115666976D01*
X119514660Y-115665425D01*
X118727590Y-114878355D01*
X118727588Y-114878352D01*
X118608717Y-114759481D01*
X118608716Y-114759480D01*
X118521904Y-114709360D01*
X118521904Y-114709359D01*
X118521900Y-114709358D01*
X118471785Y-114680423D01*
X118319057Y-114639499D01*
X118160943Y-114639499D01*
X118153347Y-114639499D01*
X118153331Y-114639500D01*
X102585719Y-114639500D01*
X102518680Y-114619815D01*
X102475235Y-114571795D01*
X102455052Y-114532185D01*
X102455051Y-114532184D01*
X102330109Y-114360213D01*
X102179786Y-114209890D01*
X102007820Y-114084951D01*
X102007115Y-114084591D01*
X101999054Y-114080485D01*
X101948259Y-114032512D01*
X101931463Y-113964692D01*
X101953999Y-113898556D01*
X101999054Y-113859515D01*
X102007816Y-113855051D01*
X102029789Y-113839086D01*
X102179786Y-113730109D01*
X102179788Y-113730106D01*
X102179792Y-113730104D01*
X102330104Y-113579792D01*
X102330106Y-113579788D01*
X102330109Y-113579786D01*
X102455048Y-113407820D01*
X102455047Y-113407820D01*
X102455051Y-113407816D01*
X102551557Y-113218412D01*
X102617246Y-113016243D01*
X102650500Y-112806287D01*
X102650500Y-112593713D01*
X102617246Y-112383757D01*
X102551557Y-112181588D01*
X102455051Y-111992184D01*
X102455049Y-111992181D01*
X102455048Y-111992179D01*
X102330109Y-111820213D01*
X102179786Y-111669890D01*
X102007820Y-111544951D01*
X102007115Y-111544591D01*
X101999054Y-111540485D01*
X101948259Y-111492512D01*
X101931463Y-111424692D01*
X101953999Y-111358556D01*
X101999054Y-111319515D01*
X102007816Y-111315051D01*
X102041467Y-111290602D01*
X102179786Y-111190109D01*
X102179788Y-111190106D01*
X102179792Y-111190104D01*
X102330104Y-111039792D01*
X102330106Y-111039788D01*
X102330109Y-111039786D01*
X102388661Y-110959193D01*
X102455051Y-110867816D01*
X102455349Y-110867230D01*
X102475235Y-110828205D01*
X102523209Y-110777409D01*
X102585719Y-110760500D01*
X110253331Y-110760500D01*
X110253347Y-110760501D01*
X110260943Y-110760501D01*
X110419054Y-110760501D01*
X110419057Y-110760501D01*
X110571785Y-110719577D01*
X110621904Y-110690639D01*
X110708716Y-110640520D01*
X110820520Y-110528716D01*
X110820520Y-110528714D01*
X110830728Y-110518507D01*
X110830729Y-110518504D01*
X111014661Y-110334572D01*
X111075983Y-110301089D01*
X111078150Y-110300638D01*
X111136085Y-110289113D01*
X111233497Y-110269737D01*
X111379179Y-110209394D01*
X111510289Y-110121789D01*
X111621789Y-110010289D01*
X111709394Y-109879179D01*
X111769737Y-109733497D01*
X111800500Y-109578842D01*
X111800500Y-109421158D01*
X111800500Y-109421155D01*
X111800499Y-109421153D01*
X111769738Y-109266510D01*
X111769738Y-109266508D01*
X111769737Y-109266503D01*
X111713153Y-109129896D01*
X111709397Y-109120827D01*
X111709390Y-109120814D01*
X111621789Y-108989711D01*
X111621786Y-108989707D01*
X111510292Y-108878213D01*
X111510288Y-108878210D01*
X111379185Y-108790609D01*
X111379172Y-108790602D01*
X111233501Y-108730264D01*
X111233489Y-108730261D01*
X111078845Y-108699500D01*
X111078842Y-108699500D01*
X110921158Y-108699500D01*
X110921155Y-108699500D01*
X110766510Y-108730261D01*
X110766498Y-108730264D01*
X110620827Y-108790602D01*
X110620814Y-108790609D01*
X110489711Y-108878210D01*
X110489707Y-108878213D01*
X110378213Y-108989707D01*
X110378210Y-108989711D01*
X110290609Y-109120814D01*
X110290602Y-109120827D01*
X110230264Y-109266498D01*
X110230261Y-109266508D01*
X110199361Y-109421850D01*
X110166976Y-109483761D01*
X110165426Y-109485338D01*
X110127585Y-109523180D01*
X110066263Y-109556666D01*
X110039903Y-109559500D01*
X102585719Y-109559500D01*
X102518680Y-109539815D01*
X102475235Y-109491795D01*
X102455052Y-109452185D01*
X102455051Y-109452184D01*
X102330109Y-109280213D01*
X102179786Y-109129890D01*
X102007820Y-109004951D01*
X102007115Y-109004591D01*
X101999054Y-109000485D01*
X101948259Y-108952512D01*
X101931463Y-108884692D01*
X101953999Y-108818556D01*
X101999054Y-108779515D01*
X102007816Y-108775051D01*
X102029789Y-108759086D01*
X102179786Y-108650109D01*
X102179788Y-108650106D01*
X102179792Y-108650104D01*
X102330104Y-108499792D01*
X102330106Y-108499788D01*
X102330109Y-108499786D01*
X102388661Y-108419193D01*
X102455051Y-108327816D01*
X102455349Y-108327230D01*
X102475235Y-108288205D01*
X102523209Y-108237409D01*
X102585719Y-108220500D01*
X110293331Y-108220500D01*
X110293347Y-108220501D01*
X110300943Y-108220501D01*
X110459054Y-108220501D01*
X110459057Y-108220501D01*
X110611785Y-108179577D01*
X110661904Y-108150639D01*
X110748716Y-108100520D01*
X110860520Y-107988716D01*
X110860521Y-107988713D01*
X111014664Y-107834570D01*
X111075983Y-107801089D01*
X111078150Y-107800638D01*
X111136085Y-107789113D01*
X111233497Y-107769737D01*
X111379179Y-107709394D01*
X111510289Y-107621789D01*
X111621789Y-107510289D01*
X111709394Y-107379179D01*
X111769737Y-107233497D01*
X111800500Y-107078842D01*
X111800500Y-106921158D01*
X111800500Y-106921155D01*
X111800499Y-106921153D01*
X111769738Y-106766510D01*
X111769738Y-106766508D01*
X111769737Y-106766503D01*
X111769735Y-106766498D01*
X111709397Y-106620827D01*
X111709390Y-106620814D01*
X111621789Y-106489711D01*
X111621786Y-106489707D01*
X111510292Y-106378213D01*
X111510288Y-106378210D01*
X111379185Y-106290609D01*
X111379172Y-106290602D01*
X111233501Y-106230264D01*
X111233489Y-106230261D01*
X111078845Y-106199500D01*
X111078842Y-106199500D01*
X110921158Y-106199500D01*
X110921155Y-106199500D01*
X110766510Y-106230261D01*
X110766498Y-106230264D01*
X110620827Y-106290602D01*
X110620814Y-106290609D01*
X110489711Y-106378210D01*
X110489707Y-106378213D01*
X110378213Y-106489707D01*
X110378210Y-106489711D01*
X110290609Y-106620814D01*
X110290602Y-106620827D01*
X110230264Y-106766498D01*
X110230261Y-106766508D01*
X110199791Y-106919692D01*
X110167406Y-106981603D01*
X110106690Y-107016177D01*
X110078174Y-107019500D01*
X102585719Y-107019500D01*
X102518680Y-106999815D01*
X102475235Y-106951795D01*
X102455052Y-106912185D01*
X102455051Y-106912184D01*
X102330109Y-106740213D01*
X102179786Y-106589890D01*
X102007820Y-106464951D01*
X102007115Y-106464591D01*
X101999054Y-106460485D01*
X101948259Y-106412512D01*
X101931463Y-106344692D01*
X101953999Y-106278556D01*
X101999054Y-106239515D01*
X102007816Y-106235051D01*
X102056748Y-106199500D01*
X102179786Y-106110109D01*
X102179788Y-106110106D01*
X102179792Y-106110104D01*
X102330104Y-105959792D01*
X102330106Y-105959788D01*
X102330109Y-105959786D01*
X102455048Y-105787820D01*
X102455047Y-105787820D01*
X102455051Y-105787816D01*
X102551557Y-105598412D01*
X102617246Y-105396243D01*
X102650500Y-105186287D01*
X102650500Y-104973713D01*
X102617246Y-104763757D01*
X102551557Y-104561588D01*
X102455051Y-104372184D01*
X102455049Y-104372181D01*
X102455048Y-104372179D01*
X102330109Y-104200213D01*
X102179786Y-104049890D01*
X102007820Y-103924951D01*
X102007115Y-103924591D01*
X101999054Y-103920485D01*
X101948259Y-103872512D01*
X101931463Y-103804692D01*
X101953999Y-103738556D01*
X101999054Y-103699515D01*
X102007816Y-103695051D01*
X102166458Y-103579792D01*
X102179786Y-103570109D01*
X102179788Y-103570106D01*
X102179792Y-103570104D01*
X102330104Y-103419792D01*
X102330106Y-103419788D01*
X102330109Y-103419786D01*
X102455048Y-103247820D01*
X102455047Y-103247820D01*
X102455051Y-103247816D01*
X102551557Y-103058412D01*
X102617246Y-102856243D01*
X102650500Y-102646287D01*
X102650500Y-102433713D01*
X102617246Y-102223757D01*
X102551557Y-102021588D01*
X102455051Y-101832184D01*
X102455049Y-101832181D01*
X102455048Y-101832179D01*
X102330109Y-101660213D01*
X102216181Y-101546285D01*
X102182696Y-101484962D01*
X102187680Y-101415270D01*
X102229552Y-101359337D01*
X102260529Y-101342422D01*
X102392086Y-101293354D01*
X102392093Y-101293350D01*
X102507187Y-101207190D01*
X102507190Y-101207187D01*
X102593350Y-101092093D01*
X102593354Y-101092086D01*
X102643596Y-100957379D01*
X102643598Y-100957372D01*
X102649999Y-100897844D01*
X102650000Y-100897827D01*
X102650000Y-100250000D01*
X101733012Y-100250000D01*
X101765925Y-100192993D01*
X101800000Y-100065826D01*
X101800000Y-99934174D01*
X101765925Y-99807007D01*
X101733012Y-99750000D01*
X102650000Y-99750000D01*
X102650000Y-99102172D01*
X102649999Y-99102155D01*
X106650000Y-99102155D01*
X106650000Y-99750000D01*
X107566988Y-99750000D01*
X107534075Y-99807007D01*
X107500000Y-99934174D01*
X107500000Y-100065826D01*
X107534075Y-100192993D01*
X107566988Y-100250000D01*
X106650000Y-100250000D01*
X106650000Y-100897844D01*
X106656401Y-100957372D01*
X106656403Y-100957379D01*
X106706645Y-101092086D01*
X106706649Y-101092093D01*
X106792809Y-101207187D01*
X106792812Y-101207190D01*
X106907906Y-101293350D01*
X106907913Y-101293354D01*
X107042620Y-101343596D01*
X107042627Y-101343598D01*
X107102155Y-101349999D01*
X107102172Y-101350000D01*
X107750000Y-101350000D01*
X107750000Y-100433012D01*
X107807007Y-100465925D01*
X107934174Y-100500000D01*
X108065826Y-100500000D01*
X108192993Y-100465925D01*
X108250000Y-100433012D01*
X108250000Y-101350000D01*
X108897828Y-101350000D01*
X108897844Y-101349999D01*
X108957372Y-101343598D01*
X108957379Y-101343596D01*
X109092086Y-101293354D01*
X109092093Y-101293350D01*
X109207187Y-101207190D01*
X109207190Y-101207187D01*
X109293350Y-101092093D01*
X109293354Y-101092086D01*
X109343596Y-100957379D01*
X109343598Y-100957372D01*
X109349999Y-100897844D01*
X109350000Y-100897827D01*
X109350000Y-100250000D01*
X108433012Y-100250000D01*
X108465925Y-100192993D01*
X108500000Y-100065826D01*
X108500000Y-99934174D01*
X108465925Y-99807007D01*
X108433012Y-99750000D01*
X109350000Y-99750000D01*
X109350000Y-99102172D01*
X109349999Y-99102155D01*
X109343598Y-99042627D01*
X109343596Y-99042620D01*
X109293354Y-98907913D01*
X109293350Y-98907906D01*
X109207190Y-98792812D01*
X109207187Y-98792809D01*
X109092093Y-98706649D01*
X109092086Y-98706645D01*
X108957379Y-98656403D01*
X108957372Y-98656401D01*
X108897844Y-98650000D01*
X108250000Y-98650000D01*
X108250000Y-99566988D01*
X108192993Y-99534075D01*
X108065826Y-99500000D01*
X107934174Y-99500000D01*
X107807007Y-99534075D01*
X107750000Y-99566988D01*
X107750000Y-98650000D01*
X107102155Y-98650000D01*
X107042627Y-98656401D01*
X107042620Y-98656403D01*
X106907913Y-98706645D01*
X106907906Y-98706649D01*
X106792812Y-98792809D01*
X106792809Y-98792812D01*
X106706649Y-98907906D01*
X106706645Y-98907913D01*
X106656403Y-99042620D01*
X106656401Y-99042627D01*
X106650000Y-99102155D01*
X102649999Y-99102155D01*
X102643598Y-99042627D01*
X102643596Y-99042620D01*
X102593354Y-98907913D01*
X102593350Y-98907906D01*
X102507190Y-98792812D01*
X102507187Y-98792809D01*
X102392093Y-98706649D01*
X102392086Y-98706645D01*
X102257379Y-98656403D01*
X102257372Y-98656401D01*
X102197844Y-98650000D01*
X101550000Y-98650000D01*
X101550000Y-99566988D01*
X101492993Y-99534075D01*
X101365826Y-99500000D01*
X101234174Y-99500000D01*
X101107007Y-99534075D01*
X101050000Y-99566988D01*
X101050000Y-98650000D01*
X100402155Y-98650000D01*
X100342627Y-98656401D01*
X100342620Y-98656403D01*
X100207913Y-98706645D01*
X100207906Y-98706649D01*
X100092812Y-98792809D01*
X100092809Y-98792812D01*
X100006649Y-98907906D01*
X100006645Y-98907913D01*
X99956403Y-99042620D01*
X99956401Y-99042627D01*
X99950000Y-99102155D01*
X99950000Y-99750000D01*
X100866988Y-99750000D01*
X100834075Y-99807007D01*
X100800000Y-99934174D01*
X100800000Y-100065826D01*
X100834075Y-100192993D01*
X100866988Y-100250000D01*
X99950000Y-100250000D01*
X99950000Y-100897844D01*
X99956401Y-100957372D01*
X99956403Y-100957379D01*
X100006645Y-101092086D01*
X100006649Y-101092093D01*
X100092809Y-101207187D01*
X100092812Y-101207190D01*
X100207906Y-101293350D01*
X100207913Y-101293354D01*
X100339470Y-101342422D01*
X100395404Y-101384293D01*
X100419821Y-101449758D01*
X100404969Y-101518031D01*
X100383819Y-101546285D01*
X100269889Y-101660215D01*
X100144951Y-101832179D01*
X100048444Y-102021585D01*
X99982753Y-102223760D01*
X99949500Y-102433713D01*
X99949500Y-102646286D01*
X99974841Y-102806287D01*
X99982754Y-102856243D01*
X100034741Y-103016243D01*
X100048444Y-103058414D01*
X100144951Y-103247820D01*
X100269890Y-103419786D01*
X100420213Y-103570109D01*
X100592182Y-103695050D01*
X100600946Y-103699516D01*
X100651742Y-103747491D01*
X100668536Y-103815312D01*
X100645998Y-103881447D01*
X100600946Y-103920484D01*
X100592182Y-103924949D01*
X100420213Y-104049890D01*
X100269890Y-104200213D01*
X100144951Y-104372179D01*
X100048444Y-104561585D01*
X99982753Y-104763760D01*
X99949500Y-104973713D01*
X99949500Y-105186286D01*
X99982753Y-105396239D01*
X100048444Y-105598414D01*
X100144951Y-105787820D01*
X100269890Y-105959786D01*
X100420213Y-106110109D01*
X100592182Y-106235050D01*
X100600946Y-106239516D01*
X100651742Y-106287491D01*
X100668536Y-106355312D01*
X100645998Y-106421447D01*
X100600946Y-106460484D01*
X100592182Y-106464949D01*
X100420213Y-106589890D01*
X100269890Y-106740213D01*
X100144951Y-106912179D01*
X100048444Y-107101585D01*
X99982753Y-107303760D01*
X99970809Y-107379172D01*
X99949500Y-107513713D01*
X99949500Y-107726287D01*
X99982754Y-107936243D01*
X99996487Y-107978510D01*
X100048444Y-108138414D01*
X100144951Y-108327820D01*
X100269890Y-108499786D01*
X100420213Y-108650109D01*
X100592182Y-108775050D01*
X100600946Y-108779516D01*
X100651742Y-108827491D01*
X100668536Y-108895312D01*
X100645998Y-108961447D01*
X100600946Y-109000484D01*
X100592182Y-109004949D01*
X100420213Y-109129890D01*
X100269890Y-109280213D01*
X100144951Y-109452179D01*
X100048444Y-109641585D01*
X99982753Y-109843760D01*
X99956378Y-110010288D01*
X99949500Y-110053713D01*
X99949500Y-110266287D01*
X99982754Y-110476243D01*
X99996486Y-110518507D01*
X100048444Y-110678414D01*
X100144951Y-110867820D01*
X100269890Y-111039786D01*
X100420213Y-111190109D01*
X100592182Y-111315050D01*
X100600946Y-111319516D01*
X100651742Y-111367491D01*
X100668536Y-111435312D01*
X100645998Y-111501447D01*
X100600946Y-111540484D01*
X100592182Y-111544949D01*
X100420213Y-111669890D01*
X100269890Y-111820213D01*
X100144951Y-111992179D01*
X100048444Y-112181585D01*
X99982753Y-112383760D01*
X99949500Y-112593713D01*
X99949500Y-112806287D01*
X99982754Y-113016243D01*
X100004956Y-113084574D01*
X100048444Y-113218414D01*
X100144951Y-113407820D01*
X100269890Y-113579786D01*
X100420213Y-113730109D01*
X100592182Y-113855050D01*
X100600946Y-113859516D01*
X100651742Y-113907491D01*
X100668536Y-113975312D01*
X100645998Y-114041447D01*
X100600946Y-114080484D01*
X100592182Y-114084949D01*
X100420213Y-114209890D01*
X100269890Y-114360213D01*
X100144951Y-114532179D01*
X100048444Y-114721585D01*
X99982753Y-114923760D01*
X99949500Y-115133713D01*
X99949500Y-115346287D01*
X99982754Y-115556243D01*
X100029301Y-115699500D01*
X100048444Y-115758414D01*
X100144951Y-115947820D01*
X100269890Y-116119786D01*
X100420213Y-116270109D01*
X100592182Y-116395050D01*
X100600946Y-116399516D01*
X100651742Y-116447491D01*
X100668536Y-116515312D01*
X100645998Y-116581447D01*
X100600946Y-116620484D01*
X100592182Y-116624949D01*
X100420213Y-116749890D01*
X100269890Y-116900213D01*
X100144951Y-117072179D01*
X100048444Y-117261585D01*
X99982753Y-117463760D01*
X99949500Y-117673713D01*
X99949500Y-117886286D01*
X99976946Y-118059577D01*
X99982754Y-118096243D01*
X100038077Y-118266510D01*
X100048444Y-118298414D01*
X100144951Y-118487820D01*
X100269890Y-118659786D01*
X100420213Y-118810109D01*
X100592182Y-118935050D01*
X100600946Y-118939516D01*
X100651742Y-118987491D01*
X100668536Y-119055312D01*
X100645998Y-119121447D01*
X100600946Y-119160484D01*
X100592182Y-119164949D01*
X100420213Y-119289890D01*
X100269890Y-119440213D01*
X100144951Y-119612179D01*
X100048444Y-119801585D01*
X99982753Y-120003760D01*
X99949500Y-120213713D01*
X99949500Y-120426286D01*
X99980210Y-120620185D01*
X99982754Y-120636243D01*
X100017164Y-120742147D01*
X100048444Y-120838414D01*
X100144951Y-121027820D01*
X100269890Y-121199786D01*
X100420213Y-121350109D01*
X100592182Y-121475050D01*
X100600946Y-121479516D01*
X100651742Y-121527491D01*
X100668536Y-121595312D01*
X100645998Y-121661447D01*
X100600946Y-121700484D01*
X100592182Y-121704949D01*
X100420213Y-121829890D01*
X100269890Y-121980213D01*
X100144951Y-122152179D01*
X100048444Y-122341585D01*
X99982753Y-122543760D01*
X99949500Y-122753713D01*
X99949500Y-122966286D01*
X99981040Y-123165425D01*
X99982754Y-123176243D01*
X100048378Y-123378213D01*
X100048444Y-123378414D01*
X100144951Y-123567820D01*
X100269890Y-123739786D01*
X100420213Y-123890109D01*
X100592182Y-124015050D01*
X100600946Y-124019516D01*
X100651742Y-124067491D01*
X100668536Y-124135312D01*
X100645998Y-124201447D01*
X100600946Y-124240484D01*
X100592182Y-124244949D01*
X100420213Y-124369890D01*
X100269890Y-124520213D01*
X100144951Y-124692179D01*
X100048444Y-124881585D01*
X99982753Y-125083760D01*
X99949500Y-125293713D01*
X99949500Y-125506286D01*
X99981669Y-125709397D01*
X99982754Y-125716243D01*
X100036132Y-125880524D01*
X100048444Y-125918414D01*
X100144951Y-126107820D01*
X100269890Y-126279786D01*
X100420213Y-126430109D01*
X100592182Y-126555050D01*
X100600946Y-126559516D01*
X100651742Y-126607491D01*
X100668536Y-126675312D01*
X100645998Y-126741447D01*
X100600946Y-126780484D01*
X100592182Y-126784949D01*
X100420213Y-126909890D01*
X100269890Y-127060213D01*
X100144951Y-127232179D01*
X100048444Y-127421585D01*
X99982753Y-127623760D01*
X99969191Y-127709390D01*
X99949500Y-127833713D01*
X99949500Y-128046287D01*
X99982754Y-128256243D01*
X100028772Y-128397872D01*
X100048444Y-128458414D01*
X100144951Y-128647820D01*
X100269890Y-128819786D01*
X100420213Y-128970109D01*
X100592182Y-129095050D01*
X100600946Y-129099516D01*
X100651742Y-129147491D01*
X100668536Y-129215312D01*
X100645998Y-129281447D01*
X100600946Y-129320484D01*
X100592182Y-129324949D01*
X100420213Y-129449890D01*
X100269890Y-129600213D01*
X100144951Y-129772179D01*
X100048444Y-129961585D01*
X99982753Y-130163760D01*
X99949500Y-130373713D01*
X99949500Y-130586286D01*
X99982753Y-130796239D01*
X100048444Y-130998414D01*
X100144951Y-131187820D01*
X100269890Y-131359786D01*
X100420213Y-131510109D01*
X100592182Y-131635050D01*
X100600946Y-131639516D01*
X100651742Y-131687491D01*
X100668536Y-131755312D01*
X100645998Y-131821447D01*
X100600946Y-131860484D01*
X100592182Y-131864949D01*
X100420213Y-131989890D01*
X100269890Y-132140213D01*
X100144951Y-132312179D01*
X100048444Y-132501585D01*
X99982753Y-132703760D01*
X99949500Y-132913713D01*
X99949500Y-133126286D01*
X99975818Y-133292455D01*
X99982754Y-133336243D01*
X100005962Y-133407671D01*
X100048444Y-133538414D01*
X100144951Y-133727820D01*
X100269890Y-133899786D01*
X100420213Y-134050109D01*
X100592182Y-134175050D01*
X100600946Y-134179516D01*
X100651742Y-134227491D01*
X100668536Y-134295312D01*
X100645998Y-134361447D01*
X100600946Y-134400484D01*
X100592182Y-134404949D01*
X100420213Y-134529890D01*
X100269890Y-134680213D01*
X100144951Y-134852179D01*
X100048444Y-135041585D01*
X99982753Y-135243760D01*
X99949500Y-135453713D01*
X99949500Y-135666286D01*
X99982753Y-135876239D01*
X100048444Y-136078414D01*
X100144951Y-136267820D01*
X100269890Y-136439786D01*
X100420213Y-136590109D01*
X100592182Y-136715050D01*
X100600946Y-136719516D01*
X100651742Y-136767491D01*
X100668536Y-136835312D01*
X100645998Y-136901447D01*
X100600946Y-136940484D01*
X100592182Y-136944949D01*
X100420213Y-137069890D01*
X100269890Y-137220213D01*
X100144951Y-137392179D01*
X100048444Y-137581585D01*
X99982753Y-137783760D01*
X99949500Y-137993713D01*
X99949500Y-138206287D01*
X99982754Y-138416243D01*
X99996486Y-138458507D01*
X100048444Y-138618414D01*
X100144951Y-138807820D01*
X100269890Y-138979786D01*
X100420213Y-139130109D01*
X100592182Y-139255050D01*
X100600946Y-139259516D01*
X100651742Y-139307491D01*
X100668536Y-139375312D01*
X100645998Y-139441447D01*
X100600946Y-139480484D01*
X100592182Y-139484949D01*
X100420213Y-139609890D01*
X100269890Y-139760213D01*
X100144951Y-139932179D01*
X100048444Y-140121585D01*
X99982753Y-140323760D01*
X99949500Y-140533713D01*
X99949500Y-140746286D01*
X99973766Y-140899499D01*
X99982754Y-140956243D01*
X100039629Y-141131286D01*
X100048444Y-141158414D01*
X100144951Y-141347820D01*
X100269890Y-141519786D01*
X100420213Y-141670109D01*
X100592182Y-141795050D01*
X100600946Y-141799516D01*
X100651742Y-141847491D01*
X100668536Y-141915312D01*
X100645998Y-141981447D01*
X100600946Y-142020484D01*
X100592182Y-142024949D01*
X100420213Y-142149890D01*
X100269890Y-142300213D01*
X100144948Y-142472184D01*
X100144947Y-142472185D01*
X100124765Y-142511795D01*
X100076791Y-142562591D01*
X100014281Y-142579500D01*
X97980097Y-142579500D01*
X97913058Y-142559815D01*
X97892416Y-142543181D01*
X96584574Y-141235339D01*
X96551089Y-141174016D01*
X96550638Y-141171849D01*
X96519738Y-141016510D01*
X96519737Y-141016503D01*
X96500210Y-140969360D01*
X96459397Y-140870827D01*
X96459390Y-140870814D01*
X96371789Y-140739711D01*
X96371786Y-140739707D01*
X96260292Y-140628213D01*
X96260288Y-140628210D01*
X96129185Y-140540609D01*
X96129172Y-140540602D01*
X95983501Y-140480264D01*
X95983489Y-140480261D01*
X95828845Y-140449500D01*
X95828842Y-140449500D01*
X95671158Y-140449500D01*
X95671155Y-140449500D01*
X95516510Y-140480261D01*
X95516498Y-140480264D01*
X95370827Y-140540602D01*
X95370814Y-140540609D01*
X95239711Y-140628210D01*
X95239707Y-140628213D01*
X95128213Y-140739707D01*
X95128210Y-140739711D01*
X95040609Y-140870814D01*
X95040602Y-140870827D01*
X94980264Y-141016498D01*
X94980261Y-141016510D01*
X94949500Y-141171153D01*
X86141014Y-141171153D01*
X86141904Y-141170639D01*
X86228716Y-141120520D01*
X86340520Y-141008716D01*
X86340521Y-141008713D01*
X86514664Y-140834570D01*
X86575983Y-140801089D01*
X86578150Y-140800638D01*
X86636085Y-140789113D01*
X86733497Y-140769737D01*
X86879179Y-140709394D01*
X87010289Y-140621789D01*
X87121789Y-140510289D01*
X87209394Y-140379179D01*
X87269737Y-140233497D01*
X87300500Y-140078842D01*
X87300500Y-139921158D01*
X87300500Y-139921155D01*
X87300499Y-139921153D01*
X87269738Y-139766510D01*
X87269738Y-139766508D01*
X87269737Y-139766503D01*
X87256062Y-139733489D01*
X87209397Y-139620827D01*
X87209390Y-139620814D01*
X87121789Y-139489711D01*
X87121786Y-139489707D01*
X87010292Y-139378213D01*
X87010288Y-139378210D01*
X86879185Y-139290609D01*
X86879172Y-139290602D01*
X86733501Y-139230264D01*
X86733489Y-139230261D01*
X86578845Y-139199500D01*
X86578842Y-139199500D01*
X86421158Y-139199500D01*
X86421155Y-139199500D01*
X86266510Y-139230261D01*
X86266498Y-139230264D01*
X86120827Y-139290602D01*
X86120814Y-139290609D01*
X85989711Y-139378210D01*
X85989707Y-139378213D01*
X85878213Y-139489707D01*
X85878210Y-139489711D01*
X85790609Y-139620814D01*
X85790602Y-139620827D01*
X85730264Y-139766498D01*
X85730261Y-139766508D01*
X85699362Y-139921848D01*
X85666977Y-139983759D01*
X85665429Y-139985335D01*
X85647586Y-140003179D01*
X85586263Y-140036665D01*
X85559902Y-140039500D01*
X76785719Y-140039500D01*
X76718680Y-140019815D01*
X76675235Y-139971795D01*
X76655052Y-139932185D01*
X76655051Y-139932184D01*
X76530109Y-139760213D01*
X76379786Y-139609890D01*
X76207820Y-139484951D01*
X76207115Y-139484591D01*
X76199054Y-139480485D01*
X76148259Y-139432512D01*
X76131463Y-139364692D01*
X76153999Y-139298556D01*
X76199054Y-139259515D01*
X76207816Y-139255051D01*
X76284276Y-139199500D01*
X76379786Y-139130109D01*
X76379788Y-139130106D01*
X76379792Y-139130104D01*
X76530104Y-138979792D01*
X76530106Y-138979788D01*
X76530109Y-138979786D01*
X76603907Y-138878210D01*
X76655051Y-138807816D01*
X76655349Y-138807230D01*
X76675235Y-138768205D01*
X76723209Y-138717409D01*
X76785719Y-138700500D01*
X83313331Y-138700500D01*
X83313347Y-138700501D01*
X83320943Y-138700501D01*
X83479054Y-138700501D01*
X83479057Y-138700501D01*
X83631785Y-138659577D01*
X83681904Y-138630639D01*
X83768716Y-138580520D01*
X83880520Y-138468716D01*
X83880520Y-138468714D01*
X83890728Y-138458507D01*
X83890729Y-138458504D01*
X86514662Y-135834572D01*
X86575983Y-135801089D01*
X86578150Y-135800638D01*
X86636085Y-135789113D01*
X86733497Y-135769737D01*
X86879179Y-135709394D01*
X87010289Y-135621789D01*
X87121789Y-135510289D01*
X87209394Y-135379179D01*
X87269737Y-135233497D01*
X87300500Y-135078842D01*
X87300500Y-134921158D01*
X87300500Y-134921155D01*
X87300499Y-134921153D01*
X87269737Y-134766503D01*
X87233993Y-134680208D01*
X87209397Y-134620827D01*
X87209390Y-134620814D01*
X87121789Y-134489711D01*
X87121786Y-134489707D01*
X87010292Y-134378213D01*
X87010288Y-134378210D01*
X86879185Y-134290609D01*
X86879172Y-134290602D01*
X86733501Y-134230264D01*
X86733489Y-134230261D01*
X86578845Y-134199500D01*
X86578842Y-134199500D01*
X86421158Y-134199500D01*
X86421155Y-134199500D01*
X86266510Y-134230261D01*
X86266498Y-134230264D01*
X86120827Y-134290602D01*
X86120814Y-134290609D01*
X85989711Y-134378210D01*
X85989707Y-134378213D01*
X85878213Y-134489707D01*
X85878210Y-134489711D01*
X85790609Y-134620814D01*
X85790602Y-134620827D01*
X85730264Y-134766498D01*
X85730261Y-134766508D01*
X85699361Y-134921850D01*
X85666976Y-134983761D01*
X85665425Y-134985339D01*
X83187584Y-137463181D01*
X83126261Y-137496666D01*
X83099903Y-137499500D01*
X76785719Y-137499500D01*
X76718680Y-137479815D01*
X76675235Y-137431795D01*
X76655052Y-137392185D01*
X76655051Y-137392184D01*
X76530109Y-137220213D01*
X76379786Y-137069890D01*
X76207820Y-136944951D01*
X76207115Y-136944591D01*
X76199054Y-136940485D01*
X76148259Y-136892512D01*
X76131463Y-136824692D01*
X76153999Y-136758556D01*
X76199054Y-136719515D01*
X76207816Y-136715051D01*
X76229789Y-136699086D01*
X76379786Y-136590109D01*
X76379788Y-136590106D01*
X76379792Y-136590104D01*
X76530104Y-136439792D01*
X76530106Y-136439788D01*
X76530109Y-136439786D01*
X76655048Y-136267820D01*
X76655047Y-136267820D01*
X76655051Y-136267816D01*
X76751557Y-136078412D01*
X76817246Y-135876243D01*
X76850500Y-135666287D01*
X76850500Y-135453713D01*
X76817246Y-135243757D01*
X76751557Y-135041588D01*
X76655051Y-134852184D01*
X76655049Y-134852181D01*
X76655048Y-134852179D01*
X76530109Y-134680213D01*
X76379786Y-134529890D01*
X76207820Y-134404951D01*
X76207115Y-134404591D01*
X76199054Y-134400485D01*
X76148259Y-134352512D01*
X76131463Y-134284692D01*
X76153999Y-134218556D01*
X76199054Y-134179515D01*
X76207816Y-134175051D01*
X76229789Y-134159086D01*
X76379786Y-134050109D01*
X76379788Y-134050106D01*
X76379792Y-134050104D01*
X76530104Y-133899792D01*
X76530106Y-133899788D01*
X76530109Y-133899786D01*
X76655048Y-133727820D01*
X76655047Y-133727820D01*
X76655051Y-133727816D01*
X76751557Y-133538412D01*
X76817246Y-133336243D01*
X76850500Y-133126287D01*
X76850500Y-132913713D01*
X76817246Y-132703757D01*
X76751557Y-132501588D01*
X76655051Y-132312184D01*
X76655049Y-132312181D01*
X76655048Y-132312179D01*
X76530109Y-132140213D01*
X76379786Y-131989890D01*
X76207820Y-131864951D01*
X76207115Y-131864591D01*
X76199054Y-131860485D01*
X76148259Y-131812512D01*
X76131463Y-131744692D01*
X76153999Y-131678556D01*
X76199054Y-131639515D01*
X76207816Y-131635051D01*
X76229789Y-131619086D01*
X76379786Y-131510109D01*
X76379788Y-131510106D01*
X76379792Y-131510104D01*
X76530104Y-131359792D01*
X76530106Y-131359788D01*
X76530109Y-131359786D01*
X76655048Y-131187820D01*
X76655047Y-131187820D01*
X76655051Y-131187816D01*
X76751557Y-130998412D01*
X76817246Y-130796243D01*
X76850500Y-130586287D01*
X76850500Y-130373713D01*
X76817246Y-130163757D01*
X76751557Y-129961588D01*
X76655051Y-129772184D01*
X76655049Y-129772181D01*
X76655048Y-129772179D01*
X76530109Y-129600213D01*
X76379786Y-129449890D01*
X76207820Y-129324951D01*
X76207115Y-129324591D01*
X76199054Y-129320485D01*
X76148259Y-129272512D01*
X76131463Y-129204692D01*
X76153999Y-129138556D01*
X76199054Y-129099515D01*
X76207816Y-129095051D01*
X76229789Y-129079086D01*
X76379786Y-128970109D01*
X76379788Y-128970106D01*
X76379792Y-128970104D01*
X76530104Y-128819792D01*
X76530106Y-128819788D01*
X76530109Y-128819786D01*
X76655048Y-128647820D01*
X76655047Y-128647820D01*
X76655051Y-128647816D01*
X76751557Y-128458412D01*
X76817246Y-128256243D01*
X76850500Y-128046287D01*
X76850500Y-127833713D01*
X76817246Y-127623757D01*
X76751557Y-127421588D01*
X76655051Y-127232184D01*
X76655049Y-127232181D01*
X76655048Y-127232179D01*
X76530109Y-127060213D01*
X76379786Y-126909890D01*
X76207820Y-126784951D01*
X76207115Y-126784591D01*
X76199054Y-126780485D01*
X76148259Y-126732512D01*
X76131463Y-126664692D01*
X76153999Y-126598556D01*
X76199054Y-126559515D01*
X76207816Y-126555051D01*
X76229789Y-126539086D01*
X76379786Y-126430109D01*
X76379788Y-126430106D01*
X76379792Y-126430104D01*
X76530104Y-126279792D01*
X76530106Y-126279788D01*
X76530109Y-126279786D01*
X76655048Y-126107820D01*
X76655047Y-126107820D01*
X76655051Y-126107816D01*
X76751557Y-125918412D01*
X76817246Y-125716243D01*
X76850500Y-125506287D01*
X76850500Y-125293713D01*
X76817246Y-125083757D01*
X76751557Y-124881588D01*
X76655051Y-124692184D01*
X76655049Y-124692181D01*
X76655048Y-124692179D01*
X76530109Y-124520213D01*
X76379786Y-124369890D01*
X76207820Y-124244951D01*
X76201608Y-124241786D01*
X76199054Y-124240485D01*
X76148259Y-124192512D01*
X76131463Y-124124692D01*
X76153999Y-124058556D01*
X76199054Y-124019515D01*
X76207816Y-124015051D01*
X76255346Y-123980519D01*
X76379786Y-123890109D01*
X76379788Y-123890106D01*
X76379792Y-123890104D01*
X76530104Y-123739792D01*
X76530106Y-123739788D01*
X76530109Y-123739786D01*
X76655048Y-123567820D01*
X76655047Y-123567820D01*
X76655051Y-123567816D01*
X76751557Y-123378412D01*
X76817246Y-123176243D01*
X76850500Y-122966287D01*
X76850500Y-122753713D01*
X76817246Y-122543757D01*
X76751557Y-122341588D01*
X76655051Y-122152184D01*
X76655049Y-122152181D01*
X76655048Y-122152179D01*
X76530109Y-121980213D01*
X76379786Y-121829890D01*
X76207820Y-121704951D01*
X76207115Y-121704591D01*
X76199054Y-121700485D01*
X76148259Y-121652512D01*
X76131463Y-121584692D01*
X76153999Y-121518556D01*
X76199054Y-121479515D01*
X76207816Y-121475051D01*
X76282001Y-121421153D01*
X76379786Y-121350109D01*
X76379788Y-121350106D01*
X76379792Y-121350104D01*
X76530104Y-121199792D01*
X76530106Y-121199788D01*
X76530109Y-121199786D01*
X76655048Y-121027820D01*
X76655047Y-121027820D01*
X76655051Y-121027816D01*
X76751557Y-120838412D01*
X76817246Y-120636243D01*
X76850500Y-120426287D01*
X76850500Y-120213713D01*
X76817246Y-120003757D01*
X76751557Y-119801588D01*
X76655051Y-119612184D01*
X76655049Y-119612181D01*
X76655048Y-119612179D01*
X76530109Y-119440213D01*
X76379786Y-119289890D01*
X76207820Y-119164951D01*
X76207115Y-119164591D01*
X76199054Y-119160485D01*
X76148259Y-119112512D01*
X76131463Y-119044692D01*
X76153999Y-118978556D01*
X76199054Y-118939515D01*
X76207816Y-118935051D01*
X76245511Y-118907664D01*
X76379786Y-118810109D01*
X76379788Y-118810106D01*
X76379792Y-118810104D01*
X76530104Y-118659792D01*
X76530106Y-118659788D01*
X76530109Y-118659786D01*
X76610791Y-118548735D01*
X76655051Y-118487816D01*
X76655349Y-118487230D01*
X76675235Y-118448205D01*
X76723209Y-118397409D01*
X76785719Y-118380500D01*
X77633331Y-118380500D01*
X77633347Y-118380501D01*
X77640943Y-118380501D01*
X77799054Y-118380501D01*
X77799057Y-118380501D01*
X77951785Y-118339577D01*
X77951787Y-118339575D01*
X77951789Y-118339575D01*
X77951790Y-118339574D01*
X78002569Y-118310257D01*
X78002570Y-118310256D01*
X78088716Y-118260520D01*
X78200520Y-118148716D01*
X78200520Y-118148715D01*
X78212417Y-118136819D01*
X78273740Y-118103334D01*
X78300098Y-118100500D01*
X90913331Y-118100500D01*
X90913347Y-118100501D01*
X90920943Y-118100501D01*
X91079054Y-118100501D01*
X91079057Y-118100501D01*
X91231785Y-118059577D01*
X91281904Y-118030639D01*
X91368716Y-117980520D01*
X91480520Y-117868716D01*
X91480520Y-117868714D01*
X91490728Y-117858507D01*
X91490729Y-117858504D01*
X96514664Y-112834571D01*
X96575985Y-112801088D01*
X96578152Y-112800637D01*
X96578841Y-112800500D01*
X96578842Y-112800500D01*
X96733497Y-112769737D01*
X96879179Y-112709394D01*
X97010289Y-112621789D01*
X97121789Y-112510289D01*
X97209394Y-112379179D01*
X97269737Y-112233497D01*
X97300500Y-112078842D01*
X97300500Y-111921158D01*
X97300500Y-111921155D01*
X97300499Y-111921153D01*
X97281773Y-111827011D01*
X97269737Y-111766503D01*
X97269735Y-111766498D01*
X97209397Y-111620827D01*
X97209390Y-111620814D01*
X97121789Y-111489711D01*
X97121786Y-111489707D01*
X97010292Y-111378213D01*
X97010288Y-111378210D01*
X96879185Y-111290609D01*
X96879172Y-111290602D01*
X96733501Y-111230264D01*
X96733489Y-111230261D01*
X96578845Y-111199500D01*
X96578842Y-111199500D01*
X96421158Y-111199500D01*
X96421155Y-111199500D01*
X96266510Y-111230261D01*
X96266498Y-111230264D01*
X96120827Y-111290602D01*
X96120814Y-111290609D01*
X95989711Y-111378210D01*
X95989707Y-111378213D01*
X95878213Y-111489707D01*
X95878210Y-111489711D01*
X95790609Y-111620814D01*
X95790602Y-111620827D01*
X95730264Y-111766498D01*
X95730261Y-111766508D01*
X95699362Y-111921848D01*
X95666977Y-111983759D01*
X95665426Y-111985337D01*
X90787584Y-116863181D01*
X90726261Y-116896666D01*
X90699903Y-116899500D01*
X78086670Y-116899500D01*
X78086654Y-116899499D01*
X78079058Y-116899499D01*
X77920943Y-116899499D01*
X77768215Y-116940423D01*
X77647204Y-117010289D01*
X77631281Y-117019482D01*
X77507583Y-117143181D01*
X77446260Y-117176666D01*
X77419902Y-117179500D01*
X76785719Y-117179500D01*
X76718680Y-117159815D01*
X76675235Y-117111795D01*
X76655052Y-117072185D01*
X76655051Y-117072184D01*
X76530109Y-116900213D01*
X76379786Y-116749890D01*
X76207820Y-116624951D01*
X76207115Y-116624591D01*
X76199054Y-116620485D01*
X76148259Y-116572512D01*
X76131463Y-116504692D01*
X76153999Y-116438556D01*
X76199054Y-116399515D01*
X76207816Y-116395051D01*
X76229789Y-116379086D01*
X76379786Y-116270109D01*
X76379788Y-116270106D01*
X76379792Y-116270104D01*
X76530104Y-116119792D01*
X76530106Y-116119788D01*
X76530109Y-116119786D01*
X76655048Y-115947820D01*
X76655047Y-115947820D01*
X76655051Y-115947816D01*
X76751557Y-115758412D01*
X76817246Y-115556243D01*
X76850500Y-115346287D01*
X76850500Y-115133713D01*
X76817246Y-114923757D01*
X76751557Y-114721588D01*
X76655051Y-114532184D01*
X76655049Y-114532181D01*
X76655048Y-114532179D01*
X76530109Y-114360213D01*
X76379786Y-114209890D01*
X76207820Y-114084951D01*
X76207115Y-114084591D01*
X76199054Y-114080485D01*
X76148259Y-114032512D01*
X76131463Y-113964692D01*
X76153999Y-113898556D01*
X76199054Y-113859515D01*
X76207816Y-113855051D01*
X76229789Y-113839086D01*
X76379786Y-113730109D01*
X76379788Y-113730106D01*
X76379792Y-113730104D01*
X76530104Y-113579792D01*
X76530106Y-113579788D01*
X76530109Y-113579786D01*
X76618966Y-113457483D01*
X76655051Y-113407816D01*
X76660122Y-113397864D01*
X76675235Y-113368205D01*
X76723209Y-113317409D01*
X76785719Y-113300500D01*
X78213331Y-113300500D01*
X78213347Y-113300501D01*
X78220943Y-113300501D01*
X78379054Y-113300501D01*
X78379057Y-113300501D01*
X78531785Y-113259577D01*
X78581904Y-113230639D01*
X78668716Y-113180520D01*
X78764663Y-113084572D01*
X78825984Y-113051088D01*
X78828152Y-113050637D01*
X78828841Y-113050500D01*
X78828842Y-113050500D01*
X78983497Y-113019737D01*
X79129179Y-112959394D01*
X79260289Y-112871789D01*
X79371789Y-112760289D01*
X79459394Y-112629179D01*
X79519737Y-112483497D01*
X79550500Y-112328842D01*
X79550500Y-112171158D01*
X79550500Y-112171155D01*
X79550499Y-112171153D01*
X79542569Y-112131286D01*
X79519737Y-112016503D01*
X79500210Y-111969360D01*
X79459397Y-111870827D01*
X79459390Y-111870814D01*
X79371789Y-111739711D01*
X79371786Y-111739707D01*
X79260292Y-111628213D01*
X79260288Y-111628210D01*
X79129185Y-111540609D01*
X79129172Y-111540602D01*
X78983501Y-111480264D01*
X78983489Y-111480261D01*
X78828845Y-111449500D01*
X78828842Y-111449500D01*
X78671158Y-111449500D01*
X78671155Y-111449500D01*
X78516510Y-111480261D01*
X78516498Y-111480264D01*
X78370827Y-111540602D01*
X78370814Y-111540609D01*
X78239711Y-111628210D01*
X78239707Y-111628213D01*
X78128213Y-111739707D01*
X78128210Y-111739711D01*
X78040609Y-111870814D01*
X78040602Y-111870827D01*
X77977932Y-112022131D01*
X77975477Y-112021114D01*
X77943490Y-112069930D01*
X77879679Y-112098390D01*
X77863122Y-112099500D01*
X76785719Y-112099500D01*
X76718680Y-112079815D01*
X76675235Y-112031795D01*
X76655052Y-111992185D01*
X76655051Y-111992184D01*
X76530109Y-111820213D01*
X76379786Y-111669890D01*
X76207820Y-111544951D01*
X76207115Y-111544591D01*
X76199054Y-111540485D01*
X76148259Y-111492512D01*
X76131463Y-111424692D01*
X76153999Y-111358556D01*
X76199054Y-111319515D01*
X76207816Y-111315051D01*
X76241467Y-111290602D01*
X76379786Y-111190109D01*
X76379788Y-111190106D01*
X76379792Y-111190104D01*
X76530104Y-111039792D01*
X76530106Y-111039788D01*
X76530109Y-111039786D01*
X76588661Y-110959193D01*
X76655051Y-110867816D01*
X76655349Y-110867230D01*
X76675235Y-110828205D01*
X76723209Y-110777409D01*
X76785719Y-110760500D01*
X82253331Y-110760500D01*
X82253347Y-110760501D01*
X82260943Y-110760501D01*
X82419054Y-110760501D01*
X82419057Y-110760501D01*
X82571785Y-110719577D01*
X82621904Y-110690639D01*
X82708716Y-110640520D01*
X82820520Y-110528716D01*
X82820520Y-110528714D01*
X82830728Y-110518507D01*
X82830729Y-110518504D01*
X85514662Y-107834572D01*
X85575983Y-107801089D01*
X85578150Y-107800638D01*
X85636085Y-107789113D01*
X85733497Y-107769737D01*
X85879179Y-107709394D01*
X86010289Y-107621789D01*
X86121789Y-107510289D01*
X86209394Y-107379179D01*
X86269737Y-107233497D01*
X86300500Y-107078842D01*
X86300500Y-106921158D01*
X86300500Y-106921155D01*
X86300499Y-106921153D01*
X86269738Y-106766510D01*
X86269738Y-106766508D01*
X86269737Y-106766503D01*
X86269735Y-106766498D01*
X86209397Y-106620827D01*
X86209390Y-106620814D01*
X86121789Y-106489711D01*
X86121786Y-106489707D01*
X86010292Y-106378213D01*
X86010288Y-106378210D01*
X85879185Y-106290609D01*
X85879172Y-106290602D01*
X85733501Y-106230264D01*
X85733489Y-106230261D01*
X85578845Y-106199500D01*
X85578842Y-106199500D01*
X85421158Y-106199500D01*
X85421155Y-106199500D01*
X85266510Y-106230261D01*
X85266498Y-106230264D01*
X85120827Y-106290602D01*
X85120814Y-106290609D01*
X84989711Y-106378210D01*
X84989707Y-106378213D01*
X84878213Y-106489707D01*
X84878210Y-106489711D01*
X84790609Y-106620814D01*
X84790602Y-106620827D01*
X84730264Y-106766498D01*
X84730261Y-106766508D01*
X84699361Y-106921850D01*
X84666976Y-106983761D01*
X84665425Y-106985339D01*
X82127584Y-109523181D01*
X82066261Y-109556666D01*
X82039903Y-109559500D01*
X76785719Y-109559500D01*
X76718680Y-109539815D01*
X76675235Y-109491795D01*
X76655052Y-109452185D01*
X76655051Y-109452184D01*
X76530109Y-109280213D01*
X76379786Y-109129890D01*
X76207820Y-109004951D01*
X76207115Y-109004591D01*
X76199054Y-109000485D01*
X76148259Y-108952512D01*
X76131463Y-108884692D01*
X76153999Y-108818556D01*
X76199054Y-108779515D01*
X76207816Y-108775051D01*
X76229789Y-108759086D01*
X76379786Y-108650109D01*
X76379788Y-108650106D01*
X76379792Y-108650104D01*
X76530104Y-108499792D01*
X76530106Y-108499788D01*
X76530109Y-108499786D01*
X76588661Y-108419193D01*
X76655051Y-108327816D01*
X76655349Y-108327230D01*
X76675235Y-108288205D01*
X76723209Y-108237409D01*
X76785719Y-108220500D01*
X80793331Y-108220500D01*
X80793347Y-108220501D01*
X80800943Y-108220501D01*
X80959054Y-108220501D01*
X80959057Y-108220501D01*
X81111785Y-108179577D01*
X81161904Y-108150639D01*
X81248716Y-108100520D01*
X81360520Y-107988716D01*
X81360521Y-107988713D01*
X81514664Y-107834570D01*
X81575983Y-107801089D01*
X81578150Y-107800638D01*
X81636085Y-107789113D01*
X81733497Y-107769737D01*
X81879179Y-107709394D01*
X82010289Y-107621789D01*
X82121789Y-107510289D01*
X82209394Y-107379179D01*
X82269737Y-107233497D01*
X82300500Y-107078842D01*
X82300500Y-106921158D01*
X82300500Y-106921155D01*
X82300499Y-106921153D01*
X82269738Y-106766510D01*
X82269738Y-106766508D01*
X82269737Y-106766503D01*
X82269735Y-106766498D01*
X82209397Y-106620827D01*
X82209390Y-106620814D01*
X82121789Y-106489711D01*
X82121786Y-106489707D01*
X82010292Y-106378213D01*
X82010288Y-106378210D01*
X81879185Y-106290609D01*
X81879172Y-106290602D01*
X81733501Y-106230264D01*
X81733489Y-106230261D01*
X81578845Y-106199500D01*
X81578842Y-106199500D01*
X81421158Y-106199500D01*
X81421155Y-106199500D01*
X81266510Y-106230261D01*
X81266498Y-106230264D01*
X81120827Y-106290602D01*
X81120814Y-106290609D01*
X80989711Y-106378210D01*
X80989707Y-106378213D01*
X80878213Y-106489707D01*
X80878210Y-106489711D01*
X80790609Y-106620814D01*
X80790602Y-106620827D01*
X80730264Y-106766498D01*
X80730261Y-106766508D01*
X80699791Y-106919692D01*
X80667406Y-106981603D01*
X80606690Y-107016177D01*
X80578174Y-107019500D01*
X76785719Y-107019500D01*
X76718680Y-106999815D01*
X76675235Y-106951795D01*
X76655052Y-106912185D01*
X76655051Y-106912184D01*
X76530109Y-106740213D01*
X76379786Y-106589890D01*
X76207820Y-106464951D01*
X76207115Y-106464591D01*
X76199054Y-106460485D01*
X76148259Y-106412512D01*
X76131463Y-106344692D01*
X76153999Y-106278556D01*
X76199054Y-106239515D01*
X76207816Y-106235051D01*
X76256748Y-106199500D01*
X76379786Y-106110109D01*
X76379788Y-106110106D01*
X76379792Y-106110104D01*
X76530104Y-105959792D01*
X76530106Y-105959788D01*
X76530109Y-105959786D01*
X76655048Y-105787820D01*
X76655047Y-105787820D01*
X76655051Y-105787816D01*
X76751557Y-105598412D01*
X76817246Y-105396243D01*
X76850500Y-105186287D01*
X76850500Y-104973713D01*
X76817246Y-104763757D01*
X76751557Y-104561588D01*
X76655051Y-104372184D01*
X76655049Y-104372181D01*
X76655048Y-104372179D01*
X76530109Y-104200213D01*
X76379786Y-104049890D01*
X76207820Y-103924951D01*
X76207115Y-103924591D01*
X76199054Y-103920485D01*
X76148259Y-103872512D01*
X76131463Y-103804692D01*
X76153999Y-103738556D01*
X76199054Y-103699515D01*
X76207816Y-103695051D01*
X76366458Y-103579792D01*
X76379786Y-103570109D01*
X76379788Y-103570106D01*
X76379792Y-103570104D01*
X76530104Y-103419792D01*
X76530106Y-103419788D01*
X76530109Y-103419786D01*
X76655048Y-103247820D01*
X76655047Y-103247820D01*
X76655051Y-103247816D01*
X76751557Y-103058412D01*
X76817246Y-102856243D01*
X76850500Y-102646287D01*
X76850500Y-102433713D01*
X76817246Y-102223757D01*
X76751557Y-102021588D01*
X76655051Y-101832184D01*
X76655049Y-101832181D01*
X76655048Y-101832179D01*
X76530109Y-101660213D01*
X76416569Y-101546673D01*
X76383084Y-101485350D01*
X76388068Y-101415658D01*
X76429940Y-101359725D01*
X76460915Y-101342810D01*
X76592331Y-101293796D01*
X76707546Y-101207546D01*
X76793796Y-101092331D01*
X76844091Y-100957483D01*
X76850500Y-100897873D01*
X76850499Y-99102128D01*
X76844091Y-99042517D01*
X76828414Y-99000486D01*
X76793797Y-98907671D01*
X76793793Y-98907664D01*
X76707547Y-98792455D01*
X76707544Y-98792452D01*
X76592335Y-98706206D01*
X76592328Y-98706202D01*
X76457482Y-98655908D01*
X76457483Y-98655908D01*
X76397883Y-98649501D01*
X76397881Y-98649500D01*
X76397873Y-98649500D01*
X76397864Y-98649500D01*
X74602129Y-98649500D01*
X74602123Y-98649501D01*
X74542516Y-98655908D01*
X74407671Y-98706202D01*
X74407664Y-98706206D01*
X74292455Y-98792452D01*
X74292452Y-98792455D01*
X74206206Y-98907664D01*
X74206202Y-98907671D01*
X74155908Y-99042517D01*
X74149501Y-99102116D01*
X74149501Y-99102123D01*
X74149500Y-99102135D01*
X74149500Y-99275500D01*
X74129815Y-99342539D01*
X74077011Y-99388294D01*
X74025500Y-99399500D01*
X68474499Y-99399500D01*
X68407460Y-99379815D01*
X68361705Y-99327011D01*
X68350499Y-99275500D01*
X68350499Y-99102129D01*
X68350498Y-99102123D01*
X68350497Y-99102116D01*
X68344091Y-99042517D01*
X68328414Y-99000486D01*
X68293797Y-98907671D01*
X68293793Y-98907664D01*
X68207547Y-98792455D01*
X68207544Y-98792452D01*
X68092335Y-98706206D01*
X68092328Y-98706202D01*
X67957482Y-98655908D01*
X67957483Y-98655908D01*
X67897883Y-98649501D01*
X67897881Y-98649500D01*
X67897873Y-98649500D01*
X67897865Y-98649500D01*
X66550098Y-98649500D01*
X66483059Y-98629815D01*
X66462417Y-98613181D01*
X63770389Y-95921153D01*
X60770388Y-92921153D01*
X114699500Y-92921153D01*
X114699500Y-93078846D01*
X114730261Y-93233489D01*
X114730264Y-93233501D01*
X114790602Y-93379172D01*
X114790609Y-93379185D01*
X114878210Y-93510288D01*
X114878213Y-93510292D01*
X114989707Y-93621786D01*
X114989711Y-93621789D01*
X115120814Y-93709390D01*
X115120827Y-93709397D01*
X115266498Y-93769735D01*
X115266503Y-93769737D01*
X115376199Y-93791557D01*
X115421153Y-93800499D01*
X115421156Y-93800500D01*
X115421158Y-93800500D01*
X115578844Y-93800500D01*
X115578845Y-93800499D01*
X115733497Y-93769737D01*
X115879179Y-93709394D01*
X116010289Y-93621789D01*
X116121789Y-93510289D01*
X116209394Y-93379179D01*
X116269737Y-93233497D01*
X116269739Y-93233489D01*
X116271253Y-93228500D01*
X116309553Y-93170063D01*
X116373366Y-93141609D01*
X116389912Y-93140500D01*
X125214281Y-93140500D01*
X125281320Y-93160185D01*
X125324765Y-93208205D01*
X125344947Y-93247814D01*
X125344948Y-93247815D01*
X125469890Y-93419786D01*
X125620213Y-93570109D01*
X125792182Y-93695050D01*
X125800946Y-93699516D01*
X125851742Y-93747491D01*
X125868536Y-93815312D01*
X125845998Y-93881447D01*
X125800946Y-93920484D01*
X125792182Y-93924949D01*
X125620213Y-94049890D01*
X125469890Y-94200213D01*
X125344948Y-94372184D01*
X125344947Y-94372185D01*
X125324765Y-94411795D01*
X125276791Y-94462591D01*
X125214281Y-94479500D01*
X117332694Y-94479500D01*
X117270694Y-94462887D01*
X117231785Y-94440423D01*
X117079058Y-94399499D01*
X117079057Y-94399499D01*
X116920943Y-94399499D01*
X116813587Y-94428265D01*
X116768210Y-94440424D01*
X116768209Y-94440425D01*
X116718096Y-94469359D01*
X116718095Y-94469360D01*
X116700532Y-94479500D01*
X116631285Y-94519479D01*
X116631282Y-94519481D01*
X115985339Y-95165425D01*
X115924016Y-95198910D01*
X115921850Y-95199361D01*
X115766508Y-95230261D01*
X115766498Y-95230264D01*
X115620827Y-95290602D01*
X115620814Y-95290609D01*
X115489711Y-95378210D01*
X115489707Y-95378213D01*
X115378213Y-95489707D01*
X115378210Y-95489711D01*
X115290609Y-95620814D01*
X115290602Y-95620827D01*
X115230264Y-95766498D01*
X115230261Y-95766510D01*
X115199500Y-95921153D01*
X115199500Y-96078846D01*
X115230261Y-96233489D01*
X115230264Y-96233501D01*
X115290602Y-96379172D01*
X115290609Y-96379185D01*
X115378210Y-96510288D01*
X115378213Y-96510292D01*
X115489707Y-96621786D01*
X115489711Y-96621789D01*
X115620814Y-96709390D01*
X115620827Y-96709397D01*
X115695225Y-96740213D01*
X115766503Y-96769737D01*
X115921153Y-96800499D01*
X115921156Y-96800500D01*
X115921158Y-96800500D01*
X116078844Y-96800500D01*
X116078845Y-96800499D01*
X116233497Y-96769737D01*
X116379179Y-96709394D01*
X116510289Y-96621789D01*
X116621789Y-96510289D01*
X116709394Y-96379179D01*
X116769737Y-96233497D01*
X116794282Y-96110104D01*
X116800638Y-96078150D01*
X116833023Y-96016239D01*
X116834462Y-96014772D01*
X117132418Y-95716816D01*
X117193740Y-95683334D01*
X117220098Y-95680500D01*
X125214281Y-95680500D01*
X125281320Y-95700185D01*
X125324765Y-95748205D01*
X125344947Y-95787814D01*
X125344948Y-95787815D01*
X125469890Y-95959786D01*
X125620213Y-96110109D01*
X125792182Y-96235050D01*
X125800946Y-96239516D01*
X125851742Y-96287491D01*
X125868536Y-96355312D01*
X125845998Y-96421447D01*
X125800946Y-96460484D01*
X125792182Y-96464949D01*
X125620213Y-96589890D01*
X125469890Y-96740213D01*
X125344948Y-96912184D01*
X125344947Y-96912185D01*
X125324765Y-96951795D01*
X125276791Y-97002591D01*
X125214281Y-97019500D01*
X119921826Y-97019500D01*
X119854787Y-96999815D01*
X119809032Y-96947011D01*
X119800209Y-96919692D01*
X119769738Y-96766508D01*
X119769737Y-96766507D01*
X119769737Y-96766503D01*
X119769735Y-96766498D01*
X119709397Y-96620827D01*
X119709390Y-96620814D01*
X119621789Y-96489711D01*
X119621786Y-96489707D01*
X119510292Y-96378213D01*
X119510288Y-96378210D01*
X119379185Y-96290609D01*
X119379172Y-96290602D01*
X119233501Y-96230264D01*
X119233489Y-96230261D01*
X119078845Y-96199500D01*
X119078842Y-96199500D01*
X118921158Y-96199500D01*
X118921155Y-96199500D01*
X118766510Y-96230261D01*
X118766498Y-96230264D01*
X118620827Y-96290602D01*
X118620814Y-96290609D01*
X118489711Y-96378210D01*
X118489707Y-96378213D01*
X118378213Y-96489707D01*
X118378210Y-96489711D01*
X118290609Y-96620814D01*
X118290602Y-96620827D01*
X118230264Y-96766498D01*
X118230261Y-96766510D01*
X118199500Y-96921153D01*
X118199500Y-97078846D01*
X118230261Y-97233489D01*
X118230264Y-97233501D01*
X118290602Y-97379172D01*
X118290609Y-97379185D01*
X118378210Y-97510288D01*
X118378213Y-97510292D01*
X118489707Y-97621786D01*
X118489711Y-97621789D01*
X118620814Y-97709390D01*
X118620827Y-97709397D01*
X118766498Y-97769735D01*
X118766503Y-97769737D01*
X118831147Y-97782595D01*
X118921849Y-97800638D01*
X118983760Y-97833023D01*
X118985339Y-97834574D01*
X119135139Y-97984374D01*
X119135149Y-97984385D01*
X119139479Y-97988715D01*
X119139480Y-97988716D01*
X119251284Y-98100520D01*
X119251286Y-98100521D01*
X119251290Y-98100524D01*
X119388209Y-98179573D01*
X119388216Y-98179577D01*
X119500019Y-98209534D01*
X119540942Y-98220500D01*
X119540943Y-98220500D01*
X125214281Y-98220500D01*
X125281320Y-98240185D01*
X125324765Y-98288205D01*
X125344947Y-98327814D01*
X125344948Y-98327815D01*
X125469890Y-98499786D01*
X125620213Y-98650109D01*
X125792182Y-98775050D01*
X125800946Y-98779516D01*
X125851742Y-98827491D01*
X125868536Y-98895312D01*
X125845998Y-98961447D01*
X125800946Y-99000484D01*
X125792182Y-99004949D01*
X125620213Y-99129890D01*
X125469890Y-99280213D01*
X125344949Y-99452183D01*
X125324765Y-99491795D01*
X125276791Y-99542591D01*
X125214281Y-99559500D01*
X122460097Y-99559500D01*
X122393058Y-99539815D01*
X122372416Y-99523181D01*
X122334574Y-99485339D01*
X122301089Y-99424016D01*
X122300638Y-99421849D01*
X122272463Y-99280208D01*
X122269737Y-99266503D01*
X122262546Y-99249142D01*
X122209397Y-99120827D01*
X122209390Y-99120814D01*
X122121789Y-98989711D01*
X122121786Y-98989707D01*
X122010292Y-98878213D01*
X122010288Y-98878210D01*
X121879185Y-98790609D01*
X121879172Y-98790602D01*
X121733501Y-98730264D01*
X121733489Y-98730261D01*
X121578845Y-98699500D01*
X121578842Y-98699500D01*
X121421158Y-98699500D01*
X121421155Y-98699500D01*
X121266510Y-98730261D01*
X121266498Y-98730264D01*
X121120827Y-98790602D01*
X121120814Y-98790609D01*
X120989711Y-98878210D01*
X120989707Y-98878213D01*
X120878213Y-98989707D01*
X120878210Y-98989711D01*
X120790609Y-99120814D01*
X120790602Y-99120827D01*
X120730264Y-99266498D01*
X120730261Y-99266510D01*
X120699500Y-99421153D01*
X120699500Y-99578846D01*
X120730261Y-99733489D01*
X120730264Y-99733501D01*
X120790602Y-99879172D01*
X120790609Y-99879185D01*
X120878210Y-100010288D01*
X120878213Y-100010292D01*
X120989707Y-100121786D01*
X120989711Y-100121789D01*
X121120814Y-100209390D01*
X121120827Y-100209397D01*
X121218853Y-100250000D01*
X121266503Y-100269737D01*
X121331147Y-100282595D01*
X121421849Y-100300638D01*
X121483760Y-100333023D01*
X121485339Y-100334574D01*
X121675139Y-100524374D01*
X121675149Y-100524385D01*
X121679479Y-100528715D01*
X121679480Y-100528716D01*
X121791284Y-100640520D01*
X121856917Y-100678412D01*
X121878095Y-100690639D01*
X121878097Y-100690641D01*
X121916151Y-100712611D01*
X121928215Y-100719577D01*
X122080943Y-100760501D01*
X122080946Y-100760501D01*
X122246653Y-100760501D01*
X122246669Y-100760500D01*
X122808059Y-100760500D01*
X122875098Y-100780185D01*
X122920853Y-100832989D01*
X122930797Y-100902147D01*
X122901772Y-100965703D01*
X122895740Y-100972181D01*
X122878213Y-100989707D01*
X122878210Y-100989711D01*
X122790609Y-101120814D01*
X122790602Y-101120827D01*
X122730264Y-101266498D01*
X122730261Y-101266510D01*
X122699500Y-101421153D01*
X122699500Y-101578846D01*
X122730261Y-101733489D01*
X122730264Y-101733501D01*
X122790602Y-101879172D01*
X122790609Y-101879185D01*
X122878210Y-102010288D01*
X122878213Y-102010292D01*
X122989707Y-102121786D01*
X122989711Y-102121789D01*
X123120814Y-102209390D01*
X123120827Y-102209397D01*
X123258683Y-102266498D01*
X123266503Y-102269737D01*
X123331147Y-102282595D01*
X123421849Y-102300638D01*
X123483760Y-102333023D01*
X123485339Y-102334574D01*
X124215139Y-103064374D01*
X124215149Y-103064385D01*
X124219479Y-103068715D01*
X124219480Y-103068716D01*
X124331284Y-103180520D01*
X124381290Y-103209390D01*
X124418095Y-103230639D01*
X124418097Y-103230641D01*
X124468213Y-103259576D01*
X124468215Y-103259577D01*
X124620942Y-103300500D01*
X124620943Y-103300500D01*
X125214281Y-103300500D01*
X125281320Y-103320185D01*
X125324765Y-103368205D01*
X125344947Y-103407814D01*
X125344948Y-103407815D01*
X125469890Y-103579786D01*
X125620213Y-103730109D01*
X125792179Y-103855048D01*
X125792181Y-103855049D01*
X125792184Y-103855051D01*
X125981588Y-103951557D01*
X126183757Y-104017246D01*
X126393713Y-104050500D01*
X126393714Y-104050500D01*
X126606286Y-104050500D01*
X126606287Y-104050500D01*
X126816243Y-104017246D01*
X127018412Y-103951557D01*
X127207816Y-103855051D01*
X127244439Y-103828443D01*
X127379786Y-103730109D01*
X127379788Y-103730106D01*
X127379792Y-103730104D01*
X127530104Y-103579792D01*
X127530106Y-103579788D01*
X127530109Y-103579786D01*
X127655048Y-103407820D01*
X127655047Y-103407820D01*
X127655051Y-103407816D01*
X127751557Y-103218412D01*
X127817246Y-103016243D01*
X127850500Y-102806287D01*
X127850500Y-102593713D01*
X127817246Y-102383757D01*
X127751557Y-102181588D01*
X127655051Y-101992184D01*
X127655049Y-101992181D01*
X127655048Y-101992179D01*
X127530109Y-101820213D01*
X127379786Y-101669890D01*
X127207820Y-101544951D01*
X127207115Y-101544591D01*
X127199054Y-101540485D01*
X127148259Y-101492512D01*
X127131463Y-101424692D01*
X127153999Y-101358556D01*
X127199054Y-101319515D01*
X127207816Y-101315051D01*
X127244439Y-101288443D01*
X127379786Y-101190109D01*
X127379788Y-101190106D01*
X127379792Y-101190104D01*
X127530104Y-101039792D01*
X127530106Y-101039788D01*
X127530109Y-101039786D01*
X127655048Y-100867820D01*
X127655047Y-100867820D01*
X127655051Y-100867816D01*
X127751557Y-100678412D01*
X127817246Y-100476243D01*
X127850500Y-100266287D01*
X127850500Y-100053713D01*
X127817246Y-99843757D01*
X127751557Y-99641588D01*
X127655051Y-99452184D01*
X127655049Y-99452181D01*
X127655048Y-99452179D01*
X127530109Y-99280213D01*
X127379786Y-99129890D01*
X127207820Y-99004951D01*
X127207115Y-99004591D01*
X127199054Y-99000485D01*
X127148259Y-98952512D01*
X127131463Y-98884692D01*
X127153999Y-98818556D01*
X127199054Y-98779515D01*
X127207816Y-98775051D01*
X127229789Y-98759086D01*
X127379786Y-98650109D01*
X127379788Y-98650106D01*
X127379792Y-98650104D01*
X127530104Y-98499792D01*
X127530106Y-98499788D01*
X127530109Y-98499786D01*
X127655048Y-98327820D01*
X127655047Y-98327820D01*
X127655051Y-98327816D01*
X127751557Y-98138412D01*
X127817246Y-97936243D01*
X127850500Y-97726287D01*
X127850500Y-97513713D01*
X127817246Y-97303757D01*
X127751557Y-97101588D01*
X127655051Y-96912184D01*
X127655049Y-96912181D01*
X127655048Y-96912179D01*
X127530109Y-96740213D01*
X127379786Y-96589890D01*
X127207820Y-96464951D01*
X127207115Y-96464591D01*
X127199054Y-96460485D01*
X127148259Y-96412512D01*
X127131463Y-96344692D01*
X127153999Y-96278556D01*
X127199054Y-96239515D01*
X127207816Y-96235051D01*
X127256748Y-96199500D01*
X127379786Y-96110109D01*
X127379788Y-96110106D01*
X127379792Y-96110104D01*
X127530104Y-95959792D01*
X127530106Y-95959788D01*
X127530109Y-95959786D01*
X127655048Y-95787820D01*
X127655047Y-95787820D01*
X127655051Y-95787816D01*
X127751557Y-95598412D01*
X127817246Y-95396243D01*
X127850500Y-95186287D01*
X127850500Y-94973713D01*
X127817246Y-94763757D01*
X127751557Y-94561588D01*
X127655051Y-94372184D01*
X127655049Y-94372181D01*
X127655048Y-94372179D01*
X127530109Y-94200213D01*
X127379786Y-94049890D01*
X127207820Y-93924951D01*
X127207115Y-93924591D01*
X127199054Y-93920485D01*
X127148259Y-93872512D01*
X127131463Y-93804692D01*
X127153999Y-93738556D01*
X127199054Y-93699515D01*
X127207816Y-93695051D01*
X127229789Y-93679086D01*
X127379786Y-93570109D01*
X127379788Y-93570106D01*
X127379792Y-93570104D01*
X127530104Y-93419792D01*
X127530106Y-93419788D01*
X127530109Y-93419786D01*
X127655048Y-93247820D01*
X127655047Y-93247820D01*
X127655051Y-93247816D01*
X127751557Y-93058412D01*
X127817246Y-92856243D01*
X127850500Y-92646287D01*
X127850500Y-92433713D01*
X127817246Y-92223757D01*
X127751557Y-92021588D01*
X127655051Y-91832184D01*
X127655049Y-91832181D01*
X127655048Y-91832179D01*
X127530109Y-91660213D01*
X127416181Y-91546285D01*
X127382696Y-91484962D01*
X127387680Y-91415270D01*
X127429552Y-91359337D01*
X127460529Y-91342422D01*
X127592086Y-91293354D01*
X127592093Y-91293350D01*
X127707187Y-91207190D01*
X127707190Y-91207187D01*
X127793350Y-91092093D01*
X127793354Y-91092086D01*
X127843596Y-90957379D01*
X127843598Y-90957372D01*
X127849999Y-90897844D01*
X127850000Y-90897827D01*
X127850000Y-90250000D01*
X126933012Y-90250000D01*
X126965925Y-90192993D01*
X127000000Y-90065826D01*
X127000000Y-89934174D01*
X126965925Y-89807007D01*
X126933012Y-89750000D01*
X127850000Y-89750000D01*
X127850000Y-89102172D01*
X127849999Y-89102155D01*
X127843598Y-89042627D01*
X127843596Y-89042620D01*
X127793354Y-88907913D01*
X127793350Y-88907906D01*
X127707190Y-88792812D01*
X127707187Y-88792809D01*
X127592093Y-88706649D01*
X127592086Y-88706645D01*
X127457379Y-88656403D01*
X127457372Y-88656401D01*
X127397844Y-88650000D01*
X126750000Y-88650000D01*
X126750000Y-89566988D01*
X126692993Y-89534075D01*
X126565826Y-89500000D01*
X126434174Y-89500000D01*
X126307007Y-89534075D01*
X126250000Y-89566988D01*
X126250000Y-88650000D01*
X125602155Y-88650000D01*
X125542627Y-88656401D01*
X125542620Y-88656403D01*
X125407913Y-88706645D01*
X125407906Y-88706649D01*
X125292812Y-88792809D01*
X125292809Y-88792812D01*
X125206649Y-88907906D01*
X125206645Y-88907913D01*
X125156403Y-89042620D01*
X125156401Y-89042627D01*
X125150000Y-89102155D01*
X125150000Y-89750000D01*
X126066988Y-89750000D01*
X126034075Y-89807007D01*
X126000000Y-89934174D01*
X126000000Y-90065826D01*
X126034075Y-90192993D01*
X126066988Y-90250000D01*
X125150000Y-90250000D01*
X125150000Y-90897844D01*
X125156401Y-90957372D01*
X125156403Y-90957379D01*
X125206645Y-91092086D01*
X125206649Y-91092093D01*
X125292809Y-91207187D01*
X125292812Y-91207190D01*
X125407906Y-91293350D01*
X125407913Y-91293354D01*
X125539470Y-91342422D01*
X125595404Y-91384293D01*
X125619821Y-91449758D01*
X125604969Y-91518031D01*
X125583819Y-91546285D01*
X125469889Y-91660215D01*
X125344948Y-91832184D01*
X125344947Y-91832185D01*
X125324765Y-91871795D01*
X125276791Y-91922591D01*
X125214281Y-91939500D01*
X116244666Y-91939500D01*
X116212572Y-91935275D01*
X116079058Y-91899499D01*
X116079057Y-91899499D01*
X115920943Y-91899499D01*
X115834764Y-91922591D01*
X115768210Y-91940424D01*
X115768209Y-91940425D01*
X115718096Y-91969359D01*
X115718095Y-91969360D01*
X115689158Y-91986066D01*
X115631286Y-92019478D01*
X115485337Y-92165427D01*
X115424014Y-92198911D01*
X115421848Y-92199362D01*
X115266508Y-92230261D01*
X115266498Y-92230264D01*
X115120827Y-92290602D01*
X115120814Y-92290609D01*
X114989711Y-92378210D01*
X114989707Y-92378213D01*
X114878213Y-92489707D01*
X114878210Y-92489711D01*
X114790609Y-92620814D01*
X114790602Y-92620827D01*
X114730264Y-92766498D01*
X114730261Y-92766510D01*
X114699500Y-92921153D01*
X60770388Y-92921153D01*
X57988921Y-90139686D01*
X57955437Y-90078364D01*
X57960421Y-90008672D01*
X58002293Y-89952739D01*
X58033271Y-89935824D01*
X58072606Y-89921153D01*
X82699500Y-89921153D01*
X82699500Y-90078846D01*
X82730261Y-90233489D01*
X82730264Y-90233501D01*
X82790602Y-90379172D01*
X82790609Y-90379185D01*
X82878210Y-90510288D01*
X82878213Y-90510292D01*
X82989707Y-90621786D01*
X82989711Y-90621789D01*
X83120814Y-90709390D01*
X83120827Y-90709397D01*
X83266498Y-90769735D01*
X83266503Y-90769737D01*
X83421153Y-90800499D01*
X83421156Y-90800500D01*
X83421158Y-90800500D01*
X83578844Y-90800500D01*
X83578845Y-90800499D01*
X83733497Y-90769737D01*
X83879179Y-90709394D01*
X84010289Y-90621789D01*
X84121789Y-90510289D01*
X84209394Y-90379179D01*
X84213728Y-90368717D01*
X84269735Y-90233501D01*
X84269737Y-90233497D01*
X84289113Y-90136085D01*
X84300638Y-90078150D01*
X84333023Y-90016239D01*
X84334518Y-90014716D01*
X85212416Y-89136819D01*
X85273739Y-89103334D01*
X85300097Y-89100500D01*
X111920234Y-89100500D01*
X111987273Y-89120185D01*
X111989125Y-89121398D01*
X112120814Y-89209390D01*
X112120827Y-89209397D01*
X112266498Y-89269735D01*
X112266503Y-89269737D01*
X112383398Y-89292989D01*
X112421153Y-89300499D01*
X112421156Y-89300500D01*
X112421158Y-89300500D01*
X112578844Y-89300500D01*
X112578845Y-89300499D01*
X112733497Y-89269737D01*
X112879179Y-89209394D01*
X113010289Y-89121789D01*
X113031578Y-89100500D01*
X113120909Y-89011170D01*
X113121786Y-89010292D01*
X113121789Y-89010289D01*
X113209394Y-88879179D01*
X113269737Y-88733497D01*
X113300500Y-88578842D01*
X113300500Y-88421158D01*
X113300500Y-88421155D01*
X113300499Y-88421153D01*
X113269738Y-88266510D01*
X113269737Y-88266503D01*
X113209794Y-88121786D01*
X113209397Y-88120827D01*
X113209390Y-88120814D01*
X113121789Y-87989711D01*
X113121786Y-87989707D01*
X113010292Y-87878213D01*
X113010288Y-87878210D01*
X112934548Y-87827602D01*
X112889743Y-87773990D01*
X112881036Y-87704665D01*
X112911190Y-87641637D01*
X112970634Y-87604918D01*
X113003439Y-87600500D01*
X116102044Y-87600500D01*
X116169083Y-87620185D01*
X116214838Y-87672989D01*
X116223661Y-87700309D01*
X116230261Y-87733489D01*
X116230264Y-87733501D01*
X116290602Y-87879172D01*
X116290609Y-87879185D01*
X116378210Y-88010288D01*
X116378213Y-88010292D01*
X116489707Y-88121786D01*
X116489711Y-88121789D01*
X116620814Y-88209390D01*
X116620827Y-88209397D01*
X116758683Y-88266498D01*
X116766503Y-88269737D01*
X116921153Y-88300499D01*
X116921156Y-88300500D01*
X116921158Y-88300500D01*
X117078844Y-88300500D01*
X117078845Y-88300499D01*
X117233497Y-88269737D01*
X117379179Y-88209394D01*
X117510289Y-88121789D01*
X117621789Y-88010289D01*
X117709394Y-87879179D01*
X117769737Y-87733497D01*
X117800500Y-87578842D01*
X117800500Y-87421158D01*
X117800500Y-87421155D01*
X117800499Y-87421153D01*
X117774531Y-87290606D01*
X117769737Y-87266503D01*
X117755935Y-87233181D01*
X117709397Y-87120827D01*
X117709390Y-87120814D01*
X117621789Y-86989711D01*
X117621786Y-86989707D01*
X117510292Y-86878213D01*
X117510288Y-86878210D01*
X117379185Y-86790609D01*
X117379172Y-86790602D01*
X117233501Y-86730264D01*
X117233491Y-86730261D01*
X117078151Y-86699362D01*
X117016241Y-86666977D01*
X117014662Y-86665426D01*
X116868717Y-86519481D01*
X116868716Y-86519480D01*
X116781904Y-86469360D01*
X116781904Y-86469359D01*
X116781900Y-86469358D01*
X116731785Y-86440423D01*
X116579057Y-86399499D01*
X116420943Y-86399499D01*
X116413347Y-86399499D01*
X116413331Y-86399500D01*
X87586670Y-86399500D01*
X87586654Y-86399499D01*
X87579058Y-86399499D01*
X87420943Y-86399499D01*
X87344579Y-86419961D01*
X87268214Y-86440423D01*
X87268209Y-86440426D01*
X87131290Y-86519475D01*
X87131286Y-86519478D01*
X86985337Y-86665427D01*
X86924014Y-86698911D01*
X86921848Y-86699362D01*
X86766508Y-86730261D01*
X86766498Y-86730264D01*
X86620827Y-86790602D01*
X86620814Y-86790609D01*
X86489711Y-86878210D01*
X86489707Y-86878213D01*
X86378213Y-86989707D01*
X86378210Y-86989711D01*
X86290609Y-87120814D01*
X86290602Y-87120827D01*
X86230264Y-87266498D01*
X86230261Y-87266510D01*
X86199500Y-87421153D01*
X86199500Y-87578846D01*
X86230261Y-87733489D01*
X86232031Y-87739324D01*
X86229279Y-87740158D01*
X86235503Y-87797359D01*
X86204309Y-87859878D01*
X86144266Y-87895608D01*
X86113445Y-87899500D01*
X84920940Y-87899500D01*
X84880019Y-87910464D01*
X84880019Y-87910465D01*
X84845584Y-87919692D01*
X84768214Y-87940423D01*
X84768209Y-87940426D01*
X84631290Y-88019475D01*
X84631282Y-88019481D01*
X83485339Y-89165425D01*
X83424016Y-89198910D01*
X83421850Y-89199361D01*
X83266508Y-89230261D01*
X83266498Y-89230264D01*
X83120827Y-89290602D01*
X83120814Y-89290609D01*
X82989711Y-89378210D01*
X82989707Y-89378213D01*
X82878213Y-89489707D01*
X82878210Y-89489711D01*
X82790609Y-89620814D01*
X82790602Y-89620827D01*
X82730264Y-89766498D01*
X82730261Y-89766510D01*
X82699500Y-89921153D01*
X58072606Y-89921153D01*
X58092326Y-89913798D01*
X58092326Y-89913797D01*
X58092331Y-89913796D01*
X58207546Y-89827546D01*
X58293796Y-89712331D01*
X58344091Y-89577483D01*
X58350500Y-89517873D01*
X58350499Y-87722128D01*
X58344091Y-87662517D01*
X58336303Y-87641637D01*
X58293797Y-87527671D01*
X58293793Y-87527664D01*
X58207547Y-87412455D01*
X58207544Y-87412452D01*
X58092335Y-87326206D01*
X58092328Y-87326202D01*
X57957482Y-87275908D01*
X57957483Y-87275908D01*
X57897883Y-87269501D01*
X57897881Y-87269500D01*
X57897873Y-87269500D01*
X57897865Y-87269500D01*
X57887309Y-87269500D01*
X57820270Y-87249815D01*
X57799628Y-87233181D01*
X57487600Y-86921153D01*
X81199500Y-86921153D01*
X81199500Y-87078846D01*
X81230261Y-87233489D01*
X81230264Y-87233501D01*
X81290602Y-87379172D01*
X81290609Y-87379185D01*
X81378210Y-87510288D01*
X81378213Y-87510292D01*
X81489707Y-87621786D01*
X81489711Y-87621789D01*
X81620814Y-87709390D01*
X81620827Y-87709397D01*
X81693716Y-87739588D01*
X81766503Y-87769737D01*
X81871418Y-87790606D01*
X81921153Y-87800499D01*
X81921156Y-87800500D01*
X81921158Y-87800500D01*
X82078844Y-87800500D01*
X82078845Y-87800499D01*
X82233497Y-87769737D01*
X82379179Y-87709394D01*
X82510289Y-87621789D01*
X82621789Y-87510289D01*
X82709394Y-87379179D01*
X82769737Y-87233497D01*
X82792151Y-87120814D01*
X82800638Y-87078150D01*
X82833023Y-87016239D01*
X82834518Y-87014716D01*
X83712416Y-86136819D01*
X83773739Y-86103334D01*
X83800097Y-86100500D01*
X116920234Y-86100500D01*
X116987273Y-86120185D01*
X116989125Y-86121398D01*
X117120814Y-86209390D01*
X117120827Y-86209397D01*
X117266498Y-86269735D01*
X117266503Y-86269737D01*
X117421153Y-86300499D01*
X117421156Y-86300500D01*
X117421158Y-86300500D01*
X117578844Y-86300500D01*
X117578845Y-86300499D01*
X117733497Y-86269737D01*
X117879179Y-86209394D01*
X118010289Y-86121789D01*
X118121789Y-86010289D01*
X118209394Y-85879179D01*
X118269737Y-85733497D01*
X118300500Y-85578842D01*
X118300500Y-85421158D01*
X118300500Y-85421155D01*
X118300499Y-85421153D01*
X118290809Y-85372439D01*
X118269737Y-85266503D01*
X118213728Y-85131284D01*
X118209397Y-85120827D01*
X118209390Y-85120814D01*
X118121789Y-84989711D01*
X118121786Y-84989707D01*
X118010292Y-84878213D01*
X118010288Y-84878210D01*
X117879185Y-84790609D01*
X117879172Y-84790602D01*
X117733501Y-84730264D01*
X117733489Y-84730261D01*
X117578845Y-84699500D01*
X117578842Y-84699500D01*
X117421158Y-84699500D01*
X117421155Y-84699500D01*
X117266510Y-84730261D01*
X117266498Y-84730264D01*
X117120827Y-84790602D01*
X117120814Y-84790609D01*
X116989125Y-84878602D01*
X116922447Y-84899480D01*
X116920234Y-84899500D01*
X95003439Y-84899500D01*
X94936400Y-84879815D01*
X94890645Y-84827011D01*
X94880701Y-84757853D01*
X94909726Y-84694297D01*
X94934548Y-84672398D01*
X94963981Y-84652730D01*
X95010289Y-84621789D01*
X95121789Y-84510289D01*
X95209394Y-84379179D01*
X95269737Y-84233497D01*
X95300500Y-84078842D01*
X95300500Y-83921158D01*
X95300500Y-83921155D01*
X95300499Y-83921153D01*
X95269737Y-83766503D01*
X95246080Y-83709390D01*
X95209397Y-83620827D01*
X95209390Y-83620814D01*
X95121789Y-83489711D01*
X95121786Y-83489707D01*
X95010292Y-83378213D01*
X95010288Y-83378210D01*
X94879185Y-83290609D01*
X94879172Y-83290602D01*
X94733501Y-83230264D01*
X94733491Y-83230261D01*
X94578151Y-83199362D01*
X94516241Y-83166977D01*
X94514662Y-83165426D01*
X93987590Y-82638355D01*
X93987588Y-82638352D01*
X93868717Y-82519481D01*
X93868716Y-82519480D01*
X93781904Y-82469360D01*
X93781904Y-82469359D01*
X93781900Y-82469358D01*
X93731785Y-82440423D01*
X93579057Y-82399499D01*
X93420943Y-82399499D01*
X93413347Y-82399499D01*
X93413331Y-82399500D01*
X84079766Y-82399500D01*
X84012727Y-82379815D01*
X84010875Y-82378602D01*
X83879185Y-82290609D01*
X83879172Y-82290602D01*
X83733501Y-82230264D01*
X83733489Y-82230261D01*
X83578845Y-82199500D01*
X83578842Y-82199500D01*
X83421158Y-82199500D01*
X83421155Y-82199500D01*
X83266510Y-82230261D01*
X83266498Y-82230264D01*
X83120827Y-82290602D01*
X83120814Y-82290609D01*
X82989711Y-82378210D01*
X82989707Y-82378213D01*
X82878213Y-82489707D01*
X82878210Y-82489711D01*
X82790609Y-82620814D01*
X82790602Y-82620827D01*
X82730264Y-82766498D01*
X82730261Y-82766510D01*
X82699500Y-82921153D01*
X82699500Y-83078846D01*
X82730261Y-83233489D01*
X82730264Y-83233501D01*
X82790602Y-83379172D01*
X82790609Y-83379185D01*
X82878210Y-83510288D01*
X82878213Y-83510292D01*
X82989707Y-83621786D01*
X82989711Y-83621789D01*
X83120814Y-83709390D01*
X83120827Y-83709397D01*
X83258683Y-83766498D01*
X83266503Y-83769737D01*
X83421153Y-83800499D01*
X83421156Y-83800500D01*
X83421158Y-83800500D01*
X83578844Y-83800500D01*
X83578845Y-83800499D01*
X83733497Y-83769737D01*
X83879179Y-83709394D01*
X83879185Y-83709390D01*
X84010875Y-83621398D01*
X84077553Y-83600520D01*
X84079766Y-83600500D01*
X93199903Y-83600500D01*
X93266942Y-83620185D01*
X93287584Y-83636819D01*
X93665425Y-84014660D01*
X93698910Y-84075983D01*
X93699361Y-84078149D01*
X93730261Y-84233491D01*
X93730264Y-84233501D01*
X93790602Y-84379172D01*
X93790609Y-84379185D01*
X93878210Y-84510288D01*
X93878213Y-84510292D01*
X93989707Y-84621786D01*
X93989711Y-84621789D01*
X94065452Y-84672398D01*
X94110257Y-84726010D01*
X94118964Y-84795335D01*
X94088810Y-84858363D01*
X94029366Y-84895082D01*
X93996561Y-84899500D01*
X83420940Y-84899500D01*
X83380019Y-84910464D01*
X83380019Y-84910465D01*
X83342751Y-84920451D01*
X83268214Y-84940423D01*
X83268209Y-84940426D01*
X83131290Y-85019475D01*
X83131282Y-85019481D01*
X81985339Y-86165425D01*
X81924016Y-86198910D01*
X81921850Y-86199361D01*
X81766508Y-86230261D01*
X81766498Y-86230264D01*
X81620827Y-86290602D01*
X81620814Y-86290609D01*
X81489711Y-86378210D01*
X81489707Y-86378213D01*
X81378213Y-86489707D01*
X81378210Y-86489711D01*
X81290609Y-86620814D01*
X81290602Y-86620827D01*
X81230264Y-86766498D01*
X81230261Y-86766510D01*
X81199500Y-86921153D01*
X57487600Y-86921153D01*
X57129408Y-86562962D01*
X57192993Y-86545925D01*
X57307007Y-86480099D01*
X57400099Y-86387007D01*
X57465925Y-86272993D01*
X57482962Y-86209409D01*
X58115270Y-86841717D01*
X58115271Y-86841716D01*
X58154620Y-86787558D01*
X58251095Y-86598217D01*
X58316757Y-86396130D01*
X58316757Y-86396127D01*
X58350000Y-86186246D01*
X58350000Y-85973753D01*
X58316757Y-85763872D01*
X58316757Y-85763869D01*
X58251095Y-85561782D01*
X58154624Y-85372449D01*
X58115270Y-85318282D01*
X58115269Y-85318282D01*
X57482962Y-85950590D01*
X57465925Y-85887007D01*
X57400099Y-85772993D01*
X57307007Y-85679901D01*
X57192993Y-85614075D01*
X57129409Y-85597037D01*
X57761716Y-84964728D01*
X57707547Y-84925373D01*
X57707547Y-84925372D01*
X57698500Y-84920763D01*
X57647706Y-84872788D01*
X57630912Y-84804966D01*
X57653451Y-84738832D01*
X57698508Y-84699793D01*
X57707816Y-84695051D01*
X57808653Y-84621789D01*
X57879786Y-84570109D01*
X57879788Y-84570106D01*
X57879792Y-84570104D01*
X58030104Y-84419792D01*
X58030106Y-84419788D01*
X58030109Y-84419786D01*
X58088661Y-84339193D01*
X58155051Y-84247816D01*
X58162347Y-84233497D01*
X58175235Y-84208205D01*
X58223209Y-84157409D01*
X58285719Y-84140500D01*
X59610088Y-84140500D01*
X59677127Y-84160185D01*
X59722882Y-84212989D01*
X59728747Y-84228500D01*
X59730262Y-84233496D01*
X59790602Y-84379172D01*
X59790609Y-84379185D01*
X59878210Y-84510288D01*
X59878213Y-84510292D01*
X59989707Y-84621786D01*
X59989711Y-84621789D01*
X60120814Y-84709390D01*
X60120827Y-84709397D01*
X60237812Y-84757853D01*
X60266503Y-84769737D01*
X60376199Y-84791557D01*
X60421153Y-84800499D01*
X60421156Y-84800500D01*
X60421158Y-84800500D01*
X60578844Y-84800500D01*
X60578845Y-84800499D01*
X60733497Y-84769737D01*
X60879179Y-84709394D01*
X61010289Y-84621789D01*
X61121789Y-84510289D01*
X61209394Y-84379179D01*
X61269737Y-84233497D01*
X61300500Y-84078842D01*
X61300500Y-83921158D01*
X61300500Y-83921155D01*
X61300499Y-83921153D01*
X61269737Y-83766503D01*
X61246080Y-83709390D01*
X61209397Y-83620827D01*
X61209390Y-83620814D01*
X61121789Y-83489711D01*
X61121786Y-83489707D01*
X61010292Y-83378213D01*
X61010288Y-83378210D01*
X60879185Y-83290609D01*
X60879172Y-83290602D01*
X60733501Y-83230264D01*
X60733491Y-83230261D01*
X60578151Y-83199362D01*
X60516241Y-83166977D01*
X60514662Y-83165426D01*
X60408717Y-83059481D01*
X60408716Y-83059480D01*
X60344584Y-83022454D01*
X60344584Y-83022453D01*
X60328366Y-83013091D01*
X60321904Y-83009360D01*
X60321902Y-83009358D01*
X60321901Y-83009358D01*
X60271785Y-82980423D01*
X60119057Y-82939499D01*
X59960943Y-82939499D01*
X59953347Y-82939499D01*
X59953331Y-82939500D01*
X58285719Y-82939500D01*
X58223237Y-82921153D01*
X69699500Y-82921153D01*
X69699500Y-83078846D01*
X69730261Y-83233489D01*
X69730264Y-83233501D01*
X69790602Y-83379172D01*
X69790609Y-83379185D01*
X69878210Y-83510288D01*
X69878213Y-83510292D01*
X69989707Y-83621786D01*
X69989711Y-83621789D01*
X70120814Y-83709390D01*
X70120827Y-83709397D01*
X70258683Y-83766498D01*
X70266503Y-83769737D01*
X70421153Y-83800499D01*
X70421156Y-83800500D01*
X70421158Y-83800500D01*
X70578844Y-83800500D01*
X70578845Y-83800499D01*
X70733497Y-83769737D01*
X70879179Y-83709394D01*
X71010289Y-83621789D01*
X71121789Y-83510289D01*
X71209394Y-83379179D01*
X71269737Y-83233497D01*
X71289113Y-83136085D01*
X71300638Y-83078150D01*
X71333023Y-83016239D01*
X71334518Y-83014716D01*
X72712416Y-81636819D01*
X72773739Y-81603334D01*
X72800097Y-81600500D01*
X84420234Y-81600500D01*
X84487273Y-81620185D01*
X84489125Y-81621398D01*
X84620814Y-81709390D01*
X84620827Y-81709397D01*
X84766498Y-81769735D01*
X84766503Y-81769737D01*
X84921153Y-81800499D01*
X84921156Y-81800500D01*
X84921158Y-81800500D01*
X85078844Y-81800500D01*
X85078845Y-81800499D01*
X85233497Y-81769737D01*
X85379179Y-81709394D01*
X85510289Y-81621789D01*
X85621789Y-81510289D01*
X85709394Y-81379179D01*
X85769737Y-81233497D01*
X85800500Y-81078842D01*
X85800500Y-80921158D01*
X85800500Y-80921155D01*
X85800499Y-80921153D01*
X85774531Y-80790606D01*
X85769737Y-80766503D01*
X85769735Y-80766498D01*
X85709397Y-80620827D01*
X85709390Y-80620814D01*
X85621789Y-80489711D01*
X85621786Y-80489707D01*
X85510292Y-80378213D01*
X85510288Y-80378210D01*
X85379185Y-80290609D01*
X85379172Y-80290602D01*
X85233501Y-80230264D01*
X85233489Y-80230261D01*
X85078845Y-80199500D01*
X85078842Y-80199500D01*
X84921158Y-80199500D01*
X84921155Y-80199500D01*
X84766510Y-80230261D01*
X84766498Y-80230264D01*
X84620827Y-80290602D01*
X84620814Y-80290609D01*
X84489125Y-80378602D01*
X84422447Y-80399480D01*
X84420234Y-80399500D01*
X72579057Y-80399500D01*
X72420943Y-80399500D01*
X72268215Y-80440423D01*
X72268214Y-80440423D01*
X72268212Y-80440424D01*
X72268209Y-80440425D01*
X72218096Y-80469359D01*
X72218095Y-80469360D01*
X72182853Y-80489707D01*
X72131285Y-80519479D01*
X72131282Y-80519481D01*
X70485339Y-82165425D01*
X70424016Y-82198910D01*
X70421850Y-82199361D01*
X70266508Y-82230261D01*
X70266498Y-82230264D01*
X70120827Y-82290602D01*
X70120814Y-82290609D01*
X69989711Y-82378210D01*
X69989707Y-82378213D01*
X69878213Y-82489707D01*
X69878210Y-82489711D01*
X69790609Y-82620814D01*
X69790602Y-82620827D01*
X69730264Y-82766498D01*
X69730261Y-82766510D01*
X69699500Y-82921153D01*
X58223237Y-82921153D01*
X58218680Y-82919815D01*
X58175235Y-82871795D01*
X58155052Y-82832185D01*
X58155051Y-82832184D01*
X58030109Y-82660213D01*
X57879786Y-82509890D01*
X57707820Y-82384951D01*
X57707115Y-82384591D01*
X57699054Y-82380485D01*
X57648259Y-82332512D01*
X57631463Y-82264692D01*
X57653999Y-82198556D01*
X57699054Y-82159515D01*
X57707816Y-82155051D01*
X57753602Y-82121786D01*
X57879786Y-82030109D01*
X57879788Y-82030106D01*
X57879792Y-82030104D01*
X58030104Y-81879792D01*
X58030106Y-81879788D01*
X58030109Y-81879786D01*
X58153902Y-81709397D01*
X58155051Y-81707816D01*
X58251557Y-81518412D01*
X58283159Y-81421153D01*
X67699500Y-81421153D01*
X67699500Y-81578846D01*
X67730261Y-81733489D01*
X67730264Y-81733501D01*
X67790602Y-81879172D01*
X67790609Y-81879185D01*
X67878210Y-82010288D01*
X67878213Y-82010292D01*
X67989707Y-82121786D01*
X67989711Y-82121789D01*
X68120814Y-82209390D01*
X68120827Y-82209397D01*
X68222612Y-82251557D01*
X68266503Y-82269737D01*
X68421153Y-82300499D01*
X68421156Y-82300500D01*
X68421158Y-82300500D01*
X68578844Y-82300500D01*
X68578845Y-82300499D01*
X68733497Y-82269737D01*
X68879179Y-82209394D01*
X69010289Y-82121789D01*
X69121789Y-82010289D01*
X69209394Y-81879179D01*
X69269737Y-81733497D01*
X69296192Y-81600500D01*
X69300638Y-81578150D01*
X69333023Y-81516239D01*
X69334517Y-81514717D01*
X71712417Y-79136819D01*
X71773740Y-79103334D01*
X71800098Y-79100500D01*
X87413331Y-79100500D01*
X87413347Y-79100501D01*
X87420943Y-79100501D01*
X87579054Y-79100501D01*
X87579057Y-79100501D01*
X87731785Y-79059577D01*
X87781904Y-79030639D01*
X87868716Y-78980520D01*
X87980520Y-78868716D01*
X87980520Y-78868714D01*
X87990728Y-78858507D01*
X87990729Y-78858504D01*
X93480520Y-73368716D01*
X93559577Y-73231784D01*
X93600501Y-73079057D01*
X93600501Y-73079054D01*
X93601562Y-73070998D01*
X93603018Y-73071189D01*
X93620186Y-73012725D01*
X93621399Y-73010873D01*
X93709390Y-72879185D01*
X93709390Y-72879184D01*
X93709394Y-72879179D01*
X93717897Y-72858652D01*
X93746672Y-72789182D01*
X93769737Y-72733497D01*
X93800500Y-72578842D01*
X93800500Y-72421158D01*
X93800500Y-72421155D01*
X93800499Y-72421153D01*
X93774531Y-72290606D01*
X93769737Y-72266503D01*
X93769735Y-72266498D01*
X93709397Y-72120827D01*
X93709390Y-72120814D01*
X93621789Y-71989711D01*
X93621786Y-71989707D01*
X93510292Y-71878213D01*
X93510288Y-71878210D01*
X93379185Y-71790609D01*
X93379172Y-71790602D01*
X93233501Y-71730264D01*
X93233489Y-71730261D01*
X93078845Y-71699500D01*
X93078842Y-71699500D01*
X92921158Y-71699500D01*
X92921155Y-71699500D01*
X92766510Y-71730261D01*
X92766498Y-71730264D01*
X92620827Y-71790602D01*
X92620814Y-71790609D01*
X92489711Y-71878210D01*
X92489707Y-71878213D01*
X92378213Y-71989707D01*
X92378210Y-71989711D01*
X92290609Y-72120814D01*
X92290602Y-72120827D01*
X92230264Y-72266498D01*
X92230261Y-72266510D01*
X92199500Y-72421153D01*
X92199500Y-72578846D01*
X92230260Y-72733488D01*
X92230261Y-72733489D01*
X92230263Y-72733497D01*
X92253329Y-72789185D01*
X92260797Y-72858652D01*
X92229521Y-72921131D01*
X92226448Y-72924315D01*
X87287584Y-77863181D01*
X87226261Y-77896666D01*
X87199903Y-77899500D01*
X71586670Y-77899500D01*
X71586654Y-77899499D01*
X71579058Y-77899499D01*
X71420943Y-77899499D01*
X71344579Y-77919961D01*
X71268214Y-77940423D01*
X71268209Y-77940426D01*
X71131290Y-78019475D01*
X71131282Y-78019481D01*
X68485339Y-80665425D01*
X68424016Y-80698910D01*
X68421850Y-80699361D01*
X68266508Y-80730261D01*
X68266498Y-80730264D01*
X68120827Y-80790602D01*
X68120814Y-80790609D01*
X67989711Y-80878210D01*
X67989707Y-80878213D01*
X67878213Y-80989707D01*
X67878210Y-80989711D01*
X67790609Y-81120814D01*
X67790602Y-81120827D01*
X67730264Y-81266498D01*
X67730261Y-81266510D01*
X67699500Y-81421153D01*
X58283159Y-81421153D01*
X58317246Y-81316243D01*
X58350500Y-81106287D01*
X58350500Y-80893713D01*
X58317246Y-80683757D01*
X58251557Y-80481588D01*
X58155051Y-80292184D01*
X58155049Y-80292181D01*
X58155048Y-80292179D01*
X58030109Y-80120213D01*
X57879786Y-79969890D01*
X57707820Y-79844951D01*
X57518414Y-79748444D01*
X57518413Y-79748443D01*
X57518412Y-79748443D01*
X57316243Y-79682754D01*
X57316241Y-79682753D01*
X57316240Y-79682753D01*
X57154957Y-79657208D01*
X57106287Y-79649500D01*
X56893713Y-79649500D01*
X56845042Y-79657208D01*
X56683760Y-79682753D01*
X56481585Y-79748444D01*
X56292179Y-79844951D01*
X56120213Y-79969890D01*
X55969890Y-80120213D01*
X55844951Y-80292179D01*
X55748444Y-80481585D01*
X55682753Y-80683760D01*
X55665830Y-80790609D01*
X55649500Y-80893713D01*
X55649500Y-81106287D01*
X55682754Y-81316243D01*
X55745803Y-81510288D01*
X55748444Y-81518414D01*
X55844951Y-81707820D01*
X55969890Y-81879786D01*
X56120213Y-82030109D01*
X56292182Y-82155050D01*
X56300946Y-82159516D01*
X56351742Y-82207491D01*
X56368536Y-82275312D01*
X56345998Y-82341447D01*
X56300946Y-82380484D01*
X56292182Y-82384949D01*
X56120213Y-82509890D01*
X55969890Y-82660213D01*
X55844951Y-82832179D01*
X55748444Y-83021585D01*
X55682753Y-83223760D01*
X55649500Y-83433713D01*
X55649500Y-83646286D01*
X55668541Y-83766510D01*
X55682754Y-83856243D01*
X55703846Y-83921158D01*
X55748444Y-84058414D01*
X55844951Y-84247820D01*
X55969890Y-84419786D01*
X56120213Y-84570109D01*
X56292179Y-84695048D01*
X56292181Y-84695049D01*
X56292184Y-84695051D01*
X56301493Y-84699794D01*
X56352290Y-84747766D01*
X56369087Y-84815587D01*
X56346552Y-84881722D01*
X56301505Y-84920760D01*
X56292446Y-84925376D01*
X56292440Y-84925380D01*
X56238282Y-84964727D01*
X56238282Y-84964728D01*
X56870591Y-85597037D01*
X56807007Y-85614075D01*
X56692993Y-85679901D01*
X56599901Y-85772993D01*
X56534075Y-85887007D01*
X56517037Y-85950591D01*
X55884728Y-85318282D01*
X55884727Y-85318282D01*
X55845380Y-85372439D01*
X55748904Y-85561782D01*
X55683242Y-85763869D01*
X55683242Y-85763872D01*
X55650000Y-85973753D01*
X55650000Y-86186246D01*
X55683242Y-86396127D01*
X55683242Y-86396130D01*
X55748904Y-86598217D01*
X55845375Y-86787550D01*
X55884728Y-86841716D01*
X56517037Y-86209408D01*
X56534075Y-86272993D01*
X56599901Y-86387007D01*
X56692993Y-86480099D01*
X56807007Y-86545925D01*
X56870590Y-86562962D01*
X56200370Y-87233181D01*
X56139047Y-87266666D01*
X56112698Y-87269500D01*
X56102134Y-87269500D01*
X56102123Y-87269501D01*
X56042516Y-87275908D01*
X55907671Y-87326202D01*
X55907664Y-87326206D01*
X55792455Y-87412452D01*
X55792452Y-87412455D01*
X55706206Y-87527664D01*
X55706202Y-87527671D01*
X55655908Y-87662517D01*
X55649501Y-87722116D01*
X55649501Y-87722123D01*
X55649500Y-87722135D01*
X55649500Y-87895500D01*
X55629815Y-87962539D01*
X55577011Y-88008294D01*
X55525500Y-88019500D01*
X55421826Y-88019500D01*
X55354787Y-87999815D01*
X55309032Y-87947011D01*
X55300209Y-87919692D01*
X55269738Y-87766508D01*
X55269737Y-87766507D01*
X55269737Y-87766503D01*
X55266154Y-87757853D01*
X55209397Y-87620827D01*
X55209390Y-87620814D01*
X55121789Y-87489711D01*
X55121786Y-87489707D01*
X55010292Y-87378213D01*
X55010288Y-87378210D01*
X54879185Y-87290609D01*
X54879172Y-87290602D01*
X54733501Y-87230264D01*
X54733489Y-87230261D01*
X54578845Y-87199500D01*
X54578842Y-87199500D01*
X54421158Y-87199500D01*
X54421155Y-87199500D01*
X54266510Y-87230261D01*
X54266498Y-87230264D01*
X54120827Y-87290602D01*
X54120814Y-87290609D01*
X53989711Y-87378210D01*
X53989707Y-87378213D01*
X53878213Y-87489707D01*
X53878210Y-87489711D01*
X53790609Y-87620814D01*
X53790602Y-87620827D01*
X53730264Y-87766498D01*
X53730261Y-87766510D01*
X53699500Y-87921153D01*
X53699500Y-88078846D01*
X53730261Y-88233489D01*
X53730264Y-88233501D01*
X53790602Y-88379172D01*
X53790609Y-88379185D01*
X53878210Y-88510288D01*
X53878213Y-88510292D01*
X53989707Y-88621786D01*
X53989711Y-88621789D01*
X54120814Y-88709390D01*
X54120827Y-88709397D01*
X54266498Y-88769735D01*
X54266503Y-88769737D01*
X54331147Y-88782595D01*
X54421849Y-88800638D01*
X54483760Y-88833023D01*
X54485339Y-88834574D01*
X54635139Y-88984374D01*
X54635149Y-88984385D01*
X54639479Y-88988715D01*
X54639480Y-88988716D01*
X54751284Y-89100520D01*
X54751286Y-89100521D01*
X54751290Y-89100524D01*
X54788123Y-89121789D01*
X54888216Y-89179577D01*
X54999495Y-89209394D01*
X55040942Y-89220500D01*
X55040943Y-89220500D01*
X55525501Y-89220500D01*
X55592540Y-89240185D01*
X55638295Y-89292989D01*
X55649501Y-89344500D01*
X55649501Y-89517876D01*
X55655908Y-89577483D01*
X55706202Y-89712328D01*
X55706206Y-89712335D01*
X55792452Y-89827544D01*
X55792455Y-89827547D01*
X55907664Y-89913793D01*
X55907671Y-89913797D01*
X55952618Y-89930561D01*
X56042517Y-89964091D01*
X56102127Y-89970500D01*
X56276462Y-89970499D01*
X56343501Y-89990183D01*
X56389256Y-90042987D01*
X56397363Y-90071214D01*
X56397396Y-90071206D01*
X56397884Y-90073027D01*
X56399401Y-90078309D01*
X56399499Y-90079055D01*
X56399499Y-90079057D01*
X56415745Y-90139687D01*
X56440423Y-90231785D01*
X56469358Y-90281900D01*
X56469359Y-90281904D01*
X56469360Y-90281904D01*
X56519479Y-90368714D01*
X56519481Y-90368717D01*
X56638349Y-90487585D01*
X56638355Y-90487590D01*
X65338583Y-99187819D01*
X65372068Y-99249142D01*
X65367084Y-99318834D01*
X65325212Y-99374767D01*
X65259748Y-99399184D01*
X65250902Y-99399500D01*
X54586669Y-99399500D01*
X54586653Y-99399499D01*
X54579057Y-99399499D01*
X54420943Y-99399499D01*
X54329446Y-99424016D01*
X54268214Y-99440423D01*
X54247847Y-99452183D01*
X54247844Y-99452184D01*
X54131290Y-99519475D01*
X54131282Y-99519481D01*
X51985339Y-101665425D01*
X51924016Y-101698910D01*
X51921850Y-101699361D01*
X51766508Y-101730261D01*
X51766498Y-101730264D01*
X51620827Y-101790602D01*
X51620814Y-101790609D01*
X51489711Y-101878210D01*
X51489707Y-101878213D01*
X51378213Y-101989707D01*
X51378210Y-101989711D01*
X51290609Y-102120814D01*
X51290602Y-102120827D01*
X51230264Y-102266498D01*
X51230261Y-102266510D01*
X51199500Y-102421153D01*
X51198903Y-102427218D01*
X51197829Y-102429875D01*
X51198238Y-102432713D01*
X51184825Y-102462081D01*
X51172743Y-102492006D01*
X51170403Y-102493661D01*
X51169213Y-102496269D01*
X51161203Y-102501416D01*
X50714082Y-102501416D01*
X50713651Y-102415689D01*
X50631007Y-85969504D01*
X50605479Y-80889464D01*
X50590440Y-77896666D01*
X50580513Y-75921153D01*
X54699500Y-75921153D01*
X54699500Y-76078846D01*
X54730261Y-76233489D01*
X54730264Y-76233501D01*
X54790602Y-76379172D01*
X54790609Y-76379185D01*
X54878210Y-76510288D01*
X54878213Y-76510292D01*
X54989707Y-76621786D01*
X54989711Y-76621789D01*
X55120814Y-76709390D01*
X55120827Y-76709397D01*
X55266498Y-76769735D01*
X55266503Y-76769737D01*
X55421153Y-76800499D01*
X55421156Y-76800500D01*
X55421158Y-76800500D01*
X55578844Y-76800500D01*
X55578845Y-76800499D01*
X55733497Y-76769737D01*
X55879179Y-76709394D01*
X55879185Y-76709390D01*
X56010875Y-76621398D01*
X56077553Y-76600520D01*
X56079766Y-76600500D01*
X70413331Y-76600500D01*
X70413347Y-76600501D01*
X70420943Y-76600501D01*
X70579054Y-76600501D01*
X70579057Y-76600501D01*
X70731785Y-76559577D01*
X70781904Y-76530639D01*
X70868716Y-76480520D01*
X70980520Y-76368716D01*
X70980520Y-76368714D01*
X70990728Y-76358507D01*
X70990729Y-76358504D01*
X73514664Y-73834571D01*
X73575985Y-73801088D01*
X73578152Y-73800637D01*
X73578841Y-73800500D01*
X73578842Y-73800500D01*
X73733497Y-73769737D01*
X73879179Y-73709394D01*
X74010289Y-73621789D01*
X74121789Y-73510289D01*
X74209394Y-73379179D01*
X74213728Y-73368717D01*
X74269735Y-73233501D01*
X74269737Y-73233497D01*
X74300500Y-73078842D01*
X74300500Y-72921158D01*
X74300500Y-72921155D01*
X74300499Y-72921153D01*
X74269738Y-72766510D01*
X74269738Y-72766508D01*
X74269737Y-72766503D01*
X74256062Y-72733488D01*
X74209397Y-72620827D01*
X74209390Y-72620814D01*
X74121789Y-72489711D01*
X74121786Y-72489707D01*
X74010292Y-72378213D01*
X74010288Y-72378210D01*
X73879185Y-72290609D01*
X73879172Y-72290602D01*
X73733501Y-72230264D01*
X73733489Y-72230261D01*
X73578845Y-72199500D01*
X73578842Y-72199500D01*
X73421158Y-72199500D01*
X73421155Y-72199500D01*
X73266510Y-72230261D01*
X73266498Y-72230264D01*
X73120827Y-72290602D01*
X73120814Y-72290609D01*
X72989711Y-72378210D01*
X72989707Y-72378213D01*
X72878213Y-72489707D01*
X72878210Y-72489711D01*
X72790609Y-72620814D01*
X72790602Y-72620827D01*
X72730264Y-72766498D01*
X72730261Y-72766508D01*
X72699362Y-72921848D01*
X72666977Y-72983759D01*
X72665426Y-72985337D01*
X70287584Y-75363181D01*
X70226261Y-75396666D01*
X70199903Y-75399500D01*
X56079766Y-75399500D01*
X56012727Y-75379815D01*
X56010875Y-75378602D01*
X55879185Y-75290609D01*
X55879172Y-75290602D01*
X55733501Y-75230264D01*
X55733489Y-75230261D01*
X55578845Y-75199500D01*
X55578842Y-75199500D01*
X55421158Y-75199500D01*
X55421155Y-75199500D01*
X55266510Y-75230261D01*
X55266498Y-75230264D01*
X55120827Y-75290602D01*
X55120814Y-75290609D01*
X54989711Y-75378210D01*
X54989707Y-75378213D01*
X54878213Y-75489707D01*
X54878210Y-75489711D01*
X54790609Y-75620814D01*
X54790602Y-75620827D01*
X54730264Y-75766498D01*
X54730261Y-75766510D01*
X54699500Y-75921153D01*
X50580513Y-75921153D01*
X50552874Y-70421153D01*
X80199500Y-70421153D01*
X80199500Y-70578846D01*
X80230261Y-70733489D01*
X80230264Y-70733501D01*
X80290602Y-70879172D01*
X80290609Y-70879185D01*
X80378210Y-71010288D01*
X80378213Y-71010292D01*
X80489707Y-71121786D01*
X80489711Y-71121789D01*
X80620814Y-71209390D01*
X80620827Y-71209397D01*
X80766498Y-71269735D01*
X80766503Y-71269737D01*
X80921153Y-71300499D01*
X80921156Y-71300500D01*
X80921158Y-71300500D01*
X81078844Y-71300500D01*
X81078845Y-71300499D01*
X81233497Y-71269737D01*
X81379179Y-71209394D01*
X81433663Y-71172989D01*
X81510875Y-71121398D01*
X81577553Y-71100520D01*
X81579766Y-71100500D01*
X85602044Y-71100500D01*
X85669083Y-71120185D01*
X85714838Y-71172989D01*
X85723661Y-71200309D01*
X85730261Y-71233489D01*
X85730264Y-71233501D01*
X85790602Y-71379172D01*
X85790609Y-71379185D01*
X85878210Y-71510288D01*
X85878213Y-71510292D01*
X85989707Y-71621786D01*
X85989711Y-71621789D01*
X86120814Y-71709390D01*
X86120827Y-71709397D01*
X86266498Y-71769735D01*
X86266503Y-71769737D01*
X86421153Y-71800499D01*
X86421156Y-71800500D01*
X86421158Y-71800500D01*
X86578844Y-71800500D01*
X86578845Y-71800499D01*
X86733497Y-71769737D01*
X86879179Y-71709394D01*
X87010289Y-71621789D01*
X87121789Y-71510289D01*
X87209394Y-71379179D01*
X87269737Y-71233497D01*
X87300500Y-71078842D01*
X87300500Y-70921158D01*
X87300500Y-70921155D01*
X87300499Y-70921153D01*
X87269738Y-70766510D01*
X87269737Y-70766503D01*
X87256062Y-70733489D01*
X87209397Y-70620827D01*
X87209390Y-70620814D01*
X87121789Y-70489711D01*
X87121786Y-70489707D01*
X87010292Y-70378213D01*
X87010288Y-70378210D01*
X86879185Y-70290609D01*
X86879172Y-70290602D01*
X86733501Y-70230264D01*
X86733491Y-70230261D01*
X86578151Y-70199362D01*
X86516241Y-70166977D01*
X86514662Y-70165426D01*
X86368717Y-70019481D01*
X86368716Y-70019480D01*
X86281904Y-69969360D01*
X86281904Y-69969359D01*
X86281900Y-69969358D01*
X86231785Y-69940423D01*
X86079057Y-69899499D01*
X85920943Y-69899499D01*
X85913347Y-69899499D01*
X85913331Y-69899500D01*
X81579766Y-69899500D01*
X81512727Y-69879815D01*
X81510875Y-69878602D01*
X81379185Y-69790609D01*
X81379172Y-69790602D01*
X81233501Y-69730264D01*
X81233489Y-69730261D01*
X81078845Y-69699500D01*
X81078842Y-69699500D01*
X80921158Y-69699500D01*
X80921155Y-69699500D01*
X80766510Y-69730261D01*
X80766498Y-69730264D01*
X80620827Y-69790602D01*
X80620814Y-69790609D01*
X80489711Y-69878210D01*
X80489707Y-69878213D01*
X80378213Y-69989707D01*
X80378210Y-69989711D01*
X80290609Y-70120814D01*
X80290602Y-70120827D01*
X80230264Y-70266498D01*
X80230261Y-70266510D01*
X80199500Y-70421153D01*
X50552874Y-70421153D01*
X50532492Y-66365186D01*
X54099500Y-66365186D01*
X54099500Y-66634813D01*
X54129686Y-66902719D01*
X54129688Y-66902731D01*
X54189684Y-67165594D01*
X54189687Y-67165602D01*
X54278734Y-67420082D01*
X54395714Y-67662994D01*
X54395716Y-67662997D01*
X54539162Y-67891289D01*
X54707266Y-68102085D01*
X54897915Y-68292734D01*
X55108711Y-68460838D01*
X55337003Y-68604284D01*
X55579921Y-68721267D01*
X55771049Y-68788145D01*
X55834397Y-68810312D01*
X55834405Y-68810315D01*
X55834408Y-68810315D01*
X55834409Y-68810316D01*
X56097268Y-68870312D01*
X56365187Y-68900499D01*
X56365188Y-68900500D01*
X56365191Y-68900500D01*
X56634812Y-68900500D01*
X56634812Y-68900499D01*
X56902732Y-68870312D01*
X57165591Y-68810316D01*
X57420079Y-68721267D01*
X57662997Y-68604284D01*
X57891289Y-68460838D01*
X58102085Y-68292734D01*
X58292734Y-68102085D01*
X58460838Y-67891289D01*
X58604284Y-67662997D01*
X58721267Y-67420079D01*
X58810316Y-67165591D01*
X58870312Y-66902732D01*
X58900500Y-66634809D01*
X58900500Y-66365191D01*
X58900499Y-66365186D01*
X133099500Y-66365186D01*
X133099500Y-66634813D01*
X133129686Y-66902719D01*
X133129688Y-66902731D01*
X133189684Y-67165594D01*
X133189687Y-67165602D01*
X133278734Y-67420082D01*
X133395714Y-67662994D01*
X133395716Y-67662997D01*
X133539162Y-67891289D01*
X133707266Y-68102085D01*
X133897915Y-68292734D01*
X134108711Y-68460838D01*
X134337003Y-68604284D01*
X134579921Y-68721267D01*
X134771049Y-68788145D01*
X134834397Y-68810312D01*
X134834405Y-68810315D01*
X134834408Y-68810315D01*
X134834409Y-68810316D01*
X135097268Y-68870312D01*
X135365187Y-68900499D01*
X135365188Y-68900500D01*
X135365191Y-68900500D01*
X135634812Y-68900500D01*
X135634812Y-68900499D01*
X135902732Y-68870312D01*
X136165591Y-68810316D01*
X136420079Y-68721267D01*
X136662997Y-68604284D01*
X136891289Y-68460838D01*
X137102085Y-68292734D01*
X137292734Y-68102085D01*
X137460838Y-67891289D01*
X137604284Y-67662997D01*
X137721267Y-67420079D01*
X137810316Y-67165591D01*
X137870312Y-66902732D01*
X137900500Y-66634809D01*
X137900500Y-66365191D01*
X137870312Y-66097268D01*
X137810316Y-65834409D01*
X137721267Y-65579921D01*
X137604284Y-65337003D01*
X137460838Y-65108711D01*
X137292734Y-64897915D01*
X137102085Y-64707266D01*
X136891289Y-64539162D01*
X136662997Y-64395716D01*
X136662994Y-64395714D01*
X136420082Y-64278734D01*
X136165602Y-64189687D01*
X136165594Y-64189684D01*
X135968446Y-64144687D01*
X135902732Y-64129688D01*
X135902728Y-64129687D01*
X135902719Y-64129686D01*
X135634813Y-64099500D01*
X135634809Y-64099500D01*
X135365191Y-64099500D01*
X135365186Y-64099500D01*
X135097280Y-64129686D01*
X135097268Y-64129688D01*
X134834405Y-64189684D01*
X134834397Y-64189687D01*
X134579917Y-64278734D01*
X134337005Y-64395714D01*
X134108712Y-64539161D01*
X133897915Y-64707265D01*
X133707265Y-64897915D01*
X133539161Y-65108712D01*
X133395714Y-65337005D01*
X133278734Y-65579917D01*
X133189687Y-65834397D01*
X133189684Y-65834405D01*
X133129688Y-66097268D01*
X133129686Y-66097280D01*
X133099500Y-66365186D01*
X58900499Y-66365186D01*
X58870312Y-66097268D01*
X58810316Y-65834409D01*
X58721267Y-65579921D01*
X58604284Y-65337003D01*
X58460838Y-65108711D01*
X58292734Y-64897915D01*
X58102085Y-64707266D01*
X57891289Y-64539162D01*
X57662997Y-64395716D01*
X57662994Y-64395714D01*
X57420082Y-64278734D01*
X57165602Y-64189687D01*
X57165594Y-64189684D01*
X56968446Y-64144687D01*
X56902732Y-64129688D01*
X56902728Y-64129687D01*
X56902719Y-64129686D01*
X56634813Y-64099500D01*
X56634809Y-64099500D01*
X56365191Y-64099500D01*
X56365186Y-64099500D01*
X56097280Y-64129686D01*
X56097268Y-64129688D01*
X55834405Y-64189684D01*
X55834397Y-64189687D01*
X55579917Y-64278734D01*
X55337005Y-64395714D01*
X55108712Y-64539161D01*
X54897915Y-64707265D01*
X54707265Y-64897915D01*
X54539161Y-65108712D01*
X54395714Y-65337005D01*
X54278734Y-65579917D01*
X54189687Y-65834397D01*
X54189684Y-65834405D01*
X54129688Y-66097268D01*
X54129686Y-66097280D01*
X54099500Y-66365186D01*
X50532492Y-66365186D01*
X50518799Y-63640204D01*
X50515048Y-62893713D01*
X73869500Y-62893713D01*
X73869500Y-63106286D01*
X73902753Y-63316239D01*
X73968444Y-63518414D01*
X74064951Y-63707820D01*
X74189890Y-63879786D01*
X74340213Y-64030109D01*
X74512179Y-64155048D01*
X74512181Y-64155049D01*
X74512184Y-64155051D01*
X74701588Y-64251557D01*
X74903757Y-64317246D01*
X75113713Y-64350500D01*
X75113714Y-64350500D01*
X75326286Y-64350500D01*
X75326287Y-64350500D01*
X75536243Y-64317246D01*
X75738412Y-64251557D01*
X75927816Y-64155051D01*
X76014138Y-64092335D01*
X76099786Y-64030109D01*
X76099788Y-64030106D01*
X76099792Y-64030104D01*
X76250104Y-63879792D01*
X76250106Y-63879788D01*
X76250109Y-63879786D01*
X76335890Y-63761717D01*
X76375051Y-63707816D01*
X76379793Y-63698508D01*
X76427763Y-63647711D01*
X76495583Y-63630911D01*
X76561719Y-63653445D01*
X76600763Y-63698500D01*
X76605373Y-63707547D01*
X76644728Y-63761716D01*
X77277037Y-63129408D01*
X77294075Y-63192993D01*
X77359901Y-63307007D01*
X77452993Y-63400099D01*
X77567007Y-63465925D01*
X77630590Y-63482962D01*
X76998282Y-64115269D01*
X76998282Y-64115270D01*
X77052449Y-64154624D01*
X77241782Y-64251095D01*
X77443870Y-64316757D01*
X77653754Y-64350000D01*
X77866246Y-64350000D01*
X78076127Y-64316757D01*
X78076130Y-64316757D01*
X78278217Y-64251095D01*
X78467554Y-64154622D01*
X78521716Y-64115270D01*
X78521717Y-64115270D01*
X77889408Y-63482962D01*
X77952993Y-63465925D01*
X78067007Y-63400099D01*
X78160099Y-63307007D01*
X78225925Y-63192993D01*
X78242962Y-63129408D01*
X78875270Y-63761717D01*
X78875270Y-63761716D01*
X78914622Y-63707555D01*
X78919232Y-63698507D01*
X78967205Y-63647709D01*
X79035025Y-63630912D01*
X79101161Y-63653447D01*
X79140204Y-63698504D01*
X79144949Y-63707817D01*
X79269890Y-63879786D01*
X79420213Y-64030109D01*
X79592179Y-64155048D01*
X79592181Y-64155049D01*
X79592184Y-64155051D01*
X79781588Y-64251557D01*
X79983757Y-64317246D01*
X80193713Y-64350500D01*
X80193714Y-64350500D01*
X80406286Y-64350500D01*
X80406287Y-64350500D01*
X80616243Y-64317246D01*
X80818412Y-64251557D01*
X81007816Y-64155051D01*
X81094138Y-64092335D01*
X81179786Y-64030109D01*
X81179788Y-64030106D01*
X81179792Y-64030104D01*
X81330104Y-63879792D01*
X81330106Y-63879788D01*
X81330109Y-63879786D01*
X81455048Y-63707820D01*
X81455047Y-63707820D01*
X81455051Y-63707816D01*
X81459514Y-63699054D01*
X81507488Y-63648259D01*
X81575308Y-63631463D01*
X81641444Y-63653999D01*
X81680486Y-63699056D01*
X81684951Y-63707820D01*
X81809890Y-63879786D01*
X81960213Y-64030109D01*
X82132179Y-64155048D01*
X82132181Y-64155049D01*
X82132184Y-64155051D01*
X82321588Y-64251557D01*
X82523757Y-64317246D01*
X82733713Y-64350500D01*
X82733714Y-64350500D01*
X82946286Y-64350500D01*
X82946287Y-64350500D01*
X83156243Y-64317246D01*
X83358412Y-64251557D01*
X83547816Y-64155051D01*
X83634138Y-64092335D01*
X83719786Y-64030109D01*
X83719788Y-64030106D01*
X83719792Y-64030104D01*
X83870104Y-63879792D01*
X83870106Y-63879788D01*
X83870109Y-63879786D01*
X83995048Y-63707820D01*
X83995047Y-63707820D01*
X83995051Y-63707816D01*
X83999514Y-63699054D01*
X84047488Y-63648259D01*
X84115308Y-63631463D01*
X84181444Y-63653999D01*
X84220486Y-63699056D01*
X84224951Y-63707820D01*
X84349890Y-63879786D01*
X84500213Y-64030109D01*
X84672179Y-64155048D01*
X84672181Y-64155049D01*
X84672184Y-64155051D01*
X84861588Y-64251557D01*
X85063757Y-64317246D01*
X85273713Y-64350500D01*
X85273714Y-64350500D01*
X85486286Y-64350500D01*
X85486287Y-64350500D01*
X85696243Y-64317246D01*
X85898412Y-64251557D01*
X86087816Y-64155051D01*
X86174138Y-64092335D01*
X86259786Y-64030109D01*
X86259788Y-64030106D01*
X86259792Y-64030104D01*
X86410104Y-63879792D01*
X86410106Y-63879788D01*
X86410109Y-63879786D01*
X86535048Y-63707820D01*
X86535047Y-63707820D01*
X86535051Y-63707816D01*
X86539514Y-63699054D01*
X86587488Y-63648259D01*
X86655308Y-63631463D01*
X86721444Y-63653999D01*
X86760486Y-63699056D01*
X86764951Y-63707820D01*
X86889890Y-63879786D01*
X87040213Y-64030109D01*
X87212179Y-64155048D01*
X87212181Y-64155049D01*
X87212184Y-64155051D01*
X87401588Y-64251557D01*
X87603757Y-64317246D01*
X87813713Y-64350500D01*
X87813714Y-64350500D01*
X88026286Y-64350500D01*
X88026287Y-64350500D01*
X88236243Y-64317246D01*
X88438412Y-64251557D01*
X88627816Y-64155051D01*
X88714138Y-64092335D01*
X88799786Y-64030109D01*
X88799788Y-64030106D01*
X88799792Y-64030104D01*
X88950104Y-63879792D01*
X88950106Y-63879788D01*
X88950109Y-63879786D01*
X89075048Y-63707820D01*
X89075047Y-63707820D01*
X89075051Y-63707816D01*
X89079514Y-63699054D01*
X89127488Y-63648259D01*
X89195308Y-63631463D01*
X89261444Y-63653999D01*
X89300486Y-63699056D01*
X89304951Y-63707820D01*
X89429890Y-63879786D01*
X89580213Y-64030109D01*
X89752179Y-64155048D01*
X89752181Y-64155049D01*
X89752184Y-64155051D01*
X89941588Y-64251557D01*
X90143757Y-64317246D01*
X90353713Y-64350500D01*
X90353714Y-64350500D01*
X90566286Y-64350500D01*
X90566287Y-64350500D01*
X90776243Y-64317246D01*
X90978412Y-64251557D01*
X91167816Y-64155051D01*
X91339792Y-64030104D01*
X91453329Y-63916566D01*
X91514648Y-63883084D01*
X91584340Y-63888068D01*
X91640274Y-63929939D01*
X91657189Y-63960917D01*
X91706202Y-64092328D01*
X91706206Y-64092335D01*
X91792452Y-64207544D01*
X91792455Y-64207547D01*
X91907664Y-64293793D01*
X91907671Y-64293797D01*
X92042517Y-64344091D01*
X92042516Y-64344091D01*
X92049444Y-64344835D01*
X92102127Y-64350500D01*
X93897872Y-64350499D01*
X93957483Y-64344091D01*
X94092331Y-64293796D01*
X94207546Y-64207546D01*
X94293796Y-64092331D01*
X94344091Y-63957483D01*
X94350500Y-63897873D01*
X94350499Y-62102128D01*
X94344091Y-62042517D01*
X94342810Y-62039083D01*
X94293797Y-61907671D01*
X94293793Y-61907664D01*
X94207547Y-61792455D01*
X94207544Y-61792452D01*
X94092335Y-61706206D01*
X94092328Y-61706202D01*
X93957482Y-61655908D01*
X93957483Y-61655908D01*
X93897883Y-61649501D01*
X93897881Y-61649500D01*
X93897873Y-61649500D01*
X93897864Y-61649500D01*
X92102129Y-61649500D01*
X92102123Y-61649501D01*
X92042516Y-61655908D01*
X91907671Y-61706202D01*
X91907664Y-61706206D01*
X91792455Y-61792452D01*
X91792452Y-61792455D01*
X91706206Y-61907664D01*
X91706203Y-61907669D01*
X91657189Y-62039083D01*
X91615317Y-62095016D01*
X91549853Y-62119433D01*
X91481580Y-62104581D01*
X91453326Y-62083430D01*
X91339786Y-61969890D01*
X91167820Y-61844951D01*
X90978414Y-61748444D01*
X90978413Y-61748443D01*
X90978412Y-61748443D01*
X90776243Y-61682754D01*
X90776241Y-61682753D01*
X90776240Y-61682753D01*
X90614957Y-61657208D01*
X90566287Y-61649500D01*
X90353713Y-61649500D01*
X90305042Y-61657208D01*
X90143760Y-61682753D01*
X89941585Y-61748444D01*
X89752179Y-61844951D01*
X89580213Y-61969890D01*
X89429890Y-62120213D01*
X89304949Y-62292182D01*
X89300484Y-62300946D01*
X89252509Y-62351742D01*
X89184688Y-62368536D01*
X89118553Y-62345998D01*
X89079516Y-62300946D01*
X89075050Y-62292182D01*
X88950109Y-62120213D01*
X88799786Y-61969890D01*
X88627820Y-61844951D01*
X88438414Y-61748444D01*
X88438413Y-61748443D01*
X88438412Y-61748443D01*
X88236243Y-61682754D01*
X88236241Y-61682753D01*
X88236240Y-61682753D01*
X88074957Y-61657208D01*
X88026287Y-61649500D01*
X87813713Y-61649500D01*
X87765042Y-61657208D01*
X87603760Y-61682753D01*
X87401585Y-61748444D01*
X87212179Y-61844951D01*
X87040213Y-61969890D01*
X86889890Y-62120213D01*
X86764949Y-62292182D01*
X86760484Y-62300946D01*
X86712509Y-62351742D01*
X86644688Y-62368536D01*
X86578553Y-62345998D01*
X86539516Y-62300946D01*
X86535050Y-62292182D01*
X86410109Y-62120213D01*
X86259786Y-61969890D01*
X86087820Y-61844951D01*
X85898414Y-61748444D01*
X85898413Y-61748443D01*
X85898412Y-61748443D01*
X85696243Y-61682754D01*
X85696241Y-61682753D01*
X85696240Y-61682753D01*
X85534957Y-61657208D01*
X85486287Y-61649500D01*
X85273713Y-61649500D01*
X85225042Y-61657208D01*
X85063760Y-61682753D01*
X84861585Y-61748444D01*
X84672179Y-61844951D01*
X84500213Y-61969890D01*
X84349890Y-62120213D01*
X84224949Y-62292182D01*
X84220484Y-62300946D01*
X84172509Y-62351742D01*
X84104688Y-62368536D01*
X84038553Y-62345998D01*
X83999516Y-62300946D01*
X83995050Y-62292182D01*
X83870109Y-62120213D01*
X83719786Y-61969890D01*
X83547820Y-61844951D01*
X83358414Y-61748444D01*
X83358413Y-61748443D01*
X83358412Y-61748443D01*
X83156243Y-61682754D01*
X83156241Y-61682753D01*
X83156240Y-61682753D01*
X82994957Y-61657208D01*
X82946287Y-61649500D01*
X82733713Y-61649500D01*
X82685042Y-61657208D01*
X82523760Y-61682753D01*
X82321585Y-61748444D01*
X82132179Y-61844951D01*
X81960213Y-61969890D01*
X81809890Y-62120213D01*
X81684949Y-62292182D01*
X81680484Y-62300946D01*
X81632509Y-62351742D01*
X81564688Y-62368536D01*
X81498553Y-62345998D01*
X81459516Y-62300946D01*
X81455050Y-62292182D01*
X81330109Y-62120213D01*
X81179786Y-61969890D01*
X81007820Y-61844951D01*
X80818414Y-61748444D01*
X80818413Y-61748443D01*
X80818412Y-61748443D01*
X80616243Y-61682754D01*
X80616241Y-61682753D01*
X80616240Y-61682753D01*
X80454957Y-61657208D01*
X80406287Y-61649500D01*
X80193713Y-61649500D01*
X80145042Y-61657208D01*
X79983760Y-61682753D01*
X79781585Y-61748444D01*
X79592179Y-61844951D01*
X79420213Y-61969890D01*
X79269890Y-62120213D01*
X79144949Y-62292182D01*
X79140202Y-62301499D01*
X79092227Y-62352293D01*
X79024405Y-62369087D01*
X78958271Y-62346548D01*
X78919234Y-62301495D01*
X78914626Y-62292452D01*
X78875270Y-62238282D01*
X78875269Y-62238282D01*
X78242962Y-62870590D01*
X78225925Y-62807007D01*
X78160099Y-62692993D01*
X78067007Y-62599901D01*
X77952993Y-62534075D01*
X77889409Y-62517037D01*
X78521716Y-61884728D01*
X78467550Y-61845375D01*
X78278217Y-61748904D01*
X78076129Y-61683242D01*
X77866246Y-61650000D01*
X77653754Y-61650000D01*
X77443872Y-61683242D01*
X77443869Y-61683242D01*
X77241782Y-61748904D01*
X77052439Y-61845380D01*
X76998282Y-61884727D01*
X76998282Y-61884728D01*
X77630591Y-62517037D01*
X77567007Y-62534075D01*
X77452993Y-62599901D01*
X77359901Y-62692993D01*
X77294075Y-62807007D01*
X77277037Y-62870591D01*
X76644728Y-62238282D01*
X76644727Y-62238282D01*
X76605380Y-62292440D01*
X76605376Y-62292446D01*
X76600760Y-62301505D01*
X76552781Y-62352297D01*
X76484959Y-62369087D01*
X76418826Y-62346543D01*
X76379794Y-62301493D01*
X76375051Y-62292184D01*
X76375049Y-62292181D01*
X76375048Y-62292179D01*
X76250109Y-62120213D01*
X76099786Y-61969890D01*
X75927820Y-61844951D01*
X75738414Y-61748444D01*
X75738413Y-61748443D01*
X75738412Y-61748443D01*
X75536243Y-61682754D01*
X75536241Y-61682753D01*
X75536240Y-61682753D01*
X75374957Y-61657208D01*
X75326287Y-61649500D01*
X75113713Y-61649500D01*
X75065042Y-61657208D01*
X74903760Y-61682753D01*
X74701585Y-61748444D01*
X74512179Y-61844951D01*
X74340213Y-61969890D01*
X74189890Y-62120213D01*
X74064951Y-62292179D01*
X73968444Y-62481585D01*
X73902753Y-62683760D01*
X73869500Y-62893713D01*
X50515048Y-62893713D01*
X50515027Y-62889464D01*
X50503648Y-60625123D01*
X50522995Y-60557986D01*
X50575568Y-60511966D01*
X50627646Y-60500500D01*
X141875500Y-60500500D01*
X141942539Y-60520185D01*
G37*
%TD.AperFunction*%
%TD*%
M02*
