M48
; DRILL file KiCad 10.0.0 date 2026-04-21T21:24:04
; FORMAT={-:-/ absolute / metric / decimal}
; #@! TF.CreationDate,2026-04-21T21:24:04+03:00
; #@! TF.GenerationSoftware,Kicad,Pcbnew,10.0.0
; #@! TF.FileFunction,Plated,1,2,PTH
FMAT,2
METRIC
; #@! TA.AperFunction,Plated,PTH,ViaDrill
T1C0.300
; #@! TA.AperFunction,Plated,PTH,ComponentDrill
T2C1.000
%
G90
G05
T1
X52.0Y-102.5
X53.5Y-85.0
X54.5Y-88.0
X55.5Y-76.0
X55.5Y-144.5
X57.0Y-72.5
X60.5Y-84.0
X62.0Y-86.5
X62.5Y-121.5
X63.0Y-92.5
X66.0Y-124.0
X67.0Y-125.0
X68.0Y-139.5
X68.5Y-81.5
X70.5Y-83.0
X71.5Y-147.0
X73.5Y-73.0
X77.0Y-70.5
X78.75Y-112.25
X81.0Y-70.5
X81.5Y-107.0
X82.0Y-87.0
X83.5Y-83.0
X83.5Y-90.0
X85.0Y-81.0
X85.5Y-107.0
X86.5Y-71.0
X86.5Y-135.0
X86.5Y-140.0
X87.0Y-87.5
X93.0Y-72.5
X94.5Y-84.0
X95.75Y-141.25
X96.5Y-112.0
X108.0Y-158.5
X110.5Y-100.0
X111.0Y-107.0
X111.0Y-109.5
X112.0Y-98.5
X112.0Y-118.5
X112.5Y-88.5
X114.0Y-90.0
X115.5Y-93.0
X116.0Y-96.0
X117.0Y-87.5
X117.12Y-123.62
X117.5Y-85.5
X119.0Y-97.0
X119.0Y-127.0
X119.5Y-116.5
X121.5Y-99.5
X123.5Y-101.5
T2
X57.0Y-81.0
X57.0Y-83.54
X57.0Y-86.08
X57.0Y-88.62
X57.0Y-112.5
X57.0Y-120.0
X57.0Y-127.5
X57.0Y-134.5
X67.0Y-100.0
X75.22Y-63.0
X75.5Y-100.0
X75.5Y-102.54
X75.5Y-105.08
X75.5Y-107.62
X75.5Y-110.16
X75.5Y-112.7
X75.5Y-115.24
X75.5Y-117.78
X75.5Y-120.32
X75.5Y-122.86
X75.5Y-125.4
X75.5Y-127.94
X75.5Y-130.48
X75.5Y-133.02
X75.5Y-135.56
X75.5Y-138.1
X75.5Y-140.64
X75.5Y-143.18
X75.5Y-145.72
X75.5Y-148.26
X75.5Y-150.8
X75.5Y-153.34
X77.76Y-63.0
X80.3Y-63.0
X82.84Y-63.0
X85.38Y-63.0
X87.92Y-63.0
X90.46Y-63.0
X93.0Y-63.0
X101.3Y-100.0
X101.3Y-102.54
X101.3Y-105.08
X101.3Y-107.62
X101.3Y-110.16
X101.3Y-112.7
X101.3Y-115.24
X101.3Y-117.78
X101.3Y-120.32
X101.3Y-122.86
X101.3Y-125.4
X101.3Y-127.94
X101.3Y-130.48
X101.3Y-133.02
X101.3Y-135.56
X101.3Y-138.1
X101.3Y-140.64
X101.3Y-143.18
X101.3Y-145.72
X101.3Y-148.26
X101.3Y-150.8
X101.3Y-153.34
X108.0Y-100.0
X109.5Y-154.0
X112.04Y-154.0
X114.58Y-154.0
X117.12Y-154.0
X119.66Y-154.0
X122.2Y-154.0
X126.5Y-90.0
X126.5Y-92.54
X126.5Y-95.08
X126.5Y-97.62
X126.5Y-100.16
X126.5Y-102.7
M30
