%TF.GenerationSoftware,KiCad,Pcbnew,10.0.0*%
%TF.CreationDate,2026-04-21T21:47:32+03:00*%
%TF.ProjectId,try1,74727931-2e6b-4696-9361-645f70636258,rev?*%
%TF.SameCoordinates,Original*%
%TF.FileFunction,Copper,L1,Top*%
%TF.FilePolarity,Positive*%
%FSLAX46Y46*%
G04 Gerber Fmt 4.6, Leading zero omitted, Abs format (unit mm)*
G04 Created by KiCad (PCBNEW 10.0.0) date 2026-04-21 21:47:32*
%MOMM*%
%LPD*%
G01*
G04 APERTURE LIST*
%TA.AperFunction,ComponentPad*%
%ADD10R,1.700000X1.700000*%
%TD*%
%TA.AperFunction,ComponentPad*%
%ADD11C,1.700000*%
%TD*%
%TA.AperFunction,ViaPad*%
%ADD12C,0.600000*%
%TD*%
%TA.AperFunction,Conductor*%
%ADD13C,0.300000*%
%TD*%
G04 APERTURE END LIST*
D10*
%TO.P,J5,1,Pin_1_1*%
%TO.N,/3V3*%
X60600000Y-99780000D03*
D11*
%TO.P,J5,2,Pin_2_2*%
%TO.N,unconnected-(J5-Pin_2-Pad2)*%
X60600000Y-102320000D03*
%TO.P,J5,3,Pin_3_3*%
%TO.N,unconnected-(J5-Pin_3-Pad3)*%
X60600000Y-104860000D03*
%TO.P,J5,4,Pin_4_4*%
%TO.N,unconnected-(J5-Pin_4-Pad4)*%
X60600000Y-107400000D03*
%TO.P,J5,5,Pin_5_5*%
%TO.N,unconnected-(J5-Pin_5-Pad5)*%
X60600000Y-109940000D03*
%TO.P,J5,6,Pin_6_6*%
%TO.N,Net-(J5-Pin_6)*%
X60600000Y-112480000D03*
%TO.P,J5,7,Pin_7_7*%
%TO.N,Net-(J5-Pin_7)*%
X60600000Y-115020000D03*
%TO.P,J5,8,Pin_8_8*%
%TO.N,unconnected-(J5-Pin_8-Pad8)*%
X60600000Y-117560000D03*
%TO.P,J5,9,Pin_9_9*%
%TO.N,Net-(J3-CE)*%
X60600000Y-120100000D03*
%TO.P,J5,10,Pin_10_10*%
%TO.N,Net-(J3-CSN)*%
X60600000Y-122640000D03*
%TO.P,J5,11,Pin_11_11*%
%TO.N,unconnected-(J5-Pin_11-Pad11)*%
X60600000Y-125180000D03*
%TO.P,J5,12,Pin_12_12*%
%TO.N,/HSPI_SCK*%
X60600000Y-127720000D03*
%TO.P,J5,13,Pin_13_13*%
%TO.N,/HSPI_MOSI*%
X60600000Y-130260000D03*
%TO.P,J5,14,Pin_14_14*%
%TO.N,unconnected-(J5-Pin_14-Pad14)*%
X60600000Y-132800000D03*
%TO.P,J5,15,Pin_15_15*%
%TO.N,/HSPI_MISO*%
X60600000Y-135340000D03*
%TO.P,J5,16,Pin_16_16*%
%TO.N,unconnected-(J5-Pin_16-Pad16)*%
X60600000Y-137880000D03*
%TO.P,J5,17,Pin_17_17*%
%TO.N,unconnected-(J5-Pin_17-Pad17)*%
X60600000Y-140420000D03*
%TO.P,J5,18,Pin_18_18*%
%TO.N,unconnected-(J5-Pin_18-Pad18)*%
X60600000Y-142960000D03*
%TO.P,J5,19,Pin_19_19*%
%TO.N,unconnected-(J5-Pin_19-Pad19)*%
X60600000Y-145500000D03*
%TD*%
D10*
%TO.P,IO32-TX1,1,1_1*%
%TO.N,Net-(J5-Pin_7)*%
X46000000Y-118500000D03*
%TD*%
%TO.P,GND1,1,1_1*%
%TO.N,/GND*%
X100200000Y-99200000D03*
%TD*%
%TO.P,VCC1,1,1_1*%
%TO.N,/3V3*%
X45000000Y-100000000D03*
%TD*%
%TO.P,IO35-RX1,1,1_1*%
%TO.N,Net-(J5-Pin_6)*%
X46000000Y-112500000D03*
%TD*%
%TO.P,J6,1,Pin_1_1*%
%TO.N,/GND*%
X86000000Y-99780000D03*
D11*
%TO.P,J6,2,Pin_2_2*%
%TO.N,/VSPI_MOSI*%
X86000000Y-102320000D03*
%TO.P,J6,3,Pin_3_3*%
%TO.N,Net-(J4-CE)*%
X86000000Y-104860000D03*
%TO.P,J6,4,Pin_4_4*%
%TO.N,unconnected-(J6-Pin_4-Pad4)*%
X86000000Y-107400000D03*
%TO.P,J6,5,Pin_5_5*%
%TO.N,unconnected-(J6-Pin_5-Pad5)*%
X86000000Y-109940000D03*
%TO.P,J6,6,Pin_6_6*%
%TO.N,Net-(J4-CSN)*%
X86000000Y-112480000D03*
%TO.P,J6,7,Pin_7_7*%
%TO.N,unconnected-(J6-Pin_7-Pad7)*%
X86000000Y-115020000D03*
%TO.P,J6,8,Pin_8_8*%
%TO.N,/VSPI_MISO*%
X86000000Y-117560000D03*
%TO.P,J6,9,Pin_9_9*%
%TO.N,/VSPI_SCK*%
X86000000Y-120100000D03*
%TO.P,J6,10,Pin_10_10*%
%TO.N,unconnected-(J6-Pin_10-Pad10)*%
X86000000Y-122640000D03*
%TO.P,J6,11,Pin_11_11*%
%TO.N,Net-(J2-CE)*%
X86000000Y-125180000D03*
%TO.P,J6,12,Pin_12_12*%
%TO.N,Net-(J1-CE)*%
X86000000Y-127720000D03*
%TO.P,J6,13,Pin_13_13*%
%TO.N,Net-(J2-CSN)*%
X86000000Y-130260000D03*
%TO.P,J6,14,Pin_14_14*%
%TO.N,unconnected-(J6-Pin_14-Pad14)*%
X86000000Y-132800000D03*
%TO.P,J6,15,Pin_15_15*%
%TO.N,unconnected-(J6-Pin_15-Pad15)*%
X86000000Y-135340000D03*
%TO.P,J6,16,Pin_16_16*%
%TO.N,Net-(J1-CSN)*%
X86000000Y-137880000D03*
%TO.P,J6,17,Pin_17_17*%
%TO.N,unconnected-(J6-Pin_17-Pad17)*%
X86000000Y-140420000D03*
%TO.P,J6,18,Pin_18_18*%
%TO.N,unconnected-(J6-Pin_18-Pad18)*%
X86000000Y-142960000D03*
%TO.P,J6,19,Pin_19_19*%
%TO.N,unconnected-(J6-Pin_19-Pad19)*%
X86000000Y-145500000D03*
%TD*%
D10*
%TO.P,J1,1,GND_1*%
%TO.N,/GND*%
X42650000Y-84770000D03*
D11*
%TO.P,J1,2,VCC_2*%
%TO.N,/3V3*%
X42650000Y-82230000D03*
%TO.P,J1,3,CE_3*%
%TO.N,Net-(J1-CE)*%
X45190000Y-84770000D03*
%TO.P,J1,4,CSN_4*%
%TO.N,Net-(J1-CSN)*%
X45190000Y-82230000D03*
%TO.P,J1,5,SCK_5*%
%TO.N,/HSPI_SCK*%
X47730000Y-84770000D03*
%TO.P,J1,6,MOSI_6*%
%TO.N,/HSPI_MOSI*%
X47730000Y-82230000D03*
%TO.P,J1,7,MISO_7*%
%TO.N,/HSPI_MISO*%
X50270000Y-84770000D03*
%TO.P,J1,8,IRQ_8*%
%TO.N,unconnected-(J1-IRQ-Pad8)*%
X50270000Y-82230000D03*
%TD*%
D10*
%TO.P,J2,1,GND_1*%
%TO.N,/GND*%
X59230000Y-84540000D03*
D11*
%TO.P,J2,2,VCC_2*%
%TO.N,/3V3*%
X59230000Y-82000000D03*
%TO.P,J2,3,CE_3*%
%TO.N,Net-(J2-CE)*%
X61770000Y-84540000D03*
%TO.P,J2,4,CSN_4*%
%TO.N,Net-(J2-CSN)*%
X61770000Y-82000000D03*
%TO.P,J2,5,SCK_5*%
%TO.N,/HSPI_SCK*%
X64310000Y-84540000D03*
%TO.P,J2,6,MOSI_6*%
%TO.N,/HSPI_MOSI*%
X64310000Y-82000000D03*
%TO.P,J2,7,MISO_7*%
%TO.N,/HSPI_MISO*%
X66850000Y-84540000D03*
%TO.P,J2,8,IRQ_8*%
%TO.N,unconnected-(J2-IRQ-Pad8)*%
X66850000Y-82000000D03*
%TD*%
D10*
%TO.P,J4,1,GND_1*%
%TO.N,/GND*%
X92190000Y-84540000D03*
D11*
%TO.P,J4,2,VCC_2*%
%TO.N,/3V3*%
X92190000Y-82000000D03*
%TO.P,J4,3,CE_3*%
%TO.N,Net-(J4-CE)*%
X94730000Y-84540000D03*
%TO.P,J4,4,CSN_4*%
%TO.N,Net-(J4-CSN)*%
X94730000Y-82000000D03*
%TO.P,J4,5,SCK_5*%
%TO.N,/VSPI_SCK*%
X97270000Y-84540000D03*
%TO.P,J4,6,MOSI_6*%
%TO.N,/VSPI_MOSI*%
X97270000Y-82000000D03*
%TO.P,J4,7,MISO_7*%
%TO.N,/VSPI_MISO*%
X99810000Y-84540000D03*
%TO.P,J4,8,IRQ_8*%
%TO.N,unconnected-(J4-IRQ-Pad8)*%
X99810000Y-82000000D03*
%TD*%
D10*
%TO.P,J3,1,GND_1*%
%TO.N,/GND*%
X75690000Y-84500000D03*
D11*
%TO.P,J3,2,VCC_2*%
%TO.N,/3V3*%
X75690000Y-81960000D03*
%TO.P,J3,3,CE_3*%
%TO.N,Net-(J3-CE)*%
X78230000Y-84500000D03*
%TO.P,J3,4,CSN_4*%
%TO.N,Net-(J3-CSN)*%
X78230000Y-81960000D03*
%TO.P,J3,5,SCK_5*%
%TO.N,/VSPI_SCK*%
X80770000Y-84500000D03*
%TO.P,J3,6,MOSI_6*%
%TO.N,/VSPI_MOSI*%
X80770000Y-81960000D03*
%TO.P,J3,7,MISO_7*%
%TO.N,/VSPI_MISO*%
X83310000Y-84500000D03*
%TO.P,J3,8,IRQ_8*%
%TO.N,unconnected-(J3-IRQ-Pad8)*%
X83310000Y-81960000D03*
%TD*%
D12*
%TO.N,Net-(J3-CE)*%
X79500000Y-116000000D03*
%TO.N,Net-(J3-CSN)*%
X38000000Y-81000000D03*
X38500000Y-120500000D03*
X77500000Y-79000000D03*
%TO.N,/HSPI_SCK*%
X51000000Y-127000000D03*
X60500000Y-95000000D03*
X48500000Y-95000000D03*
%TO.N,/HSPI_MOSI*%
X45000000Y-77500000D03*
X37000000Y-79000000D03*
X36500000Y-129500000D03*
X63500000Y-77500000D03*
%TO.N,/HSPI_MISO*%
X66850000Y-87150000D03*
X51000000Y-88500000D03*
X66000000Y-134000000D03*
%TO.N,/VSPI_MOSI*%
X97000000Y-78000000D03*
X105500000Y-78500000D03*
X105500000Y-99000000D03*
X81500000Y-78000000D03*
%TO.N,Net-(J4-CE)*%
X94730000Y-103270000D03*
%TO.N,Net-(J4-CSN)*%
X95500000Y-77000000D03*
X105500000Y-112000000D03*
X107000000Y-78000000D03*
%TO.N,/VSPI_MISO*%
X97500000Y-115000000D03*
X97500000Y-91500000D03*
X85500000Y-91500000D03*
%TO.N,/VSPI_SCK*%
X81500000Y-90000000D03*
X96500000Y-90000000D03*
X81500000Y-116500000D03*
%TO.N,Net-(J2-CE)*%
X80000000Y-124500000D03*
X77000000Y-93000000D03*
X62500000Y-92000000D03*
%TO.N,Net-(J1-CE)*%
X76500000Y-127000000D03*
X46000000Y-90000000D03*
X73000000Y-90500000D03*
%TO.N,Net-(J2-CSN)*%
X109000000Y-78000000D03*
X64500000Y-74000000D03*
X106500000Y-129500000D03*
%TO.N,Net-(J1-CSN)*%
X75000000Y-137500000D03*
X72000000Y-77000000D03*
X42000000Y-76500000D03*
%TD*%
%TO.N,/3V3*%
D13*
X40000000Y-83000000D02*
X40770000Y-82230000D01*
X43500000Y-80500000D02*
X51500000Y-80500000D01*
X46220000Y-99780000D02*
X60600000Y-99780000D01*
X45000000Y-100000000D02*
X45000000Y-90500000D01*
X46000000Y-100000000D02*
X46220000Y-99780000D01*
X69500000Y-82000000D02*
X75650000Y-82000000D01*
X75650000Y-82000000D02*
X75690000Y-81960000D01*
X77150000Y-80500000D02*
X88000000Y-80500000D01*
X60000000Y-80500000D02*
X68000000Y-80500000D01*
X75690000Y-81960000D02*
X77150000Y-80500000D01*
X53000000Y-82000000D02*
X59230000Y-82000000D01*
X89500000Y-82000000D02*
X92190000Y-82000000D01*
X45000000Y-90500000D02*
X40000000Y-85500000D01*
X40770000Y-82230000D02*
X42650000Y-82230000D01*
X88000000Y-80500000D02*
X89500000Y-82000000D01*
X42650000Y-82230000D02*
X42650000Y-81350000D01*
X59230000Y-81270000D02*
X60000000Y-80500000D01*
X45000000Y-100000000D02*
X46000000Y-100000000D01*
X68000000Y-80500000D02*
X69500000Y-82000000D01*
X59230000Y-82000000D02*
X59230000Y-81270000D01*
X42650000Y-81350000D02*
X43500000Y-80500000D01*
X51500000Y-80500000D02*
X53000000Y-82000000D01*
X40000000Y-85500000D02*
X40000000Y-83000000D01*
%TO.N,Net-(J5-Pin_6)*%
X60580000Y-112500000D02*
X60600000Y-112480000D01*
X46000000Y-112500000D02*
X60580000Y-112500000D01*
%TO.N,Net-(J5-Pin_7)*%
X46000000Y-118500000D02*
X55000000Y-118500000D01*
X58480000Y-115020000D02*
X60600000Y-115020000D01*
X55000000Y-118500000D02*
X58480000Y-115020000D01*
%TO.N,Net-(J3-CE)*%
X60600000Y-120100000D02*
X76400000Y-120100000D01*
X76400000Y-120100000D02*
X79500000Y-117000000D01*
X79500000Y-117000000D02*
X79500000Y-116000000D01*
%TO.N,Net-(J3-CSN)*%
X38000000Y-81000000D02*
X40000000Y-79000000D01*
X60600000Y-122640000D02*
X40640000Y-122640000D01*
X40640000Y-122640000D02*
X38500000Y-120500000D01*
X40000000Y-79000000D02*
X77500000Y-79000000D01*
%TO.N,/HSPI_SCK*%
X51720000Y-127720000D02*
X51000000Y-127000000D01*
X48500000Y-95000000D02*
X60500000Y-95000000D01*
X60600000Y-127720000D02*
X51720000Y-127720000D01*
%TO.N,/HSPI_MOSI*%
X63500000Y-77500000D02*
X45000000Y-77500000D01*
X37000000Y-79000000D02*
X38500000Y-77500000D01*
X38500000Y-77500000D02*
X43000000Y-77500000D01*
X37260000Y-130260000D02*
X36500000Y-129500000D01*
X45000000Y-77500000D02*
X43000000Y-77500000D01*
X60600000Y-130260000D02*
X37260000Y-130260000D01*
%TO.N,/HSPI_MISO*%
X65500000Y-88500000D02*
X66850000Y-87150000D01*
X64660000Y-135340000D02*
X66000000Y-134000000D01*
X65500000Y-88500000D02*
X51000000Y-88500000D01*
X60600000Y-135340000D02*
X64660000Y-135340000D01*
%TO.N,/GND*%
X59230000Y-84540000D02*
X59230000Y-85730000D01*
X42650000Y-85650000D02*
X43500000Y-86500000D01*
X89960000Y-84540000D02*
X92190000Y-84540000D01*
X100200000Y-92550000D02*
X100200000Y-99200000D01*
X75690000Y-85690000D02*
X76500000Y-86500000D01*
X57500000Y-84500000D02*
X57540000Y-84540000D01*
X76500000Y-86500000D02*
X88000000Y-86500000D01*
X42650000Y-84770000D02*
X42650000Y-85650000D01*
X59230000Y-85730000D02*
X60000000Y-86500000D01*
X43500000Y-86500000D02*
X55500000Y-86500000D01*
X73000000Y-84500000D02*
X75690000Y-84500000D01*
X99620000Y-99780000D02*
X100200000Y-99200000D01*
X86000000Y-99780000D02*
X99620000Y-99780000D01*
X92190000Y-84540000D02*
X100200000Y-92550000D01*
X60000000Y-86500000D02*
X71000000Y-86500000D01*
X55500000Y-86500000D02*
X57500000Y-84500000D01*
X75690000Y-84500000D02*
X75690000Y-85690000D01*
X71000000Y-86500000D02*
X73000000Y-84500000D01*
X57540000Y-84540000D02*
X59230000Y-84540000D01*
X88000000Y-86500000D02*
X89960000Y-84540000D01*
%TO.N,/VSPI_MOSI*%
X81500000Y-78000000D02*
X97000000Y-78000000D01*
X86000000Y-102320000D02*
X102180000Y-102320000D01*
X97000000Y-78000000D02*
X105000000Y-78000000D01*
X105000000Y-78000000D02*
X105500000Y-78500000D01*
X102180000Y-102320000D02*
X105500000Y-99000000D01*
%TO.N,Net-(J4-CE)*%
X86000000Y-104860000D02*
X93140000Y-104860000D01*
X93140000Y-104860000D02*
X94730000Y-103270000D01*
X86000000Y-104860000D02*
X86000000Y-105000000D01*
%TO.N,Net-(J4-CSN)*%
X86000000Y-112480000D02*
X105020000Y-112480000D01*
X96000000Y-76500000D02*
X105500000Y-76500000D01*
X105500000Y-76500000D02*
X107000000Y-78000000D01*
X95500000Y-77000000D02*
X96000000Y-76500000D01*
X105020000Y-112480000D02*
X105500000Y-112000000D01*
%TO.N,/VSPI_MISO*%
X86000000Y-117560000D02*
X94940000Y-117560000D01*
X94940000Y-117560000D02*
X97500000Y-115000000D01*
X97500000Y-91500000D02*
X85500000Y-91500000D01*
%TO.N,/VSPI_SCK*%
X81500000Y-117500000D02*
X84100000Y-120100000D01*
X81500000Y-116500000D02*
X81500000Y-117500000D01*
X81500000Y-90000000D02*
X96500000Y-90000000D01*
X84100000Y-120100000D02*
X86000000Y-120100000D01*
%TO.N,Net-(J2-CE)*%
X62500000Y-92000000D02*
X76000000Y-92000000D01*
X86000000Y-125180000D02*
X80680000Y-125180000D01*
X76000000Y-92000000D02*
X77000000Y-93000000D01*
X80680000Y-125180000D02*
X80000000Y-124500000D01*
%TO.N,Net-(J1-CE)*%
X86000000Y-127720000D02*
X77220000Y-127720000D01*
X46000000Y-90000000D02*
X72500000Y-90000000D01*
X77220000Y-127720000D02*
X76500000Y-127000000D01*
X72500000Y-90000000D02*
X73000000Y-90500000D01*
%TO.N,Net-(J2-CSN)*%
X104000000Y-73000000D02*
X109000000Y-78000000D01*
X105740000Y-130260000D02*
X106500000Y-129500000D01*
X65500000Y-73000000D02*
X64500000Y-74000000D01*
X86000000Y-130260000D02*
X105740000Y-130260000D01*
X65500000Y-73000000D02*
X104000000Y-73000000D01*
%TO.N,Net-(J1-CSN)*%
X43500000Y-75000000D02*
X70000000Y-75000000D01*
X86000000Y-137880000D02*
X75380000Y-137880000D01*
X70000000Y-75000000D02*
X72000000Y-77000000D01*
X42000000Y-76500000D02*
X43500000Y-75000000D01*
X75380000Y-137880000D02*
X75000000Y-137500000D01*
%TD*%
%TA.AperFunction,Conductor*%
%TO.N,/GND*%
G36*
X93877230Y-102990185D02*
G01*
X93922985Y-103042989D01*
X93932929Y-103112147D01*
X93903904Y-103175703D01*
X93897872Y-103182181D01*
X92906873Y-104173181D01*
X92845550Y-104206666D01*
X92819192Y-104209500D01*
X87259618Y-104209500D01*
X87192579Y-104189815D01*
X87158900Y-104155408D01*
X87157915Y-104156125D01*
X87030109Y-103980213D01*
X86879786Y-103829890D01*
X86707820Y-103704951D01*
X86707115Y-103704591D01*
X86699054Y-103700485D01*
X86648259Y-103652512D01*
X86631463Y-103584692D01*
X86653999Y-103518556D01*
X86699054Y-103479515D01*
X86707816Y-103475051D01*
X86729789Y-103459086D01*
X86879786Y-103350109D01*
X86879788Y-103350106D01*
X86879792Y-103350104D01*
X87030104Y-103199792D01*
X87030106Y-103199788D01*
X87030109Y-103199786D01*
X87157915Y-103023875D01*
X87159259Y-103024851D01*
X87205705Y-102982834D01*
X87259618Y-102970500D01*
X93810191Y-102970500D01*
X93877230Y-102990185D01*
G37*
%TD.AperFunction*%
%TA.AperFunction,Conductor*%
G36*
X46531444Y-82883999D02*
G01*
X46570486Y-82929056D01*
X46574951Y-82937820D01*
X46699890Y-83109786D01*
X46850213Y-83260109D01*
X47022182Y-83385050D01*
X47030946Y-83389516D01*
X47081742Y-83437491D01*
X47098536Y-83505312D01*
X47075998Y-83571447D01*
X47030946Y-83610484D01*
X47022182Y-83614949D01*
X46850213Y-83739890D01*
X46699890Y-83890213D01*
X46574949Y-84062182D01*
X46570484Y-84070946D01*
X46522509Y-84121742D01*
X46454688Y-84138536D01*
X46388553Y-84115998D01*
X46349516Y-84070946D01*
X46345050Y-84062182D01*
X46220109Y-83890213D01*
X46069786Y-83739890D01*
X45897820Y-83614951D01*
X45892654Y-83612319D01*
X45889054Y-83610485D01*
X45838259Y-83562512D01*
X45821463Y-83494692D01*
X45843999Y-83428556D01*
X45889054Y-83389515D01*
X45897816Y-83385051D01*
X45959158Y-83340484D01*
X46069786Y-83260109D01*
X46069788Y-83260106D01*
X46069792Y-83260104D01*
X46220104Y-83109792D01*
X46220106Y-83109788D01*
X46220109Y-83109786D01*
X46329086Y-82959789D01*
X46345051Y-82937816D01*
X46349514Y-82929054D01*
X46397488Y-82878259D01*
X46465308Y-82861463D01*
X46531444Y-82883999D01*
G37*
%TD.AperFunction*%
%TA.AperFunction,Conductor*%
G36*
X49071444Y-82883999D02*
G01*
X49110486Y-82929056D01*
X49114951Y-82937820D01*
X49239890Y-83109786D01*
X49390213Y-83260109D01*
X49562182Y-83385050D01*
X49570946Y-83389516D01*
X49621742Y-83437491D01*
X49638536Y-83505312D01*
X49615998Y-83571447D01*
X49570946Y-83610484D01*
X49562182Y-83614949D01*
X49390213Y-83739890D01*
X49239890Y-83890213D01*
X49114949Y-84062182D01*
X49110484Y-84070946D01*
X49062509Y-84121742D01*
X48994688Y-84138536D01*
X48928553Y-84115998D01*
X48889516Y-84070946D01*
X48885050Y-84062182D01*
X48760109Y-83890213D01*
X48609786Y-83739890D01*
X48437820Y-83614951D01*
X48432654Y-83612319D01*
X48429054Y-83610485D01*
X48378259Y-83562512D01*
X48361463Y-83494692D01*
X48383999Y-83428556D01*
X48429054Y-83389515D01*
X48437816Y-83385051D01*
X48499158Y-83340484D01*
X48609786Y-83260109D01*
X48609788Y-83260106D01*
X48609792Y-83260104D01*
X48760104Y-83109792D01*
X48760106Y-83109788D01*
X48760109Y-83109786D01*
X48869086Y-82959789D01*
X48885051Y-82937816D01*
X48889514Y-82929054D01*
X48937488Y-82878259D01*
X49005308Y-82861463D01*
X49071444Y-82883999D01*
G37*
%TD.AperFunction*%
%TA.AperFunction,Conductor*%
G36*
X63111444Y-82653999D02*
G01*
X63150484Y-82699054D01*
X63152941Y-82703875D01*
X63154951Y-82707820D01*
X63279890Y-82879786D01*
X63430213Y-83030109D01*
X63602182Y-83155050D01*
X63610946Y-83159516D01*
X63661742Y-83207491D01*
X63678536Y-83275312D01*
X63655998Y-83341447D01*
X63610946Y-83380484D01*
X63602182Y-83384949D01*
X63430213Y-83509890D01*
X63279890Y-83660213D01*
X63154949Y-83832182D01*
X63150484Y-83840946D01*
X63102509Y-83891742D01*
X63034688Y-83908536D01*
X62968553Y-83885998D01*
X62929516Y-83840946D01*
X62925050Y-83832182D01*
X62800109Y-83660213D01*
X62649786Y-83509890D01*
X62477820Y-83384951D01*
X62477115Y-83384591D01*
X62469054Y-83380485D01*
X62418259Y-83332512D01*
X62401463Y-83264692D01*
X62423999Y-83198556D01*
X62469054Y-83159515D01*
X62477816Y-83155051D01*
X62540110Y-83109792D01*
X62649786Y-83030109D01*
X62649788Y-83030106D01*
X62649792Y-83030104D01*
X62800104Y-82879792D01*
X62800106Y-82879788D01*
X62800109Y-82879786D01*
X62925048Y-82707820D01*
X62925047Y-82707820D01*
X62925051Y-82707816D01*
X62929514Y-82699054D01*
X62977488Y-82648259D01*
X63045308Y-82631463D01*
X63111444Y-82653999D01*
G37*
%TD.AperFunction*%
%TA.AperFunction,Conductor*%
G36*
X65651444Y-82653999D02*
G01*
X65690484Y-82699054D01*
X65692941Y-82703875D01*
X65694951Y-82707820D01*
X65819890Y-82879786D01*
X65970213Y-83030109D01*
X66142182Y-83155050D01*
X66150946Y-83159516D01*
X66201742Y-83207491D01*
X66218536Y-83275312D01*
X66195998Y-83341447D01*
X66150946Y-83380484D01*
X66142182Y-83384949D01*
X65970213Y-83509890D01*
X65819890Y-83660213D01*
X65694949Y-83832182D01*
X65690484Y-83840946D01*
X65642509Y-83891742D01*
X65574688Y-83908536D01*
X65508553Y-83885998D01*
X65469516Y-83840946D01*
X65465050Y-83832182D01*
X65340109Y-83660213D01*
X65189786Y-83509890D01*
X65017820Y-83384951D01*
X65017115Y-83384591D01*
X65009054Y-83380485D01*
X64958259Y-83332512D01*
X64941463Y-83264692D01*
X64963999Y-83198556D01*
X65009054Y-83159515D01*
X65017816Y-83155051D01*
X65080110Y-83109792D01*
X65189786Y-83030109D01*
X65189788Y-83030106D01*
X65189792Y-83030104D01*
X65340104Y-82879792D01*
X65340106Y-82879788D01*
X65340109Y-82879786D01*
X65465048Y-82707820D01*
X65465047Y-82707820D01*
X65465051Y-82707816D01*
X65469514Y-82699054D01*
X65517488Y-82648259D01*
X65585308Y-82631463D01*
X65651444Y-82653999D01*
G37*
%TD.AperFunction*%
%TA.AperFunction,Conductor*%
G36*
X96071444Y-82653999D02*
G01*
X96110484Y-82699054D01*
X96112941Y-82703875D01*
X96114951Y-82707820D01*
X96239890Y-82879786D01*
X96390213Y-83030109D01*
X96562182Y-83155050D01*
X96570946Y-83159516D01*
X96621742Y-83207491D01*
X96638536Y-83275312D01*
X96615998Y-83341447D01*
X96570946Y-83380484D01*
X96562182Y-83384949D01*
X96390213Y-83509890D01*
X96239890Y-83660213D01*
X96114949Y-83832182D01*
X96110484Y-83840946D01*
X96062509Y-83891742D01*
X95994688Y-83908536D01*
X95928553Y-83885998D01*
X95889516Y-83840946D01*
X95885050Y-83832182D01*
X95760109Y-83660213D01*
X95609786Y-83509890D01*
X95437820Y-83384951D01*
X95437115Y-83384591D01*
X95429054Y-83380485D01*
X95378259Y-83332512D01*
X95361463Y-83264692D01*
X95383999Y-83198556D01*
X95429054Y-83159515D01*
X95437816Y-83155051D01*
X95500110Y-83109792D01*
X95609786Y-83030109D01*
X95609788Y-83030106D01*
X95609792Y-83030104D01*
X95760104Y-82879792D01*
X95760106Y-82879788D01*
X95760109Y-82879786D01*
X95885048Y-82707820D01*
X95885047Y-82707820D01*
X95885051Y-82707816D01*
X95889514Y-82699054D01*
X95937488Y-82648259D01*
X96005308Y-82631463D01*
X96071444Y-82653999D01*
G37*
%TD.AperFunction*%
%TA.AperFunction,Conductor*%
G36*
X98611444Y-82653999D02*
G01*
X98650484Y-82699054D01*
X98652941Y-82703875D01*
X98654951Y-82707820D01*
X98779890Y-82879786D01*
X98930213Y-83030109D01*
X99102182Y-83155050D01*
X99110946Y-83159516D01*
X99161742Y-83207491D01*
X99178536Y-83275312D01*
X99155998Y-83341447D01*
X99110946Y-83380484D01*
X99102182Y-83384949D01*
X98930213Y-83509890D01*
X98779890Y-83660213D01*
X98654949Y-83832182D01*
X98650484Y-83840946D01*
X98602509Y-83891742D01*
X98534688Y-83908536D01*
X98468553Y-83885998D01*
X98429516Y-83840946D01*
X98425050Y-83832182D01*
X98300109Y-83660213D01*
X98149786Y-83509890D01*
X97977820Y-83384951D01*
X97977115Y-83384591D01*
X97969054Y-83380485D01*
X97918259Y-83332512D01*
X97901463Y-83264692D01*
X97923999Y-83198556D01*
X97969054Y-83159515D01*
X97977816Y-83155051D01*
X98040110Y-83109792D01*
X98149786Y-83030109D01*
X98149788Y-83030106D01*
X98149792Y-83030104D01*
X98300104Y-82879792D01*
X98300106Y-82879788D01*
X98300109Y-82879786D01*
X98425048Y-82707820D01*
X98425047Y-82707820D01*
X98425051Y-82707816D01*
X98429514Y-82699054D01*
X98477488Y-82648259D01*
X98545308Y-82631463D01*
X98611444Y-82653999D01*
G37*
%TD.AperFunction*%
%TA.AperFunction,Conductor*%
G36*
X43991444Y-82883999D02*
G01*
X44030486Y-82929056D01*
X44034951Y-82937820D01*
X44159890Y-83109786D01*
X44310213Y-83260109D01*
X44482182Y-83385050D01*
X44490946Y-83389516D01*
X44541742Y-83437491D01*
X44558536Y-83505312D01*
X44535998Y-83571447D01*
X44490946Y-83610484D01*
X44482182Y-83614949D01*
X44310215Y-83739889D01*
X44196285Y-83853819D01*
X44134962Y-83887303D01*
X44065270Y-83882319D01*
X44009337Y-83840447D01*
X43992422Y-83809470D01*
X43943354Y-83677913D01*
X43943350Y-83677906D01*
X43857190Y-83562812D01*
X43857187Y-83562809D01*
X43742093Y-83476649D01*
X43742088Y-83476646D01*
X43610528Y-83427577D01*
X43554595Y-83385705D01*
X43530178Y-83320241D01*
X43545030Y-83251968D01*
X43566175Y-83223720D01*
X43680104Y-83109792D01*
X43805051Y-82937816D01*
X43809514Y-82929054D01*
X43857488Y-82878259D01*
X43925308Y-82861463D01*
X43991444Y-82883999D01*
G37*
%TD.AperFunction*%
%TA.AperFunction,Conductor*%
G36*
X79571444Y-82613999D02*
G01*
X79610486Y-82659056D01*
X79614951Y-82667820D01*
X79739890Y-82839786D01*
X79890213Y-82990109D01*
X80062182Y-83115050D01*
X80070946Y-83119516D01*
X80121742Y-83167491D01*
X80138536Y-83235312D01*
X80115998Y-83301447D01*
X80070946Y-83340484D01*
X80062182Y-83344949D01*
X79890213Y-83469890D01*
X79739890Y-83620213D01*
X79614949Y-83792182D01*
X79610484Y-83800946D01*
X79562509Y-83851742D01*
X79494688Y-83868536D01*
X79428553Y-83845998D01*
X79389516Y-83800946D01*
X79385050Y-83792182D01*
X79260109Y-83620213D01*
X79109786Y-83469890D01*
X78937820Y-83344951D01*
X78937115Y-83344591D01*
X78929054Y-83340485D01*
X78878259Y-83292512D01*
X78861463Y-83224692D01*
X78883999Y-83158556D01*
X78929054Y-83119515D01*
X78937816Y-83115051D01*
X79027020Y-83050241D01*
X79109786Y-82990109D01*
X79109788Y-82990106D01*
X79109792Y-82990104D01*
X79260104Y-82839792D01*
X79260106Y-82839788D01*
X79260109Y-82839786D01*
X79385048Y-82667820D01*
X79385050Y-82667817D01*
X79385051Y-82667816D01*
X79389514Y-82659054D01*
X79437488Y-82608259D01*
X79505308Y-82591463D01*
X79571444Y-82613999D01*
G37*
%TD.AperFunction*%
%TA.AperFunction,Conductor*%
G36*
X82111444Y-82613999D02*
G01*
X82150486Y-82659056D01*
X82154951Y-82667820D01*
X82279890Y-82839786D01*
X82430213Y-82990109D01*
X82602182Y-83115050D01*
X82610946Y-83119516D01*
X82661742Y-83167491D01*
X82678536Y-83235312D01*
X82655998Y-83301447D01*
X82610946Y-83340484D01*
X82602182Y-83344949D01*
X82430213Y-83469890D01*
X82279890Y-83620213D01*
X82154949Y-83792182D01*
X82150484Y-83800946D01*
X82102509Y-83851742D01*
X82034688Y-83868536D01*
X81968553Y-83845998D01*
X81929516Y-83800946D01*
X81925050Y-83792182D01*
X81800109Y-83620213D01*
X81649786Y-83469890D01*
X81477820Y-83344951D01*
X81477115Y-83344591D01*
X81469054Y-83340485D01*
X81418259Y-83292512D01*
X81401463Y-83224692D01*
X81423999Y-83158556D01*
X81469054Y-83119515D01*
X81477816Y-83115051D01*
X81567020Y-83050241D01*
X81649786Y-82990109D01*
X81649788Y-82990106D01*
X81649792Y-82990104D01*
X81800104Y-82839792D01*
X81800106Y-82839788D01*
X81800109Y-82839786D01*
X81925048Y-82667820D01*
X81925050Y-82667817D01*
X81925051Y-82667816D01*
X81929514Y-82659054D01*
X81977488Y-82608259D01*
X82045308Y-82591463D01*
X82111444Y-82613999D01*
G37*
%TD.AperFunction*%
%TA.AperFunction,Conductor*%
G36*
X60571444Y-82653999D02*
G01*
X60610484Y-82699054D01*
X60612941Y-82703875D01*
X60614951Y-82707820D01*
X60739890Y-82879786D01*
X60890213Y-83030109D01*
X61062182Y-83155050D01*
X61070946Y-83159516D01*
X61121742Y-83207491D01*
X61138536Y-83275312D01*
X61115998Y-83341447D01*
X61070946Y-83380484D01*
X61062182Y-83384949D01*
X60890215Y-83509889D01*
X60776285Y-83623819D01*
X60714962Y-83657303D01*
X60645270Y-83652319D01*
X60589337Y-83610447D01*
X60572422Y-83579470D01*
X60523354Y-83447913D01*
X60523350Y-83447906D01*
X60437190Y-83332812D01*
X60437187Y-83332809D01*
X60322093Y-83246649D01*
X60322088Y-83246646D01*
X60190528Y-83197577D01*
X60134595Y-83155705D01*
X60110178Y-83090241D01*
X60125030Y-83021968D01*
X60146175Y-82993720D01*
X60260104Y-82879792D01*
X60289166Y-82839792D01*
X60385048Y-82707820D01*
X60385047Y-82707820D01*
X60385051Y-82707816D01*
X60389514Y-82699054D01*
X60437488Y-82648259D01*
X60505308Y-82631463D01*
X60571444Y-82653999D01*
G37*
%TD.AperFunction*%
%TA.AperFunction,Conductor*%
G36*
X93531444Y-82653999D02*
G01*
X93570484Y-82699054D01*
X93572941Y-82703875D01*
X93574951Y-82707820D01*
X93699890Y-82879786D01*
X93850213Y-83030109D01*
X94022182Y-83155050D01*
X94030946Y-83159516D01*
X94081742Y-83207491D01*
X94098536Y-83275312D01*
X94075998Y-83341447D01*
X94030946Y-83380484D01*
X94022182Y-83384949D01*
X93850215Y-83509889D01*
X93736285Y-83623819D01*
X93674962Y-83657303D01*
X93605270Y-83652319D01*
X93549337Y-83610447D01*
X93532422Y-83579470D01*
X93483354Y-83447913D01*
X93483350Y-83447906D01*
X93397190Y-83332812D01*
X93397187Y-83332809D01*
X93282093Y-83246649D01*
X93282088Y-83246646D01*
X93150528Y-83197577D01*
X93094595Y-83155705D01*
X93070178Y-83090241D01*
X93085030Y-83021968D01*
X93106175Y-82993720D01*
X93220104Y-82879792D01*
X93249166Y-82839792D01*
X93345048Y-82707820D01*
X93345047Y-82707820D01*
X93345051Y-82707816D01*
X93349514Y-82699054D01*
X93397488Y-82648259D01*
X93465308Y-82631463D01*
X93531444Y-82653999D01*
G37*
%TD.AperFunction*%
%TA.AperFunction,Conductor*%
G36*
X77031444Y-82613999D02*
G01*
X77070486Y-82659056D01*
X77074951Y-82667820D01*
X77199890Y-82839786D01*
X77350213Y-82990109D01*
X77522182Y-83115050D01*
X77530946Y-83119516D01*
X77581742Y-83167491D01*
X77598536Y-83235312D01*
X77575998Y-83301447D01*
X77530946Y-83340484D01*
X77522182Y-83344949D01*
X77350215Y-83469889D01*
X77236285Y-83583819D01*
X77174962Y-83617303D01*
X77105270Y-83612319D01*
X77049337Y-83570447D01*
X77032422Y-83539470D01*
X76983354Y-83407913D01*
X76983350Y-83407906D01*
X76897190Y-83292812D01*
X76897187Y-83292809D01*
X76782093Y-83206649D01*
X76782088Y-83206646D01*
X76650528Y-83157577D01*
X76594595Y-83115705D01*
X76570178Y-83050241D01*
X76585030Y-82981968D01*
X76606175Y-82953720D01*
X76720104Y-82839792D01*
X76741560Y-82810261D01*
X76815987Y-82707820D01*
X76845051Y-82667816D01*
X76849514Y-82659054D01*
X76897488Y-82608259D01*
X76965308Y-82591463D01*
X77031444Y-82613999D01*
G37*
%TD.AperFunction*%
%TA.AperFunction,Conductor*%
G36*
X44128667Y-81170185D02*
G01*
X44174422Y-81222989D01*
X44184366Y-81292147D01*
X44161946Y-81347385D01*
X44034949Y-81522182D01*
X44030484Y-81530946D01*
X43982509Y-81581742D01*
X43914688Y-81598536D01*
X43848553Y-81575998D01*
X43818652Y-81546096D01*
X43813539Y-81538844D01*
X43805051Y-81522184D01*
X43695425Y-81371296D01*
X43694881Y-81370524D01*
X43683887Y-81338265D01*
X43672431Y-81306156D01*
X43672639Y-81305259D01*
X43672343Y-81304389D01*
X43680534Y-81271310D01*
X43688257Y-81238103D01*
X43689000Y-81237125D01*
X43689138Y-81236568D01*
X43690148Y-81235613D01*
X43708546Y-81211399D01*
X43733129Y-81186817D01*
X43794452Y-81153333D01*
X43820808Y-81150500D01*
X44061628Y-81150500D01*
X44128667Y-81170185D01*
G37*
%TD.AperFunction*%
%TA.AperFunction,Conductor*%
G36*
X46612967Y-81153829D02*
G01*
X46624732Y-81152671D01*
X46645880Y-81163494D01*
X46668667Y-81170185D01*
X46676405Y-81179116D01*
X46686930Y-81184502D01*
X46698870Y-81205041D01*
X46714422Y-81222989D01*
X46716103Y-81234686D01*
X46722045Y-81244906D01*
X46720985Y-81268637D01*
X46724366Y-81292147D01*
X46719388Y-81304410D01*
X46718929Y-81314707D01*
X46704488Y-81341121D01*
X46701946Y-81347385D01*
X46574949Y-81522182D01*
X46570484Y-81530946D01*
X46560557Y-81525888D01*
X46550489Y-81538587D01*
X46493414Y-81578888D01*
X46423611Y-81581935D01*
X46363241Y-81546760D01*
X46347596Y-81526336D01*
X46345051Y-81522184D01*
X46218054Y-81347385D01*
X46194574Y-81281578D01*
X46210400Y-81213525D01*
X46260506Y-81164830D01*
X46318372Y-81150500D01*
X46601628Y-81150500D01*
X46612967Y-81153829D01*
G37*
%TD.AperFunction*%
%TA.AperFunction,Conductor*%
G36*
X49152967Y-81153829D02*
G01*
X49164732Y-81152671D01*
X49185880Y-81163494D01*
X49208667Y-81170185D01*
X49216405Y-81179116D01*
X49226930Y-81184502D01*
X49238870Y-81205041D01*
X49254422Y-81222989D01*
X49256103Y-81234686D01*
X49262045Y-81244906D01*
X49260985Y-81268637D01*
X49264366Y-81292147D01*
X49259388Y-81304410D01*
X49258929Y-81314707D01*
X49244488Y-81341121D01*
X49241946Y-81347385D01*
X49114949Y-81522182D01*
X49110484Y-81530946D01*
X49100557Y-81525888D01*
X49090489Y-81538587D01*
X49033414Y-81578888D01*
X48963611Y-81581935D01*
X48903241Y-81546760D01*
X48887596Y-81526336D01*
X48885051Y-81522184D01*
X48758054Y-81347385D01*
X48734574Y-81281578D01*
X48750400Y-81213525D01*
X48800506Y-81164830D01*
X48858372Y-81150500D01*
X49141628Y-81150500D01*
X49152967Y-81153829D01*
G37*
%TD.AperFunction*%
%TA.AperFunction,Conductor*%
G36*
X59794687Y-79670185D02*
G01*
X59840442Y-79722989D01*
X59850386Y-79792147D01*
X59821361Y-79855703D01*
X59775100Y-79889061D01*
X59691874Y-79923533D01*
X59691871Y-79923535D01*
X59585331Y-79994722D01*
X59585324Y-79994728D01*
X58910429Y-80669623D01*
X58861067Y-80699873D01*
X58711584Y-80748444D01*
X58522179Y-80844951D01*
X58350213Y-80969890D01*
X58199890Y-81120213D01*
X58072085Y-81296125D01*
X58070740Y-81295148D01*
X58024295Y-81337166D01*
X57970382Y-81349500D01*
X53320808Y-81349500D01*
X53253769Y-81329815D01*
X53233127Y-81313181D01*
X51914674Y-79994727D01*
X51914673Y-79994726D01*
X51914667Y-79994722D01*
X51861398Y-79959129D01*
X51808123Y-79923532D01*
X51724900Y-79889061D01*
X51670496Y-79845220D01*
X51648431Y-79778926D01*
X51665710Y-79711227D01*
X51716847Y-79663616D01*
X51772352Y-79650500D01*
X59727648Y-79650500D01*
X59794687Y-79670185D01*
G37*
%TD.AperFunction*%
%TA.AperFunction,Conductor*%
G36*
X76888459Y-79653674D02*
G01*
X76899665Y-79652470D01*
X76921386Y-79663343D01*
X76944687Y-79670185D01*
X76952065Y-79678699D01*
X76962144Y-79683745D01*
X76974539Y-79704636D01*
X76990442Y-79722989D01*
X76992045Y-79734142D01*
X76997796Y-79743834D01*
X76996929Y-79768105D01*
X77000386Y-79792147D01*
X76995704Y-79802398D01*
X76995302Y-79813659D01*
X76981451Y-79833607D01*
X76971361Y-79855703D01*
X76960846Y-79863284D01*
X76955454Y-79871052D01*
X76925288Y-79888983D01*
X76841875Y-79923534D01*
X76841873Y-79923535D01*
X76841249Y-79923951D01*
X76841244Y-79923954D01*
X76735332Y-79994721D01*
X76735325Y-79994727D01*
X76120710Y-80609342D01*
X76059387Y-80642827D01*
X76011245Y-80642315D01*
X76011055Y-80643516D01*
X75867720Y-80620814D01*
X75796287Y-80609500D01*
X75583713Y-80609500D01*
X75535042Y-80617208D01*
X75373760Y-80642753D01*
X75171585Y-80708444D01*
X74982179Y-80804951D01*
X74810213Y-80929890D01*
X74659890Y-81080213D01*
X74534949Y-81252182D01*
X74519862Y-81281794D01*
X74471888Y-81332590D01*
X74409377Y-81349500D01*
X69820808Y-81349500D01*
X69753769Y-81329815D01*
X69733127Y-81313181D01*
X68414674Y-79994727D01*
X68414673Y-79994726D01*
X68414667Y-79994722D01*
X68361398Y-79959129D01*
X68308123Y-79923532D01*
X68224900Y-79889061D01*
X68170496Y-79845220D01*
X68148431Y-79778926D01*
X68165710Y-79711227D01*
X68216847Y-79663616D01*
X68272352Y-79650500D01*
X76877648Y-79650500D01*
X76888459Y-79653674D01*
G37*
%TD.AperFunction*%
%TD*%
%TA.AperFunction,Conductor*%
%TO.N,/GND*%
G36*
X41457421Y-82900185D02*
G01*
X41491099Y-82934591D01*
X41492085Y-82933875D01*
X41619890Y-83109786D01*
X41733818Y-83223714D01*
X41767303Y-83285037D01*
X41762319Y-83354729D01*
X41720447Y-83410662D01*
X41689471Y-83427577D01*
X41557912Y-83476646D01*
X41557906Y-83476649D01*
X41442812Y-83562809D01*
X41442809Y-83562812D01*
X41356649Y-83677906D01*
X41356645Y-83677913D01*
X41306403Y-83812620D01*
X41306401Y-83812627D01*
X41300000Y-83872155D01*
X41300000Y-84520000D01*
X42216988Y-84520000D01*
X42184075Y-84577007D01*
X42150000Y-84704174D01*
X42150000Y-84835826D01*
X42184075Y-84962993D01*
X42216988Y-85020000D01*
X41300000Y-85020000D01*
X41300000Y-85580692D01*
X41280315Y-85647731D01*
X41227511Y-85693486D01*
X41158353Y-85703430D01*
X41094797Y-85674405D01*
X41088319Y-85668373D01*
X40686819Y-85266873D01*
X40653334Y-85205550D01*
X40650500Y-85179192D01*
X40650500Y-83320808D01*
X40670185Y-83253769D01*
X40686819Y-83233127D01*
X41003127Y-82916819D01*
X41064450Y-82883334D01*
X41090808Y-82880500D01*
X41390382Y-82880500D01*
X41457421Y-82900185D01*
G37*
%TD.AperFunction*%
%TA.AperFunction,Conductor*%
G36*
X116442539Y-55520185D02*
G01*
X116488294Y-55572989D01*
X116499500Y-55624500D01*
X116499500Y-153875500D01*
X116479815Y-153942539D01*
X116427011Y-153988294D01*
X116375500Y-153999500D01*
X25624500Y-153999500D01*
X25557461Y-153979815D01*
X25511706Y-153927011D01*
X25500500Y-153875500D01*
X25500500Y-147865186D01*
X29099500Y-147865186D01*
X29099500Y-148134813D01*
X29129686Y-148402719D01*
X29129688Y-148402731D01*
X29189684Y-148665594D01*
X29189687Y-148665602D01*
X29278734Y-148920082D01*
X29395714Y-149162994D01*
X29395716Y-149162997D01*
X29539162Y-149391289D01*
X29707266Y-149602085D01*
X29897915Y-149792734D01*
X30108711Y-149960838D01*
X30337003Y-150104284D01*
X30579921Y-150221267D01*
X30771049Y-150288145D01*
X30834397Y-150310312D01*
X30834405Y-150310315D01*
X30834408Y-150310315D01*
X30834409Y-150310316D01*
X31097268Y-150370312D01*
X31365187Y-150400499D01*
X31365188Y-150400500D01*
X31365191Y-150400500D01*
X31634812Y-150400500D01*
X31634812Y-150400499D01*
X31902732Y-150370312D01*
X32165591Y-150310316D01*
X32420079Y-150221267D01*
X32662997Y-150104284D01*
X32891289Y-149960838D01*
X33102085Y-149792734D01*
X33292734Y-149602085D01*
X33460838Y-149391289D01*
X33604284Y-149162997D01*
X33721267Y-148920079D01*
X33810316Y-148665591D01*
X33870312Y-148402732D01*
X33900500Y-148134809D01*
X33900500Y-147865191D01*
X33900499Y-147865186D01*
X108099500Y-147865186D01*
X108099500Y-148134813D01*
X108129686Y-148402719D01*
X108129688Y-148402731D01*
X108189684Y-148665594D01*
X108189687Y-148665602D01*
X108278734Y-148920082D01*
X108395714Y-149162994D01*
X108395716Y-149162997D01*
X108539162Y-149391289D01*
X108707266Y-149602085D01*
X108897915Y-149792734D01*
X109108711Y-149960838D01*
X109337003Y-150104284D01*
X109579921Y-150221267D01*
X109771049Y-150288145D01*
X109834397Y-150310312D01*
X109834405Y-150310315D01*
X109834408Y-150310315D01*
X109834409Y-150310316D01*
X110097268Y-150370312D01*
X110365187Y-150400499D01*
X110365188Y-150400500D01*
X110365191Y-150400500D01*
X110634812Y-150400500D01*
X110634812Y-150400499D01*
X110902732Y-150370312D01*
X111165591Y-150310316D01*
X111420079Y-150221267D01*
X111662997Y-150104284D01*
X111891289Y-149960838D01*
X112102085Y-149792734D01*
X112292734Y-149602085D01*
X112460838Y-149391289D01*
X112604284Y-149162997D01*
X112721267Y-148920079D01*
X112810316Y-148665591D01*
X112870312Y-148402732D01*
X112900500Y-148134809D01*
X112900500Y-147865191D01*
X112870312Y-147597268D01*
X112810316Y-147334409D01*
X112721267Y-147079921D01*
X112604284Y-146837003D01*
X112460838Y-146608711D01*
X112292734Y-146397915D01*
X112102085Y-146207266D01*
X111891289Y-146039162D01*
X111662997Y-145895716D01*
X111662994Y-145895714D01*
X111420082Y-145778734D01*
X111165602Y-145689687D01*
X111165594Y-145689684D01*
X110968446Y-145644687D01*
X110902732Y-145629688D01*
X110902728Y-145629687D01*
X110902719Y-145629686D01*
X110634813Y-145599500D01*
X110634809Y-145599500D01*
X110365191Y-145599500D01*
X110365186Y-145599500D01*
X110097280Y-145629686D01*
X110097268Y-145629688D01*
X109834405Y-145689684D01*
X109834397Y-145689687D01*
X109579917Y-145778734D01*
X109337005Y-145895714D01*
X109108712Y-146039161D01*
X108897915Y-146207265D01*
X108707265Y-146397915D01*
X108539161Y-146608712D01*
X108395714Y-146837005D01*
X108278734Y-147079917D01*
X108189687Y-147334397D01*
X108189684Y-147334405D01*
X108129688Y-147597268D01*
X108129686Y-147597280D01*
X108099500Y-147865186D01*
X33900499Y-147865186D01*
X33870312Y-147597268D01*
X33810316Y-147334409D01*
X33721267Y-147079921D01*
X33604284Y-146837003D01*
X33460838Y-146608711D01*
X33292734Y-146397915D01*
X33102085Y-146207266D01*
X32891289Y-146039162D01*
X32662997Y-145895716D01*
X32662994Y-145895714D01*
X32420082Y-145778734D01*
X32165602Y-145689687D01*
X32165594Y-145689684D01*
X31968446Y-145644687D01*
X31902732Y-145629688D01*
X31902728Y-145629687D01*
X31902719Y-145629686D01*
X31634813Y-145599500D01*
X31634809Y-145599500D01*
X31365191Y-145599500D01*
X31365186Y-145599500D01*
X31097280Y-145629686D01*
X31097268Y-145629688D01*
X30834405Y-145689684D01*
X30834397Y-145689687D01*
X30579917Y-145778734D01*
X30337005Y-145895714D01*
X30108712Y-146039161D01*
X29897915Y-146207265D01*
X29707265Y-146397915D01*
X29539161Y-146608712D01*
X29395714Y-146837005D01*
X29278734Y-147079917D01*
X29189687Y-147334397D01*
X29189684Y-147334405D01*
X29129688Y-147597268D01*
X29129686Y-147597280D01*
X29099500Y-147865186D01*
X25500500Y-147865186D01*
X25500500Y-129421153D01*
X35699500Y-129421153D01*
X35699500Y-129578846D01*
X35730261Y-129733489D01*
X35730264Y-129733501D01*
X35790602Y-129879172D01*
X35790609Y-129879185D01*
X35878210Y-130010288D01*
X35878213Y-130010292D01*
X35989707Y-130121786D01*
X35989711Y-130121789D01*
X36120814Y-130209390D01*
X36120827Y-130209397D01*
X36208230Y-130245599D01*
X36266503Y-130269737D01*
X36333580Y-130283079D01*
X36395490Y-130315463D01*
X36397069Y-130317015D01*
X36845330Y-130765276D01*
X36864990Y-130778412D01*
X36951873Y-130836465D01*
X37070256Y-130885501D01*
X37070260Y-130885501D01*
X37070261Y-130885502D01*
X37195928Y-130910500D01*
X37195931Y-130910500D01*
X59340382Y-130910500D01*
X59407421Y-130930185D01*
X59441099Y-130964591D01*
X59442085Y-130963875D01*
X59569890Y-131139786D01*
X59720213Y-131290109D01*
X59892182Y-131415050D01*
X59900946Y-131419516D01*
X59951742Y-131467491D01*
X59968536Y-131535312D01*
X59945998Y-131601447D01*
X59900946Y-131640484D01*
X59892182Y-131644949D01*
X59720213Y-131769890D01*
X59569890Y-131920213D01*
X59444951Y-132092179D01*
X59348444Y-132281585D01*
X59282753Y-132483760D01*
X59249500Y-132693713D01*
X59249500Y-132906287D01*
X59282754Y-133116243D01*
X59339409Y-133290609D01*
X59348444Y-133318414D01*
X59444951Y-133507820D01*
X59569890Y-133679786D01*
X59720213Y-133830109D01*
X59892182Y-133955050D01*
X59900946Y-133959516D01*
X59951742Y-134007491D01*
X59968536Y-134075312D01*
X59945998Y-134141447D01*
X59900946Y-134180484D01*
X59892182Y-134184949D01*
X59720213Y-134309890D01*
X59569890Y-134460213D01*
X59444951Y-134632179D01*
X59348444Y-134821585D01*
X59282753Y-135023760D01*
X59249500Y-135233713D01*
X59249500Y-135446287D01*
X59282754Y-135656243D01*
X59344175Y-135845277D01*
X59348444Y-135858414D01*
X59444951Y-136047820D01*
X59569890Y-136219786D01*
X59720213Y-136370109D01*
X59892182Y-136495050D01*
X59900946Y-136499516D01*
X59951742Y-136547491D01*
X59968536Y-136615312D01*
X59945998Y-136681447D01*
X59900946Y-136720484D01*
X59892182Y-136724949D01*
X59720213Y-136849890D01*
X59569890Y-137000213D01*
X59444951Y-137172179D01*
X59348444Y-137361585D01*
X59282753Y-137563760D01*
X59280364Y-137578846D01*
X59249500Y-137773713D01*
X59249500Y-137986287D01*
X59253302Y-138010289D01*
X59270961Y-138121789D01*
X59282754Y-138196243D01*
X59313353Y-138290418D01*
X59348444Y-138398414D01*
X59444951Y-138587820D01*
X59569890Y-138759786D01*
X59720213Y-138910109D01*
X59892182Y-139035050D01*
X59900946Y-139039516D01*
X59951742Y-139087491D01*
X59968536Y-139155312D01*
X59945998Y-139221447D01*
X59900946Y-139260484D01*
X59892182Y-139264949D01*
X59720213Y-139389890D01*
X59569890Y-139540213D01*
X59444951Y-139712179D01*
X59348444Y-139901585D01*
X59282753Y-140103760D01*
X59249500Y-140313713D01*
X59249500Y-140526286D01*
X59282753Y-140736239D01*
X59348444Y-140938414D01*
X59444951Y-141127820D01*
X59569890Y-141299786D01*
X59720213Y-141450109D01*
X59892182Y-141575050D01*
X59900946Y-141579516D01*
X59951742Y-141627491D01*
X59968536Y-141695312D01*
X59945998Y-141761447D01*
X59900946Y-141800484D01*
X59892182Y-141804949D01*
X59720213Y-141929890D01*
X59569890Y-142080213D01*
X59444951Y-142252179D01*
X59348444Y-142441585D01*
X59282753Y-142643760D01*
X59249500Y-142853713D01*
X59249500Y-143066286D01*
X59282753Y-143276239D01*
X59348444Y-143478414D01*
X59444951Y-143667820D01*
X59569890Y-143839786D01*
X59720213Y-143990109D01*
X59892182Y-144115050D01*
X59900946Y-144119516D01*
X59951742Y-144167491D01*
X59968536Y-144235312D01*
X59945998Y-144301447D01*
X59900946Y-144340484D01*
X59892182Y-144344949D01*
X59720213Y-144469890D01*
X59569890Y-144620213D01*
X59444951Y-144792179D01*
X59348444Y-144981585D01*
X59282753Y-145183760D01*
X59249500Y-145393713D01*
X59249500Y-145606287D01*
X59282754Y-145816243D01*
X59308576Y-145895716D01*
X59348444Y-146018414D01*
X59444951Y-146207820D01*
X59569890Y-146379786D01*
X59720213Y-146530109D01*
X59892179Y-146655048D01*
X59892181Y-146655049D01*
X59892184Y-146655051D01*
X60081588Y-146751557D01*
X60283757Y-146817246D01*
X60493713Y-146850500D01*
X60493714Y-146850500D01*
X60706286Y-146850500D01*
X60706287Y-146850500D01*
X60916243Y-146817246D01*
X61118412Y-146751557D01*
X61307816Y-146655051D01*
X61371598Y-146608711D01*
X61479786Y-146530109D01*
X61479788Y-146530106D01*
X61479792Y-146530104D01*
X61630104Y-146379792D01*
X61630106Y-146379788D01*
X61630109Y-146379786D01*
X61755048Y-146207820D01*
X61755047Y-146207820D01*
X61755051Y-146207816D01*
X61851557Y-146018412D01*
X61917246Y-145816243D01*
X61950500Y-145606287D01*
X61950500Y-145393713D01*
X61917246Y-145183757D01*
X61851557Y-144981588D01*
X61755051Y-144792184D01*
X61755049Y-144792181D01*
X61755048Y-144792179D01*
X61630109Y-144620213D01*
X61479786Y-144469890D01*
X61307820Y-144344951D01*
X61307115Y-144344591D01*
X61299054Y-144340485D01*
X61248259Y-144292512D01*
X61231463Y-144224692D01*
X61253999Y-144158556D01*
X61299054Y-144119515D01*
X61307816Y-144115051D01*
X61329789Y-144099086D01*
X61479786Y-143990109D01*
X61479788Y-143990106D01*
X61479792Y-143990104D01*
X61630104Y-143839792D01*
X61630106Y-143839788D01*
X61630109Y-143839786D01*
X61755048Y-143667820D01*
X61755047Y-143667820D01*
X61755051Y-143667816D01*
X61851557Y-143478412D01*
X61917246Y-143276243D01*
X61950500Y-143066287D01*
X61950500Y-142853713D01*
X61917246Y-142643757D01*
X61851557Y-142441588D01*
X61755051Y-142252184D01*
X61755049Y-142252181D01*
X61755048Y-142252179D01*
X61630109Y-142080213D01*
X61479786Y-141929890D01*
X61307820Y-141804951D01*
X61307115Y-141804591D01*
X61299054Y-141800485D01*
X61248259Y-141752512D01*
X61231463Y-141684692D01*
X61253999Y-141618556D01*
X61299054Y-141579515D01*
X61307816Y-141575051D01*
X61329789Y-141559086D01*
X61479786Y-141450109D01*
X61479788Y-141450106D01*
X61479792Y-141450104D01*
X61630104Y-141299792D01*
X61630106Y-141299788D01*
X61630109Y-141299786D01*
X61755048Y-141127820D01*
X61755047Y-141127820D01*
X61755051Y-141127816D01*
X61851557Y-140938412D01*
X61917246Y-140736243D01*
X61950500Y-140526287D01*
X61950500Y-140313713D01*
X61917246Y-140103757D01*
X61851557Y-139901588D01*
X61755051Y-139712184D01*
X61755049Y-139712181D01*
X61755048Y-139712179D01*
X61630109Y-139540213D01*
X61479786Y-139389890D01*
X61307820Y-139264951D01*
X61307115Y-139264591D01*
X61299054Y-139260485D01*
X61248259Y-139212512D01*
X61231463Y-139144692D01*
X61253999Y-139078556D01*
X61299054Y-139039515D01*
X61307816Y-139035051D01*
X61329789Y-139019086D01*
X61479786Y-138910109D01*
X61479788Y-138910106D01*
X61479792Y-138910104D01*
X61630104Y-138759792D01*
X61630106Y-138759788D01*
X61630109Y-138759786D01*
X61755048Y-138587820D01*
X61755047Y-138587820D01*
X61755051Y-138587816D01*
X61851557Y-138398412D01*
X61917246Y-138196243D01*
X61950500Y-137986287D01*
X61950500Y-137773713D01*
X61917246Y-137563757D01*
X61870911Y-137421153D01*
X74199500Y-137421153D01*
X74199500Y-137578846D01*
X74230261Y-137733489D01*
X74230264Y-137733501D01*
X74290602Y-137879172D01*
X74290609Y-137879185D01*
X74378210Y-138010288D01*
X74378213Y-138010292D01*
X74489707Y-138121786D01*
X74489711Y-138121789D01*
X74620814Y-138209390D01*
X74620827Y-138209397D01*
X74766498Y-138269735D01*
X74766503Y-138269737D01*
X74800830Y-138276565D01*
X74833580Y-138283080D01*
X74895491Y-138315465D01*
X74897070Y-138317016D01*
X74965327Y-138385273D01*
X74965331Y-138385276D01*
X75071866Y-138456461D01*
X75071872Y-138456464D01*
X75071873Y-138456465D01*
X75190256Y-138505501D01*
X75190260Y-138505501D01*
X75190261Y-138505502D01*
X75315928Y-138530500D01*
X75315931Y-138530500D01*
X84740382Y-138530500D01*
X84807421Y-138550185D01*
X84841099Y-138584591D01*
X84842085Y-138583875D01*
X84969890Y-138759786D01*
X85120213Y-138910109D01*
X85292182Y-139035050D01*
X85300946Y-139039516D01*
X85351742Y-139087491D01*
X85368536Y-139155312D01*
X85345998Y-139221447D01*
X85300946Y-139260484D01*
X85292182Y-139264949D01*
X85120213Y-139389890D01*
X84969890Y-139540213D01*
X84844951Y-139712179D01*
X84748444Y-139901585D01*
X84682753Y-140103760D01*
X84649500Y-140313713D01*
X84649500Y-140526286D01*
X84682753Y-140736239D01*
X84748444Y-140938414D01*
X84844951Y-141127820D01*
X84969890Y-141299786D01*
X85120213Y-141450109D01*
X85292182Y-141575050D01*
X85300946Y-141579516D01*
X85351742Y-141627491D01*
X85368536Y-141695312D01*
X85345998Y-141761447D01*
X85300946Y-141800484D01*
X85292182Y-141804949D01*
X85120213Y-141929890D01*
X84969890Y-142080213D01*
X84844951Y-142252179D01*
X84748444Y-142441585D01*
X84682753Y-142643760D01*
X84649500Y-142853713D01*
X84649500Y-143066286D01*
X84682753Y-143276239D01*
X84748444Y-143478414D01*
X84844951Y-143667820D01*
X84969890Y-143839786D01*
X85120213Y-143990109D01*
X85292182Y-144115050D01*
X85300946Y-144119516D01*
X85351742Y-144167491D01*
X85368536Y-144235312D01*
X85345998Y-144301447D01*
X85300946Y-144340484D01*
X85292182Y-144344949D01*
X85120213Y-144469890D01*
X84969890Y-144620213D01*
X84844951Y-144792179D01*
X84748444Y-144981585D01*
X84682753Y-145183760D01*
X84649500Y-145393713D01*
X84649500Y-145606287D01*
X84682754Y-145816243D01*
X84708576Y-145895716D01*
X84748444Y-146018414D01*
X84844951Y-146207820D01*
X84969890Y-146379786D01*
X85120213Y-146530109D01*
X85292179Y-146655048D01*
X85292181Y-146655049D01*
X85292184Y-146655051D01*
X85481588Y-146751557D01*
X85683757Y-146817246D01*
X85893713Y-146850500D01*
X85893714Y-146850500D01*
X86106286Y-146850500D01*
X86106287Y-146850500D01*
X86316243Y-146817246D01*
X86518412Y-146751557D01*
X86707816Y-146655051D01*
X86771598Y-146608711D01*
X86879786Y-146530109D01*
X86879788Y-146530106D01*
X86879792Y-146530104D01*
X87030104Y-146379792D01*
X87030106Y-146379788D01*
X87030109Y-146379786D01*
X87155048Y-146207820D01*
X87155047Y-146207820D01*
X87155051Y-146207816D01*
X87251557Y-146018412D01*
X87317246Y-145816243D01*
X87350500Y-145606287D01*
X87350500Y-145393713D01*
X87317246Y-145183757D01*
X87251557Y-144981588D01*
X87155051Y-144792184D01*
X87155049Y-144792181D01*
X87155048Y-144792179D01*
X87030109Y-144620213D01*
X86879786Y-144469890D01*
X86707820Y-144344951D01*
X86707115Y-144344591D01*
X86699054Y-144340485D01*
X86648259Y-144292512D01*
X86631463Y-144224692D01*
X86653999Y-144158556D01*
X86699054Y-144119515D01*
X86707816Y-144115051D01*
X86729789Y-144099086D01*
X86879786Y-143990109D01*
X86879788Y-143990106D01*
X86879792Y-143990104D01*
X87030104Y-143839792D01*
X87030106Y-143839788D01*
X87030109Y-143839786D01*
X87155048Y-143667820D01*
X87155047Y-143667820D01*
X87155051Y-143667816D01*
X87251557Y-143478412D01*
X87317246Y-143276243D01*
X87350500Y-143066287D01*
X87350500Y-142853713D01*
X87317246Y-142643757D01*
X87251557Y-142441588D01*
X87155051Y-142252184D01*
X87155049Y-142252181D01*
X87155048Y-142252179D01*
X87030109Y-142080213D01*
X86879786Y-141929890D01*
X86707820Y-141804951D01*
X86707115Y-141804591D01*
X86699054Y-141800485D01*
X86648259Y-141752512D01*
X86631463Y-141684692D01*
X86653999Y-141618556D01*
X86699054Y-141579515D01*
X86707816Y-141575051D01*
X86729789Y-141559086D01*
X86879786Y-141450109D01*
X86879788Y-141450106D01*
X86879792Y-141450104D01*
X87030104Y-141299792D01*
X87030106Y-141299788D01*
X87030109Y-141299786D01*
X87155048Y-141127820D01*
X87155047Y-141127820D01*
X87155051Y-141127816D01*
X87251557Y-140938412D01*
X87317246Y-140736243D01*
X87350500Y-140526287D01*
X87350500Y-140313713D01*
X87317246Y-140103757D01*
X87251557Y-139901588D01*
X87155051Y-139712184D01*
X87155049Y-139712181D01*
X87155048Y-139712179D01*
X87030109Y-139540213D01*
X86879786Y-139389890D01*
X86707820Y-139264951D01*
X86707115Y-139264591D01*
X86699054Y-139260485D01*
X86648259Y-139212512D01*
X86631463Y-139144692D01*
X86653999Y-139078556D01*
X86699054Y-139039515D01*
X86707816Y-139035051D01*
X86729789Y-139019086D01*
X86879786Y-138910109D01*
X86879788Y-138910106D01*
X86879792Y-138910104D01*
X87030104Y-138759792D01*
X87030106Y-138759788D01*
X87030109Y-138759786D01*
X87155048Y-138587820D01*
X87155047Y-138587820D01*
X87155051Y-138587816D01*
X87251557Y-138398412D01*
X87317246Y-138196243D01*
X87350500Y-137986287D01*
X87350500Y-137773713D01*
X87317246Y-137563757D01*
X87251557Y-137361588D01*
X87155051Y-137172184D01*
X87155049Y-137172181D01*
X87155048Y-137172179D01*
X87030109Y-137000213D01*
X86879786Y-136849890D01*
X86707820Y-136724951D01*
X86707115Y-136724591D01*
X86699054Y-136720485D01*
X86648259Y-136672512D01*
X86631463Y-136604692D01*
X86653999Y-136538556D01*
X86699054Y-136499515D01*
X86707816Y-136495051D01*
X86729789Y-136479086D01*
X86879786Y-136370109D01*
X86879788Y-136370106D01*
X86879792Y-136370104D01*
X87030104Y-136219792D01*
X87030106Y-136219788D01*
X87030109Y-136219786D01*
X87155048Y-136047820D01*
X87155047Y-136047820D01*
X87155051Y-136047816D01*
X87251557Y-135858412D01*
X87317246Y-135656243D01*
X87350500Y-135446287D01*
X87350500Y-135233713D01*
X87317246Y-135023757D01*
X87251557Y-134821588D01*
X87155051Y-134632184D01*
X87155049Y-134632181D01*
X87155048Y-134632179D01*
X87030109Y-134460213D01*
X86879786Y-134309890D01*
X86707820Y-134184951D01*
X86707115Y-134184591D01*
X86699054Y-134180485D01*
X86648259Y-134132512D01*
X86631463Y-134064692D01*
X86653999Y-133998556D01*
X86699054Y-133959515D01*
X86707816Y-133955051D01*
X86824230Y-133870472D01*
X86879786Y-133830109D01*
X86879788Y-133830106D01*
X86879792Y-133830104D01*
X87030104Y-133679792D01*
X87030106Y-133679788D01*
X87030109Y-133679786D01*
X87155048Y-133507820D01*
X87155047Y-133507820D01*
X87155051Y-133507816D01*
X87251557Y-133318412D01*
X87317246Y-133116243D01*
X87350500Y-132906287D01*
X87350500Y-132693713D01*
X87317246Y-132483757D01*
X87251557Y-132281588D01*
X87155051Y-132092184D01*
X87155049Y-132092181D01*
X87155048Y-132092179D01*
X87030109Y-131920213D01*
X86879786Y-131769890D01*
X86707820Y-131644951D01*
X86707115Y-131644591D01*
X86699054Y-131640485D01*
X86648259Y-131592512D01*
X86631463Y-131524692D01*
X86653999Y-131458556D01*
X86699054Y-131419515D01*
X86707816Y-131415051D01*
X86729789Y-131399086D01*
X86879786Y-131290109D01*
X86879788Y-131290106D01*
X86879792Y-131290104D01*
X87030104Y-131139792D01*
X87030106Y-131139788D01*
X87030109Y-131139786D01*
X87157915Y-130963875D01*
X87159259Y-130964851D01*
X87205705Y-130922834D01*
X87259618Y-130910500D01*
X105804071Y-130910500D01*
X105888615Y-130893682D01*
X105929744Y-130885501D01*
X106048127Y-130836465D01*
X106154669Y-130765277D01*
X106602932Y-130317012D01*
X106664252Y-130283530D01*
X106666317Y-130283099D01*
X106733497Y-130269737D01*
X106879179Y-130209394D01*
X107010289Y-130121789D01*
X107121789Y-130010289D01*
X107209394Y-129879179D01*
X107269737Y-129733497D01*
X107300500Y-129578842D01*
X107300500Y-129421158D01*
X107300500Y-129421155D01*
X107300499Y-129421153D01*
X107269738Y-129266510D01*
X107269738Y-129266508D01*
X107269737Y-129266503D01*
X107254572Y-129229890D01*
X107209397Y-129120827D01*
X107209390Y-129120814D01*
X107121789Y-128989711D01*
X107121786Y-128989707D01*
X107010292Y-128878213D01*
X107010288Y-128878210D01*
X106879185Y-128790609D01*
X106879172Y-128790602D01*
X106733501Y-128730264D01*
X106733489Y-128730261D01*
X106578845Y-128699500D01*
X106578842Y-128699500D01*
X106421158Y-128699500D01*
X106421155Y-128699500D01*
X106266510Y-128730261D01*
X106266498Y-128730264D01*
X106120827Y-128790602D01*
X106120814Y-128790609D01*
X105989711Y-128878210D01*
X105989707Y-128878213D01*
X105878213Y-128989707D01*
X105878210Y-128989711D01*
X105790609Y-129120814D01*
X105790602Y-129120827D01*
X105730264Y-129266498D01*
X105730261Y-129266508D01*
X105716920Y-129333579D01*
X105684535Y-129395490D01*
X105682985Y-129397068D01*
X105506871Y-129573182D01*
X105445551Y-129606666D01*
X105419192Y-129609500D01*
X87259618Y-129609500D01*
X87192579Y-129589815D01*
X87158900Y-129555408D01*
X87157915Y-129556125D01*
X87030109Y-129380213D01*
X86879786Y-129229890D01*
X86707820Y-129104951D01*
X86707115Y-129104591D01*
X86699054Y-129100485D01*
X86648259Y-129052512D01*
X86631463Y-128984692D01*
X86653999Y-128918556D01*
X86699054Y-128879515D01*
X86707816Y-128875051D01*
X86729789Y-128859086D01*
X86879786Y-128750109D01*
X86879788Y-128750106D01*
X86879792Y-128750104D01*
X87030104Y-128599792D01*
X87030106Y-128599788D01*
X87030109Y-128599786D01*
X87155048Y-128427820D01*
X87155047Y-128427820D01*
X87155051Y-128427816D01*
X87251557Y-128238412D01*
X87317246Y-128036243D01*
X87350500Y-127826287D01*
X87350500Y-127613713D01*
X87317246Y-127403757D01*
X87251557Y-127201588D01*
X87155051Y-127012184D01*
X87155049Y-127012181D01*
X87155048Y-127012179D01*
X87030109Y-126840213D01*
X86879786Y-126689890D01*
X86707820Y-126564951D01*
X86707115Y-126564591D01*
X86699054Y-126560485D01*
X86648259Y-126512512D01*
X86631463Y-126444692D01*
X86653999Y-126378556D01*
X86699054Y-126339515D01*
X86707816Y-126335051D01*
X86768995Y-126290602D01*
X86879786Y-126210109D01*
X86879788Y-126210106D01*
X86879792Y-126210104D01*
X87030104Y-126059792D01*
X87030106Y-126059788D01*
X87030109Y-126059786D01*
X87155048Y-125887820D01*
X87155047Y-125887820D01*
X87155051Y-125887816D01*
X87251557Y-125698412D01*
X87317246Y-125496243D01*
X87350500Y-125286287D01*
X87350500Y-125073713D01*
X87317246Y-124863757D01*
X87251557Y-124661588D01*
X87155051Y-124472184D01*
X87155049Y-124472181D01*
X87155048Y-124472179D01*
X87030109Y-124300213D01*
X86879786Y-124149890D01*
X86707820Y-124024951D01*
X86707115Y-124024591D01*
X86699054Y-124020485D01*
X86648259Y-123972512D01*
X86631463Y-123904692D01*
X86653999Y-123838556D01*
X86699054Y-123799515D01*
X86707816Y-123795051D01*
X86729789Y-123779086D01*
X86879786Y-123670109D01*
X86879788Y-123670106D01*
X86879792Y-123670104D01*
X87030104Y-123519792D01*
X87030106Y-123519788D01*
X87030109Y-123519786D01*
X87155048Y-123347820D01*
X87155047Y-123347820D01*
X87155051Y-123347816D01*
X87251557Y-123158412D01*
X87317246Y-122956243D01*
X87350500Y-122746287D01*
X87350500Y-122533713D01*
X87317246Y-122323757D01*
X87251557Y-122121588D01*
X87155051Y-121932184D01*
X87155049Y-121932181D01*
X87155048Y-121932179D01*
X87030109Y-121760213D01*
X86879786Y-121609890D01*
X86707820Y-121484951D01*
X86707115Y-121484591D01*
X86699054Y-121480485D01*
X86648259Y-121432512D01*
X86631463Y-121364692D01*
X86653999Y-121298556D01*
X86699054Y-121259515D01*
X86707816Y-121255051D01*
X86770658Y-121209394D01*
X86879786Y-121130109D01*
X86879788Y-121130106D01*
X86879792Y-121130104D01*
X87030104Y-120979792D01*
X87030106Y-120979788D01*
X87030109Y-120979786D01*
X87155048Y-120807820D01*
X87155047Y-120807820D01*
X87155051Y-120807816D01*
X87251557Y-120618412D01*
X87317246Y-120416243D01*
X87350500Y-120206287D01*
X87350500Y-119993713D01*
X87317246Y-119783757D01*
X87251557Y-119581588D01*
X87155051Y-119392184D01*
X87155049Y-119392181D01*
X87155048Y-119392179D01*
X87030109Y-119220213D01*
X86879786Y-119069890D01*
X86707820Y-118944951D01*
X86707115Y-118944591D01*
X86699054Y-118940485D01*
X86648259Y-118892512D01*
X86631463Y-118824692D01*
X86653999Y-118758556D01*
X86699054Y-118719515D01*
X86707816Y-118715051D01*
X86729789Y-118699086D01*
X86879786Y-118590109D01*
X86879788Y-118590106D01*
X86879792Y-118590104D01*
X87030104Y-118439792D01*
X87030106Y-118439788D01*
X87030109Y-118439786D01*
X87157915Y-118263875D01*
X87159259Y-118264851D01*
X87205705Y-118222834D01*
X87259618Y-118210500D01*
X95004071Y-118210500D01*
X95088615Y-118193682D01*
X95129744Y-118185501D01*
X95248127Y-118136465D01*
X95264536Y-118125501D01*
X95354669Y-118065277D01*
X97602931Y-115817013D01*
X97664252Y-115783530D01*
X97666317Y-115783099D01*
X97733497Y-115769737D01*
X97879179Y-115709394D01*
X98010289Y-115621789D01*
X98121789Y-115510289D01*
X98209394Y-115379179D01*
X98269737Y-115233497D01*
X98300500Y-115078842D01*
X98300500Y-114921158D01*
X98300500Y-114921155D01*
X98300499Y-114921153D01*
X98269738Y-114766510D01*
X98269738Y-114766508D01*
X98269737Y-114766503D01*
X98243747Y-114703757D01*
X98209397Y-114620827D01*
X98209390Y-114620814D01*
X98121789Y-114489711D01*
X98121786Y-114489707D01*
X98010292Y-114378213D01*
X98010288Y-114378210D01*
X97879185Y-114290609D01*
X97879172Y-114290602D01*
X97733501Y-114230264D01*
X97733489Y-114230261D01*
X97578845Y-114199500D01*
X97578842Y-114199500D01*
X97421158Y-114199500D01*
X97421155Y-114199500D01*
X97266510Y-114230261D01*
X97266498Y-114230264D01*
X97120827Y-114290602D01*
X97120814Y-114290609D01*
X96989711Y-114378210D01*
X96989707Y-114378213D01*
X96878213Y-114489707D01*
X96878210Y-114489711D01*
X96790609Y-114620814D01*
X96790602Y-114620827D01*
X96730264Y-114766498D01*
X96730261Y-114766508D01*
X96716920Y-114833579D01*
X96684535Y-114895490D01*
X96682984Y-114897068D01*
X94706873Y-116873181D01*
X94645550Y-116906666D01*
X94619192Y-116909500D01*
X87259618Y-116909500D01*
X87192579Y-116889815D01*
X87158900Y-116855408D01*
X87157915Y-116856125D01*
X87030109Y-116680213D01*
X86879786Y-116529890D01*
X86707820Y-116404951D01*
X86707115Y-116404591D01*
X86699054Y-116400485D01*
X86648259Y-116352512D01*
X86631463Y-116284692D01*
X86653999Y-116218556D01*
X86699054Y-116179515D01*
X86707816Y-116175051D01*
X86729789Y-116159086D01*
X86879786Y-116050109D01*
X86879788Y-116050106D01*
X86879792Y-116050104D01*
X87030104Y-115899792D01*
X87030106Y-115899788D01*
X87030109Y-115899786D01*
X87155048Y-115727820D01*
X87155047Y-115727820D01*
X87155051Y-115727816D01*
X87251557Y-115538412D01*
X87317246Y-115336243D01*
X87350500Y-115126287D01*
X87350500Y-114913713D01*
X87317246Y-114703757D01*
X87251557Y-114501588D01*
X87155051Y-114312184D01*
X87155049Y-114312181D01*
X87155048Y-114312179D01*
X87030109Y-114140213D01*
X86879786Y-113989890D01*
X86707820Y-113864951D01*
X86707115Y-113864591D01*
X86699054Y-113860485D01*
X86648259Y-113812512D01*
X86631463Y-113744692D01*
X86653999Y-113678556D01*
X86699054Y-113639515D01*
X86707816Y-113635051D01*
X86766610Y-113592335D01*
X86879786Y-113510109D01*
X86879788Y-113510106D01*
X86879792Y-113510104D01*
X87030104Y-113359792D01*
X87030106Y-113359788D01*
X87030109Y-113359786D01*
X87157915Y-113183875D01*
X87159259Y-113184851D01*
X87205705Y-113142834D01*
X87259618Y-113130500D01*
X105084071Y-113130500D01*
X105168615Y-113113682D01*
X105209744Y-113105501D01*
X105328127Y-113056465D01*
X105434669Y-112985277D01*
X105602930Y-112817014D01*
X105664251Y-112783530D01*
X105666316Y-112783099D01*
X105733497Y-112769737D01*
X105879179Y-112709394D01*
X106010289Y-112621789D01*
X106121789Y-112510289D01*
X106209394Y-112379179D01*
X106269737Y-112233497D01*
X106300500Y-112078842D01*
X106300500Y-111921158D01*
X106300500Y-111921155D01*
X106300499Y-111921153D01*
X106282882Y-111832589D01*
X106269737Y-111766503D01*
X106252753Y-111725500D01*
X106209397Y-111620827D01*
X106209390Y-111620814D01*
X106121789Y-111489711D01*
X106121786Y-111489707D01*
X106010292Y-111378213D01*
X106010288Y-111378210D01*
X105879185Y-111290609D01*
X105879172Y-111290602D01*
X105733501Y-111230264D01*
X105733489Y-111230261D01*
X105578845Y-111199500D01*
X105578842Y-111199500D01*
X105421158Y-111199500D01*
X105421155Y-111199500D01*
X105266510Y-111230261D01*
X105266498Y-111230264D01*
X105120827Y-111290602D01*
X105120814Y-111290609D01*
X104989711Y-111378210D01*
X104989707Y-111378213D01*
X104878213Y-111489707D01*
X104878210Y-111489711D01*
X104790609Y-111620814D01*
X104790602Y-111620827D01*
X104735876Y-111752952D01*
X104692036Y-111807356D01*
X104625742Y-111829421D01*
X104621315Y-111829500D01*
X87259618Y-111829500D01*
X87192579Y-111809815D01*
X87158900Y-111775408D01*
X87157915Y-111776125D01*
X87030109Y-111600213D01*
X86879786Y-111449890D01*
X86707820Y-111324951D01*
X86707115Y-111324591D01*
X86699054Y-111320485D01*
X86648259Y-111272512D01*
X86631463Y-111204692D01*
X86653999Y-111138556D01*
X86699054Y-111099515D01*
X86707816Y-111095051D01*
X86729789Y-111079086D01*
X86879786Y-110970109D01*
X86879788Y-110970106D01*
X86879792Y-110970104D01*
X87030104Y-110819792D01*
X87030106Y-110819788D01*
X87030109Y-110819786D01*
X87155048Y-110647820D01*
X87155047Y-110647820D01*
X87155051Y-110647816D01*
X87251557Y-110458412D01*
X87317246Y-110256243D01*
X87350500Y-110046287D01*
X87350500Y-109833713D01*
X87317246Y-109623757D01*
X87251557Y-109421588D01*
X87155051Y-109232184D01*
X87155049Y-109232181D01*
X87155048Y-109232179D01*
X87030109Y-109060213D01*
X86879786Y-108909890D01*
X86707820Y-108784951D01*
X86707115Y-108784591D01*
X86699054Y-108780485D01*
X86648259Y-108732512D01*
X86631463Y-108664692D01*
X86653999Y-108598556D01*
X86699054Y-108559515D01*
X86707816Y-108555051D01*
X86729789Y-108539086D01*
X86879786Y-108430109D01*
X86879788Y-108430106D01*
X86879792Y-108430104D01*
X87030104Y-108279792D01*
X87030106Y-108279788D01*
X87030109Y-108279786D01*
X87155048Y-108107820D01*
X87155047Y-108107820D01*
X87155051Y-108107816D01*
X87251557Y-107918412D01*
X87317246Y-107716243D01*
X87350500Y-107506287D01*
X87350500Y-107293713D01*
X87317246Y-107083757D01*
X87251557Y-106881588D01*
X87155051Y-106692184D01*
X87155049Y-106692181D01*
X87155048Y-106692179D01*
X87030109Y-106520213D01*
X86879786Y-106369890D01*
X86707820Y-106244951D01*
X86707115Y-106244591D01*
X86699054Y-106240485D01*
X86648259Y-106192512D01*
X86631463Y-106124692D01*
X86653999Y-106058556D01*
X86699054Y-106019515D01*
X86707816Y-106015051D01*
X86729789Y-105999086D01*
X86879786Y-105890109D01*
X86879788Y-105890106D01*
X86879792Y-105890104D01*
X87030104Y-105739792D01*
X87030106Y-105739788D01*
X87030109Y-105739786D01*
X87157915Y-105563875D01*
X87159259Y-105564851D01*
X87205705Y-105522834D01*
X87259618Y-105510500D01*
X93204071Y-105510500D01*
X93288615Y-105493682D01*
X93329744Y-105485501D01*
X93448127Y-105436465D01*
X93554669Y-105365277D01*
X94832931Y-104087013D01*
X94894252Y-104053530D01*
X94896317Y-104053099D01*
X94963497Y-104039737D01*
X95109179Y-103979394D01*
X95240289Y-103891789D01*
X95351789Y-103780289D01*
X95439394Y-103649179D01*
X95499737Y-103503497D01*
X95530500Y-103348842D01*
X95530500Y-103191158D01*
X95530500Y-103191155D01*
X95530499Y-103191153D01*
X95516086Y-103118691D01*
X95522313Y-103049100D01*
X95565176Y-102993922D01*
X95631066Y-102970678D01*
X95637703Y-102970500D01*
X102244071Y-102970500D01*
X102328615Y-102953682D01*
X102369744Y-102945501D01*
X102488127Y-102896465D01*
X102493746Y-102892710D01*
X102496576Y-102890820D01*
X102545621Y-102858049D01*
X102594669Y-102825277D01*
X105602931Y-99817013D01*
X105664252Y-99783530D01*
X105666317Y-99783099D01*
X105733497Y-99769737D01*
X105879179Y-99709394D01*
X106010289Y-99621789D01*
X106121789Y-99510289D01*
X106209394Y-99379179D01*
X106269737Y-99233497D01*
X106300500Y-99078842D01*
X106300500Y-98921158D01*
X106300500Y-98921155D01*
X106300499Y-98921153D01*
X106292738Y-98882135D01*
X106269737Y-98766503D01*
X106256305Y-98734075D01*
X106209397Y-98620827D01*
X106209390Y-98620814D01*
X106121789Y-98489711D01*
X106121786Y-98489707D01*
X106010292Y-98378213D01*
X106010288Y-98378210D01*
X105879185Y-98290609D01*
X105879172Y-98290602D01*
X105733501Y-98230264D01*
X105733489Y-98230261D01*
X105578845Y-98199500D01*
X105578842Y-98199500D01*
X105421158Y-98199500D01*
X105421155Y-98199500D01*
X105266510Y-98230261D01*
X105266498Y-98230264D01*
X105120827Y-98290602D01*
X105120814Y-98290609D01*
X104989711Y-98378210D01*
X104989707Y-98378213D01*
X104878213Y-98489707D01*
X104878210Y-98489711D01*
X104790609Y-98620814D01*
X104790602Y-98620827D01*
X104730264Y-98766498D01*
X104730261Y-98766508D01*
X104716920Y-98833579D01*
X104684535Y-98895490D01*
X104682984Y-98897068D01*
X101946873Y-101633181D01*
X101885550Y-101666666D01*
X101859192Y-101669500D01*
X87259618Y-101669500D01*
X87192579Y-101649815D01*
X87158900Y-101615408D01*
X87157915Y-101616125D01*
X87030109Y-101440213D01*
X86916181Y-101326285D01*
X86882696Y-101264962D01*
X86887680Y-101195270D01*
X86929552Y-101139337D01*
X86960529Y-101122422D01*
X87092086Y-101073354D01*
X87092093Y-101073350D01*
X87207187Y-100987190D01*
X87207190Y-100987187D01*
X87293350Y-100872093D01*
X87293354Y-100872086D01*
X87343596Y-100737379D01*
X87343598Y-100737372D01*
X87349999Y-100677844D01*
X87350000Y-100677827D01*
X87350000Y-100030000D01*
X86433012Y-100030000D01*
X86465925Y-99972993D01*
X86500000Y-99845826D01*
X86500000Y-99714174D01*
X86465925Y-99587007D01*
X86433012Y-99530000D01*
X87350000Y-99530000D01*
X87350000Y-98882172D01*
X87349999Y-98882155D01*
X87343598Y-98822627D01*
X87343596Y-98822620D01*
X87293354Y-98687913D01*
X87293350Y-98687906D01*
X87207190Y-98572812D01*
X87207187Y-98572809D01*
X87092093Y-98486649D01*
X87092086Y-98486645D01*
X86957379Y-98436403D01*
X86957372Y-98436401D01*
X86897844Y-98430000D01*
X86250000Y-98430000D01*
X86250000Y-99346988D01*
X86192993Y-99314075D01*
X86065826Y-99280000D01*
X85934174Y-99280000D01*
X85807007Y-99314075D01*
X85750000Y-99346988D01*
X85750000Y-98430000D01*
X85102155Y-98430000D01*
X85042627Y-98436401D01*
X85042620Y-98436403D01*
X84907913Y-98486645D01*
X84907906Y-98486649D01*
X84792812Y-98572809D01*
X84792809Y-98572812D01*
X84706649Y-98687906D01*
X84706645Y-98687913D01*
X84656403Y-98822620D01*
X84656401Y-98822627D01*
X84650000Y-98882155D01*
X84650000Y-99530000D01*
X85566988Y-99530000D01*
X85534075Y-99587007D01*
X85500000Y-99714174D01*
X85500000Y-99845826D01*
X85534075Y-99972993D01*
X85566988Y-100030000D01*
X84650000Y-100030000D01*
X84650000Y-100677844D01*
X84656401Y-100737372D01*
X84656403Y-100737379D01*
X84706645Y-100872086D01*
X84706649Y-100872093D01*
X84792809Y-100987187D01*
X84792812Y-100987190D01*
X84907906Y-101073350D01*
X84907913Y-101073354D01*
X85039470Y-101122422D01*
X85095404Y-101164293D01*
X85119821Y-101229758D01*
X85104969Y-101298031D01*
X85083819Y-101326285D01*
X84969889Y-101440215D01*
X84844951Y-101612179D01*
X84748444Y-101801585D01*
X84682753Y-102003760D01*
X84649500Y-102213713D01*
X84649500Y-102426287D01*
X84682754Y-102636243D01*
X84744175Y-102825278D01*
X84748444Y-102838414D01*
X84844951Y-103027820D01*
X84969890Y-103199786D01*
X85120213Y-103350109D01*
X85292182Y-103475050D01*
X85300946Y-103479516D01*
X85351742Y-103527491D01*
X85368536Y-103595312D01*
X85345998Y-103661447D01*
X85300946Y-103700484D01*
X85292182Y-103704949D01*
X85120213Y-103829890D01*
X84969890Y-103980213D01*
X84844951Y-104152179D01*
X84748444Y-104341585D01*
X84682753Y-104543760D01*
X84649500Y-104753713D01*
X84649500Y-104966287D01*
X84682754Y-105176243D01*
X84744175Y-105365277D01*
X84748444Y-105378414D01*
X84844951Y-105567820D01*
X84969890Y-105739786D01*
X85120213Y-105890109D01*
X85292182Y-106015050D01*
X85300946Y-106019516D01*
X85351742Y-106067491D01*
X85368536Y-106135312D01*
X85345998Y-106201447D01*
X85300946Y-106240484D01*
X85292182Y-106244949D01*
X85120213Y-106369890D01*
X84969890Y-106520213D01*
X84844951Y-106692179D01*
X84748444Y-106881585D01*
X84682753Y-107083760D01*
X84649500Y-107293713D01*
X84649500Y-107506286D01*
X84682753Y-107716239D01*
X84748444Y-107918414D01*
X84844951Y-108107820D01*
X84969890Y-108279786D01*
X85120213Y-108430109D01*
X85292182Y-108555050D01*
X85300946Y-108559516D01*
X85351742Y-108607491D01*
X85368536Y-108675312D01*
X85345998Y-108741447D01*
X85300946Y-108780484D01*
X85292182Y-108784949D01*
X85120213Y-108909890D01*
X84969890Y-109060213D01*
X84844951Y-109232179D01*
X84748444Y-109421585D01*
X84682753Y-109623760D01*
X84649500Y-109833713D01*
X84649500Y-110046286D01*
X84682753Y-110256239D01*
X84748444Y-110458414D01*
X84844951Y-110647820D01*
X84969890Y-110819786D01*
X85120213Y-110970109D01*
X85292182Y-111095050D01*
X85300946Y-111099516D01*
X85351742Y-111147491D01*
X85368536Y-111215312D01*
X85345998Y-111281447D01*
X85300946Y-111320484D01*
X85292182Y-111324949D01*
X85120213Y-111449890D01*
X84969890Y-111600213D01*
X84844951Y-111772179D01*
X84748444Y-111961585D01*
X84682753Y-112163760D01*
X84649500Y-112373713D01*
X84649500Y-112586286D01*
X84678555Y-112769736D01*
X84682754Y-112796243D01*
X84744175Y-112985277D01*
X84748444Y-112998414D01*
X84844951Y-113187820D01*
X84969890Y-113359786D01*
X85120213Y-113510109D01*
X85292182Y-113635050D01*
X85300946Y-113639516D01*
X85351742Y-113687491D01*
X85368536Y-113755312D01*
X85345998Y-113821447D01*
X85300946Y-113860484D01*
X85292182Y-113864949D01*
X85120213Y-113989890D01*
X84969890Y-114140213D01*
X84844951Y-114312179D01*
X84748444Y-114501585D01*
X84682753Y-114703760D01*
X84649500Y-114913713D01*
X84649500Y-115126286D01*
X84666480Y-115233497D01*
X84682754Y-115336243D01*
X84739306Y-115510292D01*
X84748444Y-115538414D01*
X84844951Y-115727820D01*
X84969890Y-115899786D01*
X85120213Y-116050109D01*
X85292182Y-116175050D01*
X85300946Y-116179516D01*
X85351742Y-116227491D01*
X85368536Y-116295312D01*
X85345998Y-116361447D01*
X85300946Y-116400484D01*
X85292182Y-116404949D01*
X85120213Y-116529890D01*
X84969890Y-116680213D01*
X84844951Y-116852179D01*
X84748444Y-117041585D01*
X84682753Y-117243760D01*
X84656793Y-117407664D01*
X84649500Y-117453713D01*
X84649500Y-117666287D01*
X84682754Y-117876243D01*
X84744175Y-118065277D01*
X84748444Y-118078414D01*
X84844951Y-118267820D01*
X84969890Y-118439786D01*
X85120213Y-118590109D01*
X85292182Y-118715050D01*
X85300946Y-118719516D01*
X85351742Y-118767491D01*
X85368536Y-118835312D01*
X85345998Y-118901447D01*
X85300946Y-118940484D01*
X85292182Y-118944949D01*
X85120213Y-119069890D01*
X85120211Y-119069893D01*
X84969894Y-119220209D01*
X84969890Y-119220213D01*
X84842085Y-119396125D01*
X84840740Y-119395148D01*
X84794295Y-119437166D01*
X84740382Y-119449500D01*
X84420808Y-119449500D01*
X84353769Y-119429815D01*
X84333127Y-119413181D01*
X82186819Y-117266873D01*
X82153334Y-117205550D01*
X82150500Y-117179192D01*
X82150500Y-117004935D01*
X82170185Y-116937896D01*
X82171366Y-116936090D01*
X82209394Y-116879179D01*
X82211879Y-116873181D01*
X82269735Y-116733501D01*
X82269737Y-116733497D01*
X82300500Y-116578842D01*
X82300500Y-116421158D01*
X82300500Y-116421155D01*
X82300499Y-116421153D01*
X82278079Y-116308443D01*
X82269737Y-116266503D01*
X82233706Y-116179516D01*
X82209397Y-116120827D01*
X82209390Y-116120814D01*
X82121789Y-115989711D01*
X82121786Y-115989707D01*
X82010292Y-115878213D01*
X82010288Y-115878210D01*
X81879185Y-115790609D01*
X81879172Y-115790602D01*
X81733501Y-115730264D01*
X81733489Y-115730261D01*
X81578845Y-115699500D01*
X81578842Y-115699500D01*
X81421158Y-115699500D01*
X81421155Y-115699500D01*
X81266510Y-115730261D01*
X81266498Y-115730264D01*
X81120827Y-115790602D01*
X81120814Y-115790609D01*
X80989711Y-115878210D01*
X80989707Y-115878213D01*
X80878213Y-115989707D01*
X80878210Y-115989711D01*
X80790609Y-116120814D01*
X80790602Y-116120827D01*
X80730264Y-116266498D01*
X80730261Y-116266510D01*
X80699500Y-116421153D01*
X80699500Y-116578846D01*
X80730261Y-116733489D01*
X80730264Y-116733501D01*
X80790602Y-116879172D01*
X80790606Y-116879179D01*
X80828602Y-116936044D01*
X80849480Y-117002721D01*
X80849500Y-117004935D01*
X80849500Y-117564069D01*
X80857070Y-117602127D01*
X80861720Y-117625500D01*
X80861720Y-117625502D01*
X80869832Y-117666286D01*
X80874499Y-117689744D01*
X80923535Y-117808127D01*
X80969048Y-117876243D01*
X80994726Y-117914673D01*
X80994727Y-117914674D01*
X82354554Y-119274500D01*
X83685330Y-120605276D01*
X83704990Y-120618412D01*
X83791873Y-120676465D01*
X83910256Y-120725501D01*
X83910260Y-120725501D01*
X83910261Y-120725502D01*
X84035928Y-120750500D01*
X84035931Y-120750500D01*
X84740382Y-120750500D01*
X84807421Y-120770185D01*
X84841099Y-120804591D01*
X84842085Y-120803875D01*
X84969890Y-120979786D01*
X85120213Y-121130109D01*
X85292182Y-121255050D01*
X85300946Y-121259516D01*
X85351742Y-121307491D01*
X85368536Y-121375312D01*
X85345998Y-121441447D01*
X85300946Y-121480484D01*
X85292182Y-121484949D01*
X85120213Y-121609890D01*
X84969890Y-121760213D01*
X84844951Y-121932179D01*
X84748444Y-122121585D01*
X84682753Y-122323760D01*
X84649500Y-122533713D01*
X84649500Y-122746287D01*
X84682754Y-122956243D01*
X84744175Y-123145277D01*
X84748444Y-123158414D01*
X84844951Y-123347820D01*
X84969890Y-123519786D01*
X85120213Y-123670109D01*
X85292182Y-123795050D01*
X85300946Y-123799516D01*
X85351742Y-123847491D01*
X85368536Y-123915312D01*
X85345998Y-123981447D01*
X85300946Y-124020484D01*
X85292182Y-124024949D01*
X85120213Y-124149890D01*
X84969890Y-124300213D01*
X84842085Y-124476125D01*
X84840740Y-124475148D01*
X84794295Y-124517166D01*
X84740382Y-124529500D01*
X81000807Y-124529500D01*
X80933768Y-124509815D01*
X80913126Y-124493181D01*
X80817015Y-124397070D01*
X80783530Y-124335747D01*
X80783095Y-124333660D01*
X80769737Y-124266503D01*
X80745599Y-124208230D01*
X80709397Y-124120827D01*
X80709390Y-124120814D01*
X80621789Y-123989711D01*
X80621786Y-123989707D01*
X80510292Y-123878213D01*
X80510288Y-123878210D01*
X80379185Y-123790609D01*
X80379172Y-123790602D01*
X80233501Y-123730264D01*
X80233489Y-123730261D01*
X80078845Y-123699500D01*
X80078842Y-123699500D01*
X79921158Y-123699500D01*
X79921155Y-123699500D01*
X79766510Y-123730261D01*
X79766498Y-123730264D01*
X79620827Y-123790602D01*
X79620814Y-123790609D01*
X79489711Y-123878210D01*
X79489707Y-123878213D01*
X79378213Y-123989707D01*
X79378210Y-123989711D01*
X79290609Y-124120814D01*
X79290602Y-124120827D01*
X79230264Y-124266498D01*
X79230261Y-124266510D01*
X79199500Y-124421153D01*
X79199500Y-124578846D01*
X79230261Y-124733489D01*
X79230264Y-124733501D01*
X79290602Y-124879172D01*
X79290609Y-124879185D01*
X79378210Y-125010288D01*
X79378213Y-125010292D01*
X79489707Y-125121786D01*
X79489711Y-125121789D01*
X79620814Y-125209390D01*
X79620827Y-125209397D01*
X79708230Y-125245599D01*
X79766503Y-125269737D01*
X79833581Y-125283079D01*
X79895490Y-125315463D01*
X79897070Y-125317015D01*
X80174724Y-125594669D01*
X80265331Y-125685276D01*
X80265332Y-125685277D01*
X80371866Y-125756461D01*
X80371872Y-125756464D01*
X80371873Y-125756465D01*
X80490256Y-125805501D01*
X80490260Y-125805501D01*
X80490261Y-125805502D01*
X80615928Y-125830500D01*
X80615931Y-125830500D01*
X84740382Y-125830500D01*
X84807421Y-125850185D01*
X84841099Y-125884591D01*
X84842085Y-125883875D01*
X84969890Y-126059786D01*
X85120213Y-126210109D01*
X85292182Y-126335050D01*
X85300946Y-126339516D01*
X85351742Y-126387491D01*
X85368536Y-126455312D01*
X85345998Y-126521447D01*
X85300946Y-126560484D01*
X85292182Y-126564949D01*
X85120213Y-126689890D01*
X84969890Y-126840213D01*
X84842085Y-127016125D01*
X84840740Y-127015148D01*
X84794295Y-127057166D01*
X84740382Y-127069500D01*
X77540808Y-127069500D01*
X77473769Y-127049815D01*
X77453127Y-127033181D01*
X77317015Y-126897069D01*
X77283530Y-126835746D01*
X77283093Y-126833652D01*
X77269737Y-126766503D01*
X77238003Y-126689890D01*
X77209397Y-126620827D01*
X77209390Y-126620814D01*
X77121789Y-126489711D01*
X77121786Y-126489707D01*
X77010292Y-126378213D01*
X77010288Y-126378210D01*
X76879185Y-126290609D01*
X76879172Y-126290602D01*
X76733501Y-126230264D01*
X76733489Y-126230261D01*
X76578845Y-126199500D01*
X76578842Y-126199500D01*
X76421158Y-126199500D01*
X76421155Y-126199500D01*
X76266510Y-126230261D01*
X76266498Y-126230264D01*
X76120827Y-126290602D01*
X76120814Y-126290609D01*
X75989711Y-126378210D01*
X75989707Y-126378213D01*
X75878213Y-126489707D01*
X75878210Y-126489711D01*
X75790609Y-126620814D01*
X75790602Y-126620827D01*
X75730264Y-126766498D01*
X75730261Y-126766510D01*
X75699500Y-126921153D01*
X75699500Y-127078846D01*
X75730261Y-127233489D01*
X75730264Y-127233501D01*
X75790602Y-127379172D01*
X75790609Y-127379185D01*
X75878210Y-127510288D01*
X75878213Y-127510292D01*
X75989707Y-127621786D01*
X75989711Y-127621789D01*
X76120814Y-127709390D01*
X76120827Y-127709397D01*
X76208230Y-127745599D01*
X76266503Y-127769737D01*
X76333580Y-127783079D01*
X76395488Y-127815461D01*
X76397068Y-127817014D01*
X76805325Y-128225272D01*
X76805326Y-128225273D01*
X76805329Y-128225275D01*
X76805331Y-128225277D01*
X76911873Y-128296465D01*
X77030256Y-128345501D01*
X77030260Y-128345501D01*
X77030261Y-128345502D01*
X77155928Y-128370500D01*
X77155931Y-128370500D01*
X77284069Y-128370500D01*
X84740382Y-128370500D01*
X84807421Y-128390185D01*
X84841099Y-128424591D01*
X84842085Y-128423875D01*
X84969890Y-128599786D01*
X85120213Y-128750109D01*
X85292182Y-128875050D01*
X85300946Y-128879516D01*
X85351742Y-128927491D01*
X85368536Y-128995312D01*
X85345998Y-129061447D01*
X85300946Y-129100484D01*
X85292182Y-129104949D01*
X85120213Y-129229890D01*
X84969890Y-129380213D01*
X84844951Y-129552179D01*
X84748444Y-129741585D01*
X84682753Y-129943760D01*
X84654557Y-130121786D01*
X84649500Y-130153713D01*
X84649500Y-130366287D01*
X84682754Y-130576243D01*
X84748442Y-130778410D01*
X84748444Y-130778414D01*
X84844951Y-130967820D01*
X84969890Y-131139786D01*
X85120213Y-131290109D01*
X85292182Y-131415050D01*
X85300946Y-131419516D01*
X85351742Y-131467491D01*
X85368536Y-131535312D01*
X85345998Y-131601447D01*
X85300946Y-131640484D01*
X85292182Y-131644949D01*
X85120213Y-131769890D01*
X84969890Y-131920213D01*
X84844951Y-132092179D01*
X84748444Y-132281585D01*
X84682753Y-132483760D01*
X84649500Y-132693713D01*
X84649500Y-132906287D01*
X84682754Y-133116243D01*
X84739409Y-133290609D01*
X84748444Y-133318414D01*
X84844951Y-133507820D01*
X84969890Y-133679786D01*
X85120213Y-133830109D01*
X85292182Y-133955050D01*
X85300946Y-133959516D01*
X85351742Y-134007491D01*
X85368536Y-134075312D01*
X85345998Y-134141447D01*
X85300946Y-134180484D01*
X85292182Y-134184949D01*
X85120213Y-134309890D01*
X84969890Y-134460213D01*
X84844951Y-134632179D01*
X84748444Y-134821585D01*
X84682753Y-135023760D01*
X84649500Y-135233713D01*
X84649500Y-135446287D01*
X84682754Y-135656243D01*
X84744175Y-135845277D01*
X84748444Y-135858414D01*
X84844951Y-136047820D01*
X84969890Y-136219786D01*
X85120213Y-136370109D01*
X85292182Y-136495050D01*
X85300946Y-136499516D01*
X85351742Y-136547491D01*
X85368536Y-136615312D01*
X85345998Y-136681447D01*
X85300946Y-136720484D01*
X85292182Y-136724949D01*
X85120213Y-136849890D01*
X84969890Y-137000213D01*
X84842085Y-137176125D01*
X84840740Y-137175148D01*
X84794295Y-137217166D01*
X84740382Y-137229500D01*
X75837264Y-137229500D01*
X75770225Y-137209815D01*
X75724470Y-137157011D01*
X75722714Y-137152978D01*
X75709394Y-137120821D01*
X75709390Y-137120814D01*
X75621789Y-136989711D01*
X75621786Y-136989707D01*
X75510292Y-136878213D01*
X75510288Y-136878210D01*
X75379185Y-136790609D01*
X75379172Y-136790602D01*
X75233501Y-136730264D01*
X75233489Y-136730261D01*
X75078845Y-136699500D01*
X75078842Y-136699500D01*
X74921158Y-136699500D01*
X74921155Y-136699500D01*
X74766510Y-136730261D01*
X74766498Y-136730264D01*
X74620827Y-136790602D01*
X74620814Y-136790609D01*
X74489711Y-136878210D01*
X74489707Y-136878213D01*
X74378213Y-136989707D01*
X74378210Y-136989711D01*
X74290609Y-137120814D01*
X74290602Y-137120827D01*
X74230264Y-137266498D01*
X74230261Y-137266510D01*
X74199500Y-137421153D01*
X61870911Y-137421153D01*
X61851557Y-137361588D01*
X61755051Y-137172184D01*
X61755049Y-137172181D01*
X61755048Y-137172179D01*
X61630109Y-137000213D01*
X61479786Y-136849890D01*
X61307820Y-136724951D01*
X61307115Y-136724591D01*
X61299054Y-136720485D01*
X61248259Y-136672512D01*
X61231463Y-136604692D01*
X61253999Y-136538556D01*
X61299054Y-136499515D01*
X61307816Y-136495051D01*
X61329789Y-136479086D01*
X61479786Y-136370109D01*
X61479788Y-136370106D01*
X61479792Y-136370104D01*
X61630104Y-136219792D01*
X61630106Y-136219788D01*
X61630109Y-136219786D01*
X61757915Y-136043875D01*
X61759259Y-136044851D01*
X61805705Y-136002834D01*
X61859618Y-135990500D01*
X64724071Y-135990500D01*
X64808615Y-135973682D01*
X64849744Y-135965501D01*
X64968127Y-135916465D01*
X65074669Y-135845277D01*
X66102931Y-134817013D01*
X66164252Y-134783530D01*
X66166284Y-134783106D01*
X66233497Y-134769737D01*
X66379179Y-134709394D01*
X66510289Y-134621789D01*
X66621789Y-134510289D01*
X66709394Y-134379179D01*
X66769737Y-134233497D01*
X66800500Y-134078842D01*
X66800500Y-133921158D01*
X66800500Y-133921155D01*
X66800499Y-133921153D01*
X66769738Y-133766510D01*
X66769737Y-133766503D01*
X66769735Y-133766498D01*
X66709397Y-133620827D01*
X66709390Y-133620814D01*
X66621789Y-133489711D01*
X66621786Y-133489707D01*
X66510292Y-133378213D01*
X66510288Y-133378210D01*
X66379185Y-133290609D01*
X66379172Y-133290602D01*
X66233501Y-133230264D01*
X66233489Y-133230261D01*
X66078845Y-133199500D01*
X66078842Y-133199500D01*
X65921158Y-133199500D01*
X65921155Y-133199500D01*
X65766510Y-133230261D01*
X65766498Y-133230264D01*
X65620827Y-133290602D01*
X65620814Y-133290609D01*
X65489711Y-133378210D01*
X65489707Y-133378213D01*
X65378213Y-133489707D01*
X65378210Y-133489711D01*
X65290609Y-133620814D01*
X65290602Y-133620827D01*
X65230263Y-133766500D01*
X65230261Y-133766506D01*
X65216919Y-133833581D01*
X65184533Y-133895491D01*
X65182983Y-133897069D01*
X64426873Y-134653181D01*
X64365550Y-134686666D01*
X64339192Y-134689500D01*
X61859618Y-134689500D01*
X61792579Y-134669815D01*
X61758900Y-134635408D01*
X61757915Y-134636125D01*
X61630109Y-134460213D01*
X61479786Y-134309890D01*
X61307820Y-134184951D01*
X61307115Y-134184591D01*
X61299054Y-134180485D01*
X61248259Y-134132512D01*
X61231463Y-134064692D01*
X61253999Y-133998556D01*
X61299054Y-133959515D01*
X61307816Y-133955051D01*
X61424230Y-133870472D01*
X61479786Y-133830109D01*
X61479788Y-133830106D01*
X61479792Y-133830104D01*
X61630104Y-133679792D01*
X61630106Y-133679788D01*
X61630109Y-133679786D01*
X61755048Y-133507820D01*
X61755047Y-133507820D01*
X61755051Y-133507816D01*
X61851557Y-133318412D01*
X61917246Y-133116243D01*
X61950500Y-132906287D01*
X61950500Y-132693713D01*
X61917246Y-132483757D01*
X61851557Y-132281588D01*
X61755051Y-132092184D01*
X61755049Y-132092181D01*
X61755048Y-132092179D01*
X61630109Y-131920213D01*
X61479786Y-131769890D01*
X61307820Y-131644951D01*
X61307115Y-131644591D01*
X61299054Y-131640485D01*
X61248259Y-131592512D01*
X61231463Y-131524692D01*
X61253999Y-131458556D01*
X61299054Y-131419515D01*
X61307816Y-131415051D01*
X61329789Y-131399086D01*
X61479786Y-131290109D01*
X61479788Y-131290106D01*
X61479792Y-131290104D01*
X61630104Y-131139792D01*
X61630106Y-131139788D01*
X61630109Y-131139786D01*
X61755048Y-130967820D01*
X61755047Y-130967820D01*
X61755051Y-130967816D01*
X61851557Y-130778412D01*
X61917246Y-130576243D01*
X61950500Y-130366287D01*
X61950500Y-130153713D01*
X61917246Y-129943757D01*
X61851557Y-129741588D01*
X61755051Y-129552184D01*
X61755049Y-129552181D01*
X61755048Y-129552179D01*
X61630109Y-129380213D01*
X61479786Y-129229890D01*
X61307820Y-129104951D01*
X61307115Y-129104591D01*
X61299054Y-129100485D01*
X61248259Y-129052512D01*
X61231463Y-128984692D01*
X61253999Y-128918556D01*
X61299054Y-128879515D01*
X61307816Y-128875051D01*
X61329789Y-128859086D01*
X61479786Y-128750109D01*
X61479788Y-128750106D01*
X61479792Y-128750104D01*
X61630104Y-128599792D01*
X61630106Y-128599788D01*
X61630109Y-128599786D01*
X61755048Y-128427820D01*
X61755047Y-128427820D01*
X61755051Y-128427816D01*
X61851557Y-128238412D01*
X61917246Y-128036243D01*
X61950500Y-127826287D01*
X61950500Y-127613713D01*
X61917246Y-127403757D01*
X61851557Y-127201588D01*
X61755051Y-127012184D01*
X61755049Y-127012181D01*
X61755048Y-127012179D01*
X61630109Y-126840213D01*
X61479786Y-126689890D01*
X61307820Y-126564951D01*
X61307115Y-126564591D01*
X61299054Y-126560485D01*
X61248259Y-126512512D01*
X61231463Y-126444692D01*
X61253999Y-126378556D01*
X61299054Y-126339515D01*
X61307816Y-126335051D01*
X61368995Y-126290602D01*
X61479786Y-126210109D01*
X61479788Y-126210106D01*
X61479792Y-126210104D01*
X61630104Y-126059792D01*
X61630106Y-126059788D01*
X61630109Y-126059786D01*
X61755048Y-125887820D01*
X61755047Y-125887820D01*
X61755051Y-125887816D01*
X61851557Y-125698412D01*
X61917246Y-125496243D01*
X61950500Y-125286287D01*
X61950500Y-125073713D01*
X61917246Y-124863757D01*
X61851557Y-124661588D01*
X61755051Y-124472184D01*
X61755049Y-124472181D01*
X61755048Y-124472179D01*
X61630109Y-124300213D01*
X61479786Y-124149890D01*
X61307820Y-124024951D01*
X61307115Y-124024591D01*
X61299054Y-124020485D01*
X61248259Y-123972512D01*
X61231463Y-123904692D01*
X61253999Y-123838556D01*
X61299054Y-123799515D01*
X61307816Y-123795051D01*
X61329789Y-123779086D01*
X61479786Y-123670109D01*
X61479788Y-123670106D01*
X61479792Y-123670104D01*
X61630104Y-123519792D01*
X61630106Y-123519788D01*
X61630109Y-123519786D01*
X61755048Y-123347820D01*
X61755047Y-123347820D01*
X61755051Y-123347816D01*
X61851557Y-123158412D01*
X61917246Y-122956243D01*
X61950500Y-122746287D01*
X61950500Y-122533713D01*
X61917246Y-122323757D01*
X61851557Y-122121588D01*
X61755051Y-121932184D01*
X61755049Y-121932181D01*
X61755048Y-121932179D01*
X61630109Y-121760213D01*
X61479786Y-121609890D01*
X61307820Y-121484951D01*
X61307115Y-121484591D01*
X61299054Y-121480485D01*
X61248259Y-121432512D01*
X61231463Y-121364692D01*
X61253999Y-121298556D01*
X61299054Y-121259515D01*
X61307816Y-121255051D01*
X61370658Y-121209394D01*
X61479786Y-121130109D01*
X61479788Y-121130106D01*
X61479792Y-121130104D01*
X61630104Y-120979792D01*
X61630106Y-120979788D01*
X61630109Y-120979786D01*
X61757915Y-120803875D01*
X61759259Y-120804851D01*
X61805705Y-120762834D01*
X61859618Y-120750500D01*
X76464071Y-120750500D01*
X76549526Y-120733501D01*
X76589744Y-120725501D01*
X76708127Y-120676465D01*
X76814669Y-120605277D01*
X80005277Y-117414669D01*
X80076465Y-117308127D01*
X80125501Y-117189744D01*
X80133506Y-117149500D01*
X80150500Y-117064069D01*
X80150500Y-116504935D01*
X80170185Y-116437896D01*
X80171366Y-116436090D01*
X80209394Y-116379179D01*
X80269737Y-116233497D01*
X80300500Y-116078842D01*
X80300500Y-115921158D01*
X80300500Y-115921155D01*
X80300499Y-115921153D01*
X80291957Y-115878210D01*
X80269737Y-115766503D01*
X80269735Y-115766498D01*
X80209397Y-115620827D01*
X80209390Y-115620814D01*
X80121789Y-115489711D01*
X80121786Y-115489707D01*
X80010292Y-115378213D01*
X80010288Y-115378210D01*
X79879185Y-115290609D01*
X79879172Y-115290602D01*
X79733501Y-115230264D01*
X79733489Y-115230261D01*
X79578845Y-115199500D01*
X79578842Y-115199500D01*
X79421158Y-115199500D01*
X79421155Y-115199500D01*
X79266510Y-115230261D01*
X79266498Y-115230264D01*
X79120827Y-115290602D01*
X79120814Y-115290609D01*
X78989711Y-115378210D01*
X78989707Y-115378213D01*
X78878213Y-115489707D01*
X78878210Y-115489711D01*
X78790609Y-115620814D01*
X78790602Y-115620827D01*
X78730264Y-115766498D01*
X78730261Y-115766510D01*
X78699500Y-115921153D01*
X78699500Y-116078846D01*
X78730261Y-116233489D01*
X78730264Y-116233501D01*
X78790602Y-116379172D01*
X78790606Y-116379179D01*
X78828602Y-116436044D01*
X78849480Y-116502721D01*
X78849500Y-116504935D01*
X78849500Y-116679192D01*
X78829815Y-116746231D01*
X78813181Y-116766873D01*
X76166873Y-119413181D01*
X76105550Y-119446666D01*
X76079192Y-119449500D01*
X61859618Y-119449500D01*
X61792579Y-119429815D01*
X61758900Y-119395408D01*
X61757915Y-119396125D01*
X61630109Y-119220213D01*
X61479786Y-119069890D01*
X61307820Y-118944951D01*
X61307115Y-118944591D01*
X61299054Y-118940485D01*
X61248259Y-118892512D01*
X61231463Y-118824692D01*
X61253999Y-118758556D01*
X61299054Y-118719515D01*
X61307816Y-118715051D01*
X61329789Y-118699086D01*
X61479786Y-118590109D01*
X61479788Y-118590106D01*
X61479792Y-118590104D01*
X61630104Y-118439792D01*
X61630106Y-118439788D01*
X61630109Y-118439786D01*
X61755048Y-118267820D01*
X61755047Y-118267820D01*
X61755051Y-118267816D01*
X61851557Y-118078412D01*
X61917246Y-117876243D01*
X61950500Y-117666287D01*
X61950500Y-117453713D01*
X61917246Y-117243757D01*
X61851557Y-117041588D01*
X61755051Y-116852184D01*
X61755049Y-116852181D01*
X61755048Y-116852179D01*
X61630109Y-116680213D01*
X61479786Y-116529890D01*
X61307820Y-116404951D01*
X61307115Y-116404591D01*
X61299054Y-116400485D01*
X61248259Y-116352512D01*
X61231463Y-116284692D01*
X61253999Y-116218556D01*
X61299054Y-116179515D01*
X61307816Y-116175051D01*
X61329789Y-116159086D01*
X61479786Y-116050109D01*
X61479788Y-116050106D01*
X61479792Y-116050104D01*
X61630104Y-115899792D01*
X61630106Y-115899788D01*
X61630109Y-115899786D01*
X61755048Y-115727820D01*
X61755047Y-115727820D01*
X61755051Y-115727816D01*
X61851557Y-115538412D01*
X61917246Y-115336243D01*
X61950500Y-115126287D01*
X61950500Y-114913713D01*
X61917246Y-114703757D01*
X61851557Y-114501588D01*
X61755051Y-114312184D01*
X61755049Y-114312181D01*
X61755048Y-114312179D01*
X61630109Y-114140213D01*
X61479786Y-113989890D01*
X61307820Y-113864951D01*
X61307115Y-113864591D01*
X61299054Y-113860485D01*
X61248259Y-113812512D01*
X61231463Y-113744692D01*
X61253999Y-113678556D01*
X61299054Y-113639515D01*
X61307816Y-113635051D01*
X61366610Y-113592335D01*
X61479786Y-113510109D01*
X61479788Y-113510106D01*
X61479792Y-113510104D01*
X61630104Y-113359792D01*
X61630106Y-113359788D01*
X61630109Y-113359786D01*
X61740778Y-113207461D01*
X61755051Y-113187816D01*
X61851557Y-112998412D01*
X61917246Y-112796243D01*
X61950500Y-112586287D01*
X61950500Y-112373713D01*
X61917246Y-112163757D01*
X61851557Y-111961588D01*
X61755051Y-111772184D01*
X61755049Y-111772181D01*
X61755048Y-111772179D01*
X61630109Y-111600213D01*
X61479786Y-111449890D01*
X61307820Y-111324951D01*
X61307115Y-111324591D01*
X61299054Y-111320485D01*
X61248259Y-111272512D01*
X61231463Y-111204692D01*
X61253999Y-111138556D01*
X61299054Y-111099515D01*
X61307816Y-111095051D01*
X61329789Y-111079086D01*
X61479786Y-110970109D01*
X61479788Y-110970106D01*
X61479792Y-110970104D01*
X61630104Y-110819792D01*
X61630106Y-110819788D01*
X61630109Y-110819786D01*
X61755048Y-110647820D01*
X61755047Y-110647820D01*
X61755051Y-110647816D01*
X61851557Y-110458412D01*
X61917246Y-110256243D01*
X61950500Y-110046287D01*
X61950500Y-109833713D01*
X61917246Y-109623757D01*
X61851557Y-109421588D01*
X61755051Y-109232184D01*
X61755049Y-109232181D01*
X61755048Y-109232179D01*
X61630109Y-109060213D01*
X61479786Y-108909890D01*
X61307820Y-108784951D01*
X61307115Y-108784591D01*
X61299054Y-108780485D01*
X61248259Y-108732512D01*
X61231463Y-108664692D01*
X61253999Y-108598556D01*
X61299054Y-108559515D01*
X61307816Y-108555051D01*
X61329789Y-108539086D01*
X61479786Y-108430109D01*
X61479788Y-108430106D01*
X61479792Y-108430104D01*
X61630104Y-108279792D01*
X61630106Y-108279788D01*
X61630109Y-108279786D01*
X61755048Y-108107820D01*
X61755047Y-108107820D01*
X61755051Y-108107816D01*
X61851557Y-107918412D01*
X61917246Y-107716243D01*
X61950500Y-107506287D01*
X61950500Y-107293713D01*
X61917246Y-107083757D01*
X61851557Y-106881588D01*
X61755051Y-106692184D01*
X61755049Y-106692181D01*
X61755048Y-106692179D01*
X61630109Y-106520213D01*
X61479786Y-106369890D01*
X61307820Y-106244951D01*
X61307115Y-106244591D01*
X61299054Y-106240485D01*
X61248259Y-106192512D01*
X61231463Y-106124692D01*
X61253999Y-106058556D01*
X61299054Y-106019515D01*
X61307816Y-106015051D01*
X61329789Y-105999086D01*
X61479786Y-105890109D01*
X61479788Y-105890106D01*
X61479792Y-105890104D01*
X61630104Y-105739792D01*
X61630106Y-105739788D01*
X61630109Y-105739786D01*
X61755048Y-105567820D01*
X61755047Y-105567820D01*
X61755051Y-105567816D01*
X61851557Y-105378412D01*
X61917246Y-105176243D01*
X61950500Y-104966287D01*
X61950500Y-104753713D01*
X61917246Y-104543757D01*
X61851557Y-104341588D01*
X61755051Y-104152184D01*
X61755049Y-104152181D01*
X61755048Y-104152179D01*
X61630109Y-103980213D01*
X61479786Y-103829890D01*
X61307820Y-103704951D01*
X61307115Y-103704591D01*
X61299054Y-103700485D01*
X61248259Y-103652512D01*
X61231463Y-103584692D01*
X61253999Y-103518556D01*
X61299054Y-103479515D01*
X61307816Y-103475051D01*
X61329789Y-103459086D01*
X61479786Y-103350109D01*
X61479788Y-103350106D01*
X61479792Y-103350104D01*
X61630104Y-103199792D01*
X61630106Y-103199788D01*
X61630109Y-103199786D01*
X61755048Y-103027820D01*
X61755047Y-103027820D01*
X61755051Y-103027816D01*
X61851557Y-102838412D01*
X61917246Y-102636243D01*
X61950500Y-102426287D01*
X61950500Y-102213713D01*
X61917246Y-102003757D01*
X61851557Y-101801588D01*
X61755051Y-101612184D01*
X61755049Y-101612181D01*
X61755048Y-101612179D01*
X61630109Y-101440213D01*
X61516569Y-101326673D01*
X61483084Y-101265350D01*
X61488068Y-101195658D01*
X61529940Y-101139725D01*
X61560915Y-101122810D01*
X61692331Y-101073796D01*
X61807546Y-100987546D01*
X61893796Y-100872331D01*
X61944091Y-100737483D01*
X61950500Y-100677873D01*
X61950499Y-98882128D01*
X61944091Y-98822517D01*
X61932878Y-98792454D01*
X61893797Y-98687671D01*
X61893793Y-98687664D01*
X61807547Y-98572455D01*
X61807544Y-98572452D01*
X61692335Y-98486206D01*
X61692328Y-98486202D01*
X61557482Y-98435908D01*
X61557483Y-98435908D01*
X61497883Y-98429501D01*
X61497881Y-98429500D01*
X61497873Y-98429500D01*
X61497864Y-98429500D01*
X59702129Y-98429500D01*
X59702123Y-98429501D01*
X59642516Y-98435908D01*
X59507671Y-98486202D01*
X59507664Y-98486206D01*
X59392455Y-98572452D01*
X59392452Y-98572455D01*
X59306206Y-98687664D01*
X59306202Y-98687671D01*
X59255908Y-98822517D01*
X59250753Y-98870471D01*
X59249501Y-98882123D01*
X59249500Y-98882135D01*
X59249500Y-99005500D01*
X59229815Y-99072539D01*
X59177011Y-99118294D01*
X59125500Y-99129500D01*
X46462629Y-99129500D01*
X46395590Y-99109815D01*
X46349835Y-99057011D01*
X46346447Y-99048833D01*
X46293797Y-98907671D01*
X46293793Y-98907664D01*
X46207547Y-98792455D01*
X46207544Y-98792452D01*
X46092335Y-98706206D01*
X46092328Y-98706202D01*
X45957482Y-98655908D01*
X45957483Y-98655908D01*
X45897883Y-98649501D01*
X45897881Y-98649500D01*
X45897873Y-98649500D01*
X45897865Y-98649500D01*
X45774500Y-98649500D01*
X45707461Y-98629815D01*
X45661706Y-98577011D01*
X45650500Y-98525500D01*
X45650500Y-98302155D01*
X98850000Y-98302155D01*
X98850000Y-98950000D01*
X99766988Y-98950000D01*
X99734075Y-99007007D01*
X99700000Y-99134174D01*
X99700000Y-99265826D01*
X99734075Y-99392993D01*
X99766988Y-99450000D01*
X98850000Y-99450000D01*
X98850000Y-100097844D01*
X98856401Y-100157372D01*
X98856403Y-100157379D01*
X98906645Y-100292086D01*
X98906649Y-100292093D01*
X98992809Y-100407187D01*
X98992812Y-100407190D01*
X99107906Y-100493350D01*
X99107913Y-100493354D01*
X99242620Y-100543596D01*
X99242627Y-100543598D01*
X99302155Y-100549999D01*
X99302172Y-100550000D01*
X99950000Y-100550000D01*
X99950000Y-99633012D01*
X100007007Y-99665925D01*
X100134174Y-99700000D01*
X100265826Y-99700000D01*
X100392993Y-99665925D01*
X100450000Y-99633012D01*
X100450000Y-100550000D01*
X101097828Y-100550000D01*
X101097844Y-100549999D01*
X101157372Y-100543598D01*
X101157379Y-100543596D01*
X101292086Y-100493354D01*
X101292093Y-100493350D01*
X101407187Y-100407190D01*
X101407190Y-100407187D01*
X101493350Y-100292093D01*
X101493354Y-100292086D01*
X101543596Y-100157379D01*
X101543598Y-100157372D01*
X101549999Y-100097844D01*
X101550000Y-100097827D01*
X101550000Y-99450000D01*
X100633012Y-99450000D01*
X100665925Y-99392993D01*
X100700000Y-99265826D01*
X100700000Y-99134174D01*
X100665925Y-99007007D01*
X100633012Y-98950000D01*
X101550000Y-98950000D01*
X101550000Y-98302172D01*
X101549999Y-98302155D01*
X101543598Y-98242627D01*
X101543596Y-98242620D01*
X101493354Y-98107913D01*
X101493350Y-98107906D01*
X101407190Y-97992812D01*
X101407187Y-97992809D01*
X101292093Y-97906649D01*
X101292086Y-97906645D01*
X101157379Y-97856403D01*
X101157372Y-97856401D01*
X101097844Y-97850000D01*
X100450000Y-97850000D01*
X100450000Y-98766988D01*
X100392993Y-98734075D01*
X100265826Y-98700000D01*
X100134174Y-98700000D01*
X100007007Y-98734075D01*
X99950000Y-98766988D01*
X99950000Y-97850000D01*
X99302155Y-97850000D01*
X99242627Y-97856401D01*
X99242620Y-97856403D01*
X99107913Y-97906645D01*
X99107906Y-97906649D01*
X98992812Y-97992809D01*
X98992809Y-97992812D01*
X98906649Y-98107906D01*
X98906645Y-98107913D01*
X98856403Y-98242620D01*
X98856401Y-98242627D01*
X98850000Y-98302155D01*
X45650500Y-98302155D01*
X45650500Y-94921153D01*
X47699500Y-94921153D01*
X47699500Y-95078846D01*
X47730261Y-95233489D01*
X47730264Y-95233501D01*
X47790602Y-95379172D01*
X47790609Y-95379185D01*
X47878210Y-95510288D01*
X47878213Y-95510292D01*
X47989707Y-95621786D01*
X47989711Y-95621789D01*
X48120814Y-95709390D01*
X48120827Y-95709397D01*
X48266498Y-95769735D01*
X48266503Y-95769737D01*
X48421153Y-95800499D01*
X48421156Y-95800500D01*
X48421158Y-95800500D01*
X48578844Y-95800500D01*
X48578845Y-95800499D01*
X48733497Y-95769737D01*
X48879179Y-95709394D01*
X48936044Y-95671397D01*
X49002721Y-95650520D01*
X49004935Y-95650500D01*
X59995065Y-95650500D01*
X60062104Y-95670185D01*
X60063909Y-95671366D01*
X60120821Y-95709394D01*
X60120823Y-95709395D01*
X60120827Y-95709397D01*
X60266498Y-95769735D01*
X60266503Y-95769737D01*
X60421153Y-95800499D01*
X60421156Y-95800500D01*
X60421158Y-95800500D01*
X60578844Y-95800500D01*
X60578845Y-95800499D01*
X60733497Y-95769737D01*
X60879179Y-95709394D01*
X61010289Y-95621789D01*
X61121789Y-95510289D01*
X61209394Y-95379179D01*
X61269737Y-95233497D01*
X61300500Y-95078842D01*
X61300500Y-94921158D01*
X61300500Y-94921155D01*
X61300499Y-94921153D01*
X61269738Y-94766510D01*
X61269737Y-94766503D01*
X61269735Y-94766498D01*
X61209397Y-94620827D01*
X61209390Y-94620814D01*
X61121789Y-94489711D01*
X61121786Y-94489707D01*
X61010292Y-94378213D01*
X61010288Y-94378210D01*
X60879185Y-94290609D01*
X60879172Y-94290602D01*
X60733501Y-94230264D01*
X60733489Y-94230261D01*
X60578845Y-94199500D01*
X60578842Y-94199500D01*
X60421158Y-94199500D01*
X60421155Y-94199500D01*
X60266510Y-94230261D01*
X60266498Y-94230264D01*
X60120827Y-94290602D01*
X60120820Y-94290606D01*
X60091928Y-94309911D01*
X60063955Y-94328602D01*
X59997279Y-94349480D01*
X59995065Y-94349500D01*
X49004935Y-94349500D01*
X48937896Y-94329815D01*
X48936090Y-94328633D01*
X48879179Y-94290606D01*
X48879172Y-94290602D01*
X48733501Y-94230264D01*
X48733489Y-94230261D01*
X48578845Y-94199500D01*
X48578842Y-94199500D01*
X48421158Y-94199500D01*
X48421155Y-94199500D01*
X48266510Y-94230261D01*
X48266498Y-94230264D01*
X48120827Y-94290602D01*
X48120814Y-94290609D01*
X47989711Y-94378210D01*
X47989707Y-94378213D01*
X47878213Y-94489707D01*
X47878210Y-94489711D01*
X47790609Y-94620814D01*
X47790602Y-94620827D01*
X47730264Y-94766498D01*
X47730261Y-94766510D01*
X47699500Y-94921153D01*
X45650500Y-94921153D01*
X45650500Y-90897757D01*
X45670185Y-90830718D01*
X45722989Y-90784963D01*
X45792147Y-90775019D01*
X45798692Y-90776140D01*
X45921155Y-90800500D01*
X45921158Y-90800500D01*
X46078844Y-90800500D01*
X46078845Y-90800499D01*
X46233497Y-90769737D01*
X46379179Y-90709394D01*
X46436044Y-90671397D01*
X46502721Y-90650520D01*
X46504935Y-90650500D01*
X72113122Y-90650500D01*
X72180161Y-90670185D01*
X72225916Y-90722989D01*
X72227784Y-90727930D01*
X72227932Y-90727869D01*
X72290602Y-90879172D01*
X72290609Y-90879185D01*
X72378210Y-91010288D01*
X72378213Y-91010292D01*
X72489708Y-91121787D01*
X72490621Y-91122397D01*
X72490991Y-91122839D01*
X72494419Y-91125653D01*
X72493885Y-91126303D01*
X72535427Y-91176010D01*
X72544134Y-91245334D01*
X72513980Y-91308362D01*
X72454537Y-91345082D01*
X72421731Y-91349500D01*
X63004935Y-91349500D01*
X62937896Y-91329815D01*
X62936090Y-91328633D01*
X62879179Y-91290606D01*
X62879172Y-91290602D01*
X62733501Y-91230264D01*
X62733489Y-91230261D01*
X62578845Y-91199500D01*
X62578842Y-91199500D01*
X62421158Y-91199500D01*
X62421155Y-91199500D01*
X62266510Y-91230261D01*
X62266498Y-91230264D01*
X62120827Y-91290602D01*
X62120814Y-91290609D01*
X61989711Y-91378210D01*
X61989707Y-91378213D01*
X61878213Y-91489707D01*
X61878210Y-91489711D01*
X61790609Y-91620814D01*
X61790602Y-91620827D01*
X61730264Y-91766498D01*
X61730261Y-91766510D01*
X61699500Y-91921153D01*
X61699500Y-92078846D01*
X61730261Y-92233489D01*
X61730264Y-92233501D01*
X61790602Y-92379172D01*
X61790609Y-92379185D01*
X61878210Y-92510288D01*
X61878213Y-92510292D01*
X61989707Y-92621786D01*
X61989711Y-92621789D01*
X62120814Y-92709390D01*
X62120827Y-92709397D01*
X62258683Y-92766498D01*
X62266503Y-92769737D01*
X62421153Y-92800499D01*
X62421156Y-92800500D01*
X62421158Y-92800500D01*
X62578844Y-92800500D01*
X62578845Y-92800499D01*
X62733497Y-92769737D01*
X62879179Y-92709394D01*
X62936044Y-92671397D01*
X63002721Y-92650520D01*
X63004935Y-92650500D01*
X75679192Y-92650500D01*
X75746231Y-92670185D01*
X75766873Y-92686819D01*
X76182984Y-93102930D01*
X76216469Y-93164253D01*
X76216920Y-93166420D01*
X76230261Y-93233489D01*
X76230264Y-93233501D01*
X76290602Y-93379172D01*
X76290609Y-93379185D01*
X76378210Y-93510288D01*
X76378213Y-93510292D01*
X76489707Y-93621786D01*
X76489711Y-93621789D01*
X76620814Y-93709390D01*
X76620827Y-93709397D01*
X76766498Y-93769735D01*
X76766503Y-93769737D01*
X76921153Y-93800499D01*
X76921156Y-93800500D01*
X76921158Y-93800500D01*
X77078844Y-93800500D01*
X77078845Y-93800499D01*
X77233497Y-93769737D01*
X77379179Y-93709394D01*
X77510289Y-93621789D01*
X77621789Y-93510289D01*
X77709394Y-93379179D01*
X77769737Y-93233497D01*
X77800500Y-93078842D01*
X77800500Y-92921158D01*
X77800500Y-92921155D01*
X77800499Y-92921153D01*
X77769738Y-92766510D01*
X77769737Y-92766503D01*
X77746082Y-92709394D01*
X77709397Y-92620827D01*
X77709390Y-92620814D01*
X77621789Y-92489711D01*
X77621786Y-92489707D01*
X77510292Y-92378213D01*
X77510288Y-92378210D01*
X77379185Y-92290609D01*
X77379172Y-92290602D01*
X77233501Y-92230264D01*
X77233489Y-92230261D01*
X77166420Y-92216920D01*
X77104509Y-92184535D01*
X77102930Y-92182984D01*
X76414674Y-91494727D01*
X76414673Y-91494726D01*
X76414669Y-91494723D01*
X76308127Y-91423535D01*
X76302388Y-91421158D01*
X76189744Y-91374499D01*
X76189738Y-91374497D01*
X76064071Y-91349500D01*
X76064069Y-91349500D01*
X73578269Y-91349500D01*
X73511230Y-91329815D01*
X73465475Y-91277011D01*
X73455531Y-91207853D01*
X73484556Y-91144297D01*
X73505626Y-91125707D01*
X73505581Y-91125653D01*
X73507119Y-91124390D01*
X73509379Y-91122397D01*
X73510289Y-91121789D01*
X73621789Y-91010289D01*
X73709394Y-90879179D01*
X73711396Y-90874347D01*
X73741984Y-90800499D01*
X73769737Y-90733497D01*
X73800500Y-90578842D01*
X73800500Y-90421158D01*
X73800500Y-90421155D01*
X73800499Y-90421153D01*
X73769738Y-90266510D01*
X73769737Y-90266503D01*
X73756062Y-90233489D01*
X73709397Y-90120827D01*
X73709390Y-90120814D01*
X73621790Y-89989712D01*
X73621784Y-89989705D01*
X73553232Y-89921153D01*
X80699500Y-89921153D01*
X80699500Y-90078846D01*
X80730261Y-90233489D01*
X80730264Y-90233501D01*
X80790602Y-90379172D01*
X80790609Y-90379185D01*
X80878210Y-90510288D01*
X80878213Y-90510292D01*
X80989707Y-90621786D01*
X80989711Y-90621789D01*
X81120814Y-90709390D01*
X81120827Y-90709397D01*
X81217827Y-90749575D01*
X81266503Y-90769737D01*
X81379165Y-90792147D01*
X81421153Y-90800499D01*
X81421156Y-90800500D01*
X81421158Y-90800500D01*
X81578844Y-90800500D01*
X81578845Y-90800499D01*
X81733497Y-90769737D01*
X81879179Y-90709394D01*
X81936044Y-90671397D01*
X82002721Y-90650520D01*
X82004935Y-90650500D01*
X84921731Y-90650500D01*
X84988770Y-90670185D01*
X85034525Y-90722989D01*
X85044469Y-90792147D01*
X85015444Y-90855703D01*
X84994373Y-90874292D01*
X84994419Y-90874347D01*
X84992880Y-90875609D01*
X84990621Y-90877603D01*
X84989708Y-90878212D01*
X84878213Y-90989707D01*
X84878210Y-90989711D01*
X84790609Y-91120814D01*
X84790602Y-91120827D01*
X84730264Y-91266498D01*
X84730261Y-91266510D01*
X84699500Y-91421153D01*
X84699500Y-91578846D01*
X84730261Y-91733489D01*
X84730264Y-91733501D01*
X84790602Y-91879172D01*
X84790609Y-91879185D01*
X84878210Y-92010288D01*
X84878213Y-92010292D01*
X84989707Y-92121786D01*
X84989711Y-92121789D01*
X85120814Y-92209390D01*
X85120827Y-92209397D01*
X85266498Y-92269735D01*
X85266503Y-92269737D01*
X85421153Y-92300499D01*
X85421156Y-92300500D01*
X85421158Y-92300500D01*
X85578844Y-92300500D01*
X85578845Y-92300499D01*
X85733497Y-92269737D01*
X85846166Y-92223067D01*
X85879172Y-92209397D01*
X85879172Y-92209396D01*
X85879179Y-92209394D01*
X85936044Y-92171397D01*
X86002721Y-92150520D01*
X86004935Y-92150500D01*
X96995065Y-92150500D01*
X97062104Y-92170185D01*
X97063909Y-92171366D01*
X97120821Y-92209394D01*
X97120823Y-92209395D01*
X97120827Y-92209397D01*
X97266498Y-92269735D01*
X97266503Y-92269737D01*
X97421153Y-92300499D01*
X97421156Y-92300500D01*
X97421158Y-92300500D01*
X97578844Y-92300500D01*
X97578845Y-92300499D01*
X97733497Y-92269737D01*
X97846166Y-92223067D01*
X97879172Y-92209397D01*
X97879172Y-92209396D01*
X97879179Y-92209394D01*
X98010289Y-92121789D01*
X98121789Y-92010289D01*
X98209394Y-91879179D01*
X98269737Y-91733497D01*
X98300500Y-91578842D01*
X98300500Y-91421158D01*
X98300500Y-91421155D01*
X98300499Y-91421153D01*
X98285367Y-91345082D01*
X98269737Y-91266503D01*
X98260969Y-91245334D01*
X98209397Y-91120827D01*
X98209390Y-91120814D01*
X98121789Y-90989711D01*
X98121786Y-90989707D01*
X98010292Y-90878213D01*
X98010288Y-90878210D01*
X97879185Y-90790609D01*
X97879172Y-90790602D01*
X97733501Y-90730264D01*
X97733489Y-90730261D01*
X97578845Y-90699500D01*
X97578842Y-90699500D01*
X97421158Y-90699500D01*
X97421155Y-90699500D01*
X97266510Y-90730261D01*
X97266502Y-90730263D01*
X97219878Y-90749575D01*
X97150408Y-90757042D01*
X97087930Y-90725766D01*
X97052278Y-90665677D01*
X97054773Y-90595852D01*
X97084747Y-90547331D01*
X97121786Y-90510292D01*
X97121789Y-90510289D01*
X97209394Y-90379179D01*
X97269737Y-90233497D01*
X97300500Y-90078842D01*
X97300500Y-89921158D01*
X97300500Y-89921155D01*
X97300499Y-89921153D01*
X97274531Y-89790606D01*
X97269737Y-89766503D01*
X97269735Y-89766498D01*
X97209397Y-89620827D01*
X97209390Y-89620814D01*
X97121789Y-89489711D01*
X97121786Y-89489707D01*
X97010292Y-89378213D01*
X97010288Y-89378210D01*
X96879185Y-89290609D01*
X96879172Y-89290602D01*
X96733501Y-89230264D01*
X96733489Y-89230261D01*
X96578845Y-89199500D01*
X96578842Y-89199500D01*
X96421158Y-89199500D01*
X96421155Y-89199500D01*
X96266510Y-89230261D01*
X96266498Y-89230264D01*
X96120827Y-89290602D01*
X96120820Y-89290606D01*
X96094247Y-89308362D01*
X96063955Y-89328602D01*
X95997279Y-89349480D01*
X95995065Y-89349500D01*
X82004935Y-89349500D01*
X81937896Y-89329815D01*
X81936090Y-89328633D01*
X81879179Y-89290606D01*
X81879172Y-89290602D01*
X81733501Y-89230264D01*
X81733489Y-89230261D01*
X81578845Y-89199500D01*
X81578842Y-89199500D01*
X81421158Y-89199500D01*
X81421155Y-89199500D01*
X81266510Y-89230261D01*
X81266498Y-89230264D01*
X81120827Y-89290602D01*
X81120814Y-89290609D01*
X80989711Y-89378210D01*
X80989707Y-89378213D01*
X80878213Y-89489707D01*
X80878210Y-89489711D01*
X80790609Y-89620814D01*
X80790602Y-89620827D01*
X80730264Y-89766498D01*
X80730261Y-89766510D01*
X80699500Y-89921153D01*
X73553232Y-89921153D01*
X73510292Y-89878213D01*
X73510288Y-89878210D01*
X73379185Y-89790609D01*
X73379172Y-89790602D01*
X73233501Y-89730264D01*
X73233489Y-89730261D01*
X73166420Y-89716920D01*
X73104509Y-89684535D01*
X73102930Y-89682984D01*
X72914674Y-89494727D01*
X72914673Y-89494726D01*
X72914669Y-89494723D01*
X72808127Y-89423535D01*
X72689744Y-89374499D01*
X72689738Y-89374497D01*
X72564071Y-89349500D01*
X72564069Y-89349500D01*
X65772352Y-89349500D01*
X65705313Y-89329815D01*
X65659558Y-89277011D01*
X65649614Y-89207853D01*
X65678639Y-89144297D01*
X65724900Y-89110939D01*
X65808123Y-89076467D01*
X65808124Y-89076466D01*
X65808127Y-89076465D01*
X65914669Y-89005277D01*
X66952931Y-87967013D01*
X67014252Y-87933530D01*
X67016317Y-87933099D01*
X67083497Y-87919737D01*
X67229179Y-87859394D01*
X67360289Y-87771789D01*
X67471789Y-87660289D01*
X67559394Y-87529179D01*
X67619737Y-87383497D01*
X67650500Y-87228842D01*
X67650500Y-87071158D01*
X67650500Y-87071155D01*
X67650499Y-87071153D01*
X67619738Y-86916510D01*
X67619738Y-86916508D01*
X67619737Y-86916503D01*
X67619735Y-86916498D01*
X67559397Y-86770827D01*
X67559390Y-86770814D01*
X67471789Y-86639711D01*
X67471786Y-86639707D01*
X67360292Y-86528213D01*
X67360288Y-86528210D01*
X67229185Y-86440609D01*
X67229172Y-86440602D01*
X67083501Y-86380264D01*
X67083489Y-86380261D01*
X66928845Y-86349500D01*
X66928842Y-86349500D01*
X66771158Y-86349500D01*
X66771155Y-86349500D01*
X66616510Y-86380261D01*
X66616498Y-86380264D01*
X66470827Y-86440602D01*
X66470814Y-86440609D01*
X66339711Y-86528210D01*
X66339707Y-86528213D01*
X66228213Y-86639707D01*
X66228210Y-86639711D01*
X66140609Y-86770814D01*
X66140602Y-86770827D01*
X66080264Y-86916498D01*
X66080261Y-86916508D01*
X66066920Y-86983579D01*
X66034535Y-87045490D01*
X66032984Y-87047068D01*
X65266873Y-87813181D01*
X65205550Y-87846666D01*
X65179192Y-87849500D01*
X51504935Y-87849500D01*
X51437896Y-87829815D01*
X51436090Y-87828633D01*
X51379179Y-87790606D01*
X51379172Y-87790602D01*
X51233501Y-87730264D01*
X51233489Y-87730261D01*
X51078845Y-87699500D01*
X51078842Y-87699500D01*
X50921158Y-87699500D01*
X50921155Y-87699500D01*
X50766510Y-87730261D01*
X50766498Y-87730264D01*
X50620827Y-87790602D01*
X50620814Y-87790609D01*
X50489711Y-87878210D01*
X50489707Y-87878213D01*
X50378213Y-87989707D01*
X50378210Y-87989711D01*
X50290609Y-88120814D01*
X50290602Y-88120827D01*
X50230264Y-88266498D01*
X50230261Y-88266510D01*
X50199500Y-88421153D01*
X50199500Y-88578846D01*
X50230261Y-88733489D01*
X50230264Y-88733501D01*
X50290602Y-88879172D01*
X50290609Y-88879185D01*
X50378210Y-89010288D01*
X50378213Y-89010292D01*
X50489708Y-89121787D01*
X50490621Y-89122397D01*
X50490991Y-89122839D01*
X50494419Y-89125653D01*
X50493885Y-89126303D01*
X50535427Y-89176010D01*
X50544134Y-89245334D01*
X50513980Y-89308362D01*
X50454537Y-89345082D01*
X50421731Y-89349500D01*
X46504935Y-89349500D01*
X46437896Y-89329815D01*
X46436090Y-89328633D01*
X46379179Y-89290606D01*
X46379172Y-89290602D01*
X46233501Y-89230264D01*
X46233489Y-89230261D01*
X46078845Y-89199500D01*
X46078842Y-89199500D01*
X45921158Y-89199500D01*
X45921155Y-89199500D01*
X45766510Y-89230261D01*
X45766498Y-89230264D01*
X45620827Y-89290602D01*
X45620814Y-89290609D01*
X45489711Y-89378210D01*
X45489707Y-89378213D01*
X45378213Y-89489707D01*
X45378210Y-89489711D01*
X45290609Y-89620814D01*
X45290602Y-89620828D01*
X45288444Y-89626038D01*
X45244600Y-89680438D01*
X45178304Y-89702499D01*
X45110606Y-89685216D01*
X45086205Y-89666259D01*
X41751627Y-86331681D01*
X41718142Y-86270358D01*
X41723126Y-86200666D01*
X41764998Y-86144733D01*
X41830462Y-86120316D01*
X41839308Y-86120000D01*
X42400000Y-86120000D01*
X42400000Y-85203012D01*
X42457007Y-85235925D01*
X42584174Y-85270000D01*
X42715826Y-85270000D01*
X42842993Y-85235925D01*
X42900000Y-85203012D01*
X42900000Y-86120000D01*
X43547828Y-86120000D01*
X43547844Y-86119999D01*
X43607372Y-86113598D01*
X43607379Y-86113596D01*
X43742086Y-86063354D01*
X43742093Y-86063350D01*
X43857187Y-85977190D01*
X43857190Y-85977187D01*
X43943350Y-85862093D01*
X43943354Y-85862086D01*
X43992422Y-85730529D01*
X44034293Y-85674595D01*
X44099757Y-85650178D01*
X44168030Y-85665030D01*
X44196285Y-85686181D01*
X44310213Y-85800109D01*
X44482179Y-85925048D01*
X44482181Y-85925049D01*
X44482184Y-85925051D01*
X44671588Y-86021557D01*
X44873757Y-86087246D01*
X45083713Y-86120500D01*
X45083714Y-86120500D01*
X45296286Y-86120500D01*
X45296287Y-86120500D01*
X45506243Y-86087246D01*
X45708412Y-86021557D01*
X45897816Y-85925051D01*
X45954872Y-85883598D01*
X46069786Y-85800109D01*
X46069788Y-85800106D01*
X46069792Y-85800104D01*
X46220104Y-85649792D01*
X46220106Y-85649788D01*
X46220109Y-85649786D01*
X46345048Y-85477820D01*
X46345047Y-85477820D01*
X46345051Y-85477816D01*
X46349514Y-85469054D01*
X46397488Y-85418259D01*
X46465308Y-85401463D01*
X46531444Y-85423999D01*
X46570486Y-85469056D01*
X46574951Y-85477820D01*
X46699890Y-85649786D01*
X46850213Y-85800109D01*
X47022179Y-85925048D01*
X47022181Y-85925049D01*
X47022184Y-85925051D01*
X47211588Y-86021557D01*
X47413757Y-86087246D01*
X47623713Y-86120500D01*
X47623714Y-86120500D01*
X47836286Y-86120500D01*
X47836287Y-86120500D01*
X48046243Y-86087246D01*
X48248412Y-86021557D01*
X48437816Y-85925051D01*
X48494872Y-85883598D01*
X48609786Y-85800109D01*
X48609788Y-85800106D01*
X48609792Y-85800104D01*
X48760104Y-85649792D01*
X48760106Y-85649788D01*
X48760109Y-85649786D01*
X48885048Y-85477820D01*
X48885047Y-85477820D01*
X48885051Y-85477816D01*
X48889514Y-85469054D01*
X48937488Y-85418259D01*
X49005308Y-85401463D01*
X49071444Y-85423999D01*
X49110486Y-85469056D01*
X49114951Y-85477820D01*
X49239890Y-85649786D01*
X49390213Y-85800109D01*
X49562179Y-85925048D01*
X49562181Y-85925049D01*
X49562184Y-85925051D01*
X49751588Y-86021557D01*
X49953757Y-86087246D01*
X50163713Y-86120500D01*
X50163714Y-86120500D01*
X50376286Y-86120500D01*
X50376287Y-86120500D01*
X50586243Y-86087246D01*
X50788412Y-86021557D01*
X50977816Y-85925051D01*
X51034872Y-85883598D01*
X51149786Y-85800109D01*
X51149788Y-85800106D01*
X51149792Y-85800104D01*
X51300104Y-85649792D01*
X51300106Y-85649788D01*
X51300109Y-85649786D01*
X51425048Y-85477820D01*
X51425047Y-85477820D01*
X51425051Y-85477816D01*
X51521557Y-85288412D01*
X51587246Y-85086243D01*
X51620500Y-84876287D01*
X51620500Y-84663713D01*
X51587246Y-84453757D01*
X51521557Y-84251588D01*
X51425051Y-84062184D01*
X51425049Y-84062181D01*
X51425048Y-84062179D01*
X51300109Y-83890213D01*
X51149786Y-83739890D01*
X50977820Y-83614951D01*
X50972654Y-83612319D01*
X50969054Y-83610485D01*
X50918259Y-83562512D01*
X50901463Y-83494692D01*
X50923999Y-83428556D01*
X50969054Y-83389515D01*
X50977816Y-83385051D01*
X51039158Y-83340484D01*
X51149786Y-83260109D01*
X51149788Y-83260106D01*
X51149792Y-83260104D01*
X51300104Y-83109792D01*
X51300106Y-83109788D01*
X51300109Y-83109786D01*
X51409086Y-82959789D01*
X51425051Y-82937816D01*
X51521557Y-82748412D01*
X51587246Y-82546243D01*
X51620500Y-82336287D01*
X51620500Y-82123713D01*
X51587246Y-81913757D01*
X51551168Y-81802723D01*
X51549174Y-81732887D01*
X51585254Y-81673054D01*
X51647954Y-81642225D01*
X51717369Y-81650189D01*
X51756781Y-81676728D01*
X52585324Y-82505271D01*
X52585331Y-82505277D01*
X52691871Y-82576464D01*
X52691870Y-82576464D01*
X52713270Y-82585328D01*
X52810256Y-82625501D01*
X52810260Y-82625501D01*
X52810261Y-82625502D01*
X52935928Y-82650500D01*
X52935931Y-82650500D01*
X57970382Y-82650500D01*
X58037421Y-82670185D01*
X58071099Y-82704591D01*
X58072085Y-82703875D01*
X58199890Y-82879786D01*
X58313818Y-82993714D01*
X58347303Y-83055037D01*
X58342319Y-83124729D01*
X58300447Y-83180662D01*
X58269471Y-83197577D01*
X58137912Y-83246646D01*
X58137906Y-83246649D01*
X58022812Y-83332809D01*
X58022809Y-83332812D01*
X57936649Y-83447906D01*
X57936645Y-83447913D01*
X57886403Y-83582620D01*
X57886401Y-83582627D01*
X57880000Y-83642155D01*
X57880000Y-84290000D01*
X58796988Y-84290000D01*
X58764075Y-84347007D01*
X58730000Y-84474174D01*
X58730000Y-84605826D01*
X58764075Y-84732993D01*
X58796988Y-84790000D01*
X57880000Y-84790000D01*
X57880000Y-85437844D01*
X57886401Y-85497372D01*
X57886403Y-85497379D01*
X57936645Y-85632086D01*
X57936649Y-85632093D01*
X58022809Y-85747187D01*
X58022812Y-85747190D01*
X58137906Y-85833350D01*
X58137913Y-85833354D01*
X58272620Y-85883596D01*
X58272627Y-85883598D01*
X58332155Y-85889999D01*
X58332172Y-85890000D01*
X58980000Y-85890000D01*
X58980000Y-84973012D01*
X59037007Y-85005925D01*
X59164174Y-85040000D01*
X59295826Y-85040000D01*
X59422993Y-85005925D01*
X59480000Y-84973012D01*
X59480000Y-85890000D01*
X60127828Y-85890000D01*
X60127844Y-85889999D01*
X60187372Y-85883598D01*
X60187379Y-85883596D01*
X60322086Y-85833354D01*
X60322093Y-85833350D01*
X60437187Y-85747190D01*
X60437190Y-85747187D01*
X60523350Y-85632093D01*
X60523354Y-85632086D01*
X60572422Y-85500529D01*
X60614293Y-85444595D01*
X60679757Y-85420178D01*
X60748030Y-85435030D01*
X60776285Y-85456181D01*
X60890213Y-85570109D01*
X61062179Y-85695048D01*
X61062181Y-85695049D01*
X61062184Y-85695051D01*
X61251588Y-85791557D01*
X61453757Y-85857246D01*
X61663713Y-85890500D01*
X61663714Y-85890500D01*
X61876286Y-85890500D01*
X61876287Y-85890500D01*
X62086243Y-85857246D01*
X62288412Y-85791557D01*
X62477816Y-85695051D01*
X62499789Y-85679086D01*
X62649786Y-85570109D01*
X62649788Y-85570106D01*
X62649792Y-85570104D01*
X62800104Y-85419792D01*
X62800106Y-85419788D01*
X62800109Y-85419786D01*
X62925048Y-85247820D01*
X62925047Y-85247820D01*
X62925051Y-85247816D01*
X62929514Y-85239054D01*
X62977488Y-85188259D01*
X63045308Y-85171463D01*
X63111444Y-85193999D01*
X63150486Y-85239056D01*
X63154951Y-85247820D01*
X63279890Y-85419786D01*
X63430213Y-85570109D01*
X63602179Y-85695048D01*
X63602181Y-85695049D01*
X63602184Y-85695051D01*
X63791588Y-85791557D01*
X63993757Y-85857246D01*
X64203713Y-85890500D01*
X64203714Y-85890500D01*
X64416286Y-85890500D01*
X64416287Y-85890500D01*
X64626243Y-85857246D01*
X64828412Y-85791557D01*
X65017816Y-85695051D01*
X65039789Y-85679086D01*
X65189786Y-85570109D01*
X65189788Y-85570106D01*
X65189792Y-85570104D01*
X65340104Y-85419792D01*
X65340106Y-85419788D01*
X65340109Y-85419786D01*
X65465048Y-85247820D01*
X65465047Y-85247820D01*
X65465051Y-85247816D01*
X65469514Y-85239054D01*
X65517488Y-85188259D01*
X65585308Y-85171463D01*
X65651444Y-85193999D01*
X65690486Y-85239056D01*
X65694951Y-85247820D01*
X65819890Y-85419786D01*
X65970213Y-85570109D01*
X66142179Y-85695048D01*
X66142181Y-85695049D01*
X66142184Y-85695051D01*
X66331588Y-85791557D01*
X66533757Y-85857246D01*
X66743713Y-85890500D01*
X66743714Y-85890500D01*
X66956286Y-85890500D01*
X66956287Y-85890500D01*
X67166243Y-85857246D01*
X67368412Y-85791557D01*
X67557816Y-85695051D01*
X67579789Y-85679086D01*
X67729786Y-85570109D01*
X67729788Y-85570106D01*
X67729792Y-85570104D01*
X67880104Y-85419792D01*
X67880106Y-85419788D01*
X67880109Y-85419786D01*
X68005048Y-85247820D01*
X68005047Y-85247820D01*
X68005051Y-85247816D01*
X68101557Y-85058412D01*
X68167246Y-84856243D01*
X68200500Y-84646287D01*
X68200500Y-84433713D01*
X68167246Y-84223757D01*
X68101557Y-84021588D01*
X68005051Y-83832184D01*
X68005049Y-83832181D01*
X68005048Y-83832179D01*
X67880109Y-83660213D01*
X67729786Y-83509890D01*
X67557820Y-83384951D01*
X67557115Y-83384591D01*
X67549054Y-83380485D01*
X67498259Y-83332512D01*
X67481463Y-83264692D01*
X67503999Y-83198556D01*
X67549054Y-83159515D01*
X67557816Y-83155051D01*
X67620110Y-83109792D01*
X67729786Y-83030109D01*
X67729788Y-83030106D01*
X67729792Y-83030104D01*
X67880104Y-82879792D01*
X67880106Y-82879788D01*
X67880109Y-82879786D01*
X68005048Y-82707820D01*
X68005047Y-82707820D01*
X68005051Y-82707816D01*
X68101557Y-82518412D01*
X68167246Y-82316243D01*
X68200500Y-82106287D01*
X68200500Y-81919808D01*
X68220185Y-81852769D01*
X68272989Y-81807014D01*
X68342147Y-81797070D01*
X68405703Y-81826095D01*
X68412181Y-81832127D01*
X69085324Y-82505271D01*
X69085331Y-82505277D01*
X69191871Y-82576464D01*
X69191870Y-82576464D01*
X69213270Y-82585328D01*
X69310256Y-82625501D01*
X69310260Y-82625501D01*
X69310261Y-82625502D01*
X69435928Y-82650500D01*
X69435931Y-82650500D01*
X74459186Y-82650500D01*
X74526225Y-82670185D01*
X74559504Y-82701615D01*
X74659890Y-82839785D01*
X74659894Y-82839790D01*
X74773818Y-82953714D01*
X74807303Y-83015037D01*
X74802319Y-83084729D01*
X74760447Y-83140662D01*
X74729471Y-83157577D01*
X74597912Y-83206646D01*
X74597906Y-83206649D01*
X74482812Y-83292809D01*
X74482809Y-83292812D01*
X74396649Y-83407906D01*
X74396645Y-83407913D01*
X74346403Y-83542620D01*
X74346401Y-83542627D01*
X74340000Y-83602155D01*
X74340000Y-84250000D01*
X75256988Y-84250000D01*
X75224075Y-84307007D01*
X75190000Y-84434174D01*
X75190000Y-84565826D01*
X75224075Y-84692993D01*
X75256988Y-84750000D01*
X74340000Y-84750000D01*
X74340000Y-85397844D01*
X74346401Y-85457372D01*
X74346403Y-85457379D01*
X74396645Y-85592086D01*
X74396649Y-85592093D01*
X74482809Y-85707187D01*
X74482812Y-85707190D01*
X74597906Y-85793350D01*
X74597913Y-85793354D01*
X74732620Y-85843596D01*
X74732627Y-85843598D01*
X74792155Y-85849999D01*
X74792172Y-85850000D01*
X75440000Y-85850000D01*
X75440000Y-84933012D01*
X75497007Y-84965925D01*
X75624174Y-85000000D01*
X75755826Y-85000000D01*
X75882993Y-84965925D01*
X75940000Y-84933012D01*
X75940000Y-85850000D01*
X76587828Y-85850000D01*
X76587844Y-85849999D01*
X76647372Y-85843598D01*
X76647379Y-85843596D01*
X76782086Y-85793354D01*
X76782093Y-85793350D01*
X76897187Y-85707190D01*
X76897190Y-85707187D01*
X76983350Y-85592093D01*
X76983354Y-85592086D01*
X77032422Y-85460529D01*
X77074293Y-85404595D01*
X77139757Y-85380178D01*
X77208030Y-85395030D01*
X77236285Y-85416181D01*
X77350213Y-85530109D01*
X77522179Y-85655048D01*
X77522181Y-85655049D01*
X77522184Y-85655051D01*
X77711588Y-85751557D01*
X77913757Y-85817246D01*
X78123713Y-85850500D01*
X78123714Y-85850500D01*
X78336286Y-85850500D01*
X78336287Y-85850500D01*
X78546243Y-85817246D01*
X78748412Y-85751557D01*
X78937816Y-85655051D01*
X79024471Y-85592093D01*
X79109786Y-85530109D01*
X79109788Y-85530106D01*
X79109792Y-85530104D01*
X79260104Y-85379792D01*
X79260106Y-85379788D01*
X79260109Y-85379786D01*
X79385048Y-85207820D01*
X79385047Y-85207820D01*
X79385051Y-85207816D01*
X79389514Y-85199054D01*
X79437488Y-85148259D01*
X79505308Y-85131463D01*
X79571444Y-85153999D01*
X79610484Y-85199054D01*
X79614591Y-85207115D01*
X79614951Y-85207820D01*
X79739890Y-85379786D01*
X79890213Y-85530109D01*
X80062179Y-85655048D01*
X80062181Y-85655049D01*
X80062184Y-85655051D01*
X80251588Y-85751557D01*
X80453757Y-85817246D01*
X80663713Y-85850500D01*
X80663714Y-85850500D01*
X80876286Y-85850500D01*
X80876287Y-85850500D01*
X81086243Y-85817246D01*
X81288412Y-85751557D01*
X81477816Y-85655051D01*
X81564471Y-85592093D01*
X81649786Y-85530109D01*
X81649788Y-85530106D01*
X81649792Y-85530104D01*
X81800104Y-85379792D01*
X81800106Y-85379788D01*
X81800109Y-85379786D01*
X81925048Y-85207820D01*
X81925047Y-85207820D01*
X81925051Y-85207816D01*
X81929514Y-85199054D01*
X81977488Y-85148259D01*
X82045308Y-85131463D01*
X82111444Y-85153999D01*
X82150484Y-85199054D01*
X82154591Y-85207115D01*
X82154951Y-85207820D01*
X82279890Y-85379786D01*
X82430213Y-85530109D01*
X82602179Y-85655048D01*
X82602181Y-85655049D01*
X82602184Y-85655051D01*
X82791588Y-85751557D01*
X82993757Y-85817246D01*
X83203713Y-85850500D01*
X83203714Y-85850500D01*
X83416286Y-85850500D01*
X83416287Y-85850500D01*
X83626243Y-85817246D01*
X83828412Y-85751557D01*
X84017816Y-85655051D01*
X84104471Y-85592093D01*
X84189786Y-85530109D01*
X84189788Y-85530106D01*
X84189792Y-85530104D01*
X84340104Y-85379792D01*
X84340106Y-85379788D01*
X84340109Y-85379786D01*
X84465048Y-85207820D01*
X84465047Y-85207820D01*
X84465051Y-85207816D01*
X84561557Y-85018412D01*
X84627246Y-84816243D01*
X84660500Y-84606287D01*
X84660500Y-84393713D01*
X84627246Y-84183757D01*
X84561557Y-83981588D01*
X84465051Y-83792184D01*
X84465049Y-83792181D01*
X84465048Y-83792179D01*
X84340109Y-83620213D01*
X84189786Y-83469890D01*
X84017820Y-83344951D01*
X84017115Y-83344591D01*
X84009054Y-83340485D01*
X83958259Y-83292512D01*
X83941463Y-83224692D01*
X83963999Y-83158556D01*
X84009054Y-83119515D01*
X84017816Y-83115051D01*
X84107020Y-83050241D01*
X84189786Y-82990109D01*
X84189788Y-82990106D01*
X84189792Y-82990104D01*
X84340104Y-82839792D01*
X84340106Y-82839788D01*
X84340109Y-82839786D01*
X84465048Y-82667820D01*
X84465050Y-82667817D01*
X84465051Y-82667816D01*
X84561557Y-82478412D01*
X84627246Y-82276243D01*
X84660500Y-82066287D01*
X84660500Y-81853713D01*
X84627246Y-81643757D01*
X84561557Y-81441588D01*
X84505104Y-81330794D01*
X84492209Y-81262126D01*
X84518485Y-81197385D01*
X84575592Y-81157128D01*
X84615590Y-81150500D01*
X87679192Y-81150500D01*
X87746231Y-81170185D01*
X87766873Y-81186819D01*
X89085324Y-82505271D01*
X89085331Y-82505277D01*
X89191871Y-82576464D01*
X89191870Y-82576464D01*
X89213270Y-82585328D01*
X89310256Y-82625501D01*
X89310260Y-82625501D01*
X89310261Y-82625502D01*
X89435928Y-82650500D01*
X89435931Y-82650500D01*
X90930382Y-82650500D01*
X90997421Y-82670185D01*
X91031099Y-82704591D01*
X91032085Y-82703875D01*
X91159890Y-82879786D01*
X91273818Y-82993714D01*
X91307303Y-83055037D01*
X91302319Y-83124729D01*
X91260447Y-83180662D01*
X91229471Y-83197577D01*
X91097912Y-83246646D01*
X91097906Y-83246649D01*
X90982812Y-83332809D01*
X90982809Y-83332812D01*
X90896649Y-83447906D01*
X90896645Y-83447913D01*
X90846403Y-83582620D01*
X90846401Y-83582627D01*
X90840000Y-83642155D01*
X90840000Y-84290000D01*
X91756988Y-84290000D01*
X91724075Y-84347007D01*
X91690000Y-84474174D01*
X91690000Y-84605826D01*
X91724075Y-84732993D01*
X91756988Y-84790000D01*
X90840000Y-84790000D01*
X90840000Y-85437844D01*
X90846401Y-85497372D01*
X90846403Y-85497379D01*
X90896645Y-85632086D01*
X90896649Y-85632093D01*
X90982809Y-85747187D01*
X90982812Y-85747190D01*
X91097906Y-85833350D01*
X91097913Y-85833354D01*
X91232620Y-85883596D01*
X91232627Y-85883598D01*
X91292155Y-85889999D01*
X91292172Y-85890000D01*
X91940000Y-85890000D01*
X91940000Y-84973012D01*
X91997007Y-85005925D01*
X92124174Y-85040000D01*
X92255826Y-85040000D01*
X92382993Y-85005925D01*
X92440000Y-84973012D01*
X92440000Y-85890000D01*
X93087828Y-85890000D01*
X93087844Y-85889999D01*
X93147372Y-85883598D01*
X93147379Y-85883596D01*
X93282086Y-85833354D01*
X93282093Y-85833350D01*
X93397187Y-85747190D01*
X93397190Y-85747187D01*
X93483350Y-85632093D01*
X93483354Y-85632086D01*
X93532422Y-85500529D01*
X93574293Y-85444595D01*
X93639757Y-85420178D01*
X93708030Y-85435030D01*
X93736285Y-85456181D01*
X93850213Y-85570109D01*
X94022179Y-85695048D01*
X94022181Y-85695049D01*
X94022184Y-85695051D01*
X94211588Y-85791557D01*
X94413757Y-85857246D01*
X94623713Y-85890500D01*
X94623714Y-85890500D01*
X94836286Y-85890500D01*
X94836287Y-85890500D01*
X95046243Y-85857246D01*
X95248412Y-85791557D01*
X95437816Y-85695051D01*
X95459789Y-85679086D01*
X95609786Y-85570109D01*
X95609788Y-85570106D01*
X95609792Y-85570104D01*
X95760104Y-85419792D01*
X95760106Y-85419788D01*
X95760109Y-85419786D01*
X95885048Y-85247820D01*
X95885047Y-85247820D01*
X95885051Y-85247816D01*
X95889514Y-85239054D01*
X95937488Y-85188259D01*
X96005308Y-85171463D01*
X96071444Y-85193999D01*
X96110486Y-85239056D01*
X96114951Y-85247820D01*
X96239890Y-85419786D01*
X96390213Y-85570109D01*
X96562179Y-85695048D01*
X96562181Y-85695049D01*
X96562184Y-85695051D01*
X96751588Y-85791557D01*
X96953757Y-85857246D01*
X97163713Y-85890500D01*
X97163714Y-85890500D01*
X97376286Y-85890500D01*
X97376287Y-85890500D01*
X97586243Y-85857246D01*
X97788412Y-85791557D01*
X97977816Y-85695051D01*
X97999789Y-85679086D01*
X98149786Y-85570109D01*
X98149788Y-85570106D01*
X98149792Y-85570104D01*
X98300104Y-85419792D01*
X98300106Y-85419788D01*
X98300109Y-85419786D01*
X98425048Y-85247820D01*
X98425047Y-85247820D01*
X98425051Y-85247816D01*
X98429514Y-85239054D01*
X98477488Y-85188259D01*
X98545308Y-85171463D01*
X98611444Y-85193999D01*
X98650486Y-85239056D01*
X98654951Y-85247820D01*
X98779890Y-85419786D01*
X98930213Y-85570109D01*
X99102179Y-85695048D01*
X99102181Y-85695049D01*
X99102184Y-85695051D01*
X99291588Y-85791557D01*
X99493757Y-85857246D01*
X99703713Y-85890500D01*
X99703714Y-85890500D01*
X99916286Y-85890500D01*
X99916287Y-85890500D01*
X100126243Y-85857246D01*
X100328412Y-85791557D01*
X100517816Y-85695051D01*
X100539789Y-85679086D01*
X100689786Y-85570109D01*
X100689788Y-85570106D01*
X100689792Y-85570104D01*
X100840104Y-85419792D01*
X100840106Y-85419788D01*
X100840109Y-85419786D01*
X100965048Y-85247820D01*
X100965047Y-85247820D01*
X100965051Y-85247816D01*
X101061557Y-85058412D01*
X101127246Y-84856243D01*
X101160500Y-84646287D01*
X101160500Y-84433713D01*
X101127246Y-84223757D01*
X101061557Y-84021588D01*
X100965051Y-83832184D01*
X100965049Y-83832181D01*
X100965048Y-83832179D01*
X100840109Y-83660213D01*
X100689786Y-83509890D01*
X100517820Y-83384951D01*
X100517115Y-83384591D01*
X100509054Y-83380485D01*
X100458259Y-83332512D01*
X100441463Y-83264692D01*
X100463999Y-83198556D01*
X100509054Y-83159515D01*
X100517816Y-83155051D01*
X100580110Y-83109792D01*
X100689786Y-83030109D01*
X100689788Y-83030106D01*
X100689792Y-83030104D01*
X100840104Y-82879792D01*
X100840106Y-82879788D01*
X100840109Y-82879786D01*
X100965048Y-82707820D01*
X100965047Y-82707820D01*
X100965051Y-82707816D01*
X101061557Y-82518412D01*
X101127246Y-82316243D01*
X101160500Y-82106287D01*
X101160500Y-81893713D01*
X101127246Y-81683757D01*
X101061557Y-81481588D01*
X100965051Y-81292184D01*
X100965049Y-81292181D01*
X100965048Y-81292179D01*
X100840109Y-81120213D01*
X100689786Y-80969890D01*
X100517820Y-80844951D01*
X100328414Y-80748444D01*
X100328413Y-80748443D01*
X100328412Y-80748443D01*
X100126243Y-80682754D01*
X100126241Y-80682753D01*
X100126240Y-80682753D01*
X99964957Y-80657208D01*
X99916287Y-80649500D01*
X99703713Y-80649500D01*
X99655042Y-80657208D01*
X99493760Y-80682753D01*
X99291585Y-80748444D01*
X99102179Y-80844951D01*
X98930213Y-80969890D01*
X98779890Y-81120213D01*
X98654949Y-81292182D01*
X98650484Y-81300946D01*
X98602509Y-81351742D01*
X98534688Y-81368536D01*
X98468553Y-81345998D01*
X98429516Y-81300946D01*
X98425050Y-81292182D01*
X98300109Y-81120213D01*
X98149786Y-80969890D01*
X97977820Y-80844951D01*
X97788414Y-80748444D01*
X97788413Y-80748443D01*
X97788412Y-80748443D01*
X97586243Y-80682754D01*
X97586241Y-80682753D01*
X97586240Y-80682753D01*
X97424957Y-80657208D01*
X97376287Y-80649500D01*
X97163713Y-80649500D01*
X97115042Y-80657208D01*
X96953760Y-80682753D01*
X96751585Y-80748444D01*
X96562179Y-80844951D01*
X96390213Y-80969890D01*
X96239890Y-81120213D01*
X96114949Y-81292182D01*
X96110484Y-81300946D01*
X96062509Y-81351742D01*
X95994688Y-81368536D01*
X95928553Y-81345998D01*
X95889516Y-81300946D01*
X95885050Y-81292182D01*
X95760109Y-81120213D01*
X95609786Y-80969890D01*
X95437820Y-80844951D01*
X95248414Y-80748444D01*
X95248413Y-80748443D01*
X95248412Y-80748443D01*
X95046243Y-80682754D01*
X95046241Y-80682753D01*
X95046240Y-80682753D01*
X94884957Y-80657208D01*
X94836287Y-80649500D01*
X94623713Y-80649500D01*
X94575042Y-80657208D01*
X94413760Y-80682753D01*
X94211585Y-80748444D01*
X94022179Y-80844951D01*
X93850213Y-80969890D01*
X93699890Y-81120213D01*
X93574949Y-81292182D01*
X93570484Y-81300946D01*
X93522509Y-81351742D01*
X93454688Y-81368536D01*
X93388553Y-81345998D01*
X93349516Y-81300946D01*
X93345050Y-81292182D01*
X93220109Y-81120213D01*
X93069786Y-80969890D01*
X92897820Y-80844951D01*
X92708414Y-80748444D01*
X92708413Y-80748443D01*
X92708412Y-80748443D01*
X92506243Y-80682754D01*
X92506241Y-80682753D01*
X92506240Y-80682753D01*
X92344957Y-80657208D01*
X92296287Y-80649500D01*
X92083713Y-80649500D01*
X92035042Y-80657208D01*
X91873760Y-80682753D01*
X91671585Y-80748444D01*
X91482179Y-80844951D01*
X91310213Y-80969890D01*
X91159890Y-81120213D01*
X91032085Y-81296125D01*
X91030740Y-81295148D01*
X90984295Y-81337166D01*
X90930382Y-81349500D01*
X89820808Y-81349500D01*
X89753769Y-81329815D01*
X89733127Y-81313181D01*
X88414674Y-79994727D01*
X88414673Y-79994726D01*
X88414669Y-79994723D01*
X88308127Y-79923535D01*
X88308122Y-79923533D01*
X88189744Y-79874499D01*
X88189738Y-79874497D01*
X88064071Y-79849500D01*
X88064069Y-79849500D01*
X78078269Y-79849500D01*
X78011230Y-79829815D01*
X77965475Y-79777011D01*
X77955531Y-79707853D01*
X77984556Y-79644297D01*
X78005626Y-79625707D01*
X78005581Y-79625653D01*
X78007119Y-79624390D01*
X78009379Y-79622397D01*
X78010289Y-79621789D01*
X78121789Y-79510289D01*
X78209394Y-79379179D01*
X78269737Y-79233497D01*
X78300500Y-79078842D01*
X78300500Y-78921158D01*
X78300500Y-78921155D01*
X78300499Y-78921153D01*
X78269738Y-78766510D01*
X78269737Y-78766503D01*
X78253760Y-78727930D01*
X78209397Y-78620827D01*
X78209390Y-78620814D01*
X78121789Y-78489711D01*
X78121786Y-78489707D01*
X78010292Y-78378213D01*
X78010288Y-78378210D01*
X77879185Y-78290609D01*
X77879172Y-78290602D01*
X77733501Y-78230264D01*
X77733489Y-78230261D01*
X77578845Y-78199500D01*
X77578842Y-78199500D01*
X77421158Y-78199500D01*
X77421155Y-78199500D01*
X77266510Y-78230261D01*
X77266498Y-78230264D01*
X77120827Y-78290602D01*
X77120820Y-78290606D01*
X77091928Y-78309911D01*
X77063955Y-78328602D01*
X76997279Y-78349480D01*
X76995065Y-78349500D01*
X64078269Y-78349500D01*
X64011230Y-78329815D01*
X63965475Y-78277011D01*
X63955531Y-78207853D01*
X63984556Y-78144297D01*
X64005626Y-78125707D01*
X64005581Y-78125653D01*
X64007119Y-78124390D01*
X64009379Y-78122397D01*
X64010289Y-78121789D01*
X64121789Y-78010289D01*
X64209394Y-77879179D01*
X64269737Y-77733497D01*
X64300500Y-77578842D01*
X64300500Y-77421158D01*
X64300500Y-77421155D01*
X64300499Y-77421153D01*
X64286211Y-77349322D01*
X64269737Y-77266503D01*
X64256067Y-77233501D01*
X64209397Y-77120827D01*
X64209390Y-77120814D01*
X64121789Y-76989711D01*
X64121786Y-76989707D01*
X64010292Y-76878213D01*
X64010288Y-76878210D01*
X63879185Y-76790609D01*
X63879172Y-76790602D01*
X63733501Y-76730264D01*
X63733489Y-76730261D01*
X63578845Y-76699500D01*
X63578842Y-76699500D01*
X63421158Y-76699500D01*
X63421155Y-76699500D01*
X63266510Y-76730261D01*
X63266498Y-76730264D01*
X63120827Y-76790602D01*
X63120820Y-76790606D01*
X63091928Y-76809911D01*
X63063955Y-76828602D01*
X62997279Y-76849480D01*
X62995065Y-76849500D01*
X45504935Y-76849500D01*
X45437896Y-76829815D01*
X45436090Y-76828633D01*
X45379179Y-76790606D01*
X45379172Y-76790602D01*
X45233501Y-76730264D01*
X45233489Y-76730261D01*
X45078845Y-76699500D01*
X45078842Y-76699500D01*
X44921158Y-76699500D01*
X44921155Y-76699500D01*
X44766510Y-76730261D01*
X44766498Y-76730264D01*
X44620827Y-76790602D01*
X44620820Y-76790606D01*
X44591928Y-76809911D01*
X44563955Y-76828602D01*
X44497279Y-76849480D01*
X44495065Y-76849500D01*
X42897757Y-76849500D01*
X42830718Y-76829815D01*
X42784963Y-76777011D01*
X42775019Y-76707853D01*
X42776139Y-76701312D01*
X42778092Y-76691488D01*
X42783078Y-76666420D01*
X42815461Y-76604510D01*
X42816955Y-76602989D01*
X43733127Y-75686819D01*
X43794450Y-75653334D01*
X43820808Y-75650500D01*
X69679192Y-75650500D01*
X69746231Y-75670185D01*
X69766873Y-75686819D01*
X71182983Y-77102929D01*
X71216468Y-77164252D01*
X71216919Y-77166418D01*
X71230261Y-77233491D01*
X71230263Y-77233499D01*
X71290602Y-77379172D01*
X71290609Y-77379185D01*
X71378210Y-77510288D01*
X71378213Y-77510292D01*
X71489707Y-77621786D01*
X71489711Y-77621789D01*
X71620814Y-77709390D01*
X71620827Y-77709397D01*
X71758683Y-77766498D01*
X71766503Y-77769737D01*
X71921153Y-77800499D01*
X71921156Y-77800500D01*
X71921158Y-77800500D01*
X72078844Y-77800500D01*
X72078845Y-77800499D01*
X72233497Y-77769737D01*
X72379179Y-77709394D01*
X72510289Y-77621789D01*
X72621789Y-77510289D01*
X72709394Y-77379179D01*
X72769737Y-77233497D01*
X72800500Y-77078842D01*
X72800500Y-76921158D01*
X72800500Y-76921155D01*
X72800499Y-76921153D01*
X72786211Y-76849322D01*
X72769737Y-76766503D01*
X72756066Y-76733497D01*
X72709397Y-76620827D01*
X72709390Y-76620814D01*
X72621789Y-76489711D01*
X72621786Y-76489707D01*
X72510292Y-76378213D01*
X72510288Y-76378210D01*
X72379185Y-76290609D01*
X72379172Y-76290602D01*
X72233499Y-76230263D01*
X72233491Y-76230261D01*
X72166418Y-76216919D01*
X72104507Y-76184534D01*
X72102929Y-76182983D01*
X70414674Y-74494727D01*
X70414673Y-74494726D01*
X70414669Y-74494723D01*
X70308127Y-74423535D01*
X70189744Y-74374499D01*
X70189738Y-74374497D01*
X70064071Y-74349500D01*
X70064069Y-74349500D01*
X65397757Y-74349500D01*
X65330718Y-74329815D01*
X65284963Y-74277011D01*
X65275019Y-74207853D01*
X65276139Y-74201312D01*
X65278092Y-74191488D01*
X65283078Y-74166420D01*
X65315461Y-74104510D01*
X65316954Y-74102990D01*
X65733127Y-73686819D01*
X65794450Y-73653334D01*
X65820808Y-73650500D01*
X103679192Y-73650500D01*
X103746231Y-73670185D01*
X103766873Y-73686819D01*
X105731259Y-75651205D01*
X105764744Y-75712528D01*
X105759760Y-75782220D01*
X105717888Y-75838153D01*
X105652424Y-75862570D01*
X105619386Y-75860503D01*
X105564071Y-75849500D01*
X105564069Y-75849500D01*
X95935931Y-75849500D01*
X95935929Y-75849500D01*
X95810261Y-75874497D01*
X95810255Y-75874499D01*
X95691874Y-75923534D01*
X95585331Y-75994723D01*
X95397068Y-76182985D01*
X95335744Y-76216469D01*
X95333579Y-76216920D01*
X95266508Y-76230261D01*
X95266498Y-76230264D01*
X95120827Y-76290602D01*
X95120814Y-76290609D01*
X94989711Y-76378210D01*
X94989707Y-76378213D01*
X94878213Y-76489707D01*
X94878210Y-76489711D01*
X94790609Y-76620814D01*
X94790602Y-76620827D01*
X94730264Y-76766498D01*
X94730261Y-76766510D01*
X94699500Y-76921153D01*
X94699500Y-76921158D01*
X94699500Y-77078842D01*
X94699500Y-77078844D01*
X94699499Y-77078844D01*
X94723860Y-77201308D01*
X94717633Y-77270900D01*
X94674770Y-77326077D01*
X94608880Y-77349322D01*
X94602243Y-77349500D01*
X82004935Y-77349500D01*
X81937896Y-77329815D01*
X81936090Y-77328633D01*
X81879179Y-77290606D01*
X81879172Y-77290602D01*
X81733501Y-77230264D01*
X81733489Y-77230261D01*
X81578845Y-77199500D01*
X81578842Y-77199500D01*
X81421158Y-77199500D01*
X81421155Y-77199500D01*
X81266510Y-77230261D01*
X81266498Y-77230264D01*
X81120827Y-77290602D01*
X81120814Y-77290609D01*
X80989711Y-77378210D01*
X80989707Y-77378213D01*
X80878213Y-77489707D01*
X80878210Y-77489711D01*
X80790609Y-77620814D01*
X80790602Y-77620827D01*
X80730264Y-77766498D01*
X80730261Y-77766510D01*
X80699500Y-77921153D01*
X80699500Y-78078846D01*
X80730261Y-78233489D01*
X80730264Y-78233501D01*
X80790602Y-78379172D01*
X80790609Y-78379185D01*
X80878210Y-78510288D01*
X80878213Y-78510292D01*
X80989707Y-78621786D01*
X80989711Y-78621789D01*
X81120814Y-78709390D01*
X81120827Y-78709397D01*
X81258683Y-78766498D01*
X81266503Y-78769737D01*
X81421153Y-78800499D01*
X81421156Y-78800500D01*
X81421158Y-78800500D01*
X81578844Y-78800500D01*
X81578845Y-78800499D01*
X81733497Y-78769737D01*
X81879179Y-78709394D01*
X81936044Y-78671397D01*
X82002721Y-78650520D01*
X82004935Y-78650500D01*
X96495065Y-78650500D01*
X96562104Y-78670185D01*
X96563909Y-78671366D01*
X96620821Y-78709394D01*
X96620823Y-78709395D01*
X96620827Y-78709397D01*
X96758683Y-78766498D01*
X96766503Y-78769737D01*
X96921153Y-78800499D01*
X96921156Y-78800500D01*
X96921158Y-78800500D01*
X97078844Y-78800500D01*
X97078845Y-78800499D01*
X97233497Y-78769737D01*
X97379179Y-78709394D01*
X97436044Y-78671397D01*
X97502721Y-78650520D01*
X97504935Y-78650500D01*
X104613122Y-78650500D01*
X104680161Y-78670185D01*
X104725916Y-78722989D01*
X104727784Y-78727930D01*
X104727932Y-78727869D01*
X104790602Y-78879172D01*
X104790609Y-78879185D01*
X104878210Y-79010288D01*
X104878213Y-79010292D01*
X104989707Y-79121786D01*
X104989711Y-79121789D01*
X105120814Y-79209390D01*
X105120827Y-79209397D01*
X105266498Y-79269735D01*
X105266503Y-79269737D01*
X105421153Y-79300499D01*
X105421156Y-79300500D01*
X105421158Y-79300500D01*
X105578844Y-79300500D01*
X105578845Y-79300499D01*
X105733497Y-79269737D01*
X105879179Y-79209394D01*
X106010289Y-79121789D01*
X106121789Y-79010289D01*
X106209394Y-78879179D01*
X106269737Y-78733497D01*
X106279508Y-78684373D01*
X106311892Y-78622464D01*
X106372607Y-78587890D01*
X106442377Y-78591629D01*
X106484696Y-78618295D01*
X106485001Y-78617924D01*
X106487957Y-78620350D01*
X106488806Y-78620885D01*
X106489707Y-78621786D01*
X106489711Y-78621789D01*
X106620814Y-78709390D01*
X106620827Y-78709397D01*
X106758683Y-78766498D01*
X106766503Y-78769737D01*
X106921153Y-78800499D01*
X106921156Y-78800500D01*
X106921158Y-78800500D01*
X107078844Y-78800500D01*
X107078845Y-78800499D01*
X107233497Y-78769737D01*
X107379179Y-78709394D01*
X107510289Y-78621789D01*
X107621789Y-78510289D01*
X107709394Y-78379179D01*
X107769737Y-78233497D01*
X107800500Y-78078842D01*
X107800500Y-78019808D01*
X107820185Y-77952769D01*
X107872989Y-77907014D01*
X107942147Y-77897070D01*
X108005703Y-77926095D01*
X108012181Y-77932127D01*
X108182984Y-78102930D01*
X108216469Y-78164253D01*
X108216920Y-78166420D01*
X108230261Y-78233489D01*
X108230264Y-78233501D01*
X108290602Y-78379172D01*
X108290609Y-78379185D01*
X108378210Y-78510288D01*
X108378213Y-78510292D01*
X108489707Y-78621786D01*
X108489711Y-78621789D01*
X108620814Y-78709390D01*
X108620827Y-78709397D01*
X108758683Y-78766498D01*
X108766503Y-78769737D01*
X108921153Y-78800499D01*
X108921156Y-78800500D01*
X108921158Y-78800500D01*
X109078844Y-78800500D01*
X109078845Y-78800499D01*
X109233497Y-78769737D01*
X109379179Y-78709394D01*
X109510289Y-78621789D01*
X109621789Y-78510289D01*
X109709394Y-78379179D01*
X109769737Y-78233497D01*
X109800500Y-78078842D01*
X109800500Y-77921158D01*
X109800500Y-77921155D01*
X109800499Y-77921153D01*
X109769738Y-77766510D01*
X109769737Y-77766503D01*
X109746080Y-77709390D01*
X109709397Y-77620827D01*
X109709390Y-77620814D01*
X109621789Y-77489711D01*
X109621786Y-77489707D01*
X109510292Y-77378213D01*
X109510288Y-77378210D01*
X109379185Y-77290609D01*
X109379172Y-77290602D01*
X109233501Y-77230264D01*
X109233489Y-77230261D01*
X109166420Y-77216920D01*
X109104509Y-77184535D01*
X109102930Y-77182984D01*
X104414674Y-72494727D01*
X104414673Y-72494726D01*
X104308134Y-72423540D01*
X104308127Y-72423535D01*
X104189744Y-72374499D01*
X104189738Y-72374497D01*
X104064071Y-72349500D01*
X104064069Y-72349500D01*
X65435931Y-72349500D01*
X65435929Y-72349500D01*
X65310261Y-72374497D01*
X65310251Y-72374500D01*
X65261220Y-72394810D01*
X65191881Y-72423530D01*
X65191863Y-72423540D01*
X65085332Y-72494721D01*
X65085325Y-72494727D01*
X64397068Y-73182984D01*
X64335745Y-73216469D01*
X64333579Y-73216920D01*
X64266508Y-73230261D01*
X64266498Y-73230264D01*
X64120827Y-73290602D01*
X64120814Y-73290609D01*
X63989711Y-73378210D01*
X63989707Y-73378213D01*
X63878213Y-73489707D01*
X63878210Y-73489711D01*
X63790609Y-73620814D01*
X63790602Y-73620827D01*
X63730264Y-73766498D01*
X63730261Y-73766510D01*
X63699500Y-73921153D01*
X63699500Y-73921158D01*
X63699500Y-74078842D01*
X63699500Y-74078844D01*
X63699499Y-74078844D01*
X63723860Y-74201308D01*
X63717633Y-74270900D01*
X63674770Y-74326077D01*
X63608880Y-74349322D01*
X63602243Y-74349500D01*
X43435929Y-74349500D01*
X43310261Y-74374497D01*
X43310255Y-74374499D01*
X43191870Y-74423535D01*
X43085331Y-74494722D01*
X43085324Y-74494728D01*
X41897068Y-75682984D01*
X41835745Y-75716469D01*
X41833579Y-75716920D01*
X41766508Y-75730261D01*
X41766498Y-75730264D01*
X41620827Y-75790602D01*
X41620814Y-75790609D01*
X41489711Y-75878210D01*
X41489707Y-75878213D01*
X41378213Y-75989707D01*
X41378210Y-75989711D01*
X41290609Y-76120814D01*
X41290602Y-76120827D01*
X41230264Y-76266498D01*
X41230261Y-76266510D01*
X41199500Y-76421153D01*
X41199500Y-76421158D01*
X41199500Y-76578842D01*
X41199500Y-76578844D01*
X41199499Y-76578844D01*
X41223860Y-76701308D01*
X41217633Y-76770900D01*
X41174770Y-76826077D01*
X41108880Y-76849322D01*
X41102243Y-76849500D01*
X38435929Y-76849500D01*
X38310261Y-76874497D01*
X38310255Y-76874499D01*
X38191870Y-76923535D01*
X38085331Y-76994722D01*
X38085324Y-76994728D01*
X36897068Y-78182984D01*
X36835745Y-78216469D01*
X36833579Y-78216920D01*
X36766508Y-78230261D01*
X36766498Y-78230264D01*
X36620827Y-78290602D01*
X36620814Y-78290609D01*
X36489711Y-78378210D01*
X36489707Y-78378213D01*
X36378213Y-78489707D01*
X36378210Y-78489711D01*
X36290609Y-78620814D01*
X36290602Y-78620827D01*
X36230264Y-78766498D01*
X36230261Y-78766510D01*
X36199500Y-78921153D01*
X36199500Y-79078846D01*
X36230261Y-79233489D01*
X36230264Y-79233501D01*
X36290602Y-79379172D01*
X36290609Y-79379185D01*
X36378210Y-79510288D01*
X36378213Y-79510292D01*
X36489707Y-79621786D01*
X36489711Y-79621789D01*
X36620814Y-79709390D01*
X36620827Y-79709397D01*
X36680568Y-79734142D01*
X36766503Y-79769737D01*
X36879165Y-79792147D01*
X36921153Y-79800499D01*
X36921156Y-79800500D01*
X36921158Y-79800500D01*
X37078844Y-79800500D01*
X37078845Y-79800499D01*
X37233497Y-79769737D01*
X37379179Y-79709394D01*
X37510289Y-79621789D01*
X37621789Y-79510289D01*
X37709394Y-79379179D01*
X37769737Y-79233497D01*
X37783079Y-79166416D01*
X37815463Y-79104509D01*
X37816958Y-79102986D01*
X38733127Y-78186819D01*
X38794450Y-78153334D01*
X38820808Y-78150500D01*
X39727648Y-78150500D01*
X39794687Y-78170185D01*
X39840442Y-78222989D01*
X39850386Y-78292147D01*
X39821361Y-78355703D01*
X39775100Y-78389061D01*
X39691879Y-78423531D01*
X39691866Y-78423538D01*
X39585331Y-78494723D01*
X39585327Y-78494726D01*
X37897069Y-80182984D01*
X37835746Y-80216469D01*
X37833580Y-80216920D01*
X37766508Y-80230261D01*
X37766498Y-80230264D01*
X37620827Y-80290602D01*
X37620814Y-80290609D01*
X37489711Y-80378210D01*
X37489707Y-80378213D01*
X37378213Y-80489707D01*
X37378210Y-80489711D01*
X37290609Y-80620814D01*
X37290602Y-80620827D01*
X37230264Y-80766498D01*
X37230261Y-80766510D01*
X37199500Y-80921153D01*
X37199500Y-81078846D01*
X37230261Y-81233489D01*
X37230264Y-81233501D01*
X37290602Y-81379172D01*
X37290609Y-81379185D01*
X37378210Y-81510288D01*
X37378213Y-81510292D01*
X37489707Y-81621786D01*
X37489711Y-81621789D01*
X37620814Y-81709390D01*
X37620827Y-81709397D01*
X37763152Y-81768349D01*
X37766503Y-81769737D01*
X37921153Y-81800499D01*
X37921156Y-81800500D01*
X37921158Y-81800500D01*
X38078844Y-81800500D01*
X38078845Y-81800499D01*
X38233497Y-81769737D01*
X38379179Y-81709394D01*
X38510289Y-81621789D01*
X38621789Y-81510289D01*
X38709394Y-81379179D01*
X38769737Y-81233497D01*
X38783079Y-81166417D01*
X38815462Y-81104508D01*
X38816956Y-81102987D01*
X40233126Y-79686819D01*
X40294449Y-79653334D01*
X40320807Y-79650500D01*
X43227647Y-79650500D01*
X43294686Y-79670185D01*
X43340441Y-79722989D01*
X43350385Y-79792147D01*
X43321360Y-79855703D01*
X43275101Y-79889060D01*
X43261221Y-79894810D01*
X43261220Y-79894810D01*
X43191881Y-79923530D01*
X43191863Y-79923540D01*
X43085332Y-79994721D01*
X43085325Y-79994727D01*
X42144729Y-80935324D01*
X42144724Y-80935329D01*
X42125802Y-80963647D01*
X42078998Y-81005237D01*
X41942182Y-81074949D01*
X41770213Y-81199890D01*
X41619890Y-81350213D01*
X41492085Y-81526125D01*
X41490740Y-81525148D01*
X41444295Y-81567166D01*
X41390382Y-81579500D01*
X40705929Y-81579500D01*
X40580261Y-81604497D01*
X40580255Y-81604499D01*
X40461870Y-81653535D01*
X40355331Y-81724722D01*
X40355324Y-81724728D01*
X39494724Y-82585328D01*
X39439608Y-82667817D01*
X39423535Y-82691871D01*
X39374499Y-82810255D01*
X39374497Y-82810261D01*
X39349500Y-82935928D01*
X39349500Y-82935931D01*
X39349500Y-85564069D01*
X39349500Y-85564071D01*
X39349499Y-85564071D01*
X39374497Y-85689738D01*
X39374499Y-85689744D01*
X39416670Y-85791555D01*
X39423535Y-85808127D01*
X39478240Y-85890000D01*
X39494726Y-85914673D01*
X39494727Y-85914674D01*
X44313181Y-90733127D01*
X44346666Y-90794450D01*
X44349500Y-90820808D01*
X44349500Y-98525500D01*
X44329815Y-98592539D01*
X44277011Y-98638294D01*
X44225501Y-98649500D01*
X44102130Y-98649500D01*
X44102123Y-98649501D01*
X44042516Y-98655908D01*
X43907671Y-98706202D01*
X43907664Y-98706206D01*
X43792455Y-98792452D01*
X43792452Y-98792455D01*
X43706206Y-98907664D01*
X43706202Y-98907671D01*
X43655908Y-99042517D01*
X43649501Y-99102116D01*
X43649500Y-99102135D01*
X43649500Y-100897870D01*
X43649501Y-100897876D01*
X43655908Y-100957483D01*
X43706202Y-101092328D01*
X43706206Y-101092335D01*
X43792452Y-101207544D01*
X43792455Y-101207547D01*
X43907664Y-101293793D01*
X43907671Y-101293797D01*
X44042517Y-101344091D01*
X44042516Y-101344091D01*
X44049444Y-101344835D01*
X44102127Y-101350500D01*
X45897872Y-101350499D01*
X45957483Y-101344091D01*
X46092331Y-101293796D01*
X46207546Y-101207546D01*
X46293796Y-101092331D01*
X46344091Y-100957483D01*
X46350500Y-100897873D01*
X46350499Y-100614431D01*
X46370183Y-100547393D01*
X46391353Y-100522439D01*
X46398071Y-100516366D01*
X46414669Y-100505277D01*
X46455343Y-100464602D01*
X46457662Y-100462507D01*
X46486431Y-100448633D01*
X46514450Y-100433334D01*
X46519221Y-100432821D01*
X46520596Y-100432158D01*
X46522835Y-100432432D01*
X46540808Y-100430500D01*
X59125501Y-100430500D01*
X59192540Y-100450185D01*
X59238295Y-100502989D01*
X59249501Y-100554500D01*
X59249501Y-100677876D01*
X59255908Y-100737483D01*
X59306202Y-100872328D01*
X59306206Y-100872335D01*
X59392452Y-100987544D01*
X59392455Y-100987547D01*
X59507664Y-101073793D01*
X59507671Y-101073797D01*
X59639082Y-101122810D01*
X59695016Y-101164681D01*
X59719433Y-101230145D01*
X59704582Y-101298418D01*
X59683431Y-101326673D01*
X59569889Y-101440215D01*
X59444951Y-101612179D01*
X59348444Y-101801585D01*
X59282753Y-102003760D01*
X59249500Y-102213713D01*
X59249500Y-102426287D01*
X59282754Y-102636243D01*
X59344175Y-102825278D01*
X59348444Y-102838414D01*
X59444951Y-103027820D01*
X59569890Y-103199786D01*
X59720213Y-103350109D01*
X59892182Y-103475050D01*
X59900946Y-103479516D01*
X59951742Y-103527491D01*
X59968536Y-103595312D01*
X59945998Y-103661447D01*
X59900946Y-103700484D01*
X59892182Y-103704949D01*
X59720213Y-103829890D01*
X59569890Y-103980213D01*
X59444951Y-104152179D01*
X59348444Y-104341585D01*
X59282753Y-104543760D01*
X59249500Y-104753713D01*
X59249500Y-104966287D01*
X59282754Y-105176243D01*
X59344175Y-105365277D01*
X59348444Y-105378414D01*
X59444951Y-105567820D01*
X59569890Y-105739786D01*
X59720213Y-105890109D01*
X59892182Y-106015050D01*
X59900946Y-106019516D01*
X59951742Y-106067491D01*
X59968536Y-106135312D01*
X59945998Y-106201447D01*
X59900946Y-106240484D01*
X59892182Y-106244949D01*
X59720213Y-106369890D01*
X59569890Y-106520213D01*
X59444951Y-106692179D01*
X59348444Y-106881585D01*
X59282753Y-107083760D01*
X59249500Y-107293713D01*
X59249500Y-107506286D01*
X59282753Y-107716239D01*
X59348444Y-107918414D01*
X59444951Y-108107820D01*
X59569890Y-108279786D01*
X59720213Y-108430109D01*
X59892182Y-108555050D01*
X59900946Y-108559516D01*
X59951742Y-108607491D01*
X59968536Y-108675312D01*
X59945998Y-108741447D01*
X59900946Y-108780484D01*
X59892182Y-108784949D01*
X59720213Y-108909890D01*
X59569890Y-109060213D01*
X59444951Y-109232179D01*
X59348444Y-109421585D01*
X59282753Y-109623760D01*
X59249500Y-109833713D01*
X59249500Y-110046286D01*
X59282753Y-110256239D01*
X59348444Y-110458414D01*
X59444951Y-110647820D01*
X59569890Y-110819786D01*
X59720213Y-110970109D01*
X59892182Y-111095050D01*
X59900946Y-111099516D01*
X59951742Y-111147491D01*
X59968536Y-111215312D01*
X59945998Y-111281447D01*
X59900946Y-111320484D01*
X59892182Y-111324949D01*
X59720213Y-111449890D01*
X59569896Y-111600207D01*
X59478867Y-111725500D01*
X59449072Y-111766510D01*
X59444947Y-111772187D01*
X59440054Y-111781792D01*
X59392081Y-111832589D01*
X59329568Y-111849500D01*
X47474499Y-111849500D01*
X47407460Y-111829815D01*
X47361705Y-111777011D01*
X47350499Y-111725500D01*
X47350499Y-111602129D01*
X47350498Y-111602123D01*
X47350497Y-111602116D01*
X47344091Y-111542517D01*
X47309543Y-111449890D01*
X47293797Y-111407671D01*
X47293793Y-111407664D01*
X47207547Y-111292455D01*
X47207544Y-111292452D01*
X47092335Y-111206206D01*
X47092328Y-111206202D01*
X46957482Y-111155908D01*
X46957483Y-111155908D01*
X46897883Y-111149501D01*
X46897881Y-111149500D01*
X46897873Y-111149500D01*
X46897864Y-111149500D01*
X45102129Y-111149500D01*
X45102123Y-111149501D01*
X45042516Y-111155908D01*
X44907671Y-111206202D01*
X44907664Y-111206206D01*
X44792455Y-111292452D01*
X44792452Y-111292455D01*
X44706206Y-111407664D01*
X44706202Y-111407671D01*
X44655908Y-111542517D01*
X44649706Y-111600207D01*
X44649501Y-111602123D01*
X44649500Y-111602135D01*
X44649500Y-113397870D01*
X44649501Y-113397876D01*
X44655908Y-113457483D01*
X44706202Y-113592328D01*
X44706206Y-113592335D01*
X44792452Y-113707544D01*
X44792455Y-113707547D01*
X44907664Y-113793793D01*
X44907671Y-113793797D01*
X45042517Y-113844091D01*
X45042516Y-113844091D01*
X45049444Y-113844835D01*
X45102127Y-113850500D01*
X46897872Y-113850499D01*
X46957483Y-113844091D01*
X47092331Y-113793796D01*
X47207546Y-113707546D01*
X47293796Y-113592331D01*
X47344091Y-113457483D01*
X47350500Y-113397873D01*
X47350500Y-113274500D01*
X47370185Y-113207461D01*
X47422989Y-113161706D01*
X47474500Y-113150500D01*
X59354656Y-113150500D01*
X59421695Y-113170185D01*
X59454973Y-113201613D01*
X59459222Y-113207461D01*
X59569896Y-113359792D01*
X59720213Y-113510109D01*
X59892182Y-113635050D01*
X59900946Y-113639516D01*
X59951742Y-113687491D01*
X59968536Y-113755312D01*
X59945998Y-113821447D01*
X59900946Y-113860484D01*
X59892182Y-113864949D01*
X59720213Y-113989890D01*
X59569890Y-114140213D01*
X59442085Y-114316125D01*
X59440740Y-114315148D01*
X59394295Y-114357166D01*
X59340382Y-114369500D01*
X58415929Y-114369500D01*
X58290261Y-114394497D01*
X58290255Y-114394499D01*
X58171875Y-114443533D01*
X58171866Y-114443538D01*
X58065331Y-114514723D01*
X58065327Y-114514726D01*
X54766873Y-117813181D01*
X54705550Y-117846666D01*
X54679192Y-117849500D01*
X47474499Y-117849500D01*
X47407460Y-117829815D01*
X47361705Y-117777011D01*
X47350499Y-117725500D01*
X47350499Y-117602129D01*
X47350498Y-117602123D01*
X47350497Y-117602116D01*
X47344091Y-117542517D01*
X47310969Y-117453713D01*
X47293797Y-117407671D01*
X47293793Y-117407664D01*
X47207547Y-117292455D01*
X47207544Y-117292452D01*
X47092335Y-117206206D01*
X47092328Y-117206202D01*
X46957482Y-117155908D01*
X46957483Y-117155908D01*
X46897883Y-117149501D01*
X46897881Y-117149500D01*
X46897873Y-117149500D01*
X46897864Y-117149500D01*
X45102129Y-117149500D01*
X45102123Y-117149501D01*
X45042516Y-117155908D01*
X44907671Y-117206202D01*
X44907664Y-117206206D01*
X44792455Y-117292452D01*
X44792452Y-117292455D01*
X44706206Y-117407664D01*
X44706202Y-117407671D01*
X44655908Y-117542517D01*
X44649501Y-117602116D01*
X44649501Y-117602123D01*
X44649500Y-117602135D01*
X44649500Y-119397870D01*
X44649501Y-119397876D01*
X44655908Y-119457483D01*
X44706202Y-119592328D01*
X44706206Y-119592335D01*
X44792452Y-119707544D01*
X44792455Y-119707547D01*
X44907664Y-119793793D01*
X44907671Y-119793797D01*
X45042517Y-119844091D01*
X45042516Y-119844091D01*
X45049444Y-119844835D01*
X45102127Y-119850500D01*
X46897872Y-119850499D01*
X46957483Y-119844091D01*
X47092331Y-119793796D01*
X47207546Y-119707546D01*
X47293796Y-119592331D01*
X47344091Y-119457483D01*
X47350500Y-119397873D01*
X47350500Y-119274500D01*
X47370185Y-119207461D01*
X47422989Y-119161706D01*
X47474500Y-119150500D01*
X55064071Y-119150500D01*
X55148615Y-119133682D01*
X55189744Y-119125501D01*
X55308127Y-119076465D01*
X55317958Y-119069896D01*
X55414669Y-119005277D01*
X58713126Y-115706818D01*
X58774449Y-115673334D01*
X58800807Y-115670500D01*
X59340382Y-115670500D01*
X59407421Y-115690185D01*
X59441099Y-115724591D01*
X59442085Y-115723875D01*
X59569890Y-115899786D01*
X59720213Y-116050109D01*
X59892182Y-116175050D01*
X59900946Y-116179516D01*
X59951742Y-116227491D01*
X59968536Y-116295312D01*
X59945998Y-116361447D01*
X59900946Y-116400484D01*
X59892182Y-116404949D01*
X59720213Y-116529890D01*
X59569890Y-116680213D01*
X59444951Y-116852179D01*
X59348444Y-117041585D01*
X59282753Y-117243760D01*
X59256793Y-117407664D01*
X59249500Y-117453713D01*
X59249500Y-117666287D01*
X59282754Y-117876243D01*
X59344175Y-118065277D01*
X59348444Y-118078414D01*
X59444951Y-118267820D01*
X59569890Y-118439786D01*
X59720213Y-118590109D01*
X59892182Y-118715050D01*
X59900946Y-118719516D01*
X59951742Y-118767491D01*
X59968536Y-118835312D01*
X59945998Y-118901447D01*
X59900946Y-118940484D01*
X59892182Y-118944949D01*
X59720213Y-119069890D01*
X59720211Y-119069893D01*
X59569894Y-119220209D01*
X59569890Y-119220213D01*
X59444951Y-119392179D01*
X59348444Y-119581585D01*
X59282753Y-119783760D01*
X59250134Y-119989707D01*
X59249500Y-119993713D01*
X59249500Y-120206287D01*
X59282754Y-120416243D01*
X59348442Y-120618410D01*
X59348444Y-120618414D01*
X59444951Y-120807820D01*
X59569890Y-120979786D01*
X59720213Y-121130109D01*
X59892182Y-121255050D01*
X59900946Y-121259516D01*
X59951742Y-121307491D01*
X59968536Y-121375312D01*
X59945998Y-121441447D01*
X59900946Y-121480484D01*
X59892182Y-121484949D01*
X59720213Y-121609890D01*
X59569890Y-121760213D01*
X59442085Y-121936125D01*
X59440740Y-121935148D01*
X59394295Y-121977166D01*
X59340382Y-121989500D01*
X40960808Y-121989500D01*
X40893769Y-121969815D01*
X40873127Y-121953181D01*
X39317015Y-120397069D01*
X39283530Y-120335746D01*
X39283093Y-120333652D01*
X39269737Y-120266503D01*
X39244795Y-120206287D01*
X39209397Y-120120827D01*
X39209390Y-120120814D01*
X39121789Y-119989711D01*
X39121786Y-119989707D01*
X39010292Y-119878213D01*
X39010288Y-119878210D01*
X38879185Y-119790609D01*
X38879172Y-119790602D01*
X38733501Y-119730264D01*
X38733489Y-119730261D01*
X38578845Y-119699500D01*
X38578842Y-119699500D01*
X38421158Y-119699500D01*
X38421155Y-119699500D01*
X38266510Y-119730261D01*
X38266498Y-119730264D01*
X38120827Y-119790602D01*
X38120814Y-119790609D01*
X37989711Y-119878210D01*
X37989707Y-119878213D01*
X37878213Y-119989707D01*
X37878210Y-119989711D01*
X37790609Y-120120814D01*
X37790602Y-120120827D01*
X37730264Y-120266498D01*
X37730261Y-120266510D01*
X37699500Y-120421153D01*
X37699500Y-120578846D01*
X37730261Y-120733489D01*
X37730264Y-120733501D01*
X37790602Y-120879172D01*
X37790609Y-120879185D01*
X37878210Y-121010288D01*
X37878213Y-121010292D01*
X37989707Y-121121786D01*
X37989711Y-121121789D01*
X38120814Y-121209390D01*
X38120827Y-121209397D01*
X38208230Y-121245599D01*
X38266503Y-121269737D01*
X38333580Y-121283079D01*
X38395488Y-121315461D01*
X38397068Y-121317014D01*
X40225325Y-123145272D01*
X40225326Y-123145273D01*
X40225329Y-123145275D01*
X40225331Y-123145277D01*
X40331873Y-123216465D01*
X40450256Y-123265501D01*
X40450260Y-123265501D01*
X40450261Y-123265502D01*
X40575928Y-123290500D01*
X40575931Y-123290500D01*
X59340382Y-123290500D01*
X59407421Y-123310185D01*
X59441099Y-123344591D01*
X59442085Y-123343875D01*
X59569890Y-123519786D01*
X59720213Y-123670109D01*
X59892182Y-123795050D01*
X59900946Y-123799516D01*
X59951742Y-123847491D01*
X59968536Y-123915312D01*
X59945998Y-123981447D01*
X59900946Y-124020484D01*
X59892182Y-124024949D01*
X59720213Y-124149890D01*
X59569890Y-124300213D01*
X59444951Y-124472179D01*
X59348444Y-124661585D01*
X59282753Y-124863760D01*
X59259545Y-125010289D01*
X59249500Y-125073713D01*
X59249500Y-125286287D01*
X59282754Y-125496243D01*
X59344175Y-125685277D01*
X59348444Y-125698414D01*
X59444951Y-125887820D01*
X59569890Y-126059786D01*
X59720213Y-126210109D01*
X59892182Y-126335050D01*
X59900946Y-126339516D01*
X59951742Y-126387491D01*
X59968536Y-126455312D01*
X59945998Y-126521447D01*
X59900946Y-126560484D01*
X59892182Y-126564949D01*
X59720213Y-126689890D01*
X59569890Y-126840213D01*
X59442085Y-127016125D01*
X59440740Y-127015148D01*
X59394295Y-127057166D01*
X59340382Y-127069500D01*
X52040808Y-127069500D01*
X51973769Y-127049815D01*
X51953127Y-127033181D01*
X51817015Y-126897069D01*
X51783530Y-126835746D01*
X51783093Y-126833652D01*
X51769737Y-126766503D01*
X51738003Y-126689890D01*
X51709397Y-126620827D01*
X51709390Y-126620814D01*
X51621789Y-126489711D01*
X51621786Y-126489707D01*
X51510292Y-126378213D01*
X51510288Y-126378210D01*
X51379185Y-126290609D01*
X51379172Y-126290602D01*
X51233501Y-126230264D01*
X51233489Y-126230261D01*
X51078845Y-126199500D01*
X51078842Y-126199500D01*
X50921158Y-126199500D01*
X50921155Y-126199500D01*
X50766510Y-126230261D01*
X50766498Y-126230264D01*
X50620827Y-126290602D01*
X50620814Y-126290609D01*
X50489711Y-126378210D01*
X50489707Y-126378213D01*
X50378213Y-126489707D01*
X50378210Y-126489711D01*
X50290609Y-126620814D01*
X50290602Y-126620827D01*
X50230264Y-126766498D01*
X50230261Y-126766510D01*
X50199500Y-126921153D01*
X50199500Y-127078846D01*
X50230261Y-127233489D01*
X50230264Y-127233501D01*
X50290602Y-127379172D01*
X50290609Y-127379185D01*
X50378210Y-127510288D01*
X50378213Y-127510292D01*
X50489707Y-127621786D01*
X50489711Y-127621789D01*
X50620814Y-127709390D01*
X50620827Y-127709397D01*
X50708230Y-127745599D01*
X50766503Y-127769737D01*
X50833580Y-127783079D01*
X50895488Y-127815461D01*
X50897068Y-127817014D01*
X51305325Y-128225272D01*
X51305326Y-128225273D01*
X51305329Y-128225275D01*
X51305331Y-128225277D01*
X51411873Y-128296465D01*
X51530256Y-128345501D01*
X51530260Y-128345501D01*
X51530261Y-128345502D01*
X51655928Y-128370500D01*
X51655931Y-128370500D01*
X59340382Y-128370500D01*
X59407421Y-128390185D01*
X59441099Y-128424591D01*
X59442085Y-128423875D01*
X59569890Y-128599786D01*
X59720213Y-128750109D01*
X59892182Y-128875050D01*
X59900946Y-128879516D01*
X59951742Y-128927491D01*
X59968536Y-128995312D01*
X59945998Y-129061447D01*
X59900946Y-129100484D01*
X59892182Y-129104949D01*
X59720213Y-129229890D01*
X59569890Y-129380213D01*
X59442085Y-129556125D01*
X59440740Y-129555148D01*
X59394295Y-129597166D01*
X59340382Y-129609500D01*
X37580808Y-129609500D01*
X37513769Y-129589815D01*
X37493127Y-129573181D01*
X37317015Y-129397069D01*
X37283530Y-129335746D01*
X37283093Y-129333652D01*
X37269737Y-129266503D01*
X37245599Y-129208230D01*
X37209397Y-129120827D01*
X37209390Y-129120814D01*
X37121789Y-128989711D01*
X37121786Y-128989707D01*
X37010292Y-128878213D01*
X37010288Y-128878210D01*
X36879185Y-128790609D01*
X36879172Y-128790602D01*
X36733501Y-128730264D01*
X36733489Y-128730261D01*
X36578845Y-128699500D01*
X36578842Y-128699500D01*
X36421158Y-128699500D01*
X36421155Y-128699500D01*
X36266510Y-128730261D01*
X36266498Y-128730264D01*
X36120827Y-128790602D01*
X36120814Y-128790609D01*
X35989711Y-128878210D01*
X35989707Y-128878213D01*
X35878213Y-128989707D01*
X35878210Y-128989711D01*
X35790609Y-129120814D01*
X35790602Y-129120827D01*
X35730264Y-129266498D01*
X35730261Y-129266510D01*
X35699500Y-129421153D01*
X25500500Y-129421153D01*
X25500500Y-61365186D01*
X29099500Y-61365186D01*
X29099500Y-61634813D01*
X29129686Y-61902719D01*
X29129688Y-61902731D01*
X29189684Y-62165594D01*
X29189687Y-62165602D01*
X29278734Y-62420082D01*
X29395714Y-62662994D01*
X29395716Y-62662997D01*
X29539162Y-62891289D01*
X29707266Y-63102085D01*
X29897915Y-63292734D01*
X30108711Y-63460838D01*
X30337003Y-63604284D01*
X30579921Y-63721267D01*
X30771049Y-63788145D01*
X30834397Y-63810312D01*
X30834405Y-63810315D01*
X30834408Y-63810315D01*
X30834409Y-63810316D01*
X31097268Y-63870312D01*
X31365187Y-63900499D01*
X31365188Y-63900500D01*
X31365191Y-63900500D01*
X31634812Y-63900500D01*
X31634812Y-63900499D01*
X31902732Y-63870312D01*
X32165591Y-63810316D01*
X32420079Y-63721267D01*
X32662997Y-63604284D01*
X32891289Y-63460838D01*
X33102085Y-63292734D01*
X33292734Y-63102085D01*
X33460838Y-62891289D01*
X33604284Y-62662997D01*
X33721267Y-62420079D01*
X33810316Y-62165591D01*
X33870312Y-61902732D01*
X33900500Y-61634809D01*
X33900500Y-61365191D01*
X33900499Y-61365186D01*
X108099500Y-61365186D01*
X108099500Y-61634813D01*
X108129686Y-61902719D01*
X108129688Y-61902731D01*
X108189684Y-62165594D01*
X108189687Y-62165602D01*
X108278734Y-62420082D01*
X108395714Y-62662994D01*
X108395716Y-62662997D01*
X108539162Y-62891289D01*
X108707266Y-63102085D01*
X108897915Y-63292734D01*
X109108711Y-63460838D01*
X109337003Y-63604284D01*
X109579921Y-63721267D01*
X109771049Y-63788145D01*
X109834397Y-63810312D01*
X109834405Y-63810315D01*
X109834408Y-63810315D01*
X109834409Y-63810316D01*
X110097268Y-63870312D01*
X110365187Y-63900499D01*
X110365188Y-63900500D01*
X110365191Y-63900500D01*
X110634812Y-63900500D01*
X110634812Y-63900499D01*
X110902732Y-63870312D01*
X111165591Y-63810316D01*
X111420079Y-63721267D01*
X111662997Y-63604284D01*
X111891289Y-63460838D01*
X112102085Y-63292734D01*
X112292734Y-63102085D01*
X112460838Y-62891289D01*
X112604284Y-62662997D01*
X112721267Y-62420079D01*
X112810316Y-62165591D01*
X112870312Y-61902732D01*
X112900500Y-61634809D01*
X112900500Y-61365191D01*
X112870312Y-61097268D01*
X112810316Y-60834409D01*
X112721267Y-60579921D01*
X112604284Y-60337003D01*
X112460838Y-60108711D01*
X112292734Y-59897915D01*
X112102085Y-59707266D01*
X111891289Y-59539162D01*
X111662997Y-59395716D01*
X111662994Y-59395714D01*
X111420082Y-59278734D01*
X111165602Y-59189687D01*
X111165594Y-59189684D01*
X110968446Y-59144687D01*
X110902732Y-59129688D01*
X110902728Y-59129687D01*
X110902719Y-59129686D01*
X110634813Y-59099500D01*
X110634809Y-59099500D01*
X110365191Y-59099500D01*
X110365186Y-59099500D01*
X110097280Y-59129686D01*
X110097268Y-59129688D01*
X109834405Y-59189684D01*
X109834397Y-59189687D01*
X109579917Y-59278734D01*
X109337005Y-59395714D01*
X109108712Y-59539161D01*
X108897915Y-59707265D01*
X108707265Y-59897915D01*
X108539161Y-60108712D01*
X108395714Y-60337005D01*
X108278734Y-60579917D01*
X108189687Y-60834397D01*
X108189684Y-60834405D01*
X108129688Y-61097268D01*
X108129686Y-61097280D01*
X108099500Y-61365186D01*
X33900499Y-61365186D01*
X33870312Y-61097268D01*
X33810316Y-60834409D01*
X33721267Y-60579921D01*
X33604284Y-60337003D01*
X33460838Y-60108711D01*
X33292734Y-59897915D01*
X33102085Y-59707266D01*
X32891289Y-59539162D01*
X32662997Y-59395716D01*
X32662994Y-59395714D01*
X32420082Y-59278734D01*
X32165602Y-59189687D01*
X32165594Y-59189684D01*
X31968446Y-59144687D01*
X31902732Y-59129688D01*
X31902728Y-59129687D01*
X31902719Y-59129686D01*
X31634813Y-59099500D01*
X31634809Y-59099500D01*
X31365191Y-59099500D01*
X31365186Y-59099500D01*
X31097280Y-59129686D01*
X31097268Y-59129688D01*
X30834405Y-59189684D01*
X30834397Y-59189687D01*
X30579917Y-59278734D01*
X30337005Y-59395714D01*
X30108712Y-59539161D01*
X29897915Y-59707265D01*
X29707265Y-59897915D01*
X29539161Y-60108712D01*
X29395714Y-60337005D01*
X29278734Y-60579917D01*
X29189687Y-60834397D01*
X29189684Y-60834405D01*
X29129688Y-61097268D01*
X29129686Y-61097280D01*
X29099500Y-61365186D01*
X25500500Y-61365186D01*
X25500500Y-55624500D01*
X25520185Y-55557461D01*
X25572989Y-55511706D01*
X25624500Y-55500500D01*
X116375500Y-55500500D01*
X116442539Y-55520185D01*
G37*
%TD.AperFunction*%
%TD*%
M02*
