%TF.GenerationSoftware,KiCad,Pcbnew,10.0.0*%
%TF.CreationDate,2026-04-21T21:47:32+03:00*%
%TF.ProjectId,try1,74727931-2e6b-4696-9361-645f70636258,rev?*%
%TF.SameCoordinates,Original*%
%TF.FileFunction,Legend,Top*%
%TF.FilePolarity,Positive*%
%FSLAX46Y46*%
G04 Gerber Fmt 4.6, Leading zero omitted, Abs format (unit mm)*
G04 Created by KiCad (PCBNEW 10.0.0) date 2026-04-21 21:47:32*
%MOMM*%
%LPD*%
G01*
G04 APERTURE LIST*
%ADD10C,0.100000*%
%ADD11C,0.200000*%
%ADD12C,0.150000*%
%ADD13C,0.120000*%
G04 APERTURE END LIST*
D10*
X41732455Y-86905752D02*
X41732455Y-87715276D01*
X41732455Y-87715276D02*
X41684836Y-87810514D01*
X41684836Y-87810514D02*
X41637217Y-87858133D01*
X41637217Y-87858133D02*
X41541979Y-87905752D01*
X41541979Y-87905752D02*
X41399122Y-87905752D01*
X41399122Y-87905752D02*
X41303884Y-87858133D01*
X41732455Y-87524800D02*
X41637217Y-87572419D01*
X41637217Y-87572419D02*
X41446741Y-87572419D01*
X41446741Y-87572419D02*
X41351503Y-87524800D01*
X41351503Y-87524800D02*
X41303884Y-87477180D01*
X41303884Y-87477180D02*
X41256265Y-87381942D01*
X41256265Y-87381942D02*
X41256265Y-87096228D01*
X41256265Y-87096228D02*
X41303884Y-87000990D01*
X41303884Y-87000990D02*
X41351503Y-86953371D01*
X41351503Y-86953371D02*
X41446741Y-86905752D01*
X41446741Y-86905752D02*
X41637217Y-86905752D01*
X41637217Y-86905752D02*
X41732455Y-86953371D01*
X42208646Y-86905752D02*
X42208646Y-87572419D01*
X42208646Y-87000990D02*
X42256265Y-86953371D01*
X42256265Y-86953371D02*
X42351503Y-86905752D01*
X42351503Y-86905752D02*
X42494360Y-86905752D01*
X42494360Y-86905752D02*
X42589598Y-86953371D01*
X42589598Y-86953371D02*
X42637217Y-87048609D01*
X42637217Y-87048609D02*
X42637217Y-87572419D01*
X43541979Y-87572419D02*
X43541979Y-86572419D01*
X43541979Y-87524800D02*
X43446741Y-87572419D01*
X43446741Y-87572419D02*
X43256265Y-87572419D01*
X43256265Y-87572419D02*
X43161027Y-87524800D01*
X43161027Y-87524800D02*
X43113408Y-87477180D01*
X43113408Y-87477180D02*
X43065789Y-87381942D01*
X43065789Y-87381942D02*
X43065789Y-87096228D01*
X43065789Y-87096228D02*
X43113408Y-87000990D01*
X43113408Y-87000990D02*
X43161027Y-86953371D01*
X43161027Y-86953371D02*
X43256265Y-86905752D01*
X43256265Y-86905752D02*
X43446741Y-86905752D01*
X43446741Y-86905752D02*
X43541979Y-86953371D01*
D11*
X45845863Y-59051028D02*
X46274435Y-59193885D01*
X46274435Y-59193885D02*
X46417292Y-59336742D01*
X46417292Y-59336742D02*
X46560149Y-59622457D01*
X46560149Y-59622457D02*
X46560149Y-60051028D01*
X46560149Y-60051028D02*
X46417292Y-60336742D01*
X46417292Y-60336742D02*
X46274435Y-60479600D01*
X46274435Y-60479600D02*
X45988720Y-60622457D01*
X45988720Y-60622457D02*
X44845863Y-60622457D01*
X44845863Y-60622457D02*
X44845863Y-57622457D01*
X44845863Y-57622457D02*
X45845863Y-57622457D01*
X45845863Y-57622457D02*
X46131578Y-57765314D01*
X46131578Y-57765314D02*
X46274435Y-57908171D01*
X46274435Y-57908171D02*
X46417292Y-58193885D01*
X46417292Y-58193885D02*
X46417292Y-58479600D01*
X46417292Y-58479600D02*
X46274435Y-58765314D01*
X46274435Y-58765314D02*
X46131578Y-58908171D01*
X46131578Y-58908171D02*
X45845863Y-59051028D01*
X45845863Y-59051028D02*
X44845863Y-59051028D01*
X49274435Y-60622457D02*
X47845863Y-60622457D01*
X47845863Y-60622457D02*
X47845863Y-57622457D01*
X50274434Y-57622457D02*
X50274434Y-60051028D01*
X50274434Y-60051028D02*
X50417291Y-60336742D01*
X50417291Y-60336742D02*
X50560149Y-60479600D01*
X50560149Y-60479600D02*
X50845863Y-60622457D01*
X50845863Y-60622457D02*
X51417291Y-60622457D01*
X51417291Y-60622457D02*
X51703006Y-60479600D01*
X51703006Y-60479600D02*
X51845863Y-60336742D01*
X51845863Y-60336742D02*
X51988720Y-60051028D01*
X51988720Y-60051028D02*
X51988720Y-57622457D01*
X53417291Y-59051028D02*
X54417291Y-59051028D01*
X54845863Y-60622457D02*
X53417291Y-60622457D01*
X53417291Y-60622457D02*
X53417291Y-57622457D01*
X53417291Y-57622457D02*
X54845863Y-57622457D01*
X55703006Y-57622457D02*
X57417292Y-57622457D01*
X56560149Y-60622457D02*
X56560149Y-57622457D01*
X58988720Y-57622457D02*
X59560148Y-57622457D01*
X59560148Y-57622457D02*
X59845863Y-57765314D01*
X59845863Y-57765314D02*
X60131577Y-58051028D01*
X60131577Y-58051028D02*
X60274434Y-58622457D01*
X60274434Y-58622457D02*
X60274434Y-59622457D01*
X60274434Y-59622457D02*
X60131577Y-60193885D01*
X60131577Y-60193885D02*
X59845863Y-60479600D01*
X59845863Y-60479600D02*
X59560148Y-60622457D01*
X59560148Y-60622457D02*
X58988720Y-60622457D01*
X58988720Y-60622457D02*
X58703006Y-60479600D01*
X58703006Y-60479600D02*
X58417291Y-60193885D01*
X58417291Y-60193885D02*
X58274434Y-59622457D01*
X58274434Y-59622457D02*
X58274434Y-58622457D01*
X58274434Y-58622457D02*
X58417291Y-58051028D01*
X58417291Y-58051028D02*
X58703006Y-57765314D01*
X58703006Y-57765314D02*
X58988720Y-57622457D01*
X62131577Y-57622457D02*
X62703005Y-57622457D01*
X62703005Y-57622457D02*
X62988720Y-57765314D01*
X62988720Y-57765314D02*
X63274434Y-58051028D01*
X63274434Y-58051028D02*
X63417291Y-58622457D01*
X63417291Y-58622457D02*
X63417291Y-59622457D01*
X63417291Y-59622457D02*
X63274434Y-60193885D01*
X63274434Y-60193885D02*
X62988720Y-60479600D01*
X62988720Y-60479600D02*
X62703005Y-60622457D01*
X62703005Y-60622457D02*
X62131577Y-60622457D01*
X62131577Y-60622457D02*
X61845863Y-60479600D01*
X61845863Y-60479600D02*
X61560148Y-60193885D01*
X61560148Y-60193885D02*
X61417291Y-59622457D01*
X61417291Y-59622457D02*
X61417291Y-58622457D01*
X61417291Y-58622457D02*
X61560148Y-58051028D01*
X61560148Y-58051028D02*
X61845863Y-57765314D01*
X61845863Y-57765314D02*
X62131577Y-57622457D01*
X64274434Y-57622457D02*
X65988720Y-57622457D01*
X65131577Y-60622457D02*
X65131577Y-57622457D01*
X66988719Y-60622457D02*
X66988719Y-57622457D01*
X66988719Y-59051028D02*
X68703005Y-59051028D01*
X68703005Y-60622457D02*
X68703005Y-57622457D01*
X73274433Y-57622457D02*
X73274433Y-59765314D01*
X73274433Y-59765314D02*
X73131576Y-60193885D01*
X73131576Y-60193885D02*
X72845862Y-60479600D01*
X72845862Y-60479600D02*
X72417290Y-60622457D01*
X72417290Y-60622457D02*
X72131576Y-60622457D01*
X74560147Y-59765314D02*
X75988719Y-59765314D01*
X74274433Y-60622457D02*
X75274433Y-57622457D01*
X75274433Y-57622457D02*
X76274433Y-60622457D01*
X77274433Y-60622457D02*
X77274433Y-57622457D01*
X77274433Y-57622457D02*
X78274433Y-59765314D01*
X78274433Y-59765314D02*
X79274433Y-57622457D01*
X79274433Y-57622457D02*
X79274433Y-60622457D01*
X80703004Y-60622457D02*
X80703004Y-57622457D01*
X80703004Y-57622457D02*
X81703004Y-59765314D01*
X81703004Y-59765314D02*
X82703004Y-57622457D01*
X82703004Y-57622457D02*
X82703004Y-60622457D01*
X84131575Y-59051028D02*
X85131575Y-59051028D01*
X85560147Y-60622457D02*
X84131575Y-60622457D01*
X84131575Y-60622457D02*
X84131575Y-57622457D01*
X84131575Y-57622457D02*
X85560147Y-57622457D01*
X88560147Y-60622457D02*
X87560147Y-59193885D01*
X86845861Y-60622457D02*
X86845861Y-57622457D01*
X86845861Y-57622457D02*
X87988718Y-57622457D01*
X87988718Y-57622457D02*
X88274433Y-57765314D01*
X88274433Y-57765314D02*
X88417290Y-57908171D01*
X88417290Y-57908171D02*
X88560147Y-58193885D01*
X88560147Y-58193885D02*
X88560147Y-58622457D01*
X88560147Y-58622457D02*
X88417290Y-58908171D01*
X88417290Y-58908171D02*
X88274433Y-59051028D01*
X88274433Y-59051028D02*
X87988718Y-59193885D01*
X87988718Y-59193885D02*
X86845861Y-59193885D01*
G36*
X44877076Y-62663900D02*
G01*
X44877076Y-63754200D01*
X45487805Y-63754200D01*
X45614610Y-63747696D01*
X45703960Y-63730936D01*
X45779883Y-63700041D01*
X45834019Y-63658213D01*
X45873562Y-63603163D01*
X45899598Y-63533649D01*
X45924328Y-63355596D01*
X46000165Y-63355596D01*
X46000165Y-64316936D01*
X45924328Y-64316936D01*
X45895568Y-64151523D01*
X45866992Y-64059016D01*
X45819731Y-63995085D01*
X45746092Y-63947274D01*
X45637465Y-63916866D01*
X45487805Y-63906608D01*
X44877076Y-63906608D01*
X44877076Y-64825266D01*
X44882694Y-64991140D01*
X44893562Y-65051313D01*
X44913895Y-65086301D01*
X44949799Y-65113961D01*
X45011348Y-65131547D01*
X45106603Y-65137592D01*
X45577930Y-65137592D01*
X45779797Y-65130631D01*
X45921214Y-65106268D01*
X46027826Y-65057541D01*
X46125095Y-64977491D01*
X46254239Y-64821420D01*
X46385397Y-64598304D01*
X46467463Y-64598304D01*
X46227677Y-65290000D01*
X44086095Y-65290000D01*
X44086095Y-65219658D01*
X44184464Y-65219658D01*
X44266346Y-65211414D01*
X44347313Y-65184670D01*
X44416006Y-65138508D01*
X44459054Y-65073478D01*
X44475652Y-64992167D01*
X44483600Y-64804017D01*
X44483600Y-62991247D01*
X44474987Y-62811823D01*
X44454990Y-62712521D01*
X44430294Y-62664084D01*
X44375244Y-62621078D01*
X44296138Y-62592615D01*
X44184464Y-62581835D01*
X44086095Y-62581835D01*
X44086095Y-62511493D01*
X46227677Y-62511493D01*
X46227677Y-63121123D01*
X46178401Y-63121123D01*
X46133339Y-62938674D01*
X46082048Y-62819788D01*
X46016468Y-62744867D01*
X45928358Y-62694675D01*
X45829131Y-62673319D01*
X45639480Y-62663900D01*
X44877076Y-62663900D01*
G37*
G36*
X47242873Y-63753468D02*
G01*
X47425812Y-63561330D01*
X47588558Y-63440781D01*
X47735545Y-63375831D01*
X47872103Y-63355596D01*
X47973580Y-63364551D01*
X48064628Y-63390584D01*
X48146107Y-63436491D01*
X48218318Y-63507637D01*
X48274773Y-63599181D01*
X48320717Y-63725624D01*
X48347538Y-63869887D01*
X48357719Y-64064694D01*
X48357719Y-64868131D01*
X48370908Y-65059373D01*
X48390284Y-65123328D01*
X48417070Y-65165252D01*
X48454694Y-65194102D01*
X48505181Y-65210498D01*
X48644583Y-65219658D01*
X48644583Y-65290000D01*
X47716215Y-65290000D01*
X47716215Y-65219658D01*
X47755233Y-65219658D01*
X47899581Y-65203354D01*
X47946192Y-65180518D01*
X47978532Y-65146934D01*
X47999601Y-65102500D01*
X48012421Y-65039406D01*
X48019565Y-64869413D01*
X48019565Y-64101147D01*
X48010300Y-63929722D01*
X47986490Y-63810024D01*
X47952887Y-63729288D01*
X47899685Y-63666001D01*
X47827109Y-63627470D01*
X47728489Y-63613517D01*
X47614492Y-63627810D01*
X47497441Y-63672350D01*
X47374354Y-63752023D01*
X47242873Y-63874551D01*
X47242873Y-64867948D01*
X47250388Y-65038182D01*
X47265404Y-65104436D01*
X47297095Y-65158108D01*
X47344356Y-65194012D01*
X47422208Y-65213613D01*
X47548237Y-65219658D01*
X47548237Y-65290000D01*
X46619870Y-65290000D01*
X46619870Y-65219658D01*
X46660903Y-65219658D01*
X46781620Y-65203171D01*
X46824020Y-65180472D01*
X46856542Y-65145469D01*
X46879084Y-65100000D01*
X46894460Y-65037391D01*
X46904719Y-64867398D01*
X46904719Y-64167093D01*
X46899081Y-63862393D01*
X46888232Y-63752918D01*
X46867669Y-63686621D01*
X46842070Y-63651985D01*
X46806352Y-63632368D01*
X46757074Y-63625240D01*
X46697726Y-63632140D01*
X46619870Y-63656015D01*
X46589096Y-63578346D01*
X47154762Y-63355596D01*
X47242873Y-63355596D01*
X47242873Y-63753468D01*
G37*
G36*
X49778382Y-63372655D02*
G01*
X49939680Y-63419160D01*
X50031469Y-63471770D01*
X50103930Y-63543958D01*
X50159132Y-63638429D01*
X50184209Y-63751193D01*
X50195952Y-63999298D01*
X50195952Y-64636772D01*
X50199066Y-64854209D01*
X50206210Y-64966866D01*
X50221288Y-65019977D01*
X50239916Y-65046734D01*
X50294321Y-65067250D01*
X50333339Y-65061205D01*
X50376386Y-65036475D01*
X50433722Y-64986284D01*
X50517803Y-64903119D01*
X50517803Y-65020355D01*
X50387837Y-65169309D01*
X50273834Y-65261317D01*
X50172329Y-65310129D01*
X50079082Y-65325170D01*
X49989276Y-65307627D01*
X49919164Y-65256111D01*
X49875676Y-65171861D01*
X49857798Y-65020355D01*
X49592053Y-65216154D01*
X49495097Y-65274795D01*
X49382731Y-65312396D01*
X49259525Y-65325170D01*
X49165887Y-65316348D01*
X49081106Y-65290549D01*
X49004594Y-65248680D01*
X48939689Y-65192913D01*
X48887210Y-65124218D01*
X48846449Y-65041238D01*
X48821441Y-64949334D01*
X48812744Y-64844684D01*
X48818264Y-64767195D01*
X48822231Y-64749979D01*
X49156943Y-64749979D01*
X49162947Y-64821462D01*
X49180390Y-64885717D01*
X49243954Y-64993794D01*
X49287502Y-65034689D01*
X49337194Y-65065235D01*
X49391734Y-65084373D01*
X49448019Y-65090697D01*
X49547061Y-65073791D01*
X49679641Y-65013666D01*
X49857798Y-64891395D01*
X49857798Y-64176252D01*
X49602625Y-64279384D01*
X49458278Y-64347894D01*
X49312668Y-64446535D01*
X49226552Y-64536755D01*
X49174235Y-64638851D01*
X49156943Y-64749979D01*
X48822231Y-64749979D01*
X48834176Y-64698138D01*
X48898839Y-64570826D01*
X49008382Y-64455788D01*
X49165186Y-64347894D01*
X49412810Y-64223526D01*
X49857798Y-64047292D01*
X49857798Y-63973653D01*
X49851289Y-63838376D01*
X49834167Y-63738264D01*
X49804198Y-63650624D01*
X49766573Y-63587871D01*
X49717038Y-63539710D01*
X49657030Y-63508187D01*
X49588836Y-63490708D01*
X49509385Y-63484556D01*
X49391599Y-63503790D01*
X49302390Y-63554532D01*
X49246153Y-63627438D01*
X49226735Y-63711702D01*
X49230765Y-63829305D01*
X49217798Y-63914614D01*
X49182588Y-63973286D01*
X49127882Y-64010845D01*
X49056559Y-64023845D01*
X48987185Y-64010370D01*
X48932545Y-63970722D01*
X48897203Y-63910225D01*
X48884368Y-63825642D01*
X48895563Y-63741391D01*
X48930347Y-63656015D01*
X48985560Y-63577699D01*
X49063520Y-63504890D01*
X49158243Y-63445342D01*
X49278759Y-63396446D01*
X49412247Y-63366329D01*
X49570935Y-63355596D01*
X49778382Y-63372655D01*
G37*
G36*
X52252721Y-64579986D02*
G01*
X52202854Y-64758535D01*
X52135851Y-64909164D01*
X52049877Y-65042902D01*
X51953401Y-65150415D01*
X51842963Y-65236966D01*
X51723874Y-65298426D01*
X51596713Y-65336103D01*
X51465771Y-65348618D01*
X51311672Y-65331213D01*
X51164436Y-65278825D01*
X51030378Y-65194893D01*
X50911278Y-65079706D01*
X50814248Y-64939534D01*
X50736156Y-64766831D01*
X50687653Y-64575808D01*
X50670577Y-64353206D01*
X50689010Y-64137984D01*
X50742201Y-63947824D01*
X50827656Y-63775331D01*
X50935825Y-63632751D01*
X51068117Y-63515960D01*
X51220673Y-63428503D01*
X51388111Y-63373918D01*
X51566154Y-63355596D01*
X51699888Y-63366093D01*
X51819312Y-63396446D01*
X51928901Y-63444200D01*
X52018981Y-63502325D01*
X52095189Y-63572322D01*
X52151238Y-63647039D01*
X52187912Y-63727680D01*
X52199415Y-63803843D01*
X52186720Y-63874766D01*
X52150139Y-63929139D01*
X52093016Y-63964049D01*
X52008906Y-63976950D01*
X51921711Y-63966875D01*
X51852102Y-63930605D01*
X51803925Y-63857882D01*
X51779378Y-63738630D01*
X51752709Y-63631093D01*
X51698412Y-63558012D01*
X51617243Y-63513029D01*
X51498560Y-63496280D01*
X51383205Y-63510293D01*
X51285336Y-63550685D01*
X51200858Y-63614353D01*
X51129631Y-63698513D01*
X51074879Y-63797919D01*
X51034377Y-63916133D01*
X51010775Y-64042803D01*
X51002686Y-64179916D01*
X51013263Y-64342065D01*
X51044635Y-64497187D01*
X51096711Y-64643434D01*
X51165535Y-64769213D01*
X51253689Y-64877284D01*
X51357144Y-64960272D01*
X51476364Y-65013809D01*
X51613232Y-65032079D01*
X51777180Y-65010647D01*
X51852549Y-64981527D01*
X51926657Y-64935542D01*
X51994919Y-64874413D01*
X52064959Y-64788630D01*
X52127725Y-64687455D01*
X52193187Y-64551409D01*
X52252721Y-64579986D01*
G37*
G36*
X53073560Y-62370809D02*
G01*
X53073560Y-63745591D01*
X53203620Y-63612784D01*
X53341922Y-63486205D01*
X53418934Y-63434244D01*
X53502756Y-63392416D01*
X53593914Y-63365167D01*
X53700776Y-63355596D01*
X53840631Y-63372938D01*
X53944591Y-63420443D01*
X54028170Y-63495381D01*
X54092053Y-63593000D01*
X54136227Y-63706142D01*
X54164776Y-63838647D01*
X54184377Y-64122213D01*
X54184377Y-64868131D01*
X54187491Y-65027500D01*
X54196772Y-65088111D01*
X54216067Y-65132280D01*
X54248192Y-65166590D01*
X54298133Y-65192913D01*
X54361278Y-65208798D01*
X54463180Y-65219658D01*
X54463180Y-65290000D01*
X53540858Y-65290000D01*
X53540858Y-65219658D01*
X53583906Y-65219658D01*
X53670856Y-65214932D01*
X53727337Y-65203171D01*
X53773003Y-65180370D01*
X53805190Y-65146568D01*
X53826007Y-65101920D01*
X53837979Y-65038490D01*
X53844207Y-64867765D01*
X53844207Y-64120565D01*
X53841093Y-63940314D01*
X53831857Y-63851390D01*
X53811418Y-63773618D01*
X53775798Y-63705149D01*
X53722208Y-63650153D01*
X53650726Y-63615161D01*
X53542873Y-63601793D01*
X53440474Y-63613150D01*
X53332763Y-63654183D01*
X53212962Y-63736432D01*
X53073560Y-63870887D01*
X53073560Y-64867581D01*
X53077590Y-65025118D01*
X53092978Y-65112679D01*
X53123752Y-65157925D01*
X53173944Y-65188700D01*
X53253811Y-65212513D01*
X53376910Y-65219658D01*
X53376910Y-65290000D01*
X52446528Y-65290000D01*
X52446528Y-65219658D01*
X52578602Y-65210498D01*
X52628749Y-65194471D01*
X52667812Y-65166352D01*
X52696483Y-65125037D01*
X52718004Y-65060472D01*
X52733391Y-64868314D01*
X52733391Y-63164537D01*
X52727803Y-62875138D01*
X52716905Y-62767948D01*
X52696350Y-62701812D01*
X52670743Y-62667198D01*
X52635024Y-62647581D01*
X52585746Y-62640453D01*
X52533910Y-62647168D01*
X52446528Y-62673243D01*
X52417768Y-62605282D01*
X52979221Y-62370809D01*
X53073560Y-62370809D01*
G37*
G36*
X55663769Y-63369441D02*
G01*
X55800226Y-63409818D01*
X55923888Y-63475654D01*
X56028838Y-63564057D01*
X56113944Y-63672922D01*
X56179413Y-63804026D01*
X56219721Y-63949573D01*
X56233818Y-64117634D01*
X54936523Y-64117634D01*
X54950984Y-64322257D01*
X54991844Y-64496638D01*
X55058383Y-64654473D01*
X55141320Y-64781303D01*
X55244184Y-64885151D01*
X55359673Y-64959356D01*
X55487125Y-65005128D01*
X55621074Y-65020355D01*
X55740715Y-65008776D01*
X55846688Y-64975185D01*
X55941826Y-64919788D01*
X56021878Y-64843781D01*
X56098257Y-64731961D01*
X56170254Y-64574856D01*
X56233818Y-64615340D01*
X56201346Y-64749083D01*
X56147723Y-64882786D01*
X56075002Y-65007518D01*
X55984691Y-65117625D01*
X55877511Y-65210842D01*
X55753148Y-65284870D01*
X55616196Y-65332442D01*
X55465186Y-65348618D01*
X55301562Y-65331336D01*
X55148647Y-65279924D01*
X55009745Y-65197236D01*
X54888346Y-65085202D01*
X54789512Y-64948057D01*
X54711025Y-64779654D01*
X54662488Y-64593076D01*
X54645446Y-64376653D01*
X54662899Y-64140926D01*
X54697730Y-64000397D01*
X54936523Y-64000397D01*
X55805355Y-64000397D01*
X55788168Y-63832381D01*
X55762308Y-63744125D01*
X55698060Y-63640417D01*
X55609534Y-63562409D01*
X55504718Y-63512446D01*
X55397592Y-63496280D01*
X55315173Y-63504776D01*
X55235659Y-63530352D01*
X55161975Y-63571791D01*
X55094242Y-63629637D01*
X55036940Y-63700528D01*
X54988729Y-63787723D01*
X54955248Y-63885125D01*
X54936523Y-64000397D01*
X54697730Y-64000397D01*
X54711941Y-63943061D01*
X54792700Y-63765409D01*
X54895490Y-63622309D01*
X55023156Y-63506682D01*
X55171179Y-63423374D01*
X55334762Y-63372768D01*
X55512447Y-63355596D01*
X55663769Y-63369441D01*
G37*
G36*
X57698176Y-63355596D02*
G01*
X57698176Y-63988674D01*
X57630582Y-63988674D01*
X57586979Y-63845110D01*
X57542288Y-63738996D01*
X57488056Y-63647485D01*
X57430730Y-63580910D01*
X57364101Y-63530117D01*
X57291329Y-63497379D01*
X57211869Y-63479214D01*
X57120237Y-63472833D01*
X57050786Y-63478425D01*
X56990177Y-63494448D01*
X56889610Y-63549769D01*
X56824031Y-63627805D01*
X56800584Y-63717015D01*
X56816887Y-63823810D01*
X56840723Y-63871365D01*
X56885580Y-63925293D01*
X57035240Y-64037034D01*
X57296458Y-64176618D01*
X57440955Y-64253104D01*
X57551631Y-64322981D01*
X57648291Y-64397531D01*
X57719609Y-64467145D01*
X57775965Y-64541997D01*
X57811933Y-64616439D01*
X57832668Y-64694828D01*
X57839593Y-64775990D01*
X57825713Y-64901025D01*
X57785188Y-65011929D01*
X57722204Y-65110390D01*
X57642855Y-65192180D01*
X57549086Y-65257688D01*
X57441905Y-65307402D01*
X57327857Y-65338383D01*
X57212561Y-65348618D01*
X57028096Y-65334696D01*
X56819085Y-65288900D01*
X56757536Y-65274063D01*
X56708443Y-65269117D01*
X56668258Y-65279724D01*
X56634621Y-65313447D01*
X56567027Y-65313447D01*
X56567027Y-64656922D01*
X56634621Y-64656922D01*
X56671469Y-64793562D01*
X56720717Y-64907515D01*
X56784189Y-65008005D01*
X56854806Y-65086851D01*
X56936290Y-65149752D01*
X57024982Y-65194745D01*
X57119715Y-65222262D01*
X57216591Y-65231381D01*
X57284228Y-65225556D01*
X57344635Y-65208667D01*
X57446118Y-65147484D01*
X57484324Y-65105593D01*
X57512613Y-65057175D01*
X57530254Y-65003612D01*
X57536243Y-64945068D01*
X57515727Y-64817573D01*
X57487661Y-64762943D01*
X57439890Y-64706564D01*
X57288215Y-64593541D01*
X57040369Y-64457620D01*
X56795455Y-64320600D01*
X56709318Y-64254466D01*
X56648909Y-64192922D01*
X56603695Y-64125779D01*
X56577102Y-64057916D01*
X56558784Y-63897449D01*
X56569429Y-63786002D01*
X56600732Y-63683859D01*
X56651486Y-63590975D01*
X56718702Y-63512034D01*
X56800918Y-63447628D01*
X56898953Y-63397545D01*
X57007182Y-63366350D01*
X57128480Y-63355596D01*
X57228864Y-63367503D01*
X57352878Y-63393332D01*
X57466634Y-63419160D01*
X57536243Y-63431067D01*
X57587534Y-63417145D01*
X57630582Y-63355596D01*
X57698176Y-63355596D01*
G37*
G36*
X59711898Y-64579986D02*
G01*
X59662031Y-64758535D01*
X59595027Y-64909164D01*
X59509054Y-65042902D01*
X59412578Y-65150415D01*
X59302139Y-65236966D01*
X59183051Y-65298426D01*
X59055889Y-65336103D01*
X58924947Y-65348618D01*
X58770848Y-65331213D01*
X58623613Y-65278825D01*
X58489555Y-65194893D01*
X58370455Y-65079706D01*
X58273425Y-64939534D01*
X58195333Y-64766831D01*
X58146830Y-64575808D01*
X58129754Y-64353206D01*
X58148187Y-64137984D01*
X58201378Y-63947824D01*
X58286832Y-63775331D01*
X58395001Y-63632751D01*
X58527294Y-63515960D01*
X58679849Y-63428503D01*
X58847287Y-63373918D01*
X59025331Y-63355596D01*
X59159065Y-63366093D01*
X59278489Y-63396446D01*
X59388078Y-63444200D01*
X59478157Y-63502325D01*
X59554366Y-63572322D01*
X59610415Y-63647039D01*
X59647088Y-63727680D01*
X59658592Y-63803843D01*
X59645896Y-63874766D01*
X59609316Y-63929139D01*
X59552193Y-63964049D01*
X59468082Y-63976950D01*
X59380887Y-63966875D01*
X59311278Y-63930605D01*
X59263101Y-63857882D01*
X59238555Y-63738630D01*
X59211886Y-63631093D01*
X59157588Y-63558012D01*
X59076419Y-63513029D01*
X58957737Y-63496280D01*
X58842381Y-63510293D01*
X58744513Y-63550685D01*
X58660035Y-63614353D01*
X58588808Y-63698513D01*
X58534055Y-63797919D01*
X58493553Y-63916133D01*
X58469951Y-64042803D01*
X58461863Y-64179916D01*
X58472439Y-64342065D01*
X58503811Y-64497187D01*
X58555887Y-64643434D01*
X58624712Y-64769213D01*
X58712866Y-64877284D01*
X58816320Y-64960272D01*
X58935541Y-65013809D01*
X59072409Y-65032079D01*
X59236357Y-65010647D01*
X59311725Y-64981527D01*
X59385833Y-64935542D01*
X59454096Y-64874413D01*
X59524136Y-64788630D01*
X59586901Y-64687455D01*
X59652363Y-64551409D01*
X59711898Y-64579986D01*
G37*
G36*
X61627250Y-63414214D02*
G01*
X61627250Y-64550676D01*
X61632227Y-64849281D01*
X61641538Y-64950013D01*
X61664041Y-65014257D01*
X61691730Y-65050397D01*
X61728330Y-65071800D01*
X61770682Y-65078974D01*
X61833681Y-65071062D01*
X61913930Y-65043986D01*
X61942690Y-65114145D01*
X61381236Y-65348618D01*
X61289096Y-65348618D01*
X61289096Y-64950013D01*
X61053791Y-65182920D01*
X60920167Y-65280840D01*
X60789161Y-65331750D01*
X60651622Y-65348618D01*
X60549565Y-65338334D01*
X60459565Y-65308510D01*
X60379047Y-65259225D01*
X60281900Y-65156160D01*
X60217114Y-65021821D01*
X60185089Y-64864458D01*
X60172051Y-64614973D01*
X60172051Y-63774351D01*
X60156664Y-63624324D01*
X60135621Y-63572097D01*
X60106472Y-63536031D01*
X60067461Y-63510794D01*
X60015247Y-63494815D01*
X59878960Y-63484556D01*
X59854413Y-63484556D01*
X59854413Y-63414214D01*
X60512404Y-63414214D01*
X60512404Y-64665898D01*
X60519570Y-64794153D01*
X60538049Y-64884434D01*
X60569524Y-64961475D01*
X60606742Y-65014127D01*
X60653563Y-65052751D01*
X60706027Y-65075493D01*
X60823813Y-65090697D01*
X60917053Y-65078607D01*
X61023665Y-65036475D01*
X61145664Y-64955875D01*
X61289096Y-64829113D01*
X61289096Y-63762077D01*
X61276823Y-63629453D01*
X61258722Y-63581424D01*
X61230661Y-63545190D01*
X61192124Y-63518679D01*
X61138337Y-63499944D01*
X60987761Y-63484556D01*
X60987761Y-63414214D01*
X61627250Y-63414214D01*
G37*
G36*
X64377795Y-62520644D02*
G01*
X64588860Y-62544299D01*
X64734019Y-62577438D01*
X64835123Y-62615903D01*
X64929658Y-62669945D01*
X65015363Y-62737460D01*
X65089576Y-62816125D01*
X65150875Y-62905345D01*
X65198203Y-63005535D01*
X65228007Y-63113254D01*
X65238136Y-63229750D01*
X65227673Y-63356293D01*
X65197103Y-63471734D01*
X65145478Y-63578339D01*
X65071074Y-63676531D01*
X64977036Y-63761401D01*
X64856934Y-63836999D01*
X64720456Y-63896330D01*
X64553585Y-63943977D01*
X65127494Y-64740453D01*
X65268546Y-64921677D01*
X65379296Y-65037581D01*
X65465648Y-65104986D01*
X65622677Y-65176533D01*
X65834577Y-65219658D01*
X65834577Y-65290000D01*
X65092690Y-65290000D01*
X64152049Y-63996367D01*
X64056612Y-63999481D01*
X63981873Y-64000397D01*
X63924537Y-63999481D01*
X63860973Y-63996367D01*
X63860973Y-64803651D01*
X63870185Y-64982012D01*
X63891619Y-65080974D01*
X63918309Y-65129532D01*
X63976200Y-65177981D01*
X64052210Y-65208529D01*
X64152049Y-65219658D01*
X64260676Y-65219658D01*
X64260676Y-65290000D01*
X63069993Y-65290000D01*
X63069993Y-65219658D01*
X63174406Y-65219658D01*
X63284537Y-65205546D01*
X63366147Y-65166829D01*
X63426465Y-65104436D01*
X63455345Y-65018291D01*
X63469513Y-64802002D01*
X63469513Y-62999490D01*
X63460295Y-62820352D01*
X63438856Y-62721018D01*
X63429039Y-62703101D01*
X63860973Y-62703101D01*
X63860973Y-63869422D01*
X63928567Y-63870521D01*
X63975828Y-63871437D01*
X64167762Y-63859097D01*
X64325157Y-63824909D01*
X64466221Y-63767787D01*
X64576116Y-63695765D01*
X64664594Y-63604847D01*
X64726875Y-63500310D01*
X64764299Y-63383774D01*
X64777067Y-63255212D01*
X64766012Y-63128807D01*
X64734019Y-63016526D01*
X64681640Y-62914866D01*
X64612020Y-62829314D01*
X64526186Y-62759959D01*
X64423525Y-62707315D01*
X64310162Y-62675042D01*
X64182824Y-62663900D01*
X64043239Y-62673243D01*
X63860973Y-62703101D01*
X63429039Y-62703101D01*
X63412177Y-62672327D01*
X63353102Y-62623697D01*
X63275751Y-62593010D01*
X63174406Y-62581835D01*
X63069993Y-62581835D01*
X63069993Y-62511493D01*
X64082257Y-62511493D01*
X64377795Y-62520644D01*
G37*
G36*
X66912506Y-63372655D02*
G01*
X67073804Y-63419160D01*
X67165594Y-63471770D01*
X67238054Y-63543958D01*
X67293257Y-63638429D01*
X67318333Y-63751193D01*
X67330076Y-63999298D01*
X67330076Y-64636772D01*
X67333190Y-64854209D01*
X67340334Y-64966866D01*
X67355412Y-65019977D01*
X67374040Y-65046734D01*
X67428445Y-65067250D01*
X67467463Y-65061205D01*
X67510511Y-65036475D01*
X67567847Y-64986284D01*
X67651927Y-64903119D01*
X67651927Y-65020355D01*
X67521961Y-65169309D01*
X67407958Y-65261317D01*
X67306454Y-65310129D01*
X67213206Y-65325170D01*
X67123401Y-65307627D01*
X67053288Y-65256111D01*
X67009800Y-65171861D01*
X66991922Y-65020355D01*
X66726177Y-65216154D01*
X66629221Y-65274795D01*
X66516855Y-65312396D01*
X66393649Y-65325170D01*
X66300011Y-65316348D01*
X66215230Y-65290549D01*
X66138718Y-65248680D01*
X66073813Y-65192913D01*
X66021335Y-65124218D01*
X65980573Y-65041238D01*
X65955565Y-64949334D01*
X65946868Y-64844684D01*
X65952389Y-64767195D01*
X65956356Y-64749979D01*
X66291067Y-64749979D01*
X66297072Y-64821462D01*
X66314515Y-64885717D01*
X66378079Y-64993794D01*
X66421626Y-65034689D01*
X66471318Y-65065235D01*
X66525858Y-65084373D01*
X66582144Y-65090697D01*
X66681185Y-65073791D01*
X66813765Y-65013666D01*
X66991922Y-64891395D01*
X66991922Y-64176252D01*
X66736749Y-64279384D01*
X66592402Y-64347894D01*
X66446792Y-64446535D01*
X66360676Y-64536755D01*
X66308359Y-64638851D01*
X66291067Y-64749979D01*
X65956356Y-64749979D01*
X65968300Y-64698138D01*
X66032964Y-64570826D01*
X66142506Y-64455788D01*
X66299310Y-64347894D01*
X66546934Y-64223526D01*
X66991922Y-64047292D01*
X66991922Y-63973653D01*
X66985413Y-63838376D01*
X66968292Y-63738264D01*
X66938322Y-63650624D01*
X66900697Y-63587871D01*
X66851163Y-63539710D01*
X66791154Y-63508187D01*
X66722961Y-63490708D01*
X66643510Y-63484556D01*
X66525724Y-63503790D01*
X66436514Y-63554532D01*
X66380277Y-63627438D01*
X66360860Y-63711702D01*
X66364890Y-63829305D01*
X66351922Y-63914614D01*
X66316713Y-63973286D01*
X66262006Y-64010845D01*
X66190683Y-64023845D01*
X66121309Y-64010370D01*
X66066669Y-63970722D01*
X66031328Y-63910225D01*
X66018492Y-63825642D01*
X66029687Y-63741391D01*
X66064471Y-63656015D01*
X66119684Y-63577699D01*
X66197644Y-63504890D01*
X66292367Y-63445342D01*
X66412883Y-63396446D01*
X66546371Y-63366329D01*
X66705059Y-63355596D01*
X66912506Y-63372655D01*
G37*
G36*
X69456454Y-64545181D02*
G01*
X69461443Y-64848197D01*
X69470743Y-64949647D01*
X69493254Y-65014050D01*
X69520935Y-65050214D01*
X69557548Y-65071759D01*
X69599886Y-65078974D01*
X69657354Y-65071627D01*
X69747531Y-65043986D01*
X69770062Y-65114145D01*
X69212639Y-65348618D01*
X69118300Y-65348618D01*
X69118300Y-65082821D01*
X68977221Y-65208954D01*
X68850854Y-65286702D01*
X68716012Y-65332892D01*
X68567105Y-65348618D01*
X68417347Y-65331464D01*
X68275113Y-65279924D01*
X68145619Y-65198417D01*
X68031114Y-65089232D01*
X67937461Y-64957584D01*
X67863136Y-64799071D01*
X67816727Y-64625289D01*
X67800671Y-64429959D01*
X67813484Y-64270408D01*
X68175645Y-64270408D01*
X68188881Y-64470773D01*
X68225837Y-64637688D01*
X68285703Y-64788372D01*
X68357911Y-64906416D01*
X68447196Y-65003193D01*
X68544391Y-65070547D01*
X68651119Y-65112328D01*
X68757615Y-65125868D01*
X68874624Y-65107106D01*
X68993439Y-65047961D01*
X69118300Y-64939206D01*
X69118300Y-63970722D01*
X69099535Y-63858379D01*
X69065910Y-63763543D01*
X69018472Y-63678909D01*
X68963511Y-63610769D01*
X68899234Y-63555324D01*
X68830338Y-63516430D01*
X68756688Y-63492384D01*
X68683792Y-63484556D01*
X68579220Y-63498680D01*
X68483025Y-63540976D01*
X68398152Y-63607817D01*
X68322191Y-63701078D01*
X68262202Y-63811933D01*
X68214480Y-63949289D01*
X68185766Y-64098466D01*
X68175645Y-64270408D01*
X67813484Y-64270408D01*
X67816528Y-64232499D01*
X67863577Y-64045275D01*
X67942282Y-63865758D01*
X68054745Y-63691919D01*
X68195381Y-63541558D01*
X68348892Y-63438316D01*
X68518258Y-63376679D01*
X68708522Y-63355596D01*
X68865898Y-63373981D01*
X69000753Y-63427063D01*
X69118300Y-63515331D01*
X69118300Y-62896359D01*
X69121414Y-62814842D01*
X69114270Y-62731311D01*
X69098861Y-62695419D01*
X69073237Y-62666282D01*
X69036401Y-62647897D01*
X68972854Y-62640453D01*
X68914590Y-62647578D01*
X68831437Y-62673243D01*
X68804876Y-62605282D01*
X69364314Y-62370809D01*
X69456454Y-62370809D01*
X69456454Y-64545181D01*
G37*
G36*
X71536671Y-63414214D02*
G01*
X71536671Y-64550676D01*
X71541648Y-64849281D01*
X71550959Y-64950013D01*
X71573462Y-65014257D01*
X71601151Y-65050397D01*
X71637751Y-65071800D01*
X71680102Y-65078974D01*
X71743102Y-65071062D01*
X71823351Y-65043986D01*
X71852110Y-65114145D01*
X71290657Y-65348618D01*
X71198517Y-65348618D01*
X71198517Y-64950013D01*
X70963212Y-65182920D01*
X70829588Y-65280840D01*
X70698582Y-65331750D01*
X70561043Y-65348618D01*
X70458985Y-65338334D01*
X70368986Y-65308510D01*
X70288468Y-65259225D01*
X70191320Y-65156160D01*
X70126535Y-65021821D01*
X70094510Y-64864458D01*
X70081472Y-64614973D01*
X70081472Y-63774351D01*
X70066085Y-63624324D01*
X70045042Y-63572097D01*
X70015893Y-63536031D01*
X69976881Y-63510794D01*
X69924668Y-63494815D01*
X69788381Y-63484556D01*
X69763834Y-63484556D01*
X69763834Y-63414214D01*
X70421824Y-63414214D01*
X70421824Y-64665898D01*
X70428990Y-64794153D01*
X70447470Y-64884434D01*
X70478945Y-64961475D01*
X70516163Y-65014127D01*
X70562984Y-65052751D01*
X70615448Y-65075493D01*
X70733234Y-65090697D01*
X70826474Y-65078607D01*
X70933086Y-65036475D01*
X71055085Y-64955875D01*
X71198517Y-64829113D01*
X71198517Y-63762077D01*
X71186243Y-63629453D01*
X71168142Y-63581424D01*
X71140081Y-63545190D01*
X71101545Y-63518679D01*
X71047758Y-63499944D01*
X70897182Y-63484556D01*
X70897182Y-63414214D01*
X71536671Y-63414214D01*
G37*
D12*
X60266666Y-96464819D02*
X60266666Y-97179104D01*
X60266666Y-97179104D02*
X60219047Y-97321961D01*
X60219047Y-97321961D02*
X60123809Y-97417200D01*
X60123809Y-97417200D02*
X59980952Y-97464819D01*
X59980952Y-97464819D02*
X59885714Y-97464819D01*
X61219047Y-96464819D02*
X60742857Y-96464819D01*
X60742857Y-96464819D02*
X60695238Y-96941009D01*
X60695238Y-96941009D02*
X60742857Y-96893390D01*
X60742857Y-96893390D02*
X60838095Y-96845771D01*
X60838095Y-96845771D02*
X61076190Y-96845771D01*
X61076190Y-96845771D02*
X61171428Y-96893390D01*
X61171428Y-96893390D02*
X61219047Y-96941009D01*
X61219047Y-96941009D02*
X61266666Y-97036247D01*
X61266666Y-97036247D02*
X61266666Y-97274342D01*
X61266666Y-97274342D02*
X61219047Y-97369580D01*
X61219047Y-97369580D02*
X61171428Y-97417200D01*
X61171428Y-97417200D02*
X61076190Y-97464819D01*
X61076190Y-97464819D02*
X60838095Y-97464819D01*
X60838095Y-97464819D02*
X60742857Y-97417200D01*
X60742857Y-97417200D02*
X60695238Y-97369580D01*
X43257143Y-116362295D02*
X43257143Y-115562295D01*
X43790476Y-115562295D02*
X43942857Y-115562295D01*
X43942857Y-115562295D02*
X44019047Y-115600390D01*
X44019047Y-115600390D02*
X44095238Y-115676580D01*
X44095238Y-115676580D02*
X44133333Y-115828961D01*
X44133333Y-115828961D02*
X44133333Y-116095628D01*
X44133333Y-116095628D02*
X44095238Y-116248009D01*
X44095238Y-116248009D02*
X44019047Y-116324200D01*
X44019047Y-116324200D02*
X43942857Y-116362295D01*
X43942857Y-116362295D02*
X43790476Y-116362295D01*
X43790476Y-116362295D02*
X43714285Y-116324200D01*
X43714285Y-116324200D02*
X43638095Y-116248009D01*
X43638095Y-116248009D02*
X43599999Y-116095628D01*
X43599999Y-116095628D02*
X43599999Y-115828961D01*
X43599999Y-115828961D02*
X43638095Y-115676580D01*
X43638095Y-115676580D02*
X43714285Y-115600390D01*
X43714285Y-115600390D02*
X43790476Y-115562295D01*
X44399999Y-115562295D02*
X44895237Y-115562295D01*
X44895237Y-115562295D02*
X44628571Y-115867057D01*
X44628571Y-115867057D02*
X44742856Y-115867057D01*
X44742856Y-115867057D02*
X44819047Y-115905152D01*
X44819047Y-115905152D02*
X44857142Y-115943247D01*
X44857142Y-115943247D02*
X44895237Y-116019438D01*
X44895237Y-116019438D02*
X44895237Y-116209914D01*
X44895237Y-116209914D02*
X44857142Y-116286104D01*
X44857142Y-116286104D02*
X44819047Y-116324200D01*
X44819047Y-116324200D02*
X44742856Y-116362295D01*
X44742856Y-116362295D02*
X44514285Y-116362295D01*
X44514285Y-116362295D02*
X44438094Y-116324200D01*
X44438094Y-116324200D02*
X44399999Y-116286104D01*
X45199999Y-115638485D02*
X45238095Y-115600390D01*
X45238095Y-115600390D02*
X45314285Y-115562295D01*
X45314285Y-115562295D02*
X45504761Y-115562295D01*
X45504761Y-115562295D02*
X45580952Y-115600390D01*
X45580952Y-115600390D02*
X45619047Y-115638485D01*
X45619047Y-115638485D02*
X45657142Y-115714676D01*
X45657142Y-115714676D02*
X45657142Y-115790866D01*
X45657142Y-115790866D02*
X45619047Y-115905152D01*
X45619047Y-115905152D02*
X45161904Y-116362295D01*
X45161904Y-116362295D02*
X45657142Y-116362295D01*
X46000000Y-116057533D02*
X46609524Y-116057533D01*
X46876190Y-115562295D02*
X47333333Y-115562295D01*
X47104761Y-116362295D02*
X47104761Y-115562295D01*
X47523809Y-115562295D02*
X48057143Y-116362295D01*
X48057143Y-115562295D02*
X47523809Y-116362295D01*
X48780952Y-116362295D02*
X48323809Y-116362295D01*
X48552381Y-116362295D02*
X48552381Y-115562295D01*
X48552381Y-115562295D02*
X48476190Y-115676580D01*
X48476190Y-115676580D02*
X48400000Y-115752771D01*
X48400000Y-115752771D02*
X48323809Y-115790866D01*
X39323809Y-118624200D02*
X39438095Y-118662295D01*
X39438095Y-118662295D02*
X39628571Y-118662295D01*
X39628571Y-118662295D02*
X39704762Y-118624200D01*
X39704762Y-118624200D02*
X39742857Y-118586104D01*
X39742857Y-118586104D02*
X39780952Y-118509914D01*
X39780952Y-118509914D02*
X39780952Y-118433723D01*
X39780952Y-118433723D02*
X39742857Y-118357533D01*
X39742857Y-118357533D02*
X39704762Y-118319438D01*
X39704762Y-118319438D02*
X39628571Y-118281342D01*
X39628571Y-118281342D02*
X39476190Y-118243247D01*
X39476190Y-118243247D02*
X39400000Y-118205152D01*
X39400000Y-118205152D02*
X39361905Y-118167057D01*
X39361905Y-118167057D02*
X39323809Y-118090866D01*
X39323809Y-118090866D02*
X39323809Y-118014676D01*
X39323809Y-118014676D02*
X39361905Y-117938485D01*
X39361905Y-117938485D02*
X39400000Y-117900390D01*
X39400000Y-117900390D02*
X39476190Y-117862295D01*
X39476190Y-117862295D02*
X39666667Y-117862295D01*
X39666667Y-117862295D02*
X39780952Y-117900390D01*
X40047619Y-117862295D02*
X40542857Y-117862295D01*
X40542857Y-117862295D02*
X40276191Y-118167057D01*
X40276191Y-118167057D02*
X40390476Y-118167057D01*
X40390476Y-118167057D02*
X40466667Y-118205152D01*
X40466667Y-118205152D02*
X40504762Y-118243247D01*
X40504762Y-118243247D02*
X40542857Y-118319438D01*
X40542857Y-118319438D02*
X40542857Y-118509914D01*
X40542857Y-118509914D02*
X40504762Y-118586104D01*
X40504762Y-118586104D02*
X40466667Y-118624200D01*
X40466667Y-118624200D02*
X40390476Y-118662295D01*
X40390476Y-118662295D02*
X40161905Y-118662295D01*
X40161905Y-118662295D02*
X40085714Y-118624200D01*
X40085714Y-118624200D02*
X40047619Y-118586104D01*
X40885715Y-118357533D02*
X41495239Y-118357533D01*
X41876191Y-118662295D02*
X41876191Y-117862295D01*
X42409524Y-117862295D02*
X42561905Y-117862295D01*
X42561905Y-117862295D02*
X42638095Y-117900390D01*
X42638095Y-117900390D02*
X42714286Y-117976580D01*
X42714286Y-117976580D02*
X42752381Y-118128961D01*
X42752381Y-118128961D02*
X42752381Y-118395628D01*
X42752381Y-118395628D02*
X42714286Y-118548009D01*
X42714286Y-118548009D02*
X42638095Y-118624200D01*
X42638095Y-118624200D02*
X42561905Y-118662295D01*
X42561905Y-118662295D02*
X42409524Y-118662295D01*
X42409524Y-118662295D02*
X42333333Y-118624200D01*
X42333333Y-118624200D02*
X42257143Y-118548009D01*
X42257143Y-118548009D02*
X42219047Y-118395628D01*
X42219047Y-118395628D02*
X42219047Y-118128961D01*
X42219047Y-118128961D02*
X42257143Y-117976580D01*
X42257143Y-117976580D02*
X42333333Y-117900390D01*
X42333333Y-117900390D02*
X42409524Y-117862295D01*
X43514285Y-118662295D02*
X43057142Y-118662295D01*
X43285714Y-118662295D02*
X43285714Y-117862295D01*
X43285714Y-117862295D02*
X43209523Y-117976580D01*
X43209523Y-117976580D02*
X43133333Y-118052771D01*
X43133333Y-118052771D02*
X43057142Y-118090866D01*
X44200000Y-117862295D02*
X44047619Y-117862295D01*
X44047619Y-117862295D02*
X43971428Y-117900390D01*
X43971428Y-117900390D02*
X43933333Y-117938485D01*
X43933333Y-117938485D02*
X43857143Y-118052771D01*
X43857143Y-118052771D02*
X43819047Y-118205152D01*
X43819047Y-118205152D02*
X43819047Y-118509914D01*
X43819047Y-118509914D02*
X43857143Y-118586104D01*
X43857143Y-118586104D02*
X43895238Y-118624200D01*
X43895238Y-118624200D02*
X43971428Y-118662295D01*
X43971428Y-118662295D02*
X44123809Y-118662295D01*
X44123809Y-118662295D02*
X44200000Y-118624200D01*
X44200000Y-118624200D02*
X44238095Y-118586104D01*
X44238095Y-118586104D02*
X44276190Y-118509914D01*
X44276190Y-118509914D02*
X44276190Y-118319438D01*
X44276190Y-118319438D02*
X44238095Y-118243247D01*
X44238095Y-118243247D02*
X44200000Y-118205152D01*
X44200000Y-118205152D02*
X44123809Y-118167057D01*
X44123809Y-118167057D02*
X43971428Y-118167057D01*
X43971428Y-118167057D02*
X43895238Y-118205152D01*
X43895238Y-118205152D02*
X43857143Y-118243247D01*
X43857143Y-118243247D02*
X43819047Y-118319438D01*
X30738095Y-56704819D02*
X30738095Y-55704819D01*
X30738095Y-56181009D02*
X31309523Y-56181009D01*
X31309523Y-56704819D02*
X31309523Y-55704819D01*
X31738095Y-55800057D02*
X31785714Y-55752438D01*
X31785714Y-55752438D02*
X31880952Y-55704819D01*
X31880952Y-55704819D02*
X32119047Y-55704819D01*
X32119047Y-55704819D02*
X32214285Y-55752438D01*
X32214285Y-55752438D02*
X32261904Y-55800057D01*
X32261904Y-55800057D02*
X32309523Y-55895295D01*
X32309523Y-55895295D02*
X32309523Y-55990533D01*
X32309523Y-55990533D02*
X32261904Y-56133390D01*
X32261904Y-56133390D02*
X31690476Y-56704819D01*
X31690476Y-56704819D02*
X32309523Y-56704819D01*
X30738095Y-143204819D02*
X30738095Y-142204819D01*
X30738095Y-142681009D02*
X31309523Y-142681009D01*
X31309523Y-143204819D02*
X31309523Y-142204819D01*
X32214285Y-142538152D02*
X32214285Y-143204819D01*
X31976190Y-142157200D02*
X31738095Y-142871485D01*
X31738095Y-142871485D02*
X32357142Y-142871485D01*
X98961904Y-95932438D02*
X98866666Y-95884819D01*
X98866666Y-95884819D02*
X98723809Y-95884819D01*
X98723809Y-95884819D02*
X98580952Y-95932438D01*
X98580952Y-95932438D02*
X98485714Y-96027676D01*
X98485714Y-96027676D02*
X98438095Y-96122914D01*
X98438095Y-96122914D02*
X98390476Y-96313390D01*
X98390476Y-96313390D02*
X98390476Y-96456247D01*
X98390476Y-96456247D02*
X98438095Y-96646723D01*
X98438095Y-96646723D02*
X98485714Y-96741961D01*
X98485714Y-96741961D02*
X98580952Y-96837200D01*
X98580952Y-96837200D02*
X98723809Y-96884819D01*
X98723809Y-96884819D02*
X98819047Y-96884819D01*
X98819047Y-96884819D02*
X98961904Y-96837200D01*
X98961904Y-96837200D02*
X99009523Y-96789580D01*
X99009523Y-96789580D02*
X99009523Y-96456247D01*
X99009523Y-96456247D02*
X98819047Y-96456247D01*
X99438095Y-96884819D02*
X99438095Y-95884819D01*
X99438095Y-95884819D02*
X100009523Y-96884819D01*
X100009523Y-96884819D02*
X100009523Y-95884819D01*
X100485714Y-96884819D02*
X100485714Y-95884819D01*
X100485714Y-95884819D02*
X100723809Y-95884819D01*
X100723809Y-95884819D02*
X100866666Y-95932438D01*
X100866666Y-95932438D02*
X100961904Y-96027676D01*
X100961904Y-96027676D02*
X101009523Y-96122914D01*
X101009523Y-96122914D02*
X101057142Y-96313390D01*
X101057142Y-96313390D02*
X101057142Y-96456247D01*
X101057142Y-96456247D02*
X101009523Y-96646723D01*
X101009523Y-96646723D02*
X100961904Y-96741961D01*
X100961904Y-96741961D02*
X100866666Y-96837200D01*
X100866666Y-96837200D02*
X100723809Y-96884819D01*
X100723809Y-96884819D02*
X100485714Y-96884819D01*
X102009523Y-96884819D02*
X101438095Y-96884819D01*
X101723809Y-96884819D02*
X101723809Y-95884819D01*
X101723809Y-95884819D02*
X101628571Y-96027676D01*
X101628571Y-96027676D02*
X101533333Y-96122914D01*
X101533333Y-96122914D02*
X101438095Y-96170533D01*
X109738095Y-143204819D02*
X109738095Y-142204819D01*
X109738095Y-142681009D02*
X110309523Y-142681009D01*
X110309523Y-143204819D02*
X110309523Y-142204819D01*
X110690476Y-142204819D02*
X111309523Y-142204819D01*
X111309523Y-142204819D02*
X110976190Y-142585771D01*
X110976190Y-142585771D02*
X111119047Y-142585771D01*
X111119047Y-142585771D02*
X111214285Y-142633390D01*
X111214285Y-142633390D02*
X111261904Y-142681009D01*
X111261904Y-142681009D02*
X111309523Y-142776247D01*
X111309523Y-142776247D02*
X111309523Y-143014342D01*
X111309523Y-143014342D02*
X111261904Y-143109580D01*
X111261904Y-143109580D02*
X111214285Y-143157200D01*
X111214285Y-143157200D02*
X111119047Y-143204819D01*
X111119047Y-143204819D02*
X110833333Y-143204819D01*
X110833333Y-143204819D02*
X110738095Y-143157200D01*
X110738095Y-143157200D02*
X110690476Y-143109580D01*
X43190476Y-96684819D02*
X43523809Y-97684819D01*
X43523809Y-97684819D02*
X43857142Y-96684819D01*
X44761904Y-97589580D02*
X44714285Y-97637200D01*
X44714285Y-97637200D02*
X44571428Y-97684819D01*
X44571428Y-97684819D02*
X44476190Y-97684819D01*
X44476190Y-97684819D02*
X44333333Y-97637200D01*
X44333333Y-97637200D02*
X44238095Y-97541961D01*
X44238095Y-97541961D02*
X44190476Y-97446723D01*
X44190476Y-97446723D02*
X44142857Y-97256247D01*
X44142857Y-97256247D02*
X44142857Y-97113390D01*
X44142857Y-97113390D02*
X44190476Y-96922914D01*
X44190476Y-96922914D02*
X44238095Y-96827676D01*
X44238095Y-96827676D02*
X44333333Y-96732438D01*
X44333333Y-96732438D02*
X44476190Y-96684819D01*
X44476190Y-96684819D02*
X44571428Y-96684819D01*
X44571428Y-96684819D02*
X44714285Y-96732438D01*
X44714285Y-96732438D02*
X44761904Y-96780057D01*
X45761904Y-97589580D02*
X45714285Y-97637200D01*
X45714285Y-97637200D02*
X45571428Y-97684819D01*
X45571428Y-97684819D02*
X45476190Y-97684819D01*
X45476190Y-97684819D02*
X45333333Y-97637200D01*
X45333333Y-97637200D02*
X45238095Y-97541961D01*
X45238095Y-97541961D02*
X45190476Y-97446723D01*
X45190476Y-97446723D02*
X45142857Y-97256247D01*
X45142857Y-97256247D02*
X45142857Y-97113390D01*
X45142857Y-97113390D02*
X45190476Y-96922914D01*
X45190476Y-96922914D02*
X45238095Y-96827676D01*
X45238095Y-96827676D02*
X45333333Y-96732438D01*
X45333333Y-96732438D02*
X45476190Y-96684819D01*
X45476190Y-96684819D02*
X45571428Y-96684819D01*
X45571428Y-96684819D02*
X45714285Y-96732438D01*
X45714285Y-96732438D02*
X45761904Y-96780057D01*
X46714285Y-97684819D02*
X46142857Y-97684819D01*
X46428571Y-97684819D02*
X46428571Y-96684819D01*
X46428571Y-96684819D02*
X46333333Y-96827676D01*
X46333333Y-96827676D02*
X46238095Y-96922914D01*
X46238095Y-96922914D02*
X46142857Y-96970533D01*
X43661905Y-110862295D02*
X43661905Y-110062295D01*
X44195238Y-110062295D02*
X44347619Y-110062295D01*
X44347619Y-110062295D02*
X44423809Y-110100390D01*
X44423809Y-110100390D02*
X44500000Y-110176580D01*
X44500000Y-110176580D02*
X44538095Y-110328961D01*
X44538095Y-110328961D02*
X44538095Y-110595628D01*
X44538095Y-110595628D02*
X44500000Y-110748009D01*
X44500000Y-110748009D02*
X44423809Y-110824200D01*
X44423809Y-110824200D02*
X44347619Y-110862295D01*
X44347619Y-110862295D02*
X44195238Y-110862295D01*
X44195238Y-110862295D02*
X44119047Y-110824200D01*
X44119047Y-110824200D02*
X44042857Y-110748009D01*
X44042857Y-110748009D02*
X44004761Y-110595628D01*
X44004761Y-110595628D02*
X44004761Y-110328961D01*
X44004761Y-110328961D02*
X44042857Y-110176580D01*
X44042857Y-110176580D02*
X44119047Y-110100390D01*
X44119047Y-110100390D02*
X44195238Y-110062295D01*
X44804761Y-110062295D02*
X45299999Y-110062295D01*
X45299999Y-110062295D02*
X45033333Y-110367057D01*
X45033333Y-110367057D02*
X45147618Y-110367057D01*
X45147618Y-110367057D02*
X45223809Y-110405152D01*
X45223809Y-110405152D02*
X45261904Y-110443247D01*
X45261904Y-110443247D02*
X45299999Y-110519438D01*
X45299999Y-110519438D02*
X45299999Y-110709914D01*
X45299999Y-110709914D02*
X45261904Y-110786104D01*
X45261904Y-110786104D02*
X45223809Y-110824200D01*
X45223809Y-110824200D02*
X45147618Y-110862295D01*
X45147618Y-110862295D02*
X44919047Y-110862295D01*
X44919047Y-110862295D02*
X44842856Y-110824200D01*
X44842856Y-110824200D02*
X44804761Y-110786104D01*
X46023809Y-110062295D02*
X45642857Y-110062295D01*
X45642857Y-110062295D02*
X45604761Y-110443247D01*
X45604761Y-110443247D02*
X45642857Y-110405152D01*
X45642857Y-110405152D02*
X45719047Y-110367057D01*
X45719047Y-110367057D02*
X45909523Y-110367057D01*
X45909523Y-110367057D02*
X45985714Y-110405152D01*
X45985714Y-110405152D02*
X46023809Y-110443247D01*
X46023809Y-110443247D02*
X46061904Y-110519438D01*
X46061904Y-110519438D02*
X46061904Y-110709914D01*
X46061904Y-110709914D02*
X46023809Y-110786104D01*
X46023809Y-110786104D02*
X45985714Y-110824200D01*
X45985714Y-110824200D02*
X45909523Y-110862295D01*
X45909523Y-110862295D02*
X45719047Y-110862295D01*
X45719047Y-110862295D02*
X45642857Y-110824200D01*
X45642857Y-110824200D02*
X45604761Y-110786104D01*
X46404762Y-110557533D02*
X47014286Y-110557533D01*
X47852381Y-110862295D02*
X47585714Y-110481342D01*
X47395238Y-110862295D02*
X47395238Y-110062295D01*
X47395238Y-110062295D02*
X47700000Y-110062295D01*
X47700000Y-110062295D02*
X47776190Y-110100390D01*
X47776190Y-110100390D02*
X47814285Y-110138485D01*
X47814285Y-110138485D02*
X47852381Y-110214676D01*
X47852381Y-110214676D02*
X47852381Y-110328961D01*
X47852381Y-110328961D02*
X47814285Y-110405152D01*
X47814285Y-110405152D02*
X47776190Y-110443247D01*
X47776190Y-110443247D02*
X47700000Y-110481342D01*
X47700000Y-110481342D02*
X47395238Y-110481342D01*
X48119047Y-110062295D02*
X48652381Y-110862295D01*
X48652381Y-110062295D02*
X48119047Y-110862295D01*
X49376190Y-110862295D02*
X48919047Y-110862295D01*
X49147619Y-110862295D02*
X49147619Y-110062295D01*
X49147619Y-110062295D02*
X49071428Y-110176580D01*
X49071428Y-110176580D02*
X48995238Y-110252771D01*
X48995238Y-110252771D02*
X48919047Y-110290866D01*
X39723809Y-112924200D02*
X39838095Y-112962295D01*
X39838095Y-112962295D02*
X40028571Y-112962295D01*
X40028571Y-112962295D02*
X40104762Y-112924200D01*
X40104762Y-112924200D02*
X40142857Y-112886104D01*
X40142857Y-112886104D02*
X40180952Y-112809914D01*
X40180952Y-112809914D02*
X40180952Y-112733723D01*
X40180952Y-112733723D02*
X40142857Y-112657533D01*
X40142857Y-112657533D02*
X40104762Y-112619438D01*
X40104762Y-112619438D02*
X40028571Y-112581342D01*
X40028571Y-112581342D02*
X39876190Y-112543247D01*
X39876190Y-112543247D02*
X39800000Y-112505152D01*
X39800000Y-112505152D02*
X39761905Y-112467057D01*
X39761905Y-112467057D02*
X39723809Y-112390866D01*
X39723809Y-112390866D02*
X39723809Y-112314676D01*
X39723809Y-112314676D02*
X39761905Y-112238485D01*
X39761905Y-112238485D02*
X39800000Y-112200390D01*
X39800000Y-112200390D02*
X39876190Y-112162295D01*
X39876190Y-112162295D02*
X40066667Y-112162295D01*
X40066667Y-112162295D02*
X40180952Y-112200390D01*
X40447619Y-112162295D02*
X40942857Y-112162295D01*
X40942857Y-112162295D02*
X40676191Y-112467057D01*
X40676191Y-112467057D02*
X40790476Y-112467057D01*
X40790476Y-112467057D02*
X40866667Y-112505152D01*
X40866667Y-112505152D02*
X40904762Y-112543247D01*
X40904762Y-112543247D02*
X40942857Y-112619438D01*
X40942857Y-112619438D02*
X40942857Y-112809914D01*
X40942857Y-112809914D02*
X40904762Y-112886104D01*
X40904762Y-112886104D02*
X40866667Y-112924200D01*
X40866667Y-112924200D02*
X40790476Y-112962295D01*
X40790476Y-112962295D02*
X40561905Y-112962295D01*
X40561905Y-112962295D02*
X40485714Y-112924200D01*
X40485714Y-112924200D02*
X40447619Y-112886104D01*
X41285715Y-112657533D02*
X41895239Y-112657533D01*
X42276191Y-112962295D02*
X42276191Y-112162295D01*
X42809524Y-112162295D02*
X42961905Y-112162295D01*
X42961905Y-112162295D02*
X43038095Y-112200390D01*
X43038095Y-112200390D02*
X43114286Y-112276580D01*
X43114286Y-112276580D02*
X43152381Y-112428961D01*
X43152381Y-112428961D02*
X43152381Y-112695628D01*
X43152381Y-112695628D02*
X43114286Y-112848009D01*
X43114286Y-112848009D02*
X43038095Y-112924200D01*
X43038095Y-112924200D02*
X42961905Y-112962295D01*
X42961905Y-112962295D02*
X42809524Y-112962295D01*
X42809524Y-112962295D02*
X42733333Y-112924200D01*
X42733333Y-112924200D02*
X42657143Y-112848009D01*
X42657143Y-112848009D02*
X42619047Y-112695628D01*
X42619047Y-112695628D02*
X42619047Y-112428961D01*
X42619047Y-112428961D02*
X42657143Y-112276580D01*
X42657143Y-112276580D02*
X42733333Y-112200390D01*
X42733333Y-112200390D02*
X42809524Y-112162295D01*
X43914285Y-112962295D02*
X43457142Y-112962295D01*
X43685714Y-112962295D02*
X43685714Y-112162295D01*
X43685714Y-112162295D02*
X43609523Y-112276580D01*
X43609523Y-112276580D02*
X43533333Y-112352771D01*
X43533333Y-112352771D02*
X43457142Y-112390866D01*
X44180952Y-112162295D02*
X44714286Y-112162295D01*
X44714286Y-112162295D02*
X44371428Y-112962295D01*
X109738095Y-56704819D02*
X109738095Y-55704819D01*
X109738095Y-56181009D02*
X110309523Y-56181009D01*
X110309523Y-56704819D02*
X110309523Y-55704819D01*
X111309523Y-56704819D02*
X110738095Y-56704819D01*
X111023809Y-56704819D02*
X111023809Y-55704819D01*
X111023809Y-55704819D02*
X110928571Y-55847676D01*
X110928571Y-55847676D02*
X110833333Y-55942914D01*
X110833333Y-55942914D02*
X110738095Y-55990533D01*
X85666666Y-96464819D02*
X85666666Y-97179104D01*
X85666666Y-97179104D02*
X85619047Y-97321961D01*
X85619047Y-97321961D02*
X85523809Y-97417200D01*
X85523809Y-97417200D02*
X85380952Y-97464819D01*
X85380952Y-97464819D02*
X85285714Y-97464819D01*
X86571428Y-96464819D02*
X86380952Y-96464819D01*
X86380952Y-96464819D02*
X86285714Y-96512438D01*
X86285714Y-96512438D02*
X86238095Y-96560057D01*
X86238095Y-96560057D02*
X86142857Y-96702914D01*
X86142857Y-96702914D02*
X86095238Y-96893390D01*
X86095238Y-96893390D02*
X86095238Y-97274342D01*
X86095238Y-97274342D02*
X86142857Y-97369580D01*
X86142857Y-97369580D02*
X86190476Y-97417200D01*
X86190476Y-97417200D02*
X86285714Y-97464819D01*
X86285714Y-97464819D02*
X86476190Y-97464819D01*
X86476190Y-97464819D02*
X86571428Y-97417200D01*
X86571428Y-97417200D02*
X86619047Y-97369580D01*
X86619047Y-97369580D02*
X86666666Y-97274342D01*
X86666666Y-97274342D02*
X86666666Y-97036247D01*
X86666666Y-97036247D02*
X86619047Y-96941009D01*
X86619047Y-96941009D02*
X86571428Y-96893390D01*
X86571428Y-96893390D02*
X86476190Y-96845771D01*
X86476190Y-96845771D02*
X86285714Y-96845771D01*
X86285714Y-96845771D02*
X86190476Y-96893390D01*
X86190476Y-96893390D02*
X86142857Y-96941009D01*
X86142857Y-96941009D02*
X86095238Y-97036247D01*
X39546666Y-82954819D02*
X39546666Y-83669104D01*
X39546666Y-83669104D02*
X39499047Y-83811961D01*
X39499047Y-83811961D02*
X39403809Y-83907200D01*
X39403809Y-83907200D02*
X39260952Y-83954819D01*
X39260952Y-83954819D02*
X39165714Y-83954819D01*
X40546666Y-83954819D02*
X39975238Y-83954819D01*
X40260952Y-83954819D02*
X40260952Y-82954819D01*
X40260952Y-82954819D02*
X40165714Y-83097676D01*
X40165714Y-83097676D02*
X40070476Y-83192914D01*
X40070476Y-83192914D02*
X39975238Y-83240533D01*
X55914819Y-83603333D02*
X56629104Y-83603333D01*
X56629104Y-83603333D02*
X56771961Y-83650952D01*
X56771961Y-83650952D02*
X56867200Y-83746190D01*
X56867200Y-83746190D02*
X56914819Y-83889047D01*
X56914819Y-83889047D02*
X56914819Y-83984285D01*
X56010057Y-83174761D02*
X55962438Y-83127142D01*
X55962438Y-83127142D02*
X55914819Y-83031904D01*
X55914819Y-83031904D02*
X55914819Y-82793809D01*
X55914819Y-82793809D02*
X55962438Y-82698571D01*
X55962438Y-82698571D02*
X56010057Y-82650952D01*
X56010057Y-82650952D02*
X56105295Y-82603333D01*
X56105295Y-82603333D02*
X56200533Y-82603333D01*
X56200533Y-82603333D02*
X56343390Y-82650952D01*
X56343390Y-82650952D02*
X56914819Y-83222380D01*
X56914819Y-83222380D02*
X56914819Y-82603333D01*
X88874819Y-83603333D02*
X89589104Y-83603333D01*
X89589104Y-83603333D02*
X89731961Y-83650952D01*
X89731961Y-83650952D02*
X89827200Y-83746190D01*
X89827200Y-83746190D02*
X89874819Y-83889047D01*
X89874819Y-83889047D02*
X89874819Y-83984285D01*
X89208152Y-82698571D02*
X89874819Y-82698571D01*
X88827200Y-82936666D02*
X89541485Y-83174761D01*
X89541485Y-83174761D02*
X89541485Y-82555714D01*
X72374819Y-83563333D02*
X73089104Y-83563333D01*
X73089104Y-83563333D02*
X73231961Y-83610952D01*
X73231961Y-83610952D02*
X73327200Y-83706190D01*
X73327200Y-83706190D02*
X73374819Y-83849047D01*
X73374819Y-83849047D02*
X73374819Y-83944285D01*
X72374819Y-83182380D02*
X72374819Y-82563333D01*
X72374819Y-82563333D02*
X72755771Y-82896666D01*
X72755771Y-82896666D02*
X72755771Y-82753809D01*
X72755771Y-82753809D02*
X72803390Y-82658571D01*
X72803390Y-82658571D02*
X72851009Y-82610952D01*
X72851009Y-82610952D02*
X72946247Y-82563333D01*
X72946247Y-82563333D02*
X73184342Y-82563333D01*
X73184342Y-82563333D02*
X73279580Y-82610952D01*
X73279580Y-82610952D02*
X73327200Y-82658571D01*
X73327200Y-82658571D02*
X73374819Y-82753809D01*
X73374819Y-82753809D02*
X73374819Y-83039523D01*
X73374819Y-83039523D02*
X73327200Y-83134761D01*
X73327200Y-83134761D02*
X73279580Y-83182380D01*
%TO.C,J5*%
D13*
X59270000Y-101050000D02*
X59270000Y-146830000D01*
X59270000Y-101050000D02*
X61930000Y-101050000D01*
X59270000Y-146830000D02*
X61930000Y-146830000D01*
X60600000Y-98450000D02*
X61930000Y-98450000D01*
X61930000Y-98450000D02*
X61930000Y-99780000D01*
X61930000Y-101050000D02*
X61930000Y-146830000D01*
%TO.C,IO32-TX1*%
X44670000Y-119710000D02*
X44670000Y-119830000D01*
X44670000Y-119830000D02*
X47330000Y-119830000D01*
X46000000Y-117170000D02*
X47330000Y-117170000D01*
X47330000Y-117170000D02*
X47330000Y-118500000D01*
X47330000Y-119710000D02*
X47330000Y-119830000D01*
%TO.C,GND1*%
X98870000Y-100410000D02*
X98870000Y-100530000D01*
X98870000Y-100530000D02*
X101530000Y-100530000D01*
X100200000Y-97870000D02*
X101530000Y-97870000D01*
X101530000Y-97870000D02*
X101530000Y-99200000D01*
X101530000Y-100410000D02*
X101530000Y-100530000D01*
%TO.C,VCC1*%
X43670000Y-101210000D02*
X43670000Y-101330000D01*
X43670000Y-101330000D02*
X46330000Y-101330000D01*
X45000000Y-98670000D02*
X46330000Y-98670000D01*
X46330000Y-98670000D02*
X46330000Y-100000000D01*
X46330000Y-101210000D02*
X46330000Y-101330000D01*
%TO.C,IO35-RX1*%
X44670000Y-113710000D02*
X44670000Y-113830000D01*
X44670000Y-113830000D02*
X47330000Y-113830000D01*
X46000000Y-111170000D02*
X47330000Y-111170000D01*
X47330000Y-111170000D02*
X47330000Y-112500000D01*
X47330000Y-113710000D02*
X47330000Y-113830000D01*
%TO.C,J6*%
X84670000Y-101050000D02*
X84670000Y-146830000D01*
X84670000Y-101050000D02*
X87330000Y-101050000D01*
X84670000Y-146830000D02*
X87330000Y-146830000D01*
X86000000Y-98450000D02*
X87330000Y-98450000D01*
X87330000Y-98450000D02*
X87330000Y-99780000D01*
X87330000Y-101050000D02*
X87330000Y-146830000D01*
%TD*%
M02*
