M48
; DRILL file KiCad 10.0.0 date 2026-04-21T21:47:33
; FORMAT={-:-/ absolute / metric / decimal}
; #@! TF.CreationDate,2026-04-21T21:47:33+03:00
; #@! TF.GenerationSoftware,Kicad,Pcbnew,10.0.0
; #@! TF.FileFunction,Plated,1,2,PTH
FMAT,2
METRIC
; #@! TA.AperFunction,Plated,PTH,ViaDrill
T1C0.300
; #@! TA.AperFunction,Plated,PTH,ComponentDrill
T2C1.000
%
G90
G05
T1
X36.5Y-129.5
X37.0Y-79.0
X38.0Y-81.0
X38.5Y-120.5
X42.0Y-76.5
X45.0Y-77.5
X46.0Y-90.0
X48.5Y-95.0
X51.0Y-88.5
X51.0Y-127.0
X60.5Y-95.0
X62.5Y-92.0
X63.5Y-77.5
X64.5Y-74.0
X66.0Y-134.0
X66.85Y-87.15
X72.0Y-77.0
X73.0Y-90.5
X75.0Y-137.5
X76.5Y-127.0
X77.0Y-93.0
X77.5Y-79.0
X79.5Y-116.0
X80.0Y-124.5
X81.5Y-78.0
X81.5Y-90.0
X81.5Y-116.5
X85.5Y-91.5
X94.73Y-103.27
X95.5Y-77.0
X96.5Y-90.0
X97.0Y-78.0
X97.5Y-91.5
X97.5Y-115.0
X105.5Y-78.5
X105.5Y-99.0
X105.5Y-112.0
X106.5Y-129.5
X107.0Y-78.0
X109.0Y-78.0
T2
X42.65Y-82.23
X42.65Y-84.77
X45.0Y-100.0
X45.19Y-82.23
X45.19Y-84.77
X46.0Y-112.5
X46.0Y-118.5
X47.73Y-82.23
X47.73Y-84.77
X50.27Y-82.23
X50.27Y-84.77
X59.23Y-82.0
X59.23Y-84.54
X60.6Y-99.78
X60.6Y-102.32
X60.6Y-104.86
X60.6Y-107.4
X60.6Y-109.94
X60.6Y-112.48
X60.6Y-115.02
X60.6Y-117.56
X60.6Y-120.1
X60.6Y-122.64
X60.6Y-125.18
X60.6Y-127.72
X60.6Y-130.26
X60.6Y-132.8
X60.6Y-135.34
X60.6Y-137.88
X60.6Y-140.42
X60.6Y-142.96
X60.6Y-145.5
X61.77Y-82.0
X61.77Y-84.54
X64.31Y-82.0
X64.31Y-84.54
X66.85Y-82.0
X66.85Y-84.54
X75.69Y-81.96
X75.69Y-84.5
X78.23Y-81.96
X78.23Y-84.5
X80.77Y-81.96
X80.77Y-84.5
X83.31Y-81.96
X83.31Y-84.5
X86.0Y-99.78
X86.0Y-102.32
X86.0Y-104.86
X86.0Y-107.4
X86.0Y-109.94
X86.0Y-112.48
X86.0Y-115.02
X86.0Y-117.56
X86.0Y-120.1
X86.0Y-122.64
X86.0Y-125.18
X86.0Y-127.72
X86.0Y-130.26
X86.0Y-132.8
X86.0Y-135.34
X86.0Y-137.88
X86.0Y-140.42
X86.0Y-142.96
X86.0Y-145.5
X92.19Y-82.0
X92.19Y-84.54
X94.73Y-82.0
X94.73Y-84.54
X97.27Y-82.0
X97.27Y-84.54
X99.81Y-82.0
X99.81Y-84.54
X100.2Y-99.2
M30
