%TF.GenerationSoftware,KiCad,Pcbnew,10.0.0*%
%TF.CreationDate,2026-04-21T21:47:32+03:00*%
%TF.ProjectId,try1,74727931-2e6b-4696-9361-645f70636258,rev?*%
%TF.SameCoordinates,Original*%
%TF.FileFunction,Legend,Bot*%
%TF.FilePolarity,Positive*%
%FSLAX46Y46*%
G04 Gerber Fmt 4.6, Leading zero omitted, Abs format (unit mm)*
G04 Created by KiCad (PCBNEW 10.0.0) date 2026-04-21 21:47:32*
%MOMM*%
%LPD*%
G01*
G04 APERTURE LIST*
%ADD10C,0.120000*%
G04 APERTURE END LIST*
%TO.C,J1*%
D10*
X41320000Y-80900000D02*
X41320000Y-83500000D01*
X41320000Y-80900000D02*
X51600000Y-80900000D01*
X41320000Y-83500000D02*
X43920000Y-83500000D01*
X41320000Y-84770000D02*
X41320000Y-86100000D01*
X41320000Y-86100000D02*
X42650000Y-86100000D01*
X43920000Y-83500000D02*
X43920000Y-86100000D01*
X43920000Y-86100000D02*
X51600000Y-86100000D01*
X51600000Y-80900000D02*
X51600000Y-86100000D01*
%TO.C,J2*%
X57900000Y-80670000D02*
X57900000Y-83270000D01*
X57900000Y-80670000D02*
X68180000Y-80670000D01*
X57900000Y-83270000D02*
X60500000Y-83270000D01*
X57900000Y-84540000D02*
X57900000Y-85870000D01*
X57900000Y-85870000D02*
X59230000Y-85870000D01*
X60500000Y-83270000D02*
X60500000Y-85870000D01*
X60500000Y-85870000D02*
X68180000Y-85870000D01*
X68180000Y-80670000D02*
X68180000Y-85870000D01*
%TO.C,J4*%
X90860000Y-80670000D02*
X90860000Y-83270000D01*
X90860000Y-80670000D02*
X101140000Y-80670000D01*
X90860000Y-83270000D02*
X93460000Y-83270000D01*
X90860000Y-84540000D02*
X90860000Y-85870000D01*
X90860000Y-85870000D02*
X92190000Y-85870000D01*
X93460000Y-83270000D02*
X93460000Y-85870000D01*
X93460000Y-85870000D02*
X101140000Y-85870000D01*
X101140000Y-80670000D02*
X101140000Y-85870000D01*
%TO.C,J3*%
X74360000Y-80630000D02*
X74360000Y-83230000D01*
X74360000Y-80630000D02*
X84640000Y-80630000D01*
X74360000Y-83230000D02*
X76960000Y-83230000D01*
X74360000Y-84500000D02*
X74360000Y-85830000D01*
X74360000Y-85830000D02*
X75690000Y-85830000D01*
X76960000Y-83230000D02*
X76960000Y-85830000D01*
X76960000Y-85830000D02*
X84640000Y-85830000D01*
X84640000Y-80630000D02*
X84640000Y-85830000D01*
%TD*%
M02*
