%TF.GenerationSoftware,KiCad,Pcbnew,10.0.0*%
%TF.CreationDate,2026-04-21T21:47:32+03:00*%
%TF.ProjectId,try1,74727931-2e6b-4696-9361-645f70636258,rev?*%
%TF.SameCoordinates,Original*%
%TF.FileFunction,Copper,L2,Bot*%
%TF.FilePolarity,Positive*%
%FSLAX46Y46*%
G04 Gerber Fmt 4.6, Leading zero omitted, Abs format (unit mm)*
G04 Created by KiCad (PCBNEW 10.0.0) date 2026-04-21 21:47:32*
%MOMM*%
%LPD*%
G01*
G04 APERTURE LIST*
%TA.AperFunction,ComponentPad*%
%ADD10R,1.700000X1.700000*%
%TD*%
%TA.AperFunction,ComponentPad*%
%ADD11C,1.700000*%
%TD*%
%TA.AperFunction,ViaPad*%
%ADD12C,0.600000*%
%TD*%
%TA.AperFunction,Conductor*%
%ADD13C,0.300000*%
%TD*%
G04 APERTURE END LIST*
D10*
%TO.P,J5,1,Pin_1_1*%
%TO.N,/3V3*%
X60600000Y-99780000D03*
D11*
%TO.P,J5,2,Pin_2_2*%
%TO.N,unconnected-(J5-Pin_2-Pad2)*%
X60600000Y-102320000D03*
%TO.P,J5,3,Pin_3_3*%
%TO.N,unconnected-(J5-Pin_3-Pad3)*%
X60600000Y-104860000D03*
%TO.P,J5,4,Pin_4_4*%
%TO.N,unconnected-(J5-Pin_4-Pad4)*%
X60600000Y-107400000D03*
%TO.P,J5,5,Pin_5_5*%
%TO.N,unconnected-(J5-Pin_5-Pad5)*%
X60600000Y-109940000D03*
%TO.P,J5,6,Pin_6_6*%
%TO.N,Net-(J5-Pin_6)*%
X60600000Y-112480000D03*
%TO.P,J5,7,Pin_7_7*%
%TO.N,Net-(J5-Pin_7)*%
X60600000Y-115020000D03*
%TO.P,J5,8,Pin_8_8*%
%TO.N,unconnected-(J5-Pin_8-Pad8)*%
X60600000Y-117560000D03*
%TO.P,J5,9,Pin_9_9*%
%TO.N,Net-(J3-CE)*%
X60600000Y-120100000D03*
%TO.P,J5,10,Pin_10_10*%
%TO.N,Net-(J3-CSN)*%
X60600000Y-122640000D03*
%TO.P,J5,11,Pin_11_11*%
%TO.N,unconnected-(J5-Pin_11-Pad11)*%
X60600000Y-125180000D03*
%TO.P,J5,12,Pin_12_12*%
%TO.N,/HSPI_SCK*%
X60600000Y-127720000D03*
%TO.P,J5,13,Pin_13_13*%
%TO.N,/HSPI_MOSI*%
X60600000Y-130260000D03*
%TO.P,J5,14,Pin_14_14*%
%TO.N,unconnected-(J5-Pin_14-Pad14)*%
X60600000Y-132800000D03*
%TO.P,J5,15,Pin_15_15*%
%TO.N,/HSPI_MISO*%
X60600000Y-135340000D03*
%TO.P,J5,16,Pin_16_16*%
%TO.N,unconnected-(J5-Pin_16-Pad16)*%
X60600000Y-137880000D03*
%TO.P,J5,17,Pin_17_17*%
%TO.N,unconnected-(J5-Pin_17-Pad17)*%
X60600000Y-140420000D03*
%TO.P,J5,18,Pin_18_18*%
%TO.N,unconnected-(J5-Pin_18-Pad18)*%
X60600000Y-142960000D03*
%TO.P,J5,19,Pin_19_19*%
%TO.N,unconnected-(J5-Pin_19-Pad19)*%
X60600000Y-145500000D03*
%TD*%
D10*
%TO.P,IO32-TX1,1,1_1*%
%TO.N,Net-(J5-Pin_7)*%
X46000000Y-118500000D03*
%TD*%
%TO.P,GND1,1,1_1*%
%TO.N,/GND*%
X100200000Y-99200000D03*
%TD*%
%TO.P,VCC1,1,1_1*%
%TO.N,/3V3*%
X45000000Y-100000000D03*
%TD*%
%TO.P,IO35-RX1,1,1_1*%
%TO.N,Net-(J5-Pin_6)*%
X46000000Y-112500000D03*
%TD*%
%TO.P,J6,1,Pin_1_1*%
%TO.N,/GND*%
X86000000Y-99780000D03*
D11*
%TO.P,J6,2,Pin_2_2*%
%TO.N,/VSPI_MOSI*%
X86000000Y-102320000D03*
%TO.P,J6,3,Pin_3_3*%
%TO.N,Net-(J4-CE)*%
X86000000Y-104860000D03*
%TO.P,J6,4,Pin_4_4*%
%TO.N,unconnected-(J6-Pin_4-Pad4)*%
X86000000Y-107400000D03*
%TO.P,J6,5,Pin_5_5*%
%TO.N,unconnected-(J6-Pin_5-Pad5)*%
X86000000Y-109940000D03*
%TO.P,J6,6,Pin_6_6*%
%TO.N,Net-(J4-CSN)*%
X86000000Y-112480000D03*
%TO.P,J6,7,Pin_7_7*%
%TO.N,unconnected-(J6-Pin_7-Pad7)*%
X86000000Y-115020000D03*
%TO.P,J6,8,Pin_8_8*%
%TO.N,/VSPI_MISO*%
X86000000Y-117560000D03*
%TO.P,J6,9,Pin_9_9*%
%TO.N,/VSPI_SCK*%
X86000000Y-120100000D03*
%TO.P,J6,10,Pin_10_10*%
%TO.N,unconnected-(J6-Pin_10-Pad10)*%
X86000000Y-122640000D03*
%TO.P,J6,11,Pin_11_11*%
%TO.N,Net-(J2-CE)*%
X86000000Y-125180000D03*
%TO.P,J6,12,Pin_12_12*%
%TO.N,Net-(J1-CE)*%
X86000000Y-127720000D03*
%TO.P,J6,13,Pin_13_13*%
%TO.N,Net-(J2-CSN)*%
X86000000Y-130260000D03*
%TO.P,J6,14,Pin_14_14*%
%TO.N,unconnected-(J6-Pin_14-Pad14)*%
X86000000Y-132800000D03*
%TO.P,J6,15,Pin_15_15*%
%TO.N,unconnected-(J6-Pin_15-Pad15)*%
X86000000Y-135340000D03*
%TO.P,J6,16,Pin_16_16*%
%TO.N,Net-(J1-CSN)*%
X86000000Y-137880000D03*
%TO.P,J6,17,Pin_17_17*%
%TO.N,unconnected-(J6-Pin_17-Pad17)*%
X86000000Y-140420000D03*
%TO.P,J6,18,Pin_18_18*%
%TO.N,unconnected-(J6-Pin_18-Pad18)*%
X86000000Y-142960000D03*
%TO.P,J6,19,Pin_19_19*%
%TO.N,unconnected-(J6-Pin_19-Pad19)*%
X86000000Y-145500000D03*
%TD*%
D10*
%TO.P,J1,1,GND_1*%
%TO.N,/GND*%
X42650000Y-84770000D03*
D11*
%TO.P,J1,2,VCC_2*%
%TO.N,/3V3*%
X42650000Y-82230000D03*
%TO.P,J1,3,CE_3*%
%TO.N,Net-(J1-CE)*%
X45190000Y-84770000D03*
%TO.P,J1,4,CSN_4*%
%TO.N,Net-(J1-CSN)*%
X45190000Y-82230000D03*
%TO.P,J1,5,SCK_5*%
%TO.N,/HSPI_SCK*%
X47730000Y-84770000D03*
%TO.P,J1,6,MOSI_6*%
%TO.N,/HSPI_MOSI*%
X47730000Y-82230000D03*
%TO.P,J1,7,MISO_7*%
%TO.N,/HSPI_MISO*%
X50270000Y-84770000D03*
%TO.P,J1,8,IRQ_8*%
%TO.N,unconnected-(J1-IRQ-Pad8)*%
X50270000Y-82230000D03*
%TD*%
D10*
%TO.P,J2,1,GND_1*%
%TO.N,/GND*%
X59230000Y-84540000D03*
D11*
%TO.P,J2,2,VCC_2*%
%TO.N,/3V3*%
X59230000Y-82000000D03*
%TO.P,J2,3,CE_3*%
%TO.N,Net-(J2-CE)*%
X61770000Y-84540000D03*
%TO.P,J2,4,CSN_4*%
%TO.N,Net-(J2-CSN)*%
X61770000Y-82000000D03*
%TO.P,J2,5,SCK_5*%
%TO.N,/HSPI_SCK*%
X64310000Y-84540000D03*
%TO.P,J2,6,MOSI_6*%
%TO.N,/HSPI_MOSI*%
X64310000Y-82000000D03*
%TO.P,J2,7,MISO_7*%
%TO.N,/HSPI_MISO*%
X66850000Y-84540000D03*
%TO.P,J2,8,IRQ_8*%
%TO.N,unconnected-(J2-IRQ-Pad8)*%
X66850000Y-82000000D03*
%TD*%
D10*
%TO.P,J4,1,GND_1*%
%TO.N,/GND*%
X92190000Y-84540000D03*
D11*
%TO.P,J4,2,VCC_2*%
%TO.N,/3V3*%
X92190000Y-82000000D03*
%TO.P,J4,3,CE_3*%
%TO.N,Net-(J4-CE)*%
X94730000Y-84540000D03*
%TO.P,J4,4,CSN_4*%
%TO.N,Net-(J4-CSN)*%
X94730000Y-82000000D03*
%TO.P,J4,5,SCK_5*%
%TO.N,/VSPI_SCK*%
X97270000Y-84540000D03*
%TO.P,J4,6,MOSI_6*%
%TO.N,/VSPI_MOSI*%
X97270000Y-82000000D03*
%TO.P,J4,7,MISO_7*%
%TO.N,/VSPI_MISO*%
X99810000Y-84540000D03*
%TO.P,J4,8,IRQ_8*%
%TO.N,unconnected-(J4-IRQ-Pad8)*%
X99810000Y-82000000D03*
%TD*%
D10*
%TO.P,J3,1,GND_1*%
%TO.N,/GND*%
X75690000Y-84500000D03*
D11*
%TO.P,J3,2,VCC_2*%
%TO.N,/3V3*%
X75690000Y-81960000D03*
%TO.P,J3,3,CE_3*%
%TO.N,Net-(J3-CE)*%
X78230000Y-84500000D03*
%TO.P,J3,4,CSN_4*%
%TO.N,Net-(J3-CSN)*%
X78230000Y-81960000D03*
%TO.P,J3,5,SCK_5*%
%TO.N,/VSPI_SCK*%
X80770000Y-84500000D03*
%TO.P,J3,6,MOSI_6*%
%TO.N,/VSPI_MOSI*%
X80770000Y-81960000D03*
%TO.P,J3,7,MISO_7*%
%TO.N,/VSPI_MISO*%
X83310000Y-84500000D03*
%TO.P,J3,8,IRQ_8*%
%TO.N,unconnected-(J3-IRQ-Pad8)*%
X83310000Y-81960000D03*
%TD*%
D12*
%TO.N,Net-(J3-CE)*%
X79500000Y-116000000D03*
%TO.N,Net-(J3-CSN)*%
X38000000Y-81000000D03*
X38500000Y-120500000D03*
X77500000Y-79000000D03*
%TO.N,/HSPI_SCK*%
X51000000Y-127000000D03*
X60500000Y-95000000D03*
X48500000Y-95000000D03*
%TO.N,/HSPI_MOSI*%
X45000000Y-77500000D03*
X37000000Y-79000000D03*
X36500000Y-129500000D03*
X63500000Y-77500000D03*
%TO.N,/HSPI_MISO*%
X66850000Y-87150000D03*
X51000000Y-88500000D03*
X66000000Y-134000000D03*
%TO.N,/VSPI_MOSI*%
X97000000Y-78000000D03*
X105500000Y-78500000D03*
X105500000Y-99000000D03*
X81500000Y-78000000D03*
%TO.N,Net-(J4-CE)*%
X94730000Y-103270000D03*
%TO.N,Net-(J4-CSN)*%
X95500000Y-77000000D03*
X105500000Y-112000000D03*
X107000000Y-78000000D03*
%TO.N,/VSPI_MISO*%
X97500000Y-115000000D03*
X97500000Y-91500000D03*
X85500000Y-91500000D03*
%TO.N,/VSPI_SCK*%
X81500000Y-90000000D03*
X96500000Y-90000000D03*
X81500000Y-116500000D03*
%TO.N,Net-(J2-CE)*%
X80000000Y-124500000D03*
X77000000Y-93000000D03*
X62500000Y-92000000D03*
%TO.N,Net-(J1-CE)*%
X76500000Y-127000000D03*
X46000000Y-90000000D03*
X73000000Y-90500000D03*
%TO.N,Net-(J2-CSN)*%
X109000000Y-78000000D03*
X64500000Y-74000000D03*
X106500000Y-129500000D03*
%TO.N,Net-(J1-CSN)*%
X75000000Y-137500000D03*
X72000000Y-77000000D03*
X42000000Y-76500000D03*
%TD*%
%TO.N,Net-(J3-CE)*%
D13*
X78230000Y-84500000D02*
X79500000Y-85770000D01*
X79500000Y-85770000D02*
X79500000Y-116000000D01*
%TO.N,Net-(J3-CSN)*%
X38000000Y-120000000D02*
X38500000Y-120500000D01*
X78230000Y-79730000D02*
X77500000Y-79000000D01*
X38000000Y-81000000D02*
X38000000Y-120000000D01*
X78230000Y-81960000D02*
X78230000Y-79730000D01*
%TO.N,/HSPI_SCK*%
X48500000Y-124500000D02*
X51000000Y-127000000D01*
X60500000Y-95000000D02*
X64310000Y-91190000D01*
X48500000Y-95000000D02*
X48500000Y-124500000D01*
X64310000Y-84540000D02*
X64310000Y-91190000D01*
X47730000Y-94230000D02*
X48500000Y-95000000D01*
X47730000Y-84770000D02*
X47730000Y-94230000D01*
%TO.N,/HSPI_MOSI*%
X64310000Y-78310000D02*
X63500000Y-77500000D01*
X36500000Y-129500000D02*
X36500000Y-79500000D01*
X36500000Y-79500000D02*
X37000000Y-79000000D01*
X47730000Y-82230000D02*
X47730000Y-80230000D01*
X47730000Y-80230000D02*
X45000000Y-77500000D01*
X64310000Y-82000000D02*
X64310000Y-78310000D01*
%TO.N,/HSPI_MISO*%
X50270000Y-84770000D02*
X50270000Y-87770000D01*
X66850000Y-133150000D02*
X66000000Y-134000000D01*
X66850000Y-84540000D02*
X66850000Y-133150000D01*
X50270000Y-87770000D02*
X51000000Y-88500000D01*
%TO.N,/VSPI_MOSI*%
X80770000Y-81960000D02*
X80770000Y-78730000D01*
X97270000Y-82000000D02*
X97270000Y-78270000D01*
X80770000Y-78730000D02*
X81500000Y-78000000D01*
X97270000Y-78270000D02*
X97000000Y-78000000D01*
X105500000Y-99000000D02*
X105500000Y-78500000D01*
%TO.N,Net-(J4-CE)*%
X94730000Y-84540000D02*
X94730000Y-103270000D01*
%TO.N,Net-(J4-CSN)*%
X107500000Y-110000000D02*
X105500000Y-112000000D01*
X94730000Y-77770000D02*
X95500000Y-77000000D01*
X107000000Y-78000000D02*
X107500000Y-78500000D01*
X107500000Y-78500000D02*
X107500000Y-110000000D01*
X94730000Y-82000000D02*
X94730000Y-77770000D01*
%TO.N,/VSPI_MISO*%
X99810000Y-84540000D02*
X99810000Y-90190000D01*
X99810000Y-90190000D02*
X98500000Y-91500000D01*
X83310000Y-84500000D02*
X83310000Y-89310000D01*
X97500000Y-91500000D02*
X97500000Y-115000000D01*
X98500000Y-91500000D02*
X97500000Y-91500000D01*
X83310000Y-89310000D02*
X85500000Y-91500000D01*
%TO.N,/VSPI_SCK*%
X80770000Y-84500000D02*
X80770000Y-89270000D01*
X80770000Y-89270000D02*
X81500000Y-90000000D01*
X97270000Y-89230000D02*
X96500000Y-90000000D01*
X97270000Y-84540000D02*
X97270000Y-89230000D01*
X81500000Y-90000000D02*
X81500000Y-116500000D01*
%TO.N,Net-(J2-CE)*%
X61770000Y-84540000D02*
X61770000Y-91270000D01*
X77000000Y-93000000D02*
X77500000Y-93500000D01*
X61770000Y-91270000D02*
X62500000Y-92000000D01*
X77500000Y-122000000D02*
X80000000Y-124500000D01*
X77500000Y-93500000D02*
X77500000Y-122000000D01*
%TO.N,Net-(J1-CE)*%
X74000000Y-124500000D02*
X74000000Y-91500000D01*
X45190000Y-84770000D02*
X45190000Y-89190000D01*
X76500000Y-127000000D02*
X74000000Y-124500000D01*
X45190000Y-89190000D02*
X46000000Y-90000000D01*
X74000000Y-91500000D02*
X73000000Y-90500000D01*
%TO.N,Net-(J2-CSN)*%
X61770000Y-82000000D02*
X61770000Y-76730000D01*
X110000000Y-79000000D02*
X110000000Y-126000000D01*
X110000000Y-126000000D02*
X106500000Y-129500000D01*
X109000000Y-78000000D02*
X110000000Y-79000000D01*
X61770000Y-76730000D02*
X64500000Y-74000000D01*
%TO.N,Net-(J1-CSN)*%
X41000000Y-78040000D02*
X41000000Y-77500000D01*
X72000000Y-77000000D02*
X72000000Y-134500000D01*
X45190000Y-82230000D02*
X41000000Y-78040000D01*
X72000000Y-134500000D02*
X75000000Y-137500000D01*
X41000000Y-77500000D02*
X42000000Y-76500000D01*
%TD*%
%TA.AperFunction,Conductor*%
%TO.N,/GND*%
G36*
X116442539Y-55520185D02*
G01*
X116488294Y-55572989D01*
X116499500Y-55624500D01*
X116499500Y-153875500D01*
X116479815Y-153942539D01*
X116427011Y-153988294D01*
X116375500Y-153999500D01*
X25624500Y-153999500D01*
X25557461Y-153979815D01*
X25511706Y-153927011D01*
X25500500Y-153875500D01*
X25500500Y-147865186D01*
X29099500Y-147865186D01*
X29099500Y-148134813D01*
X29129686Y-148402719D01*
X29129688Y-148402731D01*
X29189684Y-148665594D01*
X29189687Y-148665602D01*
X29278734Y-148920082D01*
X29395714Y-149162994D01*
X29395716Y-149162997D01*
X29539162Y-149391289D01*
X29707266Y-149602085D01*
X29897915Y-149792734D01*
X30108711Y-149960838D01*
X30337003Y-150104284D01*
X30579921Y-150221267D01*
X30771049Y-150288145D01*
X30834397Y-150310312D01*
X30834405Y-150310315D01*
X30834408Y-150310315D01*
X30834409Y-150310316D01*
X31097268Y-150370312D01*
X31365187Y-150400499D01*
X31365188Y-150400500D01*
X31365191Y-150400500D01*
X31634812Y-150400500D01*
X31634812Y-150400499D01*
X31902732Y-150370312D01*
X32165591Y-150310316D01*
X32420079Y-150221267D01*
X32662997Y-150104284D01*
X32891289Y-149960838D01*
X33102085Y-149792734D01*
X33292734Y-149602085D01*
X33460838Y-149391289D01*
X33604284Y-149162997D01*
X33721267Y-148920079D01*
X33810316Y-148665591D01*
X33870312Y-148402732D01*
X33900500Y-148134809D01*
X33900500Y-147865191D01*
X33900499Y-147865186D01*
X108099500Y-147865186D01*
X108099500Y-148134813D01*
X108129686Y-148402719D01*
X108129688Y-148402731D01*
X108189684Y-148665594D01*
X108189687Y-148665602D01*
X108278734Y-148920082D01*
X108395714Y-149162994D01*
X108395716Y-149162997D01*
X108539162Y-149391289D01*
X108707266Y-149602085D01*
X108897915Y-149792734D01*
X109108711Y-149960838D01*
X109337003Y-150104284D01*
X109579921Y-150221267D01*
X109771049Y-150288145D01*
X109834397Y-150310312D01*
X109834405Y-150310315D01*
X109834408Y-150310315D01*
X109834409Y-150310316D01*
X110097268Y-150370312D01*
X110365187Y-150400499D01*
X110365188Y-150400500D01*
X110365191Y-150400500D01*
X110634812Y-150400500D01*
X110634812Y-150400499D01*
X110902732Y-150370312D01*
X111165591Y-150310316D01*
X111420079Y-150221267D01*
X111662997Y-150104284D01*
X111891289Y-149960838D01*
X112102085Y-149792734D01*
X112292734Y-149602085D01*
X112460838Y-149391289D01*
X112604284Y-149162997D01*
X112721267Y-148920079D01*
X112810316Y-148665591D01*
X112870312Y-148402732D01*
X112900500Y-148134809D01*
X112900500Y-147865191D01*
X112870312Y-147597268D01*
X112810316Y-147334409D01*
X112721267Y-147079921D01*
X112604284Y-146837003D01*
X112460838Y-146608711D01*
X112292734Y-146397915D01*
X112102085Y-146207266D01*
X111891289Y-146039162D01*
X111662997Y-145895716D01*
X111662994Y-145895714D01*
X111420082Y-145778734D01*
X111165602Y-145689687D01*
X111165594Y-145689684D01*
X110968446Y-145644687D01*
X110902732Y-145629688D01*
X110902728Y-145629687D01*
X110902719Y-145629686D01*
X110634813Y-145599500D01*
X110634809Y-145599500D01*
X110365191Y-145599500D01*
X110365186Y-145599500D01*
X110097280Y-145629686D01*
X110097268Y-145629688D01*
X109834405Y-145689684D01*
X109834397Y-145689687D01*
X109579917Y-145778734D01*
X109337005Y-145895714D01*
X109108712Y-146039161D01*
X108897915Y-146207265D01*
X108707265Y-146397915D01*
X108539161Y-146608712D01*
X108395714Y-146837005D01*
X108278734Y-147079917D01*
X108189687Y-147334397D01*
X108189684Y-147334405D01*
X108129688Y-147597268D01*
X108129686Y-147597280D01*
X108099500Y-147865186D01*
X33900499Y-147865186D01*
X33870312Y-147597268D01*
X33810316Y-147334409D01*
X33721267Y-147079921D01*
X33604284Y-146837003D01*
X33460838Y-146608711D01*
X33292734Y-146397915D01*
X33102085Y-146207266D01*
X32891289Y-146039162D01*
X32662997Y-145895716D01*
X32662994Y-145895714D01*
X32420082Y-145778734D01*
X32165602Y-145689687D01*
X32165594Y-145689684D01*
X31968446Y-145644687D01*
X31902732Y-145629688D01*
X31902728Y-145629687D01*
X31902719Y-145629686D01*
X31634813Y-145599500D01*
X31634809Y-145599500D01*
X31365191Y-145599500D01*
X31365186Y-145599500D01*
X31097280Y-145629686D01*
X31097268Y-145629688D01*
X30834405Y-145689684D01*
X30834397Y-145689687D01*
X30579917Y-145778734D01*
X30337005Y-145895714D01*
X30108712Y-146039161D01*
X29897915Y-146207265D01*
X29707265Y-146397915D01*
X29539161Y-146608712D01*
X29395714Y-146837005D01*
X29278734Y-147079917D01*
X29189687Y-147334397D01*
X29189684Y-147334405D01*
X29129688Y-147597268D01*
X29129686Y-147597280D01*
X29099500Y-147865186D01*
X25500500Y-147865186D01*
X25500500Y-129421153D01*
X35699500Y-129421153D01*
X35699500Y-129578846D01*
X35730261Y-129733489D01*
X35730264Y-129733501D01*
X35790602Y-129879172D01*
X35790609Y-129879185D01*
X35878210Y-130010288D01*
X35878213Y-130010292D01*
X35989707Y-130121786D01*
X35989711Y-130121789D01*
X36120814Y-130209390D01*
X36120827Y-130209397D01*
X36266498Y-130269735D01*
X36266503Y-130269737D01*
X36421153Y-130300499D01*
X36421156Y-130300500D01*
X36421158Y-130300500D01*
X36578844Y-130300500D01*
X36578845Y-130300499D01*
X36733497Y-130269737D01*
X36879179Y-130209394D01*
X37010289Y-130121789D01*
X37121789Y-130010289D01*
X37209394Y-129879179D01*
X37269737Y-129733497D01*
X37300500Y-129578842D01*
X37300500Y-129421158D01*
X37300500Y-129421155D01*
X37300499Y-129421153D01*
X37269738Y-129266510D01*
X37269737Y-129266503D01*
X37209394Y-129120821D01*
X37171396Y-129063953D01*
X37150520Y-128997276D01*
X37150500Y-128995064D01*
X37150500Y-120272352D01*
X37170185Y-120205313D01*
X37222989Y-120159558D01*
X37292147Y-120149614D01*
X37355703Y-120178639D01*
X37389061Y-120224900D01*
X37423532Y-120308123D01*
X37494726Y-120414673D01*
X37494727Y-120414674D01*
X37682984Y-120602930D01*
X37716469Y-120664253D01*
X37716920Y-120666420D01*
X37730261Y-120733489D01*
X37730264Y-120733501D01*
X37790602Y-120879172D01*
X37790609Y-120879185D01*
X37878210Y-121010288D01*
X37878213Y-121010292D01*
X37989707Y-121121786D01*
X37989711Y-121121789D01*
X38120814Y-121209390D01*
X38120827Y-121209397D01*
X38241822Y-121259514D01*
X38266503Y-121269737D01*
X38411385Y-121298556D01*
X38421153Y-121300499D01*
X38421156Y-121300500D01*
X38421158Y-121300500D01*
X38578844Y-121300500D01*
X38578845Y-121300499D01*
X38733497Y-121269737D01*
X38879179Y-121209394D01*
X39010289Y-121121789D01*
X39121789Y-121010289D01*
X39209394Y-120879179D01*
X39269737Y-120733497D01*
X39300500Y-120578842D01*
X39300500Y-120421158D01*
X39300500Y-120421155D01*
X39300499Y-120421153D01*
X39299209Y-120414669D01*
X39269737Y-120266503D01*
X39244795Y-120206287D01*
X39209397Y-120120827D01*
X39209390Y-120120814D01*
X39121789Y-119989711D01*
X39121786Y-119989707D01*
X39010292Y-119878213D01*
X39010288Y-119878210D01*
X38879185Y-119790609D01*
X38879172Y-119790602D01*
X38727870Y-119727932D01*
X38728879Y-119725494D01*
X38680008Y-119693416D01*
X38651598Y-119629583D01*
X38650500Y-119613121D01*
X38650500Y-117602135D01*
X44649500Y-117602135D01*
X44649500Y-119397870D01*
X44649501Y-119397876D01*
X44655908Y-119457483D01*
X44706202Y-119592328D01*
X44706206Y-119592335D01*
X44792452Y-119707544D01*
X44792455Y-119707547D01*
X44907664Y-119793793D01*
X44907671Y-119793797D01*
X45042517Y-119844091D01*
X45042516Y-119844091D01*
X45049444Y-119844835D01*
X45102127Y-119850500D01*
X46897872Y-119850499D01*
X46957483Y-119844091D01*
X47092331Y-119793796D01*
X47207546Y-119707546D01*
X47293796Y-119592331D01*
X47344091Y-119457483D01*
X47350500Y-119397873D01*
X47350499Y-117602128D01*
X47344091Y-117542517D01*
X47310969Y-117453713D01*
X47293797Y-117407671D01*
X47293793Y-117407664D01*
X47207547Y-117292455D01*
X47207544Y-117292452D01*
X47092335Y-117206206D01*
X47092328Y-117206202D01*
X46957482Y-117155908D01*
X46957483Y-117155908D01*
X46897883Y-117149501D01*
X46897881Y-117149500D01*
X46897873Y-117149500D01*
X46897864Y-117149500D01*
X45102129Y-117149500D01*
X45102123Y-117149501D01*
X45042516Y-117155908D01*
X44907671Y-117206202D01*
X44907664Y-117206206D01*
X44792455Y-117292452D01*
X44792452Y-117292455D01*
X44706206Y-117407664D01*
X44706202Y-117407671D01*
X44655908Y-117542517D01*
X44649501Y-117602116D01*
X44649501Y-117602123D01*
X44649500Y-117602135D01*
X38650500Y-117602135D01*
X38650500Y-111602135D01*
X44649500Y-111602135D01*
X44649500Y-113397870D01*
X44649501Y-113397876D01*
X44655908Y-113457483D01*
X44706202Y-113592328D01*
X44706206Y-113592335D01*
X44792452Y-113707544D01*
X44792455Y-113707547D01*
X44907664Y-113793793D01*
X44907671Y-113793797D01*
X45042517Y-113844091D01*
X45042516Y-113844091D01*
X45049444Y-113844835D01*
X45102127Y-113850500D01*
X46897872Y-113850499D01*
X46957483Y-113844091D01*
X47092331Y-113793796D01*
X47207546Y-113707546D01*
X47293796Y-113592331D01*
X47344091Y-113457483D01*
X47350500Y-113397873D01*
X47350499Y-111602128D01*
X47344091Y-111542517D01*
X47309543Y-111449890D01*
X47293797Y-111407671D01*
X47293793Y-111407664D01*
X47207547Y-111292455D01*
X47207544Y-111292452D01*
X47092335Y-111206206D01*
X47092328Y-111206202D01*
X46957482Y-111155908D01*
X46957483Y-111155908D01*
X46897883Y-111149501D01*
X46897881Y-111149500D01*
X46897873Y-111149500D01*
X46897864Y-111149500D01*
X45102129Y-111149500D01*
X45102123Y-111149501D01*
X45042516Y-111155908D01*
X44907671Y-111206202D01*
X44907664Y-111206206D01*
X44792455Y-111292452D01*
X44792452Y-111292455D01*
X44706206Y-111407664D01*
X44706202Y-111407671D01*
X44655908Y-111542517D01*
X44649706Y-111600208D01*
X44649501Y-111602123D01*
X44649500Y-111602135D01*
X38650500Y-111602135D01*
X38650500Y-99102135D01*
X43649500Y-99102135D01*
X43649500Y-100897870D01*
X43649501Y-100897876D01*
X43655908Y-100957483D01*
X43706202Y-101092328D01*
X43706206Y-101092335D01*
X43792452Y-101207544D01*
X43792455Y-101207547D01*
X43907664Y-101293793D01*
X43907671Y-101293797D01*
X44042517Y-101344091D01*
X44042516Y-101344091D01*
X44049444Y-101344835D01*
X44102127Y-101350500D01*
X45897872Y-101350499D01*
X45957483Y-101344091D01*
X46092331Y-101293796D01*
X46207546Y-101207546D01*
X46293796Y-101092331D01*
X46344091Y-100957483D01*
X46350500Y-100897873D01*
X46350499Y-99102128D01*
X46344091Y-99042517D01*
X46309584Y-98950000D01*
X46293797Y-98907671D01*
X46293793Y-98907664D01*
X46207547Y-98792455D01*
X46207544Y-98792452D01*
X46092335Y-98706206D01*
X46092328Y-98706202D01*
X45957482Y-98655908D01*
X45957483Y-98655908D01*
X45897883Y-98649501D01*
X45897881Y-98649500D01*
X45897873Y-98649500D01*
X45897864Y-98649500D01*
X44102129Y-98649500D01*
X44102123Y-98649501D01*
X44042516Y-98655908D01*
X43907671Y-98706202D01*
X43907664Y-98706206D01*
X43792455Y-98792452D01*
X43792452Y-98792455D01*
X43706206Y-98907664D01*
X43706202Y-98907671D01*
X43655908Y-99042517D01*
X43652003Y-99078842D01*
X43649501Y-99102123D01*
X43649500Y-99102135D01*
X38650500Y-99102135D01*
X38650500Y-81504935D01*
X38670185Y-81437896D01*
X38671366Y-81436090D01*
X38709394Y-81379179D01*
X38713803Y-81368536D01*
X38758367Y-81260946D01*
X38769737Y-81233497D01*
X38800500Y-81078842D01*
X38800500Y-80921158D01*
X38800500Y-80921155D01*
X38800499Y-80921153D01*
X38777384Y-80804949D01*
X38769737Y-80766503D01*
X38762256Y-80748443D01*
X38709397Y-80620827D01*
X38709390Y-80620814D01*
X38621789Y-80489711D01*
X38621786Y-80489707D01*
X38510292Y-80378213D01*
X38510288Y-80378210D01*
X38379185Y-80290609D01*
X38379172Y-80290602D01*
X38233501Y-80230264D01*
X38233489Y-80230261D01*
X38078845Y-80199500D01*
X38078842Y-80199500D01*
X37921158Y-80199500D01*
X37921155Y-80199500D01*
X37766510Y-80230261D01*
X37766498Y-80230264D01*
X37620827Y-80290602D01*
X37620814Y-80290609D01*
X37489711Y-80378210D01*
X37489707Y-80378213D01*
X37378213Y-80489707D01*
X37378206Y-80489716D01*
X37377597Y-80490628D01*
X37377155Y-80490997D01*
X37374347Y-80494419D01*
X37373697Y-80493886D01*
X37323982Y-80535429D01*
X37254656Y-80544132D01*
X37191631Y-80513973D01*
X37154916Y-80454527D01*
X37150500Y-80421730D01*
X37150500Y-79886878D01*
X37170185Y-79819839D01*
X37222989Y-79774084D01*
X37227930Y-79772215D01*
X37227869Y-79772068D01*
X37233502Y-79769735D01*
X37379179Y-79709394D01*
X37510289Y-79621789D01*
X37621789Y-79510289D01*
X37709394Y-79379179D01*
X37769737Y-79233497D01*
X37800500Y-79078842D01*
X37800500Y-78921158D01*
X37800500Y-78921155D01*
X37800499Y-78921153D01*
X37783079Y-78833576D01*
X37769737Y-78766503D01*
X37738825Y-78691874D01*
X37709397Y-78620827D01*
X37709390Y-78620814D01*
X37621789Y-78489711D01*
X37621786Y-78489707D01*
X37510292Y-78378213D01*
X37510288Y-78378210D01*
X37379185Y-78290609D01*
X37379172Y-78290602D01*
X37233501Y-78230264D01*
X37233489Y-78230261D01*
X37078845Y-78199500D01*
X37078842Y-78199500D01*
X36921158Y-78199500D01*
X36921155Y-78199500D01*
X36766510Y-78230261D01*
X36766498Y-78230264D01*
X36620827Y-78290602D01*
X36620814Y-78290609D01*
X36489711Y-78378210D01*
X36489707Y-78378213D01*
X36378213Y-78489707D01*
X36378210Y-78489711D01*
X36290609Y-78620814D01*
X36290602Y-78620827D01*
X36230264Y-78766498D01*
X36230261Y-78766508D01*
X36216920Y-78833579D01*
X36184535Y-78895490D01*
X36182985Y-78897068D01*
X35994722Y-79085332D01*
X35924955Y-79189747D01*
X35923535Y-79191871D01*
X35923532Y-79191877D01*
X35874500Y-79310251D01*
X35874497Y-79310261D01*
X35849500Y-79435928D01*
X35849500Y-128995064D01*
X35829815Y-129062103D01*
X35828603Y-129063954D01*
X35790608Y-129120817D01*
X35790602Y-129120828D01*
X35730264Y-129266498D01*
X35730261Y-129266510D01*
X35699500Y-129421153D01*
X25500500Y-129421153D01*
X25500500Y-77435928D01*
X40349500Y-77435928D01*
X40349500Y-78104070D01*
X40353024Y-78121786D01*
X40366966Y-78191873D01*
X40374499Y-78229744D01*
X40423535Y-78348127D01*
X40471893Y-78420501D01*
X40494726Y-78454673D01*
X40494727Y-78454674D01*
X42707873Y-80667819D01*
X42741358Y-80729142D01*
X42736374Y-80798834D01*
X42694502Y-80854767D01*
X42629038Y-80879184D01*
X42620192Y-80879500D01*
X42543713Y-80879500D01*
X42495042Y-80887208D01*
X42333760Y-80912753D01*
X42131585Y-80978444D01*
X41942179Y-81074951D01*
X41770213Y-81199890D01*
X41619890Y-81350213D01*
X41494951Y-81522179D01*
X41398444Y-81711585D01*
X41332753Y-81913760D01*
X41299500Y-82123713D01*
X41299500Y-82336286D01*
X41322010Y-82478412D01*
X41332754Y-82546243D01*
X41385252Y-82707816D01*
X41398444Y-82748414D01*
X41494951Y-82937820D01*
X41619890Y-83109786D01*
X41733818Y-83223714D01*
X41767303Y-83285037D01*
X41762319Y-83354729D01*
X41720447Y-83410662D01*
X41689471Y-83427577D01*
X41557912Y-83476646D01*
X41557906Y-83476649D01*
X41442812Y-83562809D01*
X41442809Y-83562812D01*
X41356649Y-83677906D01*
X41356645Y-83677913D01*
X41306403Y-83812620D01*
X41306401Y-83812627D01*
X41300000Y-83872155D01*
X41300000Y-84520000D01*
X42216988Y-84520000D01*
X42184075Y-84577007D01*
X42150000Y-84704174D01*
X42150000Y-84835826D01*
X42184075Y-84962993D01*
X42216988Y-85020000D01*
X41300000Y-85020000D01*
X41300000Y-85667844D01*
X41306401Y-85727372D01*
X41306403Y-85727379D01*
X41356645Y-85862086D01*
X41356649Y-85862093D01*
X41442809Y-85977187D01*
X41442812Y-85977190D01*
X41557906Y-86063350D01*
X41557913Y-86063354D01*
X41692620Y-86113596D01*
X41692627Y-86113598D01*
X41752155Y-86119999D01*
X41752172Y-86120000D01*
X42400000Y-86120000D01*
X42400000Y-85203012D01*
X42457007Y-85235925D01*
X42584174Y-85270000D01*
X42715826Y-85270000D01*
X42842993Y-85235925D01*
X42900000Y-85203012D01*
X42900000Y-86120000D01*
X43547828Y-86120000D01*
X43547844Y-86119999D01*
X43607372Y-86113598D01*
X43607379Y-86113596D01*
X43742086Y-86063354D01*
X43742093Y-86063350D01*
X43857187Y-85977190D01*
X43857190Y-85977187D01*
X43943350Y-85862093D01*
X43943354Y-85862086D01*
X43992422Y-85730529D01*
X44034293Y-85674595D01*
X44099757Y-85650178D01*
X44168030Y-85665030D01*
X44196285Y-85686181D01*
X44310208Y-85800104D01*
X44482184Y-85925051D01*
X44482188Y-85925053D01*
X44486126Y-85927914D01*
X44485146Y-85929262D01*
X44527160Y-85975690D01*
X44539500Y-86029617D01*
X44539500Y-89254071D01*
X44542617Y-89269738D01*
X44558483Y-89349500D01*
X44563302Y-89373729D01*
X44564499Y-89379745D01*
X44603637Y-89474231D01*
X44613535Y-89498127D01*
X44684723Y-89604669D01*
X44684726Y-89604673D01*
X44684727Y-89604674D01*
X45182984Y-90102930D01*
X45216469Y-90164253D01*
X45216920Y-90166420D01*
X45230261Y-90233489D01*
X45230264Y-90233501D01*
X45290602Y-90379172D01*
X45290609Y-90379185D01*
X45378210Y-90510288D01*
X45378213Y-90510292D01*
X45489707Y-90621786D01*
X45489711Y-90621789D01*
X45620814Y-90709390D01*
X45620827Y-90709397D01*
X45701847Y-90742956D01*
X45766503Y-90769737D01*
X45921153Y-90800499D01*
X45921156Y-90800500D01*
X45921158Y-90800500D01*
X46078844Y-90800500D01*
X46078845Y-90800499D01*
X46233497Y-90769737D01*
X46346166Y-90723067D01*
X46379172Y-90709397D01*
X46379172Y-90709396D01*
X46379179Y-90709394D01*
X46510289Y-90621789D01*
X46621789Y-90510289D01*
X46709394Y-90379179D01*
X46769737Y-90233497D01*
X46800500Y-90078842D01*
X46800500Y-89921158D01*
X46800500Y-89921155D01*
X46800499Y-89921153D01*
X46774531Y-89790606D01*
X46769737Y-89766503D01*
X46761688Y-89747070D01*
X46709397Y-89620827D01*
X46709390Y-89620814D01*
X46621787Y-89489708D01*
X46510292Y-89378213D01*
X46510288Y-89378210D01*
X46379185Y-89290609D01*
X46379172Y-89290602D01*
X46233501Y-89230264D01*
X46233489Y-89230261D01*
X46166420Y-89216920D01*
X46104509Y-89184535D01*
X46102930Y-89182984D01*
X45876819Y-88956873D01*
X45843334Y-88895550D01*
X45840500Y-88869192D01*
X45840500Y-86029617D01*
X45860185Y-85962578D01*
X45894592Y-85928902D01*
X45893874Y-85927914D01*
X45897811Y-85925053D01*
X45897816Y-85925051D01*
X46069792Y-85800104D01*
X46220104Y-85649792D01*
X46220106Y-85649788D01*
X46220109Y-85649786D01*
X46345048Y-85477820D01*
X46345047Y-85477820D01*
X46345051Y-85477816D01*
X46349514Y-85469054D01*
X46397488Y-85418259D01*
X46465308Y-85401463D01*
X46531444Y-85423999D01*
X46570486Y-85469056D01*
X46574951Y-85477820D01*
X46699890Y-85649786D01*
X46699896Y-85649792D01*
X46850208Y-85800104D01*
X47022184Y-85925051D01*
X47022188Y-85925053D01*
X47026126Y-85927914D01*
X47025146Y-85929262D01*
X47067160Y-85975690D01*
X47079500Y-86029617D01*
X47079500Y-94294069D01*
X47079500Y-94294071D01*
X47079499Y-94294071D01*
X47104497Y-94419738D01*
X47104499Y-94419744D01*
X47153534Y-94538125D01*
X47224726Y-94644673D01*
X47224727Y-94644674D01*
X47682984Y-95102930D01*
X47716469Y-95164253D01*
X47716920Y-95166420D01*
X47730261Y-95233489D01*
X47730264Y-95233501D01*
X47790602Y-95379172D01*
X47790606Y-95379179D01*
X47828602Y-95436044D01*
X47849480Y-95502721D01*
X47849500Y-95504935D01*
X47849500Y-124564069D01*
X47851459Y-124573917D01*
X47852439Y-124578844D01*
X47874497Y-124689738D01*
X47874499Y-124689744D01*
X47923535Y-124808127D01*
X47971005Y-124879172D01*
X47994726Y-124914673D01*
X47994727Y-124914674D01*
X50182984Y-127102930D01*
X50216469Y-127164253D01*
X50216920Y-127166420D01*
X50230261Y-127233489D01*
X50230264Y-127233501D01*
X50290602Y-127379172D01*
X50290609Y-127379185D01*
X50378210Y-127510288D01*
X50378213Y-127510292D01*
X50489707Y-127621786D01*
X50489711Y-127621789D01*
X50620814Y-127709390D01*
X50620827Y-127709397D01*
X50766498Y-127769735D01*
X50766503Y-127769737D01*
X50921153Y-127800499D01*
X50921156Y-127800500D01*
X50921158Y-127800500D01*
X51078844Y-127800500D01*
X51078845Y-127800499D01*
X51233497Y-127769737D01*
X51379179Y-127709394D01*
X51510289Y-127621789D01*
X51621789Y-127510289D01*
X51709394Y-127379179D01*
X51769737Y-127233497D01*
X51800500Y-127078842D01*
X51800500Y-126921158D01*
X51800500Y-126921155D01*
X51800499Y-126921153D01*
X51769738Y-126766510D01*
X51769737Y-126766503D01*
X51738003Y-126689890D01*
X51709397Y-126620827D01*
X51709390Y-126620814D01*
X51621789Y-126489711D01*
X51621786Y-126489707D01*
X51510292Y-126378213D01*
X51510288Y-126378210D01*
X51379185Y-126290609D01*
X51379172Y-126290602D01*
X51233501Y-126230264D01*
X51233489Y-126230261D01*
X51166420Y-126216920D01*
X51104509Y-126184535D01*
X51102930Y-126182984D01*
X49186819Y-124266873D01*
X49153334Y-124205550D01*
X49150500Y-124179192D01*
X49150500Y-98882135D01*
X59249500Y-98882135D01*
X59249500Y-100677870D01*
X59249501Y-100677876D01*
X59255908Y-100737483D01*
X59306202Y-100872328D01*
X59306206Y-100872335D01*
X59392452Y-100987544D01*
X59392455Y-100987547D01*
X59507664Y-101073793D01*
X59507671Y-101073797D01*
X59639082Y-101122810D01*
X59695016Y-101164681D01*
X59719433Y-101230145D01*
X59704582Y-101298418D01*
X59683431Y-101326673D01*
X59569889Y-101440215D01*
X59444951Y-101612179D01*
X59348444Y-101801585D01*
X59282753Y-102003760D01*
X59249500Y-102213713D01*
X59249500Y-102426287D01*
X59282754Y-102636243D01*
X59325329Y-102767276D01*
X59348444Y-102838414D01*
X59444951Y-103027820D01*
X59569890Y-103199786D01*
X59720213Y-103350109D01*
X59892182Y-103475050D01*
X59900946Y-103479516D01*
X59951742Y-103527491D01*
X59968536Y-103595312D01*
X59945998Y-103661447D01*
X59900946Y-103700484D01*
X59892182Y-103704949D01*
X59720213Y-103829890D01*
X59569890Y-103980213D01*
X59444951Y-104152179D01*
X59348444Y-104341585D01*
X59282753Y-104543760D01*
X59249500Y-104753713D01*
X59249500Y-104966286D01*
X59282753Y-105176239D01*
X59348444Y-105378414D01*
X59444951Y-105567820D01*
X59569890Y-105739786D01*
X59720213Y-105890109D01*
X59892182Y-106015050D01*
X59900946Y-106019516D01*
X59951742Y-106067491D01*
X59968536Y-106135312D01*
X59945998Y-106201447D01*
X59900946Y-106240484D01*
X59892182Y-106244949D01*
X59720213Y-106369890D01*
X59569890Y-106520213D01*
X59444951Y-106692179D01*
X59348444Y-106881585D01*
X59282753Y-107083760D01*
X59249500Y-107293713D01*
X59249500Y-107506286D01*
X59282753Y-107716239D01*
X59348444Y-107918414D01*
X59444951Y-108107820D01*
X59569890Y-108279786D01*
X59720213Y-108430109D01*
X59892182Y-108555050D01*
X59900946Y-108559516D01*
X59951742Y-108607491D01*
X59968536Y-108675312D01*
X59945998Y-108741447D01*
X59900946Y-108780484D01*
X59892182Y-108784949D01*
X59720213Y-108909890D01*
X59569890Y-109060213D01*
X59444951Y-109232179D01*
X59348444Y-109421585D01*
X59282753Y-109623760D01*
X59273974Y-109679192D01*
X59249500Y-109833713D01*
X59249500Y-110046287D01*
X59252317Y-110064071D01*
X59272221Y-110189744D01*
X59282754Y-110256243D01*
X59299612Y-110308127D01*
X59348444Y-110458414D01*
X59444951Y-110647820D01*
X59569890Y-110819786D01*
X59720213Y-110970109D01*
X59892182Y-111095050D01*
X59900946Y-111099516D01*
X59951742Y-111147491D01*
X59968536Y-111215312D01*
X59945998Y-111281447D01*
X59900946Y-111320484D01*
X59892182Y-111324949D01*
X59720213Y-111449890D01*
X59569890Y-111600213D01*
X59444951Y-111772179D01*
X59348444Y-111961585D01*
X59282753Y-112163760D01*
X59249500Y-112373713D01*
X59249500Y-112586286D01*
X59282753Y-112796239D01*
X59348444Y-112998414D01*
X59444951Y-113187820D01*
X59569890Y-113359786D01*
X59720213Y-113510109D01*
X59892182Y-113635050D01*
X59900946Y-113639516D01*
X59951742Y-113687491D01*
X59968536Y-113755312D01*
X59945998Y-113821447D01*
X59900946Y-113860484D01*
X59892182Y-113864949D01*
X59720213Y-113989890D01*
X59569890Y-114140213D01*
X59444951Y-114312179D01*
X59348444Y-114501585D01*
X59282753Y-114703760D01*
X59249500Y-114913713D01*
X59249500Y-115126286D01*
X59266480Y-115233497D01*
X59282754Y-115336243D01*
X59346580Y-115532679D01*
X59348444Y-115538414D01*
X59444951Y-115727820D01*
X59569890Y-115899786D01*
X59720213Y-116050109D01*
X59892182Y-116175050D01*
X59900946Y-116179516D01*
X59951742Y-116227491D01*
X59968536Y-116295312D01*
X59945998Y-116361447D01*
X59900946Y-116400484D01*
X59892182Y-116404949D01*
X59720213Y-116529890D01*
X59569890Y-116680213D01*
X59444951Y-116852179D01*
X59348444Y-117041585D01*
X59282753Y-117243760D01*
X59249500Y-117453713D01*
X59249500Y-117666286D01*
X59282753Y-117876239D01*
X59348444Y-118078414D01*
X59444951Y-118267820D01*
X59569890Y-118439786D01*
X59720213Y-118590109D01*
X59892182Y-118715050D01*
X59900946Y-118719516D01*
X59951742Y-118767491D01*
X59968536Y-118835312D01*
X59945998Y-118901447D01*
X59900946Y-118940484D01*
X59892182Y-118944949D01*
X59720213Y-119069890D01*
X59569890Y-119220213D01*
X59444951Y-119392179D01*
X59348444Y-119581585D01*
X59282753Y-119783760D01*
X59249500Y-119993713D01*
X59249500Y-120206286D01*
X59282504Y-120414669D01*
X59282754Y-120416243D01*
X59335587Y-120578846D01*
X59348444Y-120618414D01*
X59444951Y-120807820D01*
X59569890Y-120979786D01*
X59720213Y-121130109D01*
X59892182Y-121255050D01*
X59900946Y-121259516D01*
X59951742Y-121307491D01*
X59968536Y-121375312D01*
X59945998Y-121441447D01*
X59900946Y-121480484D01*
X59892182Y-121484949D01*
X59720213Y-121609890D01*
X59569890Y-121760213D01*
X59444951Y-121932179D01*
X59348444Y-122121585D01*
X59282753Y-122323760D01*
X59249500Y-122533713D01*
X59249500Y-122746286D01*
X59282753Y-122956239D01*
X59348444Y-123158414D01*
X59444951Y-123347820D01*
X59569890Y-123519786D01*
X59720213Y-123670109D01*
X59892182Y-123795050D01*
X59900946Y-123799516D01*
X59951742Y-123847491D01*
X59968536Y-123915312D01*
X59945998Y-123981447D01*
X59900946Y-124020484D01*
X59892182Y-124024949D01*
X59720213Y-124149890D01*
X59569890Y-124300213D01*
X59444951Y-124472179D01*
X59348444Y-124661585D01*
X59282753Y-124863760D01*
X59249500Y-125073713D01*
X59249500Y-125286286D01*
X59282753Y-125496239D01*
X59348444Y-125698414D01*
X59444951Y-125887820D01*
X59569890Y-126059786D01*
X59720213Y-126210109D01*
X59892182Y-126335050D01*
X59900946Y-126339516D01*
X59951742Y-126387491D01*
X59968536Y-126455312D01*
X59945998Y-126521447D01*
X59900946Y-126560484D01*
X59892182Y-126564949D01*
X59720213Y-126689890D01*
X59569890Y-126840213D01*
X59444951Y-127012179D01*
X59348444Y-127201585D01*
X59282753Y-127403760D01*
X59249500Y-127613713D01*
X59249500Y-127826286D01*
X59282753Y-128036239D01*
X59348444Y-128238414D01*
X59444951Y-128427820D01*
X59569890Y-128599786D01*
X59720213Y-128750109D01*
X59892182Y-128875050D01*
X59900946Y-128879516D01*
X59951742Y-128927491D01*
X59968536Y-128995312D01*
X59945998Y-129061447D01*
X59900946Y-129100484D01*
X59892182Y-129104949D01*
X59720213Y-129229890D01*
X59569890Y-129380213D01*
X59444951Y-129552179D01*
X59348444Y-129741585D01*
X59282753Y-129943760D01*
X59249500Y-130153713D01*
X59249500Y-130366286D01*
X59282753Y-130576239D01*
X59348444Y-130778414D01*
X59444951Y-130967820D01*
X59569890Y-131139786D01*
X59720213Y-131290109D01*
X59892182Y-131415050D01*
X59900946Y-131419516D01*
X59951742Y-131467491D01*
X59968536Y-131535312D01*
X59945998Y-131601447D01*
X59900946Y-131640484D01*
X59892182Y-131644949D01*
X59720213Y-131769890D01*
X59569890Y-131920213D01*
X59444951Y-132092179D01*
X59348444Y-132281585D01*
X59282753Y-132483760D01*
X59249500Y-132693713D01*
X59249500Y-132906287D01*
X59282754Y-133116243D01*
X59339409Y-133290609D01*
X59348444Y-133318414D01*
X59444951Y-133507820D01*
X59569890Y-133679786D01*
X59720213Y-133830109D01*
X59892182Y-133955050D01*
X59900946Y-133959516D01*
X59951742Y-134007491D01*
X59968536Y-134075312D01*
X59945998Y-134141447D01*
X59900946Y-134180484D01*
X59892182Y-134184949D01*
X59720213Y-134309890D01*
X59569890Y-134460213D01*
X59444951Y-134632179D01*
X59348444Y-134821585D01*
X59282753Y-135023760D01*
X59249500Y-135233713D01*
X59249500Y-135446286D01*
X59282753Y-135656239D01*
X59348444Y-135858414D01*
X59444951Y-136047820D01*
X59569890Y-136219786D01*
X59720213Y-136370109D01*
X59892182Y-136495050D01*
X59900946Y-136499516D01*
X59951742Y-136547491D01*
X59968536Y-136615312D01*
X59945998Y-136681447D01*
X59900946Y-136720484D01*
X59892182Y-136724949D01*
X59720213Y-136849890D01*
X59569890Y-137000213D01*
X59444951Y-137172179D01*
X59348444Y-137361585D01*
X59282753Y-137563760D01*
X59255871Y-137733489D01*
X59249500Y-137773713D01*
X59249500Y-137986287D01*
X59253302Y-138010289D01*
X59270961Y-138121789D01*
X59282754Y-138196243D01*
X59316629Y-138300500D01*
X59348444Y-138398414D01*
X59444951Y-138587820D01*
X59569890Y-138759786D01*
X59720213Y-138910109D01*
X59892182Y-139035050D01*
X59900946Y-139039516D01*
X59951742Y-139087491D01*
X59968536Y-139155312D01*
X59945998Y-139221447D01*
X59900946Y-139260484D01*
X59892182Y-139264949D01*
X59720213Y-139389890D01*
X59569890Y-139540213D01*
X59444951Y-139712179D01*
X59348444Y-139901585D01*
X59282753Y-140103760D01*
X59249500Y-140313713D01*
X59249500Y-140526286D01*
X59282753Y-140736239D01*
X59348444Y-140938414D01*
X59444951Y-141127820D01*
X59569890Y-141299786D01*
X59720213Y-141450109D01*
X59892182Y-141575050D01*
X59900946Y-141579516D01*
X59951742Y-141627491D01*
X59968536Y-141695312D01*
X59945998Y-141761447D01*
X59900946Y-141800484D01*
X59892182Y-141804949D01*
X59720213Y-141929890D01*
X59569890Y-142080213D01*
X59444951Y-142252179D01*
X59348444Y-142441585D01*
X59282753Y-142643760D01*
X59249500Y-142853713D01*
X59249500Y-143066286D01*
X59282753Y-143276239D01*
X59348444Y-143478414D01*
X59444951Y-143667820D01*
X59569890Y-143839786D01*
X59720213Y-143990109D01*
X59892182Y-144115050D01*
X59900946Y-144119516D01*
X59951742Y-144167491D01*
X59968536Y-144235312D01*
X59945998Y-144301447D01*
X59900946Y-144340484D01*
X59892182Y-144344949D01*
X59720213Y-144469890D01*
X59569890Y-144620213D01*
X59444951Y-144792179D01*
X59348444Y-144981585D01*
X59282753Y-145183760D01*
X59249500Y-145393713D01*
X59249500Y-145606287D01*
X59282754Y-145816243D01*
X59308576Y-145895716D01*
X59348444Y-146018414D01*
X59444951Y-146207820D01*
X59569890Y-146379786D01*
X59720213Y-146530109D01*
X59892179Y-146655048D01*
X59892181Y-146655049D01*
X59892184Y-146655051D01*
X60081588Y-146751557D01*
X60283757Y-146817246D01*
X60493713Y-146850500D01*
X60493714Y-146850500D01*
X60706286Y-146850500D01*
X60706287Y-146850500D01*
X60916243Y-146817246D01*
X61118412Y-146751557D01*
X61307816Y-146655051D01*
X61371598Y-146608711D01*
X61479786Y-146530109D01*
X61479788Y-146530106D01*
X61479792Y-146530104D01*
X61630104Y-146379792D01*
X61630106Y-146379788D01*
X61630109Y-146379786D01*
X61755048Y-146207820D01*
X61755047Y-146207820D01*
X61755051Y-146207816D01*
X61851557Y-146018412D01*
X61917246Y-145816243D01*
X61950500Y-145606287D01*
X61950500Y-145393713D01*
X61917246Y-145183757D01*
X61851557Y-144981588D01*
X61755051Y-144792184D01*
X61755049Y-144792181D01*
X61755048Y-144792179D01*
X61630109Y-144620213D01*
X61479786Y-144469890D01*
X61307820Y-144344951D01*
X61307115Y-144344591D01*
X61299054Y-144340485D01*
X61248259Y-144292512D01*
X61231463Y-144224692D01*
X61253999Y-144158556D01*
X61299054Y-144119515D01*
X61307816Y-144115051D01*
X61329789Y-144099086D01*
X61479786Y-143990109D01*
X61479788Y-143990106D01*
X61479792Y-143990104D01*
X61630104Y-143839792D01*
X61630106Y-143839788D01*
X61630109Y-143839786D01*
X61755048Y-143667820D01*
X61755047Y-143667820D01*
X61755051Y-143667816D01*
X61851557Y-143478412D01*
X61917246Y-143276243D01*
X61950500Y-143066287D01*
X61950500Y-142853713D01*
X61917246Y-142643757D01*
X61851557Y-142441588D01*
X61755051Y-142252184D01*
X61755049Y-142252181D01*
X61755048Y-142252179D01*
X61630109Y-142080213D01*
X61479786Y-141929890D01*
X61307820Y-141804951D01*
X61307115Y-141804591D01*
X61299054Y-141800485D01*
X61248259Y-141752512D01*
X61231463Y-141684692D01*
X61253999Y-141618556D01*
X61299054Y-141579515D01*
X61307816Y-141575051D01*
X61329789Y-141559086D01*
X61479786Y-141450109D01*
X61479788Y-141450106D01*
X61479792Y-141450104D01*
X61630104Y-141299792D01*
X61630106Y-141299788D01*
X61630109Y-141299786D01*
X61755048Y-141127820D01*
X61755047Y-141127820D01*
X61755051Y-141127816D01*
X61851557Y-140938412D01*
X61917246Y-140736243D01*
X61950500Y-140526287D01*
X61950500Y-140313713D01*
X61917246Y-140103757D01*
X61851557Y-139901588D01*
X61755051Y-139712184D01*
X61755049Y-139712181D01*
X61755048Y-139712179D01*
X61630109Y-139540213D01*
X61479786Y-139389890D01*
X61307820Y-139264951D01*
X61307115Y-139264591D01*
X61299054Y-139260485D01*
X61248259Y-139212512D01*
X61231463Y-139144692D01*
X61253999Y-139078556D01*
X61299054Y-139039515D01*
X61307816Y-139035051D01*
X61329789Y-139019086D01*
X61479786Y-138910109D01*
X61479788Y-138910106D01*
X61479792Y-138910104D01*
X61630104Y-138759792D01*
X61630106Y-138759788D01*
X61630109Y-138759786D01*
X61755048Y-138587820D01*
X61755047Y-138587820D01*
X61755051Y-138587816D01*
X61851557Y-138398412D01*
X61917246Y-138196243D01*
X61950500Y-137986287D01*
X61950500Y-137773713D01*
X61917246Y-137563757D01*
X61851557Y-137361588D01*
X61755051Y-137172184D01*
X61755049Y-137172181D01*
X61755048Y-137172179D01*
X61630109Y-137000213D01*
X61479786Y-136849890D01*
X61307820Y-136724951D01*
X61307115Y-136724591D01*
X61299054Y-136720485D01*
X61248259Y-136672512D01*
X61231463Y-136604692D01*
X61253999Y-136538556D01*
X61299054Y-136499515D01*
X61307816Y-136495051D01*
X61329789Y-136479086D01*
X61479786Y-136370109D01*
X61479788Y-136370106D01*
X61479792Y-136370104D01*
X61630104Y-136219792D01*
X61630106Y-136219788D01*
X61630109Y-136219786D01*
X61755048Y-136047820D01*
X61755047Y-136047820D01*
X61755051Y-136047816D01*
X61851557Y-135858412D01*
X61917246Y-135656243D01*
X61950500Y-135446287D01*
X61950500Y-135233713D01*
X61917246Y-135023757D01*
X61851557Y-134821588D01*
X61755051Y-134632184D01*
X61755049Y-134632181D01*
X61755048Y-134632179D01*
X61630109Y-134460213D01*
X61479786Y-134309890D01*
X61307820Y-134184951D01*
X61307115Y-134184591D01*
X61299054Y-134180485D01*
X61248259Y-134132512D01*
X61231463Y-134064692D01*
X61253999Y-133998556D01*
X61299054Y-133959515D01*
X61307816Y-133955051D01*
X61354473Y-133921153D01*
X61479786Y-133830109D01*
X61479788Y-133830106D01*
X61479792Y-133830104D01*
X61630104Y-133679792D01*
X61630106Y-133679788D01*
X61630109Y-133679786D01*
X61755048Y-133507820D01*
X61755047Y-133507820D01*
X61755051Y-133507816D01*
X61851557Y-133318412D01*
X61917246Y-133116243D01*
X61950500Y-132906287D01*
X61950500Y-132693713D01*
X61917246Y-132483757D01*
X61851557Y-132281588D01*
X61755051Y-132092184D01*
X61755049Y-132092181D01*
X61755048Y-132092179D01*
X61630109Y-131920213D01*
X61479786Y-131769890D01*
X61307820Y-131644951D01*
X61307115Y-131644591D01*
X61299054Y-131640485D01*
X61248259Y-131592512D01*
X61231463Y-131524692D01*
X61253999Y-131458556D01*
X61299054Y-131419515D01*
X61307816Y-131415051D01*
X61329789Y-131399086D01*
X61479786Y-131290109D01*
X61479788Y-131290106D01*
X61479792Y-131290104D01*
X61630104Y-131139792D01*
X61630106Y-131139788D01*
X61630109Y-131139786D01*
X61755048Y-130967820D01*
X61755047Y-130967820D01*
X61755051Y-130967816D01*
X61851557Y-130778412D01*
X61917246Y-130576243D01*
X61950500Y-130366287D01*
X61950500Y-130153713D01*
X61917246Y-129943757D01*
X61851557Y-129741588D01*
X61755051Y-129552184D01*
X61755049Y-129552181D01*
X61755048Y-129552179D01*
X61630109Y-129380213D01*
X61479786Y-129229890D01*
X61307820Y-129104951D01*
X61307115Y-129104591D01*
X61299054Y-129100485D01*
X61248259Y-129052512D01*
X61231463Y-128984692D01*
X61253999Y-128918556D01*
X61299054Y-128879515D01*
X61307816Y-128875051D01*
X61329789Y-128859086D01*
X61479786Y-128750109D01*
X61479788Y-128750106D01*
X61479792Y-128750104D01*
X61630104Y-128599792D01*
X61630106Y-128599788D01*
X61630109Y-128599786D01*
X61755048Y-128427820D01*
X61755047Y-128427820D01*
X61755051Y-128427816D01*
X61851557Y-128238412D01*
X61917246Y-128036243D01*
X61950500Y-127826287D01*
X61950500Y-127613713D01*
X61917246Y-127403757D01*
X61851557Y-127201588D01*
X61755051Y-127012184D01*
X61755049Y-127012181D01*
X61755048Y-127012179D01*
X61630109Y-126840213D01*
X61479786Y-126689890D01*
X61307820Y-126564951D01*
X61307115Y-126564591D01*
X61299054Y-126560485D01*
X61248259Y-126512512D01*
X61231463Y-126444692D01*
X61253999Y-126378556D01*
X61299054Y-126339515D01*
X61307816Y-126335051D01*
X61368995Y-126290602D01*
X61479786Y-126210109D01*
X61479788Y-126210106D01*
X61479792Y-126210104D01*
X61630104Y-126059792D01*
X61630106Y-126059788D01*
X61630109Y-126059786D01*
X61755048Y-125887820D01*
X61755047Y-125887820D01*
X61755051Y-125887816D01*
X61851557Y-125698412D01*
X61917246Y-125496243D01*
X61950500Y-125286287D01*
X61950500Y-125073713D01*
X61917246Y-124863757D01*
X61851557Y-124661588D01*
X61755051Y-124472184D01*
X61755049Y-124472181D01*
X61755048Y-124472179D01*
X61630109Y-124300213D01*
X61479786Y-124149890D01*
X61307820Y-124024951D01*
X61307115Y-124024591D01*
X61299054Y-124020485D01*
X61248259Y-123972512D01*
X61231463Y-123904692D01*
X61253999Y-123838556D01*
X61299054Y-123799515D01*
X61307816Y-123795051D01*
X61329789Y-123779086D01*
X61479786Y-123670109D01*
X61479788Y-123670106D01*
X61479792Y-123670104D01*
X61630104Y-123519792D01*
X61630106Y-123519788D01*
X61630109Y-123519786D01*
X61755048Y-123347820D01*
X61755047Y-123347820D01*
X61755051Y-123347816D01*
X61851557Y-123158412D01*
X61917246Y-122956243D01*
X61950500Y-122746287D01*
X61950500Y-122533713D01*
X61917246Y-122323757D01*
X61851557Y-122121588D01*
X61755051Y-121932184D01*
X61755049Y-121932181D01*
X61755048Y-121932179D01*
X61630109Y-121760213D01*
X61479786Y-121609890D01*
X61307820Y-121484951D01*
X61307115Y-121484591D01*
X61299054Y-121480485D01*
X61248259Y-121432512D01*
X61231463Y-121364692D01*
X61253999Y-121298556D01*
X61299054Y-121259515D01*
X61307816Y-121255051D01*
X61370658Y-121209394D01*
X61479786Y-121130109D01*
X61479788Y-121130106D01*
X61479792Y-121130104D01*
X61630104Y-120979792D01*
X61630106Y-120979788D01*
X61630109Y-120979786D01*
X61755048Y-120807820D01*
X61755047Y-120807820D01*
X61755051Y-120807816D01*
X61851557Y-120618412D01*
X61917246Y-120416243D01*
X61950500Y-120206287D01*
X61950500Y-119993713D01*
X61917246Y-119783757D01*
X61851557Y-119581588D01*
X61755051Y-119392184D01*
X61755049Y-119392181D01*
X61755048Y-119392179D01*
X61630109Y-119220213D01*
X61479786Y-119069890D01*
X61307820Y-118944951D01*
X61307115Y-118944591D01*
X61299054Y-118940485D01*
X61248259Y-118892512D01*
X61231463Y-118824692D01*
X61253999Y-118758556D01*
X61299054Y-118719515D01*
X61307816Y-118715051D01*
X61329789Y-118699086D01*
X61479786Y-118590109D01*
X61479788Y-118590106D01*
X61479792Y-118590104D01*
X61630104Y-118439792D01*
X61630106Y-118439788D01*
X61630109Y-118439786D01*
X61755048Y-118267820D01*
X61755047Y-118267820D01*
X61755051Y-118267816D01*
X61851557Y-118078412D01*
X61917246Y-117876243D01*
X61950500Y-117666287D01*
X61950500Y-117453713D01*
X61917246Y-117243757D01*
X61851557Y-117041588D01*
X61755051Y-116852184D01*
X61755049Y-116852181D01*
X61755048Y-116852179D01*
X61630109Y-116680213D01*
X61479786Y-116529890D01*
X61307820Y-116404951D01*
X61307115Y-116404591D01*
X61299054Y-116400485D01*
X61248259Y-116352512D01*
X61231463Y-116284692D01*
X61253999Y-116218556D01*
X61299054Y-116179515D01*
X61307816Y-116175051D01*
X61382458Y-116120821D01*
X61479786Y-116050109D01*
X61479788Y-116050106D01*
X61479792Y-116050104D01*
X61630104Y-115899792D01*
X61630106Y-115899788D01*
X61630109Y-115899786D01*
X61755048Y-115727820D01*
X61755047Y-115727820D01*
X61755051Y-115727816D01*
X61851557Y-115538412D01*
X61917246Y-115336243D01*
X61950500Y-115126287D01*
X61950500Y-114913713D01*
X61917246Y-114703757D01*
X61851557Y-114501588D01*
X61755051Y-114312184D01*
X61755049Y-114312181D01*
X61755048Y-114312179D01*
X61630109Y-114140213D01*
X61479786Y-113989890D01*
X61307820Y-113864951D01*
X61307115Y-113864591D01*
X61299054Y-113860485D01*
X61248259Y-113812512D01*
X61231463Y-113744692D01*
X61253999Y-113678556D01*
X61299054Y-113639515D01*
X61307816Y-113635051D01*
X61366610Y-113592335D01*
X61479786Y-113510109D01*
X61479788Y-113510106D01*
X61479792Y-113510104D01*
X61630104Y-113359792D01*
X61630106Y-113359788D01*
X61630109Y-113359786D01*
X61755048Y-113187820D01*
X61755047Y-113187820D01*
X61755051Y-113187816D01*
X61851557Y-112998412D01*
X61917246Y-112796243D01*
X61950500Y-112586287D01*
X61950500Y-112373713D01*
X61917246Y-112163757D01*
X61851557Y-111961588D01*
X61755051Y-111772184D01*
X61755049Y-111772181D01*
X61755048Y-111772179D01*
X61630109Y-111600213D01*
X61479786Y-111449890D01*
X61307820Y-111324951D01*
X61307115Y-111324591D01*
X61299054Y-111320485D01*
X61248259Y-111272512D01*
X61231463Y-111204692D01*
X61253999Y-111138556D01*
X61299054Y-111099515D01*
X61307816Y-111095051D01*
X61329789Y-111079086D01*
X61479786Y-110970109D01*
X61479788Y-110970106D01*
X61479792Y-110970104D01*
X61630104Y-110819792D01*
X61630106Y-110819788D01*
X61630109Y-110819786D01*
X61755048Y-110647820D01*
X61755047Y-110647820D01*
X61755051Y-110647816D01*
X61851557Y-110458412D01*
X61917246Y-110256243D01*
X61950500Y-110046287D01*
X61950500Y-109833713D01*
X61917246Y-109623757D01*
X61851557Y-109421588D01*
X61755051Y-109232184D01*
X61755049Y-109232181D01*
X61755048Y-109232179D01*
X61630109Y-109060213D01*
X61479786Y-108909890D01*
X61307820Y-108784951D01*
X61307115Y-108784591D01*
X61299054Y-108780485D01*
X61248259Y-108732512D01*
X61231463Y-108664692D01*
X61253999Y-108598556D01*
X61299054Y-108559515D01*
X61307816Y-108555051D01*
X61329789Y-108539086D01*
X61479786Y-108430109D01*
X61479788Y-108430106D01*
X61479792Y-108430104D01*
X61630104Y-108279792D01*
X61630106Y-108279788D01*
X61630109Y-108279786D01*
X61755048Y-108107820D01*
X61755047Y-108107820D01*
X61755051Y-108107816D01*
X61851557Y-107918412D01*
X61917246Y-107716243D01*
X61950500Y-107506287D01*
X61950500Y-107293713D01*
X61917246Y-107083757D01*
X61851557Y-106881588D01*
X61755051Y-106692184D01*
X61755049Y-106692181D01*
X61755048Y-106692179D01*
X61630109Y-106520213D01*
X61479786Y-106369890D01*
X61307820Y-106244951D01*
X61307115Y-106244591D01*
X61299054Y-106240485D01*
X61248259Y-106192512D01*
X61231463Y-106124692D01*
X61253999Y-106058556D01*
X61299054Y-106019515D01*
X61307816Y-106015051D01*
X61329789Y-105999086D01*
X61479786Y-105890109D01*
X61479788Y-105890106D01*
X61479792Y-105890104D01*
X61630104Y-105739792D01*
X61630106Y-105739788D01*
X61630109Y-105739786D01*
X61755048Y-105567820D01*
X61755047Y-105567820D01*
X61755051Y-105567816D01*
X61851557Y-105378412D01*
X61917246Y-105176243D01*
X61950500Y-104966287D01*
X61950500Y-104753713D01*
X61917246Y-104543757D01*
X61851557Y-104341588D01*
X61755051Y-104152184D01*
X61755049Y-104152181D01*
X61755048Y-104152179D01*
X61630109Y-103980213D01*
X61479786Y-103829890D01*
X61307820Y-103704951D01*
X61307115Y-103704591D01*
X61299054Y-103700485D01*
X61248259Y-103652512D01*
X61231463Y-103584692D01*
X61253999Y-103518556D01*
X61299054Y-103479515D01*
X61307816Y-103475051D01*
X61329789Y-103459086D01*
X61479786Y-103350109D01*
X61479788Y-103350106D01*
X61479792Y-103350104D01*
X61630104Y-103199792D01*
X61630106Y-103199788D01*
X61630109Y-103199786D01*
X61755048Y-103027820D01*
X61755047Y-103027820D01*
X61755051Y-103027816D01*
X61851557Y-102838412D01*
X61917246Y-102636243D01*
X61950500Y-102426287D01*
X61950500Y-102213713D01*
X61917246Y-102003757D01*
X61851557Y-101801588D01*
X61755051Y-101612184D01*
X61755049Y-101612181D01*
X61755048Y-101612179D01*
X61630109Y-101440213D01*
X61516569Y-101326673D01*
X61483084Y-101265350D01*
X61488068Y-101195658D01*
X61529940Y-101139725D01*
X61560915Y-101122810D01*
X61692331Y-101073796D01*
X61807546Y-100987546D01*
X61893796Y-100872331D01*
X61944091Y-100737483D01*
X61950500Y-100677873D01*
X61950499Y-98882128D01*
X61944091Y-98822517D01*
X61932878Y-98792454D01*
X61893797Y-98687671D01*
X61893793Y-98687664D01*
X61807547Y-98572455D01*
X61807544Y-98572452D01*
X61692335Y-98486206D01*
X61692328Y-98486202D01*
X61557482Y-98435908D01*
X61557483Y-98435908D01*
X61497883Y-98429501D01*
X61497881Y-98429500D01*
X61497873Y-98429500D01*
X61497864Y-98429500D01*
X59702129Y-98429500D01*
X59702123Y-98429501D01*
X59642516Y-98435908D01*
X59507671Y-98486202D01*
X59507664Y-98486206D01*
X59392455Y-98572452D01*
X59392452Y-98572455D01*
X59306206Y-98687664D01*
X59306202Y-98687671D01*
X59255908Y-98822517D01*
X59249501Y-98882116D01*
X59249501Y-98882123D01*
X59249500Y-98882135D01*
X49150500Y-98882135D01*
X49150500Y-95504935D01*
X49170185Y-95437896D01*
X49171366Y-95436090D01*
X49209394Y-95379179D01*
X49269737Y-95233497D01*
X49300500Y-95078842D01*
X49300500Y-94921158D01*
X49300500Y-94921155D01*
X49300499Y-94921153D01*
X49269738Y-94766510D01*
X49269737Y-94766503D01*
X49269735Y-94766498D01*
X49209397Y-94620827D01*
X49209390Y-94620814D01*
X49121789Y-94489711D01*
X49121786Y-94489707D01*
X49010292Y-94378213D01*
X49010288Y-94378210D01*
X48879185Y-94290609D01*
X48879172Y-94290602D01*
X48733501Y-94230264D01*
X48733489Y-94230261D01*
X48666420Y-94216920D01*
X48604509Y-94184535D01*
X48602930Y-94182984D01*
X48416819Y-93996873D01*
X48383334Y-93935550D01*
X48380500Y-93909192D01*
X48380500Y-86029617D01*
X48400185Y-85962578D01*
X48434592Y-85928902D01*
X48433874Y-85927914D01*
X48437811Y-85925053D01*
X48437816Y-85925051D01*
X48609792Y-85800104D01*
X48760104Y-85649792D01*
X48760106Y-85649788D01*
X48760109Y-85649786D01*
X48885048Y-85477820D01*
X48885047Y-85477820D01*
X48885051Y-85477816D01*
X48889514Y-85469054D01*
X48937488Y-85418259D01*
X49005308Y-85401463D01*
X49071444Y-85423999D01*
X49110486Y-85469056D01*
X49114951Y-85477820D01*
X49239890Y-85649786D01*
X49239896Y-85649792D01*
X49390208Y-85800104D01*
X49562184Y-85925051D01*
X49562188Y-85925053D01*
X49566126Y-85927914D01*
X49565146Y-85929262D01*
X49607160Y-85975690D01*
X49619500Y-86029617D01*
X49619500Y-87834069D01*
X49619500Y-87834071D01*
X49619499Y-87834071D01*
X49642659Y-87950496D01*
X49644498Y-87959742D01*
X49644500Y-87959747D01*
X49693533Y-88078125D01*
X49764726Y-88184673D01*
X49764727Y-88184674D01*
X50182984Y-88602930D01*
X50216469Y-88664253D01*
X50216920Y-88666420D01*
X50230261Y-88733489D01*
X50230264Y-88733501D01*
X50290602Y-88879172D01*
X50290609Y-88879185D01*
X50378210Y-89010288D01*
X50378213Y-89010292D01*
X50489707Y-89121786D01*
X50489711Y-89121789D01*
X50620814Y-89209390D01*
X50620827Y-89209397D01*
X50766498Y-89269735D01*
X50766503Y-89269737D01*
X50921153Y-89300499D01*
X50921156Y-89300500D01*
X50921158Y-89300500D01*
X51078844Y-89300500D01*
X51078845Y-89300499D01*
X51233497Y-89269737D01*
X51346166Y-89223067D01*
X51379172Y-89209397D01*
X51379172Y-89209396D01*
X51379179Y-89209394D01*
X51510289Y-89121789D01*
X51621789Y-89010289D01*
X51709394Y-88879179D01*
X51769737Y-88733497D01*
X51800500Y-88578842D01*
X51800500Y-88421158D01*
X51800500Y-88421155D01*
X51800499Y-88421153D01*
X51769738Y-88266510D01*
X51769737Y-88266503D01*
X51735841Y-88184669D01*
X51709397Y-88120827D01*
X51709390Y-88120814D01*
X51621789Y-87989711D01*
X51621786Y-87989707D01*
X51510292Y-87878213D01*
X51510288Y-87878210D01*
X51379185Y-87790609D01*
X51379172Y-87790602D01*
X51233501Y-87730264D01*
X51233489Y-87730261D01*
X51166420Y-87716920D01*
X51104509Y-87684535D01*
X51102930Y-87682984D01*
X50956819Y-87536873D01*
X50923334Y-87475550D01*
X50920500Y-87449192D01*
X50920500Y-86029617D01*
X50940185Y-85962578D01*
X50974592Y-85928902D01*
X50973874Y-85927914D01*
X50977811Y-85925053D01*
X50977816Y-85925051D01*
X51149792Y-85800104D01*
X51300104Y-85649792D01*
X51300106Y-85649788D01*
X51300109Y-85649786D01*
X51425048Y-85477820D01*
X51425047Y-85477820D01*
X51425051Y-85477816D01*
X51521557Y-85288412D01*
X51587246Y-85086243D01*
X51620500Y-84876287D01*
X51620500Y-84663713D01*
X51587246Y-84453757D01*
X51521557Y-84251588D01*
X51425051Y-84062184D01*
X51425049Y-84062181D01*
X51425048Y-84062179D01*
X51300109Y-83890213D01*
X51149786Y-83739890D01*
X50977820Y-83614951D01*
X50972654Y-83612319D01*
X50969054Y-83610485D01*
X50918259Y-83562512D01*
X50901463Y-83494692D01*
X50923999Y-83428556D01*
X50969054Y-83389515D01*
X50977816Y-83385051D01*
X51039158Y-83340484D01*
X51149786Y-83260109D01*
X51149788Y-83260106D01*
X51149792Y-83260104D01*
X51300104Y-83109792D01*
X51300106Y-83109788D01*
X51300109Y-83109786D01*
X51409086Y-82959789D01*
X51425051Y-82937816D01*
X51521557Y-82748412D01*
X51587246Y-82546243D01*
X51620500Y-82336287D01*
X51620500Y-82123713D01*
X51587246Y-81913757D01*
X51580733Y-81893713D01*
X57879500Y-81893713D01*
X57879500Y-82106286D01*
X57906418Y-82276243D01*
X57912754Y-82316243D01*
X57919266Y-82336286D01*
X57978444Y-82518414D01*
X58074951Y-82707820D01*
X58199890Y-82879786D01*
X58313818Y-82993714D01*
X58347303Y-83055037D01*
X58342319Y-83124729D01*
X58300447Y-83180662D01*
X58269471Y-83197577D01*
X58137912Y-83246646D01*
X58137906Y-83246649D01*
X58022812Y-83332809D01*
X58022809Y-83332812D01*
X57936649Y-83447906D01*
X57936645Y-83447913D01*
X57886403Y-83582620D01*
X57886401Y-83582627D01*
X57880000Y-83642155D01*
X57880000Y-84290000D01*
X58796988Y-84290000D01*
X58764075Y-84347007D01*
X58730000Y-84474174D01*
X58730000Y-84605826D01*
X58764075Y-84732993D01*
X58796988Y-84790000D01*
X57880000Y-84790000D01*
X57880000Y-85437844D01*
X57886401Y-85497372D01*
X57886403Y-85497379D01*
X57936645Y-85632086D01*
X57936649Y-85632093D01*
X58022809Y-85747187D01*
X58022812Y-85747190D01*
X58137906Y-85833350D01*
X58137913Y-85833354D01*
X58272620Y-85883596D01*
X58272627Y-85883598D01*
X58332155Y-85889999D01*
X58332172Y-85890000D01*
X58980000Y-85890000D01*
X58980000Y-84973012D01*
X59037007Y-85005925D01*
X59164174Y-85040000D01*
X59295826Y-85040000D01*
X59422993Y-85005925D01*
X59480000Y-84973012D01*
X59480000Y-85890000D01*
X60127828Y-85890000D01*
X60127844Y-85889999D01*
X60187372Y-85883598D01*
X60187379Y-85883596D01*
X60322086Y-85833354D01*
X60322093Y-85833350D01*
X60437187Y-85747190D01*
X60437190Y-85747187D01*
X60523350Y-85632093D01*
X60523354Y-85632086D01*
X60572422Y-85500529D01*
X60614293Y-85444595D01*
X60679757Y-85420178D01*
X60748030Y-85435030D01*
X60776285Y-85456181D01*
X60890208Y-85570104D01*
X61062184Y-85695051D01*
X61062188Y-85695053D01*
X61066126Y-85697914D01*
X61065146Y-85699262D01*
X61107160Y-85745690D01*
X61119500Y-85799617D01*
X61119500Y-91334069D01*
X61119500Y-91334071D01*
X61119499Y-91334071D01*
X61132168Y-91397756D01*
X61139762Y-91435931D01*
X61144499Y-91459744D01*
X61193535Y-91578127D01*
X61210108Y-91602930D01*
X61264726Y-91684673D01*
X61264727Y-91684674D01*
X61682984Y-92102930D01*
X61716469Y-92164253D01*
X61716920Y-92166420D01*
X61730261Y-92233489D01*
X61730264Y-92233501D01*
X61790602Y-92379172D01*
X61790609Y-92379185D01*
X61878210Y-92510288D01*
X61878213Y-92510292D01*
X61886306Y-92518385D01*
X61919791Y-92579708D01*
X61914807Y-92649400D01*
X61886306Y-92693747D01*
X60397068Y-94182984D01*
X60335745Y-94216469D01*
X60333579Y-94216920D01*
X60266508Y-94230261D01*
X60266498Y-94230264D01*
X60120827Y-94290602D01*
X60120814Y-94290609D01*
X59989711Y-94378210D01*
X59989707Y-94378213D01*
X59878213Y-94489707D01*
X59878210Y-94489711D01*
X59790609Y-94620814D01*
X59790602Y-94620827D01*
X59730264Y-94766498D01*
X59730261Y-94766510D01*
X59699500Y-94921153D01*
X59699500Y-95078846D01*
X59730261Y-95233489D01*
X59730264Y-95233501D01*
X59790602Y-95379172D01*
X59790609Y-95379185D01*
X59878210Y-95510288D01*
X59878213Y-95510292D01*
X59989707Y-95621786D01*
X59989711Y-95621789D01*
X60120814Y-95709390D01*
X60120827Y-95709397D01*
X60266498Y-95769735D01*
X60266503Y-95769737D01*
X60421153Y-95800499D01*
X60421156Y-95800500D01*
X60421158Y-95800500D01*
X60578844Y-95800500D01*
X60578845Y-95800499D01*
X60733497Y-95769737D01*
X60879179Y-95709394D01*
X61010289Y-95621789D01*
X61121789Y-95510289D01*
X61209394Y-95379179D01*
X61269737Y-95233497D01*
X61283079Y-95166416D01*
X61315463Y-95104509D01*
X61316959Y-95102985D01*
X64815277Y-91604669D01*
X64857949Y-91540802D01*
X64857951Y-91540802D01*
X64872255Y-91519392D01*
X64886465Y-91498127D01*
X64935501Y-91379744D01*
X64948287Y-91315465D01*
X64960500Y-91254071D01*
X64960500Y-85799617D01*
X64980185Y-85732578D01*
X65014592Y-85698902D01*
X65013874Y-85697914D01*
X65017811Y-85695053D01*
X65017816Y-85695051D01*
X65189792Y-85570104D01*
X65340104Y-85419792D01*
X65340106Y-85419788D01*
X65340109Y-85419786D01*
X65465048Y-85247820D01*
X65465047Y-85247820D01*
X65465051Y-85247816D01*
X65469514Y-85239054D01*
X65517488Y-85188259D01*
X65585308Y-85171463D01*
X65651444Y-85193999D01*
X65690486Y-85239056D01*
X65694951Y-85247820D01*
X65819890Y-85419786D01*
X65819896Y-85419792D01*
X65970208Y-85570104D01*
X66142184Y-85695051D01*
X66142188Y-85695053D01*
X66146126Y-85697914D01*
X66145146Y-85699262D01*
X66187160Y-85745690D01*
X66199500Y-85799617D01*
X66199500Y-86645064D01*
X66179815Y-86712103D01*
X66178603Y-86713954D01*
X66140608Y-86770817D01*
X66140602Y-86770828D01*
X66080264Y-86916498D01*
X66080261Y-86916510D01*
X66049500Y-87071153D01*
X66049500Y-87228846D01*
X66080261Y-87383489D01*
X66080264Y-87383501D01*
X66140602Y-87529172D01*
X66140606Y-87529179D01*
X66178602Y-87586044D01*
X66199480Y-87652721D01*
X66199500Y-87654935D01*
X66199500Y-132829191D01*
X66179815Y-132896230D01*
X66163181Y-132916872D01*
X65897068Y-133182984D01*
X65835745Y-133216469D01*
X65833579Y-133216920D01*
X65766508Y-133230261D01*
X65766498Y-133230264D01*
X65620827Y-133290602D01*
X65620814Y-133290609D01*
X65489711Y-133378210D01*
X65489707Y-133378213D01*
X65378213Y-133489707D01*
X65378210Y-133489711D01*
X65290609Y-133620814D01*
X65290602Y-133620827D01*
X65230264Y-133766498D01*
X65230261Y-133766510D01*
X65199500Y-133921153D01*
X65199500Y-134078846D01*
X65230261Y-134233489D01*
X65230264Y-134233501D01*
X65290602Y-134379172D01*
X65290609Y-134379185D01*
X65378210Y-134510288D01*
X65378213Y-134510292D01*
X65489707Y-134621786D01*
X65489711Y-134621789D01*
X65620814Y-134709390D01*
X65620827Y-134709397D01*
X65766498Y-134769735D01*
X65766503Y-134769737D01*
X65921153Y-134800499D01*
X65921156Y-134800500D01*
X65921158Y-134800500D01*
X66078844Y-134800500D01*
X66078845Y-134800499D01*
X66233497Y-134769737D01*
X66379179Y-134709394D01*
X66510289Y-134621789D01*
X66621789Y-134510289D01*
X66709394Y-134379179D01*
X66769737Y-134233497D01*
X66783079Y-134166416D01*
X66815463Y-134104509D01*
X66816956Y-134102988D01*
X67355277Y-133564669D01*
X67426466Y-133458126D01*
X67475501Y-133339743D01*
X67487915Y-133277333D01*
X67500500Y-133214070D01*
X67500500Y-87654935D01*
X67520185Y-87587896D01*
X67521366Y-87586090D01*
X67559394Y-87529179D01*
X67619737Y-87383497D01*
X67650500Y-87228842D01*
X67650500Y-87071158D01*
X67650500Y-87071155D01*
X67650499Y-87071153D01*
X67619738Y-86916510D01*
X67619737Y-86916503D01*
X67559394Y-86770821D01*
X67521396Y-86713953D01*
X67500520Y-86647276D01*
X67500500Y-86645064D01*
X67500500Y-85799617D01*
X67520185Y-85732578D01*
X67554592Y-85698902D01*
X67553874Y-85697914D01*
X67557811Y-85695053D01*
X67557816Y-85695051D01*
X67729792Y-85570104D01*
X67880104Y-85419792D01*
X67880106Y-85419788D01*
X67880109Y-85419786D01*
X68005048Y-85247820D01*
X68005047Y-85247820D01*
X68005051Y-85247816D01*
X68101557Y-85058412D01*
X68167246Y-84856243D01*
X68200500Y-84646287D01*
X68200500Y-84433713D01*
X68167246Y-84223757D01*
X68101557Y-84021588D01*
X68005051Y-83832184D01*
X68005049Y-83832181D01*
X68005048Y-83832179D01*
X67880109Y-83660213D01*
X67729786Y-83509890D01*
X67557820Y-83384951D01*
X67557115Y-83384591D01*
X67549054Y-83380485D01*
X67498259Y-83332512D01*
X67481463Y-83264692D01*
X67503999Y-83198556D01*
X67549054Y-83159515D01*
X67557816Y-83155051D01*
X67620110Y-83109792D01*
X67729786Y-83030109D01*
X67729788Y-83030106D01*
X67729792Y-83030104D01*
X67880104Y-82879792D01*
X67880106Y-82879788D01*
X67880109Y-82879786D01*
X68005048Y-82707820D01*
X68005047Y-82707820D01*
X68005051Y-82707816D01*
X68101557Y-82518412D01*
X68167246Y-82316243D01*
X68200500Y-82106287D01*
X68200500Y-81893713D01*
X68167246Y-81683757D01*
X68101557Y-81481588D01*
X68005051Y-81292184D01*
X68005049Y-81292181D01*
X68005048Y-81292179D01*
X67880109Y-81120213D01*
X67729786Y-80969890D01*
X67557820Y-80844951D01*
X67368414Y-80748444D01*
X67368413Y-80748443D01*
X67368412Y-80748443D01*
X67166243Y-80682754D01*
X67166241Y-80682753D01*
X67166240Y-80682753D01*
X67004957Y-80657208D01*
X66956287Y-80649500D01*
X66743713Y-80649500D01*
X66695042Y-80657208D01*
X66533760Y-80682753D01*
X66331585Y-80748444D01*
X66142179Y-80844951D01*
X65970213Y-80969890D01*
X65819890Y-81120213D01*
X65694949Y-81292182D01*
X65690484Y-81300946D01*
X65642509Y-81351742D01*
X65574688Y-81368536D01*
X65508553Y-81345998D01*
X65469516Y-81300946D01*
X65465050Y-81292182D01*
X65340109Y-81120213D01*
X65189786Y-80969890D01*
X65013875Y-80842085D01*
X65014851Y-80840740D01*
X64972834Y-80794295D01*
X64960500Y-80740382D01*
X64960500Y-78245928D01*
X64935502Y-78120261D01*
X64935501Y-78120260D01*
X64935501Y-78120256D01*
X64886465Y-78001873D01*
X64859738Y-77961873D01*
X64832530Y-77921153D01*
X64815278Y-77895332D01*
X64815272Y-77895325D01*
X64317014Y-77397068D01*
X64283529Y-77335745D01*
X64283105Y-77333714D01*
X64269737Y-77266503D01*
X64241984Y-77199500D01*
X64209397Y-77120827D01*
X64209390Y-77120814D01*
X64121790Y-76989712D01*
X64121784Y-76989705D01*
X64053232Y-76921153D01*
X71199500Y-76921153D01*
X71199500Y-77078846D01*
X71230261Y-77233489D01*
X71230264Y-77233501D01*
X71290602Y-77379172D01*
X71290606Y-77379179D01*
X71328602Y-77436044D01*
X71349480Y-77502721D01*
X71349500Y-77504935D01*
X71349500Y-134564069D01*
X71366693Y-134650500D01*
X71374499Y-134689744D01*
X71423535Y-134808127D01*
X71494723Y-134914669D01*
X71494726Y-134914673D01*
X71494727Y-134914674D01*
X74182984Y-137602930D01*
X74216469Y-137664253D01*
X74216920Y-137666420D01*
X74230261Y-137733489D01*
X74230264Y-137733501D01*
X74290602Y-137879172D01*
X74290609Y-137879185D01*
X74378210Y-138010288D01*
X74378213Y-138010292D01*
X74489707Y-138121786D01*
X74489711Y-138121789D01*
X74620814Y-138209390D01*
X74620827Y-138209397D01*
X74766498Y-138269735D01*
X74766503Y-138269737D01*
X74921153Y-138300499D01*
X74921156Y-138300500D01*
X74921158Y-138300500D01*
X75078844Y-138300500D01*
X75078845Y-138300499D01*
X75233497Y-138269737D01*
X75379179Y-138209394D01*
X75510289Y-138121789D01*
X75621789Y-138010289D01*
X75709394Y-137879179D01*
X75769737Y-137733497D01*
X75800500Y-137578842D01*
X75800500Y-137421158D01*
X75800500Y-137421155D01*
X75800499Y-137421153D01*
X75769738Y-137266510D01*
X75769737Y-137266503D01*
X75730667Y-137172179D01*
X75709397Y-137120827D01*
X75709390Y-137120814D01*
X75621789Y-136989711D01*
X75621786Y-136989707D01*
X75510292Y-136878213D01*
X75510288Y-136878210D01*
X75379185Y-136790609D01*
X75379172Y-136790602D01*
X75233501Y-136730264D01*
X75233489Y-136730261D01*
X75166420Y-136716920D01*
X75104509Y-136684535D01*
X75102930Y-136682984D01*
X72686819Y-134266873D01*
X72653334Y-134205550D01*
X72650500Y-134179192D01*
X72650500Y-91397756D01*
X72670185Y-91330717D01*
X72722989Y-91284962D01*
X72792147Y-91275018D01*
X72798669Y-91276135D01*
X72833580Y-91283079D01*
X72895491Y-91315465D01*
X72897069Y-91317015D01*
X73313181Y-91733127D01*
X73346666Y-91794450D01*
X73349500Y-91820808D01*
X73349500Y-124564069D01*
X73351459Y-124573917D01*
X73352439Y-124578844D01*
X73374497Y-124689738D01*
X73374499Y-124689744D01*
X73423535Y-124808127D01*
X73471005Y-124879172D01*
X73494726Y-124914673D01*
X73494727Y-124914674D01*
X75682984Y-127102930D01*
X75716469Y-127164253D01*
X75716920Y-127166420D01*
X75730261Y-127233489D01*
X75730264Y-127233501D01*
X75790602Y-127379172D01*
X75790609Y-127379185D01*
X75878210Y-127510288D01*
X75878213Y-127510292D01*
X75989707Y-127621786D01*
X75989711Y-127621789D01*
X76120814Y-127709390D01*
X76120827Y-127709397D01*
X76266498Y-127769735D01*
X76266503Y-127769737D01*
X76421153Y-127800499D01*
X76421156Y-127800500D01*
X76421158Y-127800500D01*
X76578844Y-127800500D01*
X76578845Y-127800499D01*
X76733497Y-127769737D01*
X76879179Y-127709394D01*
X77010289Y-127621789D01*
X77121789Y-127510289D01*
X77209394Y-127379179D01*
X77269737Y-127233497D01*
X77300500Y-127078842D01*
X77300500Y-126921158D01*
X77300500Y-126921155D01*
X77300499Y-126921153D01*
X77269738Y-126766510D01*
X77269737Y-126766503D01*
X77238003Y-126689890D01*
X77209397Y-126620827D01*
X77209390Y-126620814D01*
X77121789Y-126489711D01*
X77121786Y-126489707D01*
X77010292Y-126378213D01*
X77010288Y-126378210D01*
X76879185Y-126290609D01*
X76879172Y-126290602D01*
X76733501Y-126230264D01*
X76733489Y-126230261D01*
X76666420Y-126216920D01*
X76604509Y-126184535D01*
X76602930Y-126182984D01*
X74686819Y-124266873D01*
X74653334Y-124205550D01*
X74650500Y-124179192D01*
X74650500Y-92921153D01*
X76199500Y-92921153D01*
X76199500Y-93078846D01*
X76230261Y-93233489D01*
X76230264Y-93233501D01*
X76290602Y-93379172D01*
X76290609Y-93379185D01*
X76378210Y-93510288D01*
X76378213Y-93510292D01*
X76489707Y-93621786D01*
X76489711Y-93621789D01*
X76620814Y-93709390D01*
X76620827Y-93709397D01*
X76772131Y-93772068D01*
X76771114Y-93774522D01*
X76819930Y-93806510D01*
X76848390Y-93870321D01*
X76849500Y-93886878D01*
X76849500Y-122064069D01*
X76860942Y-122121588D01*
X76874499Y-122189744D01*
X76923535Y-122308127D01*
X76994723Y-122414669D01*
X76994726Y-122414673D01*
X76994727Y-122414674D01*
X79182984Y-124602930D01*
X79216469Y-124664253D01*
X79216920Y-124666420D01*
X79230261Y-124733489D01*
X79230264Y-124733501D01*
X79290602Y-124879172D01*
X79290609Y-124879185D01*
X79378210Y-125010288D01*
X79378213Y-125010292D01*
X79489707Y-125121786D01*
X79489711Y-125121789D01*
X79620814Y-125209390D01*
X79620827Y-125209397D01*
X79766498Y-125269735D01*
X79766503Y-125269737D01*
X79921153Y-125300499D01*
X79921156Y-125300500D01*
X79921158Y-125300500D01*
X80078844Y-125300500D01*
X80078845Y-125300499D01*
X80233497Y-125269737D01*
X80379179Y-125209394D01*
X80510289Y-125121789D01*
X80621789Y-125010289D01*
X80709394Y-124879179D01*
X80769737Y-124733497D01*
X80800500Y-124578842D01*
X80800500Y-124421158D01*
X80800500Y-124421155D01*
X80800499Y-124421153D01*
X80776441Y-124300208D01*
X80769737Y-124266503D01*
X80733572Y-124179192D01*
X80709397Y-124120827D01*
X80709390Y-124120814D01*
X80621789Y-123989711D01*
X80621786Y-123989707D01*
X80510292Y-123878213D01*
X80510288Y-123878210D01*
X80379185Y-123790609D01*
X80379172Y-123790602D01*
X80233501Y-123730264D01*
X80233489Y-123730261D01*
X80166420Y-123716920D01*
X80104509Y-123684535D01*
X80102930Y-123682984D01*
X78186819Y-121766873D01*
X78153334Y-121705550D01*
X78150500Y-121679192D01*
X78150500Y-93435928D01*
X78125502Y-93310261D01*
X78125501Y-93310260D01*
X78125501Y-93310256D01*
X78076465Y-93191873D01*
X78075042Y-93189744D01*
X78005277Y-93085331D01*
X78005275Y-93085329D01*
X78005273Y-93085326D01*
X78005272Y-93085325D01*
X77817014Y-92897068D01*
X77783529Y-92835745D01*
X77783105Y-92833714D01*
X77769737Y-92766503D01*
X77721232Y-92649400D01*
X77709397Y-92620827D01*
X77709390Y-92620814D01*
X77621789Y-92489711D01*
X77621786Y-92489707D01*
X77510292Y-92378213D01*
X77510288Y-92378210D01*
X77379185Y-92290609D01*
X77379172Y-92290602D01*
X77233501Y-92230264D01*
X77233489Y-92230261D01*
X77078845Y-92199500D01*
X77078842Y-92199500D01*
X76921158Y-92199500D01*
X76921155Y-92199500D01*
X76766510Y-92230261D01*
X76766498Y-92230264D01*
X76620827Y-92290602D01*
X76620814Y-92290609D01*
X76489711Y-92378210D01*
X76489707Y-92378213D01*
X76378213Y-92489707D01*
X76378210Y-92489711D01*
X76290609Y-92620814D01*
X76290602Y-92620827D01*
X76230264Y-92766498D01*
X76230261Y-92766510D01*
X76199500Y-92921153D01*
X74650500Y-92921153D01*
X74650500Y-91435928D01*
X74625502Y-91310261D01*
X74625501Y-91310260D01*
X74625501Y-91310256D01*
X74617283Y-91290417D01*
X74592367Y-91230263D01*
X74576467Y-91191877D01*
X74576466Y-91191874D01*
X74571562Y-91184535D01*
X74505278Y-91085332D01*
X74505272Y-91085325D01*
X73817014Y-90397068D01*
X73783529Y-90335745D01*
X73783105Y-90333714D01*
X73769737Y-90266503D01*
X73713001Y-90129528D01*
X73709397Y-90120827D01*
X73709390Y-90120814D01*
X73621789Y-89989711D01*
X73621786Y-89989707D01*
X73510292Y-89878213D01*
X73510288Y-89878210D01*
X73379185Y-89790609D01*
X73379172Y-89790602D01*
X73233501Y-89730264D01*
X73233489Y-89730261D01*
X73078845Y-89699500D01*
X73078842Y-89699500D01*
X72921158Y-89699500D01*
X72921153Y-89699500D01*
X72798691Y-89723859D01*
X72729099Y-89717632D01*
X72673922Y-89674768D01*
X72650678Y-89608879D01*
X72650500Y-89602242D01*
X72650500Y-81853713D01*
X74339500Y-81853713D01*
X74339500Y-82066287D01*
X74372754Y-82276243D01*
X74392263Y-82336286D01*
X74438444Y-82478414D01*
X74534951Y-82667820D01*
X74659890Y-82839786D01*
X74773818Y-82953714D01*
X74807303Y-83015037D01*
X74802319Y-83084729D01*
X74760447Y-83140662D01*
X74729471Y-83157577D01*
X74597912Y-83206646D01*
X74597906Y-83206649D01*
X74482812Y-83292809D01*
X74482809Y-83292812D01*
X74396649Y-83407906D01*
X74396645Y-83407913D01*
X74346403Y-83542620D01*
X74346401Y-83542627D01*
X74340000Y-83602155D01*
X74340000Y-84250000D01*
X75256988Y-84250000D01*
X75224075Y-84307007D01*
X75190000Y-84434174D01*
X75190000Y-84565826D01*
X75224075Y-84692993D01*
X75256988Y-84750000D01*
X74340000Y-84750000D01*
X74340000Y-85397844D01*
X74346401Y-85457372D01*
X74346403Y-85457379D01*
X74396645Y-85592086D01*
X74396649Y-85592093D01*
X74482809Y-85707187D01*
X74482812Y-85707190D01*
X74597906Y-85793350D01*
X74597913Y-85793354D01*
X74732620Y-85843596D01*
X74732627Y-85843598D01*
X74792155Y-85849999D01*
X74792172Y-85850000D01*
X75440000Y-85850000D01*
X75440000Y-84933012D01*
X75497007Y-84965925D01*
X75624174Y-85000000D01*
X75755826Y-85000000D01*
X75882993Y-84965925D01*
X75940000Y-84933012D01*
X75940000Y-85850000D01*
X76587828Y-85850000D01*
X76587844Y-85849999D01*
X76647372Y-85843598D01*
X76647379Y-85843596D01*
X76782086Y-85793354D01*
X76782093Y-85793350D01*
X76897187Y-85707190D01*
X76897190Y-85707187D01*
X76983350Y-85592093D01*
X76983354Y-85592086D01*
X77032422Y-85460529D01*
X77074293Y-85404595D01*
X77139757Y-85380178D01*
X77208030Y-85395030D01*
X77236285Y-85416181D01*
X77350213Y-85530109D01*
X77522179Y-85655048D01*
X77522181Y-85655049D01*
X77522184Y-85655051D01*
X77711588Y-85751557D01*
X77913757Y-85817246D01*
X78123713Y-85850500D01*
X78123714Y-85850500D01*
X78336286Y-85850500D01*
X78336287Y-85850500D01*
X78520938Y-85821254D01*
X78551055Y-85816484D01*
X78551315Y-85818126D01*
X78613863Y-85821254D01*
X78660712Y-85850657D01*
X78813181Y-86003126D01*
X78846666Y-86064449D01*
X78849500Y-86090807D01*
X78849500Y-115495064D01*
X78829815Y-115562103D01*
X78828603Y-115563954D01*
X78790608Y-115620817D01*
X78790602Y-115620828D01*
X78730264Y-115766498D01*
X78730261Y-115766510D01*
X78699500Y-115921153D01*
X78699500Y-116078846D01*
X78730261Y-116233489D01*
X78730264Y-116233501D01*
X78790602Y-116379172D01*
X78790609Y-116379185D01*
X78878210Y-116510288D01*
X78878213Y-116510292D01*
X78989707Y-116621786D01*
X78989711Y-116621789D01*
X79120814Y-116709390D01*
X79120827Y-116709397D01*
X79266498Y-116769735D01*
X79266503Y-116769737D01*
X79421153Y-116800499D01*
X79421156Y-116800500D01*
X79421158Y-116800500D01*
X79578844Y-116800500D01*
X79578845Y-116800499D01*
X79733497Y-116769737D01*
X79879179Y-116709394D01*
X80010289Y-116621789D01*
X80121789Y-116510289D01*
X80209394Y-116379179D01*
X80269737Y-116233497D01*
X80300500Y-116078842D01*
X80300500Y-115921158D01*
X80300500Y-115921155D01*
X80300499Y-115921153D01*
X80269738Y-115766510D01*
X80269737Y-115766503D01*
X80253714Y-115727820D01*
X80209397Y-115620828D01*
X80209396Y-115620827D01*
X80209394Y-115620821D01*
X80171396Y-115563953D01*
X80150520Y-115497276D01*
X80150500Y-115495064D01*
X80150500Y-89869808D01*
X80170185Y-89802769D01*
X80222989Y-89757014D01*
X80292147Y-89747070D01*
X80355703Y-89776095D01*
X80362181Y-89782127D01*
X80682984Y-90102930D01*
X80716469Y-90164253D01*
X80716920Y-90166420D01*
X80730261Y-90233489D01*
X80730264Y-90233501D01*
X80790602Y-90379172D01*
X80790606Y-90379179D01*
X80828602Y-90436044D01*
X80849480Y-90502721D01*
X80849500Y-90504935D01*
X80849500Y-115995064D01*
X80829815Y-116062103D01*
X80828603Y-116063954D01*
X80790608Y-116120817D01*
X80790602Y-116120828D01*
X80730264Y-116266498D01*
X80730261Y-116266510D01*
X80699500Y-116421153D01*
X80699500Y-116578846D01*
X80730261Y-116733489D01*
X80730264Y-116733501D01*
X80790602Y-116879172D01*
X80790609Y-116879185D01*
X80878210Y-117010288D01*
X80878213Y-117010292D01*
X80989707Y-117121786D01*
X80989711Y-117121789D01*
X81120814Y-117209390D01*
X81120827Y-117209397D01*
X81203781Y-117243757D01*
X81266503Y-117269737D01*
X81421153Y-117300499D01*
X81421156Y-117300500D01*
X81421158Y-117300500D01*
X81578844Y-117300500D01*
X81578845Y-117300499D01*
X81733497Y-117269737D01*
X81879179Y-117209394D01*
X82010289Y-117121789D01*
X82121789Y-117010289D01*
X82209394Y-116879179D01*
X82269737Y-116733497D01*
X82300500Y-116578842D01*
X82300500Y-116421158D01*
X82300500Y-116421155D01*
X82300499Y-116421153D01*
X82278079Y-116308443D01*
X82269737Y-116266503D01*
X82209394Y-116120821D01*
X82171396Y-116063953D01*
X82150520Y-115997276D01*
X82150500Y-115995064D01*
X82150500Y-102213713D01*
X84649500Y-102213713D01*
X84649500Y-102426287D01*
X84682754Y-102636243D01*
X84725329Y-102767276D01*
X84748444Y-102838414D01*
X84844951Y-103027820D01*
X84969890Y-103199786D01*
X85120213Y-103350109D01*
X85292182Y-103475050D01*
X85300946Y-103479516D01*
X85351742Y-103527491D01*
X85368536Y-103595312D01*
X85345998Y-103661447D01*
X85300946Y-103700484D01*
X85292182Y-103704949D01*
X85120213Y-103829890D01*
X84969890Y-103980213D01*
X84844951Y-104152179D01*
X84748444Y-104341585D01*
X84682753Y-104543760D01*
X84649500Y-104753713D01*
X84649500Y-104966286D01*
X84682753Y-105176239D01*
X84748444Y-105378414D01*
X84844951Y-105567820D01*
X84969890Y-105739786D01*
X85120213Y-105890109D01*
X85292182Y-106015050D01*
X85300946Y-106019516D01*
X85351742Y-106067491D01*
X85368536Y-106135312D01*
X85345998Y-106201447D01*
X85300946Y-106240484D01*
X85292182Y-106244949D01*
X85120213Y-106369890D01*
X84969890Y-106520213D01*
X84844951Y-106692179D01*
X84748444Y-106881585D01*
X84682753Y-107083760D01*
X84649500Y-107293713D01*
X84649500Y-107506286D01*
X84682753Y-107716239D01*
X84748444Y-107918414D01*
X84844951Y-108107820D01*
X84969890Y-108279786D01*
X85120213Y-108430109D01*
X85292182Y-108555050D01*
X85300946Y-108559516D01*
X85351742Y-108607491D01*
X85368536Y-108675312D01*
X85345998Y-108741447D01*
X85300946Y-108780484D01*
X85292182Y-108784949D01*
X85120213Y-108909890D01*
X84969890Y-109060213D01*
X84844951Y-109232179D01*
X84748444Y-109421585D01*
X84682753Y-109623760D01*
X84673974Y-109679192D01*
X84649500Y-109833713D01*
X84649500Y-110046287D01*
X84652317Y-110064071D01*
X84672221Y-110189744D01*
X84682754Y-110256243D01*
X84699612Y-110308127D01*
X84748444Y-110458414D01*
X84844951Y-110647820D01*
X84969890Y-110819786D01*
X85120213Y-110970109D01*
X85292182Y-111095050D01*
X85300946Y-111099516D01*
X85351742Y-111147491D01*
X85368536Y-111215312D01*
X85345998Y-111281447D01*
X85300946Y-111320484D01*
X85292182Y-111324949D01*
X85120213Y-111449890D01*
X84969890Y-111600213D01*
X84844951Y-111772179D01*
X84748444Y-111961585D01*
X84682753Y-112163760D01*
X84649500Y-112373713D01*
X84649500Y-112586286D01*
X84682753Y-112796239D01*
X84748444Y-112998414D01*
X84844951Y-113187820D01*
X84969890Y-113359786D01*
X85120213Y-113510109D01*
X85292182Y-113635050D01*
X85300946Y-113639516D01*
X85351742Y-113687491D01*
X85368536Y-113755312D01*
X85345998Y-113821447D01*
X85300946Y-113860484D01*
X85292182Y-113864949D01*
X85120213Y-113989890D01*
X84969890Y-114140213D01*
X84844951Y-114312179D01*
X84748444Y-114501585D01*
X84682753Y-114703760D01*
X84649500Y-114913713D01*
X84649500Y-115126286D01*
X84666480Y-115233497D01*
X84682754Y-115336243D01*
X84746580Y-115532679D01*
X84748444Y-115538414D01*
X84844951Y-115727820D01*
X84969890Y-115899786D01*
X85120213Y-116050109D01*
X85292182Y-116175050D01*
X85300946Y-116179516D01*
X85351742Y-116227491D01*
X85368536Y-116295312D01*
X85345998Y-116361447D01*
X85300946Y-116400484D01*
X85292182Y-116404949D01*
X85120213Y-116529890D01*
X84969890Y-116680213D01*
X84844951Y-116852179D01*
X84748444Y-117041585D01*
X84682753Y-117243760D01*
X84649500Y-117453713D01*
X84649500Y-117666286D01*
X84682753Y-117876239D01*
X84748444Y-118078414D01*
X84844951Y-118267820D01*
X84969890Y-118439786D01*
X85120213Y-118590109D01*
X85292182Y-118715050D01*
X85300946Y-118719516D01*
X85351742Y-118767491D01*
X85368536Y-118835312D01*
X85345998Y-118901447D01*
X85300946Y-118940484D01*
X85292182Y-118944949D01*
X85120213Y-119069890D01*
X84969890Y-119220213D01*
X84844951Y-119392179D01*
X84748444Y-119581585D01*
X84682753Y-119783760D01*
X84649500Y-119993713D01*
X84649500Y-120206286D01*
X84682504Y-120414669D01*
X84682754Y-120416243D01*
X84735587Y-120578846D01*
X84748444Y-120618414D01*
X84844951Y-120807820D01*
X84969890Y-120979786D01*
X85120213Y-121130109D01*
X85292182Y-121255050D01*
X85300946Y-121259516D01*
X85351742Y-121307491D01*
X85368536Y-121375312D01*
X85345998Y-121441447D01*
X85300946Y-121480484D01*
X85292182Y-121484949D01*
X85120213Y-121609890D01*
X84969890Y-121760213D01*
X84844951Y-121932179D01*
X84748444Y-122121585D01*
X84682753Y-122323760D01*
X84649500Y-122533713D01*
X84649500Y-122746286D01*
X84682753Y-122956239D01*
X84748444Y-123158414D01*
X84844951Y-123347820D01*
X84969890Y-123519786D01*
X85120213Y-123670109D01*
X85292182Y-123795050D01*
X85300946Y-123799516D01*
X85351742Y-123847491D01*
X85368536Y-123915312D01*
X85345998Y-123981447D01*
X85300946Y-124020484D01*
X85292182Y-124024949D01*
X85120213Y-124149890D01*
X84969890Y-124300213D01*
X84844951Y-124472179D01*
X84748444Y-124661585D01*
X84682753Y-124863760D01*
X84649500Y-125073713D01*
X84649500Y-125286286D01*
X84682753Y-125496239D01*
X84748444Y-125698414D01*
X84844951Y-125887820D01*
X84969890Y-126059786D01*
X85120213Y-126210109D01*
X85292182Y-126335050D01*
X85300946Y-126339516D01*
X85351742Y-126387491D01*
X85368536Y-126455312D01*
X85345998Y-126521447D01*
X85300946Y-126560484D01*
X85292182Y-126564949D01*
X85120213Y-126689890D01*
X84969890Y-126840213D01*
X84844951Y-127012179D01*
X84748444Y-127201585D01*
X84682753Y-127403760D01*
X84649500Y-127613713D01*
X84649500Y-127826286D01*
X84682753Y-128036239D01*
X84748444Y-128238414D01*
X84844951Y-128427820D01*
X84969890Y-128599786D01*
X85120213Y-128750109D01*
X85292182Y-128875050D01*
X85300946Y-128879516D01*
X85351742Y-128927491D01*
X85368536Y-128995312D01*
X85345998Y-129061447D01*
X85300946Y-129100484D01*
X85292182Y-129104949D01*
X85120213Y-129229890D01*
X84969890Y-129380213D01*
X84844951Y-129552179D01*
X84748444Y-129741585D01*
X84682753Y-129943760D01*
X84649500Y-130153713D01*
X84649500Y-130366286D01*
X84682753Y-130576239D01*
X84748444Y-130778414D01*
X84844951Y-130967820D01*
X84969890Y-131139786D01*
X85120213Y-131290109D01*
X85292182Y-131415050D01*
X85300946Y-131419516D01*
X85351742Y-131467491D01*
X85368536Y-131535312D01*
X85345998Y-131601447D01*
X85300946Y-131640484D01*
X85292182Y-131644949D01*
X85120213Y-131769890D01*
X84969890Y-131920213D01*
X84844951Y-132092179D01*
X84748444Y-132281585D01*
X84682753Y-132483760D01*
X84649500Y-132693713D01*
X84649500Y-132906287D01*
X84682754Y-133116243D01*
X84739409Y-133290609D01*
X84748444Y-133318414D01*
X84844951Y-133507820D01*
X84969890Y-133679786D01*
X85120213Y-133830109D01*
X85292182Y-133955050D01*
X85300946Y-133959516D01*
X85351742Y-134007491D01*
X85368536Y-134075312D01*
X85345998Y-134141447D01*
X85300946Y-134180484D01*
X85292182Y-134184949D01*
X85120213Y-134309890D01*
X84969890Y-134460213D01*
X84844951Y-134632179D01*
X84748444Y-134821585D01*
X84682753Y-135023760D01*
X84649500Y-135233713D01*
X84649500Y-135446286D01*
X84682753Y-135656239D01*
X84748444Y-135858414D01*
X84844951Y-136047820D01*
X84969890Y-136219786D01*
X85120213Y-136370109D01*
X85292182Y-136495050D01*
X85300946Y-136499516D01*
X85351742Y-136547491D01*
X85368536Y-136615312D01*
X85345998Y-136681447D01*
X85300946Y-136720484D01*
X85292182Y-136724949D01*
X85120213Y-136849890D01*
X84969890Y-137000213D01*
X84844951Y-137172179D01*
X84748444Y-137361585D01*
X84682753Y-137563760D01*
X84655871Y-137733489D01*
X84649500Y-137773713D01*
X84649500Y-137986287D01*
X84653302Y-138010289D01*
X84670961Y-138121789D01*
X84682754Y-138196243D01*
X84716629Y-138300500D01*
X84748444Y-138398414D01*
X84844951Y-138587820D01*
X84969890Y-138759786D01*
X85120213Y-138910109D01*
X85292182Y-139035050D01*
X85300946Y-139039516D01*
X85351742Y-139087491D01*
X85368536Y-139155312D01*
X85345998Y-139221447D01*
X85300946Y-139260484D01*
X85292182Y-139264949D01*
X85120213Y-139389890D01*
X84969890Y-139540213D01*
X84844951Y-139712179D01*
X84748444Y-139901585D01*
X84682753Y-140103760D01*
X84649500Y-140313713D01*
X84649500Y-140526286D01*
X84682753Y-140736239D01*
X84748444Y-140938414D01*
X84844951Y-141127820D01*
X84969890Y-141299786D01*
X85120213Y-141450109D01*
X85292182Y-141575050D01*
X85300946Y-141579516D01*
X85351742Y-141627491D01*
X85368536Y-141695312D01*
X85345998Y-141761447D01*
X85300946Y-141800484D01*
X85292182Y-141804949D01*
X85120213Y-141929890D01*
X84969890Y-142080213D01*
X84844951Y-142252179D01*
X84748444Y-142441585D01*
X84682753Y-142643760D01*
X84649500Y-142853713D01*
X84649500Y-143066286D01*
X84682753Y-143276239D01*
X84748444Y-143478414D01*
X84844951Y-143667820D01*
X84969890Y-143839786D01*
X85120213Y-143990109D01*
X85292182Y-144115050D01*
X85300946Y-144119516D01*
X85351742Y-144167491D01*
X85368536Y-144235312D01*
X85345998Y-144301447D01*
X85300946Y-144340484D01*
X85292182Y-144344949D01*
X85120213Y-144469890D01*
X84969890Y-144620213D01*
X84844951Y-144792179D01*
X84748444Y-144981585D01*
X84682753Y-145183760D01*
X84649500Y-145393713D01*
X84649500Y-145606287D01*
X84682754Y-145816243D01*
X84708576Y-145895716D01*
X84748444Y-146018414D01*
X84844951Y-146207820D01*
X84969890Y-146379786D01*
X85120213Y-146530109D01*
X85292179Y-146655048D01*
X85292181Y-146655049D01*
X85292184Y-146655051D01*
X85481588Y-146751557D01*
X85683757Y-146817246D01*
X85893713Y-146850500D01*
X85893714Y-146850500D01*
X86106286Y-146850500D01*
X86106287Y-146850500D01*
X86316243Y-146817246D01*
X86518412Y-146751557D01*
X86707816Y-146655051D01*
X86771598Y-146608711D01*
X86879786Y-146530109D01*
X86879788Y-146530106D01*
X86879792Y-146530104D01*
X87030104Y-146379792D01*
X87030106Y-146379788D01*
X87030109Y-146379786D01*
X87155048Y-146207820D01*
X87155047Y-146207820D01*
X87155051Y-146207816D01*
X87251557Y-146018412D01*
X87317246Y-145816243D01*
X87350500Y-145606287D01*
X87350500Y-145393713D01*
X87317246Y-145183757D01*
X87251557Y-144981588D01*
X87155051Y-144792184D01*
X87155049Y-144792181D01*
X87155048Y-144792179D01*
X87030109Y-144620213D01*
X86879786Y-144469890D01*
X86707820Y-144344951D01*
X86707115Y-144344591D01*
X86699054Y-144340485D01*
X86648259Y-144292512D01*
X86631463Y-144224692D01*
X86653999Y-144158556D01*
X86699054Y-144119515D01*
X86707816Y-144115051D01*
X86729789Y-144099086D01*
X86879786Y-143990109D01*
X86879788Y-143990106D01*
X86879792Y-143990104D01*
X87030104Y-143839792D01*
X87030106Y-143839788D01*
X87030109Y-143839786D01*
X87155048Y-143667820D01*
X87155047Y-143667820D01*
X87155051Y-143667816D01*
X87251557Y-143478412D01*
X87317246Y-143276243D01*
X87350500Y-143066287D01*
X87350500Y-142853713D01*
X87317246Y-142643757D01*
X87251557Y-142441588D01*
X87155051Y-142252184D01*
X87155049Y-142252181D01*
X87155048Y-142252179D01*
X87030109Y-142080213D01*
X86879786Y-141929890D01*
X86707820Y-141804951D01*
X86707115Y-141804591D01*
X86699054Y-141800485D01*
X86648259Y-141752512D01*
X86631463Y-141684692D01*
X86653999Y-141618556D01*
X86699054Y-141579515D01*
X86707816Y-141575051D01*
X86729789Y-141559086D01*
X86879786Y-141450109D01*
X86879788Y-141450106D01*
X86879792Y-141450104D01*
X87030104Y-141299792D01*
X87030106Y-141299788D01*
X87030109Y-141299786D01*
X87155048Y-141127820D01*
X87155047Y-141127820D01*
X87155051Y-141127816D01*
X87251557Y-140938412D01*
X87317246Y-140736243D01*
X87350500Y-140526287D01*
X87350500Y-140313713D01*
X87317246Y-140103757D01*
X87251557Y-139901588D01*
X87155051Y-139712184D01*
X87155049Y-139712181D01*
X87155048Y-139712179D01*
X87030109Y-139540213D01*
X86879786Y-139389890D01*
X86707820Y-139264951D01*
X86707115Y-139264591D01*
X86699054Y-139260485D01*
X86648259Y-139212512D01*
X86631463Y-139144692D01*
X86653999Y-139078556D01*
X86699054Y-139039515D01*
X86707816Y-139035051D01*
X86729789Y-139019086D01*
X86879786Y-138910109D01*
X86879788Y-138910106D01*
X86879792Y-138910104D01*
X87030104Y-138759792D01*
X87030106Y-138759788D01*
X87030109Y-138759786D01*
X87155048Y-138587820D01*
X87155047Y-138587820D01*
X87155051Y-138587816D01*
X87251557Y-138398412D01*
X87317246Y-138196243D01*
X87350500Y-137986287D01*
X87350500Y-137773713D01*
X87317246Y-137563757D01*
X87251557Y-137361588D01*
X87155051Y-137172184D01*
X87155049Y-137172181D01*
X87155048Y-137172179D01*
X87030109Y-137000213D01*
X86879786Y-136849890D01*
X86707820Y-136724951D01*
X86707115Y-136724591D01*
X86699054Y-136720485D01*
X86648259Y-136672512D01*
X86631463Y-136604692D01*
X86653999Y-136538556D01*
X86699054Y-136499515D01*
X86707816Y-136495051D01*
X86729789Y-136479086D01*
X86879786Y-136370109D01*
X86879788Y-136370106D01*
X86879792Y-136370104D01*
X87030104Y-136219792D01*
X87030106Y-136219788D01*
X87030109Y-136219786D01*
X87155048Y-136047820D01*
X87155047Y-136047820D01*
X87155051Y-136047816D01*
X87251557Y-135858412D01*
X87317246Y-135656243D01*
X87350500Y-135446287D01*
X87350500Y-135233713D01*
X87317246Y-135023757D01*
X87251557Y-134821588D01*
X87155051Y-134632184D01*
X87155049Y-134632181D01*
X87155048Y-134632179D01*
X87030109Y-134460213D01*
X86879786Y-134309890D01*
X86707820Y-134184951D01*
X86707115Y-134184591D01*
X86699054Y-134180485D01*
X86648259Y-134132512D01*
X86631463Y-134064692D01*
X86653999Y-133998556D01*
X86699054Y-133959515D01*
X86707816Y-133955051D01*
X86754473Y-133921153D01*
X86879786Y-133830109D01*
X86879788Y-133830106D01*
X86879792Y-133830104D01*
X87030104Y-133679792D01*
X87030106Y-133679788D01*
X87030109Y-133679786D01*
X87155048Y-133507820D01*
X87155047Y-133507820D01*
X87155051Y-133507816D01*
X87251557Y-133318412D01*
X87317246Y-133116243D01*
X87350500Y-132906287D01*
X87350500Y-132693713D01*
X87317246Y-132483757D01*
X87251557Y-132281588D01*
X87155051Y-132092184D01*
X87155049Y-132092181D01*
X87155048Y-132092179D01*
X87030109Y-131920213D01*
X86879786Y-131769890D01*
X86707820Y-131644951D01*
X86707115Y-131644591D01*
X86699054Y-131640485D01*
X86648259Y-131592512D01*
X86631463Y-131524692D01*
X86653999Y-131458556D01*
X86699054Y-131419515D01*
X86707816Y-131415051D01*
X86729789Y-131399086D01*
X86879786Y-131290109D01*
X86879788Y-131290106D01*
X86879792Y-131290104D01*
X87030104Y-131139792D01*
X87030106Y-131139788D01*
X87030109Y-131139786D01*
X87155048Y-130967820D01*
X87155047Y-130967820D01*
X87155051Y-130967816D01*
X87251557Y-130778412D01*
X87317246Y-130576243D01*
X87350500Y-130366287D01*
X87350500Y-130153713D01*
X87317246Y-129943757D01*
X87251557Y-129741588D01*
X87155051Y-129552184D01*
X87155049Y-129552181D01*
X87155048Y-129552179D01*
X87030109Y-129380213D01*
X86879786Y-129229890D01*
X86707820Y-129104951D01*
X86707115Y-129104591D01*
X86699054Y-129100485D01*
X86648259Y-129052512D01*
X86631463Y-128984692D01*
X86653999Y-128918556D01*
X86699054Y-128879515D01*
X86707816Y-128875051D01*
X86729789Y-128859086D01*
X86879786Y-128750109D01*
X86879788Y-128750106D01*
X86879792Y-128750104D01*
X87030104Y-128599792D01*
X87030106Y-128599788D01*
X87030109Y-128599786D01*
X87155048Y-128427820D01*
X87155047Y-128427820D01*
X87155051Y-128427816D01*
X87251557Y-128238412D01*
X87317246Y-128036243D01*
X87350500Y-127826287D01*
X87350500Y-127613713D01*
X87317246Y-127403757D01*
X87251557Y-127201588D01*
X87155051Y-127012184D01*
X87155049Y-127012181D01*
X87155048Y-127012179D01*
X87030109Y-126840213D01*
X86879786Y-126689890D01*
X86707820Y-126564951D01*
X86707115Y-126564591D01*
X86699054Y-126560485D01*
X86648259Y-126512512D01*
X86631463Y-126444692D01*
X86653999Y-126378556D01*
X86699054Y-126339515D01*
X86707816Y-126335051D01*
X86768995Y-126290602D01*
X86879786Y-126210109D01*
X86879788Y-126210106D01*
X86879792Y-126210104D01*
X87030104Y-126059792D01*
X87030106Y-126059788D01*
X87030109Y-126059786D01*
X87155048Y-125887820D01*
X87155047Y-125887820D01*
X87155051Y-125887816D01*
X87251557Y-125698412D01*
X87317246Y-125496243D01*
X87350500Y-125286287D01*
X87350500Y-125073713D01*
X87317246Y-124863757D01*
X87251557Y-124661588D01*
X87155051Y-124472184D01*
X87155049Y-124472181D01*
X87155048Y-124472179D01*
X87030109Y-124300213D01*
X86879786Y-124149890D01*
X86707820Y-124024951D01*
X86707115Y-124024591D01*
X86699054Y-124020485D01*
X86648259Y-123972512D01*
X86631463Y-123904692D01*
X86653999Y-123838556D01*
X86699054Y-123799515D01*
X86707816Y-123795051D01*
X86729789Y-123779086D01*
X86879786Y-123670109D01*
X86879788Y-123670106D01*
X86879792Y-123670104D01*
X87030104Y-123519792D01*
X87030106Y-123519788D01*
X87030109Y-123519786D01*
X87155048Y-123347820D01*
X87155047Y-123347820D01*
X87155051Y-123347816D01*
X87251557Y-123158412D01*
X87317246Y-122956243D01*
X87350500Y-122746287D01*
X87350500Y-122533713D01*
X87317246Y-122323757D01*
X87251557Y-122121588D01*
X87155051Y-121932184D01*
X87155049Y-121932181D01*
X87155048Y-121932179D01*
X87030109Y-121760213D01*
X86879786Y-121609890D01*
X86707820Y-121484951D01*
X86707115Y-121484591D01*
X86699054Y-121480485D01*
X86648259Y-121432512D01*
X86631463Y-121364692D01*
X86653999Y-121298556D01*
X86699054Y-121259515D01*
X86707816Y-121255051D01*
X86770658Y-121209394D01*
X86879786Y-121130109D01*
X86879788Y-121130106D01*
X86879792Y-121130104D01*
X87030104Y-120979792D01*
X87030106Y-120979788D01*
X87030109Y-120979786D01*
X87155048Y-120807820D01*
X87155047Y-120807820D01*
X87155051Y-120807816D01*
X87251557Y-120618412D01*
X87317246Y-120416243D01*
X87350500Y-120206287D01*
X87350500Y-119993713D01*
X87317246Y-119783757D01*
X87251557Y-119581588D01*
X87155051Y-119392184D01*
X87155049Y-119392181D01*
X87155048Y-119392179D01*
X87030109Y-119220213D01*
X86879786Y-119069890D01*
X86707820Y-118944951D01*
X86707115Y-118944591D01*
X86699054Y-118940485D01*
X86648259Y-118892512D01*
X86631463Y-118824692D01*
X86653999Y-118758556D01*
X86699054Y-118719515D01*
X86707816Y-118715051D01*
X86729789Y-118699086D01*
X86879786Y-118590109D01*
X86879788Y-118590106D01*
X86879792Y-118590104D01*
X87030104Y-118439792D01*
X87030106Y-118439788D01*
X87030109Y-118439786D01*
X87155048Y-118267820D01*
X87155047Y-118267820D01*
X87155051Y-118267816D01*
X87251557Y-118078412D01*
X87317246Y-117876243D01*
X87350500Y-117666287D01*
X87350500Y-117453713D01*
X87317246Y-117243757D01*
X87251557Y-117041588D01*
X87155051Y-116852184D01*
X87155049Y-116852181D01*
X87155048Y-116852179D01*
X87030109Y-116680213D01*
X86879786Y-116529890D01*
X86707820Y-116404951D01*
X86707115Y-116404591D01*
X86699054Y-116400485D01*
X86648259Y-116352512D01*
X86631463Y-116284692D01*
X86653999Y-116218556D01*
X86699054Y-116179515D01*
X86707816Y-116175051D01*
X86782458Y-116120821D01*
X86879786Y-116050109D01*
X86879788Y-116050106D01*
X86879792Y-116050104D01*
X87030104Y-115899792D01*
X87030106Y-115899788D01*
X87030109Y-115899786D01*
X87155048Y-115727820D01*
X87155047Y-115727820D01*
X87155051Y-115727816D01*
X87251557Y-115538412D01*
X87317246Y-115336243D01*
X87350500Y-115126287D01*
X87350500Y-114913713D01*
X87317246Y-114703757D01*
X87251557Y-114501588D01*
X87155051Y-114312184D01*
X87155049Y-114312181D01*
X87155048Y-114312179D01*
X87030109Y-114140213D01*
X86879786Y-113989890D01*
X86707820Y-113864951D01*
X86707115Y-113864591D01*
X86699054Y-113860485D01*
X86648259Y-113812512D01*
X86631463Y-113744692D01*
X86653999Y-113678556D01*
X86699054Y-113639515D01*
X86707816Y-113635051D01*
X86766610Y-113592335D01*
X86879786Y-113510109D01*
X86879788Y-113510106D01*
X86879792Y-113510104D01*
X87030104Y-113359792D01*
X87030106Y-113359788D01*
X87030109Y-113359786D01*
X87155048Y-113187820D01*
X87155047Y-113187820D01*
X87155051Y-113187816D01*
X87251557Y-112998412D01*
X87317246Y-112796243D01*
X87350500Y-112586287D01*
X87350500Y-112373713D01*
X87317246Y-112163757D01*
X87251557Y-111961588D01*
X87155051Y-111772184D01*
X87155049Y-111772181D01*
X87155048Y-111772179D01*
X87030109Y-111600213D01*
X86879786Y-111449890D01*
X86707820Y-111324951D01*
X86707115Y-111324591D01*
X86699054Y-111320485D01*
X86648259Y-111272512D01*
X86631463Y-111204692D01*
X86653999Y-111138556D01*
X86699054Y-111099515D01*
X86707816Y-111095051D01*
X86729789Y-111079086D01*
X86879786Y-110970109D01*
X86879788Y-110970106D01*
X86879792Y-110970104D01*
X87030104Y-110819792D01*
X87030106Y-110819788D01*
X87030109Y-110819786D01*
X87155048Y-110647820D01*
X87155047Y-110647820D01*
X87155051Y-110647816D01*
X87251557Y-110458412D01*
X87317246Y-110256243D01*
X87350500Y-110046287D01*
X87350500Y-109833713D01*
X87317246Y-109623757D01*
X87251557Y-109421588D01*
X87155051Y-109232184D01*
X87155049Y-109232181D01*
X87155048Y-109232179D01*
X87030109Y-109060213D01*
X86879786Y-108909890D01*
X86707820Y-108784951D01*
X86707115Y-108784591D01*
X86699054Y-108780485D01*
X86648259Y-108732512D01*
X86631463Y-108664692D01*
X86653999Y-108598556D01*
X86699054Y-108559515D01*
X86707816Y-108555051D01*
X86729789Y-108539086D01*
X86879786Y-108430109D01*
X86879788Y-108430106D01*
X86879792Y-108430104D01*
X87030104Y-108279792D01*
X87030106Y-108279788D01*
X87030109Y-108279786D01*
X87155048Y-108107820D01*
X87155047Y-108107820D01*
X87155051Y-108107816D01*
X87251557Y-107918412D01*
X87317246Y-107716243D01*
X87350500Y-107506287D01*
X87350500Y-107293713D01*
X87317246Y-107083757D01*
X87251557Y-106881588D01*
X87155051Y-106692184D01*
X87155049Y-106692181D01*
X87155048Y-106692179D01*
X87030109Y-106520213D01*
X86879786Y-106369890D01*
X86707820Y-106244951D01*
X86707115Y-106244591D01*
X86699054Y-106240485D01*
X86648259Y-106192512D01*
X86631463Y-106124692D01*
X86653999Y-106058556D01*
X86699054Y-106019515D01*
X86707816Y-106015051D01*
X86729789Y-105999086D01*
X86879786Y-105890109D01*
X86879788Y-105890106D01*
X86879792Y-105890104D01*
X87030104Y-105739792D01*
X87030106Y-105739788D01*
X87030109Y-105739786D01*
X87155048Y-105567820D01*
X87155047Y-105567820D01*
X87155051Y-105567816D01*
X87251557Y-105378412D01*
X87317246Y-105176243D01*
X87350500Y-104966287D01*
X87350500Y-104753713D01*
X87317246Y-104543757D01*
X87251557Y-104341588D01*
X87155051Y-104152184D01*
X87155049Y-104152181D01*
X87155048Y-104152179D01*
X87030109Y-103980213D01*
X86879786Y-103829890D01*
X86707820Y-103704951D01*
X86707115Y-103704591D01*
X86699054Y-103700485D01*
X86648259Y-103652512D01*
X86631463Y-103584692D01*
X86653999Y-103518556D01*
X86699054Y-103479515D01*
X86707816Y-103475051D01*
X86729789Y-103459086D01*
X86879786Y-103350109D01*
X86879788Y-103350106D01*
X86879792Y-103350104D01*
X87030104Y-103199792D01*
X87030106Y-103199788D01*
X87030109Y-103199786D01*
X87155048Y-103027820D01*
X87155047Y-103027820D01*
X87155051Y-103027816D01*
X87251557Y-102838412D01*
X87317246Y-102636243D01*
X87350500Y-102426287D01*
X87350500Y-102213713D01*
X87317246Y-102003757D01*
X87251557Y-101801588D01*
X87155051Y-101612184D01*
X87155049Y-101612181D01*
X87155048Y-101612179D01*
X87030109Y-101440213D01*
X86916181Y-101326285D01*
X86882696Y-101264962D01*
X86887680Y-101195270D01*
X86929552Y-101139337D01*
X86960529Y-101122422D01*
X87092086Y-101073354D01*
X87092093Y-101073350D01*
X87207187Y-100987190D01*
X87207190Y-100987187D01*
X87293350Y-100872093D01*
X87293354Y-100872086D01*
X87343596Y-100737379D01*
X87343598Y-100737372D01*
X87349999Y-100677844D01*
X87350000Y-100677827D01*
X87350000Y-100030000D01*
X86433012Y-100030000D01*
X86465925Y-99972993D01*
X86500000Y-99845826D01*
X86500000Y-99714174D01*
X86465925Y-99587007D01*
X86433012Y-99530000D01*
X87350000Y-99530000D01*
X87350000Y-98882172D01*
X87349999Y-98882155D01*
X87343598Y-98822627D01*
X87343596Y-98822620D01*
X87293354Y-98687913D01*
X87293350Y-98687906D01*
X87207190Y-98572812D01*
X87207187Y-98572809D01*
X87092093Y-98486649D01*
X87092086Y-98486645D01*
X86957379Y-98436403D01*
X86957372Y-98436401D01*
X86897844Y-98430000D01*
X86250000Y-98430000D01*
X86250000Y-99346988D01*
X86192993Y-99314075D01*
X86065826Y-99280000D01*
X85934174Y-99280000D01*
X85807007Y-99314075D01*
X85750000Y-99346988D01*
X85750000Y-98430000D01*
X85102155Y-98430000D01*
X85042627Y-98436401D01*
X85042620Y-98436403D01*
X84907913Y-98486645D01*
X84907906Y-98486649D01*
X84792812Y-98572809D01*
X84792809Y-98572812D01*
X84706649Y-98687906D01*
X84706645Y-98687913D01*
X84656403Y-98822620D01*
X84656401Y-98822627D01*
X84650000Y-98882155D01*
X84650000Y-99530000D01*
X85566988Y-99530000D01*
X85534075Y-99587007D01*
X85500000Y-99714174D01*
X85500000Y-99845826D01*
X85534075Y-99972993D01*
X85566988Y-100030000D01*
X84650000Y-100030000D01*
X84650000Y-100677844D01*
X84656401Y-100737372D01*
X84656403Y-100737379D01*
X84706645Y-100872086D01*
X84706649Y-100872093D01*
X84792809Y-100987187D01*
X84792812Y-100987190D01*
X84907906Y-101073350D01*
X84907913Y-101073354D01*
X85039470Y-101122422D01*
X85095404Y-101164293D01*
X85119821Y-101229758D01*
X85104969Y-101298031D01*
X85083819Y-101326285D01*
X84969889Y-101440215D01*
X84844951Y-101612179D01*
X84748444Y-101801585D01*
X84682753Y-102003760D01*
X84649500Y-102213713D01*
X82150500Y-102213713D01*
X82150500Y-90504935D01*
X82170185Y-90437896D01*
X82171366Y-90436090D01*
X82209394Y-90379179D01*
X82269737Y-90233497D01*
X82300500Y-90078842D01*
X82300500Y-89921158D01*
X82300500Y-89921155D01*
X82300499Y-89921153D01*
X82274531Y-89790606D01*
X82269737Y-89766503D01*
X82261688Y-89747070D01*
X82209397Y-89620827D01*
X82209390Y-89620814D01*
X82121787Y-89489708D01*
X82010292Y-89378213D01*
X82010288Y-89378210D01*
X81879185Y-89290609D01*
X81879172Y-89290602D01*
X81733501Y-89230264D01*
X81733489Y-89230261D01*
X81666420Y-89216920D01*
X81604509Y-89184535D01*
X81602930Y-89182984D01*
X81456819Y-89036873D01*
X81423334Y-88975550D01*
X81420500Y-88949192D01*
X81420500Y-85759617D01*
X81440185Y-85692578D01*
X81474592Y-85658902D01*
X81473874Y-85657914D01*
X81477811Y-85655053D01*
X81477816Y-85655051D01*
X81649792Y-85530104D01*
X81800104Y-85379792D01*
X81800106Y-85379788D01*
X81800109Y-85379786D01*
X81925048Y-85207820D01*
X81925047Y-85207820D01*
X81925051Y-85207816D01*
X81929514Y-85199054D01*
X81977488Y-85148259D01*
X82045308Y-85131463D01*
X82111444Y-85153999D01*
X82150486Y-85199056D01*
X82154951Y-85207820D01*
X82279890Y-85379786D01*
X82279896Y-85379792D01*
X82430208Y-85530104D01*
X82602184Y-85655051D01*
X82602188Y-85655053D01*
X82606126Y-85657914D01*
X82605146Y-85659262D01*
X82647160Y-85705690D01*
X82659500Y-85759617D01*
X82659500Y-89374069D01*
X82659500Y-89374071D01*
X82659499Y-89374071D01*
X82682502Y-89489708D01*
X82684498Y-89499741D01*
X82684499Y-89499745D01*
X82733533Y-89618125D01*
X82804726Y-89724673D01*
X82804727Y-89724674D01*
X84682984Y-91602930D01*
X84716469Y-91664253D01*
X84716920Y-91666420D01*
X84730261Y-91733489D01*
X84730264Y-91733501D01*
X84790602Y-91879172D01*
X84790609Y-91879185D01*
X84878210Y-92010288D01*
X84878213Y-92010292D01*
X84989707Y-92121786D01*
X84989711Y-92121789D01*
X85120814Y-92209390D01*
X85120827Y-92209397D01*
X85266498Y-92269735D01*
X85266503Y-92269737D01*
X85421153Y-92300499D01*
X85421156Y-92300500D01*
X85421158Y-92300500D01*
X85578844Y-92300500D01*
X85578845Y-92300499D01*
X85733497Y-92269737D01*
X85879179Y-92209394D01*
X86010289Y-92121789D01*
X86121789Y-92010289D01*
X86209394Y-91879179D01*
X86269737Y-91733497D01*
X86300500Y-91578842D01*
X86300500Y-91421158D01*
X86300500Y-91421155D01*
X86300499Y-91421153D01*
X86282510Y-91330717D01*
X86269737Y-91266503D01*
X86264587Y-91254069D01*
X86209397Y-91120827D01*
X86209390Y-91120814D01*
X86121789Y-90989711D01*
X86121786Y-90989707D01*
X86010292Y-90878213D01*
X86010288Y-90878210D01*
X85879185Y-90790609D01*
X85879172Y-90790602D01*
X85733501Y-90730264D01*
X85733489Y-90730261D01*
X85666420Y-90716920D01*
X85604509Y-90684535D01*
X85602930Y-90682984D01*
X83996819Y-89076873D01*
X83963334Y-89015550D01*
X83960500Y-88989192D01*
X83960500Y-85759617D01*
X83980185Y-85692578D01*
X84014592Y-85658902D01*
X84013874Y-85657914D01*
X84017811Y-85655053D01*
X84017816Y-85655051D01*
X84189792Y-85530104D01*
X84340104Y-85379792D01*
X84340106Y-85379788D01*
X84340109Y-85379786D01*
X84465048Y-85207820D01*
X84465047Y-85207820D01*
X84465051Y-85207816D01*
X84561557Y-85018412D01*
X84627246Y-84816243D01*
X84660500Y-84606287D01*
X84660500Y-84393713D01*
X84627246Y-84183757D01*
X84561557Y-83981588D01*
X84465051Y-83792184D01*
X84465049Y-83792181D01*
X84465048Y-83792179D01*
X84340109Y-83620213D01*
X84189786Y-83469890D01*
X84017820Y-83344951D01*
X84017115Y-83344591D01*
X84009054Y-83340485D01*
X83958259Y-83292512D01*
X83941463Y-83224692D01*
X83963999Y-83158556D01*
X84009054Y-83119515D01*
X84017816Y-83115051D01*
X84107020Y-83050241D01*
X84189786Y-82990109D01*
X84189788Y-82990106D01*
X84189792Y-82990104D01*
X84340104Y-82839792D01*
X84340106Y-82839788D01*
X84340109Y-82839786D01*
X84465048Y-82667820D01*
X84465047Y-82667820D01*
X84465051Y-82667816D01*
X84561557Y-82478412D01*
X84627246Y-82276243D01*
X84660500Y-82066287D01*
X84660500Y-81893713D01*
X90839500Y-81893713D01*
X90839500Y-82106286D01*
X90866418Y-82276243D01*
X90872754Y-82316243D01*
X90879266Y-82336286D01*
X90938444Y-82518414D01*
X91034951Y-82707820D01*
X91159890Y-82879786D01*
X91273818Y-82993714D01*
X91307303Y-83055037D01*
X91302319Y-83124729D01*
X91260447Y-83180662D01*
X91229471Y-83197577D01*
X91097912Y-83246646D01*
X91097906Y-83246649D01*
X90982812Y-83332809D01*
X90982809Y-83332812D01*
X90896649Y-83447906D01*
X90896645Y-83447913D01*
X90846403Y-83582620D01*
X90846401Y-83582627D01*
X90840000Y-83642155D01*
X90840000Y-84290000D01*
X91756988Y-84290000D01*
X91724075Y-84347007D01*
X91690000Y-84474174D01*
X91690000Y-84605826D01*
X91724075Y-84732993D01*
X91756988Y-84790000D01*
X90840000Y-84790000D01*
X90840000Y-85437844D01*
X90846401Y-85497372D01*
X90846403Y-85497379D01*
X90896645Y-85632086D01*
X90896649Y-85632093D01*
X90982809Y-85747187D01*
X90982812Y-85747190D01*
X91097906Y-85833350D01*
X91097913Y-85833354D01*
X91232620Y-85883596D01*
X91232627Y-85883598D01*
X91292155Y-85889999D01*
X91292172Y-85890000D01*
X91940000Y-85890000D01*
X91940000Y-84973012D01*
X91997007Y-85005925D01*
X92124174Y-85040000D01*
X92255826Y-85040000D01*
X92382993Y-85005925D01*
X92440000Y-84973012D01*
X92440000Y-85890000D01*
X93087828Y-85890000D01*
X93087844Y-85889999D01*
X93147372Y-85883598D01*
X93147379Y-85883596D01*
X93282086Y-85833354D01*
X93282093Y-85833350D01*
X93397187Y-85747190D01*
X93397190Y-85747187D01*
X93483350Y-85632093D01*
X93483354Y-85632086D01*
X93532422Y-85500529D01*
X93574293Y-85444595D01*
X93639757Y-85420178D01*
X93708030Y-85435030D01*
X93736285Y-85456181D01*
X93850208Y-85570104D01*
X94022184Y-85695051D01*
X94022188Y-85695053D01*
X94026126Y-85697914D01*
X94025146Y-85699262D01*
X94067160Y-85745690D01*
X94079500Y-85799617D01*
X94079500Y-102765064D01*
X94059815Y-102832103D01*
X94058603Y-102833954D01*
X94020608Y-102890817D01*
X94020602Y-102890828D01*
X93960264Y-103036498D01*
X93960261Y-103036510D01*
X93929500Y-103191153D01*
X93929500Y-103348846D01*
X93960261Y-103503489D01*
X93960264Y-103503501D01*
X94020602Y-103649172D01*
X94020609Y-103649185D01*
X94108210Y-103780288D01*
X94108213Y-103780292D01*
X94219707Y-103891786D01*
X94219711Y-103891789D01*
X94350814Y-103979390D01*
X94350827Y-103979397D01*
X94496498Y-104039735D01*
X94496503Y-104039737D01*
X94651153Y-104070499D01*
X94651156Y-104070500D01*
X94651158Y-104070500D01*
X94808844Y-104070500D01*
X94808845Y-104070499D01*
X94963497Y-104039737D01*
X95109179Y-103979394D01*
X95240289Y-103891789D01*
X95351789Y-103780289D01*
X95439394Y-103649179D01*
X95499737Y-103503497D01*
X95530500Y-103348842D01*
X95530500Y-103191158D01*
X95530500Y-103191155D01*
X95530499Y-103191153D01*
X95499738Y-103036510D01*
X95499737Y-103036503D01*
X95439394Y-102890821D01*
X95401396Y-102833953D01*
X95380520Y-102767276D01*
X95380500Y-102765064D01*
X95380500Y-85799617D01*
X95400185Y-85732578D01*
X95434592Y-85698902D01*
X95433874Y-85697914D01*
X95437811Y-85695053D01*
X95437816Y-85695051D01*
X95609792Y-85570104D01*
X95760104Y-85419792D01*
X95760106Y-85419788D01*
X95760109Y-85419786D01*
X95885048Y-85247820D01*
X95885047Y-85247820D01*
X95885051Y-85247816D01*
X95889514Y-85239054D01*
X95937488Y-85188259D01*
X96005308Y-85171463D01*
X96071444Y-85193999D01*
X96110486Y-85239056D01*
X96114951Y-85247820D01*
X96239890Y-85419786D01*
X96239896Y-85419792D01*
X96390208Y-85570104D01*
X96562184Y-85695051D01*
X96562188Y-85695053D01*
X96566126Y-85697914D01*
X96565146Y-85699262D01*
X96607160Y-85745690D01*
X96619500Y-85799617D01*
X96619500Y-88909191D01*
X96599815Y-88976230D01*
X96583181Y-88996872D01*
X96397068Y-89182984D01*
X96335745Y-89216469D01*
X96333579Y-89216920D01*
X96266508Y-89230261D01*
X96266498Y-89230264D01*
X96120827Y-89290602D01*
X96120814Y-89290609D01*
X95989711Y-89378210D01*
X95989707Y-89378213D01*
X95878213Y-89489707D01*
X95878213Y-89489708D01*
X95790609Y-89620814D01*
X95790602Y-89620827D01*
X95730264Y-89766498D01*
X95730261Y-89766510D01*
X95699500Y-89921153D01*
X95699500Y-90078846D01*
X95730261Y-90233489D01*
X95730264Y-90233501D01*
X95790602Y-90379172D01*
X95790609Y-90379185D01*
X95878210Y-90510288D01*
X95878213Y-90510292D01*
X95989707Y-90621786D01*
X95989711Y-90621789D01*
X96120814Y-90709390D01*
X96120827Y-90709397D01*
X96201847Y-90742956D01*
X96266503Y-90769737D01*
X96421153Y-90800499D01*
X96421156Y-90800500D01*
X96421158Y-90800500D01*
X96578844Y-90800500D01*
X96578845Y-90800499D01*
X96733497Y-90769737D01*
X96780121Y-90750424D01*
X96849588Y-90742956D01*
X96912067Y-90774231D01*
X96947720Y-90834319D01*
X96945227Y-90904144D01*
X96915254Y-90952666D01*
X96878214Y-90989706D01*
X96878210Y-90989711D01*
X96790609Y-91120814D01*
X96790602Y-91120827D01*
X96730264Y-91266498D01*
X96730261Y-91266510D01*
X96699500Y-91421153D01*
X96699500Y-91578846D01*
X96730261Y-91733489D01*
X96730264Y-91733501D01*
X96790602Y-91879172D01*
X96790606Y-91879179D01*
X96828602Y-91936044D01*
X96849480Y-92002721D01*
X96849500Y-92004935D01*
X96849500Y-114495064D01*
X96829815Y-114562103D01*
X96828603Y-114563954D01*
X96790608Y-114620817D01*
X96790602Y-114620828D01*
X96730264Y-114766498D01*
X96730261Y-114766510D01*
X96699500Y-114921153D01*
X96699500Y-115078846D01*
X96730261Y-115233489D01*
X96730264Y-115233501D01*
X96790602Y-115379172D01*
X96790609Y-115379185D01*
X96878210Y-115510288D01*
X96878213Y-115510292D01*
X96989707Y-115621786D01*
X96989711Y-115621789D01*
X97120814Y-115709390D01*
X97120827Y-115709397D01*
X97258683Y-115766498D01*
X97266503Y-115769737D01*
X97421153Y-115800499D01*
X97421156Y-115800500D01*
X97421158Y-115800500D01*
X97578844Y-115800500D01*
X97578845Y-115800499D01*
X97733497Y-115769737D01*
X97879179Y-115709394D01*
X98010289Y-115621789D01*
X98121789Y-115510289D01*
X98209394Y-115379179D01*
X98269737Y-115233497D01*
X98300500Y-115078842D01*
X98300500Y-114921158D01*
X98300500Y-114921155D01*
X98300499Y-114921153D01*
X98269738Y-114766510D01*
X98269737Y-114766503D01*
X98209394Y-114620821D01*
X98171396Y-114563953D01*
X98150520Y-114497276D01*
X98150500Y-114495064D01*
X98150500Y-98302155D01*
X98850000Y-98302155D01*
X98850000Y-98950000D01*
X99766988Y-98950000D01*
X99734075Y-99007007D01*
X99700000Y-99134174D01*
X99700000Y-99265826D01*
X99734075Y-99392993D01*
X99766988Y-99450000D01*
X98850000Y-99450000D01*
X98850000Y-100097844D01*
X98856401Y-100157372D01*
X98856403Y-100157379D01*
X98906645Y-100292086D01*
X98906649Y-100292093D01*
X98992809Y-100407187D01*
X98992812Y-100407190D01*
X99107906Y-100493350D01*
X99107913Y-100493354D01*
X99242620Y-100543596D01*
X99242627Y-100543598D01*
X99302155Y-100549999D01*
X99302172Y-100550000D01*
X99950000Y-100550000D01*
X99950000Y-99633012D01*
X100007007Y-99665925D01*
X100134174Y-99700000D01*
X100265826Y-99700000D01*
X100392993Y-99665925D01*
X100450000Y-99633012D01*
X100450000Y-100550000D01*
X101097828Y-100550000D01*
X101097844Y-100549999D01*
X101157372Y-100543598D01*
X101157379Y-100543596D01*
X101292086Y-100493354D01*
X101292093Y-100493350D01*
X101407187Y-100407190D01*
X101407190Y-100407187D01*
X101493350Y-100292093D01*
X101493354Y-100292086D01*
X101543596Y-100157379D01*
X101543598Y-100157372D01*
X101549999Y-100097844D01*
X101550000Y-100097827D01*
X101550000Y-99450000D01*
X100633012Y-99450000D01*
X100665925Y-99392993D01*
X100700000Y-99265826D01*
X100700000Y-99134174D01*
X100665925Y-99007007D01*
X100633012Y-98950000D01*
X101550000Y-98950000D01*
X101550000Y-98302172D01*
X101549999Y-98302155D01*
X101543598Y-98242627D01*
X101543596Y-98242620D01*
X101493354Y-98107913D01*
X101493350Y-98107906D01*
X101407190Y-97992812D01*
X101407187Y-97992809D01*
X101292093Y-97906649D01*
X101292086Y-97906645D01*
X101157379Y-97856403D01*
X101157372Y-97856401D01*
X101097844Y-97850000D01*
X100450000Y-97850000D01*
X100450000Y-98766988D01*
X100392993Y-98734075D01*
X100265826Y-98700000D01*
X100134174Y-98700000D01*
X100007007Y-98734075D01*
X99950000Y-98766988D01*
X99950000Y-97850000D01*
X99302155Y-97850000D01*
X99242627Y-97856401D01*
X99242620Y-97856403D01*
X99107913Y-97906645D01*
X99107906Y-97906649D01*
X98992812Y-97992809D01*
X98992809Y-97992812D01*
X98906649Y-98107906D01*
X98906645Y-98107913D01*
X98856403Y-98242620D01*
X98856401Y-98242627D01*
X98850000Y-98302155D01*
X98150500Y-98302155D01*
X98150500Y-92274500D01*
X98170185Y-92207461D01*
X98222989Y-92161706D01*
X98274500Y-92150500D01*
X98564071Y-92150500D01*
X98669499Y-92129528D01*
X98689744Y-92125501D01*
X98808127Y-92076465D01*
X98826679Y-92064069D01*
X98914669Y-92005277D01*
X100315277Y-90604669D01*
X100386465Y-90498127D01*
X100435501Y-90379744D01*
X100444685Y-90333576D01*
X100460500Y-90254071D01*
X100460500Y-85799617D01*
X100480185Y-85732578D01*
X100514592Y-85698902D01*
X100513874Y-85697914D01*
X100517811Y-85695053D01*
X100517816Y-85695051D01*
X100689792Y-85570104D01*
X100840104Y-85419792D01*
X100840106Y-85419788D01*
X100840109Y-85419786D01*
X100965048Y-85247820D01*
X100965047Y-85247820D01*
X100965051Y-85247816D01*
X101061557Y-85058412D01*
X101127246Y-84856243D01*
X101160500Y-84646287D01*
X101160500Y-84433713D01*
X101127246Y-84223757D01*
X101061557Y-84021588D01*
X100965051Y-83832184D01*
X100965049Y-83832181D01*
X100965048Y-83832179D01*
X100840109Y-83660213D01*
X100689786Y-83509890D01*
X100517820Y-83384951D01*
X100517115Y-83384591D01*
X100509054Y-83380485D01*
X100458259Y-83332512D01*
X100441463Y-83264692D01*
X100463999Y-83198556D01*
X100509054Y-83159515D01*
X100517816Y-83155051D01*
X100580110Y-83109792D01*
X100689786Y-83030109D01*
X100689788Y-83030106D01*
X100689792Y-83030104D01*
X100840104Y-82879792D01*
X100840106Y-82879788D01*
X100840109Y-82879786D01*
X100965048Y-82707820D01*
X100965047Y-82707820D01*
X100965051Y-82707816D01*
X101061557Y-82518412D01*
X101127246Y-82316243D01*
X101160500Y-82106287D01*
X101160500Y-81893713D01*
X101127246Y-81683757D01*
X101061557Y-81481588D01*
X100965051Y-81292184D01*
X100965049Y-81292181D01*
X100965048Y-81292179D01*
X100840109Y-81120213D01*
X100689786Y-80969890D01*
X100517820Y-80844951D01*
X100328414Y-80748444D01*
X100328413Y-80748443D01*
X100328412Y-80748443D01*
X100126243Y-80682754D01*
X100126241Y-80682753D01*
X100126240Y-80682753D01*
X99964957Y-80657208D01*
X99916287Y-80649500D01*
X99703713Y-80649500D01*
X99655042Y-80657208D01*
X99493760Y-80682753D01*
X99291585Y-80748444D01*
X99102179Y-80844951D01*
X98930213Y-80969890D01*
X98779890Y-81120213D01*
X98654949Y-81292182D01*
X98650484Y-81300946D01*
X98602509Y-81351742D01*
X98534688Y-81368536D01*
X98468553Y-81345998D01*
X98429516Y-81300946D01*
X98425050Y-81292182D01*
X98300109Y-81120213D01*
X98149786Y-80969890D01*
X97973875Y-80842085D01*
X97974851Y-80840740D01*
X97932834Y-80794295D01*
X97920500Y-80740382D01*
X97920500Y-78421153D01*
X104699500Y-78421153D01*
X104699500Y-78578846D01*
X104730261Y-78733489D01*
X104730264Y-78733501D01*
X104790602Y-78879172D01*
X104790606Y-78879179D01*
X104828602Y-78936044D01*
X104849480Y-79002721D01*
X104849500Y-79004935D01*
X104849500Y-98495064D01*
X104829815Y-98562103D01*
X104828603Y-98563954D01*
X104790608Y-98620817D01*
X104790602Y-98620828D01*
X104730264Y-98766498D01*
X104730261Y-98766510D01*
X104699500Y-98921153D01*
X104699500Y-99078846D01*
X104730261Y-99233489D01*
X104730264Y-99233501D01*
X104790602Y-99379172D01*
X104790609Y-99379185D01*
X104878210Y-99510288D01*
X104878213Y-99510292D01*
X104989707Y-99621786D01*
X104989711Y-99621789D01*
X105120814Y-99709390D01*
X105120827Y-99709397D01*
X105266498Y-99769735D01*
X105266503Y-99769737D01*
X105421153Y-99800499D01*
X105421156Y-99800500D01*
X105421158Y-99800500D01*
X105578844Y-99800500D01*
X105578845Y-99800499D01*
X105733497Y-99769737D01*
X105879179Y-99709394D01*
X106010289Y-99621789D01*
X106121789Y-99510289D01*
X106209394Y-99379179D01*
X106269737Y-99233497D01*
X106300500Y-99078842D01*
X106300500Y-98921158D01*
X106300500Y-98921155D01*
X106300499Y-98921153D01*
X106292738Y-98882135D01*
X106269737Y-98766503D01*
X106209394Y-98620821D01*
X106171396Y-98563953D01*
X106150520Y-98497276D01*
X106150500Y-98495064D01*
X106150500Y-79004935D01*
X106170185Y-78937896D01*
X106171366Y-78936090D01*
X106209394Y-78879179D01*
X106269737Y-78733497D01*
X106279508Y-78684373D01*
X106311892Y-78622464D01*
X106372607Y-78587890D01*
X106442377Y-78591629D01*
X106484696Y-78618295D01*
X106485001Y-78617924D01*
X106487957Y-78620350D01*
X106488806Y-78620885D01*
X106489707Y-78621786D01*
X106489711Y-78621789D01*
X106620814Y-78709390D01*
X106620827Y-78709397D01*
X106733554Y-78756089D01*
X106766498Y-78769735D01*
X106772131Y-78772068D01*
X106771114Y-78774522D01*
X106819930Y-78806510D01*
X106848390Y-78870321D01*
X106849500Y-78886878D01*
X106849500Y-109679192D01*
X106829815Y-109746231D01*
X106813181Y-109766873D01*
X105397069Y-111182984D01*
X105335746Y-111216469D01*
X105333580Y-111216920D01*
X105266508Y-111230261D01*
X105266498Y-111230264D01*
X105120827Y-111290602D01*
X105120814Y-111290609D01*
X104989711Y-111378210D01*
X104989707Y-111378213D01*
X104878213Y-111489707D01*
X104878210Y-111489711D01*
X104790609Y-111620814D01*
X104790602Y-111620827D01*
X104730264Y-111766498D01*
X104730261Y-111766510D01*
X104699500Y-111921153D01*
X104699500Y-112078846D01*
X104730261Y-112233489D01*
X104730264Y-112233501D01*
X104790602Y-112379172D01*
X104790609Y-112379185D01*
X104878210Y-112510288D01*
X104878213Y-112510292D01*
X104989707Y-112621786D01*
X104989711Y-112621789D01*
X105120814Y-112709390D01*
X105120827Y-112709397D01*
X105266498Y-112769735D01*
X105266503Y-112769737D01*
X105399737Y-112796239D01*
X105421153Y-112800499D01*
X105421156Y-112800500D01*
X105421158Y-112800500D01*
X105578844Y-112800500D01*
X105578845Y-112800499D01*
X105733497Y-112769737D01*
X105879179Y-112709394D01*
X106010289Y-112621789D01*
X106121789Y-112510289D01*
X106209394Y-112379179D01*
X106269737Y-112233497D01*
X106283079Y-112166417D01*
X106315462Y-112104508D01*
X106316956Y-112102987D01*
X108005276Y-110414669D01*
X108076465Y-110308127D01*
X108125501Y-110189744D01*
X108150500Y-110064069D01*
X108150500Y-78578269D01*
X108170185Y-78511230D01*
X108222989Y-78465475D01*
X108292147Y-78455531D01*
X108355703Y-78484556D01*
X108374292Y-78505626D01*
X108374347Y-78505581D01*
X108375609Y-78507119D01*
X108377603Y-78509379D01*
X108378212Y-78510291D01*
X108489707Y-78621786D01*
X108489711Y-78621789D01*
X108620814Y-78709390D01*
X108620827Y-78709397D01*
X108708230Y-78745599D01*
X108766503Y-78769737D01*
X108833580Y-78783079D01*
X108895490Y-78815463D01*
X108897069Y-78817015D01*
X109313181Y-79233127D01*
X109346666Y-79294450D01*
X109349500Y-79320808D01*
X109349500Y-125679191D01*
X109329815Y-125746230D01*
X109313181Y-125766872D01*
X106397068Y-128682984D01*
X106335745Y-128716469D01*
X106333579Y-128716920D01*
X106266508Y-128730261D01*
X106266498Y-128730264D01*
X106120827Y-128790602D01*
X106120814Y-128790609D01*
X105989711Y-128878210D01*
X105989707Y-128878213D01*
X105878213Y-128989707D01*
X105878210Y-128989711D01*
X105790609Y-129120814D01*
X105790602Y-129120827D01*
X105730264Y-129266498D01*
X105730261Y-129266510D01*
X105699500Y-129421153D01*
X105699500Y-129578846D01*
X105730261Y-129733489D01*
X105730264Y-129733501D01*
X105790602Y-129879172D01*
X105790609Y-129879185D01*
X105878210Y-130010288D01*
X105878213Y-130010292D01*
X105989707Y-130121786D01*
X105989711Y-130121789D01*
X106120814Y-130209390D01*
X106120827Y-130209397D01*
X106266498Y-130269735D01*
X106266503Y-130269737D01*
X106421153Y-130300499D01*
X106421156Y-130300500D01*
X106421158Y-130300500D01*
X106578844Y-130300500D01*
X106578845Y-130300499D01*
X106733497Y-130269737D01*
X106879179Y-130209394D01*
X107010289Y-130121789D01*
X107121789Y-130010289D01*
X107209394Y-129879179D01*
X107269737Y-129733497D01*
X107283079Y-129666416D01*
X107315463Y-129604509D01*
X107316959Y-129602985D01*
X110505276Y-126414670D01*
X110576465Y-126308127D01*
X110625501Y-126189744D01*
X110634988Y-126142051D01*
X110650500Y-126064069D01*
X110650500Y-78935931D01*
X110650500Y-78935928D01*
X110625502Y-78810260D01*
X110625500Y-78810254D01*
X110605189Y-78761221D01*
X110605187Y-78761216D01*
X110576468Y-78691878D01*
X110576462Y-78691868D01*
X110505278Y-78585332D01*
X110505272Y-78585325D01*
X109817014Y-77897068D01*
X109783529Y-77835745D01*
X109783105Y-77833714D01*
X109769737Y-77766503D01*
X109709794Y-77621786D01*
X109709397Y-77620827D01*
X109709390Y-77620814D01*
X109621789Y-77489711D01*
X109621786Y-77489707D01*
X109510292Y-77378213D01*
X109510288Y-77378210D01*
X109379185Y-77290609D01*
X109379172Y-77290602D01*
X109233501Y-77230264D01*
X109233489Y-77230261D01*
X109078845Y-77199500D01*
X109078842Y-77199500D01*
X108921158Y-77199500D01*
X108921155Y-77199500D01*
X108766510Y-77230261D01*
X108766498Y-77230264D01*
X108620827Y-77290602D01*
X108620814Y-77290609D01*
X108489711Y-77378210D01*
X108489707Y-77378213D01*
X108378213Y-77489707D01*
X108378210Y-77489711D01*
X108290609Y-77620814D01*
X108290602Y-77620827D01*
X108230264Y-77766498D01*
X108230261Y-77766510D01*
X108199500Y-77921153D01*
X108199500Y-77980191D01*
X108179815Y-78047230D01*
X108127011Y-78092985D01*
X108057853Y-78102929D01*
X107994297Y-78073904D01*
X107987819Y-78067872D01*
X107817014Y-77897068D01*
X107783529Y-77835745D01*
X107783105Y-77833714D01*
X107769737Y-77766503D01*
X107709794Y-77621786D01*
X107709397Y-77620827D01*
X107709390Y-77620814D01*
X107621789Y-77489711D01*
X107621786Y-77489707D01*
X107510292Y-77378213D01*
X107510288Y-77378210D01*
X107379185Y-77290609D01*
X107379172Y-77290602D01*
X107233501Y-77230264D01*
X107233489Y-77230261D01*
X107078845Y-77199500D01*
X107078842Y-77199500D01*
X106921158Y-77199500D01*
X106921155Y-77199500D01*
X106766510Y-77230261D01*
X106766498Y-77230264D01*
X106620827Y-77290602D01*
X106620814Y-77290609D01*
X106489711Y-77378210D01*
X106489707Y-77378213D01*
X106378213Y-77489707D01*
X106378210Y-77489711D01*
X106290609Y-77620814D01*
X106290602Y-77620827D01*
X106230264Y-77766498D01*
X106230261Y-77766507D01*
X106220491Y-77815626D01*
X106188105Y-77877536D01*
X106127389Y-77912110D01*
X106057620Y-77908369D01*
X106015303Y-77881704D01*
X106014999Y-77882076D01*
X106012040Y-77879647D01*
X106011193Y-77879114D01*
X106010292Y-77878213D01*
X106010288Y-77878210D01*
X105879185Y-77790609D01*
X105879172Y-77790602D01*
X105733501Y-77730264D01*
X105733489Y-77730261D01*
X105578845Y-77699500D01*
X105578842Y-77699500D01*
X105421158Y-77699500D01*
X105421155Y-77699500D01*
X105266510Y-77730261D01*
X105266498Y-77730264D01*
X105120827Y-77790602D01*
X105120814Y-77790609D01*
X104989711Y-77878210D01*
X104989707Y-77878213D01*
X104878213Y-77989707D01*
X104878210Y-77989711D01*
X104790609Y-78120814D01*
X104790602Y-78120827D01*
X104730264Y-78266498D01*
X104730261Y-78266510D01*
X104699500Y-78421153D01*
X97920500Y-78421153D01*
X97920500Y-78205928D01*
X97895502Y-78080261D01*
X97895501Y-78080260D01*
X97895501Y-78080256D01*
X97863034Y-78001873D01*
X97846466Y-77961874D01*
X97803568Y-77897673D01*
X97801212Y-77893473D01*
X97799177Y-77884611D01*
X97787735Y-77856990D01*
X97769737Y-77766503D01*
X97746080Y-77709390D01*
X97709397Y-77620827D01*
X97709390Y-77620814D01*
X97621789Y-77489711D01*
X97621786Y-77489707D01*
X97510292Y-77378213D01*
X97510288Y-77378210D01*
X97379185Y-77290609D01*
X97379172Y-77290602D01*
X97233501Y-77230264D01*
X97233489Y-77230261D01*
X97078845Y-77199500D01*
X97078842Y-77199500D01*
X96921158Y-77199500D01*
X96921155Y-77199500D01*
X96766510Y-77230261D01*
X96766498Y-77230264D01*
X96620827Y-77290602D01*
X96620814Y-77290609D01*
X96489711Y-77378210D01*
X96489706Y-77378214D01*
X96452666Y-77415254D01*
X96391343Y-77448739D01*
X96321651Y-77443753D01*
X96265718Y-77401881D01*
X96241302Y-77336417D01*
X96250424Y-77280121D01*
X96269737Y-77233497D01*
X96300500Y-77078842D01*
X96300500Y-76921158D01*
X96300500Y-76921155D01*
X96300499Y-76921153D01*
X96274531Y-76790606D01*
X96269737Y-76766503D01*
X96256062Y-76733489D01*
X96209397Y-76620827D01*
X96209390Y-76620814D01*
X96121789Y-76489711D01*
X96121786Y-76489707D01*
X96010292Y-76378213D01*
X96010288Y-76378210D01*
X95879185Y-76290609D01*
X95879172Y-76290602D01*
X95733501Y-76230264D01*
X95733489Y-76230261D01*
X95578845Y-76199500D01*
X95578842Y-76199500D01*
X95421158Y-76199500D01*
X95421155Y-76199500D01*
X95266510Y-76230261D01*
X95266498Y-76230264D01*
X95120827Y-76290602D01*
X95120814Y-76290609D01*
X94989711Y-76378210D01*
X94989707Y-76378213D01*
X94878213Y-76489707D01*
X94878210Y-76489711D01*
X94790609Y-76620814D01*
X94790602Y-76620827D01*
X94730264Y-76766498D01*
X94730261Y-76766508D01*
X94716920Y-76833579D01*
X94684535Y-76895490D01*
X94682984Y-76897068D01*
X94224725Y-77355328D01*
X94224724Y-77355329D01*
X94197616Y-77395900D01*
X94170869Y-77435931D01*
X94162311Y-77448739D01*
X94153533Y-77461876D01*
X94104499Y-77580255D01*
X94104497Y-77580261D01*
X94079500Y-77705928D01*
X94079500Y-80740382D01*
X94059815Y-80807421D01*
X94025408Y-80841099D01*
X94026125Y-80842085D01*
X93850213Y-80969890D01*
X93699890Y-81120213D01*
X93574949Y-81292182D01*
X93570484Y-81300946D01*
X93522509Y-81351742D01*
X93454688Y-81368536D01*
X93388553Y-81345998D01*
X93349516Y-81300946D01*
X93345050Y-81292182D01*
X93220109Y-81120213D01*
X93069786Y-80969890D01*
X92897820Y-80844951D01*
X92708414Y-80748444D01*
X92708413Y-80748443D01*
X92708412Y-80748443D01*
X92506243Y-80682754D01*
X92506241Y-80682753D01*
X92506240Y-80682753D01*
X92344957Y-80657208D01*
X92296287Y-80649500D01*
X92083713Y-80649500D01*
X92035042Y-80657208D01*
X91873760Y-80682753D01*
X91671585Y-80748444D01*
X91482179Y-80844951D01*
X91310213Y-80969890D01*
X91159890Y-81120213D01*
X91034951Y-81292179D01*
X90938444Y-81481585D01*
X90938443Y-81481587D01*
X90938443Y-81481588D01*
X90922406Y-81530946D01*
X90872753Y-81683760D01*
X90839500Y-81893713D01*
X84660500Y-81893713D01*
X84660500Y-81853713D01*
X84627246Y-81643757D01*
X84561557Y-81441588D01*
X84465051Y-81252184D01*
X84465049Y-81252181D01*
X84465048Y-81252179D01*
X84340109Y-81080213D01*
X84189786Y-80929890D01*
X84017820Y-80804951D01*
X83828414Y-80708444D01*
X83828413Y-80708443D01*
X83828412Y-80708443D01*
X83626243Y-80642754D01*
X83626241Y-80642753D01*
X83626240Y-80642753D01*
X83464957Y-80617208D01*
X83416287Y-80609500D01*
X83203713Y-80609500D01*
X83155042Y-80617208D01*
X82993760Y-80642753D01*
X82791585Y-80708444D01*
X82602179Y-80804951D01*
X82430213Y-80929890D01*
X82279890Y-81080213D01*
X82154949Y-81252182D01*
X82150484Y-81260946D01*
X82102509Y-81311742D01*
X82034688Y-81328536D01*
X81968553Y-81305998D01*
X81929516Y-81260946D01*
X81925050Y-81252182D01*
X81800109Y-81080213D01*
X81649786Y-80929890D01*
X81473875Y-80802085D01*
X81474851Y-80800740D01*
X81432834Y-80754295D01*
X81420500Y-80700382D01*
X81420500Y-79050807D01*
X81440185Y-78983768D01*
X81456810Y-78963135D01*
X81602932Y-78817012D01*
X81664251Y-78783530D01*
X81666316Y-78783099D01*
X81733497Y-78769737D01*
X81879179Y-78709394D01*
X82010289Y-78621789D01*
X82121789Y-78510289D01*
X82209394Y-78379179D01*
X82269737Y-78233497D01*
X82300500Y-78078842D01*
X82300500Y-77921158D01*
X82300500Y-77921155D01*
X82300499Y-77921153D01*
X82283079Y-77833576D01*
X82269737Y-77766503D01*
X82256062Y-77733489D01*
X82209397Y-77620827D01*
X82209390Y-77620814D01*
X82121789Y-77489711D01*
X82121786Y-77489707D01*
X82010292Y-77378213D01*
X82010288Y-77378210D01*
X81879185Y-77290609D01*
X81879172Y-77290602D01*
X81733501Y-77230264D01*
X81733489Y-77230261D01*
X81578845Y-77199500D01*
X81578842Y-77199500D01*
X81421158Y-77199500D01*
X81421155Y-77199500D01*
X81266510Y-77230261D01*
X81266498Y-77230264D01*
X81120827Y-77290602D01*
X81120814Y-77290609D01*
X80989711Y-77378210D01*
X80989707Y-77378213D01*
X80878213Y-77489707D01*
X80878210Y-77489711D01*
X80790609Y-77620814D01*
X80790602Y-77620827D01*
X80730264Y-77766498D01*
X80730261Y-77766508D01*
X80716920Y-77833579D01*
X80684535Y-77895490D01*
X80682984Y-77897068D01*
X80264726Y-78315326D01*
X80242811Y-78348125D01*
X80194453Y-78420499D01*
X80194452Y-78420501D01*
X80194451Y-78420500D01*
X80193536Y-78421870D01*
X80144499Y-78540255D01*
X80144497Y-78540261D01*
X80119500Y-78665928D01*
X80119500Y-80700382D01*
X80099815Y-80767421D01*
X80065408Y-80801099D01*
X80066125Y-80802085D01*
X79890213Y-80929890D01*
X79739890Y-81080213D01*
X79614949Y-81252182D01*
X79610484Y-81260946D01*
X79562509Y-81311742D01*
X79494688Y-81328536D01*
X79428553Y-81305998D01*
X79389516Y-81260946D01*
X79385050Y-81252182D01*
X79260109Y-81080213D01*
X79109786Y-80929890D01*
X78933875Y-80802085D01*
X78934851Y-80800740D01*
X78892834Y-80754295D01*
X78880500Y-80700382D01*
X78880500Y-79665928D01*
X78855502Y-79540261D01*
X78855501Y-79540260D01*
X78855501Y-79540256D01*
X78806465Y-79421873D01*
X78801652Y-79414670D01*
X78801648Y-79414664D01*
X78801648Y-79414663D01*
X78735275Y-79315328D01*
X78735272Y-79315325D01*
X78317014Y-78897068D01*
X78283529Y-78835745D01*
X78283105Y-78833714D01*
X78269737Y-78766503D01*
X78238825Y-78691874D01*
X78209397Y-78620827D01*
X78209390Y-78620814D01*
X78121789Y-78489711D01*
X78121786Y-78489707D01*
X78010292Y-78378213D01*
X78010288Y-78378210D01*
X77879185Y-78290609D01*
X77879172Y-78290602D01*
X77733501Y-78230264D01*
X77733489Y-78230261D01*
X77578845Y-78199500D01*
X77578842Y-78199500D01*
X77421158Y-78199500D01*
X77421155Y-78199500D01*
X77266510Y-78230261D01*
X77266498Y-78230264D01*
X77120827Y-78290602D01*
X77120814Y-78290609D01*
X76989711Y-78378210D01*
X76989707Y-78378213D01*
X76878213Y-78489707D01*
X76878210Y-78489711D01*
X76790609Y-78620814D01*
X76790602Y-78620827D01*
X76730264Y-78766498D01*
X76730261Y-78766510D01*
X76699500Y-78921153D01*
X76699500Y-79078846D01*
X76730261Y-79233489D01*
X76730264Y-79233501D01*
X76790602Y-79379172D01*
X76790609Y-79379185D01*
X76878210Y-79510288D01*
X76878213Y-79510292D01*
X76989707Y-79621786D01*
X76989711Y-79621789D01*
X77120814Y-79709390D01*
X77120827Y-79709397D01*
X77208230Y-79745599D01*
X77266503Y-79769737D01*
X77333580Y-79783079D01*
X77395490Y-79815463D01*
X77397069Y-79817015D01*
X77543181Y-79963127D01*
X77576666Y-80024450D01*
X77579500Y-80050808D01*
X77579500Y-80700382D01*
X77559815Y-80767421D01*
X77525408Y-80801099D01*
X77526125Y-80802085D01*
X77350213Y-80929890D01*
X77199890Y-81080213D01*
X77074949Y-81252182D01*
X77070484Y-81260946D01*
X77022509Y-81311742D01*
X76954688Y-81328536D01*
X76888553Y-81305998D01*
X76849516Y-81260946D01*
X76845050Y-81252182D01*
X76720109Y-81080213D01*
X76569786Y-80929890D01*
X76397820Y-80804951D01*
X76208414Y-80708444D01*
X76208413Y-80708443D01*
X76208412Y-80708443D01*
X76006243Y-80642754D01*
X76006241Y-80642753D01*
X76006240Y-80642753D01*
X75844957Y-80617208D01*
X75796287Y-80609500D01*
X75583713Y-80609500D01*
X75535042Y-80617208D01*
X75373760Y-80642753D01*
X75171585Y-80708444D01*
X74982179Y-80804951D01*
X74810213Y-80929890D01*
X74659890Y-81080213D01*
X74534951Y-81252179D01*
X74438444Y-81441585D01*
X74372753Y-81643760D01*
X74353020Y-81768349D01*
X74339500Y-81853713D01*
X72650500Y-81853713D01*
X72650500Y-77504935D01*
X72670185Y-77437896D01*
X72671366Y-77436090D01*
X72709394Y-77379179D01*
X72769737Y-77233497D01*
X72800500Y-77078842D01*
X72800500Y-76921158D01*
X72800500Y-76921155D01*
X72800499Y-76921153D01*
X72774531Y-76790606D01*
X72769737Y-76766503D01*
X72756062Y-76733489D01*
X72709397Y-76620827D01*
X72709390Y-76620814D01*
X72621789Y-76489711D01*
X72621786Y-76489707D01*
X72510292Y-76378213D01*
X72510288Y-76378210D01*
X72379185Y-76290609D01*
X72379172Y-76290602D01*
X72233501Y-76230264D01*
X72233489Y-76230261D01*
X72078845Y-76199500D01*
X72078842Y-76199500D01*
X71921158Y-76199500D01*
X71921155Y-76199500D01*
X71766510Y-76230261D01*
X71766498Y-76230264D01*
X71620827Y-76290602D01*
X71620814Y-76290609D01*
X71489711Y-76378210D01*
X71489707Y-76378213D01*
X71378213Y-76489707D01*
X71378210Y-76489711D01*
X71290609Y-76620814D01*
X71290602Y-76620827D01*
X71230264Y-76766498D01*
X71230261Y-76766510D01*
X71199500Y-76921153D01*
X64053232Y-76921153D01*
X64010292Y-76878213D01*
X64010288Y-76878210D01*
X63879185Y-76790609D01*
X63879172Y-76790602D01*
X63733501Y-76730264D01*
X63733489Y-76730261D01*
X63578845Y-76699500D01*
X63578842Y-76699500D01*
X63421158Y-76699500D01*
X63421155Y-76699500D01*
X63266510Y-76730261D01*
X63266498Y-76730264D01*
X63120827Y-76790602D01*
X63120814Y-76790609D01*
X62989711Y-76878210D01*
X62989707Y-76878213D01*
X62878213Y-76989707D01*
X62878210Y-76989711D01*
X62790609Y-77120814D01*
X62790602Y-77120827D01*
X62730264Y-77266498D01*
X62730261Y-77266510D01*
X62699500Y-77421153D01*
X62699500Y-77578846D01*
X62730261Y-77733489D01*
X62730264Y-77733501D01*
X62790602Y-77879172D01*
X62790609Y-77879185D01*
X62878210Y-78010288D01*
X62878213Y-78010292D01*
X62989707Y-78121786D01*
X62989711Y-78121789D01*
X63120814Y-78209390D01*
X63120827Y-78209397D01*
X63208230Y-78245599D01*
X63266503Y-78269737D01*
X63333580Y-78283079D01*
X63395490Y-78315463D01*
X63397069Y-78317015D01*
X63623181Y-78543127D01*
X63656666Y-78604450D01*
X63659500Y-78630808D01*
X63659500Y-80740382D01*
X63639815Y-80807421D01*
X63605408Y-80841099D01*
X63606125Y-80842085D01*
X63430213Y-80969890D01*
X63279890Y-81120213D01*
X63154949Y-81292182D01*
X63150484Y-81300946D01*
X63102509Y-81351742D01*
X63034688Y-81368536D01*
X62968553Y-81345998D01*
X62929516Y-81300946D01*
X62925050Y-81292182D01*
X62800109Y-81120213D01*
X62649786Y-80969890D01*
X62473875Y-80842085D01*
X62474851Y-80840740D01*
X62432834Y-80794295D01*
X62420500Y-80740382D01*
X62420500Y-77050807D01*
X62440185Y-76983768D01*
X62456814Y-76963131D01*
X64602931Y-74817013D01*
X64664252Y-74783530D01*
X64666317Y-74783099D01*
X64733497Y-74769737D01*
X64879179Y-74709394D01*
X65010289Y-74621789D01*
X65121789Y-74510289D01*
X65209394Y-74379179D01*
X65269737Y-74233497D01*
X65300500Y-74078842D01*
X65300500Y-73921158D01*
X65300500Y-73921155D01*
X65300499Y-73921153D01*
X65269738Y-73766510D01*
X65269738Y-73766508D01*
X65269737Y-73766503D01*
X65269735Y-73766498D01*
X65209397Y-73620827D01*
X65209390Y-73620814D01*
X65121789Y-73489711D01*
X65121786Y-73489707D01*
X65010292Y-73378213D01*
X65010288Y-73378210D01*
X64879185Y-73290609D01*
X64879172Y-73290602D01*
X64733501Y-73230264D01*
X64733489Y-73230261D01*
X64578845Y-73199500D01*
X64578842Y-73199500D01*
X64421158Y-73199500D01*
X64421155Y-73199500D01*
X64266510Y-73230261D01*
X64266498Y-73230264D01*
X64120827Y-73290602D01*
X64120814Y-73290609D01*
X63989711Y-73378210D01*
X63989707Y-73378213D01*
X63878213Y-73489707D01*
X63878210Y-73489711D01*
X63790609Y-73620814D01*
X63790602Y-73620827D01*
X63730264Y-73766498D01*
X63730261Y-73766508D01*
X63716920Y-73833579D01*
X63684535Y-73895490D01*
X63682984Y-73897068D01*
X61264722Y-76315331D01*
X61264718Y-76315336D01*
X61241892Y-76349500D01*
X61241892Y-76349501D01*
X61193534Y-76421874D01*
X61144499Y-76540255D01*
X61144497Y-76540261D01*
X61119500Y-76665928D01*
X61119500Y-80740382D01*
X61099815Y-80807421D01*
X61065408Y-80841099D01*
X61066125Y-80842085D01*
X60890213Y-80969890D01*
X60739890Y-81120213D01*
X60614949Y-81292182D01*
X60610484Y-81300946D01*
X60562509Y-81351742D01*
X60494688Y-81368536D01*
X60428553Y-81345998D01*
X60389516Y-81300946D01*
X60385050Y-81292182D01*
X60260109Y-81120213D01*
X60109786Y-80969890D01*
X59937820Y-80844951D01*
X59748414Y-80748444D01*
X59748413Y-80748443D01*
X59748412Y-80748443D01*
X59546243Y-80682754D01*
X59546241Y-80682753D01*
X59546240Y-80682753D01*
X59384957Y-80657208D01*
X59336287Y-80649500D01*
X59123713Y-80649500D01*
X59075042Y-80657208D01*
X58913760Y-80682753D01*
X58711585Y-80748444D01*
X58522179Y-80844951D01*
X58350213Y-80969890D01*
X58199890Y-81120213D01*
X58074951Y-81292179D01*
X57978444Y-81481585D01*
X57978443Y-81481587D01*
X57978443Y-81481588D01*
X57962406Y-81530946D01*
X57912753Y-81683760D01*
X57879500Y-81893713D01*
X51580733Y-81893713D01*
X51521557Y-81711588D01*
X51425051Y-81522184D01*
X51425049Y-81522181D01*
X51425048Y-81522179D01*
X51300109Y-81350213D01*
X51149786Y-81199890D01*
X50977820Y-81074951D01*
X50788414Y-80978444D01*
X50788413Y-80978443D01*
X50788412Y-80978443D01*
X50586243Y-80912754D01*
X50586241Y-80912753D01*
X50586240Y-80912753D01*
X50424957Y-80887208D01*
X50376287Y-80879500D01*
X50163713Y-80879500D01*
X50115042Y-80887208D01*
X49953760Y-80912753D01*
X49751585Y-80978444D01*
X49562179Y-81074951D01*
X49390213Y-81199890D01*
X49239890Y-81350213D01*
X49114949Y-81522182D01*
X49110484Y-81530946D01*
X49062509Y-81581742D01*
X48994688Y-81598536D01*
X48928553Y-81575998D01*
X48889516Y-81530946D01*
X48885050Y-81522182D01*
X48760109Y-81350213D01*
X48609786Y-81199890D01*
X48433875Y-81072085D01*
X48434851Y-81070740D01*
X48392834Y-81024295D01*
X48380500Y-80970382D01*
X48380500Y-80165928D01*
X48355502Y-80040261D01*
X48355501Y-80040260D01*
X48355501Y-80040256D01*
X48306465Y-79921873D01*
X48305042Y-79919744D01*
X48235277Y-79815331D01*
X48235275Y-79815329D01*
X48235273Y-79815326D01*
X48235272Y-79815325D01*
X45817014Y-77397068D01*
X45783529Y-77335745D01*
X45783105Y-77333714D01*
X45769737Y-77266503D01*
X45741984Y-77199500D01*
X45709397Y-77120827D01*
X45709390Y-77120814D01*
X45621789Y-76989711D01*
X45621786Y-76989707D01*
X45510292Y-76878213D01*
X45510288Y-76878210D01*
X45379185Y-76790609D01*
X45379172Y-76790602D01*
X45233501Y-76730264D01*
X45233489Y-76730261D01*
X45078845Y-76699500D01*
X45078842Y-76699500D01*
X44921158Y-76699500D01*
X44921155Y-76699500D01*
X44766510Y-76730261D01*
X44766498Y-76730264D01*
X44620827Y-76790602D01*
X44620814Y-76790609D01*
X44489711Y-76878210D01*
X44489707Y-76878213D01*
X44378213Y-76989707D01*
X44378210Y-76989711D01*
X44290609Y-77120814D01*
X44290602Y-77120827D01*
X44230264Y-77266498D01*
X44230261Y-77266510D01*
X44199500Y-77421153D01*
X44199500Y-77578846D01*
X44230261Y-77733489D01*
X44230264Y-77733501D01*
X44290602Y-77879172D01*
X44290609Y-77879185D01*
X44378210Y-78010288D01*
X44378213Y-78010292D01*
X44489707Y-78121786D01*
X44489711Y-78121789D01*
X44620814Y-78209390D01*
X44620827Y-78209397D01*
X44708230Y-78245599D01*
X44766503Y-78269737D01*
X44833580Y-78283079D01*
X44895490Y-78315463D01*
X44897069Y-78317015D01*
X47043181Y-80463127D01*
X47076666Y-80524450D01*
X47079500Y-80550808D01*
X47079500Y-80970382D01*
X47059815Y-81037421D01*
X47025408Y-81071099D01*
X47026125Y-81072085D01*
X46850213Y-81199890D01*
X46699890Y-81350213D01*
X46574949Y-81522182D01*
X46570484Y-81530946D01*
X46522509Y-81581742D01*
X46454688Y-81598536D01*
X46388553Y-81575998D01*
X46349516Y-81530946D01*
X46345050Y-81522182D01*
X46220109Y-81350213D01*
X46069786Y-81199890D01*
X45897820Y-81074951D01*
X45708414Y-80978444D01*
X45708413Y-80978443D01*
X45708412Y-80978443D01*
X45506243Y-80912754D01*
X45506241Y-80912753D01*
X45506240Y-80912753D01*
X45344957Y-80887208D01*
X45296287Y-80879500D01*
X45083713Y-80879500D01*
X44973888Y-80896894D01*
X44868945Y-80913516D01*
X44868686Y-80911882D01*
X44806094Y-80908730D01*
X44759288Y-80879342D01*
X41737626Y-77857680D01*
X41704141Y-77796357D01*
X41709125Y-77726665D01*
X41737622Y-77682323D01*
X42102931Y-77317013D01*
X42164252Y-77283530D01*
X42166317Y-77283099D01*
X42233497Y-77269737D01*
X42379179Y-77209394D01*
X42510289Y-77121789D01*
X42621789Y-77010289D01*
X42709394Y-76879179D01*
X42769737Y-76733497D01*
X42800500Y-76578842D01*
X42800500Y-76421158D01*
X42800500Y-76421155D01*
X42800499Y-76421153D01*
X42783079Y-76333579D01*
X42769737Y-76266503D01*
X42769735Y-76266498D01*
X42709397Y-76120827D01*
X42709390Y-76120814D01*
X42621789Y-75989711D01*
X42621786Y-75989707D01*
X42510292Y-75878213D01*
X42510288Y-75878210D01*
X42379185Y-75790609D01*
X42379172Y-75790602D01*
X42233501Y-75730264D01*
X42233489Y-75730261D01*
X42078845Y-75699500D01*
X42078842Y-75699500D01*
X41921158Y-75699500D01*
X41921155Y-75699500D01*
X41766510Y-75730261D01*
X41766498Y-75730264D01*
X41620827Y-75790602D01*
X41620814Y-75790609D01*
X41489711Y-75878210D01*
X41489707Y-75878213D01*
X41378213Y-75989707D01*
X41378210Y-75989711D01*
X41290609Y-76120814D01*
X41290602Y-76120827D01*
X41230264Y-76266498D01*
X41230261Y-76266508D01*
X41216920Y-76333579D01*
X41184535Y-76395490D01*
X41182984Y-76397068D01*
X40494725Y-77085328D01*
X40494724Y-77085329D01*
X40424969Y-77189728D01*
X40424959Y-77189743D01*
X40423534Y-77191873D01*
X40374499Y-77310255D01*
X40374497Y-77310261D01*
X40349500Y-77435928D01*
X25500500Y-77435928D01*
X25500500Y-61365186D01*
X29099500Y-61365186D01*
X29099500Y-61634813D01*
X29129686Y-61902719D01*
X29129688Y-61902731D01*
X29189684Y-62165594D01*
X29189687Y-62165602D01*
X29278734Y-62420082D01*
X29395714Y-62662994D01*
X29395716Y-62662997D01*
X29539162Y-62891289D01*
X29707266Y-63102085D01*
X29897915Y-63292734D01*
X30108711Y-63460838D01*
X30337003Y-63604284D01*
X30579921Y-63721267D01*
X30771049Y-63788145D01*
X30834397Y-63810312D01*
X30834405Y-63810315D01*
X30834408Y-63810315D01*
X30834409Y-63810316D01*
X31097268Y-63870312D01*
X31365187Y-63900499D01*
X31365188Y-63900500D01*
X31365191Y-63900500D01*
X31634812Y-63900500D01*
X31634812Y-63900499D01*
X31902732Y-63870312D01*
X32165591Y-63810316D01*
X32420079Y-63721267D01*
X32662997Y-63604284D01*
X32891289Y-63460838D01*
X33102085Y-63292734D01*
X33292734Y-63102085D01*
X33460838Y-62891289D01*
X33604284Y-62662997D01*
X33721267Y-62420079D01*
X33810316Y-62165591D01*
X33870312Y-61902732D01*
X33900500Y-61634809D01*
X33900500Y-61365191D01*
X33900499Y-61365186D01*
X108099500Y-61365186D01*
X108099500Y-61634813D01*
X108129686Y-61902719D01*
X108129688Y-61902731D01*
X108189684Y-62165594D01*
X108189687Y-62165602D01*
X108278734Y-62420082D01*
X108395714Y-62662994D01*
X108395716Y-62662997D01*
X108539162Y-62891289D01*
X108707266Y-63102085D01*
X108897915Y-63292734D01*
X109108711Y-63460838D01*
X109337003Y-63604284D01*
X109579921Y-63721267D01*
X109771049Y-63788145D01*
X109834397Y-63810312D01*
X109834405Y-63810315D01*
X109834408Y-63810315D01*
X109834409Y-63810316D01*
X110097268Y-63870312D01*
X110365187Y-63900499D01*
X110365188Y-63900500D01*
X110365191Y-63900500D01*
X110634812Y-63900500D01*
X110634812Y-63900499D01*
X110902732Y-63870312D01*
X111165591Y-63810316D01*
X111420079Y-63721267D01*
X111662997Y-63604284D01*
X111891289Y-63460838D01*
X112102085Y-63292734D01*
X112292734Y-63102085D01*
X112460838Y-62891289D01*
X112604284Y-62662997D01*
X112721267Y-62420079D01*
X112810316Y-62165591D01*
X112870312Y-61902732D01*
X112900500Y-61634809D01*
X112900500Y-61365191D01*
X112870312Y-61097268D01*
X112810316Y-60834409D01*
X112721267Y-60579921D01*
X112604284Y-60337003D01*
X112460838Y-60108711D01*
X112292734Y-59897915D01*
X112102085Y-59707266D01*
X111891289Y-59539162D01*
X111662997Y-59395716D01*
X111662994Y-59395714D01*
X111420082Y-59278734D01*
X111165602Y-59189687D01*
X111165594Y-59189684D01*
X110968446Y-59144687D01*
X110902732Y-59129688D01*
X110902728Y-59129687D01*
X110902719Y-59129686D01*
X110634813Y-59099500D01*
X110634809Y-59099500D01*
X110365191Y-59099500D01*
X110365186Y-59099500D01*
X110097280Y-59129686D01*
X110097268Y-59129688D01*
X109834405Y-59189684D01*
X109834397Y-59189687D01*
X109579917Y-59278734D01*
X109337005Y-59395714D01*
X109108712Y-59539161D01*
X108897915Y-59707265D01*
X108707265Y-59897915D01*
X108539161Y-60108712D01*
X108395714Y-60337005D01*
X108278734Y-60579917D01*
X108189687Y-60834397D01*
X108189684Y-60834405D01*
X108129688Y-61097268D01*
X108129686Y-61097280D01*
X108099500Y-61365186D01*
X33900499Y-61365186D01*
X33870312Y-61097268D01*
X33810316Y-60834409D01*
X33721267Y-60579921D01*
X33604284Y-60337003D01*
X33460838Y-60108711D01*
X33292734Y-59897915D01*
X33102085Y-59707266D01*
X32891289Y-59539162D01*
X32662997Y-59395716D01*
X32662994Y-59395714D01*
X32420082Y-59278734D01*
X32165602Y-59189687D01*
X32165594Y-59189684D01*
X31968446Y-59144687D01*
X31902732Y-59129688D01*
X31902728Y-59129687D01*
X31902719Y-59129686D01*
X31634813Y-59099500D01*
X31634809Y-59099500D01*
X31365191Y-59099500D01*
X31365186Y-59099500D01*
X31097280Y-59129686D01*
X31097268Y-59129688D01*
X30834405Y-59189684D01*
X30834397Y-59189687D01*
X30579917Y-59278734D01*
X30337005Y-59395714D01*
X30108712Y-59539161D01*
X29897915Y-59707265D01*
X29707265Y-59897915D01*
X29539161Y-60108712D01*
X29395714Y-60337005D01*
X29278734Y-60579917D01*
X29189687Y-60834397D01*
X29189684Y-60834405D01*
X29129688Y-61097268D01*
X29129686Y-61097280D01*
X29099500Y-61365186D01*
X25500500Y-61365186D01*
X25500500Y-55624500D01*
X25520185Y-55557461D01*
X25572989Y-55511706D01*
X25624500Y-55500500D01*
X116375500Y-55500500D01*
X116442539Y-55520185D01*
G37*
%TD.AperFunction*%
%TD*%
%TA.AperFunction,Conductor*%
%TO.N,/GND*%
G36*
X63111444Y-85193999D02*
G01*
X63150486Y-85239056D01*
X63154951Y-85247820D01*
X63279890Y-85419786D01*
X63279896Y-85419792D01*
X63430208Y-85570104D01*
X63602184Y-85695051D01*
X63602188Y-85695053D01*
X63606126Y-85697914D01*
X63605146Y-85699262D01*
X63647160Y-85745690D01*
X63659500Y-85799617D01*
X63659500Y-90869192D01*
X63639815Y-90936231D01*
X63623181Y-90956873D01*
X63193747Y-91386306D01*
X63132424Y-91419791D01*
X63062732Y-91414807D01*
X63018385Y-91386306D01*
X63010292Y-91378213D01*
X63010288Y-91378210D01*
X62879185Y-91290609D01*
X62879172Y-91290602D01*
X62733501Y-91230264D01*
X62733489Y-91230261D01*
X62666420Y-91216920D01*
X62604509Y-91184535D01*
X62602930Y-91182984D01*
X62456819Y-91036873D01*
X62423334Y-90975550D01*
X62420500Y-90949192D01*
X62420500Y-85799617D01*
X62440185Y-85732578D01*
X62474592Y-85698902D01*
X62473874Y-85697914D01*
X62477811Y-85695053D01*
X62477816Y-85695051D01*
X62649792Y-85570104D01*
X62800104Y-85419792D01*
X62800106Y-85419788D01*
X62800109Y-85419786D01*
X62925048Y-85247820D01*
X62925047Y-85247820D01*
X62925051Y-85247816D01*
X62929514Y-85239054D01*
X62977488Y-85188259D01*
X63045308Y-85171463D01*
X63111444Y-85193999D01*
G37*
%TD.AperFunction*%
%TA.AperFunction,Conductor*%
G36*
X98611444Y-85193999D02*
G01*
X98650486Y-85239056D01*
X98654951Y-85247820D01*
X98779890Y-85419786D01*
X98779896Y-85419792D01*
X98930208Y-85570104D01*
X99102184Y-85695051D01*
X99102188Y-85695053D01*
X99106126Y-85697914D01*
X99105146Y-85699262D01*
X99147160Y-85745690D01*
X99159500Y-85799617D01*
X99159500Y-89869192D01*
X99139815Y-89936231D01*
X99123181Y-89956873D01*
X98266873Y-90813181D01*
X98205550Y-90846666D01*
X98179192Y-90849500D01*
X98004935Y-90849500D01*
X97937896Y-90829815D01*
X97936090Y-90828633D01*
X97879179Y-90790606D01*
X97879172Y-90790602D01*
X97733501Y-90730264D01*
X97733489Y-90730261D01*
X97578845Y-90699500D01*
X97578842Y-90699500D01*
X97421158Y-90699500D01*
X97421155Y-90699500D01*
X97266510Y-90730261D01*
X97266502Y-90730263D01*
X97219878Y-90749575D01*
X97150408Y-90757042D01*
X97087930Y-90725766D01*
X97052278Y-90665677D01*
X97054773Y-90595852D01*
X97084747Y-90547331D01*
X97121786Y-90510292D01*
X97121789Y-90510289D01*
X97209394Y-90379179D01*
X97269737Y-90233497D01*
X97283079Y-90166416D01*
X97315463Y-90104509D01*
X97316905Y-90103040D01*
X97775276Y-89644670D01*
X97846465Y-89538127D01*
X97895501Y-89419744D01*
X97920500Y-89294069D01*
X97920500Y-85799617D01*
X97940185Y-85732578D01*
X97974592Y-85698902D01*
X97973874Y-85697914D01*
X97977811Y-85695053D01*
X97977816Y-85695051D01*
X98149792Y-85570104D01*
X98300104Y-85419792D01*
X98300106Y-85419788D01*
X98300109Y-85419786D01*
X98425048Y-85247820D01*
X98425047Y-85247820D01*
X98425051Y-85247816D01*
X98429514Y-85239054D01*
X98477488Y-85188259D01*
X98545308Y-85171463D01*
X98611444Y-85193999D01*
G37*
%TD.AperFunction*%
%TA.AperFunction,Conductor*%
G36*
X46531444Y-82883999D02*
G01*
X46570486Y-82929056D01*
X46574951Y-82937820D01*
X46699890Y-83109786D01*
X46850213Y-83260109D01*
X47022182Y-83385050D01*
X47030946Y-83389516D01*
X47081742Y-83437491D01*
X47098536Y-83505312D01*
X47075998Y-83571447D01*
X47030946Y-83610484D01*
X47022182Y-83614949D01*
X46850213Y-83739890D01*
X46699890Y-83890213D01*
X46574949Y-84062182D01*
X46570484Y-84070946D01*
X46522509Y-84121742D01*
X46454688Y-84138536D01*
X46388553Y-84115998D01*
X46349516Y-84070946D01*
X46345050Y-84062182D01*
X46220109Y-83890213D01*
X46069786Y-83739890D01*
X45897820Y-83614951D01*
X45892654Y-83612319D01*
X45889054Y-83610485D01*
X45838259Y-83562512D01*
X45821463Y-83494692D01*
X45843999Y-83428556D01*
X45889054Y-83389515D01*
X45897816Y-83385051D01*
X45959158Y-83340484D01*
X46069786Y-83260109D01*
X46069788Y-83260106D01*
X46069792Y-83260104D01*
X46220104Y-83109792D01*
X46220106Y-83109788D01*
X46220109Y-83109786D01*
X46329086Y-82959789D01*
X46345051Y-82937816D01*
X46349514Y-82929054D01*
X46397488Y-82878259D01*
X46465308Y-82861463D01*
X46531444Y-82883999D01*
G37*
%TD.AperFunction*%
%TA.AperFunction,Conductor*%
G36*
X49071444Y-82883999D02*
G01*
X49110486Y-82929056D01*
X49114951Y-82937820D01*
X49239890Y-83109786D01*
X49390213Y-83260109D01*
X49562182Y-83385050D01*
X49570946Y-83389516D01*
X49621742Y-83437491D01*
X49638536Y-83505312D01*
X49615998Y-83571447D01*
X49570946Y-83610484D01*
X49562182Y-83614949D01*
X49390213Y-83739890D01*
X49239890Y-83890213D01*
X49114949Y-84062182D01*
X49110484Y-84070946D01*
X49062509Y-84121742D01*
X48994688Y-84138536D01*
X48928553Y-84115998D01*
X48889516Y-84070946D01*
X48885050Y-84062182D01*
X48760109Y-83890213D01*
X48609786Y-83739890D01*
X48437820Y-83614951D01*
X48432654Y-83612319D01*
X48429054Y-83610485D01*
X48378259Y-83562512D01*
X48361463Y-83494692D01*
X48383999Y-83428556D01*
X48429054Y-83389515D01*
X48437816Y-83385051D01*
X48499158Y-83340484D01*
X48609786Y-83260109D01*
X48609788Y-83260106D01*
X48609792Y-83260104D01*
X48760104Y-83109792D01*
X48760106Y-83109788D01*
X48760109Y-83109786D01*
X48869086Y-82959789D01*
X48885051Y-82937816D01*
X48889514Y-82929054D01*
X48937488Y-82878259D01*
X49005308Y-82861463D01*
X49071444Y-82883999D01*
G37*
%TD.AperFunction*%
%TA.AperFunction,Conductor*%
G36*
X63111444Y-82653999D02*
G01*
X63150486Y-82699056D01*
X63154951Y-82707820D01*
X63279890Y-82879786D01*
X63430213Y-83030109D01*
X63602182Y-83155050D01*
X63610946Y-83159516D01*
X63661742Y-83207491D01*
X63678536Y-83275312D01*
X63655998Y-83341447D01*
X63610946Y-83380484D01*
X63602182Y-83384949D01*
X63430213Y-83509890D01*
X63279890Y-83660213D01*
X63154949Y-83832182D01*
X63150484Y-83840946D01*
X63102509Y-83891742D01*
X63034688Y-83908536D01*
X62968553Y-83885998D01*
X62929516Y-83840946D01*
X62925050Y-83832182D01*
X62800109Y-83660213D01*
X62649786Y-83509890D01*
X62477820Y-83384951D01*
X62477115Y-83384591D01*
X62469054Y-83380485D01*
X62418259Y-83332512D01*
X62401463Y-83264692D01*
X62423999Y-83198556D01*
X62469054Y-83159515D01*
X62477816Y-83155051D01*
X62540110Y-83109792D01*
X62649786Y-83030109D01*
X62649788Y-83030106D01*
X62649792Y-83030104D01*
X62800104Y-82879792D01*
X62800106Y-82879788D01*
X62800109Y-82879786D01*
X62925048Y-82707820D01*
X62925047Y-82707820D01*
X62925051Y-82707816D01*
X62929514Y-82699054D01*
X62977488Y-82648259D01*
X63045308Y-82631463D01*
X63111444Y-82653999D01*
G37*
%TD.AperFunction*%
%TA.AperFunction,Conductor*%
G36*
X65651444Y-82653999D02*
G01*
X65690486Y-82699056D01*
X65694951Y-82707820D01*
X65819890Y-82879786D01*
X65970213Y-83030109D01*
X66142182Y-83155050D01*
X66150946Y-83159516D01*
X66201742Y-83207491D01*
X66218536Y-83275312D01*
X66195998Y-83341447D01*
X66150946Y-83380484D01*
X66142182Y-83384949D01*
X65970213Y-83509890D01*
X65819890Y-83660213D01*
X65694949Y-83832182D01*
X65690484Y-83840946D01*
X65642509Y-83891742D01*
X65574688Y-83908536D01*
X65508553Y-83885998D01*
X65469516Y-83840946D01*
X65465050Y-83832182D01*
X65340109Y-83660213D01*
X65189786Y-83509890D01*
X65017820Y-83384951D01*
X65017115Y-83384591D01*
X65009054Y-83380485D01*
X64958259Y-83332512D01*
X64941463Y-83264692D01*
X64963999Y-83198556D01*
X65009054Y-83159515D01*
X65017816Y-83155051D01*
X65080110Y-83109792D01*
X65189786Y-83030109D01*
X65189788Y-83030106D01*
X65189792Y-83030104D01*
X65340104Y-82879792D01*
X65340106Y-82879788D01*
X65340109Y-82879786D01*
X65465048Y-82707820D01*
X65465047Y-82707820D01*
X65465051Y-82707816D01*
X65469514Y-82699054D01*
X65517488Y-82648259D01*
X65585308Y-82631463D01*
X65651444Y-82653999D01*
G37*
%TD.AperFunction*%
%TA.AperFunction,Conductor*%
G36*
X96071444Y-82653999D02*
G01*
X96110486Y-82699056D01*
X96114951Y-82707820D01*
X96239890Y-82879786D01*
X96390213Y-83030109D01*
X96562182Y-83155050D01*
X96570946Y-83159516D01*
X96621742Y-83207491D01*
X96638536Y-83275312D01*
X96615998Y-83341447D01*
X96570946Y-83380484D01*
X96562182Y-83384949D01*
X96390213Y-83509890D01*
X96239890Y-83660213D01*
X96114949Y-83832182D01*
X96110484Y-83840946D01*
X96062509Y-83891742D01*
X95994688Y-83908536D01*
X95928553Y-83885998D01*
X95889516Y-83840946D01*
X95885050Y-83832182D01*
X95760109Y-83660213D01*
X95609786Y-83509890D01*
X95437820Y-83384951D01*
X95437115Y-83384591D01*
X95429054Y-83380485D01*
X95378259Y-83332512D01*
X95361463Y-83264692D01*
X95383999Y-83198556D01*
X95429054Y-83159515D01*
X95437816Y-83155051D01*
X95500110Y-83109792D01*
X95609786Y-83030109D01*
X95609788Y-83030106D01*
X95609792Y-83030104D01*
X95760104Y-82879792D01*
X95760106Y-82879788D01*
X95760109Y-82879786D01*
X95885048Y-82707820D01*
X95885047Y-82707820D01*
X95885051Y-82707816D01*
X95889514Y-82699054D01*
X95937488Y-82648259D01*
X96005308Y-82631463D01*
X96071444Y-82653999D01*
G37*
%TD.AperFunction*%
%TA.AperFunction,Conductor*%
G36*
X98611444Y-82653999D02*
G01*
X98650486Y-82699056D01*
X98654951Y-82707820D01*
X98779890Y-82879786D01*
X98930213Y-83030109D01*
X99102182Y-83155050D01*
X99110946Y-83159516D01*
X99161742Y-83207491D01*
X99178536Y-83275312D01*
X99155998Y-83341447D01*
X99110946Y-83380484D01*
X99102182Y-83384949D01*
X98930213Y-83509890D01*
X98779890Y-83660213D01*
X98654949Y-83832182D01*
X98650484Y-83840946D01*
X98602509Y-83891742D01*
X98534688Y-83908536D01*
X98468553Y-83885998D01*
X98429516Y-83840946D01*
X98425050Y-83832182D01*
X98300109Y-83660213D01*
X98149786Y-83509890D01*
X97977820Y-83384951D01*
X97977115Y-83384591D01*
X97969054Y-83380485D01*
X97918259Y-83332512D01*
X97901463Y-83264692D01*
X97923999Y-83198556D01*
X97969054Y-83159515D01*
X97977816Y-83155051D01*
X98040110Y-83109792D01*
X98149786Y-83030109D01*
X98149788Y-83030106D01*
X98149792Y-83030104D01*
X98300104Y-82879792D01*
X98300106Y-82879788D01*
X98300109Y-82879786D01*
X98425048Y-82707820D01*
X98425047Y-82707820D01*
X98425051Y-82707816D01*
X98429514Y-82699054D01*
X98477488Y-82648259D01*
X98545308Y-82631463D01*
X98611444Y-82653999D01*
G37*
%TD.AperFunction*%
%TA.AperFunction,Conductor*%
G36*
X43991444Y-82883999D02*
G01*
X44030486Y-82929056D01*
X44034951Y-82937820D01*
X44159890Y-83109786D01*
X44310213Y-83260109D01*
X44482182Y-83385050D01*
X44490946Y-83389516D01*
X44541742Y-83437491D01*
X44558536Y-83505312D01*
X44535998Y-83571447D01*
X44490946Y-83610484D01*
X44482182Y-83614949D01*
X44310215Y-83739889D01*
X44196285Y-83853819D01*
X44134962Y-83887303D01*
X44065270Y-83882319D01*
X44009337Y-83840447D01*
X43992422Y-83809470D01*
X43943354Y-83677913D01*
X43943350Y-83677906D01*
X43857190Y-83562812D01*
X43857187Y-83562809D01*
X43742093Y-83476649D01*
X43742088Y-83476646D01*
X43610528Y-83427577D01*
X43554595Y-83385705D01*
X43530178Y-83320241D01*
X43545030Y-83251968D01*
X43566175Y-83223720D01*
X43680104Y-83109792D01*
X43805051Y-82937816D01*
X43809514Y-82929054D01*
X43857488Y-82878259D01*
X43925308Y-82861463D01*
X43991444Y-82883999D01*
G37*
%TD.AperFunction*%
%TA.AperFunction,Conductor*%
G36*
X79571444Y-82613999D02*
G01*
X79610486Y-82659056D01*
X79614951Y-82667820D01*
X79739890Y-82839786D01*
X79890213Y-82990109D01*
X80062182Y-83115050D01*
X80070946Y-83119516D01*
X80121742Y-83167491D01*
X80138536Y-83235312D01*
X80115998Y-83301447D01*
X80070946Y-83340484D01*
X80062182Y-83344949D01*
X79890213Y-83469890D01*
X79739890Y-83620213D01*
X79614949Y-83792182D01*
X79610484Y-83800946D01*
X79562509Y-83851742D01*
X79494688Y-83868536D01*
X79428553Y-83845998D01*
X79389516Y-83800946D01*
X79385050Y-83792182D01*
X79260109Y-83620213D01*
X79109786Y-83469890D01*
X78937820Y-83344951D01*
X78937115Y-83344591D01*
X78929054Y-83340485D01*
X78878259Y-83292512D01*
X78861463Y-83224692D01*
X78883999Y-83158556D01*
X78929054Y-83119515D01*
X78937816Y-83115051D01*
X79027020Y-83050241D01*
X79109786Y-82990109D01*
X79109788Y-82990106D01*
X79109792Y-82990104D01*
X79260104Y-82839792D01*
X79260106Y-82839788D01*
X79260109Y-82839786D01*
X79385048Y-82667820D01*
X79385047Y-82667820D01*
X79385051Y-82667816D01*
X79389514Y-82659054D01*
X79437488Y-82608259D01*
X79505308Y-82591463D01*
X79571444Y-82613999D01*
G37*
%TD.AperFunction*%
%TA.AperFunction,Conductor*%
G36*
X82111444Y-82613999D02*
G01*
X82150486Y-82659056D01*
X82154951Y-82667820D01*
X82279890Y-82839786D01*
X82430213Y-82990109D01*
X82602182Y-83115050D01*
X82610946Y-83119516D01*
X82661742Y-83167491D01*
X82678536Y-83235312D01*
X82655998Y-83301447D01*
X82610946Y-83340484D01*
X82602182Y-83344949D01*
X82430213Y-83469890D01*
X82279890Y-83620213D01*
X82154949Y-83792182D01*
X82150484Y-83800946D01*
X82102509Y-83851742D01*
X82034688Y-83868536D01*
X81968553Y-83845998D01*
X81929516Y-83800946D01*
X81925050Y-83792182D01*
X81800109Y-83620213D01*
X81649786Y-83469890D01*
X81477820Y-83344951D01*
X81477115Y-83344591D01*
X81469054Y-83340485D01*
X81418259Y-83292512D01*
X81401463Y-83224692D01*
X81423999Y-83158556D01*
X81469054Y-83119515D01*
X81477816Y-83115051D01*
X81567020Y-83050241D01*
X81649786Y-82990109D01*
X81649788Y-82990106D01*
X81649792Y-82990104D01*
X81800104Y-82839792D01*
X81800106Y-82839788D01*
X81800109Y-82839786D01*
X81925048Y-82667820D01*
X81925047Y-82667820D01*
X81925051Y-82667816D01*
X81929514Y-82659054D01*
X81977488Y-82608259D01*
X82045308Y-82591463D01*
X82111444Y-82613999D01*
G37*
%TD.AperFunction*%
%TA.AperFunction,Conductor*%
G36*
X60571444Y-82653999D02*
G01*
X60610486Y-82699056D01*
X60614951Y-82707820D01*
X60739890Y-82879786D01*
X60890213Y-83030109D01*
X61062182Y-83155050D01*
X61070946Y-83159516D01*
X61121742Y-83207491D01*
X61138536Y-83275312D01*
X61115998Y-83341447D01*
X61070946Y-83380484D01*
X61062182Y-83384949D01*
X60890215Y-83509889D01*
X60776285Y-83623819D01*
X60714962Y-83657303D01*
X60645270Y-83652319D01*
X60589337Y-83610447D01*
X60572422Y-83579470D01*
X60523354Y-83447913D01*
X60523350Y-83447906D01*
X60437190Y-83332812D01*
X60437187Y-83332809D01*
X60322093Y-83246649D01*
X60322088Y-83246646D01*
X60190528Y-83197577D01*
X60134595Y-83155705D01*
X60110178Y-83090241D01*
X60125030Y-83021968D01*
X60146175Y-82993720D01*
X60260104Y-82879792D01*
X60289166Y-82839792D01*
X60385048Y-82707820D01*
X60385047Y-82707820D01*
X60385051Y-82707816D01*
X60389514Y-82699054D01*
X60437488Y-82648259D01*
X60505308Y-82631463D01*
X60571444Y-82653999D01*
G37*
%TD.AperFunction*%
%TA.AperFunction,Conductor*%
G36*
X93531444Y-82653999D02*
G01*
X93570486Y-82699056D01*
X93574951Y-82707820D01*
X93699890Y-82879786D01*
X93850213Y-83030109D01*
X94022182Y-83155050D01*
X94030946Y-83159516D01*
X94081742Y-83207491D01*
X94098536Y-83275312D01*
X94075998Y-83341447D01*
X94030946Y-83380484D01*
X94022182Y-83384949D01*
X93850215Y-83509889D01*
X93736285Y-83623819D01*
X93674962Y-83657303D01*
X93605270Y-83652319D01*
X93549337Y-83610447D01*
X93532422Y-83579470D01*
X93483354Y-83447913D01*
X93483350Y-83447906D01*
X93397190Y-83332812D01*
X93397187Y-83332809D01*
X93282093Y-83246649D01*
X93282088Y-83246646D01*
X93150528Y-83197577D01*
X93094595Y-83155705D01*
X93070178Y-83090241D01*
X93085030Y-83021968D01*
X93106175Y-82993720D01*
X93220104Y-82879792D01*
X93249166Y-82839792D01*
X93345048Y-82707820D01*
X93345047Y-82707820D01*
X93345051Y-82707816D01*
X93349514Y-82699054D01*
X93397488Y-82648259D01*
X93465308Y-82631463D01*
X93531444Y-82653999D01*
G37*
%TD.AperFunction*%
%TA.AperFunction,Conductor*%
G36*
X77031444Y-82613999D02*
G01*
X77070486Y-82659056D01*
X77074951Y-82667820D01*
X77199890Y-82839786D01*
X77350213Y-82990109D01*
X77522182Y-83115050D01*
X77530946Y-83119516D01*
X77581742Y-83167491D01*
X77598536Y-83235312D01*
X77575998Y-83301447D01*
X77530946Y-83340484D01*
X77522182Y-83344949D01*
X77350215Y-83469889D01*
X77236285Y-83583819D01*
X77174962Y-83617303D01*
X77105270Y-83612319D01*
X77049337Y-83570447D01*
X77032422Y-83539470D01*
X76983354Y-83407913D01*
X76983350Y-83407906D01*
X76897190Y-83292812D01*
X76897187Y-83292809D01*
X76782093Y-83206649D01*
X76782088Y-83206646D01*
X76650528Y-83157577D01*
X76594595Y-83115705D01*
X76570178Y-83050241D01*
X76585030Y-82981968D01*
X76606175Y-82953720D01*
X76720104Y-82839792D01*
X76845051Y-82667816D01*
X76849514Y-82659054D01*
X76897488Y-82608259D01*
X76965308Y-82591463D01*
X77031444Y-82613999D01*
G37*
%TD.AperFunction*%
%TA.AperFunction,Conductor*%
G36*
X96154120Y-77554512D02*
G01*
X96178345Y-77556245D01*
X96187365Y-77562997D01*
X96198285Y-77565784D01*
X96214835Y-77583560D01*
X96234279Y-77598115D01*
X96238217Y-77608673D01*
X96245896Y-77616921D01*
X96250208Y-77640822D01*
X96258697Y-77663579D01*
X96256623Y-77676374D01*
X96258303Y-77685680D01*
X96250382Y-77717880D01*
X96249970Y-77718925D01*
X96230263Y-77766503D01*
X96229281Y-77771437D01*
X96229280Y-77771441D01*
X96199500Y-77921153D01*
X96199500Y-78078846D01*
X96230261Y-78233489D01*
X96230264Y-78233501D01*
X96290602Y-78379172D01*
X96290609Y-78379185D01*
X96378210Y-78510288D01*
X96378213Y-78510292D01*
X96489708Y-78621787D01*
X96489711Y-78621789D01*
X96564391Y-78671688D01*
X96609195Y-78725299D01*
X96619500Y-78774790D01*
X96619500Y-80740382D01*
X96599815Y-80807421D01*
X96565408Y-80841099D01*
X96566125Y-80842085D01*
X96390213Y-80969890D01*
X96239890Y-81120213D01*
X96114949Y-81292182D01*
X96110484Y-81300946D01*
X96062509Y-81351742D01*
X95994688Y-81368536D01*
X95928553Y-81345998D01*
X95889516Y-81300946D01*
X95885050Y-81292182D01*
X95760109Y-81120213D01*
X95609786Y-80969890D01*
X95433875Y-80842085D01*
X95434851Y-80840740D01*
X95392834Y-80794295D01*
X95380500Y-80740382D01*
X95380500Y-78090807D01*
X95400185Y-78023768D01*
X95416815Y-78003130D01*
X95602931Y-77817013D01*
X95664252Y-77783530D01*
X95666317Y-77783099D01*
X95733497Y-77769737D01*
X95879179Y-77709394D01*
X96010289Y-77621789D01*
X96047331Y-77584747D01*
X96057219Y-77579346D01*
X96064291Y-77570572D01*
X96087336Y-77562901D01*
X96108653Y-77551261D01*
X96119893Y-77552064D01*
X96130585Y-77548506D01*
X96154120Y-77554512D01*
G37*
%TD.AperFunction*%
%TD*%
M02*
