%TF.GenerationSoftware,KiCad,Pcbnew,10.0.0*%
%TF.CreationDate,2026-04-21T21:01:55+03:00*%
%TF.ProjectId,8266 + batery,38323636-202b-4206-9261-746572792e6b,rev?*%
%TF.SameCoordinates,Original*%
%TF.FileFunction,Soldermask,Top*%
%TF.FilePolarity,Negative*%
%FSLAX46Y46*%
G04 Gerber Fmt 4.6, Leading zero omitted, Abs format (unit mm)*
G04 Created by KiCad (PCBNEW 10.0.0) date 2026-04-21 21:01:55*
%MOMM*%
%LPD*%
G01*
G04 APERTURE LIST*
G04 Aperture macros list*
%AMRoundRect*
0 Rectangle with rounded corners*
0 $1 Rounding radius*
0 $2 $3 $4 $5 $6 $7 $8 $9 X,Y pos of 4 corners*
0 Add a 4 corners polygon primitive as box body*
4,1,4,$2,$3,$4,$5,$6,$7,$8,$9,$2,$3,0*
0 Add four circle primitives for the rounded corners*
1,1,$1+$1,$2,$3*
1,1,$1+$1,$4,$5*
1,1,$1+$1,$6,$7*
1,1,$1+$1,$8,$9*
0 Add four rect primitives between the rounded corners*
20,1,$1+$1,$2,$3,$4,$5,0*
20,1,$1+$1,$4,$5,$6,$7,0*
20,1,$1+$1,$6,$7,$8,$9,0*
20,1,$1+$1,$8,$9,$2,$3,0*%
G04 Aperture macros list end*
%ADD10R,1.700000X1.700000*%
%ADD11C,1.700000*%
%ADD12C,4.300000*%
%ADD13RoundRect,0.150000X-0.512500X-0.150000X0.512500X-0.150000X0.512500X0.150000X-0.512500X0.150000X0*%
%ADD14RoundRect,0.375000X-0.625000X-0.375000X0.625000X-0.375000X0.625000X0.375000X-0.625000X0.375000X0*%
%ADD15RoundRect,0.500000X-0.500000X-1.400000X0.500000X-1.400000X0.500000X1.400000X-0.500000X1.400000X0*%
G04 APERTURE END LIST*
D10*
%TO.C,SW1*%
X114795000Y-75705000D03*
D11*
X117335000Y-75705000D03*
%TD*%
D10*
%TO.C,lftpins1*%
X99500000Y-129340000D03*
D11*
X99500000Y-131880000D03*
X99500000Y-134420000D03*
X99500000Y-136960000D03*
X99500000Y-139500000D03*
X99500000Y-142040000D03*
X99500000Y-144580000D03*
X99500000Y-147120000D03*
X99500000Y-149660000D03*
X99500000Y-152200000D03*
X99500000Y-154740000D03*
X99500000Y-157280000D03*
X99500000Y-159820000D03*
X99500000Y-162360000D03*
X99500000Y-164900000D03*
%TD*%
D10*
%TO.C,VBat1*%
X105000000Y-76000000D03*
%TD*%
%TO.C,GND-32U1*%
X156000000Y-111500000D03*
%TD*%
%TO.C,3V3-S3*%
X76500000Y-119000000D03*
%TD*%
%TO.C,rhtpins1*%
X127500000Y-129340000D03*
D11*
X127500000Y-131880000D03*
X127500000Y-134420000D03*
X127500000Y-136960000D03*
X127500000Y-139500000D03*
X127500000Y-142040000D03*
X127500000Y-144580000D03*
X127500000Y-147120000D03*
X127500000Y-149660000D03*
X127500000Y-152200000D03*
X127500000Y-154740000D03*
X127500000Y-157280000D03*
X127500000Y-159820000D03*
X127500000Y-162360000D03*
X127500000Y-164900000D03*
%TD*%
D12*
%TO.C,H1*%
X76500000Y-76500000D03*
%TD*%
D10*
%TO.C,IO35-RX1*%
X157000000Y-135500000D03*
%TD*%
D13*
%TO.C,esp32-s3-regulator1*%
X113362500Y-128550000D03*
X113362500Y-129500000D03*
X113362500Y-130450000D03*
X115637500Y-130450000D03*
X115637500Y-128550000D03*
%TD*%
D10*
%TO.C,GND-S3*%
X156000000Y-119000000D03*
%TD*%
%TO.C,3V3-32U1*%
X76500000Y-111500000D03*
%TD*%
D12*
%TO.C,H3*%
X76500000Y-163000000D03*
%TD*%
%TO.C,H4*%
X155500000Y-163000000D03*
%TD*%
%TO.C,H2*%
X155500000Y-76500000D03*
%TD*%
D10*
%TO.C,IO32-TX1*%
X157000000Y-127500000D03*
%TD*%
D14*
%TO.C,esp32u-regulator1*%
X109350000Y-113200000D03*
X109350000Y-115500000D03*
D15*
X115650000Y-115500000D03*
D14*
X109350000Y-117800000D03*
%TD*%
D10*
%TO.C,GBat1*%
X131000000Y-76000000D03*
%TD*%
M02*
