M48
; DRILL file KiCad 10.0.0 date 2026-04-21T21:01:56
; FORMAT={-:-/ absolute / metric / decimal}
; #@! TF.CreationDate,2026-04-21T21:01:56+03:00
; #@! TF.GenerationSoftware,Kicad,Pcbnew,10.0.0
; #@! TF.FileFunction,Plated,1,2,PTH
FMAT,2
METRIC
; #@! TA.AperFunction,Plated,PTH,ViaDrill
T1C0.300
; #@! TA.AperFunction,Plated,PTH,ComponentDrill
T2C1.000
%
G90
G05
T1
X88.0Y-101.5
X88.0Y-107.5
X88.0Y-124.5
X88.0Y-162.0
X94.5Y-76.5
X105.0Y-118.0
X111.0Y-128.9
X111.0Y-130.5
X112.0Y-124.5
X115.5Y-122.0
X119.0Y-118.5
X122.0Y-121.5
X122.0Y-126.0
X122.0Y-158.0
X125.0Y-76.5
T2
X76.5Y-111.5
X76.5Y-119.0
X99.5Y-129.34
X99.5Y-131.88
X99.5Y-134.42
X99.5Y-136.96
X99.5Y-139.5
X99.5Y-142.04
X99.5Y-144.58
X99.5Y-147.12
X99.5Y-149.66
X99.5Y-152.2
X99.5Y-154.74
X99.5Y-157.28
X99.5Y-159.82
X99.5Y-162.36
X99.5Y-164.9
X105.0Y-76.0
X114.795Y-75.705
X117.335Y-75.705
X127.5Y-129.34
X127.5Y-131.88
X127.5Y-134.42
X127.5Y-136.96
X127.5Y-139.5
X127.5Y-142.04
X127.5Y-144.58
X127.5Y-147.12
X127.5Y-149.66
X127.5Y-152.2
X127.5Y-154.74
X127.5Y-157.28
X127.5Y-159.82
X127.5Y-162.36
X127.5Y-164.9
X131.0Y-76.0
X156.0Y-111.5
X156.0Y-119.0
X157.0Y-127.5
X157.0Y-135.5
M30
